<svg class="marks" width="927" height="439" viewBox="0 0 927 439" version="1.1" xmlns="http://www.w3.org/2000/svg" xmlns:xlink="http://www.w3.org/1999/xlink"><rect width="927" height="439" style="fill: white;"></rect><g transform="translate(64,27)"><g class="mark-group role-frame root"><g transform="translate(0,0)"><path class="background" d="M0.5,0.5h750v375h-750Z" style="fill: none; stroke: #ddd;"></path><g><g class="mark-group role-axis"><g transform="translate(0.5,375.5)"><path class="background" d="M0,0h0v0h0Z" style="pointer-events: none; fill: none;"></path><g><g class="mark-rule role-axis-grid" style="pointer-events: none;"><line transform="translate(41,-375)" x2="0" y2="375" style="fill: none; stroke: #ddd; stroke-width: 1; opacity: 1;"></line><line transform="translate(112,-375)" x2="0" y2="375" style="fill: none; stroke: #ddd; stroke-width: 1; opacity: 1;"></line><line transform="translate(183,-375)" x2="0" y2="375" style="fill: none; stroke: #ddd; stroke-width: 1; opacity: 1;"></line><line transform="translate(254,-375)" x2="0" y2="375" style="fill: none; stroke: #ddd; stroke-width: 1; opacity: 1;"></line><line transform="translate(325,-375)" x2="0" y2="375" style="fill: none; stroke: #ddd; stroke-width: 1; opacity: 1;"></line><line transform="translate(395,-375)" x2="0" y2="375" style="fill: none; stroke: #ddd; stroke-width: 1; opacity: 1;"></line><line transform="translate(466,-375)" x2="0" y2="375" style="fill: none; stroke: #ddd; stroke-width: 1; opacity: 1;"></line><line transform="translate(537,-375)" x2="0" y2="375" style="fill: none; stroke: #ddd; stroke-width: 1; opacity: 1;"></line><line transform="translate(608,-375)" x2="0" y2="375" style="fill: none; stroke: #ddd; stroke-width: 1; opacity: 1;"></line><line transform="translate(679,-375)" x2="0" y2="375" style="fill: none; stroke: #ddd; stroke-width: 1; opacity: 1;"></line><line transform="translate(750,-375)" x2="0" y2="375" style="fill: none; stroke: #ddd; stroke-width: 1; opacity: 1;"></line></g></g><path class="foreground" d="" style="pointer-events: none; display: none; fill: none;"></path></g></g><g class="mark-group role-axis"><g transform="translate(0.5,0.5)"><path class="background" d="M0,0h0v0h0Z" style="pointer-events: none; fill: none;"></path><g><g class="mark-rule role-axis-grid" style="pointer-events: none;"><line transform="translate(0,375)" x2="750" y2="0" style="fill: none; stroke: #ddd; stroke-width: 1; opacity: 1;"></line><line transform="translate(0,321)" x2="750" y2="0" style="fill: none; stroke: #ddd; stroke-width: 1; opacity: 1;"></line><line transform="translate(0,268)" x2="750" y2="0" style="fill: none; stroke: #ddd; stroke-width: 1; opacity: 1;"></line><line transform="translate(0,214)" x2="750" y2="0" style="fill: none; stroke: #ddd; stroke-width: 1; opacity: 1;"></line><line transform="translate(0,161)" x2="750" y2="0" style="fill: none; stroke: #ddd; stroke-width: 1; opacity: 1;"></line><line transform="translate(0,107)" x2="750" y2="0" style="fill: none; stroke: #ddd; stroke-width: 1; opacity: 1;"></line><line transform="translate(0,54)" x2="750" y2="0" style="fill: none; stroke: #ddd; stroke-width: 1; opacity: 1;"></line><line transform="translate(0,0)" x2="750" y2="0" style="fill: none; stroke: #ddd; stroke-width: 1; opacity: 1;"></line></g></g><path class="foreground" d="" style="pointer-events: none; display: none; fill: none;"></path></g></g><g class="mark-group role-axis"><g transform="translate(0.5,375.5)"><path class="background" d="M0,0h0v0h0Z" style="pointer-events: none; fill: none;"></path><g><g class="mark-rule role-axis-tick" style="pointer-events: none;"><line transform="translate(41,0)" x2="0" y2="5" style="fill: none; stroke: #888; stroke-width: 1; opacity: 1;"></line><line transform="translate(112,0)" x2="0" y2="5" style="fill: none; stroke: #888; stroke-width: 1; opacity: 1;"></line><line transform="translate(183,0)" x2="0" y2="5" style="fill: none; stroke: #888; stroke-width: 1; opacity: 1;"></line><line transform="translate(254,0)" x2="0" y2="5" style="fill: none; stroke: #888; stroke-width: 1; opacity: 1;"></line><line transform="translate(325,0)" x2="0" y2="5" style="fill: none; stroke: #888; stroke-width: 1; opacity: 1;"></line><line transform="translate(395,0)" x2="0" y2="5" style="fill: none; stroke: #888; stroke-width: 1; opacity: 1;"></line><line transform="translate(466,0)" x2="0" y2="5" style="fill: none; stroke: #888; stroke-width: 1; opacity: 1;"></line><line transform="translate(537,0)" x2="0" y2="5" style="fill: none; stroke: #888; stroke-width: 1; opacity: 1;"></line><line transform="translate(608,0)" x2="0" y2="5" style="fill: none; stroke: #888; stroke-width: 1; opacity: 1;"></line><line transform="translate(679,0)" x2="0" y2="5" style="fill: none; stroke: #888; stroke-width: 1; opacity: 1;"></line><line transform="translate(750,0)" x2="0" y2="5" style="fill: none; stroke: #888; stroke-width: 1; opacity: 1;"></line></g><g class="mark-text role-axis-label" style="pointer-events: none;"><text text-anchor="middle" transform="translate(40.563380281690144,15)" style="font-family: sans-serif; font-size: 10px; fill: #000; opacity: 1;">Jan 26</text><text text-anchor="middle" transform="translate(111.54929577464787,15)" style="font-family: sans-serif; font-size: 10px; fill: #000; opacity: 1;">Feb 02</text><text text-anchor="middle" transform="translate(182.53521126760563,15)" style="font-family: sans-serif; font-size: 10px; fill: #000; opacity: 1;">Feb 09</text><text text-anchor="middle" transform="translate(253.52112676056336,15)" style="font-family: sans-serif; font-size: 10px; fill: #000; opacity: 1;">Feb 16</text><text text-anchor="middle" transform="translate(324.50704225352115,15)" style="font-family: sans-serif; font-size: 10px; fill: #000; opacity: 1;">Feb 23</text><text text-anchor="middle" transform="translate(395.4929577464789,15)" style="font-family: sans-serif; font-size: 10px; fill: #000; opacity: 1;">March</text><text text-anchor="middle" transform="translate(466.4788732394366,15)" style="font-family: sans-serif; font-size: 10px; fill: #000; opacity: 1;">Mar 08</text><text text-anchor="middle" transform="translate(537.4647887323944,15)" style="font-family: sans-serif; font-size: 10px; fill: #000; opacity: 1;">Mar 15</text><text text-anchor="middle" transform="translate(608.4507042253522,15)" style="font-family: sans-serif; font-size: 10px; fill: #000; opacity: 1;">Mar 22</text><text text-anchor="middle" transform="translate(679.4366197183098,15)" style="font-family: sans-serif; font-size: 10px; fill: #000; opacity: 1;">Mar 29</text><text text-anchor="end" transform="translate(750,15)" style="font-family: sans-serif; font-size: 10px; fill: #000; opacity: 1;">Apr 05</text></g><g class="mark-rule role-axis-domain" style="pointer-events: none;"><line transform="translate(0,0)" x2="750" y2="0" style="fill: none; stroke: #888; stroke-width: 1; opacity: 1;"></line></g><g class="mark-text role-axis-title" style="pointer-events: none;"><text text-anchor="middle" transform="translate(375,30)" style="font-family: sans-serif; font-size: 11px; font-weight: bold; fill: #000; opacity: 1;">day</text></g></g><path class="foreground" d="" style="pointer-events: none; display: none; fill: none;"></path></g></g><g class="mark-group role-axis"><g transform="translate(0.5,0.5)"><path class="background" d="M0,0h0v0h0Z" style="pointer-events: none; fill: none;"></path><g><g class="mark-rule role-axis-tick" style="pointer-events: none;"><line transform="translate(0,375)" x2="-5" y2="0" style="fill: none; stroke: #888; stroke-width: 1; opacity: 1;"></line><line transform="translate(0,321)" x2="-5" y2="0" style="fill: none; stroke: #888; stroke-width: 1; opacity: 1;"></line><line transform="translate(0,268)" x2="-5" y2="0" style="fill: none; stroke: #888; stroke-width: 1; opacity: 1;"></line><line transform="translate(0,214)" x2="-5" y2="0" style="fill: none; stroke: #888; stroke-width: 1; opacity: 1;"></line><line transform="translate(0,161)" x2="-5" y2="0" style="fill: none; stroke: #888; stroke-width: 1; opacity: 1;"></line><line transform="translate(0,107)" x2="-5" y2="0" style="fill: none; stroke: #888; stroke-width: 1; opacity: 1;"></line><line transform="translate(0,54)" x2="-5" y2="0" style="fill: none; stroke: #888; stroke-width: 1; opacity: 1;"></line><line transform="translate(0,0)" x2="-5" y2="0" style="fill: none; stroke: #888; stroke-width: 1; opacity: 1;"></line></g><g class="mark-text role-axis-label" style="pointer-events: none;"><text text-anchor="end" transform="translate(-7,378)" style="font-family: sans-serif; font-size: 10px; fill: #000; opacity: 1;">0</text><text text-anchor="end" transform="translate(-7,324.42857142857144)" style="font-family: sans-serif; font-size: 10px; fill: #000; opacity: 1;">50,000</text><text text-anchor="end" transform="translate(-7,270.8571428571429)" style="font-family: sans-serif; font-size: 10px; fill: #000; opacity: 1;">100,000</text><text text-anchor="end" transform="translate(-7,217.28571428571428)" style="font-family: sans-serif; font-size: 10px; fill: #000; opacity: 1;">150,000</text><text text-anchor="end" transform="translate(-7,163.71428571428572)" style="font-family: sans-serif; font-size: 10px; fill: #000; opacity: 1;">200,000</text><text text-anchor="end" transform="translate(-7,110.14285714285714)" style="font-family: sans-serif; font-size: 10px; fill: #000; opacity: 1;">250,000</text><text text-anchor="end" transform="translate(-7,56.57142857142859)" style="font-family: sans-serif; font-size: 10px; fill: #000; opacity: 1;">300,000</text><text text-anchor="end" transform="translate(-7,3)" style="font-family: sans-serif; font-size: 10px; fill: #000; opacity: 1;">350,000</text></g><g class="mark-rule role-axis-domain" style="pointer-events: none;"><line transform="translate(0,375)" x2="0" y2="-375" style="fill: none; stroke: #888; stroke-width: 1; opacity: 1;"></line></g><g class="mark-text role-axis-title" style="pointer-events: none;"><text text-anchor="middle" transform="translate(-47.1474609375,187.5) rotate(-90) translate(0,-2)" style="font-family: sans-serif; font-size: 11px; font-weight: bold; fill: #000; opacity: 1;">Confirmed</text></g></g><path class="foreground" d="" style="pointer-events: none; display: none; fill: none;"></path></g></g><g class="mark-group role-scope pathgroup"><g transform="translate(0,0)"><path class="background" d="M0,0h750v375h-750Z" style="fill: none;"></path><g><g class="mark-line role-mark marks"><path d="M0,374.41285714285715L10.140845070422536,374.31107142857144L20.281690140845072,374.01428571428573L30.422535211267604,373.49357142857144L40.563380281690144,372.7767857142857L50.70422535211267,371.9175L60.84507042253521,369.0975L70.98591549295774,368.4782142857143L81.12676056338029,366.27750000000003L91.26760563380282,364.49785714285713L101.40845070422534,362.25964285714286L111.54929577464787,357.1821428571429L121.69014084507042,353.87571428571425L131.83098591549296,349.59964285714284L141.9718309859155,345.59999999999997L152.11267605633805,342.2282142857143L162.25352112676057,338.4535714285714L172.3943661971831,335.55642857142857L182.53521126760563,332.3260714285714L192.6760563380282,329.6207142857143L202.8169014084507,327.44357142857143L212.95774647887322,327.0439285714286L223.09859154929575,310.82678571428573L233.2394366197183,303.90214285714285L243.38028169014083,301.7003571428571L253.52112676056336,299.4503571428572L263.6619718309859,297.39214285714286L273.80281690140845,295.4882142857143L283.943661971831,295.05107142857145L294.0845070422535,294.56035714285713L304.2253521126761,294.05357142857144L314.3661971830986,292.49892857142856L324.50704225352115,292.4764285714286L334.6478873239437,292.2417857142857L344.7887323943662,291.69214285714287L354.92957746478874,291.2507142857143L365.07042253521126,290.7857142857143L375.21126760563385,290.43428571428575L385.3521126760564,289.9757142857143L395.4929577464789,289.35857142857145L405.6338028169014,289.14L415.7746478873239,289.00607142857143L425.91549295774644,288.8721428571429L436.05633802816897,288.71035714285716L446.1971830985915,288.5464285714286L456.3380281690141,288.4607142857143L466.4788732394366,288.40392857142854L476.61971830985914,288.36428571428576L486.76056338028167,288.33535714285716L496.9014084507042,288.2989285714286L507.0422535211267,288.28714285714284L517.1830985915493,288.2732142857143L527.3239436619718,288.2389285714286L537.4647887323944,288.2110714285714L547.6056338028169,288.17892857142857L557.7464788732394,288.15214285714285L567.887323943662,288.10499999999996L578.0281690140845,288.0471428571429L588.169014084507,287.94642857142856L598.3098591549295,287.88750000000005L608.4507042253522,287.74821428571425L618.5915492957747,287.68071428571426L628.7323943661972,287.5810714285715L638.8732394366198,287.50607142857143L649.0140845070423,287.37642857142856L659.1549295774648,287.25321428571425L669.2957746478874,287.1439285714286L679.4366197183098,287.01214285714286L689.1549295774647,286.93071428571426L699.2957746478874,286.8439285714286L709.4366197183099,286.75607142857143L719.5774647887324,286.68L729.7183098591549,286.59535714285715L739.8591549295775,286.56107142857144L750,286.49785714285713" style="fill: none; stroke: #4c78a8; stroke-width: 2;"></path></g></g><path class="foreground" d="" style="display: none; fill: none;"></path></g><g transform="translate(0,0)"><path class="background" d="M0,0h750v375h-750Z" style="fill: none;"></path><g><g class="mark-line role-mark marks"><path d="M0,375L10.140845070422536,375L20.281690140845072,375L30.422535211267604,375L40.563380281690144,375L50.70422535211267,375L60.84507042253521,375L70.98591549295774,375L81.12676056338029,375L91.26760563380282,374.99785714285713L101.40845070422534,374.99785714285713L111.54929577464787,374.99785714285713L121.69014084507042,374.99785714285713L131.83098591549296,374.99785714285713L141.9718309859155,374.99785714285713L152.11267605633805,374.99785714285713L162.25352112676057,374.9967857142857L172.3943661971831,374.9967857142857L182.53521126760563,374.9967857142857L192.6760563380282,374.9967857142857L202.8169014084507,374.9967857142857L212.95774647887322,374.9967857142857L223.09859154929575,374.9967857142857L233.2394366197183,374.9967857142857L243.38028169014083,374.9967857142857L253.52112676056336,374.9967857142857L263.6619718309859,374.9967857142857L273.80281690140845,374.9967857142857L283.943661971831,374.9967857142857L294.0845070422535,374.9967857142857L304.2253521126761,374.9785714285714L314.3661971830986,374.93357142857144L324.50704225352115,374.83392857142854L334.6478873239437,374.75464285714287L344.7887323943662,374.655L354.92957746478874,374.51464285714286L365.07042253521126,374.2982142857143L375.21126760563385,374.0485714285714L385.3521126760564,373.7914285714285L395.4929577464789,373.185L405.6338028169014,372.81857142857143L415.7746478873239,372.31928571428574L425.91549295774644,371.6903571428571L436.05633802816897,370.86642857142857L446.1971830985915,370.03285714285715L456.3380281690141,368.69678571428574L466.4788732394366,367.0982142857143L476.61971830985914,365.17285714285714L486.76056338028167,364.12607142857144L496.9014084507042,361.64785714285716L507.0422535211267,361.64785714285716L517.1830985915493,356.0785714285714L527.3239436619718,352.33178571428573L537.4647887323944,348.48535714285714L547.6056338028169,345.0214285714286L557.7464788732394,341.24357142857144L567.887323943662,336.73607142857145L578.0281690140845,331.03392857142853L588.169014084507,324.62035714285713L598.3098591549295,317.595L608.4507042253522,311.6378571428572L618.5915492957747,306.5067857142857L628.7323943661972,300.8828571428571L638.8732394366198,295.30071428571426L649.0140845070423,288.65464285714285L659.1549295774648,282.3235714285714L669.2957746478874,275.92285714285714L679.4366197183098,270.3332142857143L689.1549295774647,265.99392857142857L699.2957746478874,261.65142857142854L709.4366197183099,256.5278571428571L719.5774647887324,251.5264285714286L729.7183098591549,246.61392857142854L739.8591549295775,241.4657142857143L750,236.84142857142857" style="fill: none; stroke: #9ecae9; stroke-width: 2;"></path></g></g><path class="foreground" d="" style="display: none; fill: none;"></path></g><g transform="translate(0,0)"><path class="background" d="M0,0h750v375h-750Z" style="fill: none;"></path><g><g class="mark-line role-mark marks"><path d="M0,375L10.140845070422536,375L20.281690140845072,375L30.422535211267604,375L40.563380281690144,375L50.70422535211267,375L60.84507042253521,375L70.98591549295774,375L81.12676056338029,375L91.26760563380282,375L101.40845070422534,374.99892857142856L111.54929577464787,374.99892857142856L121.69014084507042,374.99892857142856L131.83098591549296,374.99892857142856L141.9718309859155,374.99892857142856L152.11267605633805,374.99892857142856L162.25352112676057,374.99892857142856L172.3943661971831,374.99892857142856L182.53521126760563,374.99785714285713L192.6760563380282,374.99785714285713L202.8169014084507,374.99785714285713L212.95774647887322,374.99785714285713L223.09859154929575,374.99785714285713L233.2394366197183,374.99785714285713L243.38028169014083,374.99785714285713L253.52112676056336,374.99785714285713L263.6619718309859,374.99785714285713L273.80281690140845,374.99785714285713L283.943661971831,374.99785714285713L294.0845070422535,374.99785714285713L304.2253521126761,374.99785714285713L314.3661971830986,374.99785714285713L324.50704225352115,374.99785714285713L334.6478873239437,374.99785714285713L344.7887323943662,374.99357142857144L354.92957746478874,374.98607142857145L365.07042253521126,374.9839285714286L375.21126760563385,374.9657142857143L385.3521126760564,374.9517857142857L395.4929577464789,374.90999999999997L405.6338028169014,374.87142857142857L415.7746478873239,374.8232142857143L425.91549295774644,374.76214285714286L436.05633802816897,374.7225L446.1971830985915,374.57142857142856L456.3380281690141,374.4642857142857L466.4788732394366,374.2789285714286L476.61971830985914,373.85035714285715L486.76056338028167,373.18392857142857L496.9014084507042,372.56035714285713L507.0422535211267,372.56035714285713L517.1830985915493,369.39428571428573L527.3239436619718,368.15250000000003L537.4647887323944,366.64500000000004L547.6056338028169,364.34785714285715L557.7464788732394,362.41285714285715L567.887323943662,360.09642857142853L578.0281690140845,355.75392857142856L588.169014084507,353.13214285714287L598.3098591549295,347.81357142857144L608.4507042253522,344.1771428571429L618.5915492957747,337.3542857142857L628.7323943661972,332.2660714285714L638.8732394366198,321.9482142857143L649.0140845070423,313.0864285714286L659.1549295774648,304.5867857142857L669.2957746478874,296.53392857142853L679.4366197183098,289.16785714285714L689.1549295774647,280.76142857142855L699.2957746478874,272.2253571428571L709.4366197183099,263.445L719.5774647887324,254.93035714285713L729.7183098591549,247.2867857142857L739.8591549295775,239.82L750,233.9507142857143" style="fill: none; stroke: #f58518; stroke-width: 2;"></path></g></g><path class="foreground" d="" style="display: none; fill: none;"></path></g><g transform="translate(0,0)"><path class="background" d="M0,0h750v375h-750Z" style="fill: none;"></path><g><g class="mark-line role-mark marks"><path d="M0,374.99892857142856L10.140845070422536,374.99892857142856L20.281690140845072,374.99785714285713L30.422535211267604,374.99785714285713L40.563380281690144,374.9946428571428L50.70422535211267,374.9946428571428L60.84507042253521,374.9946428571428L70.98591549295774,374.9946428571428L81.12676056338029,374.9946428571428L91.26760563380282,374.9925L101.40845070422534,374.99142857142857L111.54929577464787,374.99142857142857L121.69014084507042,374.98821428571426L131.83098591549296,374.98821428571426L141.9718309859155,374.98821428571426L152.11267605633805,374.98821428571426L162.25352112676057,374.98821428571426L172.3943661971831,374.98821428571426L182.53521126760563,374.98821428571426L192.6760563380282,374.98821428571426L202.8169014084507,374.9871428571428L212.95774647887322,374.9871428571428L223.09859154929575,374.98607142857145L233.2394366197183,374.98607142857145L243.38028169014083,374.98607142857145L253.52112676056336,374.98607142857145L263.6619718309859,374.98607142857145L273.80281690140845,374.98607142857145L283.943661971831,374.98607142857145L294.0845070422535,374.98607142857145L304.2253521126761,374.9839285714286L314.3661971830986,374.9839285714286L324.50704225352115,374.9839285714286L334.6478873239437,374.9453571428571L344.7887323943662,374.9453571428571L354.92957746478874,374.93892857142856L365.07042253521126,374.9378571428571L375.21126760563385,374.93571428571425L385.3521126760564,374.9271428571429L395.4929577464789,374.9207142857143L405.6338028169014,374.89500000000004L415.7746478873239,374.87357142857144L425.91549295774644,374.84035714285716L436.05633802816897,374.76750000000004L446.1971830985915,374.7192857142857L456.3380281690141,374.56928571428574L466.4788732394366,374.445L476.61971830985914,374.3753571428571L486.76056338028167,373.9725L496.9014084507042,373.6275L507.0422535211267,373.2182142857143L517.1830985915493,372.66535714285715L527.3239436619718,372.0782142857143L537.4647887323944,371.25107142857144L547.6056338028169,370.03714285714284L557.7464788732394,368.12035714285713L567.887323943662,366.66107142857146L578.0281690140845,360.34607142857146L588.169014084507,354.5357142857143L598.3098591549295,347.6903571428571L608.4507042253522,339.3471428571429L618.5915492957747,328.0210714285714L628.7323943661972,317.4214285714285L638.8732394366198,304.5235714285715L649.0140845070423,285.1757142857143L659.1549295774648,266.08178571428573L669.2957746478874,244.84499999999997L679.4366197183098,224.0507142857143L689.1549295774647,201.63535714285712L699.2957746478874,173.38714285714286L709.4366197183099,146.38714285714286L719.5774647887324,114.15750000000001L729.7183098591549,79.72928571428571L739.8591549295775,44.08928571428571L750,13.851428571428585" style="fill: none; stroke: #ffbf79; stroke-width: 2;"></path></g></g><path class="foreground" d="" style="display: none; fill: none;"></path></g><g transform="translate(0,0)"><path class="background" d="M0,0h750v375h-750Z" style="fill: none;"></path><g><g class="mark-line role-mark marks"><path d="M0,375L10.140845070422536,375L20.281690140845072,375L30.422535211267604,375L40.563380281690144,375L50.70422535211267,375L60.84507042253521,375L70.98591549295774,375L81.12676056338029,375L91.26760563380282,374.99785714285713L101.40845070422534,374.99785714285713L111.54929577464787,374.99785714285713L121.69014084507042,374.99785714285713L131.83098591549296,374.99785714285713L141.9718309859155,374.99785714285713L152.11267605633805,374.99785714285713L162.25352112676057,374.9967857142857L172.3943661971831,374.9967857142857L182.53521126760563,374.9967857142857L192.6760563380282,374.99142857142857L202.8169014084507,374.99142857142857L212.95774647887322,374.99035714285714L223.09859154929575,374.99035714285714L233.2394366197183,374.99035714285714L243.38028169014083,374.99035714285714L253.52112676056336,374.99035714285714L263.6619718309859,374.99035714285714L273.80281690140845,374.99035714285714L283.943661971831,374.99035714285714L294.0845070422535,374.99035714285714L304.2253521126761,374.99035714285714L314.3661971830986,374.99035714285714L324.50704225352115,374.99035714285714L334.6478873239437,374.98607142857145L344.7887323943662,374.98607142857145L354.92957746478874,374.98607142857145L365.07042253521126,374.9839285714286L375.21126760563385,374.9785714285714L385.3521126760564,374.97535714285715L395.4929577464789,374.96142857142854L405.6338028169014,374.95714285714286L415.7746478873239,374.9453571428571L425.91549295774644,374.90785714285715L436.05633802816897,374.8757142857143L446.1971830985915,374.82428571428574L456.3380281690141,374.7782142857143L466.4788732394366,374.70642857142855L476.61971830985914,374.655L486.76056338028167,374.5885714285714L496.9014084507042,374.5082142857143L507.0422535211267,374.5082142857143L517.1830985915493,374.1407142857143L527.3239436619718,373.7742857142857L537.4647887323944,373.7732142857143L547.6056338028169,373.3382142857143L557.7464788732394,372.9L567.887323943662,372.1692857142857L578.0281690140845,372.09000000000003L588.169014084507,370.69928571428574L598.3098591549295,369.57107142857143L608.4507042253522,368.84464285714284L618.5915492957747,367.79357142857145L628.7323943661972,366.2528571428571L638.8732394366198,364.6714285714286L649.0140845070423,362.3442857142857L659.1549295774648,359.20178571428573L669.2957746478874,356.45142857142855L679.4366197183098,353.8071428571428L689.1549295774647,350.9432142857143L699.2957746478874,347.69892857142855L709.4366197183099,343.00178571428575L719.5774647887324,338.3860714285714L729.7183098591549,333.5475L739.8591549295775,329.4889285714286L750,323.1042857142857" style="fill: none; stroke: #54a24b; stroke-width: 2;"></path></g></g><path class="foreground" d="" style="display: none; fill: none;"></path></g></g><g class="mark-group role-legend"><g transform="translate(770,0)"><path class="background" d="M0,0h88v79h-88Z" style="pointer-events: none; fill: none;"></path><g><g class="mark-group role-legend-entry"><g transform="translate(0,16)"><path class="background" d="M0,0h0v0h0Z" style="pointer-events: none; fill: none;"></path><g><g class="mark-group role-scope"><g transform="translate(0,0)"><path class="background" d="M0,0h87.15234375v11h-87.15234375Z" style="pointer-events: none; fill: none; opacity: 1;"></path><g><g class="mark-symbol role-legend-symbol" style="pointer-events: none;"><path transform="translate(6,6)" d="M-5,0L5,0" style="fill: none; stroke: #4c78a8; stroke-width: 1.5; opacity: 1;"></path></g><g class="mark-text role-legend-label" style="pointer-events: none;"><text text-anchor="start" transform="translate(16,9)" style="font-family: sans-serif; font-size: 10px; fill: #000; opacity: 1;">China</text></g></g><path class="foreground" d="" style="pointer-events: none; display: none; fill: none;"></path></g><g transform="translate(0,13)"><path class="background" d="M0,0h87.15234375v11h-87.15234375Z" style="pointer-events: none; fill: none; opacity: 1;"></path><g><g class="mark-symbol role-legend-symbol" style="pointer-events: none;"><path transform="translate(6,6)" d="M-5,0L5,0" style="fill: none; stroke: #9ecae9; stroke-width: 1.5; opacity: 1;"></path></g><g class="mark-text role-legend-label" style="pointer-events: none;"><text text-anchor="start" transform="translate(16,9)" style="font-family: sans-serif; font-size: 10px; fill: #000; opacity: 1;">Italy</text></g></g><path class="foreground" d="" style="pointer-events: none; display: none; fill: none;"></path></g><g transform="translate(0,26)"><path class="background" d="M0,0h87.15234375v11h-87.15234375Z" style="pointer-events: none; fill: none; opacity: 1;"></path><g><g class="mark-symbol role-legend-symbol" style="pointer-events: none;"><path transform="translate(6,6)" d="M-5,0L5,0" style="fill: none; stroke: #f58518; stroke-width: 1.5; opacity: 1;"></path></g><g class="mark-text role-legend-label" style="pointer-events: none;"><text text-anchor="start" transform="translate(16,9)" style="font-family: sans-serif; font-size: 10px; fill: #000; opacity: 1;">Spain</text></g></g><path class="foreground" d="" style="pointer-events: none; display: none; fill: none;"></path></g><g transform="translate(0,39)"><path class="background" d="M0,0h87.15234375v11h-87.15234375Z" style="pointer-events: none; fill: none; opacity: 1;"></path><g><g class="mark-symbol role-legend-symbol" style="pointer-events: none;"><path transform="translate(6,6)" d="M-5,0L5,0" style="fill: none; stroke: #ffbf79; stroke-width: 1.5; opacity: 1;"></path></g><g class="mark-text role-legend-label" style="pointer-events: none;"><text text-anchor="start" transform="translate(16,9)" style="font-family: sans-serif; font-size: 10px; fill: #000; opacity: 1;">US</text></g></g><path class="foreground" d="" style="pointer-events: none; display: none; fill: none;"></path></g><g transform="translate(0,52)"><path class="background" d="M0,0h87.15234375v11h-87.15234375Z" style="pointer-events: none; fill: none; opacity: 1;"></path><g><g class="mark-symbol role-legend-symbol" style="pointer-events: none;"><path transform="translate(6,6)" d="M-5,0L5,0" style="fill: none; stroke: #54a24b; stroke-width: 1.5; opacity: 1;"></path></g><g class="mark-text role-legend-label" style="pointer-events: none;"><text text-anchor="start" transform="translate(16,9)" style="font-family: sans-serif; font-size: 10px; fill: #000; opacity: 1;">United Kingdom</text></g></g><path class="foreground" d="" style="pointer-events: none; display: none; fill: none;"></path></g></g></g><path class="foreground" d="" style="pointer-events: none; display: none; fill: none;"></path></g></g><g class="mark-text role-legend-title" style="pointer-events: none;"><text text-anchor="start" transform="translate(0,9)" style="font-family: sans-serif; font-size: 11px; font-weight: bold; fill: #000; opacity: 1;">country</text></g></g><path class="foreground" d="" style="pointer-events: none; display: none; fill: none;"></path></g></g><g class="mark-group role-title"><g transform="translate(375,-22)"><path class="background" d="M0,0h0v0h0Z" style="pointer-events: none; fill: none;"></path><g><g class="mark-text role-title-text" style="pointer-events: none;"><text text-anchor="middle" transform="translate(0,10)" style="font-family: sans-serif; font-size: 13px; font-weight: bold; fill: #000; opacity: 1;">Confirmed by day in ['China', 'Italy', 'Spain', 'US', 'United Kingdom'] as of 04-04-2020</text></g></g><path class="foreground" d="" style="pointer-events: none; display: none; fill: none;"></path></g></g></g><path class="foreground" d="" style="display: none; fill: none;"></path></g></g></g></svg>