<svg class="marks" width="902" height="439" viewBox="0 0 902 439" version="1.1" xmlns="http://www.w3.org/2000/svg" xmlns:xlink="http://www.w3.org/1999/xlink"><rect width="902" height="439" style="fill: white;"></rect><g transform="translate(39,27)"><g class="mark-group role-frame root"><g transform="translate(0,0)"><path class="background" d="M0.5,0.5h750v375h-750Z" style="fill: none; stroke: #ddd;"></path><g><g class="mark-group role-axis"><g transform="translate(0.5,375.5)"><path class="background" d="M0,0h0v0h0Z" style="pointer-events: none; fill: none;"></path><g><g class="mark-rule role-axis-grid" style="pointer-events: none;"><line transform="translate(41,-375)" x2="0" y2="375" style="fill: none; stroke: #ddd; stroke-width: 1; opacity: 1;"></line><line transform="translate(112,-375)" x2="0" y2="375" style="fill: none; stroke: #ddd; stroke-width: 1; opacity: 1;"></line><line transform="translate(183,-375)" x2="0" y2="375" style="fill: none; stroke: #ddd; stroke-width: 1; opacity: 1;"></line><line transform="translate(254,-375)" x2="0" y2="375" style="fill: none; stroke: #ddd; stroke-width: 1; opacity: 1;"></line><line transform="translate(325,-375)" x2="0" y2="375" style="fill: none; stroke: #ddd; stroke-width: 1; opacity: 1;"></line><line transform="translate(395,-375)" x2="0" y2="375" style="fill: none; stroke: #ddd; stroke-width: 1; opacity: 1;"></line><line transform="translate(466,-375)" x2="0" y2="375" style="fill: none; stroke: #ddd; stroke-width: 1; opacity: 1;"></line><line transform="translate(537,-375)" x2="0" y2="375" style="fill: none; stroke: #ddd; stroke-width: 1; opacity: 1;"></line><line transform="translate(608,-375)" x2="0" y2="375" style="fill: none; stroke: #ddd; stroke-width: 1; opacity: 1;"></line><line transform="translate(679,-375)" x2="0" y2="375" style="fill: none; stroke: #ddd; stroke-width: 1; opacity: 1;"></line><line transform="translate(750,-375)" x2="0" y2="375" style="fill: none; stroke: #ddd; stroke-width: 1; opacity: 1;"></line></g></g><path class="foreground" d="" style="pointer-events: none; display: none; fill: none;"></path></g></g><g class="mark-group role-axis"><g transform="translate(0.5,0.5)"><path class="background" d="M0,0h0v0h0Z" style="pointer-events: none; fill: none;"></path><g><g class="mark-rule role-axis-grid" style="pointer-events: none;"><line transform="translate(0,375)" x2="750" y2="0" style="fill: none; stroke: #ddd; stroke-width: 1; opacity: 1;"></line><line transform="translate(0,338)" x2="750" y2="0" style="fill: none; stroke: #ddd; stroke-width: 1; opacity: 1;"></line><line transform="translate(0,300)" x2="750" y2="0" style="fill: none; stroke: #ddd; stroke-width: 1; opacity: 1;"></line><line transform="translate(0,263)" x2="750" y2="0" style="fill: none; stroke: #ddd; stroke-width: 1; opacity: 1;"></line><line transform="translate(0,225)" x2="750" y2="0" style="fill: none; stroke: #ddd; stroke-width: 1; opacity: 1;"></line><line transform="translate(0,188)" x2="750" y2="0" style="fill: none; stroke: #ddd; stroke-width: 1; opacity: 1;"></line><line transform="translate(0,150)" x2="750" y2="0" style="fill: none; stroke: #ddd; stroke-width: 1; opacity: 1;"></line><line transform="translate(0,113)" x2="750" y2="0" style="fill: none; stroke: #ddd; stroke-width: 1; opacity: 1;"></line><line transform="translate(0,75)" x2="750" y2="0" style="fill: none; stroke: #ddd; stroke-width: 1; opacity: 1;"></line><line transform="translate(0,37)" x2="750" y2="0" style="fill: none; stroke: #ddd; stroke-width: 1; opacity: 1;"></line><line transform="translate(0,0)" x2="750" y2="0" style="fill: none; stroke: #ddd; stroke-width: 1; opacity: 1;"></line></g></g><path class="foreground" d="" style="pointer-events: none; display: none; fill: none;"></path></g></g><g class="mark-group role-axis"><g transform="translate(0.5,375.5)"><path class="background" d="M0,0h0v0h0Z" style="pointer-events: none; fill: none;"></path><g><g class="mark-rule role-axis-tick" style="pointer-events: none;"><line transform="translate(41,0)" x2="0" y2="5" style="fill: none; stroke: #888; stroke-width: 1; opacity: 1;"></line><line transform="translate(112,0)" x2="0" y2="5" style="fill: none; stroke: #888; stroke-width: 1; opacity: 1;"></line><line transform="translate(183,0)" x2="0" y2="5" style="fill: none; stroke: #888; stroke-width: 1; opacity: 1;"></line><line transform="translate(254,0)" x2="0" y2="5" style="fill: none; stroke: #888; stroke-width: 1; opacity: 1;"></line><line transform="translate(325,0)" x2="0" y2="5" style="fill: none; stroke: #888; stroke-width: 1; opacity: 1;"></line><line transform="translate(395,0)" x2="0" y2="5" style="fill: none; stroke: #888; stroke-width: 1; opacity: 1;"></line><line transform="translate(466,0)" x2="0" y2="5" style="fill: none; stroke: #888; stroke-width: 1; opacity: 1;"></line><line transform="translate(537,0)" x2="0" y2="5" style="fill: none; stroke: #888; stroke-width: 1; opacity: 1;"></line><line transform="translate(608,0)" x2="0" y2="5" style="fill: none; stroke: #888; stroke-width: 1; opacity: 1;"></line><line transform="translate(679,0)" x2="0" y2="5" style="fill: none; stroke: #888; stroke-width: 1; opacity: 1;"></line><line transform="translate(750,0)" x2="0" y2="5" style="fill: none; stroke: #888; stroke-width: 1; opacity: 1;"></line></g><g class="mark-text role-axis-label" style="pointer-events: none;"><text text-anchor="middle" transform="translate(40.563380281690144,15)" style="font-family: sans-serif; font-size: 10px; fill: #000; opacity: 1;">Jan 26</text><text text-anchor="middle" transform="translate(111.54929577464787,15)" style="font-family: sans-serif; font-size: 10px; fill: #000; opacity: 1;">Feb 02</text><text text-anchor="middle" transform="translate(182.53521126760563,15)" style="font-family: sans-serif; font-size: 10px; fill: #000; opacity: 1;">Feb 09</text><text text-anchor="middle" transform="translate(253.52112676056336,15)" style="font-family: sans-serif; font-size: 10px; fill: #000; opacity: 1;">Feb 16</text><text text-anchor="middle" transform="translate(324.50704225352115,15)" style="font-family: sans-serif; font-size: 10px; fill: #000; opacity: 1;">Feb 23</text><text text-anchor="middle" transform="translate(395.4929577464789,15)" style="font-family: sans-serif; font-size: 10px; fill: #000; opacity: 1;">March</text><text text-anchor="middle" transform="translate(466.4788732394366,15)" style="font-family: sans-serif; font-size: 10px; fill: #000; opacity: 1;">Mar 08</text><text text-anchor="middle" transform="translate(537.4647887323944,15)" style="font-family: sans-serif; font-size: 10px; fill: #000; opacity: 1;">Mar 15</text><text text-anchor="middle" transform="translate(608.4507042253522,15)" style="font-family: sans-serif; font-size: 10px; fill: #000; opacity: 1;">Mar 22</text><text text-anchor="middle" transform="translate(679.4366197183098,15)" style="font-family: sans-serif; font-size: 10px; fill: #000; opacity: 1;">Mar 29</text><text text-anchor="end" transform="translate(750,15)" style="font-family: sans-serif; font-size: 10px; fill: #000; opacity: 1;">Apr 05</text></g><g class="mark-rule role-axis-domain" style="pointer-events: none;"><line transform="translate(0,0)" x2="750" y2="0" style="fill: none; stroke: #888; stroke-width: 1; opacity: 1;"></line></g><g class="mark-text role-axis-title" style="pointer-events: none;"><text text-anchor="middle" transform="translate(375,30)" style="font-family: sans-serif; font-size: 11px; font-weight: bold; fill: #000; opacity: 1;">day</text></g></g><path class="foreground" d="" style="pointer-events: none; display: none; fill: none;"></path></g></g><g class="mark-group role-axis"><g transform="translate(0.5,0.5)"><path class="background" d="M0,0h0v0h0Z" style="pointer-events: none; fill: none;"></path><g><g class="mark-rule role-axis-tick" style="pointer-events: none;"><line transform="translate(0,375)" x2="-5" y2="0" style="fill: none; stroke: #888; stroke-width: 1; opacity: 1;"></line><line transform="translate(0,338)" x2="-5" y2="0" style="fill: none; stroke: #888; stroke-width: 1; opacity: 1;"></line><line transform="translate(0,300)" x2="-5" y2="0" style="fill: none; stroke: #888; stroke-width: 1; opacity: 1;"></line><line transform="translate(0,263)" x2="-5" y2="0" style="fill: none; stroke: #888; stroke-width: 1; opacity: 1;"></line><line transform="translate(0,225)" x2="-5" y2="0" style="fill: none; stroke: #888; stroke-width: 1; opacity: 1;"></line><line transform="translate(0,188)" x2="-5" y2="0" style="fill: none; stroke: #888; stroke-width: 1; opacity: 1;"></line><line transform="translate(0,150)" x2="-5" y2="0" style="fill: none; stroke: #888; stroke-width: 1; opacity: 1;"></line><line transform="translate(0,113)" x2="-5" y2="0" style="fill: none; stroke: #888; stroke-width: 1; opacity: 1;"></line><line transform="translate(0,75)" x2="-5" y2="0" style="fill: none; stroke: #888; stroke-width: 1; opacity: 1;"></line><line transform="translate(0,37)" x2="-5" y2="0" style="fill: none; stroke: #888; stroke-width: 1; opacity: 1;"></line><line transform="translate(0,0)" x2="-5" y2="0" style="fill: none; stroke: #888; stroke-width: 1; opacity: 1;"></line></g><g class="mark-text role-axis-label" style="pointer-events: none;"><text text-anchor="end" transform="translate(-7,378)" style="font-family: sans-serif; font-size: 10px; fill: #000; opacity: 1;">0</text><text text-anchor="end" transform="translate(-7,340.5)" style="font-family: sans-serif; font-size: 10px; fill: #000; opacity: 1;">1</text><text text-anchor="end" transform="translate(-7,303)" style="font-family: sans-serif; font-size: 10px; fill: #000; opacity: 1;">2</text><text text-anchor="end" transform="translate(-7,265.5)" style="font-family: sans-serif; font-size: 10px; fill: #000; opacity: 1;">3</text><text text-anchor="end" transform="translate(-7,228)" style="font-family: sans-serif; font-size: 10px; fill: #000; opacity: 1;">4</text><text text-anchor="end" transform="translate(-7,190.5)" style="font-family: sans-serif; font-size: 10px; fill: #000; opacity: 1;">5</text><text text-anchor="end" transform="translate(-7,153)" style="font-family: sans-serif; font-size: 10px; fill: #000; opacity: 1;">6</text><text text-anchor="end" transform="translate(-7,115.50000000000001)" style="font-family: sans-serif; font-size: 10px; fill: #000; opacity: 1;">7</text><text text-anchor="end" transform="translate(-7,77.99999999999999)" style="font-family: sans-serif; font-size: 10px; fill: #000; opacity: 1;">8</text><text text-anchor="end" transform="translate(-7,40.49999999999999)" style="font-family: sans-serif; font-size: 10px; fill: #000; opacity: 1;">9</text><text text-anchor="end" transform="translate(-7,3)" style="font-family: sans-serif; font-size: 10px; fill: #000; opacity: 1;">10</text></g><g class="mark-rule role-axis-domain" style="pointer-events: none;"><line transform="translate(0,375)" x2="0" y2="-375" style="fill: none; stroke: #888; stroke-width: 1; opacity: 1;"></line></g><g class="mark-text role-axis-title" style="pointer-events: none;"><text text-anchor="middle" transform="translate(-22.123046875,187.5) rotate(-90) translate(0,-2)" style="font-family: sans-serif; font-size: 11px; font-weight: bold; fill: #000; opacity: 1;">LogDeaths</text></g></g><path class="foreground" d="" style="pointer-events: none; display: none; fill: none;"></path></g></g><g class="mark-group role-scope pathgroup"><g transform="translate(0,0)"><path class="background" d="M0,0h750v375h-750Z" style="fill: none;"></path><g><g class="mark-line role-mark marks"><path d="M0,268.75449959789194L10.140845070422536,266.61105907889385L20.281690140845072,252.82137982419442L30.422535211267604,234.8373893143737L40.563380281690144,224.0493115974319L50.70422535211267,209.74802822759048L60.84507042253521,192.18010037995683L70.98591549295774,191.61190769168422L81.12676056338029,182.18761663115023L91.26760563380282,173.95154378589652L101.40845070422534,166.61894768626738L111.54929577464787,154.16707656251697L121.69014084507042,148.04665616533435L131.83098591549296,142.63334520770547L141.9718309859155,137.5020139447616L152.11267605633805,133.10735916959342L162.25352112676057,128.38239116069158L172.3943661971831,124.09341459680385L182.53521126760563,119.70243961125279L192.6760563380282,115.51185563072208L202.8169014084507,111.9781696946052L212.95774647887322,111.80993253490499L223.09859154929575,104.18115655168319L233.2394366197183,100.23287654027655L243.38028169014083,96.88580703026521L253.52112676056336,94.63228570635354L263.6619718309859,92.60700017829241L273.80281690140845,89.90994991253181L283.943661971831,87.85189526331786L294.0845070422535,85.74982916730485L304.2253521126761,85.74982916730485L314.3661971830986,82.46317232783473L324.50704225352115,82.43248492841353L334.6478873239437,80.19968266500042L344.7887323943662,79.20152487750208L354.92957746478874,78.47686464651196L365.07042253521126,78.07872801270314L375.21126760563385,77.48261719442209L385.3521126760564,76.85615869466807L395.4929577464789,76.39635261869567L405.6338028169014,75.85192549668186L415.7746478873239,75.42963814733648L425.91549295774644,74.97432058069695L436.05633802816897,74.57418340645175L446.1971830985915,74.21521053819089L456.3380281690141,73.87184646496638L466.4788732394366,73.5315978572536L476.61971830985914,73.25439910188457L486.76056338028167,73.06276661842678L496.9014084507042,72.8008607919143L507.0422535211267,72.67059064669726L517.1830985915493,72.57613215846669L527.3239436619718,72.4231427731957L537.4647887323944,72.30588188965658L547.6056338028169,72.14233022853652L557.7464788732394,71.99109689187367L567.887323943662,71.86360488219198L578.0281690140845,71.77115491240872L588.169014084507,71.72501525724931L598.3098591549295,71.65591204359146L608.4507042253522,71.48370907758452L618.5915492957747,71.48370907758452L628.7323943661972,71.40361751395872L638.8732394366198,71.35792759054836L649.0140845070423,71.2894969146248L659.1549295774648,71.23256658639889L669.2957746478874,71.19844982892819L679.4366197183098,71.14165745096744L689.1549295774647,71.09628539461566L699.2957746478874,71.08495095293952L709.4366197183099,71.00570564043055L719.5774647887324,70.9379141185035L729.7183098591549,70.8927877592673L739.8591549295775,70.84771563845668L750,70.81394706345975" style="fill: none; stroke: #4c78a8; stroke-width: 2;"></path></g></g><path class="foreground" d="" style="display: none; fill: none;"></path></g><g transform="translate(0,0)"><path class="background" d="M0,0h750v375h-750Z" style="fill: none;"></path><g><g class="mark-line role-mark marks"><path d="M304.2253521126761,375L314.3661971830986,349.00698072900207L324.50704225352115,333.8020391749459L334.6478873239437,302.02836941042574L344.7887323943662,288.65305901272325L354.92957746478874,281.81600063295L365.07042253521126,268.75449959789194L375.21126760563385,260.83040858537163L385.3521126760564,248.72640637550722L395.4929577464789,242.76148032689395L405.6338028169014,226.82836055319646L415.7746478873239,211.14570553248672L425.91549295774644,199.76891870767852L436.05633802816897,187.6045397338457L446.1971830985915,176.87986017232544L456.3380281690141,170.58605799128625L466.4788732394366,153.6512499974488L476.61971830985914,144.83523547176623L486.76056338028167,133.22603015470452L496.9014084507042,123.08232393661157L507.0422535211267,123.08232393661157L517.1830985915493,107.11433989859546L527.3239436619718,102.25902765001793L537.4647887323944,93.73014429767643L547.6056338028169,87.114857031822L557.7464788732394,81.55330157130844L567.887323943662,75.0372295033517L578.0281690140845,70.01249180311453L588.169014084507,63.67433213432984L598.3098591549295,56.94127448350926L608.4507042253522,52.195118009687235L618.5915492957747,48.29000879492419L628.7323943661972,43.96444684359345L638.8732394366198,40.38531676703518L649.0140845070423,36.98561135732367L659.1549295774648,33.00903773456455L669.2957746478874,29.526085086567512L679.4366197183098,26.799184658188896L689.1549295774647,24.07559197917207L699.2957746478874,21.46097735576481L709.4366197183099,19.32910524471029L719.5774647887324,17.22289972650036L729.7183098591549,15.213396759770264L739.8591549295775,13.513042254051463L750,12.252883360499137" style="fill: none; stroke: #9ecae9; stroke-width: 2;"></path></g></g><path class="foreground" d="" style="display: none; fill: none;"></path></g><g transform="translate(0,0)"><path class="background" d="M0,0h750v375h-750Z" style="fill: none;"></path><g><g class="mark-line role-mark marks"><path d="M415.7746478873239,375L425.91549295774644,349.00698072900207L436.05633802816897,333.8020391749459L446.1971830985915,314.64607828372124L456.3380281690141,288.65305901272325L466.4788732394366,268.75449959789194L476.61971830985914,250.04233086842984L486.76056338028167,241.67444769414698L496.9014084507042,225.4130982538397L507.0422535211267,224.72500555378232L517.1830985915493,191.61190769168422L527.3239436619718,177.26251655385948L537.4647887323944,162.5089991957838L547.6056338028169,156.19459736015233L557.7464788732394,139.55544659378086L567.887323943662,133.7045055454705L578.0281690140845,122.94653622035088L588.169014084507,114.38038293747104L598.3098591549295,104.01716212122481L608.4507042253522,94.50509508131152L618.5915492957747,84.54616461471073L628.7323943661972,77.24145880703617L638.8732394366198,67.43774284467452L649.0140845070423,60.69849493973614L659.1549295774648,54.58428083738143L669.2957746478874,48.88086603037901L679.4366197183098,44.05803861206023L689.1549295774647,39.33557347403928L699.2957746478874,35.86585672132195L709.4366197183099,31.98446128736279L719.5774647887324,28.329429626028023L729.7183098591549,25.369107378418562L739.8591549295775,22.9411695068541L750,20.823720806416603" style="fill: none; stroke: #f58518; stroke-width: 2;"></path></g></g><path class="foreground" d="" style="display: none; fill: none;"></path></g><g transform="translate(0,0)"><path class="background" d="M0,0h750v375h-750Z" style="fill: none;"></path><g><g class="mark-line role-mark marks"><path d="M385.3521126760564,375L395.4929577464789,375L405.6338028169014,307.80901990394796L415.7746478873239,302.02836941042574L425.91549295774644,285.0789272700611L436.05633802816897,281.81600063295L446.1971830985915,276.0353501394278L456.3380281690141,268.75449959789194L466.4788732394366,260.83040858537163L476.61971830985914,259.0859079990632L486.76056338028167,250.04233086842984L496.9014084507042,240.61803980789588L507.0422535211267,236.6670204707274L517.1830985915493,230.6194649358728L527.3239436619718,225.4130982538397L537.4647887323944,219.63244776031752L547.6056338028169,208.40057788161315L557.7464788732394,199.42007898284174L567.887323943662,196.09932658253754L578.0281690140845,176.31309875444862L588.169014084507,168.85619155150493L598.3098591549295,160.2432094654801L608.4507042253522,148.75926668254496L618.5915492957747,137.90380350272682L628.7323943661972,129.01442859400345L638.8732394366198,118.19980220338638L649.0140845070423,108.8419181019453L659.1549295774648,98.78201860464479L669.2957746478874,89.48179931967643L679.4366197183098,82.0965706301491L689.1549295774647,75.0372295033517L699.2957746478874,65.1830745181968L709.4366197183099,57.47353138378944L719.5774647887324,49.23357269499337L729.7183098591549,42.52434754461542L739.8591549295775,36.1192510824264L750,31.068915444276936" style="fill: none; stroke: #ffbf79; stroke-width: 2;"></path></g></g><path class="foreground" d="" style="display: none; fill: none;"></path></g><g transform="translate(0,0)"><path class="background" d="M0,0h750v375h-750Z" style="fill: none;"></path><g><g class="mark-line role-mark marks"><path d="M436.05633802816897,375L446.1971830985915,349.00698072900207L456.3380281690141,349.00698072900207L466.4788732394366,333.8020391749459L476.61971830985914,323.0139614580041L486.76056338028167,307.80901990394796L496.9014084507042,297.02094218700614L507.0422535211267,297.02094218700614L517.1830985915493,297.02094218700614L527.3239436619718,260.83040858537163L537.4647887323944,260.83040858537163L547.6056338028169,224.0493115974319L557.7464788732394,224.0493115974319L567.887323943662,214.62502053689795L578.0281690140845,190.22798680660483L588.169014084507,180.6831168640468L598.3098591549295,170.42545817408617L608.4507042253522,163.42848483982073L618.5915492957747,156.85833150137984L628.7323943661972,148.2235432857646L638.8732394366198,144.59303872028832L649.0140845070423,136.38644611723257L659.1549295774648,126.20124908018678L669.2957746478874,115.17983181882506L679.4366197183098,108.16567026808296L689.1549295774647,103.04797680551944L699.2957746478874,94.06329473980752L709.4366197183099,83.80706613989506L719.5774647887324,75.69781569074739L729.7183098591549,67.80974920209536L739.8591549295775,61.08709945356916L750,56.03521075098905" style="fill: none; stroke: #54a24b; stroke-width: 2;"></path></g></g><path class="foreground" d="" style="display: none; fill: none;"></path></g></g><g class="mark-group role-legend"><g transform="translate(770,0)"><path class="background" d="M0,0h88v79h-88Z" style="pointer-events: none; fill: none;"></path><g><g class="mark-group role-legend-entry"><g transform="translate(0,16)"><path class="background" d="M0,0h0v0h0Z" style="pointer-events: none; fill: none;"></path><g><g class="mark-group role-scope"><g transform="translate(0,0)"><path class="background" d="M0,0h87.15234375v11h-87.15234375Z" style="pointer-events: none; fill: none; opacity: 1;"></path><g><g class="mark-symbol role-legend-symbol" style="pointer-events: none;"><path transform="translate(6,6)" d="M-5,0L5,0" style="fill: none; stroke: #4c78a8; stroke-width: 1.5; opacity: 1;"></path></g><g class="mark-text role-legend-label" style="pointer-events: none;"><text text-anchor="start" transform="translate(16,9)" style="font-family: sans-serif; font-size: 10px; fill: #000; opacity: 1;">China</text></g></g><path class="foreground" d="" style="pointer-events: none; display: none; fill: none;"></path></g><g transform="translate(0,13)"><path class="background" d="M0,0h87.15234375v11h-87.15234375Z" style="pointer-events: none; fill: none; opacity: 1;"></path><g><g class="mark-symbol role-legend-symbol" style="pointer-events: none;"><path transform="translate(6,6)" d="M-5,0L5,0" style="fill: none; stroke: #9ecae9; stroke-width: 1.5; opacity: 1;"></path></g><g class="mark-text role-legend-label" style="pointer-events: none;"><text text-anchor="start" transform="translate(16,9)" style="font-family: sans-serif; font-size: 10px; fill: #000; opacity: 1;">Italy</text></g></g><path class="foreground" d="" style="pointer-events: none; display: none; fill: none;"></path></g><g transform="translate(0,26)"><path class="background" d="M0,0h87.15234375v11h-87.15234375Z" style="pointer-events: none; fill: none; opacity: 1;"></path><g><g class="mark-symbol role-legend-symbol" style="pointer-events: none;"><path transform="translate(6,6)" d="M-5,0L5,0" style="fill: none; stroke: #f58518; stroke-width: 1.5; opacity: 1;"></path></g><g class="mark-text role-legend-label" style="pointer-events: none;"><text text-anchor="start" transform="translate(16,9)" style="font-family: sans-serif; font-size: 10px; fill: #000; opacity: 1;">Spain</text></g></g><path class="foreground" d="" style="pointer-events: none; display: none; fill: none;"></path></g><g transform="translate(0,39)"><path class="background" d="M0,0h87.15234375v11h-87.15234375Z" style="pointer-events: none; fill: none; opacity: 1;"></path><g><g class="mark-symbol role-legend-symbol" style="pointer-events: none;"><path transform="translate(6,6)" d="M-5,0L5,0" style="fill: none; stroke: #ffbf79; stroke-width: 1.5; opacity: 1;"></path></g><g class="mark-text role-legend-label" style="pointer-events: none;"><text text-anchor="start" transform="translate(16,9)" style="font-family: sans-serif; font-size: 10px; fill: #000; opacity: 1;">US</text></g></g><path class="foreground" d="" style="pointer-events: none; display: none; fill: none;"></path></g><g transform="translate(0,52)"><path class="background" d="M0,0h87.15234375v11h-87.15234375Z" style="pointer-events: none; fill: none; opacity: 1;"></path><g><g class="mark-symbol role-legend-symbol" style="pointer-events: none;"><path transform="translate(6,6)" d="M-5,0L5,0" style="fill: none; stroke: #54a24b; stroke-width: 1.5; opacity: 1;"></path></g><g class="mark-text role-legend-label" style="pointer-events: none;"><text text-anchor="start" transform="translate(16,9)" style="font-family: sans-serif; font-size: 10px; fill: #000; opacity: 1;">United Kingdom</text></g></g><path class="foreground" d="" style="pointer-events: none; display: none; fill: none;"></path></g></g></g><path class="foreground" d="" style="pointer-events: none; display: none; fill: none;"></path></g></g><g class="mark-text role-legend-title" style="pointer-events: none;"><text text-anchor="start" transform="translate(0,9)" style="font-family: sans-serif; font-size: 11px; font-weight: bold; fill: #000; opacity: 1;">country</text></g></g><path class="foreground" d="" style="pointer-events: none; display: none; fill: none;"></path></g></g><g class="mark-group role-title"><g transform="translate(375,-22)"><path class="background" d="M0,0h0v0h0Z" style="pointer-events: none; fill: none;"></path><g><g class="mark-text role-title-text" style="pointer-events: none;"><text text-anchor="middle" transform="translate(0,10)" style="font-family: sans-serif; font-size: 13px; font-weight: bold; fill: #000; opacity: 1;">LogDeaths by day in ['China', 'Italy', 'Spain', 'US', 'United Kingdom'] as of 04-04-2020</text></g></g><path class="foreground" d="" style="pointer-events: none; display: none; fill: none;"></path></g></g></g><path class="foreground" d="" style="display: none; fill: none;"></path></g></g></g></svg>