<svg class="marks" width="958" height="464" viewBox="0 0 958 464" version="1.1" xmlns="http://www.w3.org/2000/svg" xmlns:xlink="http://www.w3.org/1999/xlink"><rect width="958" height="464" style="fill: white;"></rect><g transform="translate(72,27)"><g class="mark-group role-frame root"><g transform="translate(0,0)"><path class="background" d="M0.5,0.5h800v400h-800Z" style="fill: none; stroke: #ddd;"></path><g><g class="mark-group role-axis"><g transform="translate(0.5,400.5)"><path class="background" d="M0,0h0v0h0Z" style="pointer-events: none; fill: none;"></path><g><g class="mark-rule role-axis-grid" style="pointer-events: none;"><line transform="translate(19,-400)" x2="0" y2="400" style="fill: none; stroke: #ddd; stroke-width: 1; opacity: 1;"></line><line transform="translate(85,-400)" x2="0" y2="400" style="fill: none; stroke: #ddd; stroke-width: 1; opacity: 1;"></line><line transform="translate(151,-400)" x2="0" y2="400" style="fill: none; stroke: #ddd; stroke-width: 1; opacity: 1;"></line><line transform="translate(217,-400)" x2="0" y2="400" style="fill: none; stroke: #ddd; stroke-width: 1; opacity: 1;"></line><line transform="translate(282,-400)" x2="0" y2="400" style="fill: none; stroke: #ddd; stroke-width: 1; opacity: 1;"></line><line transform="translate(348,-400)" x2="0" y2="400" style="fill: none; stroke: #ddd; stroke-width: 1; opacity: 1;"></line><line transform="translate(414,-400)" x2="0" y2="400" style="fill: none; stroke: #ddd; stroke-width: 1; opacity: 1;"></line><line transform="translate(480,-400)" x2="0" y2="400" style="fill: none; stroke: #ddd; stroke-width: 1; opacity: 1;"></line><line transform="translate(546,-400)" x2="0" y2="400" style="fill: none; stroke: #ddd; stroke-width: 1; opacity: 1;"></line><line transform="translate(612,-400)" x2="0" y2="400" style="fill: none; stroke: #ddd; stroke-width: 1; opacity: 1;"></line><line transform="translate(678,-400)" x2="0" y2="400" style="fill: none; stroke: #ddd; stroke-width: 1; opacity: 1;"></line><line transform="translate(744,-400)" x2="0" y2="400" style="fill: none; stroke: #ddd; stroke-width: 1; opacity: 1;"></line></g></g><path class="foreground" d="" style="pointer-events: none; display: none; fill: none;"></path></g></g><g class="mark-group role-axis"><g transform="translate(0.5,0.5)"><path class="background" d="M0,0h0v0h0Z" style="pointer-events: none; fill: none;"></path><g><g class="mark-rule role-axis-grid" style="pointer-events: none;"><line transform="translate(0,400)" x2="800" y2="0" style="fill: none; stroke: #ddd; stroke-width: 1; opacity: 1;"></line><line transform="translate(0,380)" x2="800" y2="0" style="fill: none; stroke: #ddd; stroke-width: 1; opacity: 1;"></line><line transform="translate(0,368)" x2="800" y2="0" style="fill: none; stroke: #ddd; stroke-width: 1; opacity: 1;"></line><line transform="translate(0,360)" x2="800" y2="0" style="fill: none; stroke: #ddd; stroke-width: 1; opacity: 1;"></line><line transform="translate(0,353)" x2="800" y2="0" style="fill: none; stroke: #ddd; stroke-width: 1; opacity: 1;"></line><line transform="translate(0,348)" x2="800" y2="0" style="fill: none; stroke: #ddd; stroke-width: 1; opacity: 1;"></line><line transform="translate(0,344)" x2="800" y2="0" style="fill: none; stroke: #ddd; stroke-width: 1; opacity: 1;"></line><line transform="translate(0,340)" x2="800" y2="0" style="fill: none; stroke: #ddd; stroke-width: 1; opacity: 1;"></line><line transform="translate(0,336)" x2="800" y2="0" style="fill: none; stroke: #ddd; stroke-width: 1; opacity: 1;"></line><line transform="translate(0,333)" x2="800" y2="0" style="fill: none; stroke: #ddd; stroke-width: 1; opacity: 1;"></line><line transform="translate(0,313)" x2="800" y2="0" style="fill: none; stroke: #ddd; stroke-width: 1; opacity: 1;"></line><line transform="translate(0,302)" x2="800" y2="0" style="fill: none; stroke: #ddd; stroke-width: 1; opacity: 1;"></line><line transform="translate(0,293)" x2="800" y2="0" style="fill: none; stroke: #ddd; stroke-width: 1; opacity: 1;"></line><line transform="translate(0,287)" x2="800" y2="0" style="fill: none; stroke: #ddd; stroke-width: 1; opacity: 1;"></line><line transform="translate(0,281)" x2="800" y2="0" style="fill: none; stroke: #ddd; stroke-width: 1; opacity: 1;"></line><line transform="translate(0,277)" x2="800" y2="0" style="fill: none; stroke: #ddd; stroke-width: 1; opacity: 1;"></line><line transform="translate(0,273)" x2="800" y2="0" style="fill: none; stroke: #ddd; stroke-width: 1; opacity: 1;"></line><line transform="translate(0,270)" x2="800" y2="0" style="fill: none; stroke: #ddd; stroke-width: 1; opacity: 1;"></line><line transform="translate(0,267)" x2="800" y2="0" style="fill: none; stroke: #ddd; stroke-width: 1; opacity: 1;"></line><line transform="translate(0,247)" x2="800" y2="0" style="fill: none; stroke: #ddd; stroke-width: 1; opacity: 1;"></line><line transform="translate(0,235)" x2="800" y2="0" style="fill: none; stroke: #ddd; stroke-width: 1; opacity: 1;"></line><line transform="translate(0,227)" x2="800" y2="0" style="fill: none; stroke: #ddd; stroke-width: 1; opacity: 1;"></line><line transform="translate(0,220)" x2="800" y2="0" style="fill: none; stroke: #ddd; stroke-width: 1; opacity: 1;"></line><line transform="translate(0,215)" x2="800" y2="0" style="fill: none; stroke: #ddd; stroke-width: 1; opacity: 1;"></line><line transform="translate(0,210)" x2="800" y2="0" style="fill: none; stroke: #ddd; stroke-width: 1; opacity: 1;"></line><line transform="translate(0,206)" x2="800" y2="0" style="fill: none; stroke: #ddd; stroke-width: 1; opacity: 1;"></line><line transform="translate(0,203)" x2="800" y2="0" style="fill: none; stroke: #ddd; stroke-width: 1; opacity: 1;"></line><line transform="translate(0,200)" x2="800" y2="0" style="fill: none; stroke: #ddd; stroke-width: 1; opacity: 1;"></line><line transform="translate(0,180)" x2="800" y2="0" style="fill: none; stroke: #ddd; stroke-width: 1; opacity: 1;"></line><line transform="translate(0,168)" x2="800" y2="0" style="fill: none; stroke: #ddd; stroke-width: 1; opacity: 1;"></line><line transform="translate(0,160)" x2="800" y2="0" style="fill: none; stroke: #ddd; stroke-width: 1; opacity: 1;"></line><line transform="translate(0,153)" x2="800" y2="0" style="fill: none; stroke: #ddd; stroke-width: 1; opacity: 1;"></line><line transform="translate(0,148)" x2="800" y2="0" style="fill: none; stroke: #ddd; stroke-width: 1; opacity: 1;"></line><line transform="translate(0,144)" x2="800" y2="0" style="fill: none; stroke: #ddd; stroke-width: 1; opacity: 1;"></line><line transform="translate(0,140)" x2="800" y2="0" style="fill: none; stroke: #ddd; stroke-width: 1; opacity: 1;"></line><line transform="translate(0,136)" x2="800" y2="0" style="fill: none; stroke: #ddd; stroke-width: 1; opacity: 1;"></line><line transform="translate(0,133)" x2="800" y2="0" style="fill: none; stroke: #ddd; stroke-width: 1; opacity: 1;"></line><line transform="translate(0,113)" x2="800" y2="0" style="fill: none; stroke: #ddd; stroke-width: 1; opacity: 1;"></line><line transform="translate(0,102)" x2="800" y2="0" style="fill: none; stroke: #ddd; stroke-width: 1; opacity: 1;"></line><line transform="translate(0,93)" x2="800" y2="0" style="fill: none; stroke: #ddd; stroke-width: 1; opacity: 1;"></line><line transform="translate(0,87)" x2="800" y2="0" style="fill: none; stroke: #ddd; stroke-width: 1; opacity: 1;"></line><line transform="translate(0,81)" x2="800" y2="0" style="fill: none; stroke: #ddd; stroke-width: 1; opacity: 1;"></line><line transform="translate(0,77)" x2="800" y2="0" style="fill: none; stroke: #ddd; stroke-width: 1; opacity: 1;"></line><line transform="translate(0,73)" x2="800" y2="0" style="fill: none; stroke: #ddd; stroke-width: 1; opacity: 1;"></line><line transform="translate(0,70)" x2="800" y2="0" style="fill: none; stroke: #ddd; stroke-width: 1; opacity: 1;"></line><line transform="translate(0,67)" x2="800" y2="0" style="fill: none; stroke: #ddd; stroke-width: 1; opacity: 1;"></line><line transform="translate(0,47)" x2="800" y2="0" style="fill: none; stroke: #ddd; stroke-width: 1; opacity: 1;"></line><line transform="translate(0,35)" x2="800" y2="0" style="fill: none; stroke: #ddd; stroke-width: 1; opacity: 1;"></line><line transform="translate(0,27)" x2="800" y2="0" style="fill: none; stroke: #ddd; stroke-width: 1; opacity: 1;"></line><line transform="translate(0,20)" x2="800" y2="0" style="fill: none; stroke: #ddd; stroke-width: 1; opacity: 1;"></line><line transform="translate(0,15)" x2="800" y2="0" style="fill: none; stroke: #ddd; stroke-width: 1; opacity: 1;"></line><line transform="translate(0,10)" x2="800" y2="0" style="fill: none; stroke: #ddd; stroke-width: 1; opacity: 1;"></line><line transform="translate(0,6)" x2="800" y2="0" style="fill: none; stroke: #ddd; stroke-width: 1; opacity: 1;"></line><line transform="translate(0,3)" x2="800" y2="0" style="fill: none; stroke: #ddd; stroke-width: 1; opacity: 1;"></line><line transform="translate(0,0)" x2="800" y2="0" style="fill: none; stroke: #ddd; stroke-width: 1; opacity: 1;"></line></g></g><path class="foreground" d="" style="pointer-events: none; display: none; fill: none;"></path></g></g><g class="mark-group role-axis"><g transform="translate(0.5,400.5)"><path class="background" d="M0,0h0v0h0Z" style="pointer-events: none; fill: none;"></path><g><g class="mark-rule role-axis-tick" style="pointer-events: none;"><line transform="translate(19,0)" x2="0" y2="5" style="fill: none; stroke: #888; stroke-width: 1; opacity: 1;"></line><line transform="translate(85,0)" x2="0" y2="5" style="fill: none; stroke: #888; stroke-width: 1; opacity: 1;"></line><line transform="translate(151,0)" x2="0" y2="5" style="fill: none; stroke: #888; stroke-width: 1; opacity: 1;"></line><line transform="translate(217,0)" x2="0" y2="5" style="fill: none; stroke: #888; stroke-width: 1; opacity: 1;"></line><line transform="translate(282,0)" x2="0" y2="5" style="fill: none; stroke: #888; stroke-width: 1; opacity: 1;"></line><line transform="translate(348,0)" x2="0" y2="5" style="fill: none; stroke: #888; stroke-width: 1; opacity: 1;"></line><line transform="translate(414,0)" x2="0" y2="5" style="fill: none; stroke: #888; stroke-width: 1; opacity: 1;"></line><line transform="translate(480,0)" x2="0" y2="5" style="fill: none; stroke: #888; stroke-width: 1; opacity: 1;"></line><line transform="translate(546,0)" x2="0" y2="5" style="fill: none; stroke: #888; stroke-width: 1; opacity: 1;"></line><line transform="translate(612,0)" x2="0" y2="5" style="fill: none; stroke: #888; stroke-width: 1; opacity: 1;"></line><line transform="translate(678,0)" x2="0" y2="5" style="fill: none; stroke: #888; stroke-width: 1; opacity: 1;"></line><line transform="translate(744,0)" x2="0" y2="5" style="fill: none; stroke: #888; stroke-width: 1; opacity: 1;"></line></g><g class="mark-text role-axis-label" style="pointer-events: none;"><text text-anchor="middle" transform="translate(18.832761157430113,15)" style="font-family: sans-serif; font-size: 10px; fill: #000; opacity: 1;">Feb 02</text><text text-anchor="middle" transform="translate(84.74742520843552,15)" style="font-family: sans-serif; font-size: 10px; fill: #000; opacity: 1;">Feb 09</text><text text-anchor="middle" transform="translate(150.6620892594409,15)" style="font-family: sans-serif; font-size: 10px; fill: #000; opacity: 1;">Feb 16</text><text text-anchor="middle" transform="translate(216.5767533104463,15)" style="font-family: sans-serif; font-size: 10px; fill: #000; opacity: 1;">Feb 23</text><text text-anchor="middle" transform="translate(282.49141736145174,15)" style="font-family: sans-serif; font-size: 10px; fill: #000; opacity: 1;">March</text><text text-anchor="middle" transform="translate(348.40608141245707,15)" style="font-family: sans-serif; font-size: 10px; fill: #000; opacity: 1;">Mar 08</text><text text-anchor="middle" transform="translate(414.32074546346246,15)" style="font-family: sans-serif; font-size: 10px; fill: #000; opacity: 1;">Mar 15</text><text text-anchor="middle" transform="translate(480.2354095144679,15)" style="font-family: sans-serif; font-size: 10px; fill: #000; opacity: 1;">Mar 22</text><text text-anchor="middle" transform="translate(546.1500735654732,15)" style="font-family: sans-serif; font-size: 10px; fill: #000; opacity: 1;">Mar 29</text><text text-anchor="middle" transform="translate(611.6723884256988,15)" style="font-family: sans-serif; font-size: 10px; fill: #000; opacity: 1;">Apr 05</text><text text-anchor="middle" transform="translate(677.5870524767042,15)" style="font-family: sans-serif; font-size: 10px; fill: #000; opacity: 1;">Apr 12</text><text text-anchor="middle" transform="translate(743.5017165277096,15)" style="font-family: sans-serif; font-size: 10px; fill: #000; opacity: 1;">Apr 19</text></g><g class="mark-rule role-axis-domain" style="pointer-events: none;"><line transform="translate(0,0)" x2="800" y2="0" style="fill: none; stroke: #888; stroke-width: 1; opacity: 1;"></line></g><g class="mark-text role-axis-title" style="pointer-events: none;"><text text-anchor="middle" transform="translate(400,30)" style="font-family: sans-serif; font-size: 11px; font-weight: bold; fill: #000; opacity: 1;">Date</text></g></g><path class="foreground" d="" style="pointer-events: none; display: none; fill: none;"></path></g></g><g class="mark-group role-axis"><g transform="translate(0.5,0.5)"><path class="background" d="M0,0h0v0h0Z" style="pointer-events: none; fill: none;"></path><g><g class="mark-rule role-axis-tick" style="pointer-events: none;"><line transform="translate(0,400)" x2="-5" y2="0" style="fill: none; stroke: #888; stroke-width: 1; opacity: 1;"></line><line transform="translate(0,380)" x2="-5" y2="0" style="fill: none; stroke: #888; stroke-width: 1; opacity: 1;"></line><line transform="translate(0,368)" x2="-5" y2="0" style="fill: none; stroke: #888; stroke-width: 1; opacity: 1;"></line><line transform="translate(0,360)" x2="-5" y2="0" style="fill: none; stroke: #888; stroke-width: 1; opacity: 1;"></line><line transform="translate(0,353)" x2="-5" y2="0" style="fill: none; stroke: #888; stroke-width: 1; opacity: 1;"></line><line transform="translate(0,348)" x2="-5" y2="0" style="fill: none; stroke: #888; stroke-width: 1; opacity: 1;"></line><line transform="translate(0,344)" x2="-5" y2="0" style="fill: none; stroke: #888; stroke-width: 1; opacity: 1;"></line><line transform="translate(0,340)" x2="-5" y2="0" style="fill: none; stroke: #888; stroke-width: 1; opacity: 1;"></line><line transform="translate(0,336)" x2="-5" y2="0" style="fill: none; stroke: #888; stroke-width: 1; opacity: 1;"></line><line transform="translate(0,333)" x2="-5" y2="0" style="fill: none; stroke: #888; stroke-width: 1; opacity: 1;"></line><line transform="translate(0,313)" x2="-5" y2="0" style="fill: none; stroke: #888; stroke-width: 1; opacity: 1;"></line><line transform="translate(0,302)" x2="-5" y2="0" style="fill: none; stroke: #888; stroke-width: 1; opacity: 1;"></line><line transform="translate(0,293)" x2="-5" y2="0" style="fill: none; stroke: #888; stroke-width: 1; opacity: 1;"></line><line transform="translate(0,287)" x2="-5" y2="0" style="fill: none; stroke: #888; stroke-width: 1; opacity: 1;"></line><line transform="translate(0,281)" x2="-5" y2="0" style="fill: none; stroke: #888; stroke-width: 1; opacity: 1;"></line><line transform="translate(0,277)" x2="-5" y2="0" style="fill: none; stroke: #888; stroke-width: 1; opacity: 1;"></line><line transform="translate(0,273)" x2="-5" y2="0" style="fill: none; stroke: #888; stroke-width: 1; opacity: 1;"></line><line transform="translate(0,270)" x2="-5" y2="0" style="fill: none; stroke: #888; stroke-width: 1; opacity: 1;"></line><line transform="translate(0,267)" x2="-5" y2="0" style="fill: none; stroke: #888; stroke-width: 1; opacity: 1;"></line><line transform="translate(0,247)" x2="-5" y2="0" style="fill: none; stroke: #888; stroke-width: 1; opacity: 1;"></line><line transform="translate(0,235)" x2="-5" y2="0" style="fill: none; stroke: #888; stroke-width: 1; opacity: 1;"></line><line transform="translate(0,227)" x2="-5" y2="0" style="fill: none; stroke: #888; stroke-width: 1; opacity: 1;"></line><line transform="translate(0,220)" x2="-5" y2="0" style="fill: none; stroke: #888; stroke-width: 1; opacity: 1;"></line><line transform="translate(0,215)" x2="-5" y2="0" style="fill: none; stroke: #888; stroke-width: 1; opacity: 1;"></line><line transform="translate(0,210)" x2="-5" y2="0" style="fill: none; stroke: #888; stroke-width: 1; opacity: 1;"></line><line transform="translate(0,206)" x2="-5" y2="0" style="fill: none; stroke: #888; stroke-width: 1; opacity: 1;"></line><line transform="translate(0,203)" x2="-5" y2="0" style="fill: none; stroke: #888; stroke-width: 1; opacity: 1;"></line><line transform="translate(0,200)" x2="-5" y2="0" style="fill: none; stroke: #888; stroke-width: 1; opacity: 1;"></line><line transform="translate(0,180)" x2="-5" y2="0" style="fill: none; stroke: #888; stroke-width: 1; opacity: 1;"></line><line transform="translate(0,168)" x2="-5" y2="0" style="fill: none; stroke: #888; stroke-width: 1; opacity: 1;"></line><line transform="translate(0,160)" x2="-5" y2="0" style="fill: none; stroke: #888; stroke-width: 1; opacity: 1;"></line><line transform="translate(0,153)" x2="-5" y2="0" style="fill: none; stroke: #888; stroke-width: 1; opacity: 1;"></line><line transform="translate(0,148)" x2="-5" y2="0" style="fill: none; stroke: #888; stroke-width: 1; opacity: 1;"></line><line transform="translate(0,144)" x2="-5" y2="0" style="fill: none; stroke: #888; stroke-width: 1; opacity: 1;"></line><line transform="translate(0,140)" x2="-5" y2="0" style="fill: none; stroke: #888; stroke-width: 1; opacity: 1;"></line><line transform="translate(0,136)" x2="-5" y2="0" style="fill: none; stroke: #888; stroke-width: 1; opacity: 1;"></line><line transform="translate(0,133)" x2="-5" y2="0" style="fill: none; stroke: #888; stroke-width: 1; opacity: 1;"></line><line transform="translate(0,113)" x2="-5" y2="0" style="fill: none; stroke: #888; stroke-width: 1; opacity: 1;"></line><line transform="translate(0,102)" x2="-5" y2="0" style="fill: none; stroke: #888; stroke-width: 1; opacity: 1;"></line><line transform="translate(0,93)" x2="-5" y2="0" style="fill: none; stroke: #888; stroke-width: 1; opacity: 1;"></line><line transform="translate(0,87)" x2="-5" y2="0" style="fill: none; stroke: #888; stroke-width: 1; opacity: 1;"></line><line transform="translate(0,81)" x2="-5" y2="0" style="fill: none; stroke: #888; stroke-width: 1; opacity: 1;"></line><line transform="translate(0,77)" x2="-5" y2="0" style="fill: none; stroke: #888; stroke-width: 1; opacity: 1;"></line><line transform="translate(0,73)" x2="-5" y2="0" style="fill: none; stroke: #888; stroke-width: 1; opacity: 1;"></line><line transform="translate(0,70)" x2="-5" y2="0" style="fill: none; stroke: #888; stroke-width: 1; opacity: 1;"></line><line transform="translate(0,67)" x2="-5" y2="0" style="fill: none; stroke: #888; stroke-width: 1; opacity: 1;"></line><line transform="translate(0,47)" x2="-5" y2="0" style="fill: none; stroke: #888; stroke-width: 1; opacity: 1;"></line><line transform="translate(0,35)" x2="-5" y2="0" style="fill: none; stroke: #888; stroke-width: 1; opacity: 1;"></line><line transform="translate(0,27)" x2="-5" y2="0" style="fill: none; stroke: #888; stroke-width: 1; opacity: 1;"></line><line transform="translate(0,20)" x2="-5" y2="0" style="fill: none; stroke: #888; stroke-width: 1; opacity: 1;"></line><line transform="translate(0,15)" x2="-5" y2="0" style="fill: none; stroke: #888; stroke-width: 1; opacity: 1;"></line><line transform="translate(0,10)" x2="-5" y2="0" style="fill: none; stroke: #888; stroke-width: 1; opacity: 1;"></line><line transform="translate(0,6)" x2="-5" y2="0" style="fill: none; stroke: #888; stroke-width: 1; opacity: 1;"></line><line transform="translate(0,3)" x2="-5" y2="0" style="fill: none; stroke: #888; stroke-width: 1; opacity: 1;"></line><line transform="translate(0,0)" x2="-5" y2="0" style="fill: none; stroke: #888; stroke-width: 1; opacity: 1;"></line></g><g class="mark-text role-axis-label" style="pointer-events: none;"><text text-anchor="end" transform="translate(-7,403)" style="font-family: sans-serif; font-size: 10px; fill: #000; opacity: 1;">1</text><text text-anchor="end" transform="translate(-7,382.9313336224012)" style="font-family: sans-serif; font-size: 10px; fill: #000; opacity: 1;"></text><text text-anchor="end" transform="translate(-7,371.19191635202253)" style="font-family: sans-serif; font-size: 10px; fill: #000; opacity: 1;"></text><text text-anchor="end" transform="translate(-7,362.86266724480254)" style="font-family: sans-serif; font-size: 10px; fill: #000; opacity: 1;"></text><text text-anchor="end" transform="translate(-7,356.40199971093205)" style="font-family: sans-serif; font-size: 10px; fill: #000; opacity: 1;"></text><text text-anchor="end" transform="translate(-7,351.12324997442374)" style="font-family: sans-serif; font-size: 10px; fill: #000; opacity: 1;"></text><text text-anchor="end" transform="translate(-7,346.6601306657162)" style="font-family: sans-serif; font-size: 10px; fill: #000; opacity: 1;"></text><text text-anchor="end" transform="translate(-7,342.79400086720375)" style="font-family: sans-serif; font-size: 10px; fill: #000; opacity: 1;"></text><text text-anchor="end" transform="translate(-7,339.383832704045)" style="font-family: sans-serif; font-size: 10px; fill: #000; opacity: 1;"></text><text text-anchor="end" transform="translate(-7,336.3333333333333)" style="font-family: sans-serif; font-size: 10px; fill: #000; opacity: 1;">10</text><text text-anchor="end" transform="translate(-7,316.2646669557346)" style="font-family: sans-serif; font-size: 10px; fill: #000; opacity: 1;"></text><text text-anchor="end" transform="translate(-7,304.52524968535585)" style="font-family: sans-serif; font-size: 10px; fill: #000; opacity: 1;"></text><text text-anchor="end" transform="translate(-7,296.19600057813585)" style="font-family: sans-serif; font-size: 10px; fill: #000; opacity: 1;"></text><text text-anchor="end" transform="translate(-7,289.7353330442654)" style="font-family: sans-serif; font-size: 10px; fill: #000; opacity: 1;"></text><text text-anchor="end" transform="translate(-7,284.4565833077571)" style="font-family: sans-serif; font-size: 10px; fill: #000; opacity: 1;"></text><text text-anchor="end" transform="translate(-7,279.99346399904954)" style="font-family: sans-serif; font-size: 10px; fill: #000; opacity: 1;"></text><text text-anchor="end" transform="translate(-7,276.1273342005371)" style="font-family: sans-serif; font-size: 10px; fill: #000; opacity: 1;"></text><text text-anchor="end" transform="translate(-7,272.7171660373783)" style="font-family: sans-serif; font-size: 10px; fill: #000; opacity: 1;"></text><text text-anchor="end" transform="translate(-7,269.66666666666663)" style="font-family: sans-serif; font-size: 10px; fill: #000; opacity: 1;">100</text><text text-anchor="end" transform="translate(-7,249.59800028906793)" style="font-family: sans-serif; font-size: 10px; fill: #000; opacity: 1;"></text><text text-anchor="end" transform="translate(-7,237.85858301868916)" style="font-family: sans-serif; font-size: 10px; fill: #000; opacity: 1;"></text><text text-anchor="end" transform="translate(-7,229.52933391146917)" style="font-family: sans-serif; font-size: 10px; fill: #000; opacity: 1;"></text><text text-anchor="end" transform="translate(-7,223.06866637759873)" style="font-family: sans-serif; font-size: 10px; fill: #000; opacity: 1;"></text><text text-anchor="end" transform="translate(-7,217.78991664109043)" style="font-family: sans-serif; font-size: 10px; fill: #000; opacity: 1;"></text><text text-anchor="end" transform="translate(-7,213.32679733238288)" style="font-family: sans-serif; font-size: 10px; fill: #000; opacity: 1;"></text><text text-anchor="end" transform="translate(-7,209.46066753387043)" style="font-family: sans-serif; font-size: 10px; fill: #000; opacity: 1;"></text><text text-anchor="end" transform="translate(-7,206.05049937071166)" style="font-family: sans-serif; font-size: 10px; fill: #000; opacity: 1;"></text><text text-anchor="end" transform="translate(-7,203)" style="font-family: sans-serif; font-size: 10px; fill: #000; opacity: 1;">1,000</text><text text-anchor="end" transform="translate(-7,182.93133362240124)" style="font-family: sans-serif; font-size: 10px; fill: #000; opacity: 1;"></text><text text-anchor="end" transform="translate(-7,171.1919163520225)" style="font-family: sans-serif; font-size: 10px; fill: #000; opacity: 1;"></text><text text-anchor="end" transform="translate(-7,162.8626672448025)" style="font-family: sans-serif; font-size: 10px; fill: #000; opacity: 1;"></text><text text-anchor="end" transform="translate(-7,156.40199971093207)" style="font-family: sans-serif; font-size: 10px; fill: #000; opacity: 1;"></text><text text-anchor="end" transform="translate(-7,151.1232499744238)" style="font-family: sans-serif; font-size: 10px; fill: #000; opacity: 1;"></text><text text-anchor="end" transform="translate(-7,146.6601306657162)" style="font-family: sans-serif; font-size: 10px; fill: #000; opacity: 1;"></text><text text-anchor="end" transform="translate(-7,142.79400086720375)" style="font-family: sans-serif; font-size: 10px; fill: #000; opacity: 1;"></text><text text-anchor="end" transform="translate(-7,139.38383270404498)" style="font-family: sans-serif; font-size: 10px; fill: #000; opacity: 1;"></text><text text-anchor="end" transform="translate(-7,136.33333333333331)" style="font-family: sans-serif; font-size: 10px; fill: #000; opacity: 1;">10,000</text><text text-anchor="end" transform="translate(-7,116.26466695573458)" style="font-family: sans-serif; font-size: 10px; fill: #000; opacity: 1;"></text><text text-anchor="end" transform="translate(-7,104.52524968535582)" style="font-family: sans-serif; font-size: 10px; fill: #000; opacity: 1;"></text><text text-anchor="end" transform="translate(-7,96.19600057813587)" style="font-family: sans-serif; font-size: 10px; fill: #000; opacity: 1;"></text><text text-anchor="end" transform="translate(-7,89.73533304426542)" style="font-family: sans-serif; font-size: 10px; fill: #000; opacity: 1;"></text><text text-anchor="end" transform="translate(-7,84.45658330775709)" style="font-family: sans-serif; font-size: 10px; fill: #000; opacity: 1;"></text><text text-anchor="end" transform="translate(-7,79.99346399904954)" style="font-family: sans-serif; font-size: 10px; fill: #000; opacity: 1;"></text><text text-anchor="end" transform="translate(-7,76.12733420053709)" style="font-family: sans-serif; font-size: 10px; fill: #000; opacity: 1;"></text><text text-anchor="end" transform="translate(-7,72.71716603737832)" style="font-family: sans-serif; font-size: 10px; fill: #000; opacity: 1;"></text><text text-anchor="end" transform="translate(-7,69.66666666666666)" style="font-family: sans-serif; font-size: 10px; fill: #000; opacity: 1;">100,000</text><text text-anchor="end" transform="translate(-7,49.59800028906788)" style="font-family: sans-serif; font-size: 10px; fill: #000; opacity: 1;"></text><text text-anchor="end" transform="translate(-7,37.85858301868916)" style="font-family: sans-serif; font-size: 10px; fill: #000; opacity: 1;"></text><text text-anchor="end" transform="translate(-7,29.529333911469166)" style="font-family: sans-serif; font-size: 10px; fill: #000; opacity: 1;"></text><text text-anchor="end" transform="translate(-7,23.068666377598767)" style="font-family: sans-serif; font-size: 10px; fill: #000; opacity: 1;"></text><text text-anchor="end" transform="translate(-7,17.78991664109044)" style="font-family: sans-serif; font-size: 10px; fill: #000; opacity: 1;"></text><text text-anchor="end" transform="translate(-7,13.326797332382842)" style="font-family: sans-serif; font-size: 10px; fill: #000; opacity: 1;"></text><text text-anchor="end" transform="translate(-7,9.460667533870401)" style="font-family: sans-serif; font-size: 10px; fill: #000; opacity: 1;"></text><text text-anchor="end" transform="translate(-7,6.0504993707116235)" style="font-family: sans-serif; font-size: 10px; fill: #000; opacity: 1;"></text><text text-anchor="end" transform="translate(-7,3)" style="font-family: sans-serif; font-size: 10px; fill: #000; opacity: 1;">1,000,000</text></g><g class="mark-rule role-axis-domain" style="pointer-events: none;"><line transform="translate(0,400)" x2="0" y2="-400" style="fill: none; stroke: #888; stroke-width: 1; opacity: 1;"></line></g><g class="mark-text role-axis-title" style="pointer-events: none;"><text text-anchor="middle" transform="translate(-55.4873046875,200) rotate(-90) translate(0,-2)" style="font-family: sans-serif; font-size: 11px; font-weight: bold; fill: #000; opacity: 1;">Count</text></g></g><path class="foreground" d="" style="pointer-events: none; display: none; fill: none;"></path></g></g><g class="mark-group role-scope pathgroup"><g transform="translate(0,0)"><path class="background" d="M0,0h800v400h-800Z" style="fill: none;"></path><g><g class="mark-line role-mark marks"><path d="M0,343.6601306657162L9.416380578715057,339.79400086720375L18.832761157430113,339.79400086720375L28.249141736145166,330.5738209894517L37.665522314860226,330.5738209894517L47.08190289357528,330.5738209894517L56.49828347229033,330.5738209894517L65.91466405100539,330.5738209894517L75.33104462972045,330.5738209894517L84.74742520843552,330.5738209894517L94.16380578715057,330.5738209894517L103.58018636586561,328.054583596825L112.99656694458066,328.054583596825L122.41294752329573,325.73710984621084L131.82932810201078,325.73710984621084L141.24570868072587,325.73710984621084L150.6620892594409,325.73710984621084L160.07846983815597,325.73710984621084L169.49485041687103,325.73710984621084L178.91123099558607,325.73710984621084L188.32761157430113,325.73710984621084L197.7439921530162,321.5939160629546L207.16037273173123,321.5939160629546L216.5767533104463,321.5939160629546L225.99313388916133,321.5939160629546L235.40951446787642,321.5939160629546L244.82589504659146,321.5939160629546L254.24227562530652,319.725334489605L263.65865620402155,319.725334489605L273.0750367827366,307.9859172192263L282.49141736145174,301.52524968535585L291.90779794016674,285.0482753599474L301.3241785188818,275.77847599196963L310.7405590975969,265.5311107134146L320.15693967631194,250.9647702061634L329.57332025502694,244.23601774343132L338.98970083374206,231.57738150734372L348.40608141245707,223.11916574831042L357.82246199117213,219.26912540031492L367.2388425698872,209.99778282068203L376.65522314860226,197.10918146525805L386.0716037273173,187.1807591621253L395.4879843060324,177.8778637042501L404.90436488474745,169.60598397448382L414.32074546346246,168.99431416283784L423.7371260421775,157.72167521582668L433.1535066208926,147.66366944456374L442.5698871996077,136.79530123207059L451.98626777832266,123.39771552258338L461.4026483570377,114.1420744214293L470.81902893575284,105.97630777103531L480.2354095144679,98.21476534361024L489.6517900931829,90.6590952047094L499.068170671898,84.6489776472909L508.48455125061304,78.79462236718639L517.9009318293281,71.77129673408147L527.3173124080431,66.1908473939885L536.7336929867582,61.036589699649156L546.1500735654732,56.73741781186745L555.1741049534085,52.72921881554575L564.5904855321236,48.362999942330816L574.0068661108387,44.72552842235782L583.4232466895537,40.86893303361898L592.8396272682687,37.31661015680676L602.2560078469838,34.017013777874894L611.6723884256988,31.485756080530216L621.088769004414,29.049097726435313L630.505149583129,26.804167351023132L639.921530161844,24.499675358221175L649.3379107405591,22.392819382615947L658.7542913192742,20.270300440195665L668.1706718979892,18.57943631367851L677.5870524767042,17.03127987862567L687.0034330554194,15.760337319240314L696.4198136341344,14.562278468443024L705.8361942128494,13.110052568189934L715.2525747915645,11.712228729147167L724.6689553702796,10.36205869089697L734.0853359489946,9.04834106343535L743.5017165277096,8.003762601166198L752.9180971064247,7.056307445099552L762.3344776851397,5.853174138940753L771.7508582638549,5.083812802135945L781.1672388425699,4.087179471513158L790.5836194212849,2.9119536601799556L800,1.8823587415067955" style="fill: none; stroke: orange; stroke-width: 2; opacity: 0.9;"></path></g></g><path class="foreground" d="" style="display: none; fill: none;"></path></g><g transform="translate(0,0)"><path class="background" d="M0,0h800v400h-800Z" style="fill: none;"></path><g><g class="mark-line role-mark marks"><path d="M291.90779794016674,348.12324997442374L301.3241785188818,343.6601306657162L310.7405590975969,330.5738209894517L320.15693967631194,328.054583596825L329.57332025502694,323.5914642881175L338.98970083374206,317.9700719081151L348.40608141245707,311.8520470177387L357.82246199117213,310.5051546118529L367.2388425698872,303.5227979105187L376.65522314860226,299.6566681120063L386.0716037273173,293.19600057813585L395.4879843060324,287.9172508416275L404.90436488474745,285.5997770910134L414.32074546346246,281.4565833077571L423.7371260421775,272.06146050826175L433.1535066208926,264.70774815431935L442.5698871996077,256.5141103744629L451.98626777832266,245.32358092592972L461.4026483570377,239.45066897921006L470.81902893575284,233.17152533437113L480.2354095144679,224.63814166499841L489.6517900931829,217.41462943437537L499.068170671898,212.1182737590696L508.48455125061304,202.82618086266035L517.9009318293281,195.72777093576028L527.3173124080431,188.55156975645122L536.7336929867582,179.1177138870184L546.1500735654732,174.82197071104514L555.1741049534085,170.30343238226334L564.5904855321236,163.4980949026812L574.0068661108387,157.3343834638941L583.4232466895537,150.3179343647906L592.8396272682687,144.82912591635176L602.2560078469838,140.15819391397056L611.6723884256988,135.97178619481136L621.088769004414,132.18942676747903L630.505149583129,126.7894011026311L639.921530161844,122.61143045703022L649.3379107405591,119.21948330622092L658.7542913192742,115.62222003650118L668.1706718979892,112.84786353111028L677.5870524767042,110.6741001850835L687.0034330554194,108.69544356023013L696.4198136341344,106.09246487631312L705.8361942128494,103.37633608648011L715.2525747915645,98.99829253119559L724.6689553702796,96.1974822745181L734.0853359489946,95.10707767183195L743.5017165277096,93.14104213776213L752.9180971064247,91.92573744135504L762.3344776851397,90.12430092388084L771.7508582638549,88.88694798287253L781.1672388425699,86.84788905038276L790.5836194212849,85.72029373267505L800,84.73639511011322" style="fill: none; stroke: red; stroke-width: 2; opacity: 0.9;"></path></g></g><path class="foreground" d="" style="display: none; fill: none;"></path></g></g><g class="mark-group role-legend"><g transform="translate(820,0)"><path class="background" d="M0,0h61v53h-61Z" style="pointer-events: none; fill: none;"></path><g><g class="mark-group role-legend-entry"><g transform="translate(0,16)"><path class="background" d="M0,0h0v0h0Z" style="pointer-events: none; fill: none;"></path><g><g class="mark-group role-scope"><g transform="translate(0,0)"><path class="background" d="M0,0h60.4677734375v11h-60.4677734375Z" style="pointer-events: none; fill: none; opacity: 1;"></path><g><g class="mark-symbol role-legend-symbol" style="pointer-events: none;"><path transform="translate(6,6)" d="M-5,0L5,0" style="fill: none; stroke: orange; stroke-width: 1.5; opacity: 0.9;"></path></g><g class="mark-text role-legend-label" style="pointer-events: none;"><text text-anchor="start" transform="translate(16,9)" style="font-family: sans-serif; font-size: 10px; fill: #000; opacity: 1;">confirmed</text></g></g><path class="foreground" d="" style="pointer-events: none; display: none; fill: none;"></path></g><g transform="translate(0,13)"><path class="background" d="M0,0h60.4677734375v11h-60.4677734375Z" style="pointer-events: none; fill: none; opacity: 1;"></path><g><g class="mark-symbol role-legend-symbol" style="pointer-events: none;"><path transform="translate(6,6)" d="M-5,0L5,0" style="fill: none; stroke: red; stroke-width: 1.5; opacity: 0.9;"></path></g><g class="mark-text role-legend-label" style="pointer-events: none;"><text text-anchor="start" transform="translate(16,9)" style="font-family: sans-serif; font-size: 10px; fill: #000; opacity: 1;">deaths</text></g></g><path class="foreground" d="" style="pointer-events: none; display: none; fill: none;"></path></g><g transform="translate(0,26)"><path class="background" d="M0,0h60.4677734375v11h-60.4677734375Z" style="pointer-events: none; fill: none; opacity: 1;"></path><g><g class="mark-symbol role-legend-symbol" style="pointer-events: none;"><path transform="translate(6,6)" d="M-5,0L5,0" style="fill: none; stroke: green; stroke-width: 1.5; opacity: 0.9;"></path></g><g class="mark-text role-legend-label" style="pointer-events: none;"><text text-anchor="start" transform="translate(16,9)" style="font-family: sans-serif; font-size: 10px; fill: #000; opacity: 1;">recovered</text></g></g><path class="foreground" d="" style="pointer-events: none; display: none; fill: none;"></path></g></g></g><path class="foreground" d="" style="pointer-events: none; display: none; fill: none;"></path></g></g><g class="mark-text role-legend-title" style="pointer-events: none;"><text text-anchor="start" transform="translate(0,9)" style="font-family: sans-serif; font-size: 11px; font-weight: bold; fill: #000; opacity: 1;">Category</text></g></g><path class="foreground" d="" style="pointer-events: none; display: none; fill: none;"></path></g></g><g class="mark-group role-title"><g transform="translate(400,-22)"><path class="background" d="M0,0h0v0h0Z" style="pointer-events: none; fill: none;"></path><g><g class="mark-text role-title-text" style="pointer-events: none;"><text text-anchor="middle" transform="translate(0,10)" style="font-family: sans-serif; font-size: 13px; font-weight: bold; fill: #000; opacity: 1;">Covid-19 time series of ['confirmed', 'deaths', 'recovered'] in united-states as of 04-25-2020 from CovidAPI</text></g></g><path class="foreground" d="" style="pointer-events: none; display: none; fill: none;"></path></g></g></g><path class="foreground" d="" style="display: none; fill: none;"></path></g></g></g></svg>