<svg class="marks" width="931" height="540" viewBox="0 0 931 540" version="1.1" xmlns="http://www.w3.org/2000/svg" xmlns:xlink="http://www.w3.org/1999/xlink"><rect width="931" height="540" style="fill: white;"></rect><g transform="translate(72,27)"><g class="mark-group role-frame root"><g transform="translate(0,0)"><path class="background" d="M0.5,0.5h750v375h-750Z" style="fill: none; stroke: #ddd;"></path><g><g class="mark-group role-axis"><g transform="translate(0.5,0.5)"><path class="background" d="M0,0h0v0h0Z" style="pointer-events: none; fill: none;"></path><g><g class="mark-rule role-axis-grid" style="pointer-events: none;"><line transform="translate(0,375)" x2="750" y2="0" style="fill: none; stroke: #ddd; stroke-width: 1; opacity: 1;"></line><line transform="translate(0,341)" x2="750" y2="0" style="fill: none; stroke: #ddd; stroke-width: 1; opacity: 1;"></line><line transform="translate(0,307)" x2="750" y2="0" style="fill: none; stroke: #ddd; stroke-width: 1; opacity: 1;"></line><line transform="translate(0,273)" x2="750" y2="0" style="fill: none; stroke: #ddd; stroke-width: 1; opacity: 1;"></line><line transform="translate(0,239)" x2="750" y2="0" style="fill: none; stroke: #ddd; stroke-width: 1; opacity: 1;"></line><line transform="translate(0,205)" x2="750" y2="0" style="fill: none; stroke: #ddd; stroke-width: 1; opacity: 1;"></line><line transform="translate(0,170)" x2="750" y2="0" style="fill: none; stroke: #ddd; stroke-width: 1; opacity: 1;"></line><line transform="translate(0,136)" x2="750" y2="0" style="fill: none; stroke: #ddd; stroke-width: 1; opacity: 1;"></line><line transform="translate(0,102)" x2="750" y2="0" style="fill: none; stroke: #ddd; stroke-width: 1; opacity: 1;"></line><line transform="translate(0,68)" x2="750" y2="0" style="fill: none; stroke: #ddd; stroke-width: 1; opacity: 1;"></line><line transform="translate(0,34)" x2="750" y2="0" style="fill: none; stroke: #ddd; stroke-width: 1; opacity: 1;"></line><line transform="translate(0,0)" x2="750" y2="0" style="fill: none; stroke: #ddd; stroke-width: 1; opacity: 1;"></line></g></g><path class="foreground" d="" style="pointer-events: none; display: none; fill: none;"></path></g></g><g class="mark-group role-axis"><g transform="translate(0.5,375.5)"><path class="background" d="M0,0h0v0h0Z" style="pointer-events: none; fill: none;"></path><g><g class="mark-rule role-axis-tick" style="pointer-events: none;"><line transform="translate(3,0)" x2="0" y2="5" style="fill: none; stroke: #888; stroke-width: 1; opacity: 1;"></line><line transform="translate(11,0)" x2="0" y2="5" style="fill: none; stroke: #888; stroke-width: 1; opacity: 1;"></line><line transform="translate(19,0)" x2="0" y2="5" style="fill: none; stroke: #888; stroke-width: 1; opacity: 1;"></line><line transform="translate(26,0)" x2="0" y2="5" style="fill: none; stroke: #888; stroke-width: 1; opacity: 1;"></line><line transform="translate(34,0)" x2="0" y2="5" style="fill: none; stroke: #888; stroke-width: 1; opacity: 1;"></line><line transform="translate(42,0)" x2="0" y2="5" style="fill: none; stroke: #888; stroke-width: 1; opacity: 1;"></line><line transform="translate(49,0)" x2="0" y2="5" style="fill: none; stroke: #888; stroke-width: 1; opacity: 1;"></line><line transform="translate(57,0)" x2="0" y2="5" style="fill: none; stroke: #888; stroke-width: 1; opacity: 1;"></line><line transform="translate(65,0)" x2="0" y2="5" style="fill: none; stroke: #888; stroke-width: 1; opacity: 1;"></line><line transform="translate(72,0)" x2="0" y2="5" style="fill: none; stroke: #888; stroke-width: 1; opacity: 1;"></line><line transform="translate(80,0)" x2="0" y2="5" style="fill: none; stroke: #888; stroke-width: 1; opacity: 1;"></line><line transform="translate(88,0)" x2="0" y2="5" style="fill: none; stroke: #888; stroke-width: 1; opacity: 1;"></line><line transform="translate(95,0)" x2="0" y2="5" style="fill: none; stroke: #888; stroke-width: 1; opacity: 1;"></line><line transform="translate(103,0)" x2="0" y2="5" style="fill: none; stroke: #888; stroke-width: 1; opacity: 1;"></line><line transform="translate(110,0)" x2="0" y2="5" style="fill: none; stroke: #888; stroke-width: 1; opacity: 1;"></line><line transform="translate(118,0)" x2="0" y2="5" style="fill: none; stroke: #888; stroke-width: 1; opacity: 1;"></line><line transform="translate(126,0)" x2="0" y2="5" style="fill: none; stroke: #888; stroke-width: 1; opacity: 1;"></line><line transform="translate(133,0)" x2="0" y2="5" style="fill: none; stroke: #888; stroke-width: 1; opacity: 1;"></line><line transform="translate(141,0)" x2="0" y2="5" style="fill: none; stroke: #888; stroke-width: 1; opacity: 1;"></line><line transform="translate(149,0)" x2="0" y2="5" style="fill: none; stroke: #888; stroke-width: 1; opacity: 1;"></line><line transform="translate(156,0)" x2="0" y2="5" style="fill: none; stroke: #888; stroke-width: 1; opacity: 1;"></line><line transform="translate(164,0)" x2="0" y2="5" style="fill: none; stroke: #888; stroke-width: 1; opacity: 1;"></line><line transform="translate(172,0)" x2="0" y2="5" style="fill: none; stroke: #888; stroke-width: 1; opacity: 1;"></line><line transform="translate(179,0)" x2="0" y2="5" style="fill: none; stroke: #888; stroke-width: 1; opacity: 1;"></line><line transform="translate(187,0)" x2="0" y2="5" style="fill: none; stroke: #888; stroke-width: 1; opacity: 1;"></line><line transform="translate(195,0)" x2="0" y2="5" style="fill: none; stroke: #888; stroke-width: 1; opacity: 1;"></line><line transform="translate(202,0)" x2="0" y2="5" style="fill: none; stroke: #888; stroke-width: 1; opacity: 1;"></line><line transform="translate(210,0)" x2="0" y2="5" style="fill: none; stroke: #888; stroke-width: 1; opacity: 1;"></line><line transform="translate(218,0)" x2="0" y2="5" style="fill: none; stroke: #888; stroke-width: 1; opacity: 1;"></line><line transform="translate(225,0)" x2="0" y2="5" style="fill: none; stroke: #888; stroke-width: 1; opacity: 1;"></line><line transform="translate(233,0)" x2="0" y2="5" style="fill: none; stroke: #888; stroke-width: 1; opacity: 1;"></line><line transform="translate(241,0)" x2="0" y2="5" style="fill: none; stroke: #888; stroke-width: 1; opacity: 1;"></line><line transform="translate(248,0)" x2="0" y2="5" style="fill: none; stroke: #888; stroke-width: 1; opacity: 1;"></line><line transform="translate(256,0)" x2="0" y2="5" style="fill: none; stroke: #888; stroke-width: 1; opacity: 1;"></line><line transform="translate(264,0)" x2="0" y2="5" style="fill: none; stroke: #888; stroke-width: 1; opacity: 1;"></line><line transform="translate(271,0)" x2="0" y2="5" style="fill: none; stroke: #888; stroke-width: 1; opacity: 1;"></line><line transform="translate(279,0)" x2="0" y2="5" style="fill: none; stroke: #888; stroke-width: 1; opacity: 1;"></line><line transform="translate(286,0)" x2="0" y2="5" style="fill: none; stroke: #888; stroke-width: 1; opacity: 1;"></line><line transform="translate(294,0)" x2="0" y2="5" style="fill: none; stroke: #888; stroke-width: 1; opacity: 1;"></line><line transform="translate(302,0)" x2="0" y2="5" style="fill: none; stroke: #888; stroke-width: 1; opacity: 1;"></line><line transform="translate(309,0)" x2="0" y2="5" style="fill: none; stroke: #888; stroke-width: 1; opacity: 1;"></line><line transform="translate(317,0)" x2="0" y2="5" style="fill: none; stroke: #888; stroke-width: 1; opacity: 1;"></line><line transform="translate(325,0)" x2="0" y2="5" style="fill: none; stroke: #888; stroke-width: 1; opacity: 1;"></line><line transform="translate(332,0)" x2="0" y2="5" style="fill: none; stroke: #888; stroke-width: 1; opacity: 1;"></line><line transform="translate(340,0)" x2="0" y2="5" style="fill: none; stroke: #888; stroke-width: 1; opacity: 1;"></line><line transform="translate(348,0)" x2="0" y2="5" style="fill: none; stroke: #888; stroke-width: 1; opacity: 1;"></line><line transform="translate(355,0)" x2="0" y2="5" style="fill: none; stroke: #888; stroke-width: 1; opacity: 1;"></line><line transform="translate(363,0)" x2="0" y2="5" style="fill: none; stroke: #888; stroke-width: 1; opacity: 1;"></line><line transform="translate(371,0)" x2="0" y2="5" style="fill: none; stroke: #888; stroke-width: 1; opacity: 1;"></line><line transform="translate(378,0)" x2="0" y2="5" style="fill: none; stroke: #888; stroke-width: 1; opacity: 1;"></line><line transform="translate(386,0)" x2="0" y2="5" style="fill: none; stroke: #888; stroke-width: 1; opacity: 1;"></line><line transform="translate(394,0)" x2="0" y2="5" style="fill: none; stroke: #888; stroke-width: 1; opacity: 1;"></line><line transform="translate(401,0)" x2="0" y2="5" style="fill: none; stroke: #888; stroke-width: 1; opacity: 1;"></line><line transform="translate(409,0)" x2="0" y2="5" style="fill: none; stroke: #888; stroke-width: 1; opacity: 1;"></line><line transform="translate(417,0)" x2="0" y2="5" style="fill: none; stroke: #888; stroke-width: 1; opacity: 1;"></line><line transform="translate(424,0)" x2="0" y2="5" style="fill: none; stroke: #888; stroke-width: 1; opacity: 1;"></line><line transform="translate(432,0)" x2="0" y2="5" style="fill: none; stroke: #888; stroke-width: 1; opacity: 1;"></line><line transform="translate(440,0)" x2="0" y2="5" style="fill: none; stroke: #888; stroke-width: 1; opacity: 1;"></line><line transform="translate(447,0)" x2="0" y2="5" style="fill: none; stroke: #888; stroke-width: 1; opacity: 1;"></line><line transform="translate(455,0)" x2="0" y2="5" style="fill: none; stroke: #888; stroke-width: 1; opacity: 1;"></line><line transform="translate(463,0)" x2="0" y2="5" style="fill: none; stroke: #888; stroke-width: 1; opacity: 1;"></line><line transform="translate(470,0)" x2="0" y2="5" style="fill: none; stroke: #888; stroke-width: 1; opacity: 1;"></line><line transform="translate(478,0)" x2="0" y2="5" style="fill: none; stroke: #888; stroke-width: 1; opacity: 1;"></line><line transform="translate(485,0)" x2="0" y2="5" style="fill: none; stroke: #888; stroke-width: 1; opacity: 1;"></line><line transform="translate(493,0)" x2="0" y2="5" style="fill: none; stroke: #888; stroke-width: 1; opacity: 1;"></line><line transform="translate(501,0)" x2="0" y2="5" style="fill: none; stroke: #888; stroke-width: 1; opacity: 1;"></line><line transform="translate(508,0)" x2="0" y2="5" style="fill: none; stroke: #888; stroke-width: 1; opacity: 1;"></line><line transform="translate(516,0)" x2="0" y2="5" style="fill: none; stroke: #888; stroke-width: 1; opacity: 1;"></line><line transform="translate(524,0)" x2="0" y2="5" style="fill: none; stroke: #888; stroke-width: 1; opacity: 1;"></line><line transform="translate(531,0)" x2="0" y2="5" style="fill: none; stroke: #888; stroke-width: 1; opacity: 1;"></line><line transform="translate(539,0)" x2="0" y2="5" style="fill: none; stroke: #888; stroke-width: 1; opacity: 1;"></line><line transform="translate(547,0)" x2="0" y2="5" style="fill: none; stroke: #888; stroke-width: 1; opacity: 1;"></line><line transform="translate(554,0)" x2="0" y2="5" style="fill: none; stroke: #888; stroke-width: 1; opacity: 1;"></line><line transform="translate(562,0)" x2="0" y2="5" style="fill: none; stroke: #888; stroke-width: 1; opacity: 1;"></line><line transform="translate(570,0)" x2="0" y2="5" style="fill: none; stroke: #888; stroke-width: 1; opacity: 1;"></line><line transform="translate(577,0)" x2="0" y2="5" style="fill: none; stroke: #888; stroke-width: 1; opacity: 1;"></line><line transform="translate(585,0)" x2="0" y2="5" style="fill: none; stroke: #888; stroke-width: 1; opacity: 1;"></line><line transform="translate(593,0)" x2="0" y2="5" style="fill: none; stroke: #888; stroke-width: 1; opacity: 1;"></line><line transform="translate(600,0)" x2="0" y2="5" style="fill: none; stroke: #888; stroke-width: 1; opacity: 1;"></line><line transform="translate(608,0)" x2="0" y2="5" style="fill: none; stroke: #888; stroke-width: 1; opacity: 1;"></line><line transform="translate(616,0)" x2="0" y2="5" style="fill: none; stroke: #888; stroke-width: 1; opacity: 1;"></line><line transform="translate(623,0)" x2="0" y2="5" style="fill: none; stroke: #888; stroke-width: 1; opacity: 1;"></line><line transform="translate(631,0)" x2="0" y2="5" style="fill: none; stroke: #888; stroke-width: 1; opacity: 1;"></line><line transform="translate(639,0)" x2="0" y2="5" style="fill: none; stroke: #888; stroke-width: 1; opacity: 1;"></line><line transform="translate(646,0)" x2="0" y2="5" style="fill: none; stroke: #888; stroke-width: 1; opacity: 1;"></line><line transform="translate(654,0)" x2="0" y2="5" style="fill: none; stroke: #888; stroke-width: 1; opacity: 1;"></line><line transform="translate(661,0)" x2="0" y2="5" style="fill: none; stroke: #888; stroke-width: 1; opacity: 1;"></line><line transform="translate(669,0)" x2="0" y2="5" style="fill: none; stroke: #888; stroke-width: 1; opacity: 1;"></line><line transform="translate(677,0)" x2="0" y2="5" style="fill: none; stroke: #888; stroke-width: 1; opacity: 1;"></line><line transform="translate(684,0)" x2="0" y2="5" style="fill: none; stroke: #888; stroke-width: 1; opacity: 1;"></line><line transform="translate(692,0)" x2="0" y2="5" style="fill: none; stroke: #888; stroke-width: 1; opacity: 1;"></line><line transform="translate(700,0)" x2="0" y2="5" style="fill: none; stroke: #888; stroke-width: 1; opacity: 1;"></line><line transform="translate(707,0)" x2="0" y2="5" style="fill: none; stroke: #888; stroke-width: 1; opacity: 1;"></line><line transform="translate(715,0)" x2="0" y2="5" style="fill: none; stroke: #888; stroke-width: 1; opacity: 1;"></line><line transform="translate(723,0)" x2="0" y2="5" style="fill: none; stroke: #888; stroke-width: 1; opacity: 1;"></line><line transform="translate(730,0)" x2="0" y2="5" style="fill: none; stroke: #888; stroke-width: 1; opacity: 1;"></line><line transform="translate(738,0)" x2="0" y2="5" style="fill: none; stroke: #888; stroke-width: 1; opacity: 1;"></line><line transform="translate(746,0)" x2="0" y2="5" style="fill: none; stroke: #888; stroke-width: 1; opacity: 1;"></line></g><g class="mark-text role-axis-label" style="pointer-events: none;"><text text-anchor="end" transform="translate(3.3265306122448677,7) rotate(270) translate(0,3)" style="font-family: sans-serif; font-size: 10px; fill: #000; opacity: 1;">United States of America</text><text text-anchor="end" transform="translate(10.979591836734665,7) rotate(270) translate(0,3)" style="font-family: sans-serif; font-size: 10px; fill: #000; opacity: 1;">Spain</text><text text-anchor="end" transform="translate(18.63265306122446,7) rotate(270) translate(0,3)" style="font-family: sans-serif; font-size: 10px; fill: #000; opacity: 1;">Italy</text><text text-anchor="end" transform="translate(26.285714285714253,7) rotate(270) translate(0,3)" style="font-family: sans-serif; font-size: 10px; fill: #000; opacity: 1;">Germany</text><text text-anchor="end" transform="translate(33.93877551020405,7) rotate(270) translate(0,3)" style="font-family: sans-serif; font-size: 10px; fill: #000; opacity: 1;">France</text><text text-anchor="end" transform="translate(41.59183673469384,7) rotate(270) translate(0,3)" style="font-family: sans-serif; font-size: 10px; fill: #000; opacity: 1;">United Kingdom</text><text text-anchor="end" transform="translate(49.24489795918364,7) rotate(270) translate(0,3)" style="font-family: sans-serif; font-size: 10px; fill: #000; opacity: 1;">China</text><text text-anchor="end" transform="translate(56.897959183673436,7) rotate(270) translate(0,3)" style="font-family: sans-serif; font-size: 10px; fill: #000; opacity: 1;">Iran, Islamic Republic of</text><text text-anchor="end" transform="translate(64.55102040816324,7) rotate(270) translate(0,3)" style="font-family: sans-serif; font-size: 10px; fill: #000; opacity: 1;">Turkey</text><text text-anchor="end" transform="translate(72.20408163265303,7) rotate(270) translate(0,3)" style="font-family: sans-serif; font-size: 10px; fill: #000; opacity: 1;">Brazil</text><text text-anchor="end" transform="translate(79.85714285714282,7) rotate(270) translate(0,3)" style="font-family: sans-serif; font-size: 10px; fill: #000; opacity: 1;">Russian Federation</text><text text-anchor="end" transform="translate(87.51020408163262,7) rotate(270) translate(0,3)" style="font-family: sans-serif; font-size: 10px; fill: #000; opacity: 1;">Canada</text><text text-anchor="end" transform="translate(95.16326530612241,7) rotate(270) translate(0,3)" style="font-family: sans-serif; font-size: 10px; fill: #000; opacity: 1;">Belgium</text><text text-anchor="end" transform="translate(102.81632653061222,7) rotate(270) translate(0,3)" style="font-family: sans-serif; font-size: 10px; fill: #000; opacity: 1;">Switzerland</text><text text-anchor="end" transform="translate(110.469387755102,7) rotate(270) translate(0,3)" style="font-family: sans-serif; font-size: 10px; fill: #000; opacity: 1;">Netherlands</text><text text-anchor="end" transform="translate(118.12244897959181,7) rotate(270) translate(0,3)" style="font-family: sans-serif; font-size: 10px; fill: #000; opacity: 1;">Peru</text><text text-anchor="end" transform="translate(125.7755102040816,7) rotate(270) translate(0,3)" style="font-family: sans-serif; font-size: 10px; fill: #000; opacity: 1;">India</text><text text-anchor="end" transform="translate(133.42857142857142,7) rotate(270) translate(0,3)" style="font-family: sans-serif; font-size: 10px; fill: #000; opacity: 1;">Ireland</text><text text-anchor="end" transform="translate(141.0816326530612,7) rotate(270) translate(0,3)" style="font-family: sans-serif; font-size: 10px; fill: #000; opacity: 1;">Austria</text><text text-anchor="end" transform="translate(148.734693877551,7) rotate(270) translate(0,3)" style="font-family: sans-serif; font-size: 10px; fill: #000; opacity: 1;">Portugal</text><text text-anchor="end" transform="translate(156.38775510204079,7) rotate(270) translate(0,3)" style="font-family: sans-serif; font-size: 10px; fill: #000; opacity: 1;">Ecuador</text><text text-anchor="end" transform="translate(164.0408163265306,7) rotate(270) translate(0,3)" style="font-family: sans-serif; font-size: 10px; fill: #000; opacity: 1;">Mexico</text><text text-anchor="end" transform="translate(171.6938775510204,7) rotate(270) translate(0,3)" style="font-family: sans-serif; font-size: 10px; fill: #000; opacity: 1;">Israel</text><text text-anchor="end" transform="translate(179.34693877551018,7) rotate(270) translate(0,3)" style="font-family: sans-serif; font-size: 10px; fill: #000; opacity: 1;">Sweden</text><text text-anchor="end" transform="translate(186.99999999999997,7) rotate(270) translate(0,3)" style="font-family: sans-serif; font-size: 10px; fill: #000; opacity: 1;">Chile</text><text text-anchor="end" transform="translate(194.65306122448976,7) rotate(270) translate(0,3)" style="font-family: sans-serif; font-size: 10px; fill: #000; opacity: 1;">Korea (South)</text><text text-anchor="end" transform="translate(202.30612244897958,7) rotate(270) translate(0,3)" style="font-family: sans-serif; font-size: 10px; fill: #000; opacity: 1;">Saudi Arabia</text><text text-anchor="end" transform="translate(209.95918367346937,7) rotate(270) translate(0,3)" style="font-family: sans-serif; font-size: 10px; fill: #000; opacity: 1;">Pakistan</text><text text-anchor="end" transform="translate(217.61224489795916,7) rotate(270) translate(0,3)" style="font-family: sans-serif; font-size: 10px; fill: #000; opacity: 1;">Japan</text><text text-anchor="end" transform="translate(225.26530612244895,7) rotate(270) translate(0,3)" style="font-family: sans-serif; font-size: 10px; fill: #000; opacity: 1;">Denmark</text><text text-anchor="end" transform="translate(232.91836734693877,7) rotate(270) translate(0,3)" style="font-family: sans-serif; font-size: 10px; fill: #000; opacity: 1;">Romania</text><text text-anchor="end" transform="translate(240.57142857142856,7) rotate(270) translate(0,3)" style="font-family: sans-serif; font-size: 10px; fill: #000; opacity: 1;">Poland</text><text text-anchor="end" transform="translate(248.22448979591834,7) rotate(270) translate(0,3)" style="font-family: sans-serif; font-size: 10px; fill: #000; opacity: 1;">Singapore</text><text text-anchor="end" transform="translate(255.87755102040813,7) rotate(270) translate(0,3)" style="font-family: sans-serif; font-size: 10px; fill: #000; opacity: 1;">United Arab Emirates</text><text text-anchor="end" transform="translate(263.53061224489795,7) rotate(270) translate(0,3)" style="font-family: sans-serif; font-size: 10px; fill: #000; opacity: 1;">Belarus</text><text text-anchor="end" transform="translate(271.1836734693877,7) rotate(270) translate(0,3)" style="font-family: sans-serif; font-size: 10px; fill: #000; opacity: 1;">Australia</text><text text-anchor="end" transform="translate(278.83673469387753,7) rotate(270) translate(0,3)" style="font-family: sans-serif; font-size: 10px; fill: #000; opacity: 1;">Indonesia</text><text text-anchor="end" transform="translate(286.48979591836735,7) rotate(270) translate(0,3)" style="font-family: sans-serif; font-size: 10px; fill: #000; opacity: 1;">Czech Republic</text><text text-anchor="end" transform="translate(294.1428571428571,7) rotate(270) translate(0,3)" style="font-family: sans-serif; font-size: 10px; fill: #000; opacity: 1;">Malaysia</text><text text-anchor="end" transform="translate(301.7959183673469,7) rotate(270) translate(0,3)" style="font-family: sans-serif; font-size: 10px; fill: #000; opacity: 1;">Ukraine</text><text text-anchor="end" transform="translate(309.4489795918367,7) rotate(270) translate(0,3)" style="font-family: sans-serif; font-size: 10px; fill: #000; opacity: 1;">Philippines</text><text text-anchor="end" transform="translate(317.1020408163265,7) rotate(270) translate(0,3)" style="font-family: sans-serif; font-size: 10px; fill: #000; opacity: 1;">Norway</text><text text-anchor="end" transform="translate(324.7551020408163,7) rotate(270) translate(0,3)" style="font-family: sans-serif; font-size: 10px; fill: #000; opacity: 1;">Serbia</text><text text-anchor="end" transform="translate(332.4081632653061,7) rotate(270) translate(0,3)" style="font-family: sans-serif; font-size: 10px; fill: #000; opacity: 1;">Finland</text><text text-anchor="end" transform="translate(340.0612244897959,7) rotate(270) translate(0,3)" style="font-family: sans-serif; font-size: 10px; fill: #000; opacity: 1;">Dominican Republic</text><text text-anchor="end" transform="translate(347.71428571428567,7) rotate(270) translate(0,3)" style="font-family: sans-serif; font-size: 10px; fill: #000; opacity: 1;">Luxembourg</text><text text-anchor="end" transform="translate(355.3673469387755,7) rotate(270) translate(0,3)" style="font-family: sans-serif; font-size: 10px; fill: #000; opacity: 1;">Colombia</text><text text-anchor="end" transform="translate(363.0204081632653,7) rotate(270) translate(0,3)" style="font-family: sans-serif; font-size: 10px; fill: #000; opacity: 1;">Panama</text><text text-anchor="end" transform="translate(370.67346938775506,7) rotate(270) translate(0,3)" style="font-family: sans-serif; font-size: 10px; fill: #000; opacity: 1;">South Africa</text><text text-anchor="end" transform="translate(378.3265306122449,7) rotate(270) translate(0,3)" style="font-family: sans-serif; font-size: 10px; fill: #000; opacity: 1;">Egypt</text><text text-anchor="end" transform="translate(385.97959183673464,7) rotate(270) translate(0,3)" style="font-family: sans-serif; font-size: 10px; fill: #000; opacity: 1;">Thailand</text><text text-anchor="end" transform="translate(393.63265306122446,7) rotate(270) translate(0,3)" style="font-family: sans-serif; font-size: 10px; fill: #000; opacity: 1;">Bangladesh</text><text text-anchor="end" transform="translate(401.2857142857143,7) rotate(270) translate(0,3)" style="font-family: sans-serif; font-size: 10px; fill: #000; opacity: 1;">Algeria</text><text text-anchor="end" transform="translate(408.93877551020404,7) rotate(270) translate(0,3)" style="font-family: sans-serif; font-size: 10px; fill: #000; opacity: 1;">Argentina</text><text text-anchor="end" transform="translate(416.59183673469386,7) rotate(270) translate(0,3)" style="font-family: sans-serif; font-size: 10px; fill: #000; opacity: 1;">Morocco</text><text text-anchor="end" transform="translate(424.2448979591837,7) rotate(270) translate(0,3)" style="font-family: sans-serif; font-size: 10px; fill: #000; opacity: 1;">Moldova</text><text text-anchor="end" transform="translate(431.89795918367344,7) rotate(270) translate(0,3)" style="font-family: sans-serif; font-size: 10px; fill: #000; opacity: 1;">Kuwait</text><text text-anchor="end" transform="translate(439.55102040816325,7) rotate(270) translate(0,3)" style="font-family: sans-serif; font-size: 10px; fill: #000; opacity: 1;">Kazakhstan</text><text text-anchor="end" transform="translate(447.204081632653,7) rotate(270) translate(0,3)" style="font-family: sans-serif; font-size: 10px; fill: #000; opacity: 1;">Greece</text><text text-anchor="end" transform="translate(454.85714285714283,7) rotate(270) translate(0,3)" style="font-family: sans-serif; font-size: 10px; fill: #000; opacity: 1;">Hungary</text><text text-anchor="end" transform="translate(462.51020408163265,7) rotate(270) translate(0,3)" style="font-family: sans-serif; font-size: 10px; fill: #000; opacity: 1;">Croatia</text><text text-anchor="end" transform="translate(470.1632653061224,7) rotate(270) translate(0,3)" style="font-family: sans-serif; font-size: 10px; fill: #000; opacity: 1;">Iraq</text><text text-anchor="end" transform="translate(477.81632653061223,7) rotate(270) translate(0,3)" style="font-family: sans-serif; font-size: 10px; fill: #000; opacity: 1;">Azerbaijan</text><text text-anchor="end" transform="translate(485.469387755102,7) rotate(270) translate(0,3)" style="font-family: sans-serif; font-size: 10px; fill: #000; opacity: 1;">New Zealand</text><text text-anchor="end" transform="translate(493.1224489795918,7) rotate(270) translate(0,3)" style="font-family: sans-serif; font-size: 10px; fill: #000; opacity: 1;">Armenia</text><text text-anchor="end" transform="translate(500.7755102040816,7) rotate(270) translate(0,3)" style="font-family: sans-serif; font-size: 10px; fill: #000; opacity: 1;">Cameroon</text><text text-anchor="end" transform="translate(508.4285714285714,7) rotate(270) translate(0,3)" style="font-family: sans-serif; font-size: 10px; fill: #000; opacity: 1;">Bosnia and Herzegovina</text><text text-anchor="end" transform="translate(516.0816326530611,7) rotate(270) translate(0,3)" style="font-family: sans-serif; font-size: 10px; fill: #000; opacity: 1;">Lithuania</text><text text-anchor="end" transform="translate(523.734693877551,7) rotate(270) translate(0,3)" style="font-family: sans-serif; font-size: 10px; fill: #000; opacity: 1;">Estonia</text><text text-anchor="end" transform="translate(531.3877551020407,7) rotate(270) translate(0,3)" style="font-family: sans-serif; font-size: 10px; fill: #000; opacity: 1;">Cuba</text><text text-anchor="end" transform="translate(539.0408163265305,7) rotate(270) translate(0,3)" style="font-family: sans-serif; font-size: 10px; fill: #000; opacity: 1;">Macedonia, Republic of</text><text text-anchor="end" transform="translate(546.6938775510204,7) rotate(270) translate(0,3)" style="font-family: sans-serif; font-size: 10px; fill: #000; opacity: 1;">Slovakia</text><text text-anchor="end" transform="translate(554.3469387755101,7) rotate(270) translate(0,3)" style="font-family: sans-serif; font-size: 10px; fill: #000; opacity: 1;">Afghanistan</text><text text-anchor="end" transform="translate(561.9999999999999,7) rotate(270) translate(0,3)" style="font-family: sans-serif; font-size: 10px; fill: #000; opacity: 1;">Slovenia</text><text text-anchor="end" transform="translate(569.6530612244898,7) rotate(270) translate(0,3)" style="font-family: sans-serif; font-size: 10px; fill: #000; opacity: 1;">Côte d'Ivoire</text><text text-anchor="end" transform="translate(577.3061224489795,7) rotate(270) translate(0,3)" style="font-family: sans-serif; font-size: 10px; fill: #000; opacity: 1;">Bulgaria</text><text text-anchor="end" transform="translate(584.9591836734693,7) rotate(270) translate(0,3)" style="font-family: sans-serif; font-size: 10px; fill: #000; opacity: 1;">Nigeria</text><text text-anchor="end" transform="translate(592.612244897959,7) rotate(270) translate(0,3)" style="font-family: sans-serif; font-size: 10px; fill: #000; opacity: 1;">Tunisia</text><text text-anchor="end" transform="translate(600.2653061224489,7) rotate(270) translate(0,3)" style="font-family: sans-serif; font-size: 10px; fill: #000; opacity: 1;">Albania</text><text text-anchor="end" transform="translate(607.9183673469387,7) rotate(270) translate(0,3)" style="font-family: sans-serif; font-size: 10px; fill: #000; opacity: 1;">Andorra</text><text text-anchor="end" transform="translate(615.5714285714284,7) rotate(270) translate(0,3)" style="font-family: sans-serif; font-size: 10px; fill: #000; opacity: 1;">Burkina Faso</text><text text-anchor="end" transform="translate(623.2244897959183,7) rotate(270) translate(0,3)" style="font-family: sans-serif; font-size: 10px; fill: #000; opacity: 1;">Latvia</text><text text-anchor="end" transform="translate(630.8775510204081,7) rotate(270) translate(0,3)" style="font-family: sans-serif; font-size: 10px; fill: #000; opacity: 1;">Niger</text><text text-anchor="end" transform="translate(638.5306122448978,7) rotate(270) translate(0,3)" style="font-family: sans-serif; font-size: 10px; fill: #000; opacity: 1;">Uruguay</text><text text-anchor="end" transform="translate(646.1836734693877,7) rotate(270) translate(0,3)" style="font-family: sans-serif; font-size: 10px; fill: #000; opacity: 1;">Cyprus</text><text text-anchor="end" transform="translate(653.8367346938775,7) rotate(270) translate(0,3)" style="font-family: sans-serif; font-size: 10px; fill: #000; opacity: 1;">Bolivia</text><text text-anchor="end" transform="translate(661.4897959183672,7) rotate(270) translate(0,3)" style="font-family: sans-serif; font-size: 10px; fill: #000; opacity: 1;">Lebanon</text><text text-anchor="end" transform="translate(669.1428571428571,7) rotate(270) translate(0,3)" style="font-family: sans-serif; font-size: 10px; fill: #000; opacity: 1;">Honduras</text><text text-anchor="end" transform="translate(676.7959183673469,7) rotate(270) translate(0,3)" style="font-family: sans-serif; font-size: 10px; fill: #000; opacity: 1;">San Marino</text><text text-anchor="end" transform="translate(684.4489795918366,7) rotate(270) translate(0,3)" style="font-family: sans-serif; font-size: 10px; fill: #000; opacity: 1;">Republic of Kosovo</text><text text-anchor="end" transform="translate(692.1020408163264,7) rotate(270) translate(0,3)" style="font-family: sans-serif; font-size: 10px; fill: #000; opacity: 1;">Guatemala</text><text text-anchor="end" transform="translate(699.7551020408163,7) rotate(270) translate(0,3)" style="font-family: sans-serif; font-size: 10px; fill: #000; opacity: 1;">Congo (Kinshasa)</text><text text-anchor="end" transform="translate(707.408163265306,7) rotate(270) translate(0,3)" style="font-family: sans-serif; font-size: 10px; fill: #000; opacity: 1;">Mali</text><text text-anchor="end" transform="translate(715.0612244897958,7) rotate(270) translate(0,3)" style="font-family: sans-serif; font-size: 10px; fill: #000; opacity: 1;">Kenya</text><text text-anchor="end" transform="translate(722.7142857142857,7) rotate(270) translate(0,3)" style="font-family: sans-serif; font-size: 10px; fill: #000; opacity: 1;">Somalia</text><text text-anchor="end" transform="translate(730.3673469387754,7) rotate(270) translate(0,3)" style="font-family: sans-serif; font-size: 10px; fill: #000; opacity: 1;">Sudan</text><text text-anchor="end" transform="translate(738.0204081632652,7) rotate(270) translate(0,3)" style="font-family: sans-serif; font-size: 10px; fill: #000; opacity: 1;">Liberia</text><text text-anchor="end" transform="translate(745.6734693877551,7) rotate(270) translate(0,3)" style="font-family: sans-serif; font-size: 10px; fill: #000; opacity: 1;">Bahamas</text></g><g class="mark-rule role-axis-domain" style="pointer-events: none;"><line transform="translate(0,0)" x2="750" y2="0" style="fill: none; stroke: #888; stroke-width: 1; opacity: 1;"></line></g><g class="mark-text role-axis-title" style="pointer-events: none;"><text text-anchor="middle" transform="translate(375,130.60546875)" style="font-family: sans-serif; font-size: 11px; font-weight: bold; fill: #000; opacity: 1;">Country</text></g></g><path class="foreground" d="" style="pointer-events: none; display: none; fill: none;"></path></g></g><g class="mark-group role-axis"><g transform="translate(0.5,0.5)"><path class="background" d="M0,0h0v0h0Z" style="pointer-events: none; fill: none;"></path><g><g class="mark-rule role-axis-tick" style="pointer-events: none;"><line transform="translate(0,375)" x2="-5" y2="0" style="fill: none; stroke: #888; stroke-width: 1; opacity: 1;"></line><line transform="translate(0,341)" x2="-5" y2="0" style="fill: none; stroke: #888; stroke-width: 1; opacity: 1;"></line><line transform="translate(0,307)" x2="-5" y2="0" style="fill: none; stroke: #888; stroke-width: 1; opacity: 1;"></line><line transform="translate(0,273)" x2="-5" y2="0" style="fill: none; stroke: #888; stroke-width: 1; opacity: 1;"></line><line transform="translate(0,239)" x2="-5" y2="0" style="fill: none; stroke: #888; stroke-width: 1; opacity: 1;"></line><line transform="translate(0,205)" x2="-5" y2="0" style="fill: none; stroke: #888; stroke-width: 1; opacity: 1;"></line><line transform="translate(0,170)" x2="-5" y2="0" style="fill: none; stroke: #888; stroke-width: 1; opacity: 1;"></line><line transform="translate(0,136)" x2="-5" y2="0" style="fill: none; stroke: #888; stroke-width: 1; opacity: 1;"></line><line transform="translate(0,102)" x2="-5" y2="0" style="fill: none; stroke: #888; stroke-width: 1; opacity: 1;"></line><line transform="translate(0,68)" x2="-5" y2="0" style="fill: none; stroke: #888; stroke-width: 1; opacity: 1;"></line><line transform="translate(0,34)" x2="-5" y2="0" style="fill: none; stroke: #888; stroke-width: 1; opacity: 1;"></line><line transform="translate(0,0)" x2="-5" y2="0" style="fill: none; stroke: #888; stroke-width: 1; opacity: 1;"></line></g><g class="mark-text role-axis-label" style="pointer-events: none;"><text text-anchor="end" transform="translate(-7,378)" style="font-family: sans-serif; font-size: 10px; fill: #000; opacity: 1;">0</text><text text-anchor="end" transform="translate(-7,343.9090909090909)" style="font-family: sans-serif; font-size: 10px; fill: #000; opacity: 1;">100,000</text><text text-anchor="end" transform="translate(-7,309.8181818181818)" style="font-family: sans-serif; font-size: 10px; fill: #000; opacity: 1;">200,000</text><text text-anchor="end" transform="translate(-7,275.72727272727275)" style="font-family: sans-serif; font-size: 10px; fill: #000; opacity: 1;">300,000</text><text text-anchor="end" transform="translate(-7,241.63636363636363)" style="font-family: sans-serif; font-size: 10px; fill: #000; opacity: 1;">400,000</text><text text-anchor="end" transform="translate(-7,207.54545454545453)" style="font-family: sans-serif; font-size: 10px; fill: #000; opacity: 1;">500,000</text><text text-anchor="end" transform="translate(-7,173.45454545454547)" style="font-family: sans-serif; font-size: 10px; fill: #000; opacity: 1;">600,000</text><text text-anchor="end" transform="translate(-7,139.36363636363637)" style="font-family: sans-serif; font-size: 10px; fill: #000; opacity: 1;">700,000</text><text text-anchor="end" transform="translate(-7,105.27272727272727)" style="font-family: sans-serif; font-size: 10px; fill: #000; opacity: 1;">800,000</text><text text-anchor="end" transform="translate(-7,71.18181818181816)" style="font-family: sans-serif; font-size: 10px; fill: #000; opacity: 1;">900,000</text><text text-anchor="end" transform="translate(-7,37.0909090909091)" style="font-family: sans-serif; font-size: 10px; fill: #000; opacity: 1;">1,000,000</text><text text-anchor="end" transform="translate(-7,3)" style="font-family: sans-serif; font-size: 10px; fill: #000; opacity: 1;">1,100,000</text></g><g class="mark-rule role-axis-domain" style="pointer-events: none;"><line transform="translate(0,375)" x2="0" y2="-375" style="fill: none; stroke: #888; stroke-width: 1; opacity: 1;"></line></g><g class="mark-text role-axis-title" style="pointer-events: none;"><text text-anchor="middle" transform="translate(-55.4873046875,187.5) rotate(-90) translate(0,-2)" style="font-family: sans-serif; font-size: 11px; font-weight: bold; fill: #000; opacity: 1;">Count</text></g></g><path class="foreground" d="" style="pointer-events: none; display: none; fill: none;"></path></g></g><g class="mark-rect role-mark marks"><path d="M-1.1734693877551323,340.7822727272727h10v34.2177272727273h-10Z" style="fill: green;"></path><path d="M-1.1734693877551323,3.0170454545454666h10v319.45022727272726h-10Z" style="fill: orange;"></path><path d="M-1.1734693877551323,322.4672727272727h10v18.314999999999998h-10Z" style="fill: red;"></path><path d="M6.479591836734665,342.37227272727273h10v32.62772727272727h-10Z" style="fill: green;"></path><path d="M6.479591836734665,258.28329545454545h10v76.28147727272727h-10Z" style="fill: orange;"></path><path d="M6.479591836734665,334.5647727272727h10v7.8075000000000045h-10Z" style="fill: red;"></path><path d="M14.13265306122446,353.4818181818182h10v21.5181818181818h-10Z" style="fill: green;"></path><path d="M14.13265306122446,277.8903409090909h10v66.59693181818182h-10Z" style="fill: orange;"></path><path d="M14.13265306122446,344.48727272727274h10v8.99454545454546h-10Z" style="fill: red;"></path><path d="M29.438775510204053,359.53227272727275h10v15.467727272727245h-10Z" style="fill: green;"></path><path d="M29.438775510204053,296.70545454545453h10v55.10590909090911h-10Z" style="fill: orange;"></path><path d="M29.438775510204053,351.81136363636364h10v7.720909090909117h-10Z" style="fill: red;"></path><path d="M21.785714285714253,337.5681818181818h10v37.43181818181819h-10Z" style="fill: green;"></path><path d="M21.785714285714253,282.2079545454545h10v53.356704545454534h-10Z" style="fill: orange;"></path><path d="M21.785714285714253,335.56465909090906h10v2.0035227272727525h-10Z" style="fill: red;"></path><path d="M37.09183673469384,374.7361363636364h10v0.26386363636362375h-10Z" style="fill: green;"></path><path d="M37.09183673469384,316.7986363636363h10v50.989431818181856h-10Z" style="fill: orange;"></path><path d="M37.09183673469384,367.7880681818182h10v6.948068181818201h-10Z" style="fill: red;"></path><path d="M60.05102040816324,366.27886363636367h10v8.721136363636333h-10Z" style="fill: green;"></path><path d="M60.05102040816324,328.61556818181816h10v36.74079545454549h-10Z" style="fill: orange;"></path><path d="M60.05102040816324,365.35636363636365h10v0.9225000000000136h-10Z" style="fill: red;"></path><path d="M52.397959183673436,351.75238636363633h10v23.247613636363667h-10Z" style="fill: green;"></path><path d="M52.397959183673436,319.37352272727276h10v30.45272727272726h-10Z" style="fill: orange;"></path><path d="M52.397959183673436,349.82625h10v1.9261363636363171h-10Z" style="fill: red;"></path><path d="M44.74489795918364,348.3494318181818h10v26.650568181818187h-10Z" style="fill: green;"></path><path d="M44.74489795918364,318.1636363636364h10v28.6053409090909h-10Z" style="fill: orange;"></path><path d="M44.74489795918364,346.7689772727273h10v1.5804545454545291h-10Z" style="fill: red;"></path><path d="M75.35714285714282,372.8693181818182h10v2.130681818181813h-10Z" style="fill: green;"></path><path d="M75.35714285714282,347.2094318181818h10v25.42772727272728h-10Z" style="fill: orange;"></path><path d="M75.35714285714282,372.6371590909091h10v0.2321590909090787h-10Z" style="fill: red;"></path><path d="M67.70408163265303,365.0590909090909h10v9.940909090909088h-10Z" style="fill: green;"></path><path d="M67.70408163265303,343.45193181818183h10v20.224090909090933h-10Z" style="fill: orange;"></path><path d="M67.70408163265303,363.67602272727277h10v1.383068181818146h-10Z" style="fill: red;"></path><path d="M83.01020408163262,369.5410227272727h10v5.458977272727282h-10Z" style="fill: green;"></path><path d="M83.01020408163262,353.16477272727275h10v15.508295454545419h-10Z" style="fill: orange;"></path><path d="M83.01020408163262,368.67306818181817h10v0.8679545454545519h-10Z" style="fill: red;"></path><path d="M90.66326530612241,371.44875h10v3.551249999999982h-10Z" style="fill: green;"></path><path d="M90.66326530612241,353.63897727272723h10v15.451704545454618h-10Z" style="fill: orange;"></path><path d="M90.66326530612241,369.09068181818185h10v2.358068181818169h-10Z" style="fill: red;"></path><path d="M105.969387755102,374.9652272727273h10v0.03477272727269565h-10Z" style="fill: green;"></path><path d="M105.969387755102,360.7125h10v12.74454545454546h-10Z" style="fill: orange;"></path><path d="M105.969387755102,373.45704545454544h10v1.5081818181818676h-10Z" style="fill: red;"></path><path d="M98.31632653061222,367.7386363636364h10v7.261363636363626h-10Z" style="fill: green;"></path><path d="M98.31632653061222,357.34329545454545h10v9.850227272727295h-10Z" style="fill: orange;"></path><path d="M98.31632653061222,367.19352272727275h10v0.5451136363636238h-10Z" style="fill: red;"></path><path d="M121.2755102040816,372.9753409090909h10v2.024659090909097h-10Z" style="fill: green;"></path><path d="M121.2755102040816,363.73397727272726h10v8.960113636363644h-10Z" style="fill: orange;"></path><path d="M121.2755102040816,372.6940909090909h10v0.28125h-10Z" style="fill: red;"></path><path d="M113.62244897959181,372.3419318181818h10v2.65806818181818h-10Z" style="fill: green;"></path><path d="M113.62244897959181,363.4677272727273h10v8.635568181818144h-10Z" style="fill: orange;"></path><path d="M113.62244897959181,372.10329545454545h10v0.23863636363637397h-10Z" style="fill: red;"></path><path d="M144.234693877551,374.5646590909091h10v0.43534090909088263h-10Z" style="fill: green;"></path><path d="M144.234693877551,366.2901136363636h10v7.974545454545478h-10Z" style="fill: orange;"></path><path d="M144.234693877551,374.2646590909091h10v0.30000000000001137h-10Z" style="fill: red;"></path><path d="M151.88775510204079,374.53431818181815h10v0.4656818181818494h-10Z" style="fill: green;"></path><path d="M151.88775510204079,366.5928409090909h10v7.745113636363669h-10Z" style="fill: orange;"></path><path d="M151.88775510204079,374.3379545454546h10v0.19636363636357146h-10Z" style="fill: red;"></path><path d="M128.92857142857142,371.85238636363636h10v3.147613636363644h-10Z" style="fill: green;"></path><path d="M128.92857142857142,365.16238636363636h10v6.327613636363651h-10Z" style="fill: orange;"></path><path d="M128.92857142857142,371.49h10v0.3623863636363467h-10Z" style="fill: red;"></path><path d="M174.84693877551018,374.65738636363636h10v0.3426136363636374h-10Z" style="fill: green;"></path><path d="M174.84693877551018,367.7134090909091h10v6.196704545454509h-10Z" style="fill: orange;"></path><path d="M174.84693877551018,373.91011363636363h10v0.7472727272727298h-10Z" style="fill: red;"></path><path d="M197.80612244897958,374.24488636363634h10v0.7551136363636601h-10Z" style="fill: green;"></path><path d="M197.80612244897958,368.64204545454544h10v5.556477272727307h-10Z" style="fill: orange;"></path><path d="M197.80612244897958,374.19852272727275h10v0.046363636363594196h-10Z" style="fill: red;"></path><path d="M167.1938775510204,372.80625h10v2.1937500000000227h-10Z" style="fill: green;"></path><path d="M167.1938775510204,367.5231818181818h10v5.215227272727304h-10Z" style="fill: orange;"></path><path d="M167.1938775510204,372.7384090909091h10v0.06784090909087581h-10Z" style="fill: red;"></path><path d="M136.5816326530612,370.8739772727273h10v4.126022727272698h-10Z" style="fill: green;"></path><path d="M136.5816326530612,365.5271590909091h10v5.16409090909093h-10Z" style="fill: orange;"></path><path d="M136.5816326530612,370.69125h10v0.18272727272727707h-10Z" style="fill: red;"></path><path d="M159.5408163265306,372.5628409090909h10v2.4371590909091196h-10Z" style="fill: green;"></path><path d="M159.5408163265306,367.3990909090909h10v4.718863636363665h-10Z" style="fill: orange;"></path><path d="M159.5408163265306,372.11795454545455h10v0.4448863636363285h-10Z" style="fill: red;"></path><path d="M213.11224489795916,374.43545454545455h10v0.5645454545454527h-10Z" style="fill: green;"></path><path d="M213.11224489795916,369.8021590909091h10v4.510568181818201h-10Z" style="fill: orange;"></path><path d="M213.11224489795916,374.3127272727273h10v0.1227272727272748h-10Z" style="fill: red;"></path><path d="M182.49999999999997,372.70022727272726h10v2.299772727272739h-10Z" style="fill: green;"></path><path d="M182.49999999999997,368.25511363636366h10v4.383409090909026h-10Z" style="fill: orange;"></path><path d="M182.49999999999997,372.6385227272727h10v0.0617045454545746h-10Z" style="fill: red;"></path><path d="M205.45918367346937,374.0229545454545h10v0.9770454545454754h-10Z" style="fill: green;"></path><path d="M205.45918367346937,369.5938636363636h10v4.337386363636369h-10Z" style="fill: orange;"></path><path d="M205.45918367346937,373.93125h10v0.09170454545454731h-10Z" style="fill: red;"></path><path d="M243.72448979591834,374.6584090909091h10v0.34159090909088263h-10Z" style="fill: green;"></path><path d="M243.72448979591834,370.32715909090905h10v4.327159090909163h-10Z" style="fill: orange;"></path><path d="M243.72448979591834,374.6543181818182h10v0.00409090909090537h-10Z" style="fill: red;"></path><path d="M236.07142857142856,374.27522727272725h10v0.7247727272727502h-10Z" style="fill: green;"></path><path d="M236.07142857142856,370.25352272727275h10v3.8430681818181256h-10Z" style="fill: orange;"></path><path d="M236.07142857142856,374.0965909090909h10v0.1786363636363717h-10Z" style="fill: red;"></path><path d="M190.15306122448976,372.02829545454546h10v2.9717045454545428h-10Z" style="fill: green;"></path><path d="M190.15306122448976,368.2885227272727h10v3.6572727272727548h-10Z" style="fill: orange;"></path><path d="M190.15306122448976,371.9457954545455h10v0.08249999999998181h-10Z" style="fill: red;"></path><path d="M228.41836734693877,374.0147727272727h10v0.9852272727272862h-10Z" style="fill: green;"></path><path d="M228.41836734693877,370.1843181818182h10v3.6255681818182097h-10Z" style="fill: orange;"></path><path d="M228.41836734693877,373.8098863636364h10v0.2048863636363194h-10Z" style="fill: red;"></path><path d="M251.37755102040813,374.35670454545453h10v0.6432954545454663h-10Z" style="fill: green;"></path><path d="M251.37755102040813,370.98715909090913h10v3.345340909090851h-10Z" style="fill: orange;"></path><path d="M251.37755102040813,374.3325h10v0.024204545454551862h-10Z" style="fill: red;"></path><path d="M259.03061224489795,374.46375h10v0.5362499999999955h-10Z" style="fill: green;"></path><path d="M259.03061224489795,371.1715909090909h10v3.2693181818181642h-10Z" style="fill: orange;"></path><path d="M259.03061224489795,374.4409090909091h10v0.02284090909091674h-10Z" style="fill: red;"></path><path d="M220.76530612244895,373.00295454545454h10v1.9970454545454572h-10Z" style="fill: green;"></path><path d="M220.76530612244895,369.91397727272727h10v2.946477272727293h-10Z" style="fill: orange;"></path><path d="M220.76530612244895,372.86045454545456h10v0.14249999999998408h-10Z" style="fill: red;"></path><path d="M274.33673469387753,374.64477272727277h10v0.35522727272723387h-10Z" style="fill: green;"></path><path d="M274.33673469387753,371.46511363636364h10v2.934204545454577h-10Z" style="fill: orange;"></path><path d="M274.33673469387753,374.3993181818182h10v0.2454545454545496h-10Z" style="fill: red;"></path><path d="M297.2959183673469,374.7334090909091h10v0.266590909090894h-10Z" style="fill: green;"></path><path d="M297.2959183673469,371.89500000000004h10v2.769886363636317h-10Z" style="fill: orange;"></path><path d="M297.2959183673469,374.66488636363636h10v0.06852272727275022h-10Z" style="fill: red;"></path><path d="M312.6020408163265,374.9890909090909h10v0.010909090909080987h-10Z" style="fill: green;"></path><path d="M312.6020408163265,372.3640909090909h10v2.55647727272725h-10Z" style="fill: orange;"></path><path d="M312.6020408163265,374.92056818181817h10v0.06852272727275022h-10Z" style="fill: red;"></path><path d="M281.98979591836735,374.16375h10v0.8362500000000068h-10Z" style="fill: green;"></path><path d="M281.98979591836735,371.5830681818182h10v2.5063636363636306h-10Z" style="fill: orange;"></path><path d="M281.98979591836735,374.0894318181818h10v0.07431818181817107h-10Z" style="fill: red;"></path><path d="M304.9489795918367,374.72999999999996h10v0.27000000000003865h-10Z" style="fill: green;"></path><path d="M304.9489795918367,372.075h10v2.4865909090909213h-10Z" style="fill: orange;"></path><path d="M304.9489795918367,374.5615909090909h10v0.16840909090905143h-10Z" style="fill: red;"></path><path d="M266.6836734693877,373.5603409090909h10v1.4396590909091174h-10Z" style="fill: green;"></path><path d="M266.6836734693877,371.25102272727275h10v2.2820454545454254h-10Z" style="fill: orange;"></path><path d="M266.6836734693877,373.5330681818182h10v0.02727272727270247h-10Z" style="fill: red;"></path><path d="M320.2551020408163,374.7034090909091h10v0.29659090909092356h-10Z" style="fill: green;"></path><path d="M320.2551020408163,372.4005681818182h10v2.2602272727272634h-10Z" style="fill: orange;"></path><path d="M320.2551020408163,374.66079545454545h10v0.04261363636362603h-10Z" style="fill: red;"></path><path d="M335.5612244897959,374.71977272727275h10v0.28022727272724524h-10Z" style="fill: green;"></path><path d="M335.5612244897959,372.60647727272726h10v2.0202272727272543h-10Z" style="fill: orange;"></path><path d="M335.5612244897959,374.6267045454545h10v0.09306818181823928h-10Z" style="fill: red;"></path><path d="M289.6428571428571,373.71750000000003h10v1.2824999999999704h-10Z" style="fill: green;"></path><path d="M289.6428571428571,371.72659090909093h10v1.9574999999999818h-10Z" style="fill: orange;"></path><path d="M289.6428571428571,373.6840909090909h10v0.03340909090911737h-10Z" style="fill: red;"></path><path d="M358.5204081632653,374.8847727272727h10v0.11522727272728162h-10Z" style="fill: green;"></path><path d="M358.5204081632653,372.9426136363636h10v1.8879545454545905h-10Z" style="fill: orange;"></path><path d="M358.5204081632653,374.8305681818182h10v0.05420454545452458h-10Z" style="fill: red;"></path><path d="M350.8673469387755,374.63625h10v0.3637499999999818h-10Z" style="fill: green;"></path><path d="M350.8673469387755,372.80386363636364h10v1.7529545454545428h-10Z" style="fill: orange;"></path><path d="M350.8673469387755,374.5568181818182h10v0.0794318181818312h-10Z" style="fill: red;"></path><path d="M389.13265306122446,374.9614772727273h10v0.03852272727272066h-10Z" style="fill: green;"></path><path d="M389.13265306122446,373.2098863636364h10v1.7038636363636215h-10Z" style="fill: orange;"></path><path d="M389.13265306122446,374.91375h10v0.04772727272728616h-10Z" style="fill: red;"></path><path d="M327.9081632653061,374.14772727272725h10v0.8522727272727479h-10Z" style="fill: green;"></path><path d="M327.9081632653061,372.55875h10v1.525568181818187h-10Z" style="fill: orange;"></path><path d="M327.9081632653061,374.08431818181816h10v0.06340909090909008h-10Z" style="fill: red;"></path><path d="M366.17346938775506,374.49784090909094h10v0.5021590909090605h-10Z" style="fill: green;"></path><path d="M366.17346938775506,372.9818181818182h10v1.4867045454545291h-10Z" style="fill: orange;"></path><path d="M366.17346938775506,374.4685227272727h10v0.029318181818211997h-10Z" style="fill: red;"></path><path d="M373.8265306122449,374.6202272727273h10v0.37977272727272293h-10Z" style="fill: green;"></path><path d="M373.8265306122449,373.04318181818184h10v1.4723863636363035h-10Z" style="fill: orange;"></path><path d="M373.8265306122449,374.51556818181814h10v0.10465909090913783h-10Z" style="fill: red;"></path><path d="M412.09183673469386,374.81693181818184h10v0.18306818181815743h-10Z" style="fill: green;"></path><path d="M412.09183673469386,373.4342045454545h10v1.3285227272727411h-10Z" style="fill: orange;"></path><path d="M412.09183673469386,374.76272727272726h10v0.05420454545458142h-10Z" style="fill: red;"></path><path d="M404.43877551020404,374.6488636363636h10v0.35113636363638534h-10Z" style="fill: green;"></path><path d="M404.43877551020404,373.2971590909091h10v1.2886363636363853h-10Z" style="fill: orange;"></path><path d="M404.43877551020404,374.58579545454546h10v0.06306818181815288h-10Z" style="fill: red;"></path><path d="M343.21428571428567,373.9472727272727h10v1.0527272727272816h-10Z" style="fill: green;"></path><path d="M343.21428571428567,372.6531818181818h10v1.265113636363651h-10Z" style="fill: orange;"></path><path d="M343.21428571428567,373.91829545454544h10v0.028977272727274794h-10Z" style="fill: red;"></path><path d="M419.7448979591837,374.71875h10v0.28125h-10Z" style="fill: green;"></path><path d="M419.7448979591837,373.5603409090909h10v1.126363636363692h-10Z" style="fill: orange;"></path><path d="M419.7448979591837,374.6867045454546h10v0.0320454545454254h-10Z" style="fill: red;"></path><path d="M396.7857142857143,374.4957954545455h10v0.5042045454545132h-10Z" style="fill: green;"></path><path d="M396.7857142857143,373.24295454545455h10v1.1099999999999568h-10Z" style="fill: orange;"></path><path d="M396.7857142857143,374.3529545454545h10v0.14284090909097813h-10Z" style="fill: red;"></path><path d="M381.47959183673464,374.1317045454545h10v0.8682954545454891h-10Z" style="fill: green;"></path><path d="M381.47959183673464,373.1232954545455h10v0.991022727272707h-10Z" style="fill: orange;"></path><path d="M381.47959183673464,374.1143181818182h10v0.017386363636319402h-10Z" style="fill: red;"></path><path d="M427.39795918367344,374.77636363636367h10v0.22363636363633077h-10Z" style="fill: green;"></path><path d="M427.39795918367344,373.78397727272727h10v0.9859090909091037h-10Z" style="fill: orange;"></path><path d="M427.39795918367344,374.7698863636364h10v0.006477272727295258h-10Z" style="fill: red;"></path><path d="M435.05102040816325,374.7797727272727h10v0.2202272727272998h-10Z" style="fill: green;"></path><path d="M435.05102040816325,373.88454545454545h10v0.8867045454545632h-10Z" style="fill: orange;"></path><path d="M435.05102040816325,374.77125h10v0.0085227272726911h-10Z" style="fill: red;"></path><path d="M442.704081632653,374.80329545454543h10v0.1967045454545655h-10Z" style="fill: green;"></path><path d="M442.704081632653,373.9046590909091h10v0.8543181818181438h-10Z" style="fill: orange;"></path><path d="M442.704081632653,374.75897727272724h10v0.044318181818198354h-10Z" style="fill: red;"></path><path d="M450.35714285714283,374.8438636363636h10v0.15613636363639216h-10Z" style="fill: green;"></path><path d="M450.35714285714283,373.92170454545453h10v0.832840909090919h-10Z" style="fill: orange;"></path><path d="M450.35714285714283,374.75454545454545h10v0.08931818181815743h-10Z" style="fill: red;"></path><path d="M458.01020408163265,374.6475h10v0.35250000000002046h-10Z" style="fill: green;"></path><path d="M458.01020408163265,373.9418181818182h10v0.6872727272727275h-10Z" style="fill: orange;"></path><path d="M458.01020408163265,374.6290909090909h10v0.018409090909074166h-10Z" style="fill: red;"></path><path d="M465.6632653061224,374.58272727272725h10v0.41727272727274567h-10Z" style="fill: green;"></path><path d="M465.6632653061224,373.9523863636364h10v0.6010227272727207h-10Z" style="fill: orange;"></path><path d="M465.6632653061224,374.5534090909091h10v0.029318181818155153h-10Z" style="fill: red;"></path><path d="M488.6224489795918,374.72625h10v0.2737500000000068h-10Z" style="fill: green;"></path><path d="M488.6224489795918,374.14500000000004h10v0.5717045454545087h-10Z" style="fill: orange;"></path><path d="M488.6224489795918,374.71670454545455h10v0.009545454545445864h-10Z" style="fill: red;"></path><path d="M519.234693877551,374.92227272727274h10v0.07772727272725888h-10Z" style="fill: green;"></path><path d="M519.234693877551,374.34920454545454h10v0.5573863636363967h-10Z" style="fill: orange;"></path><path d="M519.234693877551,374.90659090909094h10v0.01568181818180392h-10Z" style="fill: red;"></path><path d="M473.31632653061223,374.6318181818182h10v0.3681818181818244h-10Z" style="fill: green;"></path><path d="M473.31632653061223,374.0734090909091h10v0.5512499999999818h-10Z" style="fill: orange;"></path><path d="M473.31632653061223,374.62465909090906h10v0.00715909090911282h-10Z" style="fill: red;"></path><path d="M496.2755102040816,374.7623863636364h10v0.2376136363636192h-10Z" style="fill: green;"></path><path d="M496.2755102040816,374.2268181818182h10v0.5174999999999841h-10Z" style="fill: orange;"></path><path d="M496.2755102040816,374.7443181818182h10v0.018068181818193807h-10Z" style="fill: red;"></path><path d="M503.9285714285714,374.79818181818183h10v0.2018181818181688h-10Z" style="fill: green;"></path><path d="M503.9285714285714,374.2721590909091h10v0.5065909090909031h-10Z" style="fill: orange;"></path><path d="M503.9285714285714,374.77875h10v0.01943181818182893h-10Z" style="fill: red;"></path><path d="M480.969387755102,374.61068181818183h10v0.3893181818181688h-10Z" style="fill: green;"></path><path d="M480.969387755102,374.1034090909091h10v0.5011363636363626h-10Z" style="fill: orange;"></path><path d="M480.969387755102,374.6045454545455h10v0.006136363636358055h-10Z" style="fill: red;"></path><path d="M549.8469387755101,374.9359090909091h10v0.06409090909090764h-10Z" style="fill: green;"></path><path d="M549.8469387755101,374.4211363636363h10v0.49875000000002956h-10Z" style="fill: orange;"></path><path d="M549.8469387755101,374.91988636363635h10v0.016022727272741122h-10Z" style="fill: red;"></path><path d="M511.5816326530611,374.8431818181818h10v0.15681818181820972h-10Z" style="fill: green;"></path><path d="M511.5816326530611,374.3430681818182h10v0.4861363636363194h-10Z" style="fill: orange;"></path><path d="M511.5816326530611,374.8292045454545h10v0.013977272727288437h-10Z" style="fill: red;"></path><path d="M557.4999999999999,374.92534090909095h10v0.07465909090905143h-10Z" style="fill: green;"></path><path d="M557.4999999999999,374.42454545454547h10v0.47318181818178573h-10Z" style="fill: orange;"></path><path d="M557.4999999999999,374.89772727272725h10v0.027613636363696514h-10Z" style="fill: red;"></path><path d="M542.1938775510204,374.8684090909091h10v0.1315909090909031h-10Z" style="fill: green;"></path><path d="M542.1938775510204,374.3945454545455h10v0.4680681818181256h-10Z" style="fill: orange;"></path><path d="M542.1938775510204,374.8626136363636h10v0.005795454545477696h-10Z" style="fill: red;"></path><path d="M534.5408163265305,374.8725h10v0.12749999999999773h-10Z" style="fill: green;"></path><path d="M534.5408163265305,374.3863636363636h10v0.46602272727272975h-10Z" style="fill: orange;"></path><path d="M534.5408163265305,374.85238636363636h10v0.020113636363646492h-10Z" style="fill: red;"></path><path d="M526.8877551020407,374.8510227272727h10v0.14897727272727934h-10Z" style="fill: green;"></path><path d="M526.8877551020407,374.37784090909093h10v0.4557954545454663h-10Z" style="fill: orange;"></path><path d="M526.8877551020407,374.8336363636364h10v0.017386363636319402h-10Z" style="fill: red;"></path><path d="M572.8061224489795,374.9328409090909h10v0.0671590909091151h-10Z" style="fill: green;"></path><path d="M572.8061224489795,374.4889772727273h10v0.42511363636356236h-10Z" style="fill: orange;"></path><path d="M572.8061224489795,374.9140909090909h10v0.01875000000001137h-10Z" style="fill: red;"></path><path d="M580.4591836734693,374.9243181818182h10v0.07568181818180619h-10Z" style="fill: green;"></path><path d="M580.4591836734693,374.50943181818184h10v0.40295454545452003h-10Z" style="fill: orange;"></path><path d="M580.4591836734693,374.91238636363636h10v0.011931818181835752h-10Z" style="fill: red;"></path><path d="M565.1530612244898,374.85715909090914h10v0.14284090909086444h-10Z" style="fill: green;"></path><path d="M565.1530612244898,374.4852272727273h10v0.3671590909090696h-10Z" style="fill: orange;"></path><path d="M565.1530612244898,374.85238636363636h10v0.004772727272779775h-10Z" style="fill: red;"></path><path d="M588.112244897959,374.9294318181818h10v0.0705681818182029h-10Z" style="fill: green;"></path><path d="M588.112244897959,374.5963636363636h10v0.32011363636365786h-10Z" style="fill: orange;"></path><path d="M588.112244897959,374.91647727272726h10v0.012954545454533672h-10Z" style="fill: red;"></path><path d="M649.3367346938775,374.9815909090909h10v0.018409090909074166h-10Z" style="fill: green;"></path><path d="M649.3367346938775,374.67068181818183h10v0.2952272727272316h-10Z" style="fill: orange;"></path><path d="M649.3367346938775,374.96590909090907h10v0.015681818181860763h-10Z" style="fill: red;"></path><path d="M641.6836734693877,374.94954545454544h10v0.05045454545455641h-10Z" style="fill: green;"></path><path d="M641.6836734693877,374.6686363636364h10v0.27613636363633987h-10Z" style="fill: orange;"></path><path d="M641.6836734693877,374.9447727272727h10v0.004772727272722932h-10Z" style="fill: red;"></path><path d="M618.7244897959183,374.90897727272727h10v0.09102272727272975h-10Z" style="fill: green;"></path><path d="M618.7244897959183,374.6307954545455h10v0.2740909090908872h-10Z" style="fill: orange;"></path><path d="M618.7244897959183,374.90488636363636h10v0.00409090909090537h-10Z" style="fill: red;"></path><path d="M603.4183673469387,374.88272727272727h10v0.1172727272727343h-10Z" style="fill: green;"></path><path d="M603.4183673469387,374.6175h10v0.25159090909090764h-10Z" style="fill: orange;"></path><path d="M603.4183673469387,374.8690909090909h10v0.013636363636351234h-10Z" style="fill: red;"></path><path d="M595.7653061224489,374.8626136363636h10v0.1373863636363808h-10Z" style="fill: green;"></path><path d="M595.7653061224489,374.61068181818183h10v0.24272727272727934h-10Z" style="fill: orange;"></path><path d="M595.7653061224489,374.8534090909091h10v0.009204545454508661h-10Z" style="fill: red;"></path><path d="M656.9897959183672,374.95125h10v0.048749999999984084h-10Z" style="fill: green;"></path><path d="M656.9897959183672,374.7030681818182h10v0.23999999999995225h-10Z" style="fill: orange;"></path><path d="M656.9897959183672,374.94306818181815h10v0.008181818181867584h-10Z" style="fill: red;"></path><path d="M626.3775510204081,374.88920454545456h10v0.11079545454543904h-10Z" style="fill: green;"></path><path d="M626.3775510204081,374.6468181818182h10v0.23318181818177663h-10Z" style="fill: orange;"></path><path d="M626.3775510204081,374.88h10v0.009204545454565505h-10Z" style="fill: red;"></path><path d="M611.0714285714284,374.8493181818182h10v0.15068181818179482h-10Z" style="fill: green;"></path><path d="M611.0714285714284,374.6209090909091h10v0.2144318181818221h-10Z" style="fill: orange;"></path><path d="M611.0714285714284,374.8353409090909h10v0.013977272727288437h-10Z" style="fill: red;"></path><path d="M664.6428571428571,374.9778409090909h10v0.022159090909099177h-10Z" style="fill: green;"></path><path d="M664.6428571428571,374.7439772727273h10v0.2137499999999477h-10Z" style="fill: orange;"></path><path d="M664.6428571428571,374.95772727272725h10v0.020113636363646492h-10Z" style="fill: red;"></path><path d="M634.0306122448978,374.87386363636364h10v0.1261363636363626h-10Z" style="fill: green;"></path><path d="M634.0306122448978,374.6659090909091h10v0.20318181818180392h-10Z" style="fill: orange;"></path><path d="M634.0306122448978,374.8690909090909h10v0.004772727272722932h-10Z" style="fill: red;"></path><path d="M672.2959183673469,374.9781818181818h10v0.021818181818218818h-10Z" style="fill: green;"></path><path d="M672.2959183673469,374.7896590909091h10v0.1748863636363467h-10Z" style="fill: orange;"></path><path d="M672.2959183673469,374.96454545454543h10v0.013636363636351234h-10Z" style="fill: red;"></path><path d="M679.9489795918366,374.96829545454545h10v0.03170454545454504h-10Z" style="fill: green;"></path><path d="M679.9489795918366,374.7903409090909h10v0.17386363636364877h-10Z" style="fill: orange;"></path><path d="M679.9489795918366,374.96420454545455h10v0.00409090909090537h-10Z" style="fill: red;"></path><path d="M687.6020408163264,374.98465909090913h10v0.015340909090866717h-10Z" style="fill: green;"></path><path d="M687.6020408163264,374.8189772727273h10v0.1612499999999386h-10Z" style="fill: orange;"></path><path d="M687.6020408163264,374.98022727272723h10v0.004431818181899416h-10Z" style="fill: red;"></path><path d="M695.2551020408163,374.98329545454544h10v0.016704545454558684h-10Z" style="fill: green;"></path><path d="M695.2551020408163,374.83193181818183h10v0.14181818181816652h-10Z" style="fill: orange;"></path><path d="M695.2551020408163,374.97375h10v0.009545454545445864h-10Z" style="fill: red;"></path><path d="M718.2142857142857,374.99727272727273h10v0.002727272727270247h-10Z" style="fill: green;"></path><path d="M718.2142857142857,374.85818181818183h10v0.13295454545453822h-10Z" style="fill: orange;"></path><path d="M718.2142857142857,374.9911363636364h10v0.006136363636358055h-10Z" style="fill: red;"></path><path d="M702.908163265306,374.9689772727273h10v0.03102272727272748h-10Z" style="fill: green;"></path><path d="M702.908163265306,374.83568181818185h10v0.12613636363630576h-10Z" style="fill: orange;"></path><path d="M702.908163265306,374.96181818181816h10v0.00715909090911282h-10Z" style="fill: red;"></path><path d="M710.5612244897958,374.9665909090909h10v0.03340909090911737h-10Z" style="fill: green;"></path><path d="M710.5612244897958,374.84488636363636h10v0.1169318181817971h-10Z" style="fill: orange;"></path><path d="M710.5612244897958,374.96181818181816h10v0.004772727272722932h-10Z" style="fill: red;"></path><path d="M725.8673469387754,374.99352272727276h10v0.0064772727272384145h-10Z" style="fill: green;"></path><path d="M725.8673469387754,374.9151136363636h10v0.07261363636365559h-10Z" style="fill: orange;"></path><path d="M725.8673469387754,374.9877272727273h10v0.005795454545477696h-10Z" style="fill: red;"></path><path d="M733.5204081632652,374.9914772727273h10v0.0085227272726911h-10Z" style="fill: green;"></path><path d="M733.5204081632652,374.9468181818182h10v0.040909090909110546h-10Z" style="fill: orange;"></path><path d="M733.5204081632652,374.9877272727273h10v0.003750000000025011h-10Z" style="fill: red;"></path><path d="M741.1734693877551,374.99488636363634h10v0.0051136363636601345h-10Z" style="fill: green;"></path><path d="M741.1734693877551,374.96454545454543h10v0.02659090909094175h-10Z" style="fill: orange;"></path><path d="M741.1734693877551,374.9911363636364h10v0.0037499999999681677h-10Z" style="fill: red;"></path></g><g class="mark-group role-legend"><g transform="translate(768,0)"><path class="background" d="M0,0h86v53h-86Z" style="pointer-events: none; fill: none;"></path><g><g class="mark-group role-legend-entry"><g transform="translate(0,16)"><path class="background" d="M0,0h0v0h0Z" style="pointer-events: none; fill: none;"></path><g><g class="mark-group role-scope"><g transform="translate(0,0)"><path class="background" d="M0,0h85.482421875v11h-85.482421875Z" style="pointer-events: none; fill: none; opacity: 1;"></path><g><g class="mark-symbol role-legend-symbol" style="pointer-events: none;"><path transform="translate(6,6)" d="M-5,-5h10v10h-10Z" style="fill: green; stroke-width: 1.5; opacity: 1;"></path></g><g class="mark-text role-legend-label" style="pointer-events: none;"><text text-anchor="start" transform="translate(16,9)" style="font-family: sans-serif; font-size: 10px; fill: #000; opacity: 1;">TotalRecovered</text></g></g><path class="foreground" d="" style="pointer-events: none; display: none; fill: none;"></path></g><g transform="translate(0,13)"><path class="background" d="M0,0h85.482421875v11h-85.482421875Z" style="pointer-events: none; fill: none; opacity: 1;"></path><g><g class="mark-symbol role-legend-symbol" style="pointer-events: none;"><path transform="translate(6,6)" d="M-5,-5h10v10h-10Z" style="fill: orange; stroke-width: 1.5; opacity: 1;"></path></g><g class="mark-text role-legend-label" style="pointer-events: none;"><text text-anchor="start" transform="translate(16,9)" style="font-family: sans-serif; font-size: 10px; fill: #000; opacity: 1;">TotalConfirmed</text></g></g><path class="foreground" d="" style="pointer-events: none; display: none; fill: none;"></path></g><g transform="translate(0,26)"><path class="background" d="M0,0h85.482421875v11h-85.482421875Z" style="pointer-events: none; fill: none; opacity: 1;"></path><g><g class="mark-symbol role-legend-symbol" style="pointer-events: none;"><path transform="translate(6,6)" d="M-5,-5h10v10h-10Z" style="fill: red; stroke-width: 1.5; opacity: 1;"></path></g><g class="mark-text role-legend-label" style="pointer-events: none;"><text text-anchor="start" transform="translate(16,9)" style="font-family: sans-serif; font-size: 10px; fill: #000; opacity: 1;">TotalDeaths</text></g></g><path class="foreground" d="" style="pointer-events: none; display: none; fill: none;"></path></g></g></g><path class="foreground" d="" style="pointer-events: none; display: none; fill: none;"></path></g></g><g class="mark-text role-legend-title" style="pointer-events: none;"><text text-anchor="start" transform="translate(0,9)" style="font-family: sans-serif; font-size: 11px; font-weight: bold; fill: #000; opacity: 1;">Category</text></g></g><path class="foreground" d="" style="pointer-events: none; display: none; fill: none;"></path></g></g><g class="mark-group role-title"><g transform="translate(375,-22)"><path class="background" d="M0,0h0v0h0Z" style="pointer-events: none; fill: none;"></path><g><g class="mark-text role-title-text" style="pointer-events: none;"><text text-anchor="middle" transform="translate(0,10)" style="font-family: sans-serif; font-size: 13px; font-weight: bold; fill: #000; opacity: 1;">Covid-19 cases and deaths</text></g></g><path class="foreground" d="" style="pointer-events: none; display: none; fill: none;"></path></g></g></g><path class="foreground" d="" style="display: none; fill: none;"></path></g></g></g></svg>