<svg class="marks" width="919" height="439" viewBox="0 0 919 439" version="1.1" xmlns="http://www.w3.org/2000/svg" xmlns:xlink="http://www.w3.org/1999/xlink"><rect width="919" height="439" style="fill: white;"></rect><g transform="translate(58,27)"><g class="mark-group role-frame root"><g transform="translate(0,0)"><path class="background" d="M0.5,0.5h750v375h-750Z" style="fill: none; stroke: #ddd;"></path><g><g class="mark-group role-axis"><g transform="translate(0.5,375.5)"><path class="background" d="M0,0h0v0h0Z" style="pointer-events: none; fill: none;"></path><g><g class="mark-rule role-axis-grid" style="pointer-events: none;"><line transform="translate(0,-375)" x2="0" y2="375" style="fill: none; stroke: #ddd; stroke-width: 1; opacity: 1;"></line><line transform="translate(75,-375)" x2="0" y2="375" style="fill: none; stroke: #ddd; stroke-width: 1; opacity: 1;"></line><line transform="translate(119,-375)" x2="0" y2="375" style="fill: none; stroke: #ddd; stroke-width: 1; opacity: 1;"></line><line transform="translate(151,-375)" x2="0" y2="375" style="fill: none; stroke: #ddd; stroke-width: 1; opacity: 1;"></line><line transform="translate(175,-375)" x2="0" y2="375" style="fill: none; stroke: #ddd; stroke-width: 1; opacity: 1;"></line><line transform="translate(195,-375)" x2="0" y2="375" style="fill: none; stroke: #ddd; stroke-width: 1; opacity: 1;"></line><line transform="translate(211,-375)" x2="0" y2="375" style="fill: none; stroke: #ddd; stroke-width: 1; opacity: 1;"></line><line transform="translate(226,-375)" x2="0" y2="375" style="fill: none; stroke: #ddd; stroke-width: 1; opacity: 1;"></line><line transform="translate(239,-375)" x2="0" y2="375" style="fill: none; stroke: #ddd; stroke-width: 1; opacity: 1;"></line><line transform="translate(250,-375)" x2="0" y2="375" style="fill: none; stroke: #ddd; stroke-width: 1; opacity: 1;"></line><line transform="translate(325,-375)" x2="0" y2="375" style="fill: none; stroke: #ddd; stroke-width: 1; opacity: 1;"></line><line transform="translate(369,-375)" x2="0" y2="375" style="fill: none; stroke: #ddd; stroke-width: 1; opacity: 1;"></line><line transform="translate(401,-375)" x2="0" y2="375" style="fill: none; stroke: #ddd; stroke-width: 1; opacity: 1;"></line><line transform="translate(425,-375)" x2="0" y2="375" style="fill: none; stroke: #ddd; stroke-width: 1; opacity: 1;"></line><line transform="translate(445,-375)" x2="0" y2="375" style="fill: none; stroke: #ddd; stroke-width: 1; opacity: 1;"></line><line transform="translate(461,-375)" x2="0" y2="375" style="fill: none; stroke: #ddd; stroke-width: 1; opacity: 1;"></line><line transform="translate(476,-375)" x2="0" y2="375" style="fill: none; stroke: #ddd; stroke-width: 1; opacity: 1;"></line><line transform="translate(489,-375)" x2="0" y2="375" style="fill: none; stroke: #ddd; stroke-width: 1; opacity: 1;"></line><line transform="translate(500,-375)" x2="0" y2="375" style="fill: none; stroke: #ddd; stroke-width: 1; opacity: 1;"></line><line transform="translate(575,-375)" x2="0" y2="375" style="fill: none; stroke: #ddd; stroke-width: 1; opacity: 1;"></line><line transform="translate(619,-375)" x2="0" y2="375" style="fill: none; stroke: #ddd; stroke-width: 1; opacity: 1;"></line><line transform="translate(651,-375)" x2="0" y2="375" style="fill: none; stroke: #ddd; stroke-width: 1; opacity: 1;"></line><line transform="translate(675,-375)" x2="0" y2="375" style="fill: none; stroke: #ddd; stroke-width: 1; opacity: 1;"></line><line transform="translate(695,-375)" x2="0" y2="375" style="fill: none; stroke: #ddd; stroke-width: 1; opacity: 1;"></line><line transform="translate(711,-375)" x2="0" y2="375" style="fill: none; stroke: #ddd; stroke-width: 1; opacity: 1;"></line><line transform="translate(726,-375)" x2="0" y2="375" style="fill: none; stroke: #ddd; stroke-width: 1; opacity: 1;"></line><line transform="translate(739,-375)" x2="0" y2="375" style="fill: none; stroke: #ddd; stroke-width: 1; opacity: 1;"></line><line transform="translate(750,-375)" x2="0" y2="375" style="fill: none; stroke: #ddd; stroke-width: 1; opacity: 1;"></line></g></g><path class="foreground" d="" style="pointer-events: none; display: none; fill: none;"></path></g></g><g class="mark-group role-axis"><g transform="translate(0.5,0.5)"><path class="background" d="M0,0h0v0h0Z" style="pointer-events: none; fill: none;"></path><g><g class="mark-rule role-axis-grid" style="pointer-events: none;"><line transform="translate(0,375)" x2="750" y2="0" style="fill: none; stroke: #ddd; stroke-width: 1; opacity: 1;"></line><line transform="translate(0,281)" x2="750" y2="0" style="fill: none; stroke: #ddd; stroke-width: 1; opacity: 1;"></line><line transform="translate(0,188)" x2="750" y2="0" style="fill: none; stroke: #ddd; stroke-width: 1; opacity: 1;"></line><line transform="translate(0,94)" x2="750" y2="0" style="fill: none; stroke: #ddd; stroke-width: 1; opacity: 1;"></line><line transform="translate(0,0)" x2="750" y2="0" style="fill: none; stroke: #ddd; stroke-width: 1; opacity: 1;"></line></g></g><path class="foreground" d="" style="pointer-events: none; display: none; fill: none;"></path></g></g><g class="mark-group role-axis"><g transform="translate(0.5,375.5)"><path class="background" d="M0,0h0v0h0Z" style="pointer-events: none; fill: none;"></path><g><g class="mark-rule role-axis-tick" style="pointer-events: none;"><line transform="translate(0,0)" x2="0" y2="5" style="fill: none; stroke: #888; stroke-width: 1; opacity: 1;"></line><line transform="translate(75,0)" x2="0" y2="5" style="fill: none; stroke: #888; stroke-width: 1; opacity: 1;"></line><line transform="translate(119,0)" x2="0" y2="5" style="fill: none; stroke: #888; stroke-width: 1; opacity: 1;"></line><line transform="translate(151,0)" x2="0" y2="5" style="fill: none; stroke: #888; stroke-width: 1; opacity: 1;"></line><line transform="translate(175,0)" x2="0" y2="5" style="fill: none; stroke: #888; stroke-width: 1; opacity: 1;"></line><line transform="translate(195,0)" x2="0" y2="5" style="fill: none; stroke: #888; stroke-width: 1; opacity: 1;"></line><line transform="translate(211,0)" x2="0" y2="5" style="fill: none; stroke: #888; stroke-width: 1; opacity: 1;"></line><line transform="translate(226,0)" x2="0" y2="5" style="fill: none; stroke: #888; stroke-width: 1; opacity: 1;"></line><line transform="translate(239,0)" x2="0" y2="5" style="fill: none; stroke: #888; stroke-width: 1; opacity: 1;"></line><line transform="translate(250,0)" x2="0" y2="5" style="fill: none; stroke: #888; stroke-width: 1; opacity: 1;"></line><line transform="translate(325,0)" x2="0" y2="5" style="fill: none; stroke: #888; stroke-width: 1; opacity: 1;"></line><line transform="translate(369,0)" x2="0" y2="5" style="fill: none; stroke: #888; stroke-width: 1; opacity: 1;"></line><line transform="translate(401,0)" x2="0" y2="5" style="fill: none; stroke: #888; stroke-width: 1; opacity: 1;"></line><line transform="translate(425,0)" x2="0" y2="5" style="fill: none; stroke: #888; stroke-width: 1; opacity: 1;"></line><line transform="translate(445,0)" x2="0" y2="5" style="fill: none; stroke: #888; stroke-width: 1; opacity: 1;"></line><line transform="translate(461,0)" x2="0" y2="5" style="fill: none; stroke: #888; stroke-width: 1; opacity: 1;"></line><line transform="translate(476,0)" x2="0" y2="5" style="fill: none; stroke: #888; stroke-width: 1; opacity: 1;"></line><line transform="translate(489,0)" x2="0" y2="5" style="fill: none; stroke: #888; stroke-width: 1; opacity: 1;"></line><line transform="translate(500,0)" x2="0" y2="5" style="fill: none; stroke: #888; stroke-width: 1; opacity: 1;"></line><line transform="translate(575,0)" x2="0" y2="5" style="fill: none; stroke: #888; stroke-width: 1; opacity: 1;"></line><line transform="translate(619,0)" x2="0" y2="5" style="fill: none; stroke: #888; stroke-width: 1; opacity: 1;"></line><line transform="translate(651,0)" x2="0" y2="5" style="fill: none; stroke: #888; stroke-width: 1; opacity: 1;"></line><line transform="translate(675,0)" x2="0" y2="5" style="fill: none; stroke: #888; stroke-width: 1; opacity: 1;"></line><line transform="translate(695,0)" x2="0" y2="5" style="fill: none; stroke: #888; stroke-width: 1; opacity: 1;"></line><line transform="translate(711,0)" x2="0" y2="5" style="fill: none; stroke: #888; stroke-width: 1; opacity: 1;"></line><line transform="translate(726,0)" x2="0" y2="5" style="fill: none; stroke: #888; stroke-width: 1; opacity: 1;"></line><line transform="translate(739,0)" x2="0" y2="5" style="fill: none; stroke: #888; stroke-width: 1; opacity: 1;"></line><line transform="translate(750,0)" x2="0" y2="5" style="fill: none; stroke: #888; stroke-width: 1; opacity: 1;"></line></g><g class="mark-text role-axis-label" style="pointer-events: none;"><text text-anchor="start" transform="translate(0,15)" style="font-family: sans-serif; font-size: 10px; fill: #000; opacity: 1;">100</text><text text-anchor="middle" transform="translate(75.25749891599521,15)" style="font-family: sans-serif; font-size: 10px; fill: #000; opacity: 1;">200</text><text text-anchor="middle" transform="translate(119.28031367991555,15)" style="font-family: sans-serif; font-size: 10px; fill: #000; opacity: 1;"></text><text text-anchor="middle" transform="translate(150.51499783199054,15)" style="font-family: sans-serif; font-size: 10px; fill: #000; opacity: 1;"></text><text text-anchor="middle" transform="translate(174.74250108400463,15)" style="font-family: sans-serif; font-size: 10px; fill: #000; opacity: 1;"></text><text text-anchor="middle" transform="translate(194.53781259591088,15)" style="font-family: sans-serif; font-size: 10px; fill: #000; opacity: 1;"></text><text text-anchor="middle" transform="translate(211.27451000356413,15)" style="font-family: sans-serif; font-size: 10px; fill: #000; opacity: 1;"></text><text text-anchor="middle" transform="translate(225.77249674798585,15)" style="font-family: sans-serif; font-size: 10px; fill: #000; opacity: 1;"></text><text text-anchor="middle" transform="translate(238.5606273598312,15)" style="font-family: sans-serif; font-size: 10px; fill: #000; opacity: 1;"></text><text text-anchor="middle" transform="translate(249.99999999999994,15)" style="font-family: sans-serif; font-size: 10px; fill: #000; opacity: 1;">1,000</text><text text-anchor="middle" transform="translate(325.25749891599526,15)" style="font-family: sans-serif; font-size: 10px; fill: #000; opacity: 1;">2,000</text><text text-anchor="middle" transform="translate(369.2803136799155,15)" style="font-family: sans-serif; font-size: 10px; fill: #000; opacity: 1;"></text><text text-anchor="middle" transform="translate(400.5149978319906,15)" style="font-family: sans-serif; font-size: 10px; fill: #000; opacity: 1;"></text><text text-anchor="middle" transform="translate(424.74250108400474,15)" style="font-family: sans-serif; font-size: 10px; fill: #000; opacity: 1;"></text><text text-anchor="middle" transform="translate(444.53781259591085,15)" style="font-family: sans-serif; font-size: 10px; fill: #000; opacity: 1;"></text><text text-anchor="middle" transform="translate(461.27451000356416,15)" style="font-family: sans-serif; font-size: 10px; fill: #000; opacity: 1;"></text><text text-anchor="middle" transform="translate(475.7724967479859,15)" style="font-family: sans-serif; font-size: 10px; fill: #000; opacity: 1;"></text><text text-anchor="middle" transform="translate(488.56062735983124,15)" style="font-family: sans-serif; font-size: 10px; fill: #000; opacity: 1;"></text><text text-anchor="middle" transform="translate(500.00000000000006,15)" style="font-family: sans-serif; font-size: 10px; fill: #000; opacity: 1;">10,000</text><text text-anchor="middle" transform="translate(575.2574989159951,15)" style="font-family: sans-serif; font-size: 10px; fill: #000; opacity: 1;">20,000</text><text text-anchor="middle" transform="translate(619.2803136799157,15)" style="font-family: sans-serif; font-size: 10px; fill: #000; opacity: 1;"></text><text text-anchor="middle" transform="translate(650.5149978319905,15)" style="font-family: sans-serif; font-size: 10px; fill: #000; opacity: 1;"></text><text text-anchor="middle" transform="translate(674.7425010840047,15)" style="font-family: sans-serif; font-size: 10px; fill: #000; opacity: 1;"></text><text text-anchor="middle" transform="translate(694.537812595911,15)" style="font-family: sans-serif; font-size: 10px; fill: #000; opacity: 1;"></text><text text-anchor="middle" transform="translate(711.274510003564,15)" style="font-family: sans-serif; font-size: 10px; fill: #000; opacity: 1;"></text><text text-anchor="middle" transform="translate(725.7724967479859,15)" style="font-family: sans-serif; font-size: 10px; fill: #000; opacity: 1;"></text><text text-anchor="middle" transform="translate(738.5606273598312,15)" style="font-family: sans-serif; font-size: 10px; fill: #000; opacity: 1;"></text><text text-anchor="end" transform="translate(750,15)" style="font-family: sans-serif; font-size: 10px; fill: #000; opacity: 1;">100,000</text></g><g class="mark-rule role-axis-domain" style="pointer-events: none;"><line transform="translate(0,0)" x2="750" y2="0" style="fill: none; stroke: #888; stroke-width: 1; opacity: 1;"></line></g><g class="mark-text role-axis-title" style="pointer-events: none;"><text text-anchor="middle" transform="translate(375,30)" style="font-family: sans-serif; font-size: 11px; font-weight: bold; fill: #000; opacity: 1;">Deaths</text></g></g><path class="foreground" d="" style="pointer-events: none; display: none; fill: none;"></path></g></g><g class="mark-group role-axis"><g transform="translate(0.5,0.5)"><path class="background" d="M0,0h0v0h0Z" style="pointer-events: none; fill: none;"></path><g><g class="mark-rule role-axis-tick" style="pointer-events: none;"><line transform="translate(0,375)" x2="-5" y2="0" style="fill: none; stroke: #888; stroke-width: 1; opacity: 1;"></line><line transform="translate(0,281)" x2="-5" y2="0" style="fill: none; stroke: #888; stroke-width: 1; opacity: 1;"></line><line transform="translate(0,188)" x2="-5" y2="0" style="fill: none; stroke: #888; stroke-width: 1; opacity: 1;"></line><line transform="translate(0,94)" x2="-5" y2="0" style="fill: none; stroke: #888; stroke-width: 1; opacity: 1;"></line><line transform="translate(0,0)" x2="-5" y2="0" style="fill: none; stroke: #888; stroke-width: 1; opacity: 1;"></line></g><g class="mark-text role-axis-label" style="pointer-events: none;"><text text-anchor="end" transform="translate(-7,378)" style="font-family: sans-serif; font-size: 10px; fill: #000; opacity: 1;">1</text><text text-anchor="end" transform="translate(-7,284.25)" style="font-family: sans-serif; font-size: 10px; fill: #000; opacity: 1;">10</text><text text-anchor="end" transform="translate(-7,190.5)" style="font-family: sans-serif; font-size: 10px; fill: #000; opacity: 1;">100</text><text text-anchor="end" transform="translate(-7,96.75000000000004)" style="font-family: sans-serif; font-size: 10px; fill: #000; opacity: 1;">1,000</text><text text-anchor="end" transform="translate(-7,3)" style="font-family: sans-serif; font-size: 10px; fill: #000; opacity: 1;">10,000</text></g><g class="mark-rule role-axis-domain" style="pointer-events: none;"><line transform="translate(0,375)" x2="0" y2="-375" style="fill: none; stroke: #888; stroke-width: 1; opacity: 1;"></line></g><g class="mark-text role-axis-title" style="pointer-events: none;"><text text-anchor="middle" transform="translate(-41.5859375,187.5) rotate(-90) translate(0,-2)" style="font-family: sans-serif; font-size: 11px; font-weight: bold; fill: #000; opacity: 1;">New</text></g></g><path class="foreground" d="" style="pointer-events: none; display: none; fill: none;"></path></g></g><g class="mark-group role-scope pathgroup"><g transform="translate(0,0)"><path class="background" d="M0,0h750v375h-750Z" style="fill: none;"></path><g><g class="mark-line role-mark marks"><path d="M29.31782391394098,216.54411749732688L58.24902759803846,226.89528781717405L82.09490085968442,222.82037902519684L103.32494102031288,219.11645327985244L139.3768004764144,186.69373389732027L157.09723251257788,205.67062743901062L172.77037303074206,204.41775604294983L187.62709871283656,200.8750784595686L200.3509275043387,202.02205874866343L214.03111106057503,194.11697571428505L226.4489700919671,193.17007006700453L239.16214480130074,187.5L251.29512812594507,184.74527084201162L261.52619681150964,187.5L284.10086203349744,149.86869930173026L295.53230351324953,170.4521636301776L305.2230623048798,173.22296771408847L311.74767481038737,186.29651018389012L317.6114770044906,188.32255540382857L325.420237323394,174.0923624761786L331.37891584078704,182.52389592342942L337.46502054808275,179.40376587424237L346.9808667433592,158.27307552602304L353.53434054611915,170.99144446352992L356.4243033406477,202.02205874866343L358.52240960447267,214.12468653423758L359.675133225184,237.90018769697286L361.4010508183993,220.92631157941997L363.214833948963,218.24082581852653L364.54610889256566,230.24362084216165L366.1223868584928,222.82037902519684L367.34503396248124,232.63931813644808L368.6633133405156,229.09664055306686L369.82182911904255,233.89218953250884L370.8611620246338,237.90018769697286L371.8553028398686,239.32893456166698L372.84042345856807,239.32893456166698L373.64299605754957,247.33801537335066L374.1978289250105,262.11375162600706L374.95612395989497,249.14787367291817L375.3332946613916,277.3694357664164L375.60677999610806,290.33531371950534L376.0497296348611,270.567810721234L376.38923466595537,281.25L376.86276522549247,267.5504966551652L377.3006305827757,270.567810721234L377.6697577580525,277.3694357664164L377.9374278362457,290.33531371950534L378.271090116286,302.04832027653345L378.7696687689805,264.7414444635299L379.0015575965118,295.7720587486634L379.33197057359325,302.04832027653345L380.1536304695589,295.7720587486634L380.3499070288438,302.04832027653345" style="fill: none; stroke: #4c78a8; stroke-width: 2;"></path></g></g><path class="foreground" d="" style="display: none; fill: none;"></path></g><g transform="translate(0,0)"><path class="background" d="M0,0h750v375h-750Z" style="fill: none;"></path><g><g class="mark-line role-mark marks"><path d="M7.34594442130232,239.32893456166698L42.56542884873926,223.8015134325248L73.61655654039818,216.54411749732688L91.83898025650466,229.09664055306686L140.87027134860259,175.8889086593357L166.39524775448825,188.74014991253955L200.0073398110335,166.3772548382004L229.3763773881366,160.10099331033038L275.608426420334,127.26895122730113L289.66599520349723,164.7151829356599L314.3596417149534,134.45176699935772L333.5128600867229,136.6101162225769L349.6152124020558,137.07945983688057L368.48117335403936,124.05997409766879L383.02927906220094,128.39738671640404L401.3801308593671,112.75616804712034L420.87432941995286,103.1931386889747L434.61585986548795,111.22678232173203L445.922309086829,114.4805182497432L458.44609366411976,105.84479870994609L468.80873661254117,109.27305902985634L478.6518919427702,107.58000059654474L490.16525181774546,97.1891708075521L500.2494325894484,98.54045990904251L508.14461798107806,105.1385816717619L516.0302264574054,102.22912225863983L523.6003111457342,100.99448831313191L529.7727131054304,106.73114898196522L535.8708026675154,104.92372572367582L541.6889096663093,104.6035528469434L546.6119401937293,109.39245825817643L550.2604738856699,119.98506530569158" style="fill: none; stroke: #9ecae9; stroke-width: 2;"></path></g></g><path class="foreground" d="" style="display: none; fill: none;"></path></g><g transform="translate(0,0)"><path class="background" d="M0,0h750v375h-750Z" style="fill: none;"></path><g><g class="mark-line role-mark marks"><path d="M30.962910241771397,197.6161309977675L72.50865284062945,206.96327910953875L115.22446068913693,190.01926372502828L133.50652651403368,213.349137224926L181.68180225664298,161.15312182052557L198.62201166479235,191.7897647400633L229.76952309401838,157.877780113414L254.5710771066327,156.71441217761836L284.57567454157027,138.64330465274665L312.115929387758,131.36338999095796L340.9499863697773,118.91355326374324L362.09927586444184,122.21658855625013L390.4839408284452,100.89731617230937L409.99606201039705,107.23833335228436L427.69852498258183,104.23317244515704L444.2116021738247,100.65539562884483L458.1751177401418,101.78032902005248L471.8480547429616,97.4558646061595L481.89391367277767,105.57172520020677L493.1317044664639,97.0123405288208L503.7141050111264,95.36968240607388L512.2851157897412,100.36697571428509L519.314715923237,105.51732959067505L525.4453578319917,108.62254964485736" style="fill: none; stroke: #f58518; stroke-width: 2;"></path></g></g><path class="foreground" d="" style="display: none; fill: none;"></path></g><g transform="translate(0,0)"><path class="background" d="M0,0h750v375h-750Z" style="fill: none;"></path><g><g class="mark-line role-mark marks"><path d="M8.355938871737404,247.33801537335066L17.970501826531336,281.25L75.25749891599521,195.57995133902656L96.84745658468235,220.92631157941997L121.78459386929653,206.31182348872676L155.03401374343935,183.61943576641642L186.4637987934322,173.8004966551652L212.2011752629509,171.2637873363493L243.51272569821933,152.5394997215525L270.6065752151929,147.5145692470711L299.73296748305216,134.01159938607213L326.6598602560654,126.7162489705377L348.042287372434,127.08388223739017L368.48117335403936,121.08554061237072L397.01187424652073,98.26659043913328L419.33328785497537,98.77010015502444L443.19041178600804,87.39238957857752L462.615608190379,87.67197939950873L481.16026185429064,82.4461939494516L495.7824811836749,85.92162939091249" style="fill: none; stroke: #ffbf79; stroke-width: 2;"></path></g></g><path class="foreground" d="" style="display: none; fill: none;"></path></g><g transform="translate(0,0)"><path class="background" d="M0,0h750v375h-750Z" style="fill: none;"></path><g><g class="mark-line role-mark marks"><path d="M34.96977160030912,204.41775604294983L62.605000577223436,224.8068758130035L92.3039643525357,211.10737246816868L112.56227707984026,217.38363399603875L131.58481934746098,212.58808501659672L156.5850918437605,193.17007006700453L167.09647917249998,221.86233228941379L190.85699839073428,182.16517018720572L220.3461641926432,163.34263360601395L252.2564355217275,148.59624862773583L272.5645132328291,157.2919411186951L287.3817534385868,163.56820264656506L313.3950723905457,132.93155972702732L343.08989563108094,117.06758400156167L366.568580447323,116.7082250254621L389.4068721067066,109.15400892258512L408.870936703728,107.75191545158755L423.4976526151941,113.01674562570288" style="fill: none; stroke: #54a24b; stroke-width: 2;"></path></g></g><path class="foreground" d="" style="display: none; fill: none;"></path></g></g><g class="mark-group role-legend"><g transform="translate(768,0)"><path class="background" d="M0,0h88v79h-88Z" style="pointer-events: none; fill: none;"></path><g><g class="mark-group role-legend-entry"><g transform="translate(0,16)"><path class="background" d="M0,0h0v0h0Z" style="pointer-events: none; fill: none;"></path><g><g class="mark-group role-scope"><g transform="translate(0,0)"><path class="background" d="M0,0h87.15234375v11h-87.15234375Z" style="pointer-events: none; fill: none; opacity: 1;"></path><g><g class="mark-symbol role-legend-symbol" style="pointer-events: none;"><path transform="translate(6,6)" d="M-5,0L5,0" style="fill: none; stroke: #4c78a8; stroke-width: 1.5; opacity: 1;"></path></g><g class="mark-text role-legend-label" style="pointer-events: none;"><text text-anchor="start" transform="translate(16,9)" style="font-family: sans-serif; font-size: 10px; fill: #000; opacity: 1;">China</text></g></g><path class="foreground" d="" style="pointer-events: none; display: none; fill: none;"></path></g><g transform="translate(0,13)"><path class="background" d="M0,0h87.15234375v11h-87.15234375Z" style="pointer-events: none; fill: none; opacity: 1;"></path><g><g class="mark-symbol role-legend-symbol" style="pointer-events: none;"><path transform="translate(6,6)" d="M-5,0L5,0" style="fill: none; stroke: #9ecae9; stroke-width: 1.5; opacity: 1;"></path></g><g class="mark-text role-legend-label" style="pointer-events: none;"><text text-anchor="start" transform="translate(16,9)" style="font-family: sans-serif; font-size: 10px; fill: #000; opacity: 1;">Italy</text></g></g><path class="foreground" d="" style="pointer-events: none; display: none; fill: none;"></path></g><g transform="translate(0,26)"><path class="background" d="M0,0h87.15234375v11h-87.15234375Z" style="pointer-events: none; fill: none; opacity: 1;"></path><g><g class="mark-symbol role-legend-symbol" style="pointer-events: none;"><path transform="translate(6,6)" d="M-5,0L5,0" style="fill: none; stroke: #f58518; stroke-width: 1.5; opacity: 1;"></path></g><g class="mark-text role-legend-label" style="pointer-events: none;"><text text-anchor="start" transform="translate(16,9)" style="font-family: sans-serif; font-size: 10px; fill: #000; opacity: 1;">Spain</text></g></g><path class="foreground" d="" style="pointer-events: none; display: none; fill: none;"></path></g><g transform="translate(0,39)"><path class="background" d="M0,0h87.15234375v11h-87.15234375Z" style="pointer-events: none; fill: none; opacity: 1;"></path><g><g class="mark-symbol role-legend-symbol" style="pointer-events: none;"><path transform="translate(6,6)" d="M-5,0L5,0" style="fill: none; stroke: #ffbf79; stroke-width: 1.5; opacity: 1;"></path></g><g class="mark-text role-legend-label" style="pointer-events: none;"><text text-anchor="start" transform="translate(16,9)" style="font-family: sans-serif; font-size: 10px; fill: #000; opacity: 1;">US</text></g></g><path class="foreground" d="" style="pointer-events: none; display: none; fill: none;"></path></g><g transform="translate(0,52)"><path class="background" d="M0,0h87.15234375v11h-87.15234375Z" style="pointer-events: none; fill: none; opacity: 1;"></path><g><g class="mark-symbol role-legend-symbol" style="pointer-events: none;"><path transform="translate(6,6)" d="M-5,0L5,0" style="fill: none; stroke: #54a24b; stroke-width: 1.5; opacity: 1;"></path></g><g class="mark-text role-legend-label" style="pointer-events: none;"><text text-anchor="start" transform="translate(16,9)" style="font-family: sans-serif; font-size: 10px; fill: #000; opacity: 1;">United Kingdom</text></g></g><path class="foreground" d="" style="pointer-events: none; display: none; fill: none;"></path></g></g></g><path class="foreground" d="" style="pointer-events: none; display: none; fill: none;"></path></g></g><g class="mark-text role-legend-title" style="pointer-events: none;"><text text-anchor="start" transform="translate(0,9)" style="font-family: sans-serif; font-size: 11px; font-weight: bold; fill: #000; opacity: 1;">country</text></g></g><path class="foreground" d="" style="pointer-events: none; display: none; fill: none;"></path></g></g><g class="mark-group role-title"><g transform="translate(375,-22)"><path class="background" d="M0,0h0v0h0Z" style="pointer-events: none; fill: none;"></path><g><g class="mark-text role-title-text" style="pointer-events: none;"><text text-anchor="middle" transform="translate(0,10)" style="font-family: sans-serif; font-size: 13px; font-weight: bold; fill: #000; opacity: 1;">Log graph of New by Deaths in ['China', 'Italy', 'Spain', 'US', 'United Kingdom'] as of 04-05-2020</text></g></g><path class="foreground" d="" style="pointer-events: none; display: none; fill: none;"></path></g></g></g><path class="foreground" d="" style="display: none; fill: none;"></path></g></g></g></svg>