<svg class="marks" width="894" height="439" viewBox="0 0 894 439" version="1.1" xmlns="http://www.w3.org/2000/svg" xmlns:xlink="http://www.w3.org/1999/xlink"><rect width="894" height="439" style="fill: white;"></rect><g transform="translate(33,27)"><g class="mark-group role-frame root"><g transform="translate(0,0)"><path class="background" d="M0,0h750v375h-750Z" style="fill: none; stroke: #ddd; stroke-width: 0;"></path><g><g class="mark-group role-axis"><g transform="translate(0.5,375.5)"><path class="background" d="M0,0h0v0h0Z" style="pointer-events: none; fill: none;"></path><g><g class="mark-rule role-axis-tick" style="pointer-events: none;"><line transform="translate(0,0)" x2="0" y2="5" style="fill: none; stroke: #888; stroke-width: 1; opacity: 1;"></line><line transform="translate(34,0)" x2="0" y2="5" style="fill: none; stroke: #888; stroke-width: 1; opacity: 1;"></line><line transform="translate(68,0)" x2="0" y2="5" style="fill: none; stroke: #888; stroke-width: 1; opacity: 1;"></line><line transform="translate(102,0)" x2="0" y2="5" style="fill: none; stroke: #888; stroke-width: 1; opacity: 1;"></line><line transform="translate(136,0)" x2="0" y2="5" style="fill: none; stroke: #888; stroke-width: 1; opacity: 1;"></line><line transform="translate(170,0)" x2="0" y2="5" style="fill: none; stroke: #888; stroke-width: 1; opacity: 1;"></line><line transform="translate(205,0)" x2="0" y2="5" style="fill: none; stroke: #888; stroke-width: 1; opacity: 1;"></line><line transform="translate(239,0)" x2="0" y2="5" style="fill: none; stroke: #888; stroke-width: 1; opacity: 1;"></line><line transform="translate(273,0)" x2="0" y2="5" style="fill: none; stroke: #888; stroke-width: 1; opacity: 1;"></line><line transform="translate(307,0)" x2="0" y2="5" style="fill: none; stroke: #888; stroke-width: 1; opacity: 1;"></line><line transform="translate(341,0)" x2="0" y2="5" style="fill: none; stroke: #888; stroke-width: 1; opacity: 1;"></line><line transform="translate(375,0)" x2="0" y2="5" style="fill: none; stroke: #888; stroke-width: 1; opacity: 1;"></line><line transform="translate(409,0)" x2="0" y2="5" style="fill: none; stroke: #888; stroke-width: 1; opacity: 1;"></line><line transform="translate(443,0)" x2="0" y2="5" style="fill: none; stroke: #888; stroke-width: 1; opacity: 1;"></line><line transform="translate(477,0)" x2="0" y2="5" style="fill: none; stroke: #888; stroke-width: 1; opacity: 1;"></line><line transform="translate(511,0)" x2="0" y2="5" style="fill: none; stroke: #888; stroke-width: 1; opacity: 1;"></line><line transform="translate(545,0)" x2="0" y2="5" style="fill: none; stroke: #888; stroke-width: 1; opacity: 1;"></line><line transform="translate(580,0)" x2="0" y2="5" style="fill: none; stroke: #888; stroke-width: 1; opacity: 1;"></line><line transform="translate(614,0)" x2="0" y2="5" style="fill: none; stroke: #888; stroke-width: 1; opacity: 1;"></line><line transform="translate(648,0)" x2="0" y2="5" style="fill: none; stroke: #888; stroke-width: 1; opacity: 1;"></line><line transform="translate(682,0)" x2="0" y2="5" style="fill: none; stroke: #888; stroke-width: 1; opacity: 1;"></line><line transform="translate(716,0)" x2="0" y2="5" style="fill: none; stroke: #888; stroke-width: 1; opacity: 1;"></line><line transform="translate(750,0)" x2="0" y2="5" style="fill: none; stroke: #888; stroke-width: 1; opacity: 1;"></line></g><g class="mark-text role-axis-label" style="pointer-events: none;"><text text-anchor="start" transform="translate(0,15)" style="font-family: sans-serif; font-size: 10px; fill: #000; opacity: 1;">0.0</text><text text-anchor="middle" transform="translate(34.09090909090909,15)" style="font-family: sans-serif; font-size: 10px; fill: #000; opacity: 1;">0.5</text><text text-anchor="middle" transform="translate(68.18181818181819,15)" style="font-family: sans-serif; font-size: 10px; fill: #000; opacity: 1;">1.0</text><text text-anchor="middle" transform="translate(102.27272727272727,15)" style="font-family: sans-serif; font-size: 10px; fill: #000; opacity: 1;">1.5</text><text text-anchor="middle" transform="translate(136.36363636363637,15)" style="font-family: sans-serif; font-size: 10px; fill: #000; opacity: 1;">2.0</text><text text-anchor="middle" transform="translate(170.45454545454544,15)" style="font-family: sans-serif; font-size: 10px; fill: #000; opacity: 1;">2.5</text><text text-anchor="middle" transform="translate(204.54545454545453,15)" style="font-family: sans-serif; font-size: 10px; fill: #000; opacity: 1;">3.0</text><text text-anchor="middle" transform="translate(238.63636363636363,15)" style="font-family: sans-serif; font-size: 10px; fill: #000; opacity: 1;">3.5</text><text text-anchor="middle" transform="translate(272.72727272727275,15)" style="font-family: sans-serif; font-size: 10px; fill: #000; opacity: 1;">4.0</text><text text-anchor="middle" transform="translate(306.8181818181818,15)" style="font-family: sans-serif; font-size: 10px; fill: #000; opacity: 1;">4.5</text><text text-anchor="middle" transform="translate(340.9090909090909,15)" style="font-family: sans-serif; font-size: 10px; fill: #000; opacity: 1;">5.0</text><text text-anchor="middle" transform="translate(375,15)" style="font-family: sans-serif; font-size: 10px; fill: #000; opacity: 1;">5.5</text><text text-anchor="middle" transform="translate(409.09090909090907,15)" style="font-family: sans-serif; font-size: 10px; fill: #000; opacity: 1;">6.0</text><text text-anchor="middle" transform="translate(443.1818181818182,15)" style="font-family: sans-serif; font-size: 10px; fill: #000; opacity: 1;">6.5</text><text text-anchor="middle" transform="translate(477.27272727272725,15)" style="font-family: sans-serif; font-size: 10px; fill: #000; opacity: 1;">7.0</text><text text-anchor="middle" transform="translate(511.3636363636363,15)" style="font-family: sans-serif; font-size: 10px; fill: #000; opacity: 1;">7.5</text><text text-anchor="middle" transform="translate(545.4545454545455,15)" style="font-family: sans-serif; font-size: 10px; fill: #000; opacity: 1;">8.0</text><text text-anchor="middle" transform="translate(579.5454545454545,15)" style="font-family: sans-serif; font-size: 10px; fill: #000; opacity: 1;">8.5</text><text text-anchor="middle" transform="translate(613.6363636363636,15)" style="font-family: sans-serif; font-size: 10px; fill: #000; opacity: 1;">9.0</text><text text-anchor="middle" transform="translate(647.7272727272727,15)" style="font-family: sans-serif; font-size: 10px; fill: #000; opacity: 1;">9.5</text><text text-anchor="middle" transform="translate(681.8181818181818,15)" style="font-family: sans-serif; font-size: 10px; fill: #000; opacity: 1;">10.0</text><text text-anchor="middle" transform="translate(715.909090909091,15)" style="font-family: sans-serif; font-size: 10px; fill: #000; opacity: 1;">10.5</text><text text-anchor="end" transform="translate(750,15)" style="font-family: sans-serif; font-size: 10px; fill: #000; opacity: 1;">11.0</text></g><g class="mark-rule role-axis-domain" style="pointer-events: none;"><line transform="translate(0,0)" x2="750" y2="0" style="fill: none; stroke: #888; stroke-width: 1; opacity: 1;"></line></g><g class="mark-text role-axis-title" style="pointer-events: none;"><text text-anchor="middle" transform="translate(375,30)" style="font-family: sans-serif; font-size: 11px; font-weight: bold; fill: #000; opacity: 1;">LogDeaths</text></g></g><path class="foreground" d="" style="pointer-events: none; display: none; fill: none;"></path></g></g><g class="mark-group role-axis"><g transform="translate(0.5,0.5)"><path class="background" d="M0,0h0v0h0Z" style="pointer-events: none; fill: none;"></path><g><g class="mark-rule role-axis-tick" style="pointer-events: none;"><line transform="translate(0,375)" x2="-5" y2="0" style="fill: none; stroke: #888; stroke-width: 1; opacity: 1;"></line><line transform="translate(0,333)" x2="-5" y2="0" style="fill: none; stroke: #888; stroke-width: 1; opacity: 1;"></line><line transform="translate(0,292)" x2="-5" y2="0" style="fill: none; stroke: #888; stroke-width: 1; opacity: 1;"></line><line transform="translate(0,250)" x2="-5" y2="0" style="fill: none; stroke: #888; stroke-width: 1; opacity: 1;"></line><line transform="translate(0,208)" x2="-5" y2="0" style="fill: none; stroke: #888; stroke-width: 1; opacity: 1;"></line><line transform="translate(0,167)" x2="-5" y2="0" style="fill: none; stroke: #888; stroke-width: 1; opacity: 1;"></line><line transform="translate(0,125)" x2="-5" y2="0" style="fill: none; stroke: #888; stroke-width: 1; opacity: 1;"></line><line transform="translate(0,83)" x2="-5" y2="0" style="fill: none; stroke: #888; stroke-width: 1; opacity: 1;"></line><line transform="translate(0,42)" x2="-5" y2="0" style="fill: none; stroke: #888; stroke-width: 1; opacity: 1;"></line><line transform="translate(0,0)" x2="-5" y2="0" style="fill: none; stroke: #888; stroke-width: 1; opacity: 1;"></line></g><g class="mark-text role-axis-label" style="pointer-events: none;"><text text-anchor="end" transform="translate(-7,378)" style="font-family: sans-serif; font-size: 10px; fill: #000; opacity: 1;">0</text><text text-anchor="end" transform="translate(-7,336.3333333333333)" style="font-family: sans-serif; font-size: 10px; fill: #000; opacity: 1;">1</text><text text-anchor="end" transform="translate(-7,294.6666666666667)" style="font-family: sans-serif; font-size: 10px; fill: #000; opacity: 1;">2</text><text text-anchor="end" transform="translate(-7,253.00000000000003)" style="font-family: sans-serif; font-size: 10px; fill: #000; opacity: 1;">3</text><text text-anchor="end" transform="translate(-7,211.33333333333334)" style="font-family: sans-serif; font-size: 10px; fill: #000; opacity: 1;">4</text><text text-anchor="end" transform="translate(-7,169.66666666666666)" style="font-family: sans-serif; font-size: 10px; fill: #000; opacity: 1;">5</text><text text-anchor="end" transform="translate(-7,128)" style="font-family: sans-serif; font-size: 10px; fill: #000; opacity: 1;">6</text><text text-anchor="end" transform="translate(-7,86.33333333333333)" style="font-family: sans-serif; font-size: 10px; fill: #000; opacity: 1;">7</text><text text-anchor="end" transform="translate(-7,44.666666666666686)" style="font-family: sans-serif; font-size: 10px; fill: #000; opacity: 1;">8</text><text text-anchor="end" transform="translate(-7,3)" style="font-family: sans-serif; font-size: 10px; fill: #000; opacity: 1;">9</text></g><g class="mark-rule role-axis-domain" style="pointer-events: none;"><line transform="translate(0,375)" x2="0" y2="-375" style="fill: none; stroke: #888; stroke-width: 1; opacity: 1;"></line></g><g class="mark-text role-axis-title" style="pointer-events: none;"><text text-anchor="middle" transform="translate(-16.5615234375,187.5) rotate(-90) translate(0,-2)" style="font-family: sans-serif; font-size: 11px; font-weight: bold; fill: #000; opacity: 1;">LogNew</text></g></g><path class="foreground" d="" style="pointer-events: none; display: none; fill: none;"></path></g></g><g class="mark-group role-scope pathgroup"><g transform="translate(0,0)"><path class="background" d="M0,0h750v375h-750Z" style="fill: none;"></path><g><g class="mark-line role-mark marks"><path d="M197.0708016747385,375L222.142945774192,288.35660243000683L254.8411103375024,259.4754699066758L274.45579709557836,265.0392779326976L300.45813049529,239.24597758243826L332.3998174909876,212.8408209120572L333.43289510602864,346.1188674766689L350.567969761545,223.4339100114006L365.5426476620063,219.26376590485964L378.87464057042297,215.47327514628773L401.5144062499691,182.29279944648871L412.64244333575573,201.71320486001372L422.4848268950809,200.43105241556563L431.8145201004334,196.80557837433102L439.80480150983016,197.97936491461002L448.3956524351062,189.88953097957014L456.1937916421748,188.92049505605905L464.177382524995,183.11790891716285L471.79662612595985,180.29879856408724L478.2215096461723,183.11790891716285L478.52739539108194,307.9400869819125L492.39789717875783,144.60712135369067L499.57658810858817,165.67164496473848L505.6621690358815,168.5072059332808L509.75948053390266,181.8862921570985L513.4418178576502,183.95968838872616L518.3455456135785,169.39691945288786L522.0874631576039,178.0255075536525L525.9094015139912,174.8324564694476M531.8851412221187,153.20791753589964L531.9409364937935,346.1188674766689L536.0005769727265,166.22352941265603L537.8154093136326,197.97936491461002L539.1329733699782,210.3648450591072L539.8568581587216,234.69600708389692L540.9406960101417,217.32543192007248L542.0797114642398,214.5771832620809L542.9157225114624,226.86049743794112L543.905590006033,219.26376590485964L544.673385186661,229.31218493889668L545.5012353078238,225.68671089766207L546.228757442815,230.59433738334477L546.8814353851076,234.69600708389692L547.5057337000611,236.1581454093665L548.1243675322662,236.1581454093665L548.6283652693008,244.35440766961878L548.9767879664968,259.4754699066758L549.4529803783375,246.20656444340347L549.6898351878231,275.08769696673454L549.8615778936969,288.35660243000683L550.1397404123715,268.1271101057693L550.3529420188063,279.05895445858147L550.6503086753881,265.0392779326976L550.9252783784115,268.1271101057693L551.1570820323782,275.08769696673454L551.3251728865296,288.35660243000683L551.4090631686375,317.2377349533379L551.5347053752882,300.34335544883106L551.847801677119,262.16457495407457M551.9934227018932,293.9204104560286L552.0764952899121,317.2377349533379L552.2009147006822,300.34335544883106L552.3044243883656,307.9400869819125L552.3664548564942,329.2244879721621L552.4697137255138,307.9400869819125L552.5522083734261,317.2377349533379L552.5728164492008,375L552.7168988355808,293.9204104560286L552.8401561481754,300.34335544883106L552.9222040740594,317.2377349533379L553.0041533846243,317.2377349533379L553.0655507937096,329.2244879721621L553.106451705663,346.1188674766689M553.1473280966846,346.1188674766689L553.1881799961583,346.1188674766689L553.2085967707327,375L553.2698104377339,329.2244879721621M553.3105890383406,346.1188674766689ZM553.3309691963707,375ZM575.5641275767937,76.56677094351174Z" style="fill: none; stroke: #4c78a8; stroke-width: 2;"></path></g></g><path class="foreground" d="" style="display: none; fill: none;"></path></g><g transform="translate(0,0)"><path class="background" d="M0,0h750v375h-750Z" style="fill: none;"></path><g><g class="mark-line role-mark marks"><path d="M0,375L47.26003503817809,375L74.90538331828022,375L132.67569198104408,317.2377349533379L156.99443815868494,329.2244879721621L169.42545339463638,346.1188674766689L193.17363709474202,307.9400869819125L207.58107529932428,317.2377349533379L229.58835204453234,288.35660243000683L240.4336721329201,307.9400869819125L269.40298081237006,254.5678434209931L297.9168990318424,237.6734639164863L318.60196598603903,236.1581454093665L340.7190186657351,220.26783055398718L360.2184360503174,212.8408209120572L371.6617127431159,225.68671089766207L402.4522727319113,171.23545299076025L418.48139005133413,184.38704256235903L439.58903608235545,161.50150085819755L458.0321382970699,155.07855586539512M487.0648365480082,121.47919112186784L495.89267699996736,159.80058441985358L511.3997376405883,128.82987757629454L523.4275326694146,131.0386699082322L533.5394516885301,131.51898262369332L545.3868554484515,118.1952164985566L554.5227421761554,122.63399944880732L566.046668846673,106.6272274736283L578.288591848165,96.84069909854801L586.9179672551141,105.06209824130964L594.0181658274105,108.3918777276997L601.8828239207392,99.55433147009337L608.3903331508451,103.0627141845504L614.571615713957,101.33008702450101L621.8017495735189,90.69641156851304L628.1343907516955,92.0792818535873L633.0923915305657,98.83160932585277L638.0443782196871,95.85415249326343L642.7982229895184,94.5906637296052L646.6743541005268,100.46139676943669L650.5038186790903,98.61173194665096L654.1574604367813,98.28407626080872L657.2490140835429,103.18490391043701L659.5402120718197,114.02507239201569L662.2164974080221,106.03339319416158L664.6644166794797,108.18440841938269L666.7886570874988,112.69724994001471L669.1028276534048,107.77254345136012L671.1964868912085,110.59848496547514L673.3995934740917,107.16228030480848L674.8925971495682,122.24549624567722L676.804867426807,110.89191340820072L678.7815759631684,108.32260644546582L680.6270290824601,110.01775547198426L682.2610433597971,114.02507239201569L684.0068604548253,110.23458163344372L685.436636868792,117.58566191455832L686.6959866499349,122.05259466656294L687.9918997961765,120.07928341494384L689.4852982006707,113.31684004332519L690.6835456989786,121.66945020435043L691.9331901765445,119.17147699057267L693.0449180418406,123.32272036344109L694.1258894181395,123.82172832372092" style="fill: none; stroke: #9ecae9; stroke-width: 2;"></path></g></g><path class="foreground" d="" style="display: none; fill: none;"></path></g><g transform="translate(0,0)"><path class="background" d="M0,0h750v375h-750Z" style="fill: none;"></path><g><g class="mark-line role-mark marks"><path d="M0,375L47.26003503817809,375L74.90538331828022,375L109.73440312050683,346.1188674766689L156.99443815868494,307.9400869819125L193.17363709474202,293.9204104560286L227.1957620574003,275.08769696673454L242.41009510155095,293.9204104560286L271.9761849930187,252.31504253473165L273.22726262948663,375L333.43289510602864,193.47046555460034L359.52269717480095,203.0360672897878L386.34727418948404,185.69605073874985L397.82800479972303,209.5711702686616L428.08100619312575,156.15527383139042L438.71908082641727,187.50793040290563L458.2790250539075,152.80338361394297L473.8538492045982,151.61282642877393L492.69606887050037,133.1193762951463L509.9907362157973,125.66932163803372L528.0978825187078,112.92851787879178L541.3791658053888,116.30874891264045L559.2041039187736,94.4912205638664L571.4572819277524,100.98043462299067L582.5740348411247,97.90503964219073L592.9438799447654,94.24364605850178L601.7126570689815,95.39487043948218L610.2989573199285,90.96933830854297L616.6075332339601,99.2748759177301L623.6646158411586,90.5154485623812L630.3101279526763,88.83439962623783L635.6925320392389,93.94848543815154L640.1069645329925,99.21920902011585L643.9568712610608,102.39700164554982L647.6316326712822,102.03831937319147L651.1378458776144,101.80090182674823L654.6710299818382,99.33061728613262L657.6252333214262,104.80686518186452L660.3677543082289,106.16462689844892L662.5581378287711,114.02507239201569L664.9900760294257,108.25345013636725L667.1235522241313,112.31463323241746L668.2659080793663,137.342396889325L670.6845353758484,104.9981432530561L672.8616323932079,107.97796703918756L675.2446055138496,102.81940449073544L675.38422122229,220.26783055398718L676.764876134875,124.32678501256859L678.082169037818,125.45994096292235L679.4738811819326,122.34228297134966L680.8534529291762,121.8605820379715L682.2210513160416,121.38438637865391L683.3411377073529,128.94325633105956L684.4758764981785,127.71274184918386" style="fill: none; stroke: #f58518; stroke-width: 2;"></path></g></g><path class="foreground" d="" style="display: none; fill: none;"></path></g><g transform="translate(0,0)"><path class="background" d="M0,0h750v375h-750Z" style="fill: none;"></path><g><g class="mark-line role-mark marks"><path d="M0,375ZM122.1654183564583,307.9400869819125L132.67569198104408,375L163.49285950897982,317.2377349533379L169.42545339463638,375L179.93572701922216,346.1188674766689L193.17363709474202,329.2244879721621L207.58107529932428,317.2377349533379L210.7528945471579,375L227.1957620574003,300.34335544883106L244.3308367129166,288.35660243000683L251.51450823504112,317.2377349533379L262.51006375295856,293.9204104560286L271.9761849930187,293.9204104560286L282.4864586176045,283.44897594432416L302.9080402152489,246.20656444340347L319.2362200311968,244.35440766961878L325.2739516681135,279.05895445858147L361.24891135554793,191.38669803065613L374.80692445180927,217.32543192007248L390.46689188094524,202.36938640035282L411.3467878499183,179.14665142531598L431.08399363140575,169.098232391279L447.24649346544834,166.50223725227255L466.9094505392975,147.34034145726625L483.9237852691904,142.1979725666563L502.21451162791857,128.3794227386189L519.1240012369519,120.91357157640665L532.5516897633652,121.28979685638143L545.3868554484515,115.15126707484565L563.321102997746,91.75248279271122L577.3638373108273,92.22012705812162L592.3371029800478,80.67066827199714L604.5300422404209,80.95679242925455L616.1549258561446,75.67205353906446L625.3292446467692,79.19992735195453L633.1176885601413,80.84926548785906L644.7771538643239,58.06719209280614L654.2641939496909,60.214228289971835L662.3030984528287,61.769964558207036L670.2714549790344,57.246551746984146L676.8248542800424,60.9626196014096L681.8260258717991,68.70174056538775L686.3435055980187,70.03323088467295L692.7132988792342,52.38183519038546L698.99720039483,49.081499658932536L709.2367755934371,23.66371091669156L716.7886227870093,30.931460074657135L720.1816509221536,60.94041514222881L723.6153191642506,58.35827777434105L725.976851706758,72.1864405071595L729.6808124116295,51.57622470257479L732.9428053440319,54.74323735446224L737.6493996102641,37.0279998630528L740.3193918452695,58.40002794483484L742.6494521535906,62.5470944176279" style="fill: none; stroke: #ffbf79; stroke-width: 2;"></path></g></g><path class="foreground" d="" style="display: none; fill: none;"></path></g><g transform="translate(0,0)"><path class="background" d="M0,0h750v375h-750Z" style="fill: none;"></path><g><g class="mark-line role-mark marks"><path d="M0,375L47.26003503817809,375M74.90538331828022,375L94.52007007635618,375L122.1654183564583,346.1188674766689L141.78010511453425,346.1188674766689M207.58107529932428,268.1271101057693ZM274.45579709557836,226.86049743794112ZM291.5908717510947,259.4754699066758L335.94911489708215,200.43105241556563L353.30342388355126,221.29668941191935L371.9537124107524,207.27701288603544L384.6754821094168,213.6999578788379L396.62121545203667,208.7923313931552L412.3208303895189,188.92049505605905L418.92174778129396,218.2833285127682L433.84282524139536,177.65839798356268L452.3613653087513,158.39595703059058L472.4003057839544,143.30493204101967L485.1533267853037,152.20385288677215L494.4582239899646,158.62679787957455L510.7940095639864,127.27414130805937L529.4416979274636,111.03940618758088L544.1857896531866,110.67164857806954L558.527728723463,102.94088173907393L570.750728266238,101.50601972782802L579.9359804527472,106.89389505052277L585.7754038357151,121.19542158009594L595.064739430982,97.21013364878306L604.7316927193308,89.75500519733124L612.7037343835923,92.40866433305034L620.5968263547223,87.97614751810984L627.2373837709982,90.74177539081288L632.1369131954715,99.89217115877764L636.5937730084765,100.98043462299067L641.1378107937873,97.42271914394536L645.3080022184475,98.33850692389434L649.7351205291693,93.21960387783837L653.8129189671008,94.04664017533736L657.8499724311747,91.98564885538298L660.4270870726983,108.67012027530825L662.3278214185369,119.98760754371042L665.6563852772149,95.04111856728085L668.623700085953,97.90503964219073L670.9863620992603,105.77215931859511L673.7454376894158,97.74364499236589L676.5244345422531,95.75165141656082" style="fill: none; stroke: #54a24b; stroke-width: 2;"></path></g></g><path class="foreground" d="" style="display: none; fill: none;"></path></g></g><g class="mark-group role-legend"><g transform="translate(768,0)"><path class="background" d="M0,0h88v79h-88Z" style="pointer-events: none; fill: none;"></path><g><g class="mark-group role-legend-entry"><g transform="translate(0,16)"><path class="background" d="M0,0h0v0h0Z" style="pointer-events: none; fill: none;"></path><g><g class="mark-group role-scope"><g transform="translate(0,0)"><path class="background" d="M0,0h87.15234375v11h-87.15234375Z" style="pointer-events: none; fill: none; opacity: 1;"></path><g><g class="mark-symbol role-legend-symbol" style="pointer-events: none;"><path transform="translate(6,6)" d="M-5,0L5,0" style="fill: none; stroke: #4c78a8; stroke-width: 1.5; opacity: 1;"></path></g><g class="mark-text role-legend-label" style="pointer-events: none;"><text text-anchor="start" transform="translate(16,9)" style="font-family: sans-serif; font-size: 10px; fill: #000; opacity: 1;">China</text></g></g><path class="foreground" d="" style="pointer-events: none; display: none; fill: none;"></path></g><g transform="translate(0,13)"><path class="background" d="M0,0h87.15234375v11h-87.15234375Z" style="pointer-events: none; fill: none; opacity: 1;"></path><g><g class="mark-symbol role-legend-symbol" style="pointer-events: none;"><path transform="translate(6,6)" d="M-5,0L5,0" style="fill: none; stroke: #9ecae9; stroke-width: 1.5; opacity: 1;"></path></g><g class="mark-text role-legend-label" style="pointer-events: none;"><text text-anchor="start" transform="translate(16,9)" style="font-family: sans-serif; font-size: 10px; fill: #000; opacity: 1;">Italy</text></g></g><path class="foreground" d="" style="pointer-events: none; display: none; fill: none;"></path></g><g transform="translate(0,26)"><path class="background" d="M0,0h87.15234375v11h-87.15234375Z" style="pointer-events: none; fill: none; opacity: 1;"></path><g><g class="mark-symbol role-legend-symbol" style="pointer-events: none;"><path transform="translate(6,6)" d="M-5,0L5,0" style="fill: none; stroke: #f58518; stroke-width: 1.5; opacity: 1;"></path></g><g class="mark-text role-legend-label" style="pointer-events: none;"><text text-anchor="start" transform="translate(16,9)" style="font-family: sans-serif; font-size: 10px; fill: #000; opacity: 1;">Spain</text></g></g><path class="foreground" d="" style="pointer-events: none; display: none; fill: none;"></path></g><g transform="translate(0,39)"><path class="background" d="M0,0h87.15234375v11h-87.15234375Z" style="pointer-events: none; fill: none; opacity: 1;"></path><g><g class="mark-symbol role-legend-symbol" style="pointer-events: none;"><path transform="translate(6,6)" d="M-5,0L5,0" style="fill: none; stroke: #ffbf79; stroke-width: 1.5; opacity: 1;"></path></g><g class="mark-text role-legend-label" style="pointer-events: none;"><text text-anchor="start" transform="translate(16,9)" style="font-family: sans-serif; font-size: 10px; fill: #000; opacity: 1;">US</text></g></g><path class="foreground" d="" style="pointer-events: none; display: none; fill: none;"></path></g><g transform="translate(0,52)"><path class="background" d="M0,0h87.15234375v11h-87.15234375Z" style="pointer-events: none; fill: none; opacity: 1;"></path><g><g class="mark-symbol role-legend-symbol" style="pointer-events: none;"><path transform="translate(6,6)" d="M-5,0L5,0" style="fill: none; stroke: #54a24b; stroke-width: 1.5; opacity: 1;"></path></g><g class="mark-text role-legend-label" style="pointer-events: none;"><text text-anchor="start" transform="translate(16,9)" style="font-family: sans-serif; font-size: 10px; fill: #000; opacity: 1;">United Kingdom</text></g></g><path class="foreground" d="" style="pointer-events: none; display: none; fill: none;"></path></g></g></g><path class="foreground" d="" style="pointer-events: none; display: none; fill: none;"></path></g></g><g class="mark-text role-legend-title" style="pointer-events: none;"><text text-anchor="start" transform="translate(0,9)" style="font-family: sans-serif; font-size: 11px; font-weight: bold; fill: #000; opacity: 1;">country</text></g></g><path class="foreground" d="" style="pointer-events: none; display: none; fill: none;"></path></g></g><g class="mark-group role-title"><g transform="translate(375,-22)"><path class="background" d="M0,0h0v0h0Z" style="pointer-events: none; fill: none;"></path><g><g class="mark-text role-title-text" style="pointer-events: none;"><text text-anchor="middle" transform="translate(0,10)" style="font-family: sans-serif; font-size: 13px; font-weight: bold; fill: #000; opacity: 1;">LogNew by LogDeaths in ['China', 'Italy', 'Spain', 'US', 'United Kingdom'] as of 04-25-2020</text></g></g><path class="foreground" d="" style="pointer-events: none; display: none; fill: none;"></path></g></g></g><path class="foreground" d="" style="display: none; fill: none;"></path></g></g></g></svg>