<svg class="marks" width="902" height="439" viewBox="0 0 902 439" version="1.1" xmlns="http://www.w3.org/2000/svg" xmlns:xlink="http://www.w3.org/1999/xlink"><rect width="902" height="439" style="fill: white;"></rect><g transform="translate(39,27)"><g class="mark-group role-frame root"><g transform="translate(0,0)"><path class="background" d="M0.5,0.5h750v375h-750Z" style="fill: none; stroke: #ddd;"></path><g><g class="mark-group role-axis"><g transform="translate(0.5,375.5)"><path class="background" d="M0,0h0v0h0Z" style="pointer-events: none; fill: none;"></path><g><g class="mark-rule role-axis-grid" style="pointer-events: none;"><line transform="translate(32,-375)" x2="0" y2="375" style="fill: none; stroke: #ddd; stroke-width: 1; opacity: 1;"></line><line transform="translate(88,-375)" x2="0" y2="375" style="fill: none; stroke: #ddd; stroke-width: 1; opacity: 1;"></line><line transform="translate(144,-375)" x2="0" y2="375" style="fill: none; stroke: #ddd; stroke-width: 1; opacity: 1;"></line><line transform="translate(200,-375)" x2="0" y2="375" style="fill: none; stroke: #ddd; stroke-width: 1; opacity: 1;"></line><line transform="translate(255,-375)" x2="0" y2="375" style="fill: none; stroke: #ddd; stroke-width: 1; opacity: 1;"></line><line transform="translate(311,-375)" x2="0" y2="375" style="fill: none; stroke: #ddd; stroke-width: 1; opacity: 1;"></line><line transform="translate(367,-375)" x2="0" y2="375" style="fill: none; stroke: #ddd; stroke-width: 1; opacity: 1;"></line><line transform="translate(423,-375)" x2="0" y2="375" style="fill: none; stroke: #ddd; stroke-width: 1; opacity: 1;"></line><line transform="translate(479,-375)" x2="0" y2="375" style="fill: none; stroke: #ddd; stroke-width: 1; opacity: 1;"></line><line transform="translate(535,-375)" x2="0" y2="375" style="fill: none; stroke: #ddd; stroke-width: 1; opacity: 1;"></line><line transform="translate(590,-375)" x2="0" y2="375" style="fill: none; stroke: #ddd; stroke-width: 1; opacity: 1;"></line><line transform="translate(646,-375)" x2="0" y2="375" style="fill: none; stroke: #ddd; stroke-width: 1; opacity: 1;"></line><line transform="translate(702,-375)" x2="0" y2="375" style="fill: none; stroke: #ddd; stroke-width: 1; opacity: 1;"></line></g></g><path class="foreground" d="" style="pointer-events: none; display: none; fill: none;"></path></g></g><g class="mark-group role-axis"><g transform="translate(0.5,0.5)"><path class="background" d="M0,0h0v0h0Z" style="pointer-events: none; fill: none;"></path><g><g class="mark-rule role-axis-grid" style="pointer-events: none;"><line transform="translate(0,375)" x2="750" y2="0" style="fill: none; stroke: #ddd; stroke-width: 1; opacity: 1;"></line><line transform="translate(0,341)" x2="750" y2="0" style="fill: none; stroke: #ddd; stroke-width: 1; opacity: 1;"></line><line transform="translate(0,307)" x2="750" y2="0" style="fill: none; stroke: #ddd; stroke-width: 1; opacity: 1;"></line><line transform="translate(0,273)" x2="750" y2="0" style="fill: none; stroke: #ddd; stroke-width: 1; opacity: 1;"></line><line transform="translate(0,239)" x2="750" y2="0" style="fill: none; stroke: #ddd; stroke-width: 1; opacity: 1;"></line><line transform="translate(0,205)" x2="750" y2="0" style="fill: none; stroke: #ddd; stroke-width: 1; opacity: 1;"></line><line transform="translate(0,170)" x2="750" y2="0" style="fill: none; stroke: #ddd; stroke-width: 1; opacity: 1;"></line><line transform="translate(0,136)" x2="750" y2="0" style="fill: none; stroke: #ddd; stroke-width: 1; opacity: 1;"></line><line transform="translate(0,102)" x2="750" y2="0" style="fill: none; stroke: #ddd; stroke-width: 1; opacity: 1;"></line><line transform="translate(0,68)" x2="750" y2="0" style="fill: none; stroke: #ddd; stroke-width: 1; opacity: 1;"></line><line transform="translate(0,34)" x2="750" y2="0" style="fill: none; stroke: #ddd; stroke-width: 1; opacity: 1;"></line><line transform="translate(0,0)" x2="750" y2="0" style="fill: none; stroke: #ddd; stroke-width: 1; opacity: 1;"></line></g></g><path class="foreground" d="" style="pointer-events: none; display: none; fill: none;"></path></g></g><g class="mark-group role-axis"><g transform="translate(0.5,375.5)"><path class="background" d="M0,0h0v0h0Z" style="pointer-events: none; fill: none;"></path><g><g class="mark-rule role-axis-tick" style="pointer-events: none;"><line transform="translate(32,0)" x2="0" y2="5" style="fill: none; stroke: #888; stroke-width: 1; opacity: 1;"></line><line transform="translate(88,0)" x2="0" y2="5" style="fill: none; stroke: #888; stroke-width: 1; opacity: 1;"></line><line transform="translate(144,0)" x2="0" y2="5" style="fill: none; stroke: #888; stroke-width: 1; opacity: 1;"></line><line transform="translate(200,0)" x2="0" y2="5" style="fill: none; stroke: #888; stroke-width: 1; opacity: 1;"></line><line transform="translate(255,0)" x2="0" y2="5" style="fill: none; stroke: #888; stroke-width: 1; opacity: 1;"></line><line transform="translate(311,0)" x2="0" y2="5" style="fill: none; stroke: #888; stroke-width: 1; opacity: 1;"></line><line transform="translate(367,0)" x2="0" y2="5" style="fill: none; stroke: #888; stroke-width: 1; opacity: 1;"></line><line transform="translate(423,0)" x2="0" y2="5" style="fill: none; stroke: #888; stroke-width: 1; opacity: 1;"></line><line transform="translate(479,0)" x2="0" y2="5" style="fill: none; stroke: #888; stroke-width: 1; opacity: 1;"></line><line transform="translate(535,0)" x2="0" y2="5" style="fill: none; stroke: #888; stroke-width: 1; opacity: 1;"></line><line transform="translate(590,0)" x2="0" y2="5" style="fill: none; stroke: #888; stroke-width: 1; opacity: 1;"></line><line transform="translate(646,0)" x2="0" y2="5" style="fill: none; stroke: #888; stroke-width: 1; opacity: 1;"></line><line transform="translate(702,0)" x2="0" y2="5" style="fill: none; stroke: #888; stroke-width: 1; opacity: 1;"></line></g><g class="mark-text role-axis-label" style="pointer-events: none;"><text text-anchor="middle" transform="translate(31.929046563192905,15)" style="font-family: sans-serif; font-size: 10px; fill: #000; opacity: 1;">Jan 26</text><text text-anchor="middle" transform="translate(87.8048780487805,15)" style="font-family: sans-serif; font-size: 10px; fill: #000; opacity: 1;">Feb 02</text><text text-anchor="middle" transform="translate(143.68070953436808,15)" style="font-family: sans-serif; font-size: 10px; fill: #000; opacity: 1;">Feb 09</text><text text-anchor="middle" transform="translate(199.55654101995563,15)" style="font-family: sans-serif; font-size: 10px; fill: #000; opacity: 1;">Feb 16</text><text text-anchor="middle" transform="translate(255.43237250554324,15)" style="font-family: sans-serif; font-size: 10px; fill: #000; opacity: 1;">Feb 23</text><text text-anchor="middle" transform="translate(311.3082039911308,15)" style="font-family: sans-serif; font-size: 10px; fill: #000; opacity: 1;">March</text><text text-anchor="middle" transform="translate(367.1840354767184,15)" style="font-family: sans-serif; font-size: 10px; fill: #000; opacity: 1;">Mar 08</text><text text-anchor="middle" transform="translate(423.059866962306,15)" style="font-family: sans-serif; font-size: 10px; fill: #000; opacity: 1;">Mar 15</text><text text-anchor="middle" transform="translate(478.93569844789357,15)" style="font-family: sans-serif; font-size: 10px; fill: #000; opacity: 1;">Mar 22</text><text text-anchor="middle" transform="translate(534.8115299334812,15)" style="font-family: sans-serif; font-size: 10px; fill: #000; opacity: 1;">Mar 29</text><text text-anchor="middle" transform="translate(590.3547671840355,15)" style="font-family: sans-serif; font-size: 10px; fill: #000; opacity: 1;">Apr 05</text><text text-anchor="middle" transform="translate(646.2305986696231,15)" style="font-family: sans-serif; font-size: 10px; fill: #000; opacity: 1;">Apr 12</text><text text-anchor="middle" transform="translate(702.1064301552107,15)" style="font-family: sans-serif; font-size: 10px; fill: #000; opacity: 1;">Apr 19</text></g><g class="mark-rule role-axis-domain" style="pointer-events: none;"><line transform="translate(0,0)" x2="750" y2="0" style="fill: none; stroke: #888; stroke-width: 1; opacity: 1;"></line></g><g class="mark-text role-axis-title" style="pointer-events: none;"><text text-anchor="middle" transform="translate(375,30)" style="font-family: sans-serif; font-size: 11px; font-weight: bold; fill: #000; opacity: 1;">day</text></g></g><path class="foreground" d="" style="pointer-events: none; display: none; fill: none;"></path></g></g><g class="mark-group role-axis"><g transform="translate(0.5,0.5)"><path class="background" d="M0,0h0v0h0Z" style="pointer-events: none; fill: none;"></path><g><g class="mark-rule role-axis-tick" style="pointer-events: none;"><line transform="translate(0,375)" x2="-5" y2="0" style="fill: none; stroke: #888; stroke-width: 1; opacity: 1;"></line><line transform="translate(0,341)" x2="-5" y2="0" style="fill: none; stroke: #888; stroke-width: 1; opacity: 1;"></line><line transform="translate(0,307)" x2="-5" y2="0" style="fill: none; stroke: #888; stroke-width: 1; opacity: 1;"></line><line transform="translate(0,273)" x2="-5" y2="0" style="fill: none; stroke: #888; stroke-width: 1; opacity: 1;"></line><line transform="translate(0,239)" x2="-5" y2="0" style="fill: none; stroke: #888; stroke-width: 1; opacity: 1;"></line><line transform="translate(0,205)" x2="-5" y2="0" style="fill: none; stroke: #888; stroke-width: 1; opacity: 1;"></line><line transform="translate(0,170)" x2="-5" y2="0" style="fill: none; stroke: #888; stroke-width: 1; opacity: 1;"></line><line transform="translate(0,136)" x2="-5" y2="0" style="fill: none; stroke: #888; stroke-width: 1; opacity: 1;"></line><line transform="translate(0,102)" x2="-5" y2="0" style="fill: none; stroke: #888; stroke-width: 1; opacity: 1;"></line><line transform="translate(0,68)" x2="-5" y2="0" style="fill: none; stroke: #888; stroke-width: 1; opacity: 1;"></line><line transform="translate(0,34)" x2="-5" y2="0" style="fill: none; stroke: #888; stroke-width: 1; opacity: 1;"></line><line transform="translate(0,0)" x2="-5" y2="0" style="fill: none; stroke: #888; stroke-width: 1; opacity: 1;"></line></g><g class="mark-text role-axis-label" style="pointer-events: none;"><text text-anchor="end" transform="translate(-7,378)" style="font-family: sans-serif; font-size: 10px; fill: #000; opacity: 1;">0</text><text text-anchor="end" transform="translate(-7,343.9090909090909)" style="font-family: sans-serif; font-size: 10px; fill: #000; opacity: 1;">1</text><text text-anchor="end" transform="translate(-7,309.8181818181818)" style="font-family: sans-serif; font-size: 10px; fill: #000; opacity: 1;">2</text><text text-anchor="end" transform="translate(-7,275.72727272727275)" style="font-family: sans-serif; font-size: 10px; fill: #000; opacity: 1;">3</text><text text-anchor="end" transform="translate(-7,241.63636363636363)" style="font-family: sans-serif; font-size: 10px; fill: #000; opacity: 1;">4</text><text text-anchor="end" transform="translate(-7,207.54545454545453)" style="font-family: sans-serif; font-size: 10px; fill: #000; opacity: 1;">5</text><text text-anchor="end" transform="translate(-7,173.45454545454547)" style="font-family: sans-serif; font-size: 10px; fill: #000; opacity: 1;">6</text><text text-anchor="end" transform="translate(-7,139.36363636363637)" style="font-family: sans-serif; font-size: 10px; fill: #000; opacity: 1;">7</text><text text-anchor="end" transform="translate(-7,105.27272727272727)" style="font-family: sans-serif; font-size: 10px; fill: #000; opacity: 1;">8</text><text text-anchor="end" transform="translate(-7,71.18181818181816)" style="font-family: sans-serif; font-size: 10px; fill: #000; opacity: 1;">9</text><text text-anchor="end" transform="translate(-7,37.0909090909091)" style="font-family: sans-serif; font-size: 10px; fill: #000; opacity: 1;">10</text><text text-anchor="end" transform="translate(-7,3)" style="font-family: sans-serif; font-size: 10px; fill: #000; opacity: 1;">11</text></g><g class="mark-rule role-axis-domain" style="pointer-events: none;"><line transform="translate(0,375)" x2="0" y2="-375" style="fill: none; stroke: #888; stroke-width: 1; opacity: 1;"></line></g><g class="mark-text role-axis-title" style="pointer-events: none;"><text text-anchor="middle" transform="translate(-22.123046875,187.5) rotate(-90) translate(0,-2)" style="font-family: sans-serif; font-size: 11px; font-weight: bold; fill: #000; opacity: 1;">LogDeaths</text></g></g><path class="foreground" d="" style="pointer-events: none; display: none; fill: none;"></path></g></g><g class="mark-group role-scope pathgroup"><g transform="translate(0,0)"><path class="background" d="M0,0h750v375h-750Z" style="fill: none;"></path><g><g class="mark-line role-mark marks"><path d="M0,278.413181452629L7.982261640798226,276.46459916263075L15.964523281596453,263.92852711290396L23.946784922394677,247.57944483124876L31.929046563192905,237.77210145221085L39.91130820399113,224.770934752355L47.893569844789354,208.80009125450619L55.87583148558759,208.28355244698565L63.85809312638581,199.7160151192275L71.84035476718404,192.22867616899686L79.82261640798227,185.56267971478852L87.8048780487805,174.24279687501544L95.78713968957871,168.67877833212214L103.76940133037695,163.75758655245954L111.75166297117518,159.0927399497833L119.73392461197339,155.09759924508492L127.71618625277162,150.8021737824469L135.69844789356986,146.9031041789126L143.68070953436808,142.9113087375025L151.6629711751663,139.10168693702008L159.64523281596453,135.88924517691385L167.62749445676275,135.73630230445903L175.609756097561,128.80105141062108L183.5920177383592,125.21170594570593L191.57427937915742,122.16891548205926L199.55654101995563,120.12025973304867L207.5388026607539,118.27909107117492L215.5210643015521,115.82722719321076L223.50332594235036,113.95626842119805L231.48558758314857,112.04529924300441L239.46784922394679,112.04529924300441L247.45011086474503,109.05742938894066L255.43237250554324,109.02953175310321L263.4146341463414,106.99971151363674L271.3968957871397,106.09229534318372L279.3791574279379,105.43351331501087L287.36141906873615,105.0715709206392L295.3436807095344,104.52965199492917L303.3259423503326,103.96014426788008L311.3082039911308,103.54213874426884L319.29046563192907,103.04720499698352L327.27272727272725,102.6633074066695L335.2549889135255,102.24938234608813L343.23725055432374,101.88562127859254L351.219512195122,101.55928230744624L359.20177383592016,101.24713314996943L367.1840354767184,100.93781623386693L375.16629711751665,100.68581736534958L383.14855875831483,100.51160601675161L391.1308203991131,100.27350981083121L399.11308203991126,100.15508240608845L407.09534368070956,100.06921105315155L415.0776053215078,99.93012979381426L423.059866962306,99.82352899059688L431.0421286031042,99.67484566230593L439.0243902439024,99.53736081079424L447.0066518847007,99.4214589838109L454.9889135254989,99.33741355673521L462.97117516629714,99.29546841568123L470.95343680709533,99.23264731235588L478.93569844789357,99.07609916144048L486.91796008869176,99.07609916144048L494.90022172949006,99.00328864905337L502.88248337028824,98.96175235504394L510.8647450110865,98.89954264965887L518.8470066518847,98.84778780581718L526.8292682926829,98.81677257175288L534.8115299334812,98.7651431372431L542.4611973392462,98.72389581328697L550.4434589800443,98.71359177539958L558.4257206208425,98.6415505822096L566.4079822616408,98.5799219259123L574.390243902439,98.53889796297027L582.3725055432373,98.49792330768786L590.3547671840355,98.46722460314524L598.3370288248336,98.4467741471685L606.319290465632,98.4467741471685L614.3015521064302,98.4263359516577L622.2838137472284,98.40591000192087L630.2660753880266,98.39570161463364L638.2483370288248,98.36509478113304L646.2305986696231,98.36509478113304L654.2128603104213,98.3447054808297L662.1951219512196,98.3447054808297L670.1773835920177,98.33451540181464L678.1596452328159,98.33451540181464L686.1419068736142,87.21793621160313L694.1241685144124,87.21793621160313L702.1064301552107,87.21793621160313L710.0886917960089,87.21793621160313L718.070953436807,87.21793621160313L726.0532150776053,87.21793621160313L734.0354767184036,87.21793621160313L742.0177383592018,87.21793621160313L750,87.21793621160313" style="fill: none; stroke: #4c78a8; stroke-width: 2;"></path></g></g><path class="foreground" d="" style="display: none; fill: none;"></path></g><g transform="translate(0,0)"><path class="background" d="M0,0h750v375h-750Z" style="fill: none;"></path><g><g class="mark-line role-mark marks"><path d="M239.46784922394679,375L247.45011086474503,351.36998248091095L255.43237250554324,337.5473083408599L263.4146341463414,308.66215400947794L271.3968957871397,296.50278092065753L279.3791574279379,290.2872733026818L287.36141906873615,278.413181452629L295.3436807095344,271.2094623503379L303.3259423503326,260.2058239777338L311.3082039911308,254.78316393353995L319.29046563192907,240.29850959381497L327.27272727272725,226.0415504840788L335.2549889135255,215.69901700698048L343.23725055432374,204.64049066713247L351.219512195122,194.89078197484133L359.20177383592016,189.16914362844204L367.1840354767184,173.77386363404435L375.16629711751665,165.75930497433293L383.14855875831483,155.20548195882228L391.1308203991131,145.98393085146506L399.11308203991126,145.98393085146506L407.09534368070956,131.4675817259959L415.0776053215078,127.0536615000163L423.059866962306,119.30013117970587L431.0421286031042,113.28623366529271L439.0243902439024,108.23027415573497L447.0066518847007,102.30657227577429L454.9889135254989,97.73862891192229L462.97117516629714,91.97666557666349L470.95343680709533,85.85570407591752L478.93569844789357,81.54101637244294L486.91796008869176,77.99091708629474L494.90022172949006,74.05858803963041L502.88248337028824,70.80483342457744L510.8647450110865,67.71419214302149L518.8470066518847,64.09912521324053L526.8292682926829,60.932804624152276L534.8115299334812,58.453804234717175L542.4611973392462,55.97781089015643L550.4434589800443,53.60088850524077L558.4257206208425,51.662822949736636L566.4079822616408,49.74809066045488L574.390243902439,47.92126978160933L582.3725055432373,46.375492958228584L590.3547671840355,45.229893964090124L598.3370288248336,43.891751295988946L606.319290465632,42.66779166026015L614.3015521064302,41.60567145625059L622.2838137472284,40.44858617329762L630.2660753880266,39.40175655439576L638.2483370288248,38.30020326295412L646.2305986696231,37.5537014252159L654.2128603104213,36.597566286596496L662.1951219512196,35.60921201841578L670.1773835920177,34.686485458769944L678.1596452328159,33.86947832010145L686.1419068736142,32.99656977258733L694.1241685144124,32.28168156560399L702.1064301552107,31.652006675032567L710.0886917960089,31.00405010191172L718.070953436807,30.257350899664637L726.0532150776053,29.65822715051071L734.0354767184036,29.033404911727732L742.0177383592018,28.477540979079716L750,27.93705529093023" style="fill: none; stroke: #9ecae9; stroke-width: 2;"></path></g></g><path class="foreground" d="" style="display: none; fill: none;"></path></g><g transform="translate(0,0)"><path class="background" d="M0,0h750v375h-750Z" style="fill: none;"></path><g><g class="mark-line role-mark marks"><path d="M327.27272727272725,375L335.2549889135255,351.36998248091095L343.23725055432374,337.5473083408599L351.219512195122,320.1327984397466L359.20177383592016,296.50278092065753L367.1840354767184,278.413181452629L375.16629711751665,261.40211897129984L383.14855875831483,253.7949524492245L391.1308203991131,239.01190750349065L399.11308203991126,238.38636868525668L407.09534368070956,208.28355244698565L415.0776053215078,195.23865141259952L423.059866962306,181.82636290525798L431.0421286031042,176.08599760013848L439.0243902439024,160.95949690343713L447.0066518847007,155.64045958679137L454.9889135254989,145.86048747304625L462.97117516629714,138.0730753977009L470.95343680709533,128.65196556474982L478.93569844789357,120.00463189210136L486.91796008869176,110.95105874064609L494.90022172949006,104.31041709730563L502.88248337028824,95.3979480406132L510.8647450110865,89.27135903612377L518.8470066518847,83.71298257943764L526.8292682926829,78.52806002761731L534.8115299334812,74.14367146550929L542.4611973392462,69.85052134003574L550.4434589800443,66.69623338301996L558.4257206208425,63.16769207942073L566.4079822616408,59.84493602366185L574.390243902439,57.15373398038051L582.3725055432373,54.94651773350375L590.3547671840355,53.02156436946963L598.3370288248336,51.18418366435888L606.319290465632,49.431077061192816L614.3015521064302,47.6644850090809L622.2838137472284,46.1873833392869L630.2660753880266,44.81612284588556L638.2483370288248,43.72093108561447L646.2305986696231,42.50496198528714L654.2128603104213,41.43822388793432L662.1951219512196,40.867045960316844L670.1773835920177,39.657732312075794L678.1596452328159,38.56918380339608L686.1419068736142,37.377697243075225L694.1241685144124,37.30788938885502L702.1064301552107,36.61756193256253L710.0886917960089,35.95891548109105L718.070953436807,35.26305940903371L726.0532150776053,34.5732735354119L734.0354767184036,33.88947434197921L742.0177383592018,33.32943114632357L750,32.762061750910746" style="fill: none; stroke: #f58518; stroke-width: 2;"></path></g></g><path class="foreground" d="" style="display: none; fill: none;"></path></g><g transform="translate(0,0)"><path class="background" d="M0,0h750v375h-750Z" style="fill: none;"></path><g><g class="mark-line role-mark marks"><path d="M303.3259423503326,375L311.3082039911308,375L319.29046563192907,313.91729082177085L327.27272727272725,308.66215400947794L335.2549889135255,293.25357024551005L343.23725055432374,290.2872733026818L351.219512195122,285.03213649038895L359.20177383592016,278.413181452629L367.1840354767184,271.2094623503379L375.16629711751665,269.62355272642105L383.14855875831483,261.40211897129984L391.1308203991131,252.83458164354172L399.11308203991126,249.24274588247943L407.09534368070956,243.74496812352072L415.0776053215078,239.01190750349065L423.059866962306,233.75677069119777L431.0421286031042,223.54597989237556L439.0243902439024,215.3818899844016L447.0066518847007,212.36302416594324L454.9889135254989,194.37554432222603L462.97117516629714,187.59653777409534L470.95343680709533,179.76655405952738L478.93569844789357,169.32660607504084L486.91796008869176,159.45800318429713L494.90022172949006,151.37675326727583L502.88248337028824,141.54527473035125L510.8647450110865,133.0381073654048L518.8470066518847,123.89274418604073L526.8292682926829,115.43799938152404L534.8115299334812,108.7241551183174L542.4611973392462,102.30657227577429L550.4434589800443,93.339448501127L558.4257206208425,86.31808134458636L566.4079822616408,78.8314485099761L574.390243902439,72.73497887978955L582.3725055432373,66.92253707192772L590.3547671840355,62.33537767661539L598.3370288248336,58.441155719929334L606.319290465632,52.61142306783809L614.3015521064302,47.867903025154504L622.2838137472284,43.84845077358564L630.2660753880266,39.864272510482785L638.2483370288248,36.587572859978806L646.2305986696231,34.08698706410045L654.2128603104213,31.82824720099063L662.1951219512196,28.643350560382878L670.1773835920177,25.501399802585034L678.1596452328159,20.381612203281456L686.1419068736142,16.60568860649532L694.1241685144124,14.909174538923182L702.1064301552107,13.19234041787469L710.0886917960089,12.011574146621005L718.070953436807,10.159593794185254L726.0532150776053,8.528597327984055L734.0354767184036,6.175300194867949L742.0177383592018,4.84030407736527L750,3.675273923204714" style="fill: none; stroke: #ffbf79; stroke-width: 2;"></path></g></g><path class="foreground" d="" style="display: none; fill: none;"></path></g><g transform="translate(0,0)"><path class="background" d="M0,0h750v375h-750Z" style="fill: none;"></path><g><g class="mark-line role-mark marks"><path d="M343.23725055432374,375L351.219512195122,351.36998248091095L359.20177383592016,351.36998248091095L367.1840354767184,337.5473083408599L375.16629711751665,327.7399649618219L383.14855875831483,313.91729082177085L391.1308203991131,304.1099474427329L399.11308203991126,304.1099474427329L407.09534368070956,304.1099474427329L415.0776053215078,271.2094623503379L423.059866962306,271.2094623503379L431.0421286031042,237.77210145221085L439.0243902439024,237.77210145221085L447.0066518847007,229.20456412445265L454.9889135254989,207.02544255145892L462.97117516629714,198.34828805822437L470.95343680709533,189.0231437946238L478.93569844789357,182.6622589452916L486.91796008869176,176.68939227398167L494.90022172949006,168.83958480524055L502.88248337028824,165.53912610935302L510.8647450110865,158.07858737930232L518.8470066518847,148.81931734562434L526.8292682926829,138.7998471080228L534.8115299334812,132.42333660734815L542.4611973392462,127.7708880050177L550.4434589800443,119.60299521800681L558.4257206208425,110.27915103626823L566.4079822616408,102.9071051734067L574.390243902439,95.73613563826848L582.3725055432373,89.62463586688105L590.3547671840355,85.03200977362638L598.3370288248336,82.11229808214243L606.319290465632,77.46763028450906L614.3015521064302,72.63415364033459L622.2838137472284,68.64813280820388L630.2660753880266,64.70158682263883L638.2483370288248,61.381308114500904L646.2305986696231,58.93154340226424L654.2128603104213,56.70311349576175L662.1951219512196,54.43109460310636L670.1773835920177,52.34599889077621L678.1596452328159,50.132439735415325L686.1419068736142,48.09354051644961L694.1241685144124,46.07501378441266L702.1064301552107,44.786456463650815L710.0886917960089,43.836089290731515L718.070953436807,42.17180736139253L726.0532150776053,40.68814995702347L734.0354767184036,39.50681895036984L742.0177383592018,38.12728115529208L750,36.73778272887347" style="fill: none; stroke: #54a24b; stroke-width: 2;"></path></g></g><path class="foreground" d="" style="display: none; fill: none;"></path></g></g><g class="mark-group role-legend"><g transform="translate(770,0)"><path class="background" d="M0,0h88v79h-88Z" style="pointer-events: none; fill: none;"></path><g><g class="mark-group role-legend-entry"><g transform="translate(0,16)"><path class="background" d="M0,0h0v0h0Z" style="pointer-events: none; fill: none;"></path><g><g class="mark-group role-scope"><g transform="translate(0,0)"><path class="background" d="M0,0h87.15234375v11h-87.15234375Z" style="pointer-events: none; fill: none; opacity: 1;"></path><g><g class="mark-symbol role-legend-symbol" style="pointer-events: none;"><path transform="translate(6,6)" d="M-5,0L5,0" style="fill: none; stroke: #4c78a8; stroke-width: 1.5; opacity: 1;"></path></g><g class="mark-text role-legend-label" style="pointer-events: none;"><text text-anchor="start" transform="translate(16,9)" style="font-family: sans-serif; font-size: 10px; fill: #000; opacity: 1;">China</text></g></g><path class="foreground" d="" style="pointer-events: none; display: none; fill: none;"></path></g><g transform="translate(0,13)"><path class="background" d="M0,0h87.15234375v11h-87.15234375Z" style="pointer-events: none; fill: none; opacity: 1;"></path><g><g class="mark-symbol role-legend-symbol" style="pointer-events: none;"><path transform="translate(6,6)" d="M-5,0L5,0" style="fill: none; stroke: #9ecae9; stroke-width: 1.5; opacity: 1;"></path></g><g class="mark-text role-legend-label" style="pointer-events: none;"><text text-anchor="start" transform="translate(16,9)" style="font-family: sans-serif; font-size: 10px; fill: #000; opacity: 1;">Italy</text></g></g><path class="foreground" d="" style="pointer-events: none; display: none; fill: none;"></path></g><g transform="translate(0,26)"><path class="background" d="M0,0h87.15234375v11h-87.15234375Z" style="pointer-events: none; fill: none; opacity: 1;"></path><g><g class="mark-symbol role-legend-symbol" style="pointer-events: none;"><path transform="translate(6,6)" d="M-5,0L5,0" style="fill: none; stroke: #f58518; stroke-width: 1.5; opacity: 1;"></path></g><g class="mark-text role-legend-label" style="pointer-events: none;"><text text-anchor="start" transform="translate(16,9)" style="font-family: sans-serif; font-size: 10px; fill: #000; opacity: 1;">Spain</text></g></g><path class="foreground" d="" style="pointer-events: none; display: none; fill: none;"></path></g><g transform="translate(0,39)"><path class="background" d="M0,0h87.15234375v11h-87.15234375Z" style="pointer-events: none; fill: none; opacity: 1;"></path><g><g class="mark-symbol role-legend-symbol" style="pointer-events: none;"><path transform="translate(6,6)" d="M-5,0L5,0" style="fill: none; stroke: #ffbf79; stroke-width: 1.5; opacity: 1;"></path></g><g class="mark-text role-legend-label" style="pointer-events: none;"><text text-anchor="start" transform="translate(16,9)" style="font-family: sans-serif; font-size: 10px; fill: #000; opacity: 1;">US</text></g></g><path class="foreground" d="" style="pointer-events: none; display: none; fill: none;"></path></g><g transform="translate(0,52)"><path class="background" d="M0,0h87.15234375v11h-87.15234375Z" style="pointer-events: none; fill: none; opacity: 1;"></path><g><g class="mark-symbol role-legend-symbol" style="pointer-events: none;"><path transform="translate(6,6)" d="M-5,0L5,0" style="fill: none; stroke: #54a24b; stroke-width: 1.5; opacity: 1;"></path></g><g class="mark-text role-legend-label" style="pointer-events: none;"><text text-anchor="start" transform="translate(16,9)" style="font-family: sans-serif; font-size: 10px; fill: #000; opacity: 1;">United Kingdom</text></g></g><path class="foreground" d="" style="pointer-events: none; display: none; fill: none;"></path></g></g></g><path class="foreground" d="" style="pointer-events: none; display: none; fill: none;"></path></g></g><g class="mark-text role-legend-title" style="pointer-events: none;"><text text-anchor="start" transform="translate(0,9)" style="font-family: sans-serif; font-size: 11px; font-weight: bold; fill: #000; opacity: 1;">country</text></g></g><path class="foreground" d="" style="pointer-events: none; display: none; fill: none;"></path></g></g><g class="mark-group role-title"><g transform="translate(375,-22)"><path class="background" d="M0,0h0v0h0Z" style="pointer-events: none; fill: none;"></path><g><g class="mark-text role-title-text" style="pointer-events: none;"><text text-anchor="middle" transform="translate(0,10)" style="font-family: sans-serif; font-size: 13px; font-weight: bold; fill: #000; opacity: 1;">LogDeaths by day in ['China', 'Italy', 'Spain', 'US', 'United Kingdom'] as of 04-25-2020</text></g></g><path class="foreground" d="" style="pointer-events: none; display: none; fill: none;"></path></g></g></g><path class="foreground" d="" style="display: none; fill: none;"></path></g></g></g></svg>