<svg class="marks" width="927" height="439" viewBox="0 0 927 439" version="1.1" xmlns="http://www.w3.org/2000/svg" xmlns:xlink="http://www.w3.org/1999/xlink"><rect width="927" height="439" style="fill: white;"></rect><g transform="translate(64,27)"><g class="mark-group role-frame root"><g transform="translate(0,0)"><path class="background" d="M0,0h750v375h-750Z" style="fill: none; stroke: #ddd; stroke-width: 0;"></path><g><g class="mark-group role-axis"><g transform="translate(0.5,375.5)"><path class="background" d="M0,0h0v0h0Z" style="pointer-events: none; fill: none;"></path><g><g class="mark-rule role-axis-tick" style="pointer-events: none;"><line transform="translate(41,0)" x2="0" y2="5" style="fill: none; stroke: #888; stroke-width: 1; opacity: 1;"></line><line transform="translate(113,0)" x2="0" y2="5" style="fill: none; stroke: #888; stroke-width: 1; opacity: 1;"></line><line transform="translate(185,0)" x2="0" y2="5" style="fill: none; stroke: #888; stroke-width: 1; opacity: 1;"></line><line transform="translate(257,0)" x2="0" y2="5" style="fill: none; stroke: #888; stroke-width: 1; opacity: 1;"></line><line transform="translate(329,0)" x2="0" y2="5" style="fill: none; stroke: #888; stroke-width: 1; opacity: 1;"></line><line transform="translate(401,0)" x2="0" y2="5" style="fill: none; stroke: #888; stroke-width: 1; opacity: 1;"></line><line transform="translate(473,0)" x2="0" y2="5" style="fill: none; stroke: #888; stroke-width: 1; opacity: 1;"></line><line transform="translate(545,0)" x2="0" y2="5" style="fill: none; stroke: #888; stroke-width: 1; opacity: 1;"></line><line transform="translate(617,0)" x2="0" y2="5" style="fill: none; stroke: #888; stroke-width: 1; opacity: 1;"></line><line transform="translate(689,0)" x2="0" y2="5" style="fill: none; stroke: #888; stroke-width: 1; opacity: 1;"></line></g><g class="mark-text role-axis-label" style="pointer-events: none;"><text text-anchor="middle" transform="translate(41.11936036550542,15)" style="font-family: sans-serif; font-size: 10px; fill: #000; opacity: 1;">Jan 26</text><text text-anchor="middle" transform="translate(113.07824100513993,15)" style="font-family: sans-serif; font-size: 10px; fill: #000; opacity: 1;">Feb 02</text><text text-anchor="middle" transform="translate(185.0371216447744,15)" style="font-family: sans-serif; font-size: 10px; fill: #000; opacity: 1;">Feb 09</text><text text-anchor="middle" transform="translate(256.9960022844089,15)" style="font-family: sans-serif; font-size: 10px; fill: #000; opacity: 1;">Feb 16</text><text text-anchor="middle" transform="translate(328.9548829240434,15)" style="font-family: sans-serif; font-size: 10px; fill: #000; opacity: 1;">Feb 23</text><text text-anchor="middle" transform="translate(400.9137635636779,15)" style="font-family: sans-serif; font-size: 10px; fill: #000; opacity: 1;">March</text><text text-anchor="middle" transform="translate(472.8726442033124,15)" style="font-family: sans-serif; font-size: 10px; fill: #000; opacity: 1;">Mar 08</text><text text-anchor="middle" transform="translate(544.8315248429469,15)" style="font-family: sans-serif; font-size: 10px; fill: #000; opacity: 1;">Mar 15</text><text text-anchor="middle" transform="translate(616.7904054825814,15)" style="font-family: sans-serif; font-size: 10px; fill: #000; opacity: 1;">Mar 22</text><text text-anchor="middle" transform="translate(688.7492861222158,15)" style="font-family: sans-serif; font-size: 10px; fill: #000; opacity: 1;">Mar 29</text></g><g class="mark-rule role-axis-domain" style="pointer-events: none;"><line transform="translate(0,0)" x2="750" y2="0" style="fill: none; stroke: #888; stroke-width: 1; opacity: 1;"></line></g><g class="mark-text role-axis-title" style="pointer-events: none;"><text text-anchor="middle" transform="translate(375,30)" style="font-family: sans-serif; font-size: 11px; font-weight: bold; fill: #000; opacity: 1;">day</text></g></g><path class="foreground" d="" style="pointer-events: none; display: none; fill: none;"></path></g></g><g class="mark-group role-axis"><g transform="translate(0.5,0.5)"><path class="background" d="M0,0h0v0h0Z" style="pointer-events: none; fill: none;"></path><g><g class="mark-rule role-axis-tick" style="pointer-events: none;"><line transform="translate(0,375)" x2="-5" y2="0" style="fill: none; stroke: #888; stroke-width: 1; opacity: 1;"></line><line transform="translate(0,321)" x2="-5" y2="0" style="fill: none; stroke: #888; stroke-width: 1; opacity: 1;"></line><line transform="translate(0,268)" x2="-5" y2="0" style="fill: none; stroke: #888; stroke-width: 1; opacity: 1;"></line><line transform="translate(0,214)" x2="-5" y2="0" style="fill: none; stroke: #888; stroke-width: 1; opacity: 1;"></line><line transform="translate(0,161)" x2="-5" y2="0" style="fill: none; stroke: #888; stroke-width: 1; opacity: 1;"></line><line transform="translate(0,107)" x2="-5" y2="0" style="fill: none; stroke: #888; stroke-width: 1; opacity: 1;"></line><line transform="translate(0,54)" x2="-5" y2="0" style="fill: none; stroke: #888; stroke-width: 1; opacity: 1;"></line><line transform="translate(0,0)" x2="-5" y2="0" style="fill: none; stroke: #888; stroke-width: 1; opacity: 1;"></line></g><g class="mark-text role-axis-label" style="pointer-events: none;"><text text-anchor="end" transform="translate(-7,378)" style="font-family: sans-serif; font-size: 10px; fill: #000; opacity: 1;">0</text><text text-anchor="end" transform="translate(-7,324.42857142857144)" style="font-family: sans-serif; font-size: 10px; fill: #000; opacity: 1;">50,000</text><text text-anchor="end" transform="translate(-7,270.8571428571429)" style="font-family: sans-serif; font-size: 10px; fill: #000; opacity: 1;">100,000</text><text text-anchor="end" transform="translate(-7,217.28571428571428)" style="font-family: sans-serif; font-size: 10px; fill: #000; opacity: 1;">150,000</text><text text-anchor="end" transform="translate(-7,163.71428571428572)" style="font-family: sans-serif; font-size: 10px; fill: #000; opacity: 1;">200,000</text><text text-anchor="end" transform="translate(-7,110.14285714285714)" style="font-family: sans-serif; font-size: 10px; fill: #000; opacity: 1;">250,000</text><text text-anchor="end" transform="translate(-7,56.57142857142859)" style="font-family: sans-serif; font-size: 10px; fill: #000; opacity: 1;">300,000</text><text text-anchor="end" transform="translate(-7,3)" style="font-family: sans-serif; font-size: 10px; fill: #000; opacity: 1;">350,000</text></g><g class="mark-rule role-axis-domain" style="pointer-events: none;"><line transform="translate(0,375)" x2="0" y2="-375" style="fill: none; stroke: #888; stroke-width: 1; opacity: 1;"></line></g><g class="mark-text role-axis-title" style="pointer-events: none;"><text text-anchor="middle" transform="translate(-47.1474609375,187.5) rotate(-90) translate(0,-2)" style="font-family: sans-serif; font-size: 11px; font-weight: bold; fill: #000; opacity: 1;">Confirmed</text></g></g><path class="foreground" d="" style="pointer-events: none; display: none; fill: none;"></path></g></g><g class="mark-group role-scope pathgroup"><g transform="translate(0,0)"><path class="background" d="M0,0h750v375h-750Z" style="fill: none;"></path><g><g class="mark-line role-mark marks"><path d="M0,374.41285714285715L10.279840091376355,374.31107142857144L20.55968018275271,374.01428571428573L30.839520274129068,373.49357142857144L41.11936036550542,372.7767857142857L51.39920045688178,371.9175L61.679040548258136,369.0975L71.9588806396345,368.4782142857143L82.23872073101084,366.27750000000003L92.5185608223872,364.49785714285713L102.79840091376356,362.25964285714286L113.07824100513993,357.1821428571429L123.35808109651627,353.87571428571425L133.63792118789263,349.59964285714284L143.917761279269,345.59999999999997L154.19760137064534,342.2282142857143L164.4774414620217,338.4535714285714L174.75728155339806,335.55642857142857L185.0371216447744,332.3260714285714L195.31696173615077,329.6207142857143L205.59680182752712,327.44357142857143L215.87664191890352,327.0439285714286L226.15648201027986,310.82678571428573L236.4363221016562,303.90214285714285L246.71616219303255,301.7003571428571L256.9960022844089,299.4503571428572L267.27584237578526,297.39214285714286L277.55568246716166,295.4882142857143L287.835522558538,295.05107142857145L298.11536264991435,294.56035714285713L308.3952027412907,294.05357142857144L318.67504283266703,292.49892857142856L328.9548829240434,292.4764285714286L339.2347230154198,292.2417857142857L349.5145631067961,291.69214285714287L359.79440319817246,291.2507142857143L370.0742432895488,290.7857142857143L380.3540833809252,290.43428571428575L390.63392347230155,289.9757142857143L400.9137635636779,289.35857142857145L411.19360365505423,289.14L421.47344374643063,289.00607142857143L431.75328383780703,288.8721428571429L442.0331239291833,288.71035714285716L452.3129640205597,288.5464285714286L462.592804111936,288.4607142857143L472.8726442033124,288.40392857142854L483.1524842946887,288.36428571428576L493.4323243860651,288.33535714285716L503.7121644774415,288.2989285714286L513.9920045688178,288.28714285714284L524.2718446601942,288.2732142857143L534.5516847515705,288.2389285714286L544.8315248429469,288.2110714285714L555.1113649343233,288.17892857142857L565.3912050256996,288.15214285714285L575.671045117076,288.10499999999996L585.9508852084523,288.0471428571429L596.2307252998287,287.94642857142856L606.510565391205,287.88750000000005L616.7904054825814,287.74821428571425L627.0702455739578,287.68071428571426L637.3500856653341,287.5810714285715L647.6299257567105,287.50607142857143L657.9097658480867,287.37642857142856L668.1896059394631,287.25321428571425L678.4694460308395,287.1439285714286L688.7492861222158,287.01214285714286L698.6007995431182,286.93071428571426L708.8806396344946,286.8439285714286L719.1604797258709,286.75607142857143L729.4403198172473,286.68L739.7201599086236,286.59535714285715L750,286.56107142857144" style="fill: none; stroke: #4c78a8; stroke-width: 2;"></path></g></g><path class="foreground" d="" style="display: none; fill: none;"></path></g><g transform="translate(0,0)"><path class="background" d="M0,0h750v375h-750Z" style="fill: none;"></path><g><g class="mark-line role-mark marks"><path d="M0,375L10.279840091376355,375L20.55968018275271,375L30.839520274129068,375L41.11936036550542,375L51.39920045688178,375L61.679040548258136,375L71.9588806396345,375L82.23872073101084,375L92.5185608223872,374.99785714285713L102.79840091376356,374.99785714285713L113.07824100513993,374.99785714285713L123.35808109651627,374.99785714285713L133.63792118789263,374.99785714285713L143.917761279269,374.99785714285713L154.19760137064534,374.99785714285713L164.4774414620217,374.9967857142857L174.75728155339806,374.9967857142857L185.0371216447744,374.9967857142857L195.31696173615077,374.9967857142857L205.59680182752712,374.9967857142857L215.87664191890352,374.9967857142857L226.15648201027986,374.9967857142857L236.4363221016562,374.9967857142857L246.71616219303255,374.9967857142857L256.9960022844089,374.9967857142857L267.27584237578526,374.9967857142857L277.55568246716166,374.9967857142857L287.835522558538,374.9967857142857L298.11536264991435,374.9967857142857L308.3952027412907,374.9785714285714L318.67504283266703,374.93357142857144L328.9548829240434,374.83392857142854L339.2347230154198,374.75464285714287L349.5145631067961,374.655L359.79440319817246,374.51464285714286L370.0742432895488,374.2982142857143L380.3540833809252,374.0485714285714L390.63392347230155,373.7914285714285L400.9137635636779,373.185L411.19360365505423,372.81857142857143L421.47344374643063,372.31928571428574L431.75328383780703,371.6903571428571L442.0331239291833,370.86642857142857L452.3129640205597,370.03285714285715L462.592804111936,368.69678571428574L472.8726442033124,367.0982142857143L483.1524842946887,365.17285714285714L493.4323243860651,364.12607142857144L503.7121644774415,361.64785714285716L513.9920045688178,361.64785714285716L524.2718446601942,356.0785714285714L534.5516847515705,352.33178571428573L544.8315248429469,348.48535714285714L555.1113649343233,345.0214285714286L565.3912050256996,341.24357142857144L575.671045117076,336.73607142857145L585.9508852084523,331.03392857142853L596.2307252998287,324.62035714285713L606.510565391205,317.595L616.7904054825814,311.6378571428572L627.0702455739578,306.5067857142857L637.3500856653341,300.8828571428571L647.6299257567105,295.30071428571426L657.9097658480867,288.65464285714285L668.1896059394631,282.3235714285714L678.4694460308395,275.92285714285714L688.7492861222158,270.3332142857143L698.6007995431182,265.99392857142857L708.8806396344946,261.65142857142854L719.1604797258709,256.5278571428571L729.4403198172473,251.5264285714286L739.7201599086236,246.61392857142854L750,241.4657142857143" style="fill: none; stroke: #f58518; stroke-width: 2;"></path></g></g><path class="foreground" d="" style="display: none; fill: none;"></path></g><g transform="translate(0,0)"><path class="background" d="M0,0h750v375h-750Z" style="fill: none;"></path><g><g class="mark-line role-mark marks"><path d="M0,375L10.279840091376355,375L20.55968018275271,375L30.839520274129068,375L41.11936036550542,375L51.39920045688178,375L61.679040548258136,375L71.9588806396345,375L82.23872073101084,375L92.5185608223872,375L102.79840091376356,374.99892857142856L113.07824100513993,374.99892857142856L123.35808109651627,374.99892857142856L133.63792118789263,374.99892857142856L143.917761279269,374.99892857142856L154.19760137064534,374.99892857142856L164.4774414620217,374.99892857142856L174.75728155339806,374.99892857142856L185.0371216447744,374.99785714285713L195.31696173615077,374.99785714285713L205.59680182752712,374.99785714285713L215.87664191890352,374.99785714285713L226.15648201027986,374.99785714285713L236.4363221016562,374.99785714285713L246.71616219303255,374.99785714285713L256.9960022844089,374.99785714285713L267.27584237578526,374.99785714285713L277.55568246716166,374.99785714285713L287.835522558538,374.99785714285713L298.11536264991435,374.99785714285713L308.3952027412907,374.99785714285713L318.67504283266703,374.99785714285713L328.9548829240434,374.99785714285713L339.2347230154198,374.99785714285713L349.5145631067961,374.99357142857144L359.79440319817246,374.98607142857145L370.0742432895488,374.9839285714286L380.3540833809252,374.9657142857143L390.63392347230155,374.9517857142857L400.9137635636779,374.90999999999997L411.19360365505423,374.87142857142857L421.47344374643063,374.8232142857143L431.75328383780703,374.76214285714286L442.0331239291833,374.7225L452.3129640205597,374.57142857142856L462.592804111936,374.4642857142857L472.8726442033124,374.2789285714286L483.1524842946887,373.85035714285715L493.4323243860651,373.18392857142857L503.7121644774415,372.56035714285713L513.9920045688178,372.56035714285713L524.2718446601942,369.39428571428573L534.5516847515705,368.15250000000003L544.8315248429469,366.64500000000004L555.1113649343233,364.34785714285715L565.3912050256996,362.41285714285715L575.671045117076,360.09642857142853L585.9508852084523,355.75392857142856L596.2307252998287,353.13214285714287L606.510565391205,347.81357142857144L616.7904054825814,344.1771428571429L627.0702455739578,337.3542857142857L637.3500856653341,332.2660714285714L647.6299257567105,321.9482142857143L657.9097658480867,313.0864285714286L668.1896059394631,304.5867857142857L678.4694460308395,296.53392857142853L688.7492861222158,289.16785714285714L698.6007995431182,280.76142857142855L708.8806396344946,272.2253571428571L719.1604797258709,263.445L729.4403198172473,254.93035714285713L739.7201599086236,247.2867857142857L750,239.82" style="fill: none; stroke: #e45756; stroke-width: 2;"></path></g></g><path class="foreground" d="" style="display: none; fill: none;"></path></g><g transform="translate(0,0)"><path class="background" d="M0,0h750v375h-750Z" style="fill: none;"></path><g><g class="mark-line role-mark marks"><path d="M0,374.99892857142856L10.279840091376355,374.99892857142856L20.55968018275271,374.99785714285713L30.839520274129068,374.99785714285713L41.11936036550542,374.9946428571428L51.39920045688178,374.9946428571428L61.679040548258136,374.9946428571428L71.9588806396345,374.9946428571428L82.23872073101084,374.9946428571428L92.5185608223872,374.9925L102.79840091376356,374.99142857142857L113.07824100513993,374.99142857142857L123.35808109651627,374.98821428571426L133.63792118789263,374.98821428571426L143.917761279269,374.98821428571426L154.19760137064534,374.98821428571426L164.4774414620217,374.98821428571426L174.75728155339806,374.98821428571426L185.0371216447744,374.98821428571426L195.31696173615077,374.98821428571426L205.59680182752712,374.9871428571428L215.87664191890352,374.9871428571428L226.15648201027986,374.98607142857145L236.4363221016562,374.98607142857145L246.71616219303255,374.98607142857145L256.9960022844089,374.98607142857145L267.27584237578526,374.98607142857145L277.55568246716166,374.98607142857145L287.835522558538,374.98607142857145L298.11536264991435,374.98607142857145L308.3952027412907,374.9839285714286L318.67504283266703,374.9839285714286L328.9548829240434,374.9839285714286L339.2347230154198,374.9453571428571L349.5145631067961,374.9453571428571L359.79440319817246,374.93892857142856L370.0742432895488,374.9378571428571L380.3540833809252,374.93571428571425L390.63392347230155,374.9271428571429L400.9137635636779,374.9207142857143L411.19360365505423,374.89500000000004L421.47344374643063,374.87357142857144L431.75328383780703,374.84035714285716L442.0331239291833,374.76750000000004L452.3129640205597,374.7192857142857L462.592804111936,374.56928571428574L472.8726442033124,374.445L483.1524842946887,374.3753571428571L493.4323243860651,373.9725L503.7121644774415,373.6275L513.9920045688178,373.2182142857143L524.2718446601942,372.66535714285715L534.5516847515705,372.0782142857143L544.8315248429469,371.25107142857144L555.1113649343233,370.03714285714284L565.3912050256996,368.12035714285713L575.671045117076,366.66107142857146L585.9508852084523,360.34607142857146L596.2307252998287,354.5357142857143L606.510565391205,347.6903571428571L616.7904054825814,339.3471428571429L627.0702455739578,328.0210714285714L637.3500856653341,317.4214285714285L647.6299257567105,304.5235714285715L657.9097658480867,285.1757142857143L668.1896059394631,266.08178571428573L678.4694460308395,244.84499999999997L688.7492861222158,224.0507142857143L698.6007995431182,201.63535714285712L708.8806396344946,173.38714285714286L719.1604797258709,146.38714285714286L729.4403198172473,114.15750000000001L739.7201599086236,79.72928571428571L750,44.08928571428571" style="fill: none; stroke: #72b7b2; stroke-width: 2;"></path></g></g><path class="foreground" d="" style="display: none; fill: none;"></path></g><g transform="translate(0,0)"><path class="background" d="M0,0h750v375h-750Z" style="fill: none;"></path><g><g class="mark-line role-mark marks"><path d="M0,375L10.279840091376355,375L20.55968018275271,375L30.839520274129068,375L41.11936036550542,375L51.39920045688178,375L61.679040548258136,375L71.9588806396345,375L82.23872073101084,375L92.5185608223872,374.99785714285713L102.79840091376356,374.99785714285713L113.07824100513993,374.99785714285713L123.35808109651627,374.99785714285713L133.63792118789263,374.99785714285713L143.917761279269,374.99785714285713L154.19760137064534,374.99785714285713L164.4774414620217,374.9967857142857L174.75728155339806,374.9967857142857L185.0371216447744,374.9967857142857L195.31696173615077,374.99142857142857L205.59680182752712,374.99142857142857L215.87664191890352,374.99035714285714L226.15648201027986,374.99035714285714L236.4363221016562,374.99035714285714L246.71616219303255,374.99035714285714L256.9960022844089,374.99035714285714L267.27584237578526,374.99035714285714L277.55568246716166,374.99035714285714L287.835522558538,374.99035714285714L298.11536264991435,374.99035714285714L308.3952027412907,374.99035714285714L318.67504283266703,374.99035714285714L328.9548829240434,374.99035714285714L339.2347230154198,374.98607142857145L349.5145631067961,374.98607142857145L359.79440319817246,374.98607142857145L370.0742432895488,374.9839285714286L380.3540833809252,374.9785714285714L390.63392347230155,374.97535714285715L400.9137635636779,374.96142857142854L411.19360365505423,374.95714285714286L421.47344374643063,374.9453571428571L431.75328383780703,374.90785714285715L442.0331239291833,374.8757142857143L452.3129640205597,374.82428571428574L462.592804111936,374.7782142857143L472.8726442033124,374.70642857142855L483.1524842946887,374.655L493.4323243860651,374.5885714285714L503.7121644774415,374.5082142857143L513.9920045688178,374.5082142857143L524.2718446601942,374.1407142857143L534.5516847515705,373.7742857142857L544.8315248429469,373.7732142857143L555.1113649343233,373.3382142857143L565.3912050256996,372.9L575.671045117076,372.1692857142857L585.9508852084523,372.09000000000003L596.2307252998287,370.69928571428574L606.510565391205,369.57107142857143L616.7904054825814,368.84464285714284L627.0702455739578,367.79357142857145L637.3500856653341,366.2528571428571L647.6299257567105,364.6714285714286L657.9097658480867,362.3442857142857L668.1896059394631,359.20178571428573L678.4694460308395,356.45142857142855L688.7492861222158,353.8071428571428L698.6007995431182,350.9432142857143L708.8806396344946,347.69892857142855L719.1604797258709,343.00178571428575L729.4403198172473,338.3860714285714L739.7201599086236,333.5475L750,329.4889285714286" style="fill: none; stroke: #54a24b; stroke-width: 2;"></path></g></g><path class="foreground" d="" style="display: none; fill: none;"></path></g></g><g class="mark-group role-legend"><g transform="translate(770,0)"><path class="background" d="M0,0h88v79h-88Z" style="pointer-events: none; fill: none;"></path><g><g class="mark-group role-legend-entry"><g transform="translate(0,16)"><path class="background" d="M0,0h0v0h0Z" style="pointer-events: none; fill: none;"></path><g><g class="mark-group role-scope"><g transform="translate(0,0)"><path class="background" d="M0,0h87.15234375v11h-87.15234375Z" style="pointer-events: none; fill: none; opacity: 1;"></path><g><g class="mark-symbol role-legend-symbol" style="pointer-events: none;"><path transform="translate(6,6)" d="M-5,0L5,0" style="fill: none; stroke: #4c78a8; stroke-width: 1.5; opacity: 1;"></path></g><g class="mark-text role-legend-label" style="pointer-events: none;"><text text-anchor="start" transform="translate(16,9)" style="font-family: sans-serif; font-size: 10px; fill: #000; opacity: 1;">China</text></g></g><path class="foreground" d="" style="pointer-events: none; display: none; fill: none;"></path></g><g transform="translate(0,13)"><path class="background" d="M0,0h87.15234375v11h-87.15234375Z" style="pointer-events: none; fill: none; opacity: 1;"></path><g><g class="mark-symbol role-legend-symbol" style="pointer-events: none;"><path transform="translate(6,6)" d="M-5,0L5,0" style="fill: none; stroke: #f58518; stroke-width: 1.5; opacity: 1;"></path></g><g class="mark-text role-legend-label" style="pointer-events: none;"><text text-anchor="start" transform="translate(16,9)" style="font-family: sans-serif; font-size: 10px; fill: #000; opacity: 1;">Italy</text></g></g><path class="foreground" d="" style="pointer-events: none; display: none; fill: none;"></path></g><g transform="translate(0,26)"><path class="background" d="M0,0h87.15234375v11h-87.15234375Z" style="pointer-events: none; fill: none; opacity: 1;"></path><g><g class="mark-symbol role-legend-symbol" style="pointer-events: none;"><path transform="translate(6,6)" d="M-5,0L5,0" style="fill: none; stroke: #e45756; stroke-width: 1.5; opacity: 1;"></path></g><g class="mark-text role-legend-label" style="pointer-events: none;"><text text-anchor="start" transform="translate(16,9)" style="font-family: sans-serif; font-size: 10px; fill: #000; opacity: 1;">Spain</text></g></g><path class="foreground" d="" style="pointer-events: none; display: none; fill: none;"></path></g><g transform="translate(0,39)"><path class="background" d="M0,0h87.15234375v11h-87.15234375Z" style="pointer-events: none; fill: none; opacity: 1;"></path><g><g class="mark-symbol role-legend-symbol" style="pointer-events: none;"><path transform="translate(6,6)" d="M-5,0L5,0" style="fill: none; stroke: #72b7b2; stroke-width: 1.5; opacity: 1;"></path></g><g class="mark-text role-legend-label" style="pointer-events: none;"><text text-anchor="start" transform="translate(16,9)" style="font-family: sans-serif; font-size: 10px; fill: #000; opacity: 1;">US</text></g></g><path class="foreground" d="" style="pointer-events: none; display: none; fill: none;"></path></g><g transform="translate(0,52)"><path class="background" d="M0,0h87.15234375v11h-87.15234375Z" style="pointer-events: none; fill: none; opacity: 1;"></path><g><g class="mark-symbol role-legend-symbol" style="pointer-events: none;"><path transform="translate(6,6)" d="M-5,0L5,0" style="fill: none; stroke: #54a24b; stroke-width: 1.5; opacity: 1;"></path></g><g class="mark-text role-legend-label" style="pointer-events: none;"><text text-anchor="start" transform="translate(16,9)" style="font-family: sans-serif; font-size: 10px; fill: #000; opacity: 1;">United Kingdom</text></g></g><path class="foreground" d="" style="pointer-events: none; display: none; fill: none;"></path></g></g></g><path class="foreground" d="" style="pointer-events: none; display: none; fill: none;"></path></g></g><g class="mark-text role-legend-title" style="pointer-events: none;"><text text-anchor="start" transform="translate(0,9)" style="font-family: sans-serif; font-size: 11px; font-weight: bold; fill: #000; opacity: 1;">country</text></g></g><path class="foreground" d="" style="pointer-events: none; display: none; fill: none;"></path></g></g><g class="mark-group role-title"><g transform="translate(375,-22)"><path class="background" d="M0,0h0v0h0Z" style="pointer-events: none; fill: none;"></path><g><g class="mark-text role-title-text" style="pointer-events: none;"><text text-anchor="middle" transform="translate(0,10)" style="font-family: sans-serif; font-size: 13px; font-weight: bold; fill: #000; opacity: 1;">Confirmed by day in ['China', 'Italy', 'Spain', 'US', 'United Kingdom'] as of 04-04-2020</text></g></g><path class="foreground" d="" style="pointer-events: none; display: none; fill: none;"></path></g></g></g><path class="foreground" d="" style="display: none; fill: none;"></path></g></g></g></svg>