<svg class="marks" width="921" height="439" viewBox="0 0 921 439" version="1.1" xmlns="http://www.w3.org/2000/svg" xmlns:xlink="http://www.w3.org/1999/xlink"><rect width="921" height="439" style="fill: white;"></rect><g transform="translate(58,27)"><g class="mark-group role-frame root"><g transform="translate(0,0)"><path class="background" d="M0.5,0.5h750v375h-750Z" style="fill: none; stroke: #ddd;"></path><g><g class="mark-group role-axis"><g transform="translate(0.5,375.5)"><path class="background" d="M0,0h0v0h0Z" style="pointer-events: none; fill: none;"></path><g><g class="mark-rule role-axis-grid" style="pointer-events: none;"><line transform="translate(41,-375)" x2="0" y2="375" style="fill: none; stroke: #ddd; stroke-width: 1; opacity: 1;"></line><line transform="translate(112,-375)" x2="0" y2="375" style="fill: none; stroke: #ddd; stroke-width: 1; opacity: 1;"></line><line transform="translate(183,-375)" x2="0" y2="375" style="fill: none; stroke: #ddd; stroke-width: 1; opacity: 1;"></line><line transform="translate(254,-375)" x2="0" y2="375" style="fill: none; stroke: #ddd; stroke-width: 1; opacity: 1;"></line><line transform="translate(325,-375)" x2="0" y2="375" style="fill: none; stroke: #ddd; stroke-width: 1; opacity: 1;"></line><line transform="translate(395,-375)" x2="0" y2="375" style="fill: none; stroke: #ddd; stroke-width: 1; opacity: 1;"></line><line transform="translate(466,-375)" x2="0" y2="375" style="fill: none; stroke: #ddd; stroke-width: 1; opacity: 1;"></line><line transform="translate(537,-375)" x2="0" y2="375" style="fill: none; stroke: #ddd; stroke-width: 1; opacity: 1;"></line><line transform="translate(608,-375)" x2="0" y2="375" style="fill: none; stroke: #ddd; stroke-width: 1; opacity: 1;"></line><line transform="translate(679,-375)" x2="0" y2="375" style="fill: none; stroke: #ddd; stroke-width: 1; opacity: 1;"></line><line transform="translate(750,-375)" x2="0" y2="375" style="fill: none; stroke: #ddd; stroke-width: 1; opacity: 1;"></line></g></g><path class="foreground" d="" style="pointer-events: none; display: none; fill: none;"></path></g></g><g class="mark-group role-axis"><g transform="translate(0.5,0.5)"><path class="background" d="M0,0h0v0h0Z" style="pointer-events: none; fill: none;"></path><g><g class="mark-rule role-axis-grid" style="pointer-events: none;"><line transform="translate(0,375)" x2="750" y2="0" style="fill: none; stroke: #ddd; stroke-width: 1; opacity: 1;"></line><line transform="translate(0,328)" x2="750" y2="0" style="fill: none; stroke: #ddd; stroke-width: 1; opacity: 1;"></line><line transform="translate(0,281)" x2="750" y2="0" style="fill: none; stroke: #ddd; stroke-width: 1; opacity: 1;"></line><line transform="translate(0,234)" x2="750" y2="0" style="fill: none; stroke: #ddd; stroke-width: 1; opacity: 1;"></line><line transform="translate(0,188)" x2="750" y2="0" style="fill: none; stroke: #ddd; stroke-width: 1; opacity: 1;"></line><line transform="translate(0,141)" x2="750" y2="0" style="fill: none; stroke: #ddd; stroke-width: 1; opacity: 1;"></line><line transform="translate(0,94)" x2="750" y2="0" style="fill: none; stroke: #ddd; stroke-width: 1; opacity: 1;"></line><line transform="translate(0,47)" x2="750" y2="0" style="fill: none; stroke: #ddd; stroke-width: 1; opacity: 1;"></line><line transform="translate(0,0)" x2="750" y2="0" style="fill: none; stroke: #ddd; stroke-width: 1; opacity: 1;"></line></g></g><path class="foreground" d="" style="pointer-events: none; display: none; fill: none;"></path></g></g><g class="mark-group role-axis"><g transform="translate(0.5,375.5)"><path class="background" d="M0,0h0v0h0Z" style="pointer-events: none; fill: none;"></path><g><g class="mark-rule role-axis-tick" style="pointer-events: none;"><line transform="translate(41,0)" x2="0" y2="5" style="fill: none; stroke: #888; stroke-width: 1; opacity: 1;"></line><line transform="translate(112,0)" x2="0" y2="5" style="fill: none; stroke: #888; stroke-width: 1; opacity: 1;"></line><line transform="translate(183,0)" x2="0" y2="5" style="fill: none; stroke: #888; stroke-width: 1; opacity: 1;"></line><line transform="translate(254,0)" x2="0" y2="5" style="fill: none; stroke: #888; stroke-width: 1; opacity: 1;"></line><line transform="translate(325,0)" x2="0" y2="5" style="fill: none; stroke: #888; stroke-width: 1; opacity: 1;"></line><line transform="translate(395,0)" x2="0" y2="5" style="fill: none; stroke: #888; stroke-width: 1; opacity: 1;"></line><line transform="translate(466,0)" x2="0" y2="5" style="fill: none; stroke: #888; stroke-width: 1; opacity: 1;"></line><line transform="translate(537,0)" x2="0" y2="5" style="fill: none; stroke: #888; stroke-width: 1; opacity: 1;"></line><line transform="translate(608,0)" x2="0" y2="5" style="fill: none; stroke: #888; stroke-width: 1; opacity: 1;"></line><line transform="translate(679,0)" x2="0" y2="5" style="fill: none; stroke: #888; stroke-width: 1; opacity: 1;"></line><line transform="translate(750,0)" x2="0" y2="5" style="fill: none; stroke: #888; stroke-width: 1; opacity: 1;"></line></g><g class="mark-text role-axis-label" style="pointer-events: none;"><text text-anchor="middle" transform="translate(40.563380281690144,15)" style="font-family: sans-serif; font-size: 10px; fill: #000; opacity: 1;">Jan 26</text><text text-anchor="middle" transform="translate(111.54929577464787,15)" style="font-family: sans-serif; font-size: 10px; fill: #000; opacity: 1;">Feb 02</text><text text-anchor="middle" transform="translate(182.53521126760563,15)" style="font-family: sans-serif; font-size: 10px; fill: #000; opacity: 1;">Feb 09</text><text text-anchor="middle" transform="translate(253.52112676056336,15)" style="font-family: sans-serif; font-size: 10px; fill: #000; opacity: 1;">Feb 16</text><text text-anchor="middle" transform="translate(324.50704225352115,15)" style="font-family: sans-serif; font-size: 10px; fill: #000; opacity: 1;">Feb 23</text><text text-anchor="middle" transform="translate(395.4929577464789,15)" style="font-family: sans-serif; font-size: 10px; fill: #000; opacity: 1;">March</text><text text-anchor="middle" transform="translate(466.4788732394366,15)" style="font-family: sans-serif; font-size: 10px; fill: #000; opacity: 1;">Mar 08</text><text text-anchor="middle" transform="translate(537.4647887323944,15)" style="font-family: sans-serif; font-size: 10px; fill: #000; opacity: 1;">Mar 15</text><text text-anchor="middle" transform="translate(608.4507042253522,15)" style="font-family: sans-serif; font-size: 10px; fill: #000; opacity: 1;">Mar 22</text><text text-anchor="middle" transform="translate(679.4366197183098,15)" style="font-family: sans-serif; font-size: 10px; fill: #000; opacity: 1;">Mar 29</text><text text-anchor="end" transform="translate(750,15)" style="font-family: sans-serif; font-size: 10px; fill: #000; opacity: 1;">Apr 05</text></g><g class="mark-rule role-axis-domain" style="pointer-events: none;"><line transform="translate(0,0)" x2="750" y2="0" style="fill: none; stroke: #888; stroke-width: 1; opacity: 1;"></line></g><g class="mark-text role-axis-title" style="pointer-events: none;"><text text-anchor="middle" transform="translate(375,30)" style="font-family: sans-serif; font-size: 11px; font-weight: bold; fill: #000; opacity: 1;">day</text></g></g><path class="foreground" d="" style="pointer-events: none; display: none; fill: none;"></path></g></g><g class="mark-group role-axis"><g transform="translate(0.5,0.5)"><path class="background" d="M0,0h0v0h0Z" style="pointer-events: none; fill: none;"></path><g><g class="mark-rule role-axis-tick" style="pointer-events: none;"><line transform="translate(0,375)" x2="-5" y2="0" style="fill: none; stroke: #888; stroke-width: 1; opacity: 1;"></line><line transform="translate(0,328)" x2="-5" y2="0" style="fill: none; stroke: #888; stroke-width: 1; opacity: 1;"></line><line transform="translate(0,281)" x2="-5" y2="0" style="fill: none; stroke: #888; stroke-width: 1; opacity: 1;"></line><line transform="translate(0,234)" x2="-5" y2="0" style="fill: none; stroke: #888; stroke-width: 1; opacity: 1;"></line><line transform="translate(0,188)" x2="-5" y2="0" style="fill: none; stroke: #888; stroke-width: 1; opacity: 1;"></line><line transform="translate(0,141)" x2="-5" y2="0" style="fill: none; stroke: #888; stroke-width: 1; opacity: 1;"></line><line transform="translate(0,94)" x2="-5" y2="0" style="fill: none; stroke: #888; stroke-width: 1; opacity: 1;"></line><line transform="translate(0,47)" x2="-5" y2="0" style="fill: none; stroke: #888; stroke-width: 1; opacity: 1;"></line><line transform="translate(0,0)" x2="-5" y2="0" style="fill: none; stroke: #888; stroke-width: 1; opacity: 1;"></line></g><g class="mark-text role-axis-label" style="pointer-events: none;"><text text-anchor="end" transform="translate(-7,378)" style="font-family: sans-serif; font-size: 10px; fill: #000; opacity: 1;">0</text><text text-anchor="end" transform="translate(-7,331.125)" style="font-family: sans-serif; font-size: 10px; fill: #000; opacity: 1;">2,000</text><text text-anchor="end" transform="translate(-7,284.25)" style="font-family: sans-serif; font-size: 10px; fill: #000; opacity: 1;">4,000</text><text text-anchor="end" transform="translate(-7,237.375)" style="font-family: sans-serif; font-size: 10px; fill: #000; opacity: 1;">6,000</text><text text-anchor="end" transform="translate(-7,190.5)" style="font-family: sans-serif; font-size: 10px; fill: #000; opacity: 1;">8,000</text><text text-anchor="end" transform="translate(-7,143.625)" style="font-family: sans-serif; font-size: 10px; fill: #000; opacity: 1;">10,000</text><text text-anchor="end" transform="translate(-7,96.75)" style="font-family: sans-serif; font-size: 10px; fill: #000; opacity: 1;">12,000</text><text text-anchor="end" transform="translate(-7,49.875)" style="font-family: sans-serif; font-size: 10px; fill: #000; opacity: 1;">14,000</text><text text-anchor="end" transform="translate(-7,3)" style="font-family: sans-serif; font-size: 10px; fill: #000; opacity: 1;">16,000</text></g><g class="mark-rule role-axis-domain" style="pointer-events: none;"><line transform="translate(0,375)" x2="0" y2="-375" style="fill: none; stroke: #888; stroke-width: 1; opacity: 1;"></line></g><g class="mark-text role-axis-title" style="pointer-events: none;"><text text-anchor="middle" transform="translate(-41.5859375,187.5) rotate(-90) translate(0,-2)" style="font-family: sans-serif; font-size: 11px; font-weight: bold; fill: #000; opacity: 1;">Deaths</text></g></g><path class="foreground" d="" style="pointer-events: none; display: none; fill: none;"></path></g></g><g class="mark-group role-scope pathgroup"><g transform="translate(0,0)"><path class="background" d="M0,0h750v375h-750Z" style="fill: none;"></path><g><g class="mark-line role-mark marks"><path d="M0,374.6015625L10.140845070422536,374.578125L20.281690140845072,374.390625L30.422535211267604,374.015625L40.563380281690144,373.6875L50.70422535211267,373.078125L60.84507042253521,371.9296875L70.98591549295774,371.8828125L81.12676056338029,370.9921875L91.26760563380282,370.0078125L101.40845070422534,368.9296875L111.54929577464787,366.5390625L121.69014084507042,365.0390625L131.83098591549296,363.4921875L141.9718309859155,361.8046875L152.11267605633805,360.1640625L162.25352112676057,358.171875L172.3943661971831,356.1328125L182.53521126760563,353.7890625L192.6760563380282,351.28125L202.8169014084507,348.9375L212.95774647887322,348.8203125L223.09859154929575,342.9140625L233.2394366197183,339.3515625L243.38028169014083,336.0234375L253.52112676056336,333.609375L263.6619718309859,331.3125L273.80281690140845,328.0546875L283.943661971831,325.40625L294.0845070422535,322.546875L304.2253521126761,322.546875L314.3661971830986,317.7421875L324.50704225352115,317.6953125L334.6478873239437,314.1796875L344.7887323943662,312.5390625L354.92957746478874,311.3203125L365.07042253521126,310.640625L375.21126760563385,309.609375L385.3521126760564,308.5078125L395.4929577464789,307.6875L405.6338028169014,306.703125L415.7746478873239,305.9296875L425.91549295774644,305.0859375L436.05633802816897,304.3359375L446.1971830985915,303.65625L456.3380281690141,303L466.4788732394366,302.34375L476.61971830985914,301.8046875L486.76056338028167,301.4296875L496.9014084507042,300.9140625L507.0422535211267,300.65625L517.1830985915493,300.46875L527.3239436619718,300.1640625L537.4647887323944,299.9296875L547.6056338028169,299.6015625L557.7464788732394,299.296875L567.887323943662,299.0390625L578.0281690140845,298.8515625L588.169014084507,298.7578125L598.3098591549295,298.6171875L608.4507042253522,298.265625L618.5915492957747,298.265625L628.7323943661972,298.1015625L638.8732394366198,298.0078125L649.0140845070423,297.8671875L659.1549295774648,297.75L669.2957746478874,297.6796875L679.4366197183098,297.5625L689.1549295774647,297.46875L699.2957746478874,297.4453125L709.4366197183099,297.28125L719.5774647887324,297.140625L729.7183098591549,297.046875L739.8591549295775,296.953125L750,296.8828125" style="fill: none; stroke: #4c78a8; stroke-width: 2;"></path></g></g><path class="foreground" d="" style="display: none; fill: none;"></path></g><g transform="translate(0,0)"><path class="background" d="M0,0h750v375h-750Z" style="fill: none;"></path><g><g class="mark-line role-mark marks"><path d="M0,375L10.140845070422536,375L20.281690140845072,375L30.422535211267604,375L40.563380281690144,375L50.70422535211267,375L60.84507042253521,375L70.98591549295774,375L81.12676056338029,375L91.26760563380282,375L101.40845070422534,375L111.54929577464787,375L121.69014084507042,375L131.83098591549296,375L141.9718309859155,375L152.11267605633805,375L162.25352112676057,375L172.3943661971831,375L182.53521126760563,375L192.6760563380282,375L202.8169014084507,375L212.95774647887322,375L223.09859154929575,375L233.2394366197183,375L243.38028169014083,375L253.52112676056336,375L263.6619718309859,375L273.80281690140845,375L283.943661971831,375L294.0845070422535,375L304.2253521126761,374.9765625L314.3661971830986,374.953125L324.50704225352115,374.9296875L334.6478873239437,374.8359375L344.7887323943662,374.765625L354.92957746478874,374.71875L365.07042253521126,374.6015625L375.21126760563385,374.5078125L385.3521126760564,374.3203125L395.4929577464789,374.203125L405.6338028169014,373.78125L415.7746478873239,373.1484375L425.91549295774644,372.4921875L436.05633802816897,371.53125L446.1971830985915,370.3828125L456.3380281690141,369.5390625L466.4788732394366,366.421875L476.61971830985914,364.1484375L486.76056338028167,360.2109375L496.9014084507042,355.6171875L507.0422535211267,355.6171875L517.1830985915493,345.328125L527.3239436619718,341.2265625L537.4647887323944,332.6015625L547.6056338028169,324.421875L557.7464788732394,316.3359375L567.887323943662,305.203125L578.0281690140845,295.1953125L588.169014084507,280.5L598.3098591549295,261.9140625L608.4507042253522,246.65625000000003L618.5915492957747,232.5703125L628.7323943661972,215.15625L638.8732394366198,199.1484375L649.0140845070423,182.4609375L659.1549295774648,160.921875L669.2957746478874,140.0859375L679.4366197183098,122.3671875L689.1549295774647,103.33593750000001L699.2957746478874,83.71874999999999L709.4366197183099,66.67968750000001L719.5774647887324,48.86718750000002L729.7183098591549,30.91406250000002L739.8591549295775,14.953124999999998L750,2.6484374999999893" style="fill: none; stroke: #9ecae9; stroke-width: 2;"></path></g></g><path class="foreground" d="" style="display: none; fill: none;"></path></g><g transform="translate(0,0)"><path class="background" d="M0,0h750v375h-750Z" style="fill: none;"></path><g><g class="mark-line role-mark marks"><path d="M0,375L10.140845070422536,375L20.281690140845072,375L30.422535211267604,375L40.563380281690144,375L50.70422535211267,375L60.84507042253521,375L70.98591549295774,375L81.12676056338029,375L91.26760563380282,375L101.40845070422534,375L111.54929577464787,375L121.69014084507042,375L131.83098591549296,375L141.9718309859155,375L152.11267605633805,375L162.25352112676057,375L172.3943661971831,375L182.53521126760563,375L192.6760563380282,375L202.8169014084507,375L212.95774647887322,375L223.09859154929575,375L233.2394366197183,375L243.38028169014083,375L253.52112676056336,375L263.6619718309859,375L273.80281690140845,375L283.943661971831,375L294.0845070422535,375L304.2253521126761,375L314.3661971830986,375L324.50704225352115,375L334.6478873239437,375L344.7887323943662,375L354.92957746478874,375L365.07042253521126,375L375.21126760563385,375L385.3521126760564,375L395.4929577464789,375L405.6338028169014,375L415.7746478873239,374.9765625L425.91549295774644,374.953125L436.05633802816897,374.9296875L446.1971830985915,374.8828125L456.3380281690141,374.765625L466.4788732394366,374.6015625L476.61971830985914,374.34375L486.76056338028167,374.1796875L496.9014084507042,373.734375L507.0422535211267,373.7109375L517.1830985915493,371.8828125L527.3239436619718,370.4296875L537.4647887323944,368.2265625L547.6056338028169,366.984375L557.7464788732394,362.5078125L567.887323943662,360.3984375L578.0281690140845,355.546875L588.169014084507,350.5546875L598.3098591549295,342.7734375L608.4507042253522,333.46875L618.5915492957747,320.8359375L628.7323943661972,309.1875L638.8732394366198,289.5234375L649.0140845070423,272.6953125L659.1549295774648,254.578125L669.2957746478874,234.79687500000003L679.4366197183098,215.55468749999997L689.1549295774647,194.15624999999997L699.2957746478874,176.625L709.4366197183099,154.9921875L719.5774647887324,132.46874999999997L729.7183098591549,112.54687499999999L739.8591549295775,94.99218750000001L750,78.7265625" style="fill: none; stroke: #f58518; stroke-width: 2;"></path></g></g><path class="foreground" d="" style="display: none; fill: none;"></path></g><g transform="translate(0,0)"><path class="background" d="M0,0h750v375h-750Z" style="fill: none;"></path><g><g class="mark-line role-mark marks"><path d="M0,375L10.140845070422536,375L20.281690140845072,375L30.422535211267604,375L40.563380281690144,375L50.70422535211267,375L60.84507042253521,375L70.98591549295774,375L81.12676056338029,375L91.26760563380282,375L101.40845070422534,375L111.54929577464787,375L121.69014084507042,375L131.83098591549296,375L141.9718309859155,375L152.11267605633805,375L162.25352112676057,375L172.3943661971831,375L182.53521126760563,375L192.6760563380282,375L202.8169014084507,375L212.95774647887322,375L223.09859154929575,375L233.2394366197183,375L243.38028169014083,375L253.52112676056336,375L263.6619718309859,375L273.80281690140845,375L283.943661971831,375L294.0845070422535,375L304.2253521126761,375L314.3661971830986,375L324.50704225352115,375L334.6478873239437,375L344.7887323943662,375L354.92957746478874,375L365.07042253521126,375L375.21126760563385,375L385.3521126760564,374.9765625L395.4929577464789,374.9765625L405.6338028169014,374.859375L415.7746478873239,374.8359375L425.91549295774644,374.7421875L436.05633802816897,374.71875L446.1971830985915,374.671875L456.3380281690141,374.6015625L466.4788732394366,374.5078125L476.61971830985914,374.484375L486.76056338028167,374.34375L496.9014084507042,374.15625L507.0422535211267,374.0625L517.1830985915493,373.8984375L527.3239436619718,373.734375L537.4647887323944,373.5234375L547.6056338028169,373.0078125L557.7464788732394,372.46875L567.887323943662,372.234375L578.0281690140845,370.3125L588.169014084507,369.28125L598.3098591549295,367.8046875L608.4507042253522,365.2265625L618.5915492957747,361.9453125L628.7323943661972,358.453125L638.8732394366198,352.921875L649.0140845070423,346.6640625L659.1549295774648,337.9453125L669.2957746478874,327.515625L679.4366197183098,317.1796875L689.1549295774647,305.203125L699.2957746478874,284.2265625L709.4366197183099,263.5078125L719.5774647887324,236.109375L729.7183098591549,208.8984375L739.8591549295775,177.9609375L750,149.5546875" style="fill: none; stroke: #ffbf79; stroke-width: 2;"></path></g></g><path class="foreground" d="" style="display: none; fill: none;"></path></g><g transform="translate(0,0)"><path class="background" d="M0,0h750v375h-750Z" style="fill: none;"></path><g><g class="mark-line role-mark marks"><path d="M0,375L10.140845070422536,375L20.281690140845072,375L30.422535211267604,375L40.563380281690144,375L50.70422535211267,375L60.84507042253521,375L70.98591549295774,375L81.12676056338029,375L91.26760563380282,375L101.40845070422534,375L111.54929577464787,375L121.69014084507042,375L131.83098591549296,375L141.9718309859155,375L152.11267605633805,375L162.25352112676057,375L172.3943661971831,375L182.53521126760563,375L192.6760563380282,375L202.8169014084507,375L212.95774647887322,375L223.09859154929575,375L233.2394366197183,375L243.38028169014083,375L253.52112676056336,375L263.6619718309859,375L273.80281690140845,375L283.943661971831,375L294.0845070422535,375L304.2253521126761,375L314.3661971830986,375L324.50704225352115,375L334.6478873239437,375L344.7887323943662,375L354.92957746478874,375L365.07042253521126,375L375.21126760563385,375L385.3521126760564,375L395.4929577464789,375L405.6338028169014,375L415.7746478873239,375L425.91549295774644,375L436.05633802816897,374.9765625L446.1971830985915,374.953125L456.3380281690141,374.953125L466.4788732394366,374.9296875L476.61971830985914,374.90625L486.76056338028167,374.859375L496.9014084507042,374.8125L507.0422535211267,374.8125L517.1830985915493,374.8125L527.3239436619718,374.5078125L537.4647887323944,374.5078125L547.6056338028169,373.6875L557.7464788732394,373.6875L567.887323943662,373.3125L578.0281690140845,371.765625L588.169014084507,370.828125L598.3098591549295,369.515625L608.4507042253522,368.390625L618.5915492957747,367.125L628.7323943661972,365.0859375L638.8732394366198,364.078125L649.0140845070423,361.40625L659.1549295774648,357.1640625L669.2957746478874,351.0703125L679.4366197183098,346.1484375L689.1549295774647,341.9296875L699.2957746478874,332.9765625L709.4366197183099,319.7578125L719.5774647887324,306.421875L729.7183098591549,290.3671875L739.8591549295775,273.75L750,259.1484375" style="fill: none; stroke: #54a24b; stroke-width: 2;"></path></g></g><path class="foreground" d="" style="display: none; fill: none;"></path></g></g><g class="mark-group role-legend"><g transform="translate(770,0)"><path class="background" d="M0,0h88v79h-88Z" style="pointer-events: none; fill: none;"></path><g><g class="mark-group role-legend-entry"><g transform="translate(0,16)"><path class="background" d="M0,0h0v0h0Z" style="pointer-events: none; fill: none;"></path><g><g class="mark-group role-scope"><g transform="translate(0,0)"><path class="background" d="M0,0h87.15234375v11h-87.15234375Z" style="pointer-events: none; fill: none; opacity: 1;"></path><g><g class="mark-symbol role-legend-symbol" style="pointer-events: none;"><path transform="translate(6,6)" d="M-5,0L5,0" style="fill: none; stroke: #4c78a8; stroke-width: 1.5; opacity: 1;"></path></g><g class="mark-text role-legend-label" style="pointer-events: none;"><text text-anchor="start" transform="translate(16,9)" style="font-family: sans-serif; font-size: 10px; fill: #000; opacity: 1;">China</text></g></g><path class="foreground" d="" style="pointer-events: none; display: none; fill: none;"></path></g><g transform="translate(0,13)"><path class="background" d="M0,0h87.15234375v11h-87.15234375Z" style="pointer-events: none; fill: none; opacity: 1;"></path><g><g class="mark-symbol role-legend-symbol" style="pointer-events: none;"><path transform="translate(6,6)" d="M-5,0L5,0" style="fill: none; stroke: #9ecae9; stroke-width: 1.5; opacity: 1;"></path></g><g class="mark-text role-legend-label" style="pointer-events: none;"><text text-anchor="start" transform="translate(16,9)" style="font-family: sans-serif; font-size: 10px; fill: #000; opacity: 1;">Italy</text></g></g><path class="foreground" d="" style="pointer-events: none; display: none; fill: none;"></path></g><g transform="translate(0,26)"><path class="background" d="M0,0h87.15234375v11h-87.15234375Z" style="pointer-events: none; fill: none; opacity: 1;"></path><g><g class="mark-symbol role-legend-symbol" style="pointer-events: none;"><path transform="translate(6,6)" d="M-5,0L5,0" style="fill: none; stroke: #f58518; stroke-width: 1.5; opacity: 1;"></path></g><g class="mark-text role-legend-label" style="pointer-events: none;"><text text-anchor="start" transform="translate(16,9)" style="font-family: sans-serif; font-size: 10px; fill: #000; opacity: 1;">Spain</text></g></g><path class="foreground" d="" style="pointer-events: none; display: none; fill: none;"></path></g><g transform="translate(0,39)"><path class="background" d="M0,0h87.15234375v11h-87.15234375Z" style="pointer-events: none; fill: none; opacity: 1;"></path><g><g class="mark-symbol role-legend-symbol" style="pointer-events: none;"><path transform="translate(6,6)" d="M-5,0L5,0" style="fill: none; stroke: #ffbf79; stroke-width: 1.5; opacity: 1;"></path></g><g class="mark-text role-legend-label" style="pointer-events: none;"><text text-anchor="start" transform="translate(16,9)" style="font-family: sans-serif; font-size: 10px; fill: #000; opacity: 1;">US</text></g></g><path class="foreground" d="" style="pointer-events: none; display: none; fill: none;"></path></g><g transform="translate(0,52)"><path class="background" d="M0,0h87.15234375v11h-87.15234375Z" style="pointer-events: none; fill: none; opacity: 1;"></path><g><g class="mark-symbol role-legend-symbol" style="pointer-events: none;"><path transform="translate(6,6)" d="M-5,0L5,0" style="fill: none; stroke: #54a24b; stroke-width: 1.5; opacity: 1;"></path></g><g class="mark-text role-legend-label" style="pointer-events: none;"><text text-anchor="start" transform="translate(16,9)" style="font-family: sans-serif; font-size: 10px; fill: #000; opacity: 1;">United Kingdom</text></g></g><path class="foreground" d="" style="pointer-events: none; display: none; fill: none;"></path></g></g></g><path class="foreground" d="" style="pointer-events: none; display: none; fill: none;"></path></g></g><g class="mark-text role-legend-title" style="pointer-events: none;"><text text-anchor="start" transform="translate(0,9)" style="font-family: sans-serif; font-size: 11px; font-weight: bold; fill: #000; opacity: 1;">country</text></g></g><path class="foreground" d="" style="pointer-events: none; display: none; fill: none;"></path></g></g><g class="mark-group role-title"><g transform="translate(375,-22)"><path class="background" d="M0,0h0v0h0Z" style="pointer-events: none; fill: none;"></path><g><g class="mark-text role-title-text" style="pointer-events: none;"><text text-anchor="middle" transform="translate(0,10)" style="font-family: sans-serif; font-size: 13px; font-weight: bold; fill: #000; opacity: 1;">Deaths by day in ['China', 'Italy', 'Spain', 'US', 'United Kingdom'] as of 04-05-2020</text></g></g><path class="foreground" d="" style="pointer-events: none; display: none; fill: none;"></path></g></g></g><path class="foreground" d="" style="display: none; fill: none;"></path></g></g></g></svg>