<svg class="marks" width="902" height="439" viewBox="0 0 902 439" version="1.1" xmlns="http://www.w3.org/2000/svg" xmlns:xlink="http://www.w3.org/1999/xlink"><rect width="902" height="439" style="fill: white;"></rect><g transform="translate(39,27)"><g class="mark-group role-frame root"><g transform="translate(0,0)"><path class="background" d="M0.5,0.5h750v375h-750Z" style="fill: none; stroke: #ddd;"></path><g><g class="mark-group role-axis"><g transform="translate(0.5,375.5)"><path class="background" d="M0,0h0v0h0Z" style="pointer-events: none; fill: none;"></path><g><g class="mark-rule role-axis-grid" style="pointer-events: none;"><line transform="translate(38,-375)" x2="0" y2="375" style="fill: none; stroke: #ddd; stroke-width: 1; opacity: 1;"></line><line transform="translate(103,-375)" x2="0" y2="375" style="fill: none; stroke: #ddd; stroke-width: 1; opacity: 1;"></line><line transform="translate(169,-375)" x2="0" y2="375" style="fill: none; stroke: #ddd; stroke-width: 1; opacity: 1;"></line><line transform="translate(234,-375)" x2="0" y2="375" style="fill: none; stroke: #ddd; stroke-width: 1; opacity: 1;"></line><line transform="translate(300,-375)" x2="0" y2="375" style="fill: none; stroke: #ddd; stroke-width: 1; opacity: 1;"></line><line transform="translate(366,-375)" x2="0" y2="375" style="fill: none; stroke: #ddd; stroke-width: 1; opacity: 1;"></line><line transform="translate(431,-375)" x2="0" y2="375" style="fill: none; stroke: #ddd; stroke-width: 1; opacity: 1;"></line><line transform="translate(497,-375)" x2="0" y2="375" style="fill: none; stroke: #ddd; stroke-width: 1; opacity: 1;"></line><line transform="translate(563,-375)" x2="0" y2="375" style="fill: none; stroke: #ddd; stroke-width: 1; opacity: 1;"></line><line transform="translate(628,-375)" x2="0" y2="375" style="fill: none; stroke: #ddd; stroke-width: 1; opacity: 1;"></line><line transform="translate(694,-375)" x2="0" y2="375" style="fill: none; stroke: #ddd; stroke-width: 1; opacity: 1;"></line></g></g><path class="foreground" d="" style="pointer-events: none; display: none; fill: none;"></path></g></g><g class="mark-group role-axis"><g transform="translate(0.5,0.5)"><path class="background" d="M0,0h0v0h0Z" style="pointer-events: none; fill: none;"></path><g><g class="mark-rule role-axis-grid" style="pointer-events: none;"><line transform="translate(0,375)" x2="750" y2="0" style="fill: none; stroke: #ddd; stroke-width: 1; opacity: 1;"></line><line transform="translate(0,338)" x2="750" y2="0" style="fill: none; stroke: #ddd; stroke-width: 1; opacity: 1;"></line><line transform="translate(0,300)" x2="750" y2="0" style="fill: none; stroke: #ddd; stroke-width: 1; opacity: 1;"></line><line transform="translate(0,263)" x2="750" y2="0" style="fill: none; stroke: #ddd; stroke-width: 1; opacity: 1;"></line><line transform="translate(0,225)" x2="750" y2="0" style="fill: none; stroke: #ddd; stroke-width: 1; opacity: 1;"></line><line transform="translate(0,188)" x2="750" y2="0" style="fill: none; stroke: #ddd; stroke-width: 1; opacity: 1;"></line><line transform="translate(0,150)" x2="750" y2="0" style="fill: none; stroke: #ddd; stroke-width: 1; opacity: 1;"></line><line transform="translate(0,113)" x2="750" y2="0" style="fill: none; stroke: #ddd; stroke-width: 1; opacity: 1;"></line><line transform="translate(0,75)" x2="750" y2="0" style="fill: none; stroke: #ddd; stroke-width: 1; opacity: 1;"></line><line transform="translate(0,37)" x2="750" y2="0" style="fill: none; stroke: #ddd; stroke-width: 1; opacity: 1;"></line><line transform="translate(0,0)" x2="750" y2="0" style="fill: none; stroke: #ddd; stroke-width: 1; opacity: 1;"></line></g></g><path class="foreground" d="" style="pointer-events: none; display: none; fill: none;"></path></g></g><g class="mark-group role-axis"><g transform="translate(0.5,375.5)"><path class="background" d="M0,0h0v0h0Z" style="pointer-events: none; fill: none;"></path><g><g class="mark-rule role-axis-tick" style="pointer-events: none;"><line transform="translate(38,0)" x2="0" y2="5" style="fill: none; stroke: #888; stroke-width: 1; opacity: 1;"></line><line transform="translate(103,0)" x2="0" y2="5" style="fill: none; stroke: #888; stroke-width: 1; opacity: 1;"></line><line transform="translate(169,0)" x2="0" y2="5" style="fill: none; stroke: #888; stroke-width: 1; opacity: 1;"></line><line transform="translate(234,0)" x2="0" y2="5" style="fill: none; stroke: #888; stroke-width: 1; opacity: 1;"></line><line transform="translate(300,0)" x2="0" y2="5" style="fill: none; stroke: #888; stroke-width: 1; opacity: 1;"></line><line transform="translate(366,0)" x2="0" y2="5" style="fill: none; stroke: #888; stroke-width: 1; opacity: 1;"></line><line transform="translate(431,0)" x2="0" y2="5" style="fill: none; stroke: #888; stroke-width: 1; opacity: 1;"></line><line transform="translate(497,0)" x2="0" y2="5" style="fill: none; stroke: #888; stroke-width: 1; opacity: 1;"></line><line transform="translate(563,0)" x2="0" y2="5" style="fill: none; stroke: #888; stroke-width: 1; opacity: 1;"></line><line transform="translate(628,0)" x2="0" y2="5" style="fill: none; stroke: #888; stroke-width: 1; opacity: 1;"></line><line transform="translate(694,0)" x2="0" y2="5" style="fill: none; stroke: #888; stroke-width: 1; opacity: 1;"></line></g><g class="mark-text role-axis-label" style="pointer-events: none;"><text text-anchor="middle" transform="translate(37.519541427826994,15)" style="font-family: sans-serif; font-size: 10px; fill: #000; opacity: 1;">Jan 26</text><text text-anchor="middle" transform="translate(103.17873892652422,15)" style="font-family: sans-serif; font-size: 10px; fill: #000; opacity: 1;">Feb 02</text><text text-anchor="middle" transform="translate(168.83793642522147,15)" style="font-family: sans-serif; font-size: 10px; fill: #000; opacity: 1;">Feb 09</text><text text-anchor="middle" transform="translate(234.49713392391868,15)" style="font-family: sans-serif; font-size: 10px; fill: #000; opacity: 1;">Feb 16</text><text text-anchor="middle" transform="translate(300.15633142261595,15)" style="font-family: sans-serif; font-size: 10px; fill: #000; opacity: 1;">Feb 23</text><text text-anchor="middle" transform="translate(365.8155289213132,15)" style="font-family: sans-serif; font-size: 10px; fill: #000; opacity: 1;">March</text><text text-anchor="middle" transform="translate(431.4747264200104,15)" style="font-family: sans-serif; font-size: 10px; fill: #000; opacity: 1;">Mar 08</text><text text-anchor="middle" transform="translate(497.1339239187077,15)" style="font-family: sans-serif; font-size: 10px; fill: #000; opacity: 1;">Mar 15</text><text text-anchor="middle" transform="translate(562.7931214174049,15)" style="font-family: sans-serif; font-size: 10px; fill: #000; opacity: 1;">Mar 22</text><text text-anchor="middle" transform="translate(628.4523189161022,15)" style="font-family: sans-serif; font-size: 10px; fill: #000; opacity: 1;">Mar 29</text><text text-anchor="middle" transform="translate(693.7206878582596,15)" style="font-family: sans-serif; font-size: 10px; fill: #000; opacity: 1;">Apr 05</text></g><g class="mark-rule role-axis-domain" style="pointer-events: none;"><line transform="translate(0,0)" x2="750" y2="0" style="fill: none; stroke: #888; stroke-width: 1; opacity: 1;"></line></g><g class="mark-text role-axis-title" style="pointer-events: none;"><text text-anchor="middle" transform="translate(375,30)" style="font-family: sans-serif; font-size: 11px; font-weight: bold; fill: #000; opacity: 1;">day</text></g></g><path class="foreground" d="" style="pointer-events: none; display: none; fill: none;"></path></g></g><g class="mark-group role-axis"><g transform="translate(0.5,0.5)"><path class="background" d="M0,0h0v0h0Z" style="pointer-events: none; fill: none;"></path><g><g class="mark-rule role-axis-tick" style="pointer-events: none;"><line transform="translate(0,375)" x2="-5" y2="0" style="fill: none; stroke: #888; stroke-width: 1; opacity: 1;"></line><line transform="translate(0,338)" x2="-5" y2="0" style="fill: none; stroke: #888; stroke-width: 1; opacity: 1;"></line><line transform="translate(0,300)" x2="-5" y2="0" style="fill: none; stroke: #888; stroke-width: 1; opacity: 1;"></line><line transform="translate(0,263)" x2="-5" y2="0" style="fill: none; stroke: #888; stroke-width: 1; opacity: 1;"></line><line transform="translate(0,225)" x2="-5" y2="0" style="fill: none; stroke: #888; stroke-width: 1; opacity: 1;"></line><line transform="translate(0,188)" x2="-5" y2="0" style="fill: none; stroke: #888; stroke-width: 1; opacity: 1;"></line><line transform="translate(0,150)" x2="-5" y2="0" style="fill: none; stroke: #888; stroke-width: 1; opacity: 1;"></line><line transform="translate(0,113)" x2="-5" y2="0" style="fill: none; stroke: #888; stroke-width: 1; opacity: 1;"></line><line transform="translate(0,75)" x2="-5" y2="0" style="fill: none; stroke: #888; stroke-width: 1; opacity: 1;"></line><line transform="translate(0,37)" x2="-5" y2="0" style="fill: none; stroke: #888; stroke-width: 1; opacity: 1;"></line><line transform="translate(0,0)" x2="-5" y2="0" style="fill: none; stroke: #888; stroke-width: 1; opacity: 1;"></line></g><g class="mark-text role-axis-label" style="pointer-events: none;"><text text-anchor="end" transform="translate(-7,378)" style="font-family: sans-serif; font-size: 10px; fill: #000; opacity: 1;">0</text><text text-anchor="end" transform="translate(-7,340.5)" style="font-family: sans-serif; font-size: 10px; fill: #000; opacity: 1;">1</text><text text-anchor="end" transform="translate(-7,303)" style="font-family: sans-serif; font-size: 10px; fill: #000; opacity: 1;">2</text><text text-anchor="end" transform="translate(-7,265.5)" style="font-family: sans-serif; font-size: 10px; fill: #000; opacity: 1;">3</text><text text-anchor="end" transform="translate(-7,228)" style="font-family: sans-serif; font-size: 10px; fill: #000; opacity: 1;">4</text><text text-anchor="end" transform="translate(-7,190.5)" style="font-family: sans-serif; font-size: 10px; fill: #000; opacity: 1;">5</text><text text-anchor="end" transform="translate(-7,153)" style="font-family: sans-serif; font-size: 10px; fill: #000; opacity: 1;">6</text><text text-anchor="end" transform="translate(-7,115.50000000000001)" style="font-family: sans-serif; font-size: 10px; fill: #000; opacity: 1;">7</text><text text-anchor="end" transform="translate(-7,77.99999999999999)" style="font-family: sans-serif; font-size: 10px; fill: #000; opacity: 1;">8</text><text text-anchor="end" transform="translate(-7,40.49999999999999)" style="font-family: sans-serif; font-size: 10px; fill: #000; opacity: 1;">9</text><text text-anchor="end" transform="translate(-7,3)" style="font-family: sans-serif; font-size: 10px; fill: #000; opacity: 1;">10</text></g><g class="mark-rule role-axis-domain" style="pointer-events: none;"><line transform="translate(0,375)" x2="0" y2="-375" style="fill: none; stroke: #888; stroke-width: 1; opacity: 1;"></line></g><g class="mark-text role-axis-title" style="pointer-events: none;"><text text-anchor="middle" transform="translate(-22.123046875,187.5) rotate(-90) translate(0,-2)" style="font-family: sans-serif; font-size: 11px; font-weight: bold; fill: #000; opacity: 1;">LogDeaths</text></g></g><path class="foreground" d="" style="pointer-events: none; display: none; fill: none;"></path></g></g><g class="mark-group role-scope pathgroup"><g transform="translate(0,0)"><path class="background" d="M0,0h750v375h-750Z" style="fill: none;"></path><g><g class="mark-line role-mark marks"><path d="M0,268.75449959789194L9.379885356956748,266.61105907889385L18.759770713913497,252.82137982419442L28.139656070870245,234.8373893143737L37.519541427826994,224.0493115974319L46.89942678478375,209.74802822759048L56.27931214174049,192.18010037995683L65.65919749869724,191.61190769168422L75.03908285565399,182.18761663115023L84.41896821261074,173.95154378589652L93.7988535695675,166.61894768626738L103.17873892652422,154.16707656251697L112.55862428348098,148.04665616533435L121.93850964043773,142.63334520770547L131.31839499739448,137.5020139447616L140.69828035435123,133.10735916959342L150.07816571130797,128.38239116069158L159.45805106826472,124.09341459680385L168.83793642522147,119.70243961125279L178.21782178217822,115.51185563072208L187.597707139135,111.9781696946052L196.97759249609172,111.80993253490499L206.35747785304844,104.18115655168319L215.7373632100052,100.23287654027655L225.11724856696196,96.88580703026521L234.49713392391868,94.63228570635354L243.87701928087546,92.60700017829241L253.2569046378322,89.90994991253181L262.63678999478896,87.85189526331786L272.0166753517457,85.74982916730485L281.39656070870245,85.74982916730485L290.77644606565923,82.46317232783473L300.15633142261595,82.43248492841353L309.5362167795727,80.19968266500042L318.91610213652945,79.20152487750208L328.29598749348617,78.47686464651196L337.67587285044294,78.07872801270314L347.05575820739966,77.48261719442209L356.43564356435644,76.85615869466807L365.8155289213132,76.39635261869567L375.19541427827,75.85192549668186L384.57529963522666,75.42963814733648L393.95518499218343,74.97432058069695L403.3350703491402,74.57418340645175L412.7149557060969,74.21521053819089L422.09484106305365,73.87184646496638L431.4747264200104,73.5315978572536L440.85461177696715,73.25439910188457L450.2344971339239,73.06276661842678L459.6143824908807,72.8008607919143L468.99426784783736,72.67059064669726L478.37415320479414,72.57613215846669L487.7540385617509,72.4231427731957L497.1339239187077,72.30588188965658L506.5138092756644,72.14233022853652L515.8936946326212,71.99109689187367L525.2735799895779,71.86360488219198L534.6534653465346,71.77115491240872L544.0333507034914,71.72501525724931L553.4132360604482,71.65591204359146L562.7931214174049,71.48370907758452L572.1730067743616,71.48370907758452L581.5528921313185,71.40361751395872L590.9327774882751,71.35792759054836L600.3126628452319,71.2894969146248L609.6925482021886,71.23256658639889L619.0724335591455,71.19844982892819L628.4523189161022,71.14165745096744L637.441375716519,71.09628539461566L646.8212610734757,71.08495095293952L656.2011464304325,71.00570564043055L665.5810317873893,70.9379141185035L674.960917144346,70.8927877592673L684.3408025013027,70.84771563845668L693.7206878582596,70.81394706345975L703.1005732152163,70.79145156188537L712.480458572173,70.79145156188537L721.8603439291297,70.76896954682346L731.2402292860866,70.74650100211298L740.6201146430433,70.73527177609698L750,70.70160425924632" style="fill: none; stroke: #4c78a8; stroke-width: 2;"></path></g></g><path class="foreground" d="" style="display: none; fill: none;"></path></g><g transform="translate(0,0)"><path class="background" d="M0,0h750v375h-750Z" style="fill: none;"></path><g><g class="mark-line role-mark marks"><path d="M281.39656070870245,375L290.77644606565923,349.00698072900207L300.15633142261595,333.8020391749459L309.5362167795727,302.02836941042574L318.91610213652945,288.65305901272325L328.29598749348617,281.81600063295L337.67587285044294,268.75449959789194L347.05575820739966,260.83040858537163L356.43564356435644,248.72640637550722L365.8155289213132,242.76148032689395L375.19541427827,226.82836055319646L384.57529963522666,211.14570553248672L393.95518499218343,199.76891870767852L403.3350703491402,187.6045397338457L412.7149557060969,176.87986017232544L422.09484106305365,170.58605799128625L431.4747264200104,153.6512499974488L440.85461177696715,144.83523547176623L450.2344971339239,133.22603015470452L459.6143824908807,123.08232393661157L468.99426784783736,123.08232393661157L478.37415320479414,107.11433989859546L487.7540385617509,102.25902765001793L497.1339239187077,93.73014429767643L506.5138092756644,87.114857031822L515.8936946326212,81.55330157130844L525.2735799895779,75.0372295033517L534.6534653465346,70.01249180311453L544.0333507034914,63.67433213432984L553.4132360604482,56.94127448350926L562.7931214174049,52.195118009687235L572.1730067743616,48.29000879492419L581.5528921313185,43.96444684359345L590.9327774882751,40.38531676703518L600.3126628452319,36.98561135732367L609.6925482021886,33.00903773456455L619.0724335591455,29.526085086567512L628.4523189161022,26.799184658188896L637.441375716519,24.07559197917207L646.8212610734757,21.46097735576481L656.2011464304325,19.32910524471029L665.5810317873893,17.22289972650036L674.960917144346,15.213396759770264L684.3408025013027,13.513042254051463L693.7206878582596,12.252883360499137L703.1005732152163,10.78092642558784L712.480458572173,9.434570826286167L721.8603439291297,8.266238601875669L731.2402292860866,6.993444790627371L740.6201146430433,5.8419322098353375L750,4.630223589249555" style="fill: none; stroke: #9ecae9; stroke-width: 2;"></path></g></g><path class="foreground" d="" style="display: none; fill: none;"></path></g><g transform="translate(0,0)"><path class="background" d="M0,0h750v375h-750Z" style="fill: none;"></path><g><g class="mark-line role-mark marks"><path d="M384.57529963522666,375L393.95518499218343,349.00698072900207L403.3350703491402,333.8020391749459L412.7149557060969,314.64607828372124L422.09484106305365,288.65305901272325L431.4747264200104,268.75449959789194L440.85461177696715,250.04233086842984L450.2344971339239,241.67444769414698L459.6143824908807,225.4130982538397L468.99426784783736,224.72500555378232L478.37415320479414,191.61190769168422L487.7540385617509,177.26251655385948L497.1339239187077,162.5089991957838L506.5138092756644,156.19459736015233L515.8936946326212,139.55544659378086L525.2735799895779,133.7045055454705L534.6534653465346,122.94653622035088L544.0333507034914,114.38038293747104L553.4132360604482,104.01716212122481L562.7931214174049,94.50509508131152L572.1730067743616,84.54616461471073L581.5528921313185,77.24145880703617L590.9327774882751,67.43774284467452L600.3126628452319,60.69849493973614L609.6925482021886,54.58428083738143L619.0724335591455,48.88086603037901L628.4523189161022,44.05803861206023L637.441375716519,39.33557347403928L646.8212610734757,35.86585672132195L656.2011464304325,31.98446128736279L665.5810317873893,28.329429626028023L674.960917144346,25.369107378418562L684.3408025013027,22.9411695068541L693.7206878582596,20.823720806416603L703.1005732152163,18.80260203079476L712.480458572173,16.874184767312077L721.8603439291297,14.93093350998899L731.2402292860866,13.306121673215626L740.6201146430433,11.797735130474107L750,10.593024194175932" style="fill: none; stroke: #f58518; stroke-width: 2;"></path></g></g><path class="foreground" d="" style="display: none; fill: none;"></path></g><g transform="translate(0,0)"><path class="background" d="M0,0h750v375h-750Z" style="fill: none;"></path><g><g class="mark-line role-mark marks"><path d="M356.43564356435644,375L365.8155289213132,375L375.19541427827,307.80901990394796L384.57529963522666,302.02836941042574L393.95518499218343,285.0789272700611L403.3350703491402,281.81600063295L412.7149557060969,276.0353501394278L422.09484106305365,268.75449959789194L431.4747264200104,260.83040858537163L440.85461177696715,259.0859079990632L450.2344971339239,250.04233086842984L459.6143824908807,240.61803980789588L468.99426784783736,236.6670204707274L478.37415320479414,230.6194649358728L487.7540385617509,225.4130982538397L497.1339239187077,219.63244776031752L506.5138092756644,208.40057788161315L515.8936946326212,199.42007898284174L525.2735799895779,196.09932658253754L534.6534653465346,176.31309875444862L544.0333507034914,168.85619155150493L553.4132360604482,160.2432094654801L562.7931214174049,148.75926668254496L572.1730067743616,137.90380350272682L581.5528921313185,129.01442859400345L590.9327774882751,118.19980220338638L600.3126628452319,108.8419181019453L609.6925482021886,98.78201860464479L619.0724335591455,89.48179931967643L628.4523189161022,82.0965706301491L637.441375716519,75.0372295033517L646.8212610734757,65.1830745181968L656.2011464304325,57.47353138378944L665.5810317873893,49.23357269499337L674.960917144346,42.52434754461542L684.3408025013027,36.1192510824264L693.7206878582596,31.068915444276936L703.1005732152163,26.785271291922292L712.480458572173,20.58419785354691L721.8603439291297,15.177653293011877L731.2402292860866,10.883196117167385L740.6201146430433,6.36885419560182L750,2.7609878878939176" style="fill: none; stroke: #ffbf79; stroke-width: 2;"></path></g></g><path class="foreground" d="" style="display: none; fill: none;"></path></g><g transform="translate(0,0)"><path class="background" d="M0,0h750v375h-750Z" style="fill: none;"></path><g><g class="mark-line role-mark marks"><path d="M403.3350703491402,375L412.7149557060969,349.00698072900207L422.09484106305365,349.00698072900207L431.4747264200104,333.8020391749459L440.85461177696715,323.0139614580041L450.2344971339239,307.80901990394796L459.6143824908807,297.02094218700614L468.99426784783736,297.02094218700614L478.37415320479414,297.02094218700614L487.7540385617509,260.83040858537163L497.1339239187077,260.83040858537163L506.5138092756644,224.0493115974319L515.8936946326212,224.0493115974319L525.2735799895779,214.62502053689795L534.6534653465346,190.22798680660483L544.0333507034914,180.6831168640468L553.4132360604482,170.42545817408617L562.7931214174049,163.42848483982073L572.1730067743616,156.85833150137984L581.5528921313185,148.2235432857646L590.9327774882751,144.59303872028832L600.3126628452319,136.38644611723257L609.6925482021886,126.20124908018678L619.0724335591455,115.17983181882506L628.4523189161022,108.16567026808296L637.441375716519,103.04797680551944L646.8212610734757,94.06329473980752L656.2011464304325,83.80706613989506L665.5810317873893,75.69781569074739L674.960917144346,67.80974920209536L684.3408025013027,61.08709945356916L693.7206878582596,56.03521075098905L703.1005732152163,52.8235278903567L712.480458572173,47.714393312959984L721.8603439291297,42.39756900436807L731.2402292860866,38.01294608902428L740.6201146430433,33.6717455049027L750,30.019438925951018" style="fill: none; stroke: #54a24b; stroke-width: 2;"></path></g></g><path class="foreground" d="" style="display: none; fill: none;"></path></g></g><g class="mark-group role-legend"><g transform="translate(770,0)"><path class="background" d="M0,0h88v79h-88Z" style="pointer-events: none; fill: none;"></path><g><g class="mark-group role-legend-entry"><g transform="translate(0,16)"><path class="background" d="M0,0h0v0h0Z" style="pointer-events: none; fill: none;"></path><g><g class="mark-group role-scope"><g transform="translate(0,0)"><path class="background" d="M0,0h87.15234375v11h-87.15234375Z" style="pointer-events: none; fill: none; opacity: 1;"></path><g><g class="mark-symbol role-legend-symbol" style="pointer-events: none;"><path transform="translate(6,6)" d="M-5,0L5,0" style="fill: none; stroke: #4c78a8; stroke-width: 1.5; opacity: 1;"></path></g><g class="mark-text role-legend-label" style="pointer-events: none;"><text text-anchor="start" transform="translate(16,9)" style="font-family: sans-serif; font-size: 10px; fill: #000; opacity: 1;">China</text></g></g><path class="foreground" d="" style="pointer-events: none; display: none; fill: none;"></path></g><g transform="translate(0,13)"><path class="background" d="M0,0h87.15234375v11h-87.15234375Z" style="pointer-events: none; fill: none; opacity: 1;"></path><g><g class="mark-symbol role-legend-symbol" style="pointer-events: none;"><path transform="translate(6,6)" d="M-5,0L5,0" style="fill: none; stroke: #9ecae9; stroke-width: 1.5; opacity: 1;"></path></g><g class="mark-text role-legend-label" style="pointer-events: none;"><text text-anchor="start" transform="translate(16,9)" style="font-family: sans-serif; font-size: 10px; fill: #000; opacity: 1;">Italy</text></g></g><path class="foreground" d="" style="pointer-events: none; display: none; fill: none;"></path></g><g transform="translate(0,26)"><path class="background" d="M0,0h87.15234375v11h-87.15234375Z" style="pointer-events: none; fill: none; opacity: 1;"></path><g><g class="mark-symbol role-legend-symbol" style="pointer-events: none;"><path transform="translate(6,6)" d="M-5,0L5,0" style="fill: none; stroke: #f58518; stroke-width: 1.5; opacity: 1;"></path></g><g class="mark-text role-legend-label" style="pointer-events: none;"><text text-anchor="start" transform="translate(16,9)" style="font-family: sans-serif; font-size: 10px; fill: #000; opacity: 1;">Spain</text></g></g><path class="foreground" d="" style="pointer-events: none; display: none; fill: none;"></path></g><g transform="translate(0,39)"><path class="background" d="M0,0h87.15234375v11h-87.15234375Z" style="pointer-events: none; fill: none; opacity: 1;"></path><g><g class="mark-symbol role-legend-symbol" style="pointer-events: none;"><path transform="translate(6,6)" d="M-5,0L5,0" style="fill: none; stroke: #ffbf79; stroke-width: 1.5; opacity: 1;"></path></g><g class="mark-text role-legend-label" style="pointer-events: none;"><text text-anchor="start" transform="translate(16,9)" style="font-family: sans-serif; font-size: 10px; fill: #000; opacity: 1;">US</text></g></g><path class="foreground" d="" style="pointer-events: none; display: none; fill: none;"></path></g><g transform="translate(0,52)"><path class="background" d="M0,0h87.15234375v11h-87.15234375Z" style="pointer-events: none; fill: none; opacity: 1;"></path><g><g class="mark-symbol role-legend-symbol" style="pointer-events: none;"><path transform="translate(6,6)" d="M-5,0L5,0" style="fill: none; stroke: #54a24b; stroke-width: 1.5; opacity: 1;"></path></g><g class="mark-text role-legend-label" style="pointer-events: none;"><text text-anchor="start" transform="translate(16,9)" style="font-family: sans-serif; font-size: 10px; fill: #000; opacity: 1;">United Kingdom</text></g></g><path class="foreground" d="" style="pointer-events: none; display: none; fill: none;"></path></g></g></g><path class="foreground" d="" style="pointer-events: none; display: none; fill: none;"></path></g></g><g class="mark-text role-legend-title" style="pointer-events: none;"><text text-anchor="start" transform="translate(0,9)" style="font-family: sans-serif; font-size: 11px; font-weight: bold; fill: #000; opacity: 1;">country</text></g></g><path class="foreground" d="" style="pointer-events: none; display: none; fill: none;"></path></g></g><g class="mark-group role-title"><g transform="translate(375,-22)"><path class="background" d="M0,0h0v0h0Z" style="pointer-events: none; fill: none;"></path><g><g class="mark-text role-title-text" style="pointer-events: none;"><text text-anchor="middle" transform="translate(0,10)" style="font-family: sans-serif; font-size: 13px; font-weight: bold; fill: #000; opacity: 1;">LogDeaths by day in ['China', 'Italy', 'Spain', 'US', 'United Kingdom'] as of 04-11-2020</text></g></g><path class="foreground" d="" style="pointer-events: none; display: none; fill: none;"></path></g></g></g><path class="foreground" d="" style="display: none; fill: none;"></path></g></g></g></svg>