<svg class="marks" width="902" height="439" viewBox="0 0 902 439" version="1.1" xmlns="http://www.w3.org/2000/svg" xmlns:xlink="http://www.w3.org/1999/xlink"><rect width="902" height="439" style="fill: white;"></rect><g transform="translate(39,27)"><g class="mark-group role-frame root"><g transform="translate(0,0)"><path class="background" d="M0.5,0.5h750v375h-750Z" style="fill: none; stroke: #ddd;"></path><g><g class="mark-group role-axis"><g transform="translate(0.5,375.5)"><path class="background" d="M0,0h0v0h0Z" style="pointer-events: none; fill: none;"></path><g><g class="mark-rule role-axis-grid" style="pointer-events: none;"><line transform="translate(40,-375)" x2="0" y2="375" style="fill: none; stroke: #ddd; stroke-width: 1; opacity: 1;"></line><line transform="translate(110,-375)" x2="0" y2="375" style="fill: none; stroke: #ddd; stroke-width: 1; opacity: 1;"></line><line transform="translate(180,-375)" x2="0" y2="375" style="fill: none; stroke: #ddd; stroke-width: 1; opacity: 1;"></line><line transform="translate(250,-375)" x2="0" y2="375" style="fill: none; stroke: #ddd; stroke-width: 1; opacity: 1;"></line><line transform="translate(320,-375)" x2="0" y2="375" style="fill: none; stroke: #ddd; stroke-width: 1; opacity: 1;"></line><line transform="translate(390,-375)" x2="0" y2="375" style="fill: none; stroke: #ddd; stroke-width: 1; opacity: 1;"></line><line transform="translate(460,-375)" x2="0" y2="375" style="fill: none; stroke: #ddd; stroke-width: 1; opacity: 1;"></line><line transform="translate(530,-375)" x2="0" y2="375" style="fill: none; stroke: #ddd; stroke-width: 1; opacity: 1;"></line><line transform="translate(600,-375)" x2="0" y2="375" style="fill: none; stroke: #ddd; stroke-width: 1; opacity: 1;"></line><line transform="translate(670,-375)" x2="0" y2="375" style="fill: none; stroke: #ddd; stroke-width: 1; opacity: 1;"></line><line transform="translate(740,-375)" x2="0" y2="375" style="fill: none; stroke: #ddd; stroke-width: 1; opacity: 1;"></line></g></g><path class="foreground" d="" style="pointer-events: none; display: none; fill: none;"></path></g></g><g class="mark-group role-axis"><g transform="translate(0.5,0.5)"><path class="background" d="M0,0h0v0h0Z" style="pointer-events: none; fill: none;"></path><g><g class="mark-rule role-axis-grid" style="pointer-events: none;"><line transform="translate(0,375)" x2="750" y2="0" style="fill: none; stroke: #ddd; stroke-width: 1; opacity: 1;"></line><line transform="translate(0,338)" x2="750" y2="0" style="fill: none; stroke: #ddd; stroke-width: 1; opacity: 1;"></line><line transform="translate(0,300)" x2="750" y2="0" style="fill: none; stroke: #ddd; stroke-width: 1; opacity: 1;"></line><line transform="translate(0,263)" x2="750" y2="0" style="fill: none; stroke: #ddd; stroke-width: 1; opacity: 1;"></line><line transform="translate(0,225)" x2="750" y2="0" style="fill: none; stroke: #ddd; stroke-width: 1; opacity: 1;"></line><line transform="translate(0,188)" x2="750" y2="0" style="fill: none; stroke: #ddd; stroke-width: 1; opacity: 1;"></line><line transform="translate(0,150)" x2="750" y2="0" style="fill: none; stroke: #ddd; stroke-width: 1; opacity: 1;"></line><line transform="translate(0,113)" x2="750" y2="0" style="fill: none; stroke: #ddd; stroke-width: 1; opacity: 1;"></line><line transform="translate(0,75)" x2="750" y2="0" style="fill: none; stroke: #ddd; stroke-width: 1; opacity: 1;"></line><line transform="translate(0,37)" x2="750" y2="0" style="fill: none; stroke: #ddd; stroke-width: 1; opacity: 1;"></line><line transform="translate(0,0)" x2="750" y2="0" style="fill: none; stroke: #ddd; stroke-width: 1; opacity: 1;"></line></g></g><path class="foreground" d="" style="pointer-events: none; display: none; fill: none;"></path></g></g><g class="mark-group role-axis"><g transform="translate(0.5,375.5)"><path class="background" d="M0,0h0v0h0Z" style="pointer-events: none; fill: none;"></path><g><g class="mark-rule role-axis-tick" style="pointer-events: none;"><line transform="translate(40,0)" x2="0" y2="5" style="fill: none; stroke: #888; stroke-width: 1; opacity: 1;"></line><line transform="translate(110,0)" x2="0" y2="5" style="fill: none; stroke: #888; stroke-width: 1; opacity: 1;"></line><line transform="translate(180,0)" x2="0" y2="5" style="fill: none; stroke: #888; stroke-width: 1; opacity: 1;"></line><line transform="translate(250,0)" x2="0" y2="5" style="fill: none; stroke: #888; stroke-width: 1; opacity: 1;"></line><line transform="translate(320,0)" x2="0" y2="5" style="fill: none; stroke: #888; stroke-width: 1; opacity: 1;"></line><line transform="translate(390,0)" x2="0" y2="5" style="fill: none; stroke: #888; stroke-width: 1; opacity: 1;"></line><line transform="translate(460,0)" x2="0" y2="5" style="fill: none; stroke: #888; stroke-width: 1; opacity: 1;"></line><line transform="translate(530,0)" x2="0" y2="5" style="fill: none; stroke: #888; stroke-width: 1; opacity: 1;"></line><line transform="translate(600,0)" x2="0" y2="5" style="fill: none; stroke: #888; stroke-width: 1; opacity: 1;"></line><line transform="translate(670,0)" x2="0" y2="5" style="fill: none; stroke: #888; stroke-width: 1; opacity: 1;"></line><line transform="translate(740,0)" x2="0" y2="5" style="fill: none; stroke: #888; stroke-width: 1; opacity: 1;"></line></g><g class="mark-text role-axis-label" style="pointer-events: none;"><text text-anchor="middle" transform="translate(40.02223457476376,15)" style="font-family: sans-serif; font-size: 10px; fill: #000; opacity: 1;">Jan 26</text><text text-anchor="middle" transform="translate(110.06114508060034,15)" style="font-family: sans-serif; font-size: 10px; fill: #000; opacity: 1;">Feb 02</text><text text-anchor="middle" transform="translate(180.10005558643692,15)" style="font-family: sans-serif; font-size: 10px; fill: #000; opacity: 1;">Feb 09</text><text text-anchor="middle" transform="translate(250.13896609227348,15)" style="font-family: sans-serif; font-size: 10px; fill: #000; opacity: 1;">Feb 16</text><text text-anchor="middle" transform="translate(320.17787659811006,15)" style="font-family: sans-serif; font-size: 10px; fill: #000; opacity: 1;">Feb 23</text><text text-anchor="middle" transform="translate(390.2167871039467,15)" style="font-family: sans-serif; font-size: 10px; fill: #000; opacity: 1;">March</text><text text-anchor="middle" transform="translate(460.2556976097832,15)" style="font-family: sans-serif; font-size: 10px; fill: #000; opacity: 1;">Mar 08</text><text text-anchor="middle" transform="translate(530.2946081156198,15)" style="font-family: sans-serif; font-size: 10px; fill: #000; opacity: 1;">Mar 15</text><text text-anchor="middle" transform="translate(600.3335186214564,15)" style="font-family: sans-serif; font-size: 10px; fill: #000; opacity: 1;">Mar 22</text><text text-anchor="middle" transform="translate(670.372429127293,15)" style="font-family: sans-serif; font-size: 10px; fill: #000; opacity: 1;">Mar 29</text><text text-anchor="middle" transform="translate(739.9944413563092,15)" style="font-family: sans-serif; font-size: 10px; fill: #000; opacity: 1;">Apr 05</text></g><g class="mark-rule role-axis-domain" style="pointer-events: none;"><line transform="translate(0,0)" x2="750" y2="0" style="fill: none; stroke: #888; stroke-width: 1; opacity: 1;"></line></g><g class="mark-text role-axis-title" style="pointer-events: none;"><text text-anchor="middle" transform="translate(375,30)" style="font-family: sans-serif; font-size: 11px; font-weight: bold; fill: #000; opacity: 1;">day</text></g></g><path class="foreground" d="" style="pointer-events: none; display: none; fill: none;"></path></g></g><g class="mark-group role-axis"><g transform="translate(0.5,0.5)"><path class="background" d="M0,0h0v0h0Z" style="pointer-events: none; fill: none;"></path><g><g class="mark-rule role-axis-tick" style="pointer-events: none;"><line transform="translate(0,375)" x2="-5" y2="0" style="fill: none; stroke: #888; stroke-width: 1; opacity: 1;"></line><line transform="translate(0,338)" x2="-5" y2="0" style="fill: none; stroke: #888; stroke-width: 1; opacity: 1;"></line><line transform="translate(0,300)" x2="-5" y2="0" style="fill: none; stroke: #888; stroke-width: 1; opacity: 1;"></line><line transform="translate(0,263)" x2="-5" y2="0" style="fill: none; stroke: #888; stroke-width: 1; opacity: 1;"></line><line transform="translate(0,225)" x2="-5" y2="0" style="fill: none; stroke: #888; stroke-width: 1; opacity: 1;"></line><line transform="translate(0,188)" x2="-5" y2="0" style="fill: none; stroke: #888; stroke-width: 1; opacity: 1;"></line><line transform="translate(0,150)" x2="-5" y2="0" style="fill: none; stroke: #888; stroke-width: 1; opacity: 1;"></line><line transform="translate(0,113)" x2="-5" y2="0" style="fill: none; stroke: #888; stroke-width: 1; opacity: 1;"></line><line transform="translate(0,75)" x2="-5" y2="0" style="fill: none; stroke: #888; stroke-width: 1; opacity: 1;"></line><line transform="translate(0,37)" x2="-5" y2="0" style="fill: none; stroke: #888; stroke-width: 1; opacity: 1;"></line><line transform="translate(0,0)" x2="-5" y2="0" style="fill: none; stroke: #888; stroke-width: 1; opacity: 1;"></line></g><g class="mark-text role-axis-label" style="pointer-events: none;"><text text-anchor="end" transform="translate(-7,378)" style="font-family: sans-serif; font-size: 10px; fill: #000; opacity: 1;">0</text><text text-anchor="end" transform="translate(-7,340.5)" style="font-family: sans-serif; font-size: 10px; fill: #000; opacity: 1;">1</text><text text-anchor="end" transform="translate(-7,303)" style="font-family: sans-serif; font-size: 10px; fill: #000; opacity: 1;">2</text><text text-anchor="end" transform="translate(-7,265.5)" style="font-family: sans-serif; font-size: 10px; fill: #000; opacity: 1;">3</text><text text-anchor="end" transform="translate(-7,228)" style="font-family: sans-serif; font-size: 10px; fill: #000; opacity: 1;">4</text><text text-anchor="end" transform="translate(-7,190.5)" style="font-family: sans-serif; font-size: 10px; fill: #000; opacity: 1;">5</text><text text-anchor="end" transform="translate(-7,153)" style="font-family: sans-serif; font-size: 10px; fill: #000; opacity: 1;">6</text><text text-anchor="end" transform="translate(-7,115.50000000000001)" style="font-family: sans-serif; font-size: 10px; fill: #000; opacity: 1;">7</text><text text-anchor="end" transform="translate(-7,77.99999999999999)" style="font-family: sans-serif; font-size: 10px; fill: #000; opacity: 1;">8</text><text text-anchor="end" transform="translate(-7,40.49999999999999)" style="font-family: sans-serif; font-size: 10px; fill: #000; opacity: 1;">9</text><text text-anchor="end" transform="translate(-7,3)" style="font-family: sans-serif; font-size: 10px; fill: #000; opacity: 1;">10</text></g><g class="mark-rule role-axis-domain" style="pointer-events: none;"><line transform="translate(0,375)" x2="0" y2="-375" style="fill: none; stroke: #888; stroke-width: 1; opacity: 1;"></line></g><g class="mark-text role-axis-title" style="pointer-events: none;"><text text-anchor="middle" transform="translate(-22.123046875,187.5) rotate(-90) translate(0,-2)" style="font-family: sans-serif; font-size: 11px; font-weight: bold; fill: #000; opacity: 1;">LogDeaths</text></g></g><path class="foreground" d="" style="pointer-events: none; display: none; fill: none;"></path></g></g><g class="mark-group role-scope pathgroup"><g transform="translate(0,0)"><path class="background" d="M0,0h750v375h-750Z" style="fill: none;"></path><g><g class="mark-line role-mark marks"><path d="M0,268.75449959789194L10.00555864369094,266.61105907889385L20.01111728738188,252.82137982419442L30.016675931072815,234.8373893143737L40.02223457476376,224.0493115974319L50.0277932184547,209.74802822759048L60.03335186214563,192.18010037995683L70.03891050583658,191.61190769168422L80.04446914952752,182.18761663115023L90.05002779321846,173.95154378589652L100.0555864369094,166.61894768626738L110.06114508060034,154.16707656251697L120.06670372429126,148.04665616533435L130.0722623679822,142.63334520770547L140.07782101167317,137.5020139447616L150.0833796553641,133.10735916959342L160.08893829905503,128.38239116069158L170.09449694274596,124.09341459680385L180.10005558643692,119.70243961125279L190.10561423012783,115.51185563072208L200.1111728738188,111.9781696946052L210.11673151750972,111.80993253490499L220.12229016120068,104.18115655168319L230.1278488048916,100.23287654027655L240.13340744858252,96.88580703026521L250.13896609227348,94.63228570635354L260.1445247359644,92.60700017829241L270.15008337965537,89.90994991253181L280.15564202334633,87.85189526331786L290.16120066703724,85.74982916730485L300.1667593107282,85.74982916730485L310.1723179544191,82.46317232783473L320.17787659811006,82.43248492841353L330.183435241801,80.19968266500042L340.1889938854919,79.20152487750208L350.1945525291829,78.47686464651196L360.20011117287385,78.07872801270314L370.20566981656475,77.48261719442209L380.21122846025565,76.85615869466807L390.2167871039467,76.39635261869567L400.2223457476376,75.85192549668186L410.22790439132854,75.42963814733648L420.23346303501944,74.97432058069695L430.23902167871034,74.57418340645175L440.24458032240136,74.21521053819089L450.25013896609227,73.87184646496638L460.2556976097832,73.5315978572536L470.26125625347413,73.25439910188457L480.26681489716503,73.06276661842678L490.27237354085605,72.8008607919143L500.27793218454696,72.67059064669726L510.2834908282379,72.57613215846669L520.2890494719288,72.4231427731957L530.2946081156198,72.30588188965658L540.3001667593107,72.14233022853652L550.3057254030016,71.99109689187367L560.3112840466927,71.86360488219198L570.3168426903835,71.77115491240872L580.3224013340745,71.72501525724931L590.3279599777654,71.65591204359146L600.3335186214564,71.48370907758452L610.3390772651474,71.48370907758452L620.3446359088382,71.40361751395872L630.3501945525292,71.35792759054836L640.3557531962201,71.2894969146248L650.3613118399111,71.23256658639889L660.366870483602,71.19844982892819L670.372429127293,71.14165745096744L679.9610894941634,71.09628539461566L689.9666481378543,71.08495095293952L699.9722067815453,71.00570564043055L709.9777654252363,70.9379141185035L719.9833240689272,70.8927877592673L729.9888827126181,70.84771563845668L739.9944413563092,70.81394706345975L750,70.79145156188537" style="fill: none; stroke: #4c78a8; stroke-width: 2;"></path></g></g><path class="foreground" d="" style="display: none; fill: none;"></path></g><g transform="translate(0,0)"><path class="background" d="M0,0h750v375h-750Z" style="fill: none;"></path><g><g class="mark-line role-mark marks"><path d="M300.1667593107282,375L310.1723179544191,349.00698072900207L320.17787659811006,333.8020391749459L330.183435241801,302.02836941042574L340.1889938854919,288.65305901272325L350.1945525291829,281.81600063295L360.20011117287385,268.75449959789194L370.20566981656475,260.83040858537163L380.21122846025565,248.72640637550722L390.2167871039467,242.76148032689395L400.2223457476376,226.82836055319646L410.22790439132854,211.14570553248672L420.23346303501944,199.76891870767852L430.23902167871034,187.6045397338457L440.24458032240136,176.87986017232544L450.25013896609227,170.58605799128625L460.2556976097832,153.6512499974488L470.26125625347413,144.83523547176623L480.26681489716503,133.22603015470452L490.27237354085605,123.08232393661157L500.27793218454696,123.08232393661157L510.2834908282379,107.11433989859546L520.2890494719288,102.25902765001793L530.2946081156198,93.73014429767643L540.3001667593107,87.114857031822L550.3057254030016,81.55330157130844L560.3112840466927,75.0372295033517L570.3168426903835,70.01249180311453L580.3224013340745,63.67433213432984L590.3279599777654,56.94127448350926L600.3335186214564,52.195118009687235L610.3390772651474,48.29000879492419L620.3446359088382,43.96444684359345L630.3501945525292,40.38531676703518L640.3557531962201,36.98561135732367L650.3613118399111,33.00903773456455L660.366870483602,29.526085086567512L670.372429127293,26.799184658188896L679.9610894941634,24.07559197917207L689.9666481378543,21.46097735576481L699.9722067815453,19.32910524471029L709.9777654252363,17.22289972650036L719.9833240689272,15.213396759770264L729.9888827126181,13.513042254051463L739.9944413563092,12.252883360499137L750,10.78092642558784" style="fill: none; stroke: #9ecae9; stroke-width: 2;"></path></g></g><path class="foreground" d="" style="display: none; fill: none;"></path></g><g transform="translate(0,0)"><path class="background" d="M0,0h750v375h-750Z" style="fill: none;"></path><g><g class="mark-line role-mark marks"><path d="M410.22790439132854,375L420.23346303501944,349.00698072900207L430.23902167871034,333.8020391749459L440.24458032240136,314.64607828372124L450.25013896609227,288.65305901272325L460.2556976097832,268.75449959789194L470.26125625347413,250.04233086842984L480.26681489716503,241.67444769414698L490.27237354085605,225.4130982538397L500.27793218454696,224.72500555378232L510.2834908282379,191.61190769168422L520.2890494719288,177.26251655385948L530.2946081156198,162.5089991957838L540.3001667593107,156.19459736015233L550.3057254030016,139.55544659378086L560.3112840466927,133.7045055454705L570.3168426903835,122.94653622035088L580.3224013340745,114.38038293747104L590.3279599777654,104.01716212122481L600.3335186214564,94.50509508131152L610.3390772651474,84.54616461471073L620.3446359088382,77.24145880703617L630.3501945525292,67.43774284467452L640.3557531962201,60.69849493973614L650.3613118399111,54.58428083738143L660.366870483602,48.88086603037901L670.372429127293,44.05803861206023L679.9610894941634,39.33557347403928L689.9666481378543,35.86585672132195L699.9722067815453,31.98446128736279L709.9777654252363,28.329429626028023L719.9833240689272,25.369107378418562L729.9888827126181,22.9411695068541L739.9944413563092,20.823720806416603L750,18.80260203079476" style="fill: none; stroke: #f58518; stroke-width: 2;"></path></g></g><path class="foreground" d="" style="display: none; fill: none;"></path></g><g transform="translate(0,0)"><path class="background" d="M0,0h750v375h-750Z" style="fill: none;"></path><g><g class="mark-line role-mark marks"><path d="M380.21122846025565,375L390.2167871039467,375L400.2223457476376,307.80901990394796L410.22790439132854,302.02836941042574L420.23346303501944,285.0789272700611L430.23902167871034,281.81600063295L440.24458032240136,276.0353501394278L450.25013896609227,268.75449959789194L460.2556976097832,260.83040858537163L470.26125625347413,259.0859079990632L480.26681489716503,250.04233086842984L490.27237354085605,240.61803980789588L500.27793218454696,236.6670204707274L510.2834908282379,230.6194649358728L520.2890494719288,225.4130982538397L530.2946081156198,219.63244776031752L540.3001667593107,208.40057788161315L550.3057254030016,199.42007898284174L560.3112840466927,196.09932658253754L570.3168426903835,176.31309875444862L580.3224013340745,168.85619155150493L590.3279599777654,160.2432094654801L600.3335186214564,148.75926668254496L610.3390772651474,137.90380350272682L620.3446359088382,129.01442859400345L630.3501945525292,118.19980220338638L640.3557531962201,108.8419181019453L650.3613118399111,98.78201860464479L660.366870483602,89.48179931967643L670.372429127293,82.0965706301491L679.9610894941634,75.0372295033517L689.9666481378543,65.1830745181968L699.9722067815453,57.47353138378944L709.9777654252363,49.23357269499337L719.9833240689272,42.52434754461542L729.9888827126181,36.1192510824264L739.9944413563092,31.068915444276936L750,26.785271291922292" style="fill: none; stroke: #ffbf79; stroke-width: 2;"></path></g></g><path class="foreground" d="" style="display: none; fill: none;"></path></g><g transform="translate(0,0)"><path class="background" d="M0,0h750v375h-750Z" style="fill: none;"></path><g><g class="mark-line role-mark marks"><path d="M430.23902167871034,375L440.24458032240136,349.00698072900207L450.25013896609227,349.00698072900207L460.2556976097832,333.8020391749459L470.26125625347413,323.0139614580041L480.26681489716503,307.80901990394796L490.27237354085605,297.02094218700614L500.27793218454696,297.02094218700614L510.2834908282379,297.02094218700614L520.2890494719288,260.83040858537163L530.2946081156198,260.83040858537163L540.3001667593107,224.0493115974319L550.3057254030016,224.0493115974319L560.3112840466927,214.62502053689795L570.3168426903835,190.22798680660483L580.3224013340745,180.6831168640468L590.3279599777654,170.42545817408617L600.3335186214564,163.42848483982073L610.3390772651474,156.85833150137984L620.3446359088382,148.2235432857646L630.3501945525292,144.59303872028832L640.3557531962201,136.38644611723257L650.3613118399111,126.20124908018678L660.366870483602,115.17983181882506L670.372429127293,108.16567026808296L679.9610894941634,103.04797680551944L689.9666481378543,94.06329473980752L699.9722067815453,83.80706613989506L709.9777654252363,75.69781569074739L719.9833240689272,67.80974920209536L729.9888827126181,61.08709945356916L739.9944413563092,56.03521075098905L750,52.8235278903567" style="fill: none; stroke: #54a24b; stroke-width: 2;"></path></g></g><path class="foreground" d="" style="display: none; fill: none;"></path></g></g><g class="mark-group role-legend"><g transform="translate(770,0)"><path class="background" d="M0,0h88v79h-88Z" style="pointer-events: none; fill: none;"></path><g><g class="mark-group role-legend-entry"><g transform="translate(0,16)"><path class="background" d="M0,0h0v0h0Z" style="pointer-events: none; fill: none;"></path><g><g class="mark-group role-scope"><g transform="translate(0,0)"><path class="background" d="M0,0h87.15234375v11h-87.15234375Z" style="pointer-events: none; fill: none; opacity: 1;"></path><g><g class="mark-symbol role-legend-symbol" style="pointer-events: none;"><path transform="translate(6,6)" d="M-5,0L5,0" style="fill: none; stroke: #4c78a8; stroke-width: 1.5; opacity: 1;"></path></g><g class="mark-text role-legend-label" style="pointer-events: none;"><text text-anchor="start" transform="translate(16,9)" style="font-family: sans-serif; font-size: 10px; fill: #000; opacity: 1;">China</text></g></g><path class="foreground" d="" style="pointer-events: none; display: none; fill: none;"></path></g><g transform="translate(0,13)"><path class="background" d="M0,0h87.15234375v11h-87.15234375Z" style="pointer-events: none; fill: none; opacity: 1;"></path><g><g class="mark-symbol role-legend-symbol" style="pointer-events: none;"><path transform="translate(6,6)" d="M-5,0L5,0" style="fill: none; stroke: #9ecae9; stroke-width: 1.5; opacity: 1;"></path></g><g class="mark-text role-legend-label" style="pointer-events: none;"><text text-anchor="start" transform="translate(16,9)" style="font-family: sans-serif; font-size: 10px; fill: #000; opacity: 1;">Italy</text></g></g><path class="foreground" d="" style="pointer-events: none; display: none; fill: none;"></path></g><g transform="translate(0,26)"><path class="background" d="M0,0h87.15234375v11h-87.15234375Z" style="pointer-events: none; fill: none; opacity: 1;"></path><g><g class="mark-symbol role-legend-symbol" style="pointer-events: none;"><path transform="translate(6,6)" d="M-5,0L5,0" style="fill: none; stroke: #f58518; stroke-width: 1.5; opacity: 1;"></path></g><g class="mark-text role-legend-label" style="pointer-events: none;"><text text-anchor="start" transform="translate(16,9)" style="font-family: sans-serif; font-size: 10px; fill: #000; opacity: 1;">Spain</text></g></g><path class="foreground" d="" style="pointer-events: none; display: none; fill: none;"></path></g><g transform="translate(0,39)"><path class="background" d="M0,0h87.15234375v11h-87.15234375Z" style="pointer-events: none; fill: none; opacity: 1;"></path><g><g class="mark-symbol role-legend-symbol" style="pointer-events: none;"><path transform="translate(6,6)" d="M-5,0L5,0" style="fill: none; stroke: #ffbf79; stroke-width: 1.5; opacity: 1;"></path></g><g class="mark-text role-legend-label" style="pointer-events: none;"><text text-anchor="start" transform="translate(16,9)" style="font-family: sans-serif; font-size: 10px; fill: #000; opacity: 1;">US</text></g></g><path class="foreground" d="" style="pointer-events: none; display: none; fill: none;"></path></g><g transform="translate(0,52)"><path class="background" d="M0,0h87.15234375v11h-87.15234375Z" style="pointer-events: none; fill: none; opacity: 1;"></path><g><g class="mark-symbol role-legend-symbol" style="pointer-events: none;"><path transform="translate(6,6)" d="M-5,0L5,0" style="fill: none; stroke: #54a24b; stroke-width: 1.5; opacity: 1;"></path></g><g class="mark-text role-legend-label" style="pointer-events: none;"><text text-anchor="start" transform="translate(16,9)" style="font-family: sans-serif; font-size: 10px; fill: #000; opacity: 1;">United Kingdom</text></g></g><path class="foreground" d="" style="pointer-events: none; display: none; fill: none;"></path></g></g></g><path class="foreground" d="" style="pointer-events: none; display: none; fill: none;"></path></g></g><g class="mark-text role-legend-title" style="pointer-events: none;"><text text-anchor="start" transform="translate(0,9)" style="font-family: sans-serif; font-size: 11px; font-weight: bold; fill: #000; opacity: 1;">country</text></g></g><path class="foreground" d="" style="pointer-events: none; display: none; fill: none;"></path></g></g><g class="mark-group role-title"><g transform="translate(375,-22)"><path class="background" d="M0,0h0v0h0Z" style="pointer-events: none; fill: none;"></path><g><g class="mark-text role-title-text" style="pointer-events: none;"><text text-anchor="middle" transform="translate(0,10)" style="font-family: sans-serif; font-size: 13px; font-weight: bold; fill: #000; opacity: 1;">LogDeaths by day in ['China', 'Italy', 'Spain', 'US', 'United Kingdom'] as of 04-06-2020</text></g></g><path class="foreground" d="" style="pointer-events: none; display: none; fill: none;"></path></g></g></g><path class="foreground" d="" style="display: none; fill: none;"></path></g></g></g></svg>