<svg class="marks" width="902" height="439" viewBox="0 0 902 439" version="1.1" xmlns="http://www.w3.org/2000/svg" xmlns:xlink="http://www.w3.org/1999/xlink"><rect width="902" height="439" style="fill: white;"></rect><g transform="translate(39,27)"><g class="mark-group role-frame root"><g transform="translate(0,0)"><path class="background" d="M0.5,0.5h750v375h-750Z" style="fill: none; stroke: #ddd;"></path><g><g class="mark-group role-axis"><g transform="translate(0.5,375.5)"><path class="background" d="M0,0h0v0h0Z" style="pointer-events: none; fill: none;"></path><g><g class="mark-rule role-axis-grid" style="pointer-events: none;"><line transform="translate(11,-375)" x2="0" y2="375" style="fill: none; stroke: #ddd; stroke-width: 1; opacity: 1;"></line><line transform="translate(32,-375)" x2="0" y2="375" style="fill: none; stroke: #ddd; stroke-width: 1; opacity: 1;"></line><line transform="translate(53,-375)" x2="0" y2="375" style="fill: none; stroke: #ddd; stroke-width: 1; opacity: 1;"></line><line transform="translate(74,-375)" x2="0" y2="375" style="fill: none; stroke: #ddd; stroke-width: 1; opacity: 1;"></line><line transform="translate(95,-375)" x2="0" y2="375" style="fill: none; stroke: #ddd; stroke-width: 1; opacity: 1;"></line><line transform="translate(106,-375)" x2="0" y2="375" style="fill: none; stroke: #ddd; stroke-width: 1; opacity: 1;"></line><line transform="translate(127,-375)" x2="0" y2="375" style="fill: none; stroke: #ddd; stroke-width: 1; opacity: 1;"></line><line transform="translate(148,-375)" x2="0" y2="375" style="fill: none; stroke: #ddd; stroke-width: 1; opacity: 1;"></line><line transform="translate(169,-375)" x2="0" y2="375" style="fill: none; stroke: #ddd; stroke-width: 1; opacity: 1;"></line><line transform="translate(190,-375)" x2="0" y2="375" style="fill: none; stroke: #ddd; stroke-width: 1; opacity: 1;"></line><line transform="translate(211,-375)" x2="0" y2="375" style="fill: none; stroke: #ddd; stroke-width: 1; opacity: 1;"></line><line transform="translate(233,-375)" x2="0" y2="375" style="fill: none; stroke: #ddd; stroke-width: 1; opacity: 1;"></line><line transform="translate(254,-375)" x2="0" y2="375" style="fill: none; stroke: #ddd; stroke-width: 1; opacity: 1;"></line><line transform="translate(275,-375)" x2="0" y2="375" style="fill: none; stroke: #ddd; stroke-width: 1; opacity: 1;"></line><line transform="translate(296,-375)" x2="0" y2="375" style="fill: none; stroke: #ddd; stroke-width: 1; opacity: 1;"></line><line transform="translate(317,-375)" x2="0" y2="375" style="fill: none; stroke: #ddd; stroke-width: 1; opacity: 1;"></line><line transform="translate(338,-375)" x2="0" y2="375" style="fill: none; stroke: #ddd; stroke-width: 1; opacity: 1;"></line><line transform="translate(359,-375)" x2="0" y2="375" style="fill: none; stroke: #ddd; stroke-width: 1; opacity: 1;"></line><line transform="translate(381,-375)" x2="0" y2="375" style="fill: none; stroke: #ddd; stroke-width: 1; opacity: 1;"></line><line transform="translate(402,-375)" x2="0" y2="375" style="fill: none; stroke: #ddd; stroke-width: 1; opacity: 1;"></line><line transform="translate(412,-375)" x2="0" y2="375" style="fill: none; stroke: #ddd; stroke-width: 1; opacity: 1;"></line><line transform="translate(433,-375)" x2="0" y2="375" style="fill: none; stroke: #ddd; stroke-width: 1; opacity: 1;"></line><line transform="translate(454,-375)" x2="0" y2="375" style="fill: none; stroke: #ddd; stroke-width: 1; opacity: 1;"></line><line transform="translate(476,-375)" x2="0" y2="375" style="fill: none; stroke: #ddd; stroke-width: 1; opacity: 1;"></line><line transform="translate(497,-375)" x2="0" y2="375" style="fill: none; stroke: #ddd; stroke-width: 1; opacity: 1;"></line><line transform="translate(518,-375)" x2="0" y2="375" style="fill: none; stroke: #ddd; stroke-width: 1; opacity: 1;"></line><line transform="translate(539,-375)" x2="0" y2="375" style="fill: none; stroke: #ddd; stroke-width: 1; opacity: 1;"></line><line transform="translate(560,-375)" x2="0" y2="375" style="fill: none; stroke: #ddd; stroke-width: 1; opacity: 1;"></line><line transform="translate(581,-375)" x2="0" y2="375" style="fill: none; stroke: #ddd; stroke-width: 1; opacity: 1;"></line><line transform="translate(602,-375)" x2="0" y2="375" style="fill: none; stroke: #ddd; stroke-width: 1; opacity: 1;"></line><line transform="translate(624,-375)" x2="0" y2="375" style="fill: none; stroke: #ddd; stroke-width: 1; opacity: 1;"></line><line transform="translate(645,-375)" x2="0" y2="375" style="fill: none; stroke: #ddd; stroke-width: 1; opacity: 1;"></line><line transform="translate(666,-375)" x2="0" y2="375" style="fill: none; stroke: #ddd; stroke-width: 1; opacity: 1;"></line><line transform="translate(687,-375)" x2="0" y2="375" style="fill: none; stroke: #ddd; stroke-width: 1; opacity: 1;"></line><line transform="translate(708,-375)" x2="0" y2="375" style="fill: none; stroke: #ddd; stroke-width: 1; opacity: 1;"></line><line transform="translate(729,-375)" x2="0" y2="375" style="fill: none; stroke: #ddd; stroke-width: 1; opacity: 1;"></line><line transform="translate(739,-375)" x2="0" y2="375" style="fill: none; stroke: #ddd; stroke-width: 1; opacity: 1;"></line></g></g><path class="foreground" d="" style="pointer-events: none; display: none; fill: none;"></path></g></g><g class="mark-group role-axis"><g transform="translate(0.5,0.5)"><path class="background" d="M0,0h0v0h0Z" style="pointer-events: none; fill: none;"></path><g><g class="mark-rule role-axis-grid" style="pointer-events: none;"><line transform="translate(0,375)" x2="750" y2="0" style="fill: none; stroke: #ddd; stroke-width: 1; opacity: 1;"></line><line transform="translate(0,338)" x2="750" y2="0" style="fill: none; stroke: #ddd; stroke-width: 1; opacity: 1;"></line><line transform="translate(0,300)" x2="750" y2="0" style="fill: none; stroke: #ddd; stroke-width: 1; opacity: 1;"></line><line transform="translate(0,263)" x2="750" y2="0" style="fill: none; stroke: #ddd; stroke-width: 1; opacity: 1;"></line><line transform="translate(0,225)" x2="750" y2="0" style="fill: none; stroke: #ddd; stroke-width: 1; opacity: 1;"></line><line transform="translate(0,188)" x2="750" y2="0" style="fill: none; stroke: #ddd; stroke-width: 1; opacity: 1;"></line><line transform="translate(0,150)" x2="750" y2="0" style="fill: none; stroke: #ddd; stroke-width: 1; opacity: 1;"></line><line transform="translate(0,113)" x2="750" y2="0" style="fill: none; stroke: #ddd; stroke-width: 1; opacity: 1;"></line><line transform="translate(0,75)" x2="750" y2="0" style="fill: none; stroke: #ddd; stroke-width: 1; opacity: 1;"></line><line transform="translate(0,37)" x2="750" y2="0" style="fill: none; stroke: #ddd; stroke-width: 1; opacity: 1;"></line><line transform="translate(0,0)" x2="750" y2="0" style="fill: none; stroke: #ddd; stroke-width: 1; opacity: 1;"></line></g></g><path class="foreground" d="" style="pointer-events: none; display: none; fill: none;"></path></g></g><g class="mark-group role-axis"><g transform="translate(0.5,375.5)"><path class="background" d="M0,0h0v0h0Z" style="pointer-events: none; fill: none;"></path><g><g class="mark-rule role-axis-tick" style="pointer-events: none;"><line transform="translate(11,0)" x2="0" y2="5" style="fill: none; stroke: #888; stroke-width: 1; opacity: 1;"></line><line transform="translate(32,0)" x2="0" y2="5" style="fill: none; stroke: #888; stroke-width: 1; opacity: 1;"></line><line transform="translate(53,0)" x2="0" y2="5" style="fill: none; stroke: #888; stroke-width: 1; opacity: 1;"></line><line transform="translate(74,0)" x2="0" y2="5" style="fill: none; stroke: #888; stroke-width: 1; opacity: 1;"></line><line transform="translate(95,0)" x2="0" y2="5" style="fill: none; stroke: #888; stroke-width: 1; opacity: 1;"></line><line transform="translate(106,0)" x2="0" y2="5" style="fill: none; stroke: #888; stroke-width: 1; opacity: 1;"></line><line transform="translate(127,0)" x2="0" y2="5" style="fill: none; stroke: #888; stroke-width: 1; opacity: 1;"></line><line transform="translate(148,0)" x2="0" y2="5" style="fill: none; stroke: #888; stroke-width: 1; opacity: 1;"></line><line transform="translate(169,0)" x2="0" y2="5" style="fill: none; stroke: #888; stroke-width: 1; opacity: 1;"></line><line transform="translate(190,0)" x2="0" y2="5" style="fill: none; stroke: #888; stroke-width: 1; opacity: 1;"></line><line transform="translate(211,0)" x2="0" y2="5" style="fill: none; stroke: #888; stroke-width: 1; opacity: 1;"></line><line transform="translate(233,0)" x2="0" y2="5" style="fill: none; stroke: #888; stroke-width: 1; opacity: 1;"></line><line transform="translate(254,0)" x2="0" y2="5" style="fill: none; stroke: #888; stroke-width: 1; opacity: 1;"></line><line transform="translate(275,0)" x2="0" y2="5" style="fill: none; stroke: #888; stroke-width: 1; opacity: 1;"></line><line transform="translate(296,0)" x2="0" y2="5" style="fill: none; stroke: #888; stroke-width: 1; opacity: 1;"></line><line transform="translate(317,0)" x2="0" y2="5" style="fill: none; stroke: #888; stroke-width: 1; opacity: 1;"></line><line transform="translate(338,0)" x2="0" y2="5" style="fill: none; stroke: #888; stroke-width: 1; opacity: 1;"></line><line transform="translate(359,0)" x2="0" y2="5" style="fill: none; stroke: #888; stroke-width: 1; opacity: 1;"></line><line transform="translate(381,0)" x2="0" y2="5" style="fill: none; stroke: #888; stroke-width: 1; opacity: 1;"></line><line transform="translate(402,0)" x2="0" y2="5" style="fill: none; stroke: #888; stroke-width: 1; opacity: 1;"></line><line transform="translate(412,0)" x2="0" y2="5" style="fill: none; stroke: #888; stroke-width: 1; opacity: 1;"></line><line transform="translate(433,0)" x2="0" y2="5" style="fill: none; stroke: #888; stroke-width: 1; opacity: 1;"></line><line transform="translate(454,0)" x2="0" y2="5" style="fill: none; stroke: #888; stroke-width: 1; opacity: 1;"></line><line transform="translate(476,0)" x2="0" y2="5" style="fill: none; stroke: #888; stroke-width: 1; opacity: 1;"></line><line transform="translate(497,0)" x2="0" y2="5" style="fill: none; stroke: #888; stroke-width: 1; opacity: 1;"></line><line transform="translate(518,0)" x2="0" y2="5" style="fill: none; stroke: #888; stroke-width: 1; opacity: 1;"></line><line transform="translate(539,0)" x2="0" y2="5" style="fill: none; stroke: #888; stroke-width: 1; opacity: 1;"></line><line transform="translate(560,0)" x2="0" y2="5" style="fill: none; stroke: #888; stroke-width: 1; opacity: 1;"></line><line transform="translate(581,0)" x2="0" y2="5" style="fill: none; stroke: #888; stroke-width: 1; opacity: 1;"></line><line transform="translate(602,0)" x2="0" y2="5" style="fill: none; stroke: #888; stroke-width: 1; opacity: 1;"></line><line transform="translate(624,0)" x2="0" y2="5" style="fill: none; stroke: #888; stroke-width: 1; opacity: 1;"></line><line transform="translate(645,0)" x2="0" y2="5" style="fill: none; stroke: #888; stroke-width: 1; opacity: 1;"></line><line transform="translate(666,0)" x2="0" y2="5" style="fill: none; stroke: #888; stroke-width: 1; opacity: 1;"></line><line transform="translate(687,0)" x2="0" y2="5" style="fill: none; stroke: #888; stroke-width: 1; opacity: 1;"></line><line transform="translate(708,0)" x2="0" y2="5" style="fill: none; stroke: #888; stroke-width: 1; opacity: 1;"></line><line transform="translate(729,0)" x2="0" y2="5" style="fill: none; stroke: #888; stroke-width: 1; opacity: 1;"></line><line transform="translate(739,0)" x2="0" y2="5" style="fill: none; stroke: #888; stroke-width: 1; opacity: 1;"></line></g><g class="mark-text role-axis-label" style="pointer-events: none;"><text text-anchor="middle" transform="translate(10.56958308866706,15)" style="font-family: sans-serif; font-size: 10px; fill: #000; opacity: 1;">Thu 23</text><text text-anchor="middle" transform="translate(31.708749266001174,15)" style="font-family: sans-serif; font-size: 10px; fill: #000; opacity: 0;">Sat 25</text><text text-anchor="middle" transform="translate(52.84791544333529,15)" style="font-family: sans-serif; font-size: 10px; fill: #000; opacity: 1;">Mon 27</text><text text-anchor="middle" transform="translate(73.9870816206694,15)" style="font-family: sans-serif; font-size: 10px; fill: #000; opacity: 0;">Wed 29</text><text text-anchor="middle" transform="translate(95.12624779800352,15)" style="font-family: sans-serif; font-size: 10px; fill: #000; opacity: 1;">Fri 31</text><text text-anchor="middle" transform="translate(105.69583088667058,15)" style="font-family: sans-serif; font-size: 10px; fill: #000; opacity: 0;">February</text><text text-anchor="middle" transform="translate(126.8349970640047,15)" style="font-family: sans-serif; font-size: 10px; fill: #000; opacity: 1;">Mon 03</text><text text-anchor="middle" transform="translate(147.9741632413388,15)" style="font-family: sans-serif; font-size: 10px; fill: #000; opacity: 0;">Wed 05</text><text text-anchor="middle" transform="translate(169.11332941867295,15)" style="font-family: sans-serif; font-size: 10px; fill: #000; opacity: 1;">Fri 07</text><text text-anchor="middle" transform="translate(190.25249559600704,15)" style="font-family: sans-serif; font-size: 10px; fill: #000; opacity: 0;">Feb 09</text><text text-anchor="middle" transform="translate(211.39166177334116,15)" style="font-family: sans-serif; font-size: 10px; fill: #000; opacity: 1;">Tue 11</text><text text-anchor="middle" transform="translate(232.5308279506753,15)" style="font-family: sans-serif; font-size: 10px; fill: #000; opacity: 0;">Thu 13</text><text text-anchor="middle" transform="translate(253.6699941280094,15)" style="font-family: sans-serif; font-size: 10px; fill: #000; opacity: 1;">Sat 15</text><text text-anchor="middle" transform="translate(274.80916030534354,15)" style="font-family: sans-serif; font-size: 10px; fill: #000; opacity: 0;">Mon 17</text><text text-anchor="middle" transform="translate(295.9483264826776,15)" style="font-family: sans-serif; font-size: 10px; fill: #000; opacity: 1;">Wed 19</text><text text-anchor="middle" transform="translate(317.0874926600117,15)" style="font-family: sans-serif; font-size: 10px; fill: #000; opacity: 0;">Fri 21</text><text text-anchor="middle" transform="translate(338.2266588373459,15)" style="font-family: sans-serif; font-size: 10px; fill: #000; opacity: 1;">Feb 23</text><text text-anchor="middle" transform="translate(359.36582501467996,15)" style="font-family: sans-serif; font-size: 10px; fill: #000; opacity: 0;">Tue 25</text><text text-anchor="middle" transform="translate(380.5049911920141,15)" style="font-family: sans-serif; font-size: 10px; fill: #000; opacity: 1;">Thu 27</text><text text-anchor="middle" transform="translate(401.6441573693482,15)" style="font-family: sans-serif; font-size: 10px; fill: #000; opacity: 0;">Sat 29</text><text text-anchor="middle" transform="translate(412.2137404580153,15)" style="font-family: sans-serif; font-size: 10px; fill: #000; opacity: 1;">March</text><text text-anchor="middle" transform="translate(433.35290663534937,15)" style="font-family: sans-serif; font-size: 10px; fill: #000; opacity: 0;">Tue 03</text><text text-anchor="middle" transform="translate(454.4920728126835,15)" style="font-family: sans-serif; font-size: 10px; fill: #000; opacity: 1;">Thu 05</text><text text-anchor="middle" transform="translate(475.6312389900176,15)" style="font-family: sans-serif; font-size: 10px; fill: #000; opacity: 0;">Sat 07</text><text text-anchor="middle" transform="translate(496.7704051673517,15)" style="font-family: sans-serif; font-size: 10px; fill: #000; opacity: 1;">Mon 09</text><text text-anchor="middle" transform="translate(517.9095713446858,15)" style="font-family: sans-serif; font-size: 10px; fill: #000; opacity: 0;">Wed 11</text><text text-anchor="middle" transform="translate(539.0487375220199,15)" style="font-family: sans-serif; font-size: 10px; fill: #000; opacity: 1;">Fri 13</text><text text-anchor="middle" transform="translate(560.1879036993541,15)" style="font-family: sans-serif; font-size: 10px; fill: #000; opacity: 0;">Mar 15</text><text text-anchor="middle" transform="translate(581.3270698766883,15)" style="font-family: sans-serif; font-size: 10px; fill: #000; opacity: 1;">Tue 17</text><text text-anchor="middle" transform="translate(602.4662360540224,15)" style="font-family: sans-serif; font-size: 10px; fill: #000; opacity: 0;">Thu 19</text><text text-anchor="middle" transform="translate(623.6054022313565,15)" style="font-family: sans-serif; font-size: 10px; fill: #000; opacity: 1;">Sat 21</text><text text-anchor="middle" transform="translate(644.7445684086905,15)" style="font-family: sans-serif; font-size: 10px; fill: #000; opacity: 0;">Mon 23</text><text text-anchor="middle" transform="translate(665.8837345860246,15)" style="font-family: sans-serif; font-size: 10px; fill: #000; opacity: 1;">Wed 25</text><text text-anchor="middle" transform="translate(687.0229007633587,15)" style="font-family: sans-serif; font-size: 10px; fill: #000; opacity: 0;">Fri 27</text><text text-anchor="middle" transform="translate(708.1620669406929,15)" style="font-family: sans-serif; font-size: 10px; fill: #000; opacity: 1;">Mar 29</text><text text-anchor="middle" transform="translate(728.8608338226659,15)" style="font-family: sans-serif; font-size: 10px; fill: #000; opacity: 0;">Tue 31</text><text text-anchor="middle" transform="translate(739.4304169113329,15)" style="font-family: sans-serif; font-size: 10px; fill: #000; opacity: 1;">April</text></g><g class="mark-rule role-axis-domain" style="pointer-events: none;"><line transform="translate(0,0)" x2="750" y2="0" style="fill: none; stroke: #888; stroke-width: 1; opacity: 1;"></line></g><g class="mark-text role-axis-title" style="pointer-events: none;"><text text-anchor="middle" transform="translate(375,30)" style="font-family: sans-serif; font-size: 11px; font-weight: bold; fill: #000; opacity: 1;">day</text></g></g><path class="foreground" d="" style="pointer-events: none; display: none; fill: none;"></path></g></g><g class="mark-group role-axis"><g transform="translate(0.5,0.5)"><path class="background" d="M0,0h0v0h0Z" style="pointer-events: none; fill: none;"></path><g><g class="mark-rule role-axis-tick" style="pointer-events: none;"><line transform="translate(0,375)" x2="-5" y2="0" style="fill: none; stroke: #888; stroke-width: 1; opacity: 1;"></line><line transform="translate(0,338)" x2="-5" y2="0" style="fill: none; stroke: #888; stroke-width: 1; opacity: 1;"></line><line transform="translate(0,300)" x2="-5" y2="0" style="fill: none; stroke: #888; stroke-width: 1; opacity: 1;"></line><line transform="translate(0,263)" x2="-5" y2="0" style="fill: none; stroke: #888; stroke-width: 1; opacity: 1;"></line><line transform="translate(0,225)" x2="-5" y2="0" style="fill: none; stroke: #888; stroke-width: 1; opacity: 1;"></line><line transform="translate(0,188)" x2="-5" y2="0" style="fill: none; stroke: #888; stroke-width: 1; opacity: 1;"></line><line transform="translate(0,150)" x2="-5" y2="0" style="fill: none; stroke: #888; stroke-width: 1; opacity: 1;"></line><line transform="translate(0,113)" x2="-5" y2="0" style="fill: none; stroke: #888; stroke-width: 1; opacity: 1;"></line><line transform="translate(0,75)" x2="-5" y2="0" style="fill: none; stroke: #888; stroke-width: 1; opacity: 1;"></line><line transform="translate(0,37)" x2="-5" y2="0" style="fill: none; stroke: #888; stroke-width: 1; opacity: 1;"></line><line transform="translate(0,0)" x2="-5" y2="0" style="fill: none; stroke: #888; stroke-width: 1; opacity: 1;"></line></g><g class="mark-text role-axis-label" style="pointer-events: none;"><text text-anchor="end" transform="translate(-7,378)" style="font-family: sans-serif; font-size: 10px; fill: #000; opacity: 1;">0</text><text text-anchor="end" transform="translate(-7,340.5)" style="font-family: sans-serif; font-size: 10px; fill: #000; opacity: 1;">1</text><text text-anchor="end" transform="translate(-7,303)" style="font-family: sans-serif; font-size: 10px; fill: #000; opacity: 1;">2</text><text text-anchor="end" transform="translate(-7,265.5)" style="font-family: sans-serif; font-size: 10px; fill: #000; opacity: 1;">3</text><text text-anchor="end" transform="translate(-7,228)" style="font-family: sans-serif; font-size: 10px; fill: #000; opacity: 1;">4</text><text text-anchor="end" transform="translate(-7,190.5)" style="font-family: sans-serif; font-size: 10px; fill: #000; opacity: 1;">5</text><text text-anchor="end" transform="translate(-7,153)" style="font-family: sans-serif; font-size: 10px; fill: #000; opacity: 1;">6</text><text text-anchor="end" transform="translate(-7,115.50000000000001)" style="font-family: sans-serif; font-size: 10px; fill: #000; opacity: 1;">7</text><text text-anchor="end" transform="translate(-7,77.99999999999999)" style="font-family: sans-serif; font-size: 10px; fill: #000; opacity: 1;">8</text><text text-anchor="end" transform="translate(-7,40.49999999999999)" style="font-family: sans-serif; font-size: 10px; fill: #000; opacity: 1;">9</text><text text-anchor="end" transform="translate(-7,3)" style="font-family: sans-serif; font-size: 10px; fill: #000; opacity: 1;">10</text></g><g class="mark-rule role-axis-domain" style="pointer-events: none;"><line transform="translate(0,375)" x2="0" y2="-375" style="fill: none; stroke: #888; stroke-width: 1; opacity: 1;"></line></g><g class="mark-text role-axis-title" style="pointer-events: none;"><text text-anchor="middle" transform="translate(-22.123046875,187.5) rotate(-90) translate(0,-2)" style="font-family: sans-serif; font-size: 11px; font-weight: bold; fill: #000; opacity: 1;">LogDeaths</text></g></g><path class="foreground" d="" style="pointer-events: none; display: none; fill: none;"></path></g></g><g class="mark-group role-scope pathgroup"><g transform="translate(0,0)"><path class="background" d="M0,0h750v375h-750Z" style="fill: none;"></path><g><g class="mark-line role-mark marks"><path d="M0,268.75449959789194L10.56958308866706,266.61105907889385L21.13916617733412,252.82137982419442L31.708749266001174,234.8373893143737L42.27833235466824,224.0493115974319L52.84791544333529,209.74802822759048L63.41749853200235,192.18010037995683L73.9870816206694,191.61190769168422L84.55666470933647,182.18761663115023L95.12624779800352,173.95154378589652L105.69583088667058,166.61894768626738L116.26541397533765,154.16707656251697L126.8349970640047,148.04665616533435L137.40458015267177,142.63334520770547L147.9741632413388,137.5020139447616L158.54374633000586,133.10735916959342L169.11332941867295,128.38239116069158L179.68291250733998,124.09341459680385L190.25249559600704,119.70243961125279L200.8220786846741,115.51185563072208L211.39166177334116,111.9781696946052L221.96124486200821,111.80993253490499L232.5308279506753,104.18115655168319L243.10041103934236,100.23287654027655L253.6699941280094,96.88580703026521L264.2395772166765,94.63228570635354L274.80916030534354,92.60700017829241L285.37874339401054,89.90994991253181L295.9483264826776,87.85189526331786L306.51790957134466,85.74982916730485L317.0874926600117,85.74982916730485L327.65707574867884,82.46317232783473L338.2266588373459,82.43248492841353L348.79624192601295,80.19968266500042L359.36582501467996,79.20152487750208L369.935408103347,78.47686464651196L380.5049911920141,78.07872801270314L391.0745742806812,77.48261719442209L401.6441573693482,76.85615869466807L412.2137404580153,76.39635261869567L422.7833235466823,75.85192549668186L433.35290663534937,75.42963814733648L443.92248972401643,74.97432058069695L454.4920728126835,74.57418340645175L465.0616559013506,74.21521053819089L475.6312389900176,73.87184646496638L486.2008220786847,73.5315978572536L496.7704051673517,73.25439910188457L507.3399882560188,73.06276661842678L517.9095713446858,72.8008607919143L528.479154433353,72.67059064669726L539.0487375220199,72.57613215846669L549.6183206106871,72.4231427731957L560.1879036993541,72.30588188965658L570.7574867880211,72.14233022853652L581.3270698766883,71.99109689187367L591.8966529653552,71.86360488219198L602.4662360540224,71.77115491240872L613.0358191426893,71.72501525724931L623.6054022313565,71.65591204359146L634.1749853200234,71.48370907758452L644.7445684086905,71.48370907758452L655.3141514973577,71.40361751395872L665.8837345860246,71.35792759054836L676.4533176746918,71.2894969146248L687.0229007633587,71.23256658639889L697.5924838520259,71.19844982892819L708.1620669406929,71.14165745096744L718.2912507339988,71.09628539461566L728.8608338226659,71.08495095293952L739.4304169113329,71.00570564043055L750,70.9379141185035" style="fill: none; stroke: #4c78a8; stroke-width: 2;"></path></g></g><path class="foreground" d="" style="display: none; fill: none;"></path></g><g transform="translate(0,0)"><path class="background" d="M0,0h750v375h-750Z" style="fill: none;"></path><g><g class="mark-line role-mark marks"><path d="M317.0874926600117,375L327.65707574867884,349.00698072900207L338.2266588373459,333.8020391749459L348.79624192601295,302.02836941042574L359.36582501467996,288.65305901272325L369.935408103347,281.81600063295L380.5049911920141,268.75449959789194L391.0745742806812,260.83040858537163L401.6441573693482,248.72640637550722L412.2137404580153,242.76148032689395L422.7833235466823,226.82836055319646L433.35290663534937,211.14570553248672L443.92248972401643,199.76891870767852L454.4920728126835,187.6045397338457L465.0616559013506,176.87986017232544L475.6312389900176,170.58605799128625L486.2008220786847,153.6512499974488L496.7704051673517,144.83523547176623L507.3399882560188,133.22603015470452L517.9095713446858,123.08232393661157L528.479154433353,123.08232393661157L539.0487375220199,107.11433989859546L549.6183206106871,102.25902765001793L560.1879036993541,93.73014429767643L570.7574867880211,87.114857031822L581.3270698766883,81.55330157130844L591.8966529653552,75.0372295033517L602.4662360540224,70.01249180311453L613.0358191426893,63.67433213432984L623.6054022313565,56.94127448350926L634.1749853200234,52.195118009687235L644.7445684086905,48.29000879492419L655.3141514973577,43.96444684359345L665.8837345860246,40.38531676703518L676.4533176746918,36.98561135732367L687.0229007633587,33.00903773456455L697.5924838520259,29.526085086567512L708.1620669406929,26.799184658188896L718.2912507339988,24.07559197917207L728.8608338226659,21.46097735576481L739.4304169113329,19.32910524471029L750,17.22289972650036" style="fill: none; stroke: #f58518; stroke-width: 2;"></path></g></g><path class="foreground" d="" style="display: none; fill: none;"></path></g><g transform="translate(0,0)"><path class="background" d="M0,0h750v375h-750Z" style="fill: none;"></path><g><g class="mark-line role-mark marks"><path d="M433.35290663534937,375L443.92248972401643,349.00698072900207L454.4920728126835,333.8020391749459L465.0616559013506,314.64607828372124L475.6312389900176,288.65305901272325L486.2008220786847,268.75449959789194L496.7704051673517,250.04233086842984L507.3399882560188,241.67444769414698L517.9095713446858,225.4130982538397L528.479154433353,224.72500555378232L539.0487375220199,191.61190769168422L549.6183206106871,177.26251655385948L560.1879036993541,162.5089991957838L570.7574867880211,156.19459736015233L581.3270698766883,139.55544659378086L591.8966529653552,133.7045055454705L602.4662360540224,122.94653622035088L613.0358191426893,114.38038293747104L623.6054022313565,104.01716212122481L634.1749853200234,94.50509508131152L644.7445684086905,84.54616461471073L655.3141514973577,77.24145880703617L665.8837345860246,67.43774284467452L676.4533176746918,60.69849493973614L687.0229007633587,54.58428083738143L697.5924838520259,48.88086603037901L708.1620669406929,44.05803861206023L718.2912507339988,39.33557347403928L728.8608338226659,35.86585672132195L739.4304169113329,31.98446128736279L750,28.329429626028023" style="fill: none; stroke: #e45756; stroke-width: 2;"></path></g></g><path class="foreground" d="" style="display: none; fill: none;"></path></g><g transform="translate(0,0)"><path class="background" d="M0,0h750v375h-750Z" style="fill: none;"></path><g><g class="mark-line role-mark marks"><path d="M401.6441573693482,375L412.2137404580153,375L422.7833235466823,307.80901990394796L433.35290663534937,302.02836941042574L443.92248972401643,285.0789272700611L454.4920728126835,281.81600063295L465.0616559013506,276.0353501394278L475.6312389900176,268.75449959789194L486.2008220786847,260.83040858537163L496.7704051673517,259.0859079990632L507.3399882560188,250.04233086842984L517.9095713446858,240.61803980789588L528.479154433353,236.6670204707274L539.0487375220199,230.6194649358728L549.6183206106871,225.4130982538397L560.1879036993541,219.63244776031752L570.7574867880211,208.40057788161315L581.3270698766883,199.42007898284174L591.8966529653552,196.09932658253754L602.4662360540224,176.31309875444862L613.0358191426893,168.85619155150493L623.6054022313565,160.2432094654801L634.1749853200234,148.75926668254496L644.7445684086905,137.90380350272682L655.3141514973577,129.01442859400345L665.8837345860246,118.19980220338638L676.4533176746918,108.8419181019453L687.0229007633587,98.78201860464479L697.5924838520259,89.48179931967643L708.1620669406929,82.0965706301491L718.2912507339988,75.0372295033517L728.8608338226659,65.1830745181968L739.4304169113329,57.47353138378944L750,49.23357269499337" style="fill: none; stroke: #72b7b2; stroke-width: 2;"></path></g></g><path class="foreground" d="" style="display: none; fill: none;"></path></g><g transform="translate(0,0)"><path class="background" d="M0,0h750v375h-750Z" style="fill: none;"></path><g><g class="mark-line role-mark marks"><path d="M454.4920728126835,375L465.0616559013506,349.00698072900207L475.6312389900176,349.00698072900207L486.2008220786847,333.8020391749459L496.7704051673517,323.0139614580041L507.3399882560188,307.80901990394796L517.9095713446858,297.02094218700614L528.479154433353,297.02094218700614L539.0487375220199,297.02094218700614L549.6183206106871,260.83040858537163L560.1879036993541,260.83040858537163L570.7574867880211,224.0493115974319L581.3270698766883,224.0493115974319L591.8966529653552,214.62502053689795L602.4662360540224,190.22798680660483L613.0358191426893,180.6831168640468L623.6054022313565,170.42545817408617L634.1749853200234,163.42848483982073L644.7445684086905,156.85833150137984L655.3141514973577,148.2235432857646L665.8837345860246,144.59303872028832L676.4533176746918,136.38644611723257L687.0229007633587,126.20124908018678L697.5924838520259,115.17983181882506L708.1620669406929,108.16567026808296L718.2912507339988,103.04797680551944L728.8608338226659,94.06329473980752L739.4304169113329,83.80706613989506L750,75.69781569074739" style="fill: none; stroke: #54a24b; stroke-width: 2;"></path></g></g><path class="foreground" d="" style="display: none; fill: none;"></path></g></g><g class="mark-group role-legend"><g transform="translate(770,0)"><path class="background" d="M0,0h88v79h-88Z" style="pointer-events: none; fill: none;"></path><g><g class="mark-group role-legend-entry"><g transform="translate(0,16)"><path class="background" d="M0,0h0v0h0Z" style="pointer-events: none; fill: none;"></path><g><g class="mark-group role-scope"><g transform="translate(0,0)"><path class="background" d="M0,0h87.15234375v11h-87.15234375Z" style="pointer-events: none; fill: none; opacity: 1;"></path><g><g class="mark-symbol role-legend-symbol" style="pointer-events: none;"><path transform="translate(6,6)" d="M-5,0L5,0" style="fill: none; stroke: #4c78a8; stroke-width: 1.5; opacity: 1;"></path></g><g class="mark-text role-legend-label" style="pointer-events: none;"><text text-anchor="start" transform="translate(16,9)" style="font-family: sans-serif; font-size: 10px; fill: #000; opacity: 1;">China</text></g></g><path class="foreground" d="" style="pointer-events: none; display: none; fill: none;"></path></g><g transform="translate(0,13)"><path class="background" d="M0,0h87.15234375v11h-87.15234375Z" style="pointer-events: none; fill: none; opacity: 1;"></path><g><g class="mark-symbol role-legend-symbol" style="pointer-events: none;"><path transform="translate(6,6)" d="M-5,0L5,0" style="fill: none; stroke: #f58518; stroke-width: 1.5; opacity: 1;"></path></g><g class="mark-text role-legend-label" style="pointer-events: none;"><text text-anchor="start" transform="translate(16,9)" style="font-family: sans-serif; font-size: 10px; fill: #000; opacity: 1;">Italy</text></g></g><path class="foreground" d="" style="pointer-events: none; display: none; fill: none;"></path></g><g transform="translate(0,26)"><path class="background" d="M0,0h87.15234375v11h-87.15234375Z" style="pointer-events: none; fill: none; opacity: 1;"></path><g><g class="mark-symbol role-legend-symbol" style="pointer-events: none;"><path transform="translate(6,6)" d="M-5,0L5,0" style="fill: none; stroke: #e45756; stroke-width: 1.5; opacity: 1;"></path></g><g class="mark-text role-legend-label" style="pointer-events: none;"><text text-anchor="start" transform="translate(16,9)" style="font-family: sans-serif; font-size: 10px; fill: #000; opacity: 1;">Spain</text></g></g><path class="foreground" d="" style="pointer-events: none; display: none; fill: none;"></path></g><g transform="translate(0,39)"><path class="background" d="M0,0h87.15234375v11h-87.15234375Z" style="pointer-events: none; fill: none; opacity: 1;"></path><g><g class="mark-symbol role-legend-symbol" style="pointer-events: none;"><path transform="translate(6,6)" d="M-5,0L5,0" style="fill: none; stroke: #72b7b2; stroke-width: 1.5; opacity: 1;"></path></g><g class="mark-text role-legend-label" style="pointer-events: none;"><text text-anchor="start" transform="translate(16,9)" style="font-family: sans-serif; font-size: 10px; fill: #000; opacity: 1;">US</text></g></g><path class="foreground" d="" style="pointer-events: none; display: none; fill: none;"></path></g><g transform="translate(0,52)"><path class="background" d="M0,0h87.15234375v11h-87.15234375Z" style="pointer-events: none; fill: none; opacity: 1;"></path><g><g class="mark-symbol role-legend-symbol" style="pointer-events: none;"><path transform="translate(6,6)" d="M-5,0L5,0" style="fill: none; stroke: #54a24b; stroke-width: 1.5; opacity: 1;"></path></g><g class="mark-text role-legend-label" style="pointer-events: none;"><text text-anchor="start" transform="translate(16,9)" style="font-family: sans-serif; font-size: 10px; fill: #000; opacity: 1;">United Kingdom</text></g></g><path class="foreground" d="" style="pointer-events: none; display: none; fill: none;"></path></g></g></g><path class="foreground" d="" style="pointer-events: none; display: none; fill: none;"></path></g></g><g class="mark-text role-legend-title" style="pointer-events: none;"><text text-anchor="start" transform="translate(0,9)" style="font-family: sans-serif; font-size: 11px; font-weight: bold; fill: #000; opacity: 1;">country</text></g></g><path class="foreground" d="" style="pointer-events: none; display: none; fill: none;"></path></g></g><g class="mark-group role-title"><g transform="translate(375,-22)"><path class="background" d="M0,0h0v0h0Z" style="pointer-events: none; fill: none;"></path><g><g class="mark-text role-title-text" style="pointer-events: none;"><text text-anchor="middle" transform="translate(0,10)" style="font-family: sans-serif; font-size: 13px; font-weight: bold; fill: #000; opacity: 1;">LogDeaths by day in ['China', 'Italy', 'Spain', 'US', 'United Kingdom'] as of 04-03-2020</text></g></g><path class="foreground" d="" style="pointer-events: none; display: none; fill: none;"></path></g></g></g><path class="foreground" d="" style="display: none; fill: none;"></path></g></g></g></svg>