<svg class="marks" width="900" height="439" viewBox="0 0 900 439" version="1.1" xmlns="http://www.w3.org/2000/svg" xmlns:xlink="http://www.w3.org/1999/xlink"><rect width="900" height="439" style="fill: white;"></rect><g transform="translate(39,27)"><g class="mark-group role-frame root"><g transform="translate(0,0)"><path class="background" d="M0.5,0.5h750v375h-750Z" style="fill: none; stroke: #ddd;"></path><g><g class="mark-group role-axis"><g transform="translate(0.5,375.5)"><path class="background" d="M0,0h0v0h0Z" style="pointer-events: none; fill: none;"></path><g><g class="mark-rule role-axis-grid" style="pointer-events: none;"><line transform="translate(0,-375)" x2="0" y2="375" style="fill: none; stroke: #ddd; stroke-width: 1; opacity: 1;"></line><line transform="translate(29,-375)" x2="0" y2="375" style="fill: none; stroke: #ddd; stroke-width: 1; opacity: 1;"></line><line transform="translate(58,-375)" x2="0" y2="375" style="fill: none; stroke: #ddd; stroke-width: 1; opacity: 1;"></line><line transform="translate(87,-375)" x2="0" y2="375" style="fill: none; stroke: #ddd; stroke-width: 1; opacity: 1;"></line><line transform="translate(115,-375)" x2="0" y2="375" style="fill: none; stroke: #ddd; stroke-width: 1; opacity: 1;"></line><line transform="translate(144,-375)" x2="0" y2="375" style="fill: none; stroke: #ddd; stroke-width: 1; opacity: 1;"></line><line transform="translate(173,-375)" x2="0" y2="375" style="fill: none; stroke: #ddd; stroke-width: 1; opacity: 1;"></line><line transform="translate(202,-375)" x2="0" y2="375" style="fill: none; stroke: #ddd; stroke-width: 1; opacity: 1;"></line><line transform="translate(231,-375)" x2="0" y2="375" style="fill: none; stroke: #ddd; stroke-width: 1; opacity: 1;"></line><line transform="translate(260,-375)" x2="0" y2="375" style="fill: none; stroke: #ddd; stroke-width: 1; opacity: 1;"></line><line transform="translate(288,-375)" x2="0" y2="375" style="fill: none; stroke: #ddd; stroke-width: 1; opacity: 1;"></line><line transform="translate(317,-375)" x2="0" y2="375" style="fill: none; stroke: #ddd; stroke-width: 1; opacity: 1;"></line><line transform="translate(346,-375)" x2="0" y2="375" style="fill: none; stroke: #ddd; stroke-width: 1; opacity: 1;"></line><line transform="translate(375,-375)" x2="0" y2="375" style="fill: none; stroke: #ddd; stroke-width: 1; opacity: 1;"></line><line transform="translate(404,-375)" x2="0" y2="375" style="fill: none; stroke: #ddd; stroke-width: 1; opacity: 1;"></line><line transform="translate(433,-375)" x2="0" y2="375" style="fill: none; stroke: #ddd; stroke-width: 1; opacity: 1;"></line><line transform="translate(462,-375)" x2="0" y2="375" style="fill: none; stroke: #ddd; stroke-width: 1; opacity: 1;"></line><line transform="translate(490,-375)" x2="0" y2="375" style="fill: none; stroke: #ddd; stroke-width: 1; opacity: 1;"></line><line transform="translate(519,-375)" x2="0" y2="375" style="fill: none; stroke: #ddd; stroke-width: 1; opacity: 1;"></line><line transform="translate(548,-375)" x2="0" y2="375" style="fill: none; stroke: #ddd; stroke-width: 1; opacity: 1;"></line><line transform="translate(577,-375)" x2="0" y2="375" style="fill: none; stroke: #ddd; stroke-width: 1; opacity: 1;"></line><line transform="translate(606,-375)" x2="0" y2="375" style="fill: none; stroke: #ddd; stroke-width: 1; opacity: 1;"></line><line transform="translate(635,-375)" x2="0" y2="375" style="fill: none; stroke: #ddd; stroke-width: 1; opacity: 1;"></line><line transform="translate(663,-375)" x2="0" y2="375" style="fill: none; stroke: #ddd; stroke-width: 1; opacity: 1;"></line><line transform="translate(692,-375)" x2="0" y2="375" style="fill: none; stroke: #ddd; stroke-width: 1; opacity: 1;"></line><line transform="translate(721,-375)" x2="0" y2="375" style="fill: none; stroke: #ddd; stroke-width: 1; opacity: 1;"></line><line transform="translate(750,-375)" x2="0" y2="375" style="fill: none; stroke: #ddd; stroke-width: 1; opacity: 1;"></line></g></g><path class="foreground" d="" style="pointer-events: none; display: none; fill: none;"></path></g></g><g class="mark-group role-axis"><g transform="translate(0.5,0.5)"><path class="background" d="M0,0h0v0h0Z" style="pointer-events: none; fill: none;"></path><g><g class="mark-rule role-axis-grid" style="pointer-events: none;"><line transform="translate(0,375)" x2="750" y2="0" style="fill: none; stroke: #ddd; stroke-width: 1; opacity: 1;"></line><line transform="translate(0,341)" x2="750" y2="0" style="fill: none; stroke: #ddd; stroke-width: 1; opacity: 1;"></line><line transform="translate(0,307)" x2="750" y2="0" style="fill: none; stroke: #ddd; stroke-width: 1; opacity: 1;"></line><line transform="translate(0,273)" x2="750" y2="0" style="fill: none; stroke: #ddd; stroke-width: 1; opacity: 1;"></line><line transform="translate(0,239)" x2="750" y2="0" style="fill: none; stroke: #ddd; stroke-width: 1; opacity: 1;"></line><line transform="translate(0,205)" x2="750" y2="0" style="fill: none; stroke: #ddd; stroke-width: 1; opacity: 1;"></line><line transform="translate(0,170)" x2="750" y2="0" style="fill: none; stroke: #ddd; stroke-width: 1; opacity: 1;"></line><line transform="translate(0,136)" x2="750" y2="0" style="fill: none; stroke: #ddd; stroke-width: 1; opacity: 1;"></line><line transform="translate(0,102)" x2="750" y2="0" style="fill: none; stroke: #ddd; stroke-width: 1; opacity: 1;"></line><line transform="translate(0,68)" x2="750" y2="0" style="fill: none; stroke: #ddd; stroke-width: 1; opacity: 1;"></line><line transform="translate(0,34)" x2="750" y2="0" style="fill: none; stroke: #ddd; stroke-width: 1; opacity: 1;"></line><line transform="translate(0,0)" x2="750" y2="0" style="fill: none; stroke: #ddd; stroke-width: 1; opacity: 1;"></line></g></g><path class="foreground" d="" style="pointer-events: none; display: none; fill: none;"></path></g></g><g class="mark-group role-axis"><g transform="translate(0.5,375.5)"><path class="background" d="M0,0h0v0h0Z" style="pointer-events: none; fill: none;"></path><g><g class="mark-rule role-axis-tick" style="pointer-events: none;"><line transform="translate(0,0)" x2="0" y2="5" style="fill: none; stroke: #888; stroke-width: 1; opacity: 1;"></line><line transform="translate(29,0)" x2="0" y2="5" style="fill: none; stroke: #888; stroke-width: 1; opacity: 1;"></line><line transform="translate(58,0)" x2="0" y2="5" style="fill: none; stroke: #888; stroke-width: 1; opacity: 1;"></line><line transform="translate(87,0)" x2="0" y2="5" style="fill: none; stroke: #888; stroke-width: 1; opacity: 1;"></line><line transform="translate(115,0)" x2="0" y2="5" style="fill: none; stroke: #888; stroke-width: 1; opacity: 1;"></line><line transform="translate(144,0)" x2="0" y2="5" style="fill: none; stroke: #888; stroke-width: 1; opacity: 1;"></line><line transform="translate(173,0)" x2="0" y2="5" style="fill: none; stroke: #888; stroke-width: 1; opacity: 1;"></line><line transform="translate(202,0)" x2="0" y2="5" style="fill: none; stroke: #888; stroke-width: 1; opacity: 1;"></line><line transform="translate(231,0)" x2="0" y2="5" style="fill: none; stroke: #888; stroke-width: 1; opacity: 1;"></line><line transform="translate(260,0)" x2="0" y2="5" style="fill: none; stroke: #888; stroke-width: 1; opacity: 1;"></line><line transform="translate(288,0)" x2="0" y2="5" style="fill: none; stroke: #888; stroke-width: 1; opacity: 1;"></line><line transform="translate(317,0)" x2="0" y2="5" style="fill: none; stroke: #888; stroke-width: 1; opacity: 1;"></line><line transform="translate(346,0)" x2="0" y2="5" style="fill: none; stroke: #888; stroke-width: 1; opacity: 1;"></line><line transform="translate(375,0)" x2="0" y2="5" style="fill: none; stroke: #888; stroke-width: 1; opacity: 1;"></line><line transform="translate(404,0)" x2="0" y2="5" style="fill: none; stroke: #888; stroke-width: 1; opacity: 1;"></line><line transform="translate(433,0)" x2="0" y2="5" style="fill: none; stroke: #888; stroke-width: 1; opacity: 1;"></line><line transform="translate(462,0)" x2="0" y2="5" style="fill: none; stroke: #888; stroke-width: 1; opacity: 1;"></line><line transform="translate(490,0)" x2="0" y2="5" style="fill: none; stroke: #888; stroke-width: 1; opacity: 1;"></line><line transform="translate(519,0)" x2="0" y2="5" style="fill: none; stroke: #888; stroke-width: 1; opacity: 1;"></line><line transform="translate(548,0)" x2="0" y2="5" style="fill: none; stroke: #888; stroke-width: 1; opacity: 1;"></line><line transform="translate(577,0)" x2="0" y2="5" style="fill: none; stroke: #888; stroke-width: 1; opacity: 1;"></line><line transform="translate(606,0)" x2="0" y2="5" style="fill: none; stroke: #888; stroke-width: 1; opacity: 1;"></line><line transform="translate(635,0)" x2="0" y2="5" style="fill: none; stroke: #888; stroke-width: 1; opacity: 1;"></line><line transform="translate(663,0)" x2="0" y2="5" style="fill: none; stroke: #888; stroke-width: 1; opacity: 1;"></line><line transform="translate(692,0)" x2="0" y2="5" style="fill: none; stroke: #888; stroke-width: 1; opacity: 1;"></line><line transform="translate(721,0)" x2="0" y2="5" style="fill: none; stroke: #888; stroke-width: 1; opacity: 1;"></line><line transform="translate(750,0)" x2="0" y2="5" style="fill: none; stroke: #888; stroke-width: 1; opacity: 1;"></line></g><g class="mark-text role-axis-label" style="pointer-events: none;"><text text-anchor="start" transform="translate(0,15)" style="font-family: sans-serif; font-size: 10px; fill: #000; opacity: 1;">0.0</text><text text-anchor="middle" transform="translate(28.846153846153847,15)" style="font-family: sans-serif; font-size: 10px; fill: #000; opacity: 0;">0.5</text><text text-anchor="middle" transform="translate(57.69230769230769,15)" style="font-family: sans-serif; font-size: 10px; fill: #000; opacity: 1;">1.0</text><text text-anchor="middle" transform="translate(86.53846153846155,15)" style="font-family: sans-serif; font-size: 10px; fill: #000; opacity: 0;">1.5</text><text text-anchor="middle" transform="translate(115.38461538461539,15)" style="font-family: sans-serif; font-size: 10px; fill: #000; opacity: 1;">2.0</text><text text-anchor="middle" transform="translate(144.23076923076923,15)" style="font-family: sans-serif; font-size: 10px; fill: #000; opacity: 0;">2.5</text><text text-anchor="middle" transform="translate(173.0769230769231,15)" style="font-family: sans-serif; font-size: 10px; fill: #000; opacity: 1;">3.0</text><text text-anchor="middle" transform="translate(201.9230769230769,15)" style="font-family: sans-serif; font-size: 10px; fill: #000; opacity: 0;">3.5</text><text text-anchor="middle" transform="translate(230.76923076923077,15)" style="font-family: sans-serif; font-size: 10px; fill: #000; opacity: 1;">4.0</text><text text-anchor="middle" transform="translate(259.6153846153846,15)" style="font-family: sans-serif; font-size: 10px; fill: #000; opacity: 0;">4.5</text><text text-anchor="middle" transform="translate(288.46153846153845,15)" style="font-family: sans-serif; font-size: 10px; fill: #000; opacity: 1;">5.0</text><text text-anchor="middle" transform="translate(317.3076923076923,15)" style="font-family: sans-serif; font-size: 10px; fill: #000; opacity: 0;">5.5</text><text text-anchor="middle" transform="translate(346.1538461538462,15)" style="font-family: sans-serif; font-size: 10px; fill: #000; opacity: 1;">6.0</text><text text-anchor="middle" transform="translate(375,15)" style="font-family: sans-serif; font-size: 10px; fill: #000; opacity: 0;">6.5</text><text text-anchor="middle" transform="translate(403.8461538461538,15)" style="font-family: sans-serif; font-size: 10px; fill: #000; opacity: 1;">7.0</text><text text-anchor="middle" transform="translate(432.6923076923077,15)" style="font-family: sans-serif; font-size: 10px; fill: #000; opacity: 0;">7.5</text><text text-anchor="middle" transform="translate(461.53846153846155,15)" style="font-family: sans-serif; font-size: 10px; fill: #000; opacity: 1;">8.0</text><text text-anchor="middle" transform="translate(490.3846153846154,15)" style="font-family: sans-serif; font-size: 10px; fill: #000; opacity: 0;">8.5</text><text text-anchor="middle" transform="translate(519.2307692307692,15)" style="font-family: sans-serif; font-size: 10px; fill: #000; opacity: 1;">9.0</text><text text-anchor="middle" transform="translate(548.0769230769231,15)" style="font-family: sans-serif; font-size: 10px; fill: #000; opacity: 0;">9.5</text><text text-anchor="middle" transform="translate(576.9230769230769,15)" style="font-family: sans-serif; font-size: 10px; fill: #000; opacity: 1;">10.0</text><text text-anchor="middle" transform="translate(605.7692307692308,15)" style="font-family: sans-serif; font-size: 10px; fill: #000; opacity: 0;">10.5</text><text text-anchor="middle" transform="translate(634.6153846153846,15)" style="font-family: sans-serif; font-size: 10px; fill: #000; opacity: 1;">11.0</text><text text-anchor="middle" transform="translate(663.4615384615385,15)" style="font-family: sans-serif; font-size: 10px; fill: #000; opacity: 0;">11.5</text><text text-anchor="middle" transform="translate(692.3076923076924,15)" style="font-family: sans-serif; font-size: 10px; fill: #000; opacity: 1;">12.0</text><text text-anchor="middle" transform="translate(721.1538461538462,15)" style="font-family: sans-serif; font-size: 10px; fill: #000; opacity: 0;">12.5</text><text text-anchor="end" transform="translate(750,15)" style="font-family: sans-serif; font-size: 10px; fill: #000; opacity: 1;">13.0</text></g><g class="mark-rule role-axis-domain" style="pointer-events: none;"><line transform="translate(0,0)" x2="750" y2="0" style="fill: none; stroke: #888; stroke-width: 1; opacity: 1;"></line></g><g class="mark-text role-axis-title" style="pointer-events: none;"><text text-anchor="middle" transform="translate(375,30)" style="font-family: sans-serif; font-size: 11px; font-weight: bold; fill: #000; opacity: 1;">LogConfirmed</text></g></g><path class="foreground" d="" style="pointer-events: none; display: none; fill: none;"></path></g></g><g class="mark-group role-axis"><g transform="translate(0.5,0.5)"><path class="background" d="M0,0h0v0h0Z" style="pointer-events: none; fill: none;"></path><g><g class="mark-rule role-axis-tick" style="pointer-events: none;"><line transform="translate(0,375)" x2="-5" y2="0" style="fill: none; stroke: #888; stroke-width: 1; opacity: 1;"></line><line transform="translate(0,341)" x2="-5" y2="0" style="fill: none; stroke: #888; stroke-width: 1; opacity: 1;"></line><line transform="translate(0,307)" x2="-5" y2="0" style="fill: none; stroke: #888; stroke-width: 1; opacity: 1;"></line><line transform="translate(0,273)" x2="-5" y2="0" style="fill: none; stroke: #888; stroke-width: 1; opacity: 1;"></line><line transform="translate(0,239)" x2="-5" y2="0" style="fill: none; stroke: #888; stroke-width: 1; opacity: 1;"></line><line transform="translate(0,205)" x2="-5" y2="0" style="fill: none; stroke: #888; stroke-width: 1; opacity: 1;"></line><line transform="translate(0,170)" x2="-5" y2="0" style="fill: none; stroke: #888; stroke-width: 1; opacity: 1;"></line><line transform="translate(0,136)" x2="-5" y2="0" style="fill: none; stroke: #888; stroke-width: 1; opacity: 1;"></line><line transform="translate(0,102)" x2="-5" y2="0" style="fill: none; stroke: #888; stroke-width: 1; opacity: 1;"></line><line transform="translate(0,68)" x2="-5" y2="0" style="fill: none; stroke: #888; stroke-width: 1; opacity: 1;"></line><line transform="translate(0,34)" x2="-5" y2="0" style="fill: none; stroke: #888; stroke-width: 1; opacity: 1;"></line><line transform="translate(0,0)" x2="-5" y2="0" style="fill: none; stroke: #888; stroke-width: 1; opacity: 1;"></line></g><g class="mark-text role-axis-label" style="pointer-events: none;"><text text-anchor="end" transform="translate(-7,378)" style="font-family: sans-serif; font-size: 10px; fill: #000; opacity: 1;">0</text><text text-anchor="end" transform="translate(-7,343.9090909090909)" style="font-family: sans-serif; font-size: 10px; fill: #000; opacity: 1;">1</text><text text-anchor="end" transform="translate(-7,309.8181818181818)" style="font-family: sans-serif; font-size: 10px; fill: #000; opacity: 1;">2</text><text text-anchor="end" transform="translate(-7,275.72727272727275)" style="font-family: sans-serif; font-size: 10px; fill: #000; opacity: 1;">3</text><text text-anchor="end" transform="translate(-7,241.63636363636363)" style="font-family: sans-serif; font-size: 10px; fill: #000; opacity: 1;">4</text><text text-anchor="end" transform="translate(-7,207.54545454545453)" style="font-family: sans-serif; font-size: 10px; fill: #000; opacity: 1;">5</text><text text-anchor="end" transform="translate(-7,173.45454545454547)" style="font-family: sans-serif; font-size: 10px; fill: #000; opacity: 1;">6</text><text text-anchor="end" transform="translate(-7,139.36363636363637)" style="font-family: sans-serif; font-size: 10px; fill: #000; opacity: 1;">7</text><text text-anchor="end" transform="translate(-7,105.27272727272727)" style="font-family: sans-serif; font-size: 10px; fill: #000; opacity: 1;">8</text><text text-anchor="end" transform="translate(-7,71.18181818181816)" style="font-family: sans-serif; font-size: 10px; fill: #000; opacity: 1;">9</text><text text-anchor="end" transform="translate(-7,37.0909090909091)" style="font-family: sans-serif; font-size: 10px; fill: #000; opacity: 1;">10</text><text text-anchor="end" transform="translate(-7,3)" style="font-family: sans-serif; font-size: 10px; fill: #000; opacity: 1;">11</text></g><g class="mark-rule role-axis-domain" style="pointer-events: none;"><line transform="translate(0,375)" x2="0" y2="-375" style="fill: none; stroke: #888; stroke-width: 1; opacity: 1;"></line></g><g class="mark-text role-axis-title" style="pointer-events: none;"><text text-anchor="middle" transform="translate(-22.123046875,187.5) rotate(-90) translate(0,-2)" style="font-family: sans-serif; font-size: 11px; font-weight: bold; fill: #000; opacity: 1;">LogNew</text></g></g><path class="foreground" d="" style="pointer-events: none; display: none; fill: none;"></path></g></g><g class="mark-group role-scope pathgroup"><g transform="translate(0,0)"><path class="background" d="M0,0h750v375h-750Z" style="fill: none;"></path><g><g class="mark-line role-mark marks"><path d="M373.0468110137088,219.7541968772543L393.71386557940883,183.2721304708862L418.1829272521506,164.10652418521045L440.63748649989225,153.2119070410831L459.49057866643545,147.03038836818698L496.96952293111826,106.51706957573153L502.72561318234176,158.19634538616896L519.5000943215756,114.97007759698285L530.2120226232399,122.20993944500128L541.3579090637065,114.39406494693526L560.7094368569408,86.46881516019587L570.5299481437654,101.09212387762136L581.1649408940327,92.32509869152045L589.6013701061436,94.6033814006392L595.8652131386843,100.4248330546225L602.1545697353475,96.57722119291238L606.5557780726539,105.59701918762993L611.0971482205974,101.88562127859254L614.6433546128958,107.93194289626842L617.3468875028466,115.3371883398282L617.8296819692343,173.12800842123355L634.6354793172364,46.88075143323887L640.547284916104,75.89151527512857L642.3068160018087,114.95348430919313L644.0510982094854,114.2150241916529L645.6017931576739,117.25223308743554L647.0000576622843,119.90857404018233L647.3163718530253,170.07043723622178L647.6693961071153,166.12945963247097L648.0317289058203,165.0308390286841L649.1292512171814,126.81790046985725L649.1449831334412,271.2094623503379L649.3087894106773,191.2816455744375L649.6906889805847,162.2633234600874L649.9955797718851,169.7378403630843L650.3150179856133,167.96439088294076L650.5552686619337,177.5108997141769L650.8672694689998,168.4389819688024L651.2845126269912,158.3145115671855L651.4315655937461,193.7004547553108L651.5214867259554,210.3983953192397L651.6112679222048,210.3983953192397L651.7195376042055,203.9563691994912L651.8290344716858,203.50779813434883L651.8862051020967,225.6127283633904L651.9240494693321,239.64913931072311L651.9504544150824,251.9005257053105L651.9697152647076,262.64192502257964L651.9939605244031,254.78316393353995L652.0018023980241,293.25357024551005L652.0110686928234,287.5585446319931L652.0338716951355,256.8499124045548L652.0523925003322,263.92852711290396L652.0737552746607,259.0500892615175L652.0915515459373,265.2655968794932L652.1228596564548,245.99353520733203L652.1612600401695,239.01190750349065L652.2280442418452,220.1149506044317L652.2670842842206,238.38636868525668L652.3592558658265,209.06132555265057L652.4038707144546,233.75677069119777L652.4696677356754,220.4795627334117L652.5191429247814,230.16493493013547L652.6045643928907,211.50714049102015L652.6856330269405,213.24095016943465L652.757442175966,217.33047227439982L652.8439168522685,210.94826061230395L652.8972836450785,227.3613633993296L652.9541071194957,225.18923336343954L653.0115751664094,224.770934752355L653.0612878859982,229.68136782813698L653.1165517366159,226.0415504840788L653.1389220380842,256.8499124045548L653.1801445552499,235.99304168503227" style="fill: none; stroke: #4c78a8; stroke-width: 2;"></path></g></g><path class="foreground" d="" style="display: none; fill: none;"></path></g><g transform="translate(0,0)"><path class="background" d="M0,0h750v375h-750Z" style="fill: none;"></path><g><g class="mark-line role-mark marks"><path d="M39.98926041691992,351.36998248091095ZM63.381478192390944,375ZM172.8307080896533,278.413181452629L238.10390682952453,247.57944483124876L290.9668336684181,220.4795627334117L313.4839617435139,228.2705081862215L333.14720455063895,220.4795627334117L352.8399303163289,208.80009125450619L374.1135712866492,194.0363284976862L391.67144671108673,189.16914362844204L405.47315954180795,188.1600367042503L428.9335312622307,158.9115655158006L439.5428294809854,176.08599760013848L451.43340525154935,165.53912610935302L463.59246305299513,157.66960841495126L476.4175496230196,148.46280785776213L487.015800257287,148.0661412211912L500.75896816525704,131.98309276090785L513.7991066081551,125.8679733830555L526.3794602294882,119.5270265869241L532.2190648528165,140.30159140763243L544.0638053713942,110.92156833301911M564.1763927398817,83.31718584540559L574.599582633653,96.82974760011216L583.64189703051,95.93497222219348L590.7256873972773,99.5057121229966L597.5730740114951,96.54820353552901L604.8040411812146,90.52823578668678L612.8181138498353,82.51348460667155L620.6740147738636,78.50527198593261L628.2054124062092,75.39925703646753L633.9016716216797,81.02204361666043L638.394062673117,86.11101476104739L642.9466881138616,82.98433427548977L647.1359441002842,83.23857495179274L651.7567755435095,77.29130710318914L655.8390329576183,78.94664006776107L659.6919908638905,78.57368185990718L662.8583216614797,83.19280216969118L665.2018840011133,91.8248127238437L667.4555873758094,91.7995695467622L670.0061687919283,86.160881317559L672.3917044692062,86.98343204296206L674.6425566286302,87.5950437037307L676.9108081264768,85.99730722485029L678.8748750750956,89.65621614620369" style="fill: none; stroke: #9ecae9; stroke-width: 2;"></path></g></g><path class="foreground" d="" style="display: none; fill: none;"></path></g><g transform="translate(0,0)"><path class="background" d="M0,0h750v375h-750Z" style="fill: none;"></path><g><g class="mark-line role-mark marks"><path d="M0,375ZM39.98926041691992,375ZM103.37073860931086,327.7399649618219L147.97784754585788,308.66215400947794L156.23366544820442,351.36998248091095L199.9463020845996,278.413181452629L219.61514364059536,287.5585446319931L255.62404608711424,250.10585297285297L276.20144669896416,252.83458164354172L294.5737773404181,245.22741512146638L311.6929258772469,237.16870677836764L320.58623432881944,251.9005257053105L345.6614161793066,206.29227646438062L358.5350826012803,218.00556184131506L375.67761517181117,199.31960473303025L402.5892543825403,170.74552680313695L428.96757806622406,155.69522411116435L445.9969653498311,157.96123473642825M493.99320537329044,102.57088875544777L505.53727094136246,134.47797124978118L517.0166867043774,127.867668507464L531.030201153151,113.50811856168092L540.6599014799141,119.35671361442282L550.4055741298552,113.22310233411976L565.1578480251251,91.7995695467622L572.525783988686,109.00165692809075L585.0854023096467,84.88748364802849L592.3280156118085,97.848939347926L603.864318742454,76.3963388344016L611.1782072506863,86.39695402673449L623.655630747427,62.2964146093578L632.5674121608992,67.48258978323047L639.9890397673425,68.90500386470445L646.2362727549466,70.74581725454466L651.4128443774516,73.78476400449638L656.8033827933842,69.28093886013079L661.8058306889825,68.75920604385117L666.5353932876092,67.79729007347963L670.7789041775776,68.8448939338575L674.3394025567184,72.52406707094879L677.6174787211958,73.32180608732321L680.0695258194232,81.52856761966966" style="fill: none; stroke: #f58518; stroke-width: 2;"></path></g></g><path class="foreground" d="" style="display: none; fill: none;"></path></g><g transform="translate(0,0)"><path class="background" d="M0,0h750v375h-750Z" style="fill: none;"></path><g><g class="mark-line role-mark marks"><path d="M39.98926041691992,375ZM92.85218725581348,337.5473083408599ZM112.26404706088347,351.36998248091095L119.96778125075976,375M138.3401118922137,337.5473083408599ZM143.35999902623078,375ZM147.97784754585788,375ZM156.23366544820442,351.36998248091095ZM226.83609419563416,252.83458164354172ZM233.2529577596856,313.91729082177085L234.25632753152416,375L236.21218628204426,351.36998248091095L243.43313683708308,304.1099474427329L248.31144768485598,313.91729082177085L264.5173545386869,266.65725578359275L275.23180525763456,272.8727634015685L288.68920995839187,257.93225439255184L310.37869347348806,231.15314641445093L321.2506444477556,245.22741512146638L345.94915895878967,206.53491741104645L360.5754947457394,212.94578893955577L367.39541459714377,232.69134307173965L396.1091004740445,172.85491556625362L412.81132510942695,178.14028822007697L427.8679891842074,172.31520652477585L443.4589231698819,162.0645420858558L456.4013874718609,160.01334249040855L470.78264379044356,148.33007215824628L486.96600111074025,135.2514456467725L505.80745083427206,119.67913351674824L516.9056046322725,128.9758129530867L549.4310116662433,79.03328988758048L568.6986700404648,81.87257567587294L585.3462845497843,76.28410088855648L600.7264439656026,69.53826287805727L616.6420142543424,59.118079030613764L628.3795893559317,61.37786197761742L640.0408104751497,54.68783208723697L654.0356416438299,40.863270038610494L665.1553661788644,41.31365399409885L675.4320262735816,37.68759338529559L683.9830575981348,38.40543302782394L691.9707430360794,35.846293698284725L700.6795221443672,27.961614137571463L707.9303307833047,29.502297494334737L715.5391837150282,23.46651060708968L722.691635686905,21.216858462520264L729.266019295618,20.037579201211546L734.3106828672837,25.64123541076005" style="fill: none; stroke: #ffbf79; stroke-width: 2;"></path></g></g><path class="foreground" d="" style="display: none; fill: none;"></path></g><g transform="translate(0,0)"><path class="background" d="M0,0h750v375h-750Z" style="fill: none;"></path><g><g class="mark-line role-mark marks"><path d="M39.98926041691992,351.36998248091095ZM63.381478192390944,375ZM119.96778125075976,320.1327984397466ZM126.76295638478189,375ZM147.97784754585788,327.7399649618219ZM156.23366544820442,351.36998248091095L172.8307080896533,320.1327984397466L180.89389707283556,337.5473083408599L206.74147721862172,287.5585446319931L212.81996850657322,327.7399649618219L226.83609419563416,293.25357024551005L256.9815747838562,253.7949524492245L274.2455879484441,259.0500892615175L294.22306314370377,243.0272382645037L307.65685345761744,246.777268783174L323.834313830081,231.65820615712616L333.14720455063895,243.0272382645037L343.3063011108304,234.3022368734628L353.5990505804161,227.8129052203531M385.79472737691435,175.98646202843386L406.2857406888313,176.08599760013848L406.3361489993273,375L423.8454901832619,170.23796046812274L437.3480626283402,169.98698331672264L454.57450875474643,152.55580711897287L456.1682012699185,228.2705081862215L478.7044343859395,130.61659441145335L492.144473392841,137.74777799543264L499.38953020862624,152.75634245657744L508.4847630173201,140.16230251481713L519.6628571497923,127.12470892223888L529.2505608233417,126.23553391498575L540.9733409344508,113.06578360043775L553.7688069951563,102.8256453757687L563.028183556512,107.36955065212022L570.7169195294252,108.71033914686551L578.0295873768578,105.99011194980959L585.3281743490651,101.73894495827253L594.4870676057542,89.12328993314144L602.2610271673859,89.71946460421775L609.4217654358794,88.11197982035614L614.8106556896007,94.10476860320564L622.3845356465918,78.65938770180755" style="fill: none; stroke: #54a24b; stroke-width: 2;"></path></g></g><path class="foreground" d="" style="display: none; fill: none;"></path></g></g><g class="mark-group role-legend"><g transform="translate(768,0)"><path class="background" d="M0,0h88v79h-88Z" style="pointer-events: none; fill: none;"></path><g><g class="mark-group role-legend-entry"><g transform="translate(0,16)"><path class="background" d="M0,0h0v0h0Z" style="pointer-events: none; fill: none;"></path><g><g class="mark-group role-scope"><g transform="translate(0,0)"><path class="background" d="M0,0h87.15234375v11h-87.15234375Z" style="pointer-events: none; fill: none; opacity: 1;"></path><g><g class="mark-symbol role-legend-symbol" style="pointer-events: none;"><path transform="translate(6,6)" d="M-5,0L5,0" style="fill: none; stroke: #4c78a8; stroke-width: 1.5; opacity: 1;"></path></g><g class="mark-text role-legend-label" style="pointer-events: none;"><text text-anchor="start" transform="translate(16,9)" style="font-family: sans-serif; font-size: 10px; fill: #000; opacity: 1;">China</text></g></g><path class="foreground" d="" style="pointer-events: none; display: none; fill: none;"></path></g><g transform="translate(0,13)"><path class="background" d="M0,0h87.15234375v11h-87.15234375Z" style="pointer-events: none; fill: none; opacity: 1;"></path><g><g class="mark-symbol role-legend-symbol" style="pointer-events: none;"><path transform="translate(6,6)" d="M-5,0L5,0" style="fill: none; stroke: #9ecae9; stroke-width: 1.5; opacity: 1;"></path></g><g class="mark-text role-legend-label" style="pointer-events: none;"><text text-anchor="start" transform="translate(16,9)" style="font-family: sans-serif; font-size: 10px; fill: #000; opacity: 1;">Italy</text></g></g><path class="foreground" d="" style="pointer-events: none; display: none; fill: none;"></path></g><g transform="translate(0,26)"><path class="background" d="M0,0h87.15234375v11h-87.15234375Z" style="pointer-events: none; fill: none; opacity: 1;"></path><g><g class="mark-symbol role-legend-symbol" style="pointer-events: none;"><path transform="translate(6,6)" d="M-5,0L5,0" style="fill: none; stroke: #f58518; stroke-width: 1.5; opacity: 1;"></path></g><g class="mark-text role-legend-label" style="pointer-events: none;"><text text-anchor="start" transform="translate(16,9)" style="font-family: sans-serif; font-size: 10px; fill: #000; opacity: 1;">Spain</text></g></g><path class="foreground" d="" style="pointer-events: none; display: none; fill: none;"></path></g><g transform="translate(0,39)"><path class="background" d="M0,0h87.15234375v11h-87.15234375Z" style="pointer-events: none; fill: none; opacity: 1;"></path><g><g class="mark-symbol role-legend-symbol" style="pointer-events: none;"><path transform="translate(6,6)" d="M-5,0L5,0" style="fill: none; stroke: #ffbf79; stroke-width: 1.5; opacity: 1;"></path></g><g class="mark-text role-legend-label" style="pointer-events: none;"><text text-anchor="start" transform="translate(16,9)" style="font-family: sans-serif; font-size: 10px; fill: #000; opacity: 1;">US</text></g></g><path class="foreground" d="" style="pointer-events: none; display: none; fill: none;"></path></g><g transform="translate(0,52)"><path class="background" d="M0,0h87.15234375v11h-87.15234375Z" style="pointer-events: none; fill: none; opacity: 1;"></path><g><g class="mark-symbol role-legend-symbol" style="pointer-events: none;"><path transform="translate(6,6)" d="M-5,0L5,0" style="fill: none; stroke: #54a24b; stroke-width: 1.5; opacity: 1;"></path></g><g class="mark-text role-legend-label" style="pointer-events: none;"><text text-anchor="start" transform="translate(16,9)" style="font-family: sans-serif; font-size: 10px; fill: #000; opacity: 1;">United Kingdom</text></g></g><path class="foreground" d="" style="pointer-events: none; display: none; fill: none;"></path></g></g></g><path class="foreground" d="" style="pointer-events: none; display: none; fill: none;"></path></g></g><g class="mark-text role-legend-title" style="pointer-events: none;"><text text-anchor="start" transform="translate(0,9)" style="font-family: sans-serif; font-size: 11px; font-weight: bold; fill: #000; opacity: 1;">country</text></g></g><path class="foreground" d="" style="pointer-events: none; display: none; fill: none;"></path></g></g><g class="mark-group role-title"><g transform="translate(375,-22)"><path class="background" d="M0,0h0v0h0Z" style="pointer-events: none; fill: none;"></path><g><g class="mark-text role-title-text" style="pointer-events: none;"><text text-anchor="middle" transform="translate(0,10)" style="font-family: sans-serif; font-size: 13px; font-weight: bold; fill: #000; opacity: 1;">LogNew by LogConfirmed in ['China', 'Italy', 'Spain', 'US', 'United Kingdom'] as of 04-05-2020</text></g></g><path class="foreground" d="" style="pointer-events: none; display: none; fill: none;"></path></g></g></g><path class="foreground" d="" style="display: none; fill: none;"></path></g></g></g></svg>