<svg class="marks" width="958" height="464" viewBox="0 0 958 464" version="1.1" xmlns="http://www.w3.org/2000/svg" xmlns:xlink="http://www.w3.org/1999/xlink"><rect width="958" height="464" style="fill: white;"></rect><g transform="translate(72,27)"><g class="mark-group role-frame root"><g transform="translate(0,0)"><path class="background" d="M0.5,0.5h800v400h-800Z" style="fill: none; stroke: #ddd;"></path><g><g class="mark-group role-axis"><g transform="translate(0.5,400.5)"><path class="background" d="M0,0h0v0h0Z" style="pointer-events: none; fill: none;"></path><g><g class="mark-rule role-axis-grid" style="pointer-events: none;"><line transform="translate(0,-400)" x2="0" y2="400" style="fill: none; stroke: #ddd; stroke-width: 1; opacity: 1;"></line><line transform="translate(11,-400)" x2="0" y2="400" style="fill: none; stroke: #ddd; stroke-width: 1; opacity: 1;"></line><line transform="translate(34,-400)" x2="0" y2="400" style="fill: none; stroke: #ddd; stroke-width: 1; opacity: 1;"></line><line transform="translate(56,-400)" x2="0" y2="400" style="fill: none; stroke: #ddd; stroke-width: 1; opacity: 1;"></line><line transform="translate(79,-400)" x2="0" y2="400" style="fill: none; stroke: #ddd; stroke-width: 1; opacity: 1;"></line><line transform="translate(101,-400)" x2="0" y2="400" style="fill: none; stroke: #ddd; stroke-width: 1; opacity: 1;"></line><line transform="translate(124,-400)" x2="0" y2="400" style="fill: none; stroke: #ddd; stroke-width: 1; opacity: 1;"></line><line transform="translate(147,-400)" x2="0" y2="400" style="fill: none; stroke: #ddd; stroke-width: 1; opacity: 1;"></line><line transform="translate(169,-400)" x2="0" y2="400" style="fill: none; stroke: #ddd; stroke-width: 1; opacity: 1;"></line><line transform="translate(192,-400)" x2="0" y2="400" style="fill: none; stroke: #ddd; stroke-width: 1; opacity: 1;"></line><line transform="translate(214,-400)" x2="0" y2="400" style="fill: none; stroke: #ddd; stroke-width: 1; opacity: 1;"></line><line transform="translate(237,-400)" x2="0" y2="400" style="fill: none; stroke: #ddd; stroke-width: 1; opacity: 1;"></line><line transform="translate(259,-400)" x2="0" y2="400" style="fill: none; stroke: #ddd; stroke-width: 1; opacity: 1;"></line><line transform="translate(282,-400)" x2="0" y2="400" style="fill: none; stroke: #ddd; stroke-width: 1; opacity: 1;"></line><line transform="translate(304,-400)" x2="0" y2="400" style="fill: none; stroke: #ddd; stroke-width: 1; opacity: 1;"></line><line transform="translate(327,-400)" x2="0" y2="400" style="fill: none; stroke: #ddd; stroke-width: 1; opacity: 1;"></line><line transform="translate(338,-400)" x2="0" y2="400" style="fill: none; stroke: #ddd; stroke-width: 1; opacity: 1;"></line><line transform="translate(361,-400)" x2="0" y2="400" style="fill: none; stroke: #ddd; stroke-width: 1; opacity: 1;"></line><line transform="translate(383,-400)" x2="0" y2="400" style="fill: none; stroke: #ddd; stroke-width: 1; opacity: 1;"></line><line transform="translate(406,-400)" x2="0" y2="400" style="fill: none; stroke: #ddd; stroke-width: 1; opacity: 1;"></line><line transform="translate(428,-400)" x2="0" y2="400" style="fill: none; stroke: #ddd; stroke-width: 1; opacity: 1;"></line><line transform="translate(451,-400)" x2="0" y2="400" style="fill: none; stroke: #ddd; stroke-width: 1; opacity: 1;"></line><line transform="translate(474,-400)" x2="0" y2="400" style="fill: none; stroke: #ddd; stroke-width: 1; opacity: 1;"></line><line transform="translate(496,-400)" x2="0" y2="400" style="fill: none; stroke: #ddd; stroke-width: 1; opacity: 1;"></line><line transform="translate(519,-400)" x2="0" y2="400" style="fill: none; stroke: #ddd; stroke-width: 1; opacity: 1;"></line><line transform="translate(541,-400)" x2="0" y2="400" style="fill: none; stroke: #ddd; stroke-width: 1; opacity: 1;"></line><line transform="translate(564,-400)" x2="0" y2="400" style="fill: none; stroke: #ddd; stroke-width: 1; opacity: 1;"></line><line transform="translate(586,-400)" x2="0" y2="400" style="fill: none; stroke: #ddd; stroke-width: 1; opacity: 1;"></line><line transform="translate(609,-400)" x2="0" y2="400" style="fill: none; stroke: #ddd; stroke-width: 1; opacity: 1;"></line><line transform="translate(631,-400)" x2="0" y2="400" style="fill: none; stroke: #ddd; stroke-width: 1; opacity: 1;"></line><line transform="translate(654,-400)" x2="0" y2="400" style="fill: none; stroke: #ddd; stroke-width: 1; opacity: 1;"></line><line transform="translate(676,-400)" x2="0" y2="400" style="fill: none; stroke: #ddd; stroke-width: 1; opacity: 1;"></line><line transform="translate(687,-400)" x2="0" y2="400" style="fill: none; stroke: #ddd; stroke-width: 1; opacity: 1;"></line><line transform="translate(710,-400)" x2="0" y2="400" style="fill: none; stroke: #ddd; stroke-width: 1; opacity: 1;"></line><line transform="translate(732,-400)" x2="0" y2="400" style="fill: none; stroke: #ddd; stroke-width: 1; opacity: 1;"></line><line transform="translate(755,-400)" x2="0" y2="400" style="fill: none; stroke: #ddd; stroke-width: 1; opacity: 1;"></line><line transform="translate(777,-400)" x2="0" y2="400" style="fill: none; stroke: #ddd; stroke-width: 1; opacity: 1;"></line><line transform="translate(800,-400)" x2="0" y2="400" style="fill: none; stroke: #ddd; stroke-width: 1; opacity: 1;"></line></g></g><path class="foreground" d="" style="pointer-events: none; display: none; fill: none;"></path></g></g><g class="mark-group role-axis"><g transform="translate(0.5,0.5)"><path class="background" d="M0,0h0v0h0Z" style="pointer-events: none; fill: none;"></path><g><g class="mark-rule role-axis-grid" style="pointer-events: none;"><line transform="translate(0,400)" x2="800" y2="0" style="fill: none; stroke: #ddd; stroke-width: 1; opacity: 1;"></line><line transform="translate(0,380)" x2="800" y2="0" style="fill: none; stroke: #ddd; stroke-width: 1; opacity: 1;"></line><line transform="translate(0,368)" x2="800" y2="0" style="fill: none; stroke: #ddd; stroke-width: 1; opacity: 1;"></line><line transform="translate(0,360)" x2="800" y2="0" style="fill: none; stroke: #ddd; stroke-width: 1; opacity: 1;"></line><line transform="translate(0,353)" x2="800" y2="0" style="fill: none; stroke: #ddd; stroke-width: 1; opacity: 1;"></line><line transform="translate(0,348)" x2="800" y2="0" style="fill: none; stroke: #ddd; stroke-width: 1; opacity: 1;"></line><line transform="translate(0,344)" x2="800" y2="0" style="fill: none; stroke: #ddd; stroke-width: 1; opacity: 1;"></line><line transform="translate(0,340)" x2="800" y2="0" style="fill: none; stroke: #ddd; stroke-width: 1; opacity: 1;"></line><line transform="translate(0,336)" x2="800" y2="0" style="fill: none; stroke: #ddd; stroke-width: 1; opacity: 1;"></line><line transform="translate(0,333)" x2="800" y2="0" style="fill: none; stroke: #ddd; stroke-width: 1; opacity: 1;"></line><line transform="translate(0,313)" x2="800" y2="0" style="fill: none; stroke: #ddd; stroke-width: 1; opacity: 1;"></line><line transform="translate(0,302)" x2="800" y2="0" style="fill: none; stroke: #ddd; stroke-width: 1; opacity: 1;"></line><line transform="translate(0,293)" x2="800" y2="0" style="fill: none; stroke: #ddd; stroke-width: 1; opacity: 1;"></line><line transform="translate(0,287)" x2="800" y2="0" style="fill: none; stroke: #ddd; stroke-width: 1; opacity: 1;"></line><line transform="translate(0,281)" x2="800" y2="0" style="fill: none; stroke: #ddd; stroke-width: 1; opacity: 1;"></line><line transform="translate(0,277)" x2="800" y2="0" style="fill: none; stroke: #ddd; stroke-width: 1; opacity: 1;"></line><line transform="translate(0,273)" x2="800" y2="0" style="fill: none; stroke: #ddd; stroke-width: 1; opacity: 1;"></line><line transform="translate(0,270)" x2="800" y2="0" style="fill: none; stroke: #ddd; stroke-width: 1; opacity: 1;"></line><line transform="translate(0,267)" x2="800" y2="0" style="fill: none; stroke: #ddd; stroke-width: 1; opacity: 1;"></line><line transform="translate(0,247)" x2="800" y2="0" style="fill: none; stroke: #ddd; stroke-width: 1; opacity: 1;"></line><line transform="translate(0,235)" x2="800" y2="0" style="fill: none; stroke: #ddd; stroke-width: 1; opacity: 1;"></line><line transform="translate(0,227)" x2="800" y2="0" style="fill: none; stroke: #ddd; stroke-width: 1; opacity: 1;"></line><line transform="translate(0,220)" x2="800" y2="0" style="fill: none; stroke: #ddd; stroke-width: 1; opacity: 1;"></line><line transform="translate(0,215)" x2="800" y2="0" style="fill: none; stroke: #ddd; stroke-width: 1; opacity: 1;"></line><line transform="translate(0,210)" x2="800" y2="0" style="fill: none; stroke: #ddd; stroke-width: 1; opacity: 1;"></line><line transform="translate(0,206)" x2="800" y2="0" style="fill: none; stroke: #ddd; stroke-width: 1; opacity: 1;"></line><line transform="translate(0,203)" x2="800" y2="0" style="fill: none; stroke: #ddd; stroke-width: 1; opacity: 1;"></line><line transform="translate(0,200)" x2="800" y2="0" style="fill: none; stroke: #ddd; stroke-width: 1; opacity: 1;"></line><line transform="translate(0,180)" x2="800" y2="0" style="fill: none; stroke: #ddd; stroke-width: 1; opacity: 1;"></line><line transform="translate(0,168)" x2="800" y2="0" style="fill: none; stroke: #ddd; stroke-width: 1; opacity: 1;"></line><line transform="translate(0,160)" x2="800" y2="0" style="fill: none; stroke: #ddd; stroke-width: 1; opacity: 1;"></line><line transform="translate(0,153)" x2="800" y2="0" style="fill: none; stroke: #ddd; stroke-width: 1; opacity: 1;"></line><line transform="translate(0,148)" x2="800" y2="0" style="fill: none; stroke: #ddd; stroke-width: 1; opacity: 1;"></line><line transform="translate(0,144)" x2="800" y2="0" style="fill: none; stroke: #ddd; stroke-width: 1; opacity: 1;"></line><line transform="translate(0,140)" x2="800" y2="0" style="fill: none; stroke: #ddd; stroke-width: 1; opacity: 1;"></line><line transform="translate(0,136)" x2="800" y2="0" style="fill: none; stroke: #ddd; stroke-width: 1; opacity: 1;"></line><line transform="translate(0,133)" x2="800" y2="0" style="fill: none; stroke: #ddd; stroke-width: 1; opacity: 1;"></line><line transform="translate(0,113)" x2="800" y2="0" style="fill: none; stroke: #ddd; stroke-width: 1; opacity: 1;"></line><line transform="translate(0,102)" x2="800" y2="0" style="fill: none; stroke: #ddd; stroke-width: 1; opacity: 1;"></line><line transform="translate(0,93)" x2="800" y2="0" style="fill: none; stroke: #ddd; stroke-width: 1; opacity: 1;"></line><line transform="translate(0,87)" x2="800" y2="0" style="fill: none; stroke: #ddd; stroke-width: 1; opacity: 1;"></line><line transform="translate(0,81)" x2="800" y2="0" style="fill: none; stroke: #ddd; stroke-width: 1; opacity: 1;"></line><line transform="translate(0,77)" x2="800" y2="0" style="fill: none; stroke: #ddd; stroke-width: 1; opacity: 1;"></line><line transform="translate(0,73)" x2="800" y2="0" style="fill: none; stroke: #ddd; stroke-width: 1; opacity: 1;"></line><line transform="translate(0,70)" x2="800" y2="0" style="fill: none; stroke: #ddd; stroke-width: 1; opacity: 1;"></line><line transform="translate(0,67)" x2="800" y2="0" style="fill: none; stroke: #ddd; stroke-width: 1; opacity: 1;"></line><line transform="translate(0,47)" x2="800" y2="0" style="fill: none; stroke: #ddd; stroke-width: 1; opacity: 1;"></line><line transform="translate(0,35)" x2="800" y2="0" style="fill: none; stroke: #ddd; stroke-width: 1; opacity: 1;"></line><line transform="translate(0,27)" x2="800" y2="0" style="fill: none; stroke: #ddd; stroke-width: 1; opacity: 1;"></line><line transform="translate(0,20)" x2="800" y2="0" style="fill: none; stroke: #ddd; stroke-width: 1; opacity: 1;"></line><line transform="translate(0,15)" x2="800" y2="0" style="fill: none; stroke: #ddd; stroke-width: 1; opacity: 1;"></line><line transform="translate(0,10)" x2="800" y2="0" style="fill: none; stroke: #ddd; stroke-width: 1; opacity: 1;"></line><line transform="translate(0,6)" x2="800" y2="0" style="fill: none; stroke: #ddd; stroke-width: 1; opacity: 1;"></line><line transform="translate(0,3)" x2="800" y2="0" style="fill: none; stroke: #ddd; stroke-width: 1; opacity: 1;"></line><line transform="translate(0,0)" x2="800" y2="0" style="fill: none; stroke: #ddd; stroke-width: 1; opacity: 1;"></line></g></g><path class="foreground" d="" style="pointer-events: none; display: none; fill: none;"></path></g></g><g class="mark-group role-axis"><g transform="translate(0.5,400.5)"><path class="background" d="M0,0h0v0h0Z" style="pointer-events: none; fill: none;"></path><g><g class="mark-rule role-axis-tick" style="pointer-events: none;"><line transform="translate(0,0)" x2="0" y2="5" style="fill: none; stroke: #888; stroke-width: 1; opacity: 1;"></line><line transform="translate(11,0)" x2="0" y2="5" style="fill: none; stroke: #888; stroke-width: 1; opacity: 1;"></line><line transform="translate(34,0)" x2="0" y2="5" style="fill: none; stroke: #888; stroke-width: 1; opacity: 1;"></line><line transform="translate(56,0)" x2="0" y2="5" style="fill: none; stroke: #888; stroke-width: 1; opacity: 1;"></line><line transform="translate(79,0)" x2="0" y2="5" style="fill: none; stroke: #888; stroke-width: 1; opacity: 1;"></line><line transform="translate(101,0)" x2="0" y2="5" style="fill: none; stroke: #888; stroke-width: 1; opacity: 1;"></line><line transform="translate(124,0)" x2="0" y2="5" style="fill: none; stroke: #888; stroke-width: 1; opacity: 1;"></line><line transform="translate(147,0)" x2="0" y2="5" style="fill: none; stroke: #888; stroke-width: 1; opacity: 1;"></line><line transform="translate(169,0)" x2="0" y2="5" style="fill: none; stroke: #888; stroke-width: 1; opacity: 1;"></line><line transform="translate(192,0)" x2="0" y2="5" style="fill: none; stroke: #888; stroke-width: 1; opacity: 1;"></line><line transform="translate(214,0)" x2="0" y2="5" style="fill: none; stroke: #888; stroke-width: 1; opacity: 1;"></line><line transform="translate(237,0)" x2="0" y2="5" style="fill: none; stroke: #888; stroke-width: 1; opacity: 1;"></line><line transform="translate(259,0)" x2="0" y2="5" style="fill: none; stroke: #888; stroke-width: 1; opacity: 1;"></line><line transform="translate(282,0)" x2="0" y2="5" style="fill: none; stroke: #888; stroke-width: 1; opacity: 1;"></line><line transform="translate(304,0)" x2="0" y2="5" style="fill: none; stroke: #888; stroke-width: 1; opacity: 1;"></line><line transform="translate(327,0)" x2="0" y2="5" style="fill: none; stroke: #888; stroke-width: 1; opacity: 1;"></line><line transform="translate(338,0)" x2="0" y2="5" style="fill: none; stroke: #888; stroke-width: 1; opacity: 1;"></line><line transform="translate(361,0)" x2="0" y2="5" style="fill: none; stroke: #888; stroke-width: 1; opacity: 1;"></line><line transform="translate(383,0)" x2="0" y2="5" style="fill: none; stroke: #888; stroke-width: 1; opacity: 1;"></line><line transform="translate(406,0)" x2="0" y2="5" style="fill: none; stroke: #888; stroke-width: 1; opacity: 1;"></line><line transform="translate(428,0)" x2="0" y2="5" style="fill: none; stroke: #888; stroke-width: 1; opacity: 1;"></line><line transform="translate(451,0)" x2="0" y2="5" style="fill: none; stroke: #888; stroke-width: 1; opacity: 1;"></line><line transform="translate(474,0)" x2="0" y2="5" style="fill: none; stroke: #888; stroke-width: 1; opacity: 1;"></line><line transform="translate(496,0)" x2="0" y2="5" style="fill: none; stroke: #888; stroke-width: 1; opacity: 1;"></line><line transform="translate(519,0)" x2="0" y2="5" style="fill: none; stroke: #888; stroke-width: 1; opacity: 1;"></line><line transform="translate(541,0)" x2="0" y2="5" style="fill: none; stroke: #888; stroke-width: 1; opacity: 1;"></line><line transform="translate(564,0)" x2="0" y2="5" style="fill: none; stroke: #888; stroke-width: 1; opacity: 1;"></line><line transform="translate(586,0)" x2="0" y2="5" style="fill: none; stroke: #888; stroke-width: 1; opacity: 1;"></line><line transform="translate(609,0)" x2="0" y2="5" style="fill: none; stroke: #888; stroke-width: 1; opacity: 1;"></line><line transform="translate(631,0)" x2="0" y2="5" style="fill: none; stroke: #888; stroke-width: 1; opacity: 1;"></line><line transform="translate(654,0)" x2="0" y2="5" style="fill: none; stroke: #888; stroke-width: 1; opacity: 1;"></line><line transform="translate(676,0)" x2="0" y2="5" style="fill: none; stroke: #888; stroke-width: 1; opacity: 1;"></line><line transform="translate(687,0)" x2="0" y2="5" style="fill: none; stroke: #888; stroke-width: 1; opacity: 1;"></line><line transform="translate(710,0)" x2="0" y2="5" style="fill: none; stroke: #888; stroke-width: 1; opacity: 1;"></line><line transform="translate(732,0)" x2="0" y2="5" style="fill: none; stroke: #888; stroke-width: 1; opacity: 1;"></line><line transform="translate(755,0)" x2="0" y2="5" style="fill: none; stroke: #888; stroke-width: 1; opacity: 1;"></line><line transform="translate(777,0)" x2="0" y2="5" style="fill: none; stroke: #888; stroke-width: 1; opacity: 1;"></line><line transform="translate(800,0)" x2="0" y2="5" style="fill: none; stroke: #888; stroke-width: 1; opacity: 1;"></line></g><g class="mark-text role-axis-label" style="pointer-events: none;"><text text-anchor="start" transform="translate(0,15)" style="font-family: sans-serif; font-size: 10px; fill: #000; opacity: 1;">Fri 31</text><text text-anchor="middle" transform="translate(11.274221961244862,15)" style="font-family: sans-serif; font-size: 10px; fill: #000; opacity: 0;">February</text><text text-anchor="middle" transform="translate(33.82266588373459,15)" style="font-family: sans-serif; font-size: 10px; fill: #000; opacity: 0;">Mon 03</text><text text-anchor="middle" transform="translate(56.371109806224304,15)" style="font-family: sans-serif; font-size: 10px; fill: #000; opacity: 0;">Wed 05</text><text text-anchor="middle" transform="translate(78.91955372871404,15)" style="font-family: sans-serif; font-size: 10px; fill: #000; opacity: 1;">Fri 07</text><text text-anchor="middle" transform="translate(101.46799765120376,15)" style="font-family: sans-serif; font-size: 10px; fill: #000; opacity: 0;">Feb 09</text><text text-anchor="middle" transform="translate(124.0164415736935,15)" style="font-family: sans-serif; font-size: 10px; fill: #000; opacity: 0;">Tue 11</text><text text-anchor="middle" transform="translate(146.5648854961832,15)" style="font-family: sans-serif; font-size: 10px; fill: #000; opacity: 0;">Thu 13</text><text text-anchor="middle" transform="translate(169.11332941867292,15)" style="font-family: sans-serif; font-size: 10px; fill: #000; opacity: 1;">Sat 15</text><text text-anchor="middle" transform="translate(191.66177334116264,15)" style="font-family: sans-serif; font-size: 10px; fill: #000; opacity: 0;">Mon 17</text><text text-anchor="middle" transform="translate(214.21021726365237,15)" style="font-family: sans-serif; font-size: 10px; fill: #000; opacity: 0;">Wed 19</text><text text-anchor="middle" transform="translate(236.7586611861421,15)" style="font-family: sans-serif; font-size: 10px; fill: #000; opacity: 0;">Fri 21</text><text text-anchor="middle" transform="translate(259.30710510863184,15)" style="font-family: sans-serif; font-size: 10px; fill: #000; opacity: 1;">Feb 23</text><text text-anchor="middle" transform="translate(281.85554903112154,15)" style="font-family: sans-serif; font-size: 10px; fill: #000; opacity: 0;">Tue 25</text><text text-anchor="middle" transform="translate(304.4039929536113,15)" style="font-family: sans-serif; font-size: 10px; fill: #000; opacity: 0;">Thu 27</text><text text-anchor="middle" transform="translate(326.952436876101,15)" style="font-family: sans-serif; font-size: 10px; fill: #000; opacity: 0;">Sat 29</text><text text-anchor="middle" transform="translate(338.22665883734584,15)" style="font-family: sans-serif; font-size: 10px; fill: #000; opacity: 1;">March</text><text text-anchor="middle" transform="translate(360.7751027598356,15)" style="font-family: sans-serif; font-size: 10px; fill: #000; opacity: 0;">Tue 03</text><text text-anchor="middle" transform="translate(383.3235466823253,15)" style="font-family: sans-serif; font-size: 10px; fill: #000; opacity: 0;">Thu 05</text><text text-anchor="middle" transform="translate(405.87199060481504,15)" style="font-family: sans-serif; font-size: 10px; fill: #000; opacity: 0;">Sat 07</text><text text-anchor="middle" transform="translate(428.42043452730474,15)" style="font-family: sans-serif; font-size: 10px; fill: #000; opacity: 1;">Mon 09</text><text text-anchor="middle" transform="translate(450.96887844979443,15)" style="font-family: sans-serif; font-size: 10px; fill: #000; opacity: 0;">Wed 11</text><text text-anchor="middle" transform="translate(473.5173223722842,15)" style="font-family: sans-serif; font-size: 10px; fill: #000; opacity: 0;">Fri 13</text><text text-anchor="middle" transform="translate(496.065766294774,15)" style="font-family: sans-serif; font-size: 10px; fill: #000; opacity: 0;">Mar 15</text><text text-anchor="middle" transform="translate(518.6142102172637,15)" style="font-family: sans-serif; font-size: 10px; fill: #000; opacity: 1;">Tue 17</text><text text-anchor="middle" transform="translate(541.1626541397534,15)" style="font-family: sans-serif; font-size: 10px; fill: #000; opacity: 0;">Thu 19</text><text text-anchor="middle" transform="translate(563.7110980622431,15)" style="font-family: sans-serif; font-size: 10px; fill: #000; opacity: 0;">Sat 21</text><text text-anchor="middle" transform="translate(586.2595419847328,15)" style="font-family: sans-serif; font-size: 10px; fill: #000; opacity: 0;">Mon 23</text><text text-anchor="middle" transform="translate(608.8079859072226,15)" style="font-family: sans-serif; font-size: 10px; fill: #000; opacity: 1;">Wed 25</text><text text-anchor="middle" transform="translate(631.3564298297123,15)" style="font-family: sans-serif; font-size: 10px; fill: #000; opacity: 0;">Fri 27</text><text text-anchor="middle" transform="translate(653.904873752202,15)" style="font-family: sans-serif; font-size: 10px; fill: #000; opacity: 0;">Mar 29</text><text text-anchor="middle" transform="translate(675.9835584263066,15)" style="font-family: sans-serif; font-size: 10px; fill: #000; opacity: 0;">Tue 31</text><text text-anchor="middle" transform="translate(687.2577803875513,15)" style="font-family: sans-serif; font-size: 10px; fill: #000; opacity: 1;">April</text><text text-anchor="middle" transform="translate(709.8062243100411,15)" style="font-family: sans-serif; font-size: 10px; fill: #000; opacity: 0;">Fri 03</text><text text-anchor="middle" transform="translate(732.3546682325309,15)" style="font-family: sans-serif; font-size: 10px; fill: #000; opacity: 0;">Apr 05</text><text text-anchor="middle" transform="translate(754.9031121550206,15)" style="font-family: sans-serif; font-size: 10px; fill: #000; opacity: 0;">Tue 07</text><text text-anchor="middle" transform="translate(777.4515560775103,15)" style="font-family: sans-serif; font-size: 10px; fill: #000; opacity: 1;">Thu 09</text><text text-anchor="end" transform="translate(800,15)" style="font-family: sans-serif; font-size: 10px; fill: #000; opacity: 0;">Sat 11</text></g><g class="mark-rule role-axis-domain" style="pointer-events: none;"><line transform="translate(0,0)" x2="800" y2="0" style="fill: none; stroke: #888; stroke-width: 1; opacity: 1;"></line></g><g class="mark-text role-axis-title" style="pointer-events: none;"><text text-anchor="middle" transform="translate(400,30)" style="font-family: sans-serif; font-size: 11px; font-weight: bold; fill: #000; opacity: 1;">Date</text></g></g><path class="foreground" d="" style="pointer-events: none; display: none; fill: none;"></path></g></g><g class="mark-group role-axis"><g transform="translate(0.5,0.5)"><path class="background" d="M0,0h0v0h0Z" style="pointer-events: none; fill: none;"></path><g><g class="mark-rule role-axis-tick" style="pointer-events: none;"><line transform="translate(0,400)" x2="-5" y2="0" style="fill: none; stroke: #888; stroke-width: 1; opacity: 1;"></line><line transform="translate(0,380)" x2="-5" y2="0" style="fill: none; stroke: #888; stroke-width: 1; opacity: 1;"></line><line transform="translate(0,368)" x2="-5" y2="0" style="fill: none; stroke: #888; stroke-width: 1; opacity: 1;"></line><line transform="translate(0,360)" x2="-5" y2="0" style="fill: none; stroke: #888; stroke-width: 1; opacity: 1;"></line><line transform="translate(0,353)" x2="-5" y2="0" style="fill: none; stroke: #888; stroke-width: 1; opacity: 1;"></line><line transform="translate(0,348)" x2="-5" y2="0" style="fill: none; stroke: #888; stroke-width: 1; opacity: 1;"></line><line transform="translate(0,344)" x2="-5" y2="0" style="fill: none; stroke: #888; stroke-width: 1; opacity: 1;"></line><line transform="translate(0,340)" x2="-5" y2="0" style="fill: none; stroke: #888; stroke-width: 1; opacity: 1;"></line><line transform="translate(0,336)" x2="-5" y2="0" style="fill: none; stroke: #888; stroke-width: 1; opacity: 1;"></line><line transform="translate(0,333)" x2="-5" y2="0" style="fill: none; stroke: #888; stroke-width: 1; opacity: 1;"></line><line transform="translate(0,313)" x2="-5" y2="0" style="fill: none; stroke: #888; stroke-width: 1; opacity: 1;"></line><line transform="translate(0,302)" x2="-5" y2="0" style="fill: none; stroke: #888; stroke-width: 1; opacity: 1;"></line><line transform="translate(0,293)" x2="-5" y2="0" style="fill: none; stroke: #888; stroke-width: 1; opacity: 1;"></line><line transform="translate(0,287)" x2="-5" y2="0" style="fill: none; stroke: #888; stroke-width: 1; opacity: 1;"></line><line transform="translate(0,281)" x2="-5" y2="0" style="fill: none; stroke: #888; stroke-width: 1; opacity: 1;"></line><line transform="translate(0,277)" x2="-5" y2="0" style="fill: none; stroke: #888; stroke-width: 1; opacity: 1;"></line><line transform="translate(0,273)" x2="-5" y2="0" style="fill: none; stroke: #888; stroke-width: 1; opacity: 1;"></line><line transform="translate(0,270)" x2="-5" y2="0" style="fill: none; stroke: #888; stroke-width: 1; opacity: 1;"></line><line transform="translate(0,267)" x2="-5" y2="0" style="fill: none; stroke: #888; stroke-width: 1; opacity: 1;"></line><line transform="translate(0,247)" x2="-5" y2="0" style="fill: none; stroke: #888; stroke-width: 1; opacity: 1;"></line><line transform="translate(0,235)" x2="-5" y2="0" style="fill: none; stroke: #888; stroke-width: 1; opacity: 1;"></line><line transform="translate(0,227)" x2="-5" y2="0" style="fill: none; stroke: #888; stroke-width: 1; opacity: 1;"></line><line transform="translate(0,220)" x2="-5" y2="0" style="fill: none; stroke: #888; stroke-width: 1; opacity: 1;"></line><line transform="translate(0,215)" x2="-5" y2="0" style="fill: none; stroke: #888; stroke-width: 1; opacity: 1;"></line><line transform="translate(0,210)" x2="-5" y2="0" style="fill: none; stroke: #888; stroke-width: 1; opacity: 1;"></line><line transform="translate(0,206)" x2="-5" y2="0" style="fill: none; stroke: #888; stroke-width: 1; opacity: 1;"></line><line transform="translate(0,203)" x2="-5" y2="0" style="fill: none; stroke: #888; stroke-width: 1; opacity: 1;"></line><line transform="translate(0,200)" x2="-5" y2="0" style="fill: none; stroke: #888; stroke-width: 1; opacity: 1;"></line><line transform="translate(0,180)" x2="-5" y2="0" style="fill: none; stroke: #888; stroke-width: 1; opacity: 1;"></line><line transform="translate(0,168)" x2="-5" y2="0" style="fill: none; stroke: #888; stroke-width: 1; opacity: 1;"></line><line transform="translate(0,160)" x2="-5" y2="0" style="fill: none; stroke: #888; stroke-width: 1; opacity: 1;"></line><line transform="translate(0,153)" x2="-5" y2="0" style="fill: none; stroke: #888; stroke-width: 1; opacity: 1;"></line><line transform="translate(0,148)" x2="-5" y2="0" style="fill: none; stroke: #888; stroke-width: 1; opacity: 1;"></line><line transform="translate(0,144)" x2="-5" y2="0" style="fill: none; stroke: #888; stroke-width: 1; opacity: 1;"></line><line transform="translate(0,140)" x2="-5" y2="0" style="fill: none; stroke: #888; stroke-width: 1; opacity: 1;"></line><line transform="translate(0,136)" x2="-5" y2="0" style="fill: none; stroke: #888; stroke-width: 1; opacity: 1;"></line><line transform="translate(0,133)" x2="-5" y2="0" style="fill: none; stroke: #888; stroke-width: 1; opacity: 1;"></line><line transform="translate(0,113)" x2="-5" y2="0" style="fill: none; stroke: #888; stroke-width: 1; opacity: 1;"></line><line transform="translate(0,102)" x2="-5" y2="0" style="fill: none; stroke: #888; stroke-width: 1; opacity: 1;"></line><line transform="translate(0,93)" x2="-5" y2="0" style="fill: none; stroke: #888; stroke-width: 1; opacity: 1;"></line><line transform="translate(0,87)" x2="-5" y2="0" style="fill: none; stroke: #888; stroke-width: 1; opacity: 1;"></line><line transform="translate(0,81)" x2="-5" y2="0" style="fill: none; stroke: #888; stroke-width: 1; opacity: 1;"></line><line transform="translate(0,77)" x2="-5" y2="0" style="fill: none; stroke: #888; stroke-width: 1; opacity: 1;"></line><line transform="translate(0,73)" x2="-5" y2="0" style="fill: none; stroke: #888; stroke-width: 1; opacity: 1;"></line><line transform="translate(0,70)" x2="-5" y2="0" style="fill: none; stroke: #888; stroke-width: 1; opacity: 1;"></line><line transform="translate(0,67)" x2="-5" y2="0" style="fill: none; stroke: #888; stroke-width: 1; opacity: 1;"></line><line transform="translate(0,47)" x2="-5" y2="0" style="fill: none; stroke: #888; stroke-width: 1; opacity: 1;"></line><line transform="translate(0,35)" x2="-5" y2="0" style="fill: none; stroke: #888; stroke-width: 1; opacity: 1;"></line><line transform="translate(0,27)" x2="-5" y2="0" style="fill: none; stroke: #888; stroke-width: 1; opacity: 1;"></line><line transform="translate(0,20)" x2="-5" y2="0" style="fill: none; stroke: #888; stroke-width: 1; opacity: 1;"></line><line transform="translate(0,15)" x2="-5" y2="0" style="fill: none; stroke: #888; stroke-width: 1; opacity: 1;"></line><line transform="translate(0,10)" x2="-5" y2="0" style="fill: none; stroke: #888; stroke-width: 1; opacity: 1;"></line><line transform="translate(0,6)" x2="-5" y2="0" style="fill: none; stroke: #888; stroke-width: 1; opacity: 1;"></line><line transform="translate(0,3)" x2="-5" y2="0" style="fill: none; stroke: #888; stroke-width: 1; opacity: 1;"></line><line transform="translate(0,0)" x2="-5" y2="0" style="fill: none; stroke: #888; stroke-width: 1; opacity: 1;"></line></g><g class="mark-text role-axis-label" style="pointer-events: none;"><text text-anchor="end" transform="translate(-7,403)" style="font-family: sans-serif; font-size: 10px; fill: #000; opacity: 1;">1</text><text text-anchor="end" transform="translate(-7,382.9313336224012)" style="font-family: sans-serif; font-size: 10px; fill: #000; opacity: 1;"></text><text text-anchor="end" transform="translate(-7,371.19191635202253)" style="font-family: sans-serif; font-size: 10px; fill: #000; opacity: 1;"></text><text text-anchor="end" transform="translate(-7,362.86266724480254)" style="font-family: sans-serif; font-size: 10px; fill: #000; opacity: 1;"></text><text text-anchor="end" transform="translate(-7,356.40199971093205)" style="font-family: sans-serif; font-size: 10px; fill: #000; opacity: 1;"></text><text text-anchor="end" transform="translate(-7,351.12324997442374)" style="font-family: sans-serif; font-size: 10px; fill: #000; opacity: 1;"></text><text text-anchor="end" transform="translate(-7,346.6601306657162)" style="font-family: sans-serif; font-size: 10px; fill: #000; opacity: 1;"></text><text text-anchor="end" transform="translate(-7,342.79400086720375)" style="font-family: sans-serif; font-size: 10px; fill: #000; opacity: 1;"></text><text text-anchor="end" transform="translate(-7,339.383832704045)" style="font-family: sans-serif; font-size: 10px; fill: #000; opacity: 1;"></text><text text-anchor="end" transform="translate(-7,336.3333333333333)" style="font-family: sans-serif; font-size: 10px; fill: #000; opacity: 1;">10</text><text text-anchor="end" transform="translate(-7,316.2646669557346)" style="font-family: sans-serif; font-size: 10px; fill: #000; opacity: 1;"></text><text text-anchor="end" transform="translate(-7,304.52524968535585)" style="font-family: sans-serif; font-size: 10px; fill: #000; opacity: 1;"></text><text text-anchor="end" transform="translate(-7,296.19600057813585)" style="font-family: sans-serif; font-size: 10px; fill: #000; opacity: 1;"></text><text text-anchor="end" transform="translate(-7,289.7353330442654)" style="font-family: sans-serif; font-size: 10px; fill: #000; opacity: 1;"></text><text text-anchor="end" transform="translate(-7,284.4565833077571)" style="font-family: sans-serif; font-size: 10px; fill: #000; opacity: 1;"></text><text text-anchor="end" transform="translate(-7,279.99346399904954)" style="font-family: sans-serif; font-size: 10px; fill: #000; opacity: 1;"></text><text text-anchor="end" transform="translate(-7,276.1273342005371)" style="font-family: sans-serif; font-size: 10px; fill: #000; opacity: 1;"></text><text text-anchor="end" transform="translate(-7,272.7171660373783)" style="font-family: sans-serif; font-size: 10px; fill: #000; opacity: 1;"></text><text text-anchor="end" transform="translate(-7,269.66666666666663)" style="font-family: sans-serif; font-size: 10px; fill: #000; opacity: 1;">100</text><text text-anchor="end" transform="translate(-7,249.59800028906793)" style="font-family: sans-serif; font-size: 10px; fill: #000; opacity: 1;"></text><text text-anchor="end" transform="translate(-7,237.85858301868916)" style="font-family: sans-serif; font-size: 10px; fill: #000; opacity: 1;"></text><text text-anchor="end" transform="translate(-7,229.52933391146917)" style="font-family: sans-serif; font-size: 10px; fill: #000; opacity: 1;"></text><text text-anchor="end" transform="translate(-7,223.06866637759873)" style="font-family: sans-serif; font-size: 10px; fill: #000; opacity: 1;"></text><text text-anchor="end" transform="translate(-7,217.78991664109043)" style="font-family: sans-serif; font-size: 10px; fill: #000; opacity: 1;"></text><text text-anchor="end" transform="translate(-7,213.32679733238288)" style="font-family: sans-serif; font-size: 10px; fill: #000; opacity: 1;"></text><text text-anchor="end" transform="translate(-7,209.46066753387043)" style="font-family: sans-serif; font-size: 10px; fill: #000; opacity: 1;"></text><text text-anchor="end" transform="translate(-7,206.05049937071166)" style="font-family: sans-serif; font-size: 10px; fill: #000; opacity: 1;"></text><text text-anchor="end" transform="translate(-7,203)" style="font-family: sans-serif; font-size: 10px; fill: #000; opacity: 1;">1,000</text><text text-anchor="end" transform="translate(-7,182.93133362240124)" style="font-family: sans-serif; font-size: 10px; fill: #000; opacity: 1;"></text><text text-anchor="end" transform="translate(-7,171.1919163520225)" style="font-family: sans-serif; font-size: 10px; fill: #000; opacity: 1;"></text><text text-anchor="end" transform="translate(-7,162.8626672448025)" style="font-family: sans-serif; font-size: 10px; fill: #000; opacity: 1;"></text><text text-anchor="end" transform="translate(-7,156.40199971093207)" style="font-family: sans-serif; font-size: 10px; fill: #000; opacity: 1;"></text><text text-anchor="end" transform="translate(-7,151.1232499744238)" style="font-family: sans-serif; font-size: 10px; fill: #000; opacity: 1;"></text><text text-anchor="end" transform="translate(-7,146.6601306657162)" style="font-family: sans-serif; font-size: 10px; fill: #000; opacity: 1;"></text><text text-anchor="end" transform="translate(-7,142.79400086720375)" style="font-family: sans-serif; font-size: 10px; fill: #000; opacity: 1;"></text><text text-anchor="end" transform="translate(-7,139.38383270404498)" style="font-family: sans-serif; font-size: 10px; fill: #000; opacity: 1;"></text><text text-anchor="end" transform="translate(-7,136.33333333333331)" style="font-family: sans-serif; font-size: 10px; fill: #000; opacity: 1;">10,000</text><text text-anchor="end" transform="translate(-7,116.26466695573458)" style="font-family: sans-serif; font-size: 10px; fill: #000; opacity: 1;"></text><text text-anchor="end" transform="translate(-7,104.52524968535582)" style="font-family: sans-serif; font-size: 10px; fill: #000; opacity: 1;"></text><text text-anchor="end" transform="translate(-7,96.19600057813587)" style="font-family: sans-serif; font-size: 10px; fill: #000; opacity: 1;"></text><text text-anchor="end" transform="translate(-7,89.73533304426542)" style="font-family: sans-serif; font-size: 10px; fill: #000; opacity: 1;"></text><text text-anchor="end" transform="translate(-7,84.45658330775709)" style="font-family: sans-serif; font-size: 10px; fill: #000; opacity: 1;"></text><text text-anchor="end" transform="translate(-7,79.99346399904954)" style="font-family: sans-serif; font-size: 10px; fill: #000; opacity: 1;"></text><text text-anchor="end" transform="translate(-7,76.12733420053709)" style="font-family: sans-serif; font-size: 10px; fill: #000; opacity: 1;"></text><text text-anchor="end" transform="translate(-7,72.71716603737832)" style="font-family: sans-serif; font-size: 10px; fill: #000; opacity: 1;"></text><text text-anchor="end" transform="translate(-7,69.66666666666666)" style="font-family: sans-serif; font-size: 10px; fill: #000; opacity: 1;">100,000</text><text text-anchor="end" transform="translate(-7,49.59800028906788)" style="font-family: sans-serif; font-size: 10px; fill: #000; opacity: 1;"></text><text text-anchor="end" transform="translate(-7,37.85858301868916)" style="font-family: sans-serif; font-size: 10px; fill: #000; opacity: 1;"></text><text text-anchor="end" transform="translate(-7,29.529333911469166)" style="font-family: sans-serif; font-size: 10px; fill: #000; opacity: 1;"></text><text text-anchor="end" transform="translate(-7,23.068666377598767)" style="font-family: sans-serif; font-size: 10px; fill: #000; opacity: 1;"></text><text text-anchor="end" transform="translate(-7,17.78991664109044)" style="font-family: sans-serif; font-size: 10px; fill: #000; opacity: 1;"></text><text text-anchor="end" transform="translate(-7,13.326797332382842)" style="font-family: sans-serif; font-size: 10px; fill: #000; opacity: 1;"></text><text text-anchor="end" transform="translate(-7,9.460667533870401)" style="font-family: sans-serif; font-size: 10px; fill: #000; opacity: 1;"></text><text text-anchor="end" transform="translate(-7,6.0504993707116235)" style="font-family: sans-serif; font-size: 10px; fill: #000; opacity: 1;"></text><text text-anchor="end" transform="translate(-7,3)" style="font-family: sans-serif; font-size: 10px; fill: #000; opacity: 1;">1,000,000</text></g><g class="mark-rule role-axis-domain" style="pointer-events: none;"><line transform="translate(0,400)" x2="0" y2="-400" style="fill: none; stroke: #888; stroke-width: 1; opacity: 1;"></line></g><g class="mark-text role-axis-title" style="pointer-events: none;"><text text-anchor="middle" transform="translate(-55.4873046875,200) rotate(-90) translate(0,-2)" style="font-family: sans-serif; font-size: 11px; font-weight: bold; fill: #000; opacity: 1;">Count</text></g></g><path class="foreground" d="" style="pointer-events: none; display: none; fill: none;"></path></g></g><g class="mark-group role-scope pathgroup"><g transform="translate(0,0)"><path class="background" d="M0,0h800v400h-800Z" style="fill: none;"></path><g><g class="mark-line role-mark marks"><path d="M0,343.6601306657162L11.274221961244862,339.79400086720375L22.548443922489724,339.79400086720375L33.82266588373459,330.5738209894517L45.09688784497945,330.5738209894517L56.371109806224304,330.5738209894517L67.64533176746917,330.5738209894517L78.91955372871404,330.5738209894517L90.1937756899589,330.5738209894517L101.46799765120376,330.5738209894517L112.74221961244861,330.5738209894517L124.0164415736935,328.054583596825L135.29066353493835,328.054583596825L146.5648854961832,325.73710984621084L157.83910745742807,325.73710984621084L169.11332941867292,325.73710984621084L180.3875513799178,325.73710984621084L191.66177334116264,325.73710984621084L202.93599530240752,325.73710984621084L214.21021726365237,325.73710984621084L225.48443922489722,325.73710984621084L236.7586611861421,321.5939160629546L248.032883147387,321.5939160629546L259.30710510863184,321.5939160629546L270.5813270698767,321.5939160629546L281.85554903112154,321.5939160629546L293.1297709923664,321.5939160629546L304.4039929536113,319.725334489605L315.67821491485614,319.725334489605L326.952436876101,307.9859172192263L338.22665883734584,301.52524968535585L349.50088079859074,285.0482753599474L360.7751027598356,275.77847599196963L372.04932472108044,265.5311107134146L383.3235466823253,250.9647702061634L394.5977686435702,244.23601774343132L405.87199060481504,231.57738150734372L417.14621256605994,223.11916574831042L428.42043452730474,219.26912540031492L439.69465648854964,209.99778282068203L450.96887844979443,197.10918146525805L462.24310041103934,187.1807591621253L473.5173223722842,177.8778637042501L484.7915443335291,169.60598397448382L496.065766294774,168.99431416283784L507.3399882560188,157.72167521582668L518.6142102172637,147.66366944456374L529.8884321785085,136.79530123207059L541.1626541397534,123.5418731276174L552.4368761009982,114.40138105076802L563.7110980622431,106.08681540694747L574.9853200234879,98.22595822311872L586.2595419847328,90.6590952047094L597.5337639459777,84.6489776472909L608.8079859072226,78.79462236718639L620.0822078684674,71.77129673408147L631.3564298297123,66.1908473939885L642.6306517909571,61.033491124663676L653.904873752202,56.74214407178737L664.7093364650616,52.73351294152802L675.9835584263066,48.362999942330816L687.2577803875513,44.72552842235782L698.5320023487963,40.90565796009589L709.8062243100411,37.31661015680676L732.3546682325309,31.485756080530216L743.6288901937756,29.05328312458377L754.9031121550206,26.804167351023132L766.1773341162653,24.499675358221175L777.4515560775103,22.392819382615947L788.7257780387552,20.270300440195665L800,18.57943631367851" style="fill: none; stroke: orange; stroke-width: 2; opacity: 0.9;"></path></g></g><path class="foreground" d="" style="display: none; fill: none;"></path></g><g transform="translate(0,0)"><path class="background" d="M0,0h800v400h-800Z" style="fill: none;"></path><g><g class="mark-line role-mark marks"><path d="M349.50088079859074,348.12324997442374L360.7751027598356,343.6601306657162L372.04932472108044,330.5738209894517L383.3235466823253,328.054583596825L394.5977686435702,323.5914642881175L405.87199060481504,317.9700719081151L417.14621256605994,311.8520470177387L428.42043452730474,310.5051546118529L439.69465648854964,303.5227979105187L450.96887844979443,299.6566681120063L462.24310041103934,293.19600057813585L473.5173223722842,287.9172508416275L484.7915443335291,285.5997770910134L496.065766294774,281.4565833077571L507.3399882560188,272.06146050826175L518.6142102172637,264.70774815431935L529.8884321785085,256.5141103744629L541.1626541397534,245.32358092592972L552.4368761009982,239.45066897921006L563.7110980622431,233.17152533437113L574.9853200234879,224.63814166499841L586.2595419847328,217.41462943437537L597.5337639459777,212.1182737590696L608.8079859072226,202.82618086266035L620.0822078684674,195.72777093576028L631.3564298297123,188.55156975645122L642.6306517909571,181.38596582657365L653.904873752202,176.03626532526758L664.7093364650616,171.62018577582728L675.9835584263066,164.87626752494168L687.2577803875513,158.93666322290656L698.5320023487963,152.28315221180932L709.8062243100411,147.8160538250669L732.3546682325309,138.59934656686437L743.6288901937756,132.18942676747903L754.9031121550206,126.7894011026311L766.1773341162653,122.61143045703022L777.4515560775103,119.21948330622092L788.7257780387552,115.62222003650118L800,112.84786353111028" style="fill: none; stroke: red; stroke-width: 2; opacity: 0.9;"></path></g></g><path class="foreground" d="" style="display: none; fill: none;"></path></g></g><g class="mark-group role-legend"><g transform="translate(820,0)"><path class="background" d="M0,0h61v53h-61Z" style="pointer-events: none; fill: none;"></path><g><g class="mark-group role-legend-entry"><g transform="translate(0,16)"><path class="background" d="M0,0h0v0h0Z" style="pointer-events: none; fill: none;"></path><g><g class="mark-group role-scope"><g transform="translate(0,0)"><path class="background" d="M0,0h60.4677734375v11h-60.4677734375Z" style="pointer-events: none; fill: none; opacity: 1;"></path><g><g class="mark-symbol role-legend-symbol" style="pointer-events: none;"><path transform="translate(6,6)" d="M-5,0L5,0" style="fill: none; stroke: orange; stroke-width: 1.5; opacity: 0.9;"></path></g><g class="mark-text role-legend-label" style="pointer-events: none;"><text text-anchor="start" transform="translate(16,9)" style="font-family: sans-serif; font-size: 10px; fill: #000; opacity: 1;">confirmed</text></g></g><path class="foreground" d="" style="pointer-events: none; display: none; fill: none;"></path></g><g transform="translate(0,13)"><path class="background" d="M0,0h60.4677734375v11h-60.4677734375Z" style="pointer-events: none; fill: none; opacity: 1;"></path><g><g class="mark-symbol role-legend-symbol" style="pointer-events: none;"><path transform="translate(6,6)" d="M-5,0L5,0" style="fill: none; stroke: red; stroke-width: 1.5; opacity: 0.9;"></path></g><g class="mark-text role-legend-label" style="pointer-events: none;"><text text-anchor="start" transform="translate(16,9)" style="font-family: sans-serif; font-size: 10px; fill: #000; opacity: 1;">deaths</text></g></g><path class="foreground" d="" style="pointer-events: none; display: none; fill: none;"></path></g><g transform="translate(0,26)"><path class="background" d="M0,0h60.4677734375v11h-60.4677734375Z" style="pointer-events: none; fill: none; opacity: 1;"></path><g><g class="mark-symbol role-legend-symbol" style="pointer-events: none;"><path transform="translate(6,6)" d="M-5,0L5,0" style="fill: none; stroke: green; stroke-width: 1.5; opacity: 0.9;"></path></g><g class="mark-text role-legend-label" style="pointer-events: none;"><text text-anchor="start" transform="translate(16,9)" style="font-family: sans-serif; font-size: 10px; fill: #000; opacity: 1;">recovered</text></g></g><path class="foreground" d="" style="pointer-events: none; display: none; fill: none;"></path></g></g></g><path class="foreground" d="" style="pointer-events: none; display: none; fill: none;"></path></g></g><g class="mark-text role-legend-title" style="pointer-events: none;"><text text-anchor="start" transform="translate(0,9)" style="font-family: sans-serif; font-size: 11px; font-weight: bold; fill: #000; opacity: 1;">Category</text></g></g><path class="foreground" d="" style="pointer-events: none; display: none; fill: none;"></path></g></g><g class="mark-group role-title"><g transform="translate(400,-22)"><path class="background" d="M0,0h0v0h0Z" style="pointer-events: none; fill: none;"></path><g><g class="mark-text role-title-text" style="pointer-events: none;"><text text-anchor="middle" transform="translate(0,10)" style="font-family: sans-serif; font-size: 13px; font-weight: bold; fill: #000; opacity: 1;">Covid-19 time series of ['confirmed', 'deaths', 'recovered'] in united-states as of 04-11-2020 from CovidAPI</text></g></g><path class="foreground" d="" style="pointer-events: none; display: none; fill: none;"></path></g></g></g><path class="foreground" d="" style="display: none; fill: none;"></path></g></g></g></svg>