<svg class="marks" width="821" height="439" viewBox="0 0 821 439" version="1.1" xmlns="http://www.w3.org/2000/svg" xmlns:xlink="http://www.w3.org/1999/xlink"><rect width="821" height="439" style="fill: white;"></rect><g transform="translate(64,27)"><g class="mark-group role-frame root"><g transform="translate(0,0)"><path class="background" d="M0.5,0.5h750v375h-750Z" style="fill: none; stroke: #ddd;"></path><g><g class="mark-group role-axis"><g transform="translate(0.5,375.5)"><path class="background" d="M0,0h0v0h0Z" style="pointer-events: none; fill: none;"></path><g><g class="mark-rule role-axis-grid" style="pointer-events: none;"><line transform="translate(35,-375)" x2="0" y2="375" style="fill: none; stroke: #ddd; stroke-width: 1; opacity: 1;"></line><line transform="translate(97,-375)" x2="0" y2="375" style="fill: none; stroke: #ddd; stroke-width: 1; opacity: 1;"></line><line transform="translate(159,-375)" x2="0" y2="375" style="fill: none; stroke: #ddd; stroke-width: 1; opacity: 1;"></line><line transform="translate(221,-375)" x2="0" y2="375" style="fill: none; stroke: #ddd; stroke-width: 1; opacity: 1;"></line><line transform="translate(282,-375)" x2="0" y2="375" style="fill: none; stroke: #ddd; stroke-width: 1; opacity: 1;"></line><line transform="translate(344,-375)" x2="0" y2="375" style="fill: none; stroke: #ddd; stroke-width: 1; opacity: 1;"></line><line transform="translate(406,-375)" x2="0" y2="375" style="fill: none; stroke: #ddd; stroke-width: 1; opacity: 1;"></line><line transform="translate(468,-375)" x2="0" y2="375" style="fill: none; stroke: #ddd; stroke-width: 1; opacity: 1;"></line><line transform="translate(529,-375)" x2="0" y2="375" style="fill: none; stroke: #ddd; stroke-width: 1; opacity: 1;"></line><line transform="translate(591,-375)" x2="0" y2="375" style="fill: none; stroke: #ddd; stroke-width: 1; opacity: 1;"></line><line transform="translate(653,-375)" x2="0" y2="375" style="fill: none; stroke: #ddd; stroke-width: 1; opacity: 1;"></line><line transform="translate(714,-375)" x2="0" y2="375" style="fill: none; stroke: #ddd; stroke-width: 1; opacity: 1;"></line></g></g><path class="foreground" d="" style="pointer-events: none; display: none; fill: none;"></path></g></g><g class="mark-group role-axis"><g transform="translate(0.5,0.5)"><path class="background" d="M0,0h0v0h0Z" style="pointer-events: none; fill: none;"></path><g><g class="mark-rule role-axis-grid" style="pointer-events: none;"><line transform="translate(0,375)" x2="750" y2="0" style="fill: none; stroke: #ddd; stroke-width: 1; opacity: 1;"></line><line transform="translate(0,341)" x2="750" y2="0" style="fill: none; stroke: #ddd; stroke-width: 1; opacity: 1;"></line><line transform="translate(0,307)" x2="750" y2="0" style="fill: none; stroke: #ddd; stroke-width: 1; opacity: 1;"></line><line transform="translate(0,273)" x2="750" y2="0" style="fill: none; stroke: #ddd; stroke-width: 1; opacity: 1;"></line><line transform="translate(0,239)" x2="750" y2="0" style="fill: none; stroke: #ddd; stroke-width: 1; opacity: 1;"></line><line transform="translate(0,205)" x2="750" y2="0" style="fill: none; stroke: #ddd; stroke-width: 1; opacity: 1;"></line><line transform="translate(0,170)" x2="750" y2="0" style="fill: none; stroke: #ddd; stroke-width: 1; opacity: 1;"></line><line transform="translate(0,136)" x2="750" y2="0" style="fill: none; stroke: #ddd; stroke-width: 1; opacity: 1;"></line><line transform="translate(0,102)" x2="750" y2="0" style="fill: none; stroke: #ddd; stroke-width: 1; opacity: 1;"></line><line transform="translate(0,68)" x2="750" y2="0" style="fill: none; stroke: #ddd; stroke-width: 1; opacity: 1;"></line><line transform="translate(0,34)" x2="750" y2="0" style="fill: none; stroke: #ddd; stroke-width: 1; opacity: 1;"></line><line transform="translate(0,0)" x2="750" y2="0" style="fill: none; stroke: #ddd; stroke-width: 1; opacity: 1;"></line></g></g><path class="foreground" d="" style="pointer-events: none; display: none; fill: none;"></path></g></g><g class="mark-group role-axis"><g transform="translate(0.5,375.5)"><path class="background" d="M0,0h0v0h0Z" style="pointer-events: none; fill: none;"></path><g><g class="mark-rule role-axis-tick" style="pointer-events: none;"><line transform="translate(35,0)" x2="0" y2="5" style="fill: none; stroke: #888; stroke-width: 1; opacity: 1;"></line><line transform="translate(97,0)" x2="0" y2="5" style="fill: none; stroke: #888; stroke-width: 1; opacity: 1;"></line><line transform="translate(159,0)" x2="0" y2="5" style="fill: none; stroke: #888; stroke-width: 1; opacity: 1;"></line><line transform="translate(221,0)" x2="0" y2="5" style="fill: none; stroke: #888; stroke-width: 1; opacity: 1;"></line><line transform="translate(282,0)" x2="0" y2="5" style="fill: none; stroke: #888; stroke-width: 1; opacity: 1;"></line><line transform="translate(344,0)" x2="0" y2="5" style="fill: none; stroke: #888; stroke-width: 1; opacity: 1;"></line><line transform="translate(406,0)" x2="0" y2="5" style="fill: none; stroke: #888; stroke-width: 1; opacity: 1;"></line><line transform="translate(468,0)" x2="0" y2="5" style="fill: none; stroke: #888; stroke-width: 1; opacity: 1;"></line><line transform="translate(529,0)" x2="0" y2="5" style="fill: none; stroke: #888; stroke-width: 1; opacity: 1;"></line><line transform="translate(591,0)" x2="0" y2="5" style="fill: none; stroke: #888; stroke-width: 1; opacity: 1;"></line><line transform="translate(653,0)" x2="0" y2="5" style="fill: none; stroke: #888; stroke-width: 1; opacity: 1;"></line><line transform="translate(714,0)" x2="0" y2="5" style="fill: none; stroke: #888; stroke-width: 1; opacity: 1;"></line></g><g class="mark-text role-axis-label" style="pointer-events: none;"><text text-anchor="middle" transform="translate(35.294117647058826,15)" style="font-family: sans-serif; font-size: 10px; fill: #000; opacity: 1;">Jan 26</text><text text-anchor="middle" transform="translate(97.05882352941177,15)" style="font-family: sans-serif; font-size: 10px; fill: #000; opacity: 1;">Feb 02</text><text text-anchor="middle" transform="translate(158.8235294117647,15)" style="font-family: sans-serif; font-size: 10px; fill: #000; opacity: 1;">Feb 09</text><text text-anchor="middle" transform="translate(220.58823529411765,15)" style="font-family: sans-serif; font-size: 10px; fill: #000; opacity: 1;">Feb 16</text><text text-anchor="middle" transform="translate(282.3529411764706,15)" style="font-family: sans-serif; font-size: 10px; fill: #000; opacity: 1;">Feb 23</text><text text-anchor="middle" transform="translate(344.11764705882354,15)" style="font-family: sans-serif; font-size: 10px; fill: #000; opacity: 1;">March</text><text text-anchor="middle" transform="translate(405.88235294117646,15)" style="font-family: sans-serif; font-size: 10px; fill: #000; opacity: 1;">Mar 08</text><text text-anchor="middle" transform="translate(467.6470588235294,15)" style="font-family: sans-serif; font-size: 10px; fill: #000; opacity: 1;">Mar 15</text><text text-anchor="middle" transform="translate(529.4117647058824,15)" style="font-family: sans-serif; font-size: 10px; fill: #000; opacity: 1;">Mar 22</text><text text-anchor="middle" transform="translate(591.1764705882352,15)" style="font-family: sans-serif; font-size: 10px; fill: #000; opacity: 1;">Mar 29</text><text text-anchor="middle" transform="translate(652.5735294117648,15)" style="font-family: sans-serif; font-size: 10px; fill: #000; opacity: 1;">Apr 05</text><text text-anchor="middle" transform="translate(714.3382352941176,15)" style="font-family: sans-serif; font-size: 10px; fill: #000; opacity: 1;">Apr 12</text></g><g class="mark-rule role-axis-domain" style="pointer-events: none;"><line transform="translate(0,0)" x2="750" y2="0" style="fill: none; stroke: #888; stroke-width: 1; opacity: 1;"></line></g><g class="mark-text role-axis-title" style="pointer-events: none;"><text text-anchor="middle" transform="translate(375,30)" style="font-family: sans-serif; font-size: 11px; font-weight: bold; fill: #000; opacity: 1;">Date</text></g></g><path class="foreground" d="" style="pointer-events: none; display: none; fill: none;"></path></g></g><g class="mark-group role-axis"><g transform="translate(0.5,0.5)"><path class="background" d="M0,0h0v0h0Z" style="pointer-events: none; fill: none;"></path><g><g class="mark-rule role-axis-tick" style="pointer-events: none;"><line transform="translate(0,375)" x2="-5" y2="0" style="fill: none; stroke: #888; stroke-width: 1; opacity: 1;"></line><line transform="translate(0,341)" x2="-5" y2="0" style="fill: none; stroke: #888; stroke-width: 1; opacity: 1;"></line><line transform="translate(0,307)" x2="-5" y2="0" style="fill: none; stroke: #888; stroke-width: 1; opacity: 1;"></line><line transform="translate(0,273)" x2="-5" y2="0" style="fill: none; stroke: #888; stroke-width: 1; opacity: 1;"></line><line transform="translate(0,239)" x2="-5" y2="0" style="fill: none; stroke: #888; stroke-width: 1; opacity: 1;"></line><line transform="translate(0,205)" x2="-5" y2="0" style="fill: none; stroke: #888; stroke-width: 1; opacity: 1;"></line><line transform="translate(0,170)" x2="-5" y2="0" style="fill: none; stroke: #888; stroke-width: 1; opacity: 1;"></line><line transform="translate(0,136)" x2="-5" y2="0" style="fill: none; stroke: #888; stroke-width: 1; opacity: 1;"></line><line transform="translate(0,102)" x2="-5" y2="0" style="fill: none; stroke: #888; stroke-width: 1; opacity: 1;"></line><line transform="translate(0,68)" x2="-5" y2="0" style="fill: none; stroke: #888; stroke-width: 1; opacity: 1;"></line><line transform="translate(0,34)" x2="-5" y2="0" style="fill: none; stroke: #888; stroke-width: 1; opacity: 1;"></line><line transform="translate(0,0)" x2="-5" y2="0" style="fill: none; stroke: #888; stroke-width: 1; opacity: 1;"></line></g><g class="mark-text role-axis-label" style="pointer-events: none;"><text text-anchor="end" transform="translate(-7,378)" style="font-family: sans-serif; font-size: 10px; fill: #000; opacity: 1;">0</text><text text-anchor="end" transform="translate(-7,343.9090909090909)" style="font-family: sans-serif; font-size: 10px; fill: #000; opacity: 1;">10,000</text><text text-anchor="end" transform="translate(-7,309.8181818181818)" style="font-family: sans-serif; font-size: 10px; fill: #000; opacity: 1;">20,000</text><text text-anchor="end" transform="translate(-7,275.72727272727275)" style="font-family: sans-serif; font-size: 10px; fill: #000; opacity: 1;">30,000</text><text text-anchor="end" transform="translate(-7,241.63636363636363)" style="font-family: sans-serif; font-size: 10px; fill: #000; opacity: 1;">40,000</text><text text-anchor="end" transform="translate(-7,207.54545454545453)" style="font-family: sans-serif; font-size: 10px; fill: #000; opacity: 1;">50,000</text><text text-anchor="end" transform="translate(-7,173.45454545454547)" style="font-family: sans-serif; font-size: 10px; fill: #000; opacity: 1;">60,000</text><text text-anchor="end" transform="translate(-7,139.36363636363637)" style="font-family: sans-serif; font-size: 10px; fill: #000; opacity: 1;">70,000</text><text text-anchor="end" transform="translate(-7,105.27272727272727)" style="font-family: sans-serif; font-size: 10px; fill: #000; opacity: 1;">80,000</text><text text-anchor="end" transform="translate(-7,71.18181818181816)" style="font-family: sans-serif; font-size: 10px; fill: #000; opacity: 1;">90,000</text><text text-anchor="end" transform="translate(-7,37.0909090909091)" style="font-family: sans-serif; font-size: 10px; fill: #000; opacity: 1;">100,000</text><text text-anchor="end" transform="translate(-7,3)" style="font-family: sans-serif; font-size: 10px; fill: #000; opacity: 1;">110,000</text></g><g class="mark-rule role-axis-domain" style="pointer-events: none;"><line transform="translate(0,375)" x2="0" y2="-375" style="fill: none; stroke: #888; stroke-width: 1; opacity: 1;"></line></g><g class="mark-text role-axis-title" style="pointer-events: none;"><text text-anchor="middle" transform="translate(-47.1474609375,187.5) rotate(-90) translate(0,-2)" style="font-family: sans-serif; font-size: 11px; font-weight: bold; fill: #000; opacity: 1;">Confirmed</text></g></g><path class="foreground" d="" style="pointer-events: none; display: none; fill: none;"></path></g></g><g class="mark-line role-mark marks"><path d="M0,375L8.823529411764707,375L17.647058823529413,375L26.470588235294116,375L35.294117647058826,375L44.11764705882353,375L52.94117647058823,375L61.76470588235294,375L70.58823529411765,375L79.41176470588235,374.9931818181818L88.23529411764706,374.9931818181818L97.05882352941177,374.9931818181818L105.88235294117646,374.9931818181818L114.70588235294119,374.9931818181818L123.52941176470588,374.9931818181818L132.3529411764706,374.9931818181818L141.1764705882353,374.98977272727274L150,374.98977272727274L158.8235294117647,374.98977272727274L167.64705882352942,374.9727272727273L176.47058823529412,374.9727272727273L185.29411764705884,374.9693181818182L194.11764705882354,374.9693181818182L202.94117647058823,374.9693181818182L211.76470588235293,374.9693181818182L220.58823529411765,374.9693181818182L229.41176470588238,374.9693181818182L238.23529411764704,374.9693181818182L247.05882352941177,374.9693181818182L255.88235294117646,374.9693181818182L264.7058823529412,374.9693181818182L273.52941176470586,374.9693181818182L282.3529411764706,374.9693181818182L291.1764705882353,374.9556818181818L300,374.9556818181818L308.8235294117647,374.9556818181818L317.6470588235294,374.9488636363636L326.47058823529414,374.9318181818182L335.29411764705884,374.9215909090909L344.11764705882354,374.8772727272727L352.94117647058823,374.8636363636364L361.7647058823529,374.82613636363635L370.5882352941177,374.70681818181816L379.4117647058823,374.6045454545455L388.2352941176471,374.4409090909091L397.05882352941177,374.2943181818182L405.88235294117646,374.0659090909091L414.7058823529412,373.9022727272727L423.52941176470586,373.6909090909091L432.35294117647055,373.4352272727273L441.1764705882353,373.4352272727273L450,372.2659090909091L458.82352941176475,371.1L467.6470588235294,371.0965909090909L476.4705882352941,369.7125L485.29411764705884,368.3181818181818L494.11764705882354,365.9931818181818L502.9411764705882,365.7409090909091L511.7647058823529,361.3159090909091L520.5882352941177,357.72613636363633L529.4117647058824,355.41477272727275L538.2352941176471,352.07045454545454L547.0588235294117,347.1681818181818L555.8823529411765,342.1363636363636L564.7058823529412,334.7318181818182L573.5294117647059,324.73295454545456L582.3529411764706,315.9818181818182L591.1764705882352,307.5681818181818L600,298.4556818181818L608.8235294117648,288.1329545454546L617.6470588235294,273.1875L626.4705882352941,258.50113636363636L635.2941176470588,243.1056818181818L644.1176470588235,230.19204545454548L652.9411764705883,209.87727272727275L661.7647058823529,196.77613636363634L670.5882352941177,184.26477272727274L679.4117647058823,165.42954545454543L688.2352941176471,150.43636363636364L697.0588235294118,120.66477272727275L705.8823529411765,102.70227272727273L714.7058823529411,84.52500000000002L723.5294117647059,69.64772727272728L732.3529411764706,51.66477272727273L741.1764705882354,35.853409090909075L750,19.960227272727256" style="fill: none; stroke: orange; stroke-width: 2;"></path></g><g class="mark-group role-title"><g transform="translate(375,-22)"><path class="background" d="M0,0h0v0h0Z" style="pointer-events: none; fill: none;"></path><g><g class="mark-text role-title-text" style="pointer-events: none;"><text text-anchor="middle" transform="translate(0,10)" style="font-family: sans-serif; font-size: 13px; font-weight: bold; fill: #000; opacity: 1;">Covid-19 Confirmed in united-kingdom</text></g></g><path class="foreground" d="" style="pointer-events: none; display: none; fill: none;"></path></g></g></g><path class="foreground" d="" style="display: none; fill: none;"></path></g></g></g></svg>