<svg class="marks" width="796" height="439" viewBox="0 0 796 439" version="1.1" xmlns="http://www.w3.org/2000/svg" xmlns:xlink="http://www.w3.org/1999/xlink"><rect width="796" height="439" style="fill: white;"></rect><g transform="translate(39,27)"><g class="mark-group role-frame root"><g transform="translate(0,0)"><path class="background" d="M0.5,0.5h750v375h-750Z" style="fill: none; stroke: #ddd;"></path><g><g class="mark-group role-axis"><g transform="translate(0.5,375.5)"><path class="background" d="M0,0h0v0h0Z" style="pointer-events: none; fill: none;"></path><g><g class="mark-rule role-axis-grid" style="pointer-events: none;"><line transform="translate(38,-375)" x2="0" y2="375" style="fill: none; stroke: #ddd; stroke-width: 1; opacity: 1;"></line><line transform="translate(103,-375)" x2="0" y2="375" style="fill: none; stroke: #ddd; stroke-width: 1; opacity: 1;"></line><line transform="translate(169,-375)" x2="0" y2="375" style="fill: none; stroke: #ddd; stroke-width: 1; opacity: 1;"></line><line transform="translate(234,-375)" x2="0" y2="375" style="fill: none; stroke: #ddd; stroke-width: 1; opacity: 1;"></line><line transform="translate(300,-375)" x2="0" y2="375" style="fill: none; stroke: #ddd; stroke-width: 1; opacity: 1;"></line><line transform="translate(366,-375)" x2="0" y2="375" style="fill: none; stroke: #ddd; stroke-width: 1; opacity: 1;"></line><line transform="translate(431,-375)" x2="0" y2="375" style="fill: none; stroke: #ddd; stroke-width: 1; opacity: 1;"></line><line transform="translate(497,-375)" x2="0" y2="375" style="fill: none; stroke: #ddd; stroke-width: 1; opacity: 1;"></line><line transform="translate(563,-375)" x2="0" y2="375" style="fill: none; stroke: #ddd; stroke-width: 1; opacity: 1;"></line><line transform="translate(628,-375)" x2="0" y2="375" style="fill: none; stroke: #ddd; stroke-width: 1; opacity: 1;"></line><line transform="translate(693,-375)" x2="0" y2="375" style="fill: none; stroke: #ddd; stroke-width: 1; opacity: 1;"></line></g></g><path class="foreground" d="" style="pointer-events: none; display: none; fill: none;"></path></g></g><g class="mark-group role-axis"><g transform="translate(0.5,0.5)"><path class="background" d="M0,0h0v0h0Z" style="pointer-events: none; fill: none;"></path><g><g class="mark-rule role-axis-grid" style="pointer-events: none;"><line transform="translate(0,375)" x2="750" y2="0" style="fill: none; stroke: #ddd; stroke-width: 1; opacity: 1;"></line><line transform="translate(0,344)" x2="750" y2="0" style="fill: none; stroke: #ddd; stroke-width: 1; opacity: 1;"></line><line transform="translate(0,313)" x2="750" y2="0" style="fill: none; stroke: #ddd; stroke-width: 1; opacity: 1;"></line><line transform="translate(0,281)" x2="750" y2="0" style="fill: none; stroke: #ddd; stroke-width: 1; opacity: 1;"></line><line transform="translate(0,250)" x2="750" y2="0" style="fill: none; stroke: #ddd; stroke-width: 1; opacity: 1;"></line><line transform="translate(0,219)" x2="750" y2="0" style="fill: none; stroke: #ddd; stroke-width: 1; opacity: 1;"></line><line transform="translate(0,188)" x2="750" y2="0" style="fill: none; stroke: #ddd; stroke-width: 1; opacity: 1;"></line><line transform="translate(0,156)" x2="750" y2="0" style="fill: none; stroke: #ddd; stroke-width: 1; opacity: 1;"></line><line transform="translate(0,125)" x2="750" y2="0" style="fill: none; stroke: #ddd; stroke-width: 1; opacity: 1;"></line><line transform="translate(0,94)" x2="750" y2="0" style="fill: none; stroke: #ddd; stroke-width: 1; opacity: 1;"></line><line transform="translate(0,62)" x2="750" y2="0" style="fill: none; stroke: #ddd; stroke-width: 1; opacity: 1;"></line><line transform="translate(0,31)" x2="750" y2="0" style="fill: none; stroke: #ddd; stroke-width: 1; opacity: 1;"></line><line transform="translate(0,0)" x2="750" y2="0" style="fill: none; stroke: #ddd; stroke-width: 1; opacity: 1;"></line></g></g><path class="foreground" d="" style="pointer-events: none; display: none; fill: none;"></path></g></g><g class="mark-group role-axis"><g transform="translate(0.5,375.5)"><path class="background" d="M0,0h0v0h0Z" style="pointer-events: none; fill: none;"></path><g><g class="mark-rule role-axis-tick" style="pointer-events: none;"><line transform="translate(38,0)" x2="0" y2="5" style="fill: none; stroke: #888; stroke-width: 1; opacity: 1;"></line><line transform="translate(103,0)" x2="0" y2="5" style="fill: none; stroke: #888; stroke-width: 1; opacity: 1;"></line><line transform="translate(169,0)" x2="0" y2="5" style="fill: none; stroke: #888; stroke-width: 1; opacity: 1;"></line><line transform="translate(234,0)" x2="0" y2="5" style="fill: none; stroke: #888; stroke-width: 1; opacity: 1;"></line><line transform="translate(300,0)" x2="0" y2="5" style="fill: none; stroke: #888; stroke-width: 1; opacity: 1;"></line><line transform="translate(366,0)" x2="0" y2="5" style="fill: none; stroke: #888; stroke-width: 1; opacity: 1;"></line><line transform="translate(431,0)" x2="0" y2="5" style="fill: none; stroke: #888; stroke-width: 1; opacity: 1;"></line><line transform="translate(497,0)" x2="0" y2="5" style="fill: none; stroke: #888; stroke-width: 1; opacity: 1;"></line><line transform="translate(563,0)" x2="0" y2="5" style="fill: none; stroke: #888; stroke-width: 1; opacity: 1;"></line><line transform="translate(628,0)" x2="0" y2="5" style="fill: none; stroke: #888; stroke-width: 1; opacity: 1;"></line><line transform="translate(693,0)" x2="0" y2="5" style="fill: none; stroke: #888; stroke-width: 1; opacity: 1;"></line></g><g class="mark-text role-axis-label" style="pointer-events: none;"><text text-anchor="middle" transform="translate(37.5,15)" style="font-family: sans-serif; font-size: 10px; fill: #000; opacity: 1;">Jan 26</text><text text-anchor="middle" transform="translate(103.12500000000001,15)" style="font-family: sans-serif; font-size: 10px; fill: #000; opacity: 1;">Feb 02</text><text text-anchor="middle" transform="translate(168.75,15)" style="font-family: sans-serif; font-size: 10px; fill: #000; opacity: 1;">Feb 09</text><text text-anchor="middle" transform="translate(234.375,15)" style="font-family: sans-serif; font-size: 10px; fill: #000; opacity: 1;">Feb 16</text><text text-anchor="middle" transform="translate(300,15)" style="font-family: sans-serif; font-size: 10px; fill: #000; opacity: 1;">Feb 23</text><text text-anchor="middle" transform="translate(365.625,15)" style="font-family: sans-serif; font-size: 10px; fill: #000; opacity: 1;">March</text><text text-anchor="middle" transform="translate(431.24999999999994,15)" style="font-family: sans-serif; font-size: 10px; fill: #000; opacity: 1;">Mar 08</text><text text-anchor="middle" transform="translate(496.875,15)" style="font-family: sans-serif; font-size: 10px; fill: #000; opacity: 1;">Mar 15</text><text text-anchor="middle" transform="translate(562.5,15)" style="font-family: sans-serif; font-size: 10px; fill: #000; opacity: 1;">Mar 22</text><text text-anchor="middle" transform="translate(628.125,15)" style="font-family: sans-serif; font-size: 10px; fill: #000; opacity: 1;">Mar 29</text><text text-anchor="middle" transform="translate(693.359375,15)" style="font-family: sans-serif; font-size: 10px; fill: #000; opacity: 1;">Apr 05</text></g><g class="mark-rule role-axis-domain" style="pointer-events: none;"><line transform="translate(0,0)" x2="750" y2="0" style="fill: none; stroke: #888; stroke-width: 1; opacity: 1;"></line></g><g class="mark-text role-axis-title" style="pointer-events: none;"><text text-anchor="middle" transform="translate(375,30)" style="font-family: sans-serif; font-size: 11px; font-weight: bold; fill: #000; opacity: 1;">Date</text></g></g><path class="foreground" d="" style="pointer-events: none; display: none; fill: none;"></path></g></g><g class="mark-group role-axis"><g transform="translate(0.5,0.5)"><path class="background" d="M0,0h0v0h0Z" style="pointer-events: none; fill: none;"></path><g><g class="mark-rule role-axis-tick" style="pointer-events: none;"><line transform="translate(0,375)" x2="-5" y2="0" style="fill: none; stroke: #888; stroke-width: 1; opacity: 1;"></line><line transform="translate(0,344)" x2="-5" y2="0" style="fill: none; stroke: #888; stroke-width: 1; opacity: 1;"></line><line transform="translate(0,313)" x2="-5" y2="0" style="fill: none; stroke: #888; stroke-width: 1; opacity: 1;"></line><line transform="translate(0,281)" x2="-5" y2="0" style="fill: none; stroke: #888; stroke-width: 1; opacity: 1;"></line><line transform="translate(0,250)" x2="-5" y2="0" style="fill: none; stroke: #888; stroke-width: 1; opacity: 1;"></line><line transform="translate(0,219)" x2="-5" y2="0" style="fill: none; stroke: #888; stroke-width: 1; opacity: 1;"></line><line transform="translate(0,188)" x2="-5" y2="0" style="fill: none; stroke: #888; stroke-width: 1; opacity: 1;"></line><line transform="translate(0,156)" x2="-5" y2="0" style="fill: none; stroke: #888; stroke-width: 1; opacity: 1;"></line><line transform="translate(0,125)" x2="-5" y2="0" style="fill: none; stroke: #888; stroke-width: 1; opacity: 1;"></line><line transform="translate(0,94)" x2="-5" y2="0" style="fill: none; stroke: #888; stroke-width: 1; opacity: 1;"></line><line transform="translate(0,62)" x2="-5" y2="0" style="fill: none; stroke: #888; stroke-width: 1; opacity: 1;"></line><line transform="translate(0,31)" x2="-5" y2="0" style="fill: none; stroke: #888; stroke-width: 1; opacity: 1;"></line><line transform="translate(0,0)" x2="-5" y2="0" style="fill: none; stroke: #888; stroke-width: 1; opacity: 1;"></line></g><g class="mark-text role-axis-label" style="pointer-events: none;"><text text-anchor="end" transform="translate(-7,378)" style="font-family: sans-serif; font-size: 10px; fill: #000; opacity: 1;">0</text><text text-anchor="end" transform="translate(-7,346.75)" style="font-family: sans-serif; font-size: 10px; fill: #000; opacity: 1;">1</text><text text-anchor="end" transform="translate(-7,315.5)" style="font-family: sans-serif; font-size: 10px; fill: #000; opacity: 1;">2</text><text text-anchor="end" transform="translate(-7,284.25)" style="font-family: sans-serif; font-size: 10px; fill: #000; opacity: 1;">3</text><text text-anchor="end" transform="translate(-7,253.00000000000003)" style="font-family: sans-serif; font-size: 10px; fill: #000; opacity: 1;">4</text><text text-anchor="end" transform="translate(-7,221.74999999999997)" style="font-family: sans-serif; font-size: 10px; fill: #000; opacity: 1;">5</text><text text-anchor="end" transform="translate(-7,190.5)" style="font-family: sans-serif; font-size: 10px; fill: #000; opacity: 1;">6</text><text text-anchor="end" transform="translate(-7,159.25)" style="font-family: sans-serif; font-size: 10px; fill: #000; opacity: 1;">7</text><text text-anchor="end" transform="translate(-7,128)" style="font-family: sans-serif; font-size: 10px; fill: #000; opacity: 1;">8</text><text text-anchor="end" transform="translate(-7,96.75)" style="font-family: sans-serif; font-size: 10px; fill: #000; opacity: 1;">9</text><text text-anchor="end" transform="translate(-7,65.49999999999999)" style="font-family: sans-serif; font-size: 10px; fill: #000; opacity: 1;">10</text><text text-anchor="end" transform="translate(-7,34.250000000000014)" style="font-family: sans-serif; font-size: 10px; fill: #000; opacity: 1;">11</text><text text-anchor="end" transform="translate(-7,3)" style="font-family: sans-serif; font-size: 10px; fill: #000; opacity: 1;">12</text></g><g class="mark-rule role-axis-domain" style="pointer-events: none;"><line transform="translate(0,375)" x2="0" y2="-375" style="fill: none; stroke: #888; stroke-width: 1; opacity: 1;"></line></g><g class="mark-text role-axis-title" style="pointer-events: none;"><text text-anchor="middle" transform="translate(-22.123046875,187.5) rotate(-90) translate(0,-2)" style="font-family: sans-serif; font-size: 11px; font-weight: bold; fill: #000; opacity: 1;">LogConfirmed</text></g></g><path class="foreground" d="" style="pointer-events: none; display: none; fill: none;"></path></g></g><g class="mark-line role-mark marks"><path d="M84.375,353.33915060750167L93.75,353.33915060750167L103.12500000000001,353.33915060750167L112.5,353.33915060750167L121.875,353.33915060750167L131.25,353.33915060750167L140.625,353.33915060750167L150,340.6683659791216L159.375,340.6683659791216L168.75,340.6683659791216L178.125,310.0174518225051L187.5,310.0174518225051L196.875,306.33673195824315L206.25000000000003,306.33673195824315L215.62499999999997,306.33673195824315L225,306.33673195824315L234.375,306.33673195824315L243.75,306.33673195824315L253.12500000000003,306.33673195824315L262.5,306.33673195824315L271.875,306.33673195824315L281.25,306.33673195824315L290.625,306.33673195824315L300,306.33673195824315L309.375,294.84533257932696L318.75,294.84533257932696L328.125,294.84533257932696L337.5,290.3734312155559L346.875,281.3833664514378L356.25,277.0158057522141L365.625,263.0150331732466L375,259.7225170589395L384.37499999999994,252.1304489773648L393.75,235.8016469920779L403.125,226.45030652792607L412.50000000000006,215.62917413049382L421.875,208.35253771045723L431.24999999999994,199.58974667537282L440.625,194.54526420173727L450,189.04242023163354L459.37500000000006,183.46718093560796L468.75,183.46718093560796L478.12499999999994,166.0278560041714L487.5,154.92855712688302L496.875,154.90125262536435L506.25000000000006,145.41702615073314L515.625,138.10313274298244L525,128.77214109117904L534.375,127.90889097879413L543.75,115.70176470761612L553.125,108.4217435788778L562.5,104.49733780366077L571.875,99.57075336561826L581.25,93.51595237719577L590.625,88.32261288735654L600,81.97277366050582L609.375,75.04189621095696L618.75,70.02640057355603L628.125,65.86166858822801L637.5,61.9006401708687L646.875,57.9472388942564L656.25,52.98617171354979L665.625,48.7752769509993L675,44.896543722232025L684.375,41.97756150146627L693.75,37.87504319142947L703.125,35.48906125682212L712.5,33.3688799850199L721.875,30.42594999446953L731.25,28.26660174969732L740.625,24.37616224767121L750,22.243572748760947" style="fill: none; stroke: orange; stroke-width: 2;"></path></g><g class="mark-group role-title"><g transform="translate(375,-22)"><path class="background" d="M0,0h0v0h0Z" style="pointer-events: none; fill: none;"></path><g><g class="mark-text role-title-text" style="pointer-events: none;"><text text-anchor="middle" transform="translate(0,10)" style="font-family: sans-serif; font-size: 13px; font-weight: bold; fill: #000; opacity: 1;">Covid-19 LogConfirmed in united-kingdom</text></g></g><path class="foreground" d="" style="pointer-events: none; display: none; fill: none;"></path></g></g></g><path class="foreground" d="" style="display: none; fill: none;"></path></g></g></g></svg>