<svg class="marks" width="790" height="439" viewBox="0 0 790 439" version="1.1" xmlns="http://www.w3.org/2000/svg" xmlns:xlink="http://www.w3.org/1999/xlink"><rect width="790" height="439" style="fill: white;"></rect><g transform="translate(33,27)"><g class="mark-group role-frame root"><g transform="translate(0,0)"><path class="background" d="M0.5,0.5h750v375h-750Z" style="fill: none; stroke: #ddd;"></path><g><g class="mark-group role-axis"><g transform="translate(0.5,375.5)"><path class="background" d="M0,0h0v0h0Z" style="pointer-events: none; fill: none;"></path><g><g class="mark-rule role-axis-grid" style="pointer-events: none;"><line transform="translate(11,-375)" x2="0" y2="375" style="fill: none; stroke: #ddd; stroke-width: 1; opacity: 1;"></line><line transform="translate(32,-375)" x2="0" y2="375" style="fill: none; stroke: #ddd; stroke-width: 1; opacity: 1;"></line><line transform="translate(53,-375)" x2="0" y2="375" style="fill: none; stroke: #ddd; stroke-width: 1; opacity: 1;"></line><line transform="translate(74,-375)" x2="0" y2="375" style="fill: none; stroke: #ddd; stroke-width: 1; opacity: 1;"></line><line transform="translate(95,-375)" x2="0" y2="375" style="fill: none; stroke: #ddd; stroke-width: 1; opacity: 1;"></line><line transform="translate(106,-375)" x2="0" y2="375" style="fill: none; stroke: #ddd; stroke-width: 1; opacity: 1;"></line><line transform="translate(127,-375)" x2="0" y2="375" style="fill: none; stroke: #ddd; stroke-width: 1; opacity: 1;"></line><line transform="translate(148,-375)" x2="0" y2="375" style="fill: none; stroke: #ddd; stroke-width: 1; opacity: 1;"></line><line transform="translate(169,-375)" x2="0" y2="375" style="fill: none; stroke: #ddd; stroke-width: 1; opacity: 1;"></line><line transform="translate(190,-375)" x2="0" y2="375" style="fill: none; stroke: #ddd; stroke-width: 1; opacity: 1;"></line><line transform="translate(211,-375)" x2="0" y2="375" style="fill: none; stroke: #ddd; stroke-width: 1; opacity: 1;"></line><line transform="translate(232,-375)" x2="0" y2="375" style="fill: none; stroke: #ddd; stroke-width: 1; opacity: 1;"></line><line transform="translate(254,-375)" x2="0" y2="375" style="fill: none; stroke: #ddd; stroke-width: 1; opacity: 1;"></line><line transform="translate(275,-375)" x2="0" y2="375" style="fill: none; stroke: #ddd; stroke-width: 1; opacity: 1;"></line><line transform="translate(296,-375)" x2="0" y2="375" style="fill: none; stroke: #ddd; stroke-width: 1; opacity: 1;"></line><line transform="translate(317,-375)" x2="0" y2="375" style="fill: none; stroke: #ddd; stroke-width: 1; opacity: 1;"></line><line transform="translate(338,-375)" x2="0" y2="375" style="fill: none; stroke: #ddd; stroke-width: 1; opacity: 1;"></line><line transform="translate(359,-375)" x2="0" y2="375" style="fill: none; stroke: #ddd; stroke-width: 1; opacity: 1;"></line><line transform="translate(380,-375)" x2="0" y2="375" style="fill: none; stroke: #ddd; stroke-width: 1; opacity: 1;"></line><line transform="translate(401,-375)" x2="0" y2="375" style="fill: none; stroke: #ddd; stroke-width: 1; opacity: 1;"></line><line transform="translate(412,-375)" x2="0" y2="375" style="fill: none; stroke: #ddd; stroke-width: 1; opacity: 1;"></line><line transform="translate(433,-375)" x2="0" y2="375" style="fill: none; stroke: #ddd; stroke-width: 1; opacity: 1;"></line><line transform="translate(454,-375)" x2="0" y2="375" style="fill: none; stroke: #ddd; stroke-width: 1; opacity: 1;"></line><line transform="translate(475,-375)" x2="0" y2="375" style="fill: none; stroke: #ddd; stroke-width: 1; opacity: 1;"></line><line transform="translate(496,-375)" x2="0" y2="375" style="fill: none; stroke: #ddd; stroke-width: 1; opacity: 1;"></line><line transform="translate(518,-375)" x2="0" y2="375" style="fill: none; stroke: #ddd; stroke-width: 1; opacity: 1;"></line><line transform="translate(539,-375)" x2="0" y2="375" style="fill: none; stroke: #ddd; stroke-width: 1; opacity: 1;"></line><line transform="translate(560,-375)" x2="0" y2="375" style="fill: none; stroke: #ddd; stroke-width: 1; opacity: 1;"></line><line transform="translate(581,-375)" x2="0" y2="375" style="fill: none; stroke: #ddd; stroke-width: 1; opacity: 1;"></line><line transform="translate(602,-375)" x2="0" y2="375" style="fill: none; stroke: #ddd; stroke-width: 1; opacity: 1;"></line><line transform="translate(623,-375)" x2="0" y2="375" style="fill: none; stroke: #ddd; stroke-width: 1; opacity: 1;"></line><line transform="translate(644,-375)" x2="0" y2="375" style="fill: none; stroke: #ddd; stroke-width: 1; opacity: 1;"></line><line transform="translate(665,-375)" x2="0" y2="375" style="fill: none; stroke: #ddd; stroke-width: 1; opacity: 1;"></line><line transform="translate(687,-375)" x2="0" y2="375" style="fill: none; stroke: #ddd; stroke-width: 1; opacity: 1;"></line><line transform="translate(708,-375)" x2="0" y2="375" style="fill: none; stroke: #ddd; stroke-width: 1; opacity: 1;"></line><line transform="translate(728,-375)" x2="0" y2="375" style="fill: none; stroke: #ddd; stroke-width: 1; opacity: 1;"></line><line transform="translate(739,-375)" x2="0" y2="375" style="fill: none; stroke: #ddd; stroke-width: 1; opacity: 1;"></line></g></g><path class="foreground" d="" style="pointer-events: none; display: none; fill: none;"></path></g></g><g class="mark-group role-axis"><g transform="translate(0.5,0.5)"><path class="background" d="M0,0h0v0h0Z" style="pointer-events: none; fill: none;"></path><g><g class="mark-rule role-axis-grid" style="pointer-events: none;"><line transform="translate(0,375)" x2="750" y2="0" style="fill: none; stroke: #ddd; stroke-width: 1; opacity: 1;"></line><line transform="translate(0,333)" x2="750" y2="0" style="fill: none; stroke: #ddd; stroke-width: 1; opacity: 1;"></line><line transform="translate(0,292)" x2="750" y2="0" style="fill: none; stroke: #ddd; stroke-width: 1; opacity: 1;"></line><line transform="translate(0,250)" x2="750" y2="0" style="fill: none; stroke: #ddd; stroke-width: 1; opacity: 1;"></line><line transform="translate(0,208)" x2="750" y2="0" style="fill: none; stroke: #ddd; stroke-width: 1; opacity: 1;"></line><line transform="translate(0,167)" x2="750" y2="0" style="fill: none; stroke: #ddd; stroke-width: 1; opacity: 1;"></line><line transform="translate(0,125)" x2="750" y2="0" style="fill: none; stroke: #ddd; stroke-width: 1; opacity: 1;"></line><line transform="translate(0,83)" x2="750" y2="0" style="fill: none; stroke: #ddd; stroke-width: 1; opacity: 1;"></line><line transform="translate(0,42)" x2="750" y2="0" style="fill: none; stroke: #ddd; stroke-width: 1; opacity: 1;"></line><line transform="translate(0,0)" x2="750" y2="0" style="fill: none; stroke: #ddd; stroke-width: 1; opacity: 1;"></line></g></g><path class="foreground" d="" style="pointer-events: none; display: none; fill: none;"></path></g></g><g class="mark-group role-axis"><g transform="translate(0.5,375.5)"><path class="background" d="M0,0h0v0h0Z" style="pointer-events: none; fill: none;"></path><g><g class="mark-rule role-axis-tick" style="pointer-events: none;"><line transform="translate(11,0)" x2="0" y2="5" style="fill: none; stroke: #888; stroke-width: 1; opacity: 1;"></line><line transform="translate(32,0)" x2="0" y2="5" style="fill: none; stroke: #888; stroke-width: 1; opacity: 1;"></line><line transform="translate(53,0)" x2="0" y2="5" style="fill: none; stroke: #888; stroke-width: 1; opacity: 1;"></line><line transform="translate(74,0)" x2="0" y2="5" style="fill: none; stroke: #888; stroke-width: 1; opacity: 1;"></line><line transform="translate(95,0)" x2="0" y2="5" style="fill: none; stroke: #888; stroke-width: 1; opacity: 1;"></line><line transform="translate(106,0)" x2="0" y2="5" style="fill: none; stroke: #888; stroke-width: 1; opacity: 1;"></line><line transform="translate(127,0)" x2="0" y2="5" style="fill: none; stroke: #888; stroke-width: 1; opacity: 1;"></line><line transform="translate(148,0)" x2="0" y2="5" style="fill: none; stroke: #888; stroke-width: 1; opacity: 1;"></line><line transform="translate(169,0)" x2="0" y2="5" style="fill: none; stroke: #888; stroke-width: 1; opacity: 1;"></line><line transform="translate(190,0)" x2="0" y2="5" style="fill: none; stroke: #888; stroke-width: 1; opacity: 1;"></line><line transform="translate(211,0)" x2="0" y2="5" style="fill: none; stroke: #888; stroke-width: 1; opacity: 1;"></line><line transform="translate(232,0)" x2="0" y2="5" style="fill: none; stroke: #888; stroke-width: 1; opacity: 1;"></line><line transform="translate(254,0)" x2="0" y2="5" style="fill: none; stroke: #888; stroke-width: 1; opacity: 1;"></line><line transform="translate(275,0)" x2="0" y2="5" style="fill: none; stroke: #888; stroke-width: 1; opacity: 1;"></line><line transform="translate(296,0)" x2="0" y2="5" style="fill: none; stroke: #888; stroke-width: 1; opacity: 1;"></line><line transform="translate(317,0)" x2="0" y2="5" style="fill: none; stroke: #888; stroke-width: 1; opacity: 1;"></line><line transform="translate(338,0)" x2="0" y2="5" style="fill: none; stroke: #888; stroke-width: 1; opacity: 1;"></line><line transform="translate(359,0)" x2="0" y2="5" style="fill: none; stroke: #888; stroke-width: 1; opacity: 1;"></line><line transform="translate(380,0)" x2="0" y2="5" style="fill: none; stroke: #888; stroke-width: 1; opacity: 1;"></line><line transform="translate(401,0)" x2="0" y2="5" style="fill: none; stroke: #888; stroke-width: 1; opacity: 1;"></line><line transform="translate(412,0)" x2="0" y2="5" style="fill: none; stroke: #888; stroke-width: 1; opacity: 1;"></line><line transform="translate(433,0)" x2="0" y2="5" style="fill: none; stroke: #888; stroke-width: 1; opacity: 1;"></line><line transform="translate(454,0)" x2="0" y2="5" style="fill: none; stroke: #888; stroke-width: 1; opacity: 1;"></line><line transform="translate(475,0)" x2="0" y2="5" style="fill: none; stroke: #888; stroke-width: 1; opacity: 1;"></line><line transform="translate(496,0)" x2="0" y2="5" style="fill: none; stroke: #888; stroke-width: 1; opacity: 1;"></line><line transform="translate(518,0)" x2="0" y2="5" style="fill: none; stroke: #888; stroke-width: 1; opacity: 1;"></line><line transform="translate(539,0)" x2="0" y2="5" style="fill: none; stroke: #888; stroke-width: 1; opacity: 1;"></line><line transform="translate(560,0)" x2="0" y2="5" style="fill: none; stroke: #888; stroke-width: 1; opacity: 1;"></line><line transform="translate(581,0)" x2="0" y2="5" style="fill: none; stroke: #888; stroke-width: 1; opacity: 1;"></line><line transform="translate(602,0)" x2="0" y2="5" style="fill: none; stroke: #888; stroke-width: 1; opacity: 1;"></line><line transform="translate(623,0)" x2="0" y2="5" style="fill: none; stroke: #888; stroke-width: 1; opacity: 1;"></line><line transform="translate(644,0)" x2="0" y2="5" style="fill: none; stroke: #888; stroke-width: 1; opacity: 1;"></line><line transform="translate(665,0)" x2="0" y2="5" style="fill: none; stroke: #888; stroke-width: 1; opacity: 1;"></line><line transform="translate(687,0)" x2="0" y2="5" style="fill: none; stroke: #888; stroke-width: 1; opacity: 1;"></line><line transform="translate(708,0)" x2="0" y2="5" style="fill: none; stroke: #888; stroke-width: 1; opacity: 1;"></line><line transform="translate(728,0)" x2="0" y2="5" style="fill: none; stroke: #888; stroke-width: 1; opacity: 1;"></line><line transform="translate(739,0)" x2="0" y2="5" style="fill: none; stroke: #888; stroke-width: 1; opacity: 1;"></line></g><g class="mark-text role-axis-label" style="pointer-events: none;"><text text-anchor="middle" transform="translate(10.563380281690142,15)" style="font-family: sans-serif; font-size: 10px; fill: #000; opacity: 1;">Thu 23</text><text text-anchor="middle" transform="translate(31.69014084507042,15)" style="font-family: sans-serif; font-size: 10px; fill: #000; opacity: 0;">Sat 25</text><text text-anchor="middle" transform="translate(52.816901408450704,15)" style="font-family: sans-serif; font-size: 10px; fill: #000; opacity: 1;">Mon 27</text><text text-anchor="middle" transform="translate(73.94366197183098,15)" style="font-family: sans-serif; font-size: 10px; fill: #000; opacity: 0;">Wed 29</text><text text-anchor="middle" transform="translate(95.07042253521126,15)" style="font-family: sans-serif; font-size: 10px; fill: #000; opacity: 1;">Fri 31</text><text text-anchor="middle" transform="translate(105.63380281690141,15)" style="font-family: sans-serif; font-size: 10px; fill: #000; opacity: 0;">February</text><text text-anchor="middle" transform="translate(126.76056338028168,15)" style="font-family: sans-serif; font-size: 10px; fill: #000; opacity: 1;">Mon 03</text><text text-anchor="middle" transform="translate(147.88732394366195,15)" style="font-family: sans-serif; font-size: 10px; fill: #000; opacity: 0;">Wed 05</text><text text-anchor="middle" transform="translate(169.01408450704227,15)" style="font-family: sans-serif; font-size: 10px; fill: #000; opacity: 1;">Fri 07</text><text text-anchor="middle" transform="translate(190.14084507042253,15)" style="font-family: sans-serif; font-size: 10px; fill: #000; opacity: 0;">Feb 09</text><text text-anchor="middle" transform="translate(211.26760563380282,15)" style="font-family: sans-serif; font-size: 10px; fill: #000; opacity: 1;">Tue 11</text><text text-anchor="middle" transform="translate(232.39436619718307,15)" style="font-family: sans-serif; font-size: 10px; fill: #000; opacity: 0;">Thu 13</text><text text-anchor="middle" transform="translate(253.52112676056336,15)" style="font-family: sans-serif; font-size: 10px; fill: #000; opacity: 1;">Sat 15</text><text text-anchor="middle" transform="translate(274.6478873239437,15)" style="font-family: sans-serif; font-size: 10px; fill: #000; opacity: 0;">Mon 17</text><text text-anchor="middle" transform="translate(295.7746478873239,15)" style="font-family: sans-serif; font-size: 10px; fill: #000; opacity: 1;">Wed 19</text><text text-anchor="middle" transform="translate(316.9014084507042,15)" style="font-family: sans-serif; font-size: 10px; fill: #000; opacity: 0;">Fri 21</text><text text-anchor="middle" transform="translate(338.02816901408454,15)" style="font-family: sans-serif; font-size: 10px; fill: #000; opacity: 1;">Feb 23</text><text text-anchor="middle" transform="translate(359.15492957746477,15)" style="font-family: sans-serif; font-size: 10px; fill: #000; opacity: 0;">Tue 25</text><text text-anchor="middle" transform="translate(380.28169014084506,15)" style="font-family: sans-serif; font-size: 10px; fill: #000; opacity: 1;">Thu 27</text><text text-anchor="middle" transform="translate(401.40845070422534,15)" style="font-family: sans-serif; font-size: 10px; fill: #000; opacity: 0;">Sat 29</text><text text-anchor="middle" transform="translate(411.9718309859155,15)" style="font-family: sans-serif; font-size: 10px; fill: #000; opacity: 1;">March</text><text text-anchor="middle" transform="translate(433.0985915492958,15)" style="font-family: sans-serif; font-size: 10px; fill: #000; opacity: 0;">Tue 03</text><text text-anchor="middle" transform="translate(454.22535211267603,15)" style="font-family: sans-serif; font-size: 10px; fill: #000; opacity: 1;">Thu 05</text><text text-anchor="middle" transform="translate(475.3521126760564,15)" style="font-family: sans-serif; font-size: 10px; fill: #000; opacity: 0;">Sat 07</text><text text-anchor="middle" transform="translate(496.4788732394366,15)" style="font-family: sans-serif; font-size: 10px; fill: #000; opacity: 1;">Mon 09</text><text text-anchor="middle" transform="translate(517.6056338028169,15)" style="font-family: sans-serif; font-size: 10px; fill: #000; opacity: 0;">Wed 11</text><text text-anchor="middle" transform="translate(538.7323943661972,15)" style="font-family: sans-serif; font-size: 10px; fill: #000; opacity: 1;">Fri 13</text><text text-anchor="middle" transform="translate(559.8591549295775,15)" style="font-family: sans-serif; font-size: 10px; fill: #000; opacity: 0;">Mar 15</text><text text-anchor="middle" transform="translate(580.9859154929577,15)" style="font-family: sans-serif; font-size: 10px; fill: #000; opacity: 1;">Tue 17</text><text text-anchor="middle" transform="translate(602.112676056338,15)" style="font-family: sans-serif; font-size: 10px; fill: #000; opacity: 0;">Thu 19</text><text text-anchor="middle" transform="translate(623.2394366197183,15)" style="font-family: sans-serif; font-size: 10px; fill: #000; opacity: 1;">Sat 21</text><text text-anchor="middle" transform="translate(644.3661971830986,15)" style="font-family: sans-serif; font-size: 10px; fill: #000; opacity: 0;">Mon 23</text><text text-anchor="middle" transform="translate(665.4929577464789,15)" style="font-family: sans-serif; font-size: 10px; fill: #000; opacity: 1;">Wed 25</text><text text-anchor="middle" transform="translate(686.6197183098592,15)" style="font-family: sans-serif; font-size: 10px; fill: #000; opacity: 0;">Fri 27</text><text text-anchor="middle" transform="translate(707.7464788732394,15)" style="font-family: sans-serif; font-size: 10px; fill: #000; opacity: 1;">Mar 29</text><text text-anchor="middle" transform="translate(728.4330985915493,15)" style="font-family: sans-serif; font-size: 10px; fill: #000; opacity: 0;">Tue 31</text><text text-anchor="middle" transform="translate(738.9964788732394,15)" style="font-family: sans-serif; font-size: 10px; fill: #000; opacity: 1;">April</text></g><g class="mark-rule role-axis-domain" style="pointer-events: none;"><line transform="translate(0,0)" x2="750" y2="0" style="fill: none; stroke: #888; stroke-width: 1; opacity: 1;"></line></g><g class="mark-text role-axis-title" style="pointer-events: none;"><text text-anchor="middle" transform="translate(375,30)" style="font-family: sans-serif; font-size: 11px; font-weight: bold; fill: #000; opacity: 1;">Date</text></g></g><path class="foreground" d="" style="pointer-events: none; display: none; fill: none;"></path></g></g><g class="mark-group role-axis"><g transform="translate(0.5,0.5)"><path class="background" d="M0,0h0v0h0Z" style="pointer-events: none; fill: none;"></path><g><g class="mark-rule role-axis-tick" style="pointer-events: none;"><line transform="translate(0,375)" x2="-5" y2="0" style="fill: none; stroke: #888; stroke-width: 1; opacity: 1;"></line><line transform="translate(0,333)" x2="-5" y2="0" style="fill: none; stroke: #888; stroke-width: 1; opacity: 1;"></line><line transform="translate(0,292)" x2="-5" y2="0" style="fill: none; stroke: #888; stroke-width: 1; opacity: 1;"></line><line transform="translate(0,250)" x2="-5" y2="0" style="fill: none; stroke: #888; stroke-width: 1; opacity: 1;"></line><line transform="translate(0,208)" x2="-5" y2="0" style="fill: none; stroke: #888; stroke-width: 1; opacity: 1;"></line><line transform="translate(0,167)" x2="-5" y2="0" style="fill: none; stroke: #888; stroke-width: 1; opacity: 1;"></line><line transform="translate(0,125)" x2="-5" y2="0" style="fill: none; stroke: #888; stroke-width: 1; opacity: 1;"></line><line transform="translate(0,83)" x2="-5" y2="0" style="fill: none; stroke: #888; stroke-width: 1; opacity: 1;"></line><line transform="translate(0,42)" x2="-5" y2="0" style="fill: none; stroke: #888; stroke-width: 1; opacity: 1;"></line><line transform="translate(0,0)" x2="-5" y2="0" style="fill: none; stroke: #888; stroke-width: 1; opacity: 1;"></line></g><g class="mark-text role-axis-label" style="pointer-events: none;"><text text-anchor="end" transform="translate(-7,378)" style="font-family: sans-serif; font-size: 10px; fill: #000; opacity: 1;">0</text><text text-anchor="end" transform="translate(-7,336.3333333333333)" style="font-family: sans-serif; font-size: 10px; fill: #000; opacity: 1;">1</text><text text-anchor="end" transform="translate(-7,294.6666666666667)" style="font-family: sans-serif; font-size: 10px; fill: #000; opacity: 1;">2</text><text text-anchor="end" transform="translate(-7,253.00000000000003)" style="font-family: sans-serif; font-size: 10px; fill: #000; opacity: 1;">3</text><text text-anchor="end" transform="translate(-7,211.33333333333334)" style="font-family: sans-serif; font-size: 10px; fill: #000; opacity: 1;">4</text><text text-anchor="end" transform="translate(-7,169.66666666666666)" style="font-family: sans-serif; font-size: 10px; fill: #000; opacity: 1;">5</text><text text-anchor="end" transform="translate(-7,128)" style="font-family: sans-serif; font-size: 10px; fill: #000; opacity: 1;">6</text><text text-anchor="end" transform="translate(-7,86.33333333333333)" style="font-family: sans-serif; font-size: 10px; fill: #000; opacity: 1;">7</text><text text-anchor="end" transform="translate(-7,44.666666666666686)" style="font-family: sans-serif; font-size: 10px; fill: #000; opacity: 1;">8</text><text text-anchor="end" transform="translate(-7,3)" style="font-family: sans-serif; font-size: 10px; fill: #000; opacity: 1;">9</text></g><g class="mark-rule role-axis-domain" style="pointer-events: none;"><line transform="translate(0,375)" x2="0" y2="-375" style="fill: none; stroke: #888; stroke-width: 1; opacity: 1;"></line></g><g class="mark-text role-axis-title" style="pointer-events: none;"><text text-anchor="middle" transform="translate(-16.5615234375,187.5) rotate(-90) translate(0,-2)" style="font-family: sans-serif; font-size: 11px; font-weight: bold; fill: #000; opacity: 1;">LogDeaths</text></g></g><path class="foreground" d="" style="pointer-events: none; display: none; fill: none;"></path></g></g><g class="mark-line role-mark marks"><path d="M401.40845070422534,375L411.9718309859155,375L422.53521126760563,300.34335544883106L433.0985915492958,293.9204104560286L443.6619718309859,275.08769696673454L454.22535211267603,271.4622229255L464.78873239436615,265.0392779326976L475.3521126760564,256.9494439976577L485.9154929577465,248.14489842819074L496.4788732394366,246.20656444340347L507.0422535211267,236.1581454093665L517.6056338028169,224.5450869731573L528.169014084507,221.29668941191935L538.7323943661972,214.5771832620809L549.2957746478874,208.7923313931552L559.8591549295775,202.36938640035282L570.4225352112676,189.88953097957014L580.9859154929577,179.91119886982415L591.5492957746478,176.2214739805973L602.112676056338,154.2367763938318L612.6760563380282,145.95132394611656L623.2394366197183,136.38134385053348L633.8028169014084,123.62140742504992L644.3661971830986,111.9354980717877L654.9295774647887,101.6826984377816L665.4929577464789,89.66644689265154L676.0563380281691,79.26879789105031L686.6197183098592,68.09113178293863L697.1830985915493,57.75755479964047L707.7464788732394,49.55174514461015L718.3098591549295,41.70803278150187L728.8732394366198,30.75897168688531L739.4366197183099,19.16132655421943L750,13.037302994437075" style="fill: none; stroke: red; stroke-width: 2;"></path></g><g class="mark-group role-title"><g transform="translate(375,-22)"><path class="background" d="M0,0h0v0h0Z" style="pointer-events: none; fill: none;"></path><g><g class="mark-text role-title-text" style="pointer-events: none;"><text text-anchor="middle" transform="translate(0,10)" style="font-family: sans-serif; font-size: 13px; font-weight: bold; fill: #000; opacity: 1;">Covid-19 LogDeaths in us</text></g></g><path class="foreground" d="" style="pointer-events: none; display: none; fill: none;"></path></g></g></g><path class="foreground" d="" style="display: none; fill: none;"></path></g></g></g></svg>