<svg class="marks" width="821" height="439" viewBox="0 0 821 439" version="1.1" xmlns="http://www.w3.org/2000/svg" xmlns:xlink="http://www.w3.org/1999/xlink"><rect width="821" height="439" style="fill: white;"></rect><g transform="translate(64,27)"><g class="mark-group role-frame root"><g transform="translate(0,0)"><path class="background" d="M0.5,0.5h750v375h-750Z" style="fill: none; stroke: #ddd;"></path><g><g class="mark-group role-axis"><g transform="translate(0.5,375.5)"><path class="background" d="M0,0h0v0h0Z" style="pointer-events: none; fill: none;"></path><g><g class="mark-rule role-axis-grid" style="pointer-events: none;"><line transform="translate(31,-375)" x2="0" y2="375" style="fill: none; stroke: #ddd; stroke-width: 1; opacity: 1;"></line><line transform="translate(103,-375)" x2="0" y2="375" style="fill: none; stroke: #ddd; stroke-width: 1; opacity: 1;"></line><line transform="translate(175,-375)" x2="0" y2="375" style="fill: none; stroke: #ddd; stroke-width: 1; opacity: 1;"></line><line transform="translate(247,-375)" x2="0" y2="375" style="fill: none; stroke: #ddd; stroke-width: 1; opacity: 1;"></line><line transform="translate(318,-375)" x2="0" y2="375" style="fill: none; stroke: #ddd; stroke-width: 1; opacity: 1;"></line><line transform="translate(390,-375)" x2="0" y2="375" style="fill: none; stroke: #ddd; stroke-width: 1; opacity: 1;"></line><line transform="translate(462,-375)" x2="0" y2="375" style="fill: none; stroke: #ddd; stroke-width: 1; opacity: 1;"></line><line transform="translate(534,-375)" x2="0" y2="375" style="fill: none; stroke: #ddd; stroke-width: 1; opacity: 1;"></line><line transform="translate(606,-375)" x2="0" y2="375" style="fill: none; stroke: #ddd; stroke-width: 1; opacity: 1;"></line><line transform="translate(678,-375)" x2="0" y2="375" style="fill: none; stroke: #ddd; stroke-width: 1; opacity: 1;"></line><line transform="translate(750,-375)" x2="0" y2="375" style="fill: none; stroke: #ddd; stroke-width: 1; opacity: 1;"></line></g></g><path class="foreground" d="" style="pointer-events: none; display: none; fill: none;"></path></g></g><g class="mark-group role-axis"><g transform="translate(0.5,0.5)"><path class="background" d="M0,0h0v0h0Z" style="pointer-events: none; fill: none;"></path><g><g class="mark-rule role-axis-grid" style="pointer-events: none;"><line transform="translate(0,375)" x2="750" y2="0" style="fill: none; stroke: #ddd; stroke-width: 1; opacity: 1;"></line><line transform="translate(0,321)" x2="750" y2="0" style="fill: none; stroke: #ddd; stroke-width: 1; opacity: 1;"></line><line transform="translate(0,268)" x2="750" y2="0" style="fill: none; stroke: #ddd; stroke-width: 1; opacity: 1;"></line><line transform="translate(0,214)" x2="750" y2="0" style="fill: none; stroke: #ddd; stroke-width: 1; opacity: 1;"></line><line transform="translate(0,161)" x2="750" y2="0" style="fill: none; stroke: #ddd; stroke-width: 1; opacity: 1;"></line><line transform="translate(0,107)" x2="750" y2="0" style="fill: none; stroke: #ddd; stroke-width: 1; opacity: 1;"></line><line transform="translate(0,54)" x2="750" y2="0" style="fill: none; stroke: #ddd; stroke-width: 1; opacity: 1;"></line><line transform="translate(0,0)" x2="750" y2="0" style="fill: none; stroke: #ddd; stroke-width: 1; opacity: 1;"></line></g></g><path class="foreground" d="" style="pointer-events: none; display: none; fill: none;"></path></g></g><g class="mark-group role-axis"><g transform="translate(0.5,375.5)"><path class="background" d="M0,0h0v0h0Z" style="pointer-events: none; fill: none;"></path><g><g class="mark-rule role-axis-tick" style="pointer-events: none;"><line transform="translate(31,0)" x2="0" y2="5" style="fill: none; stroke: #888; stroke-width: 1; opacity: 1;"></line><line transform="translate(103,0)" x2="0" y2="5" style="fill: none; stroke: #888; stroke-width: 1; opacity: 1;"></line><line transform="translate(175,0)" x2="0" y2="5" style="fill: none; stroke: #888; stroke-width: 1; opacity: 1;"></line><line transform="translate(247,0)" x2="0" y2="5" style="fill: none; stroke: #888; stroke-width: 1; opacity: 1;"></line><line transform="translate(318,0)" x2="0" y2="5" style="fill: none; stroke: #888; stroke-width: 1; opacity: 1;"></line><line transform="translate(390,0)" x2="0" y2="5" style="fill: none; stroke: #888; stroke-width: 1; opacity: 1;"></line><line transform="translate(462,0)" x2="0" y2="5" style="fill: none; stroke: #888; stroke-width: 1; opacity: 1;"></line><line transform="translate(534,0)" x2="0" y2="5" style="fill: none; stroke: #888; stroke-width: 1; opacity: 1;"></line><line transform="translate(606,0)" x2="0" y2="5" style="fill: none; stroke: #888; stroke-width: 1; opacity: 1;"></line><line transform="translate(678,0)" x2="0" y2="5" style="fill: none; stroke: #888; stroke-width: 1; opacity: 1;"></line><line transform="translate(750,0)" x2="0" y2="5" style="fill: none; stroke: #888; stroke-width: 1; opacity: 1;"></line></g><g class="mark-text role-axis-label" style="pointer-events: none;"><text text-anchor="middle" transform="translate(30.821917808219176,15)" style="font-family: sans-serif; font-size: 10px; fill: #000; opacity: 1;">Jan 26</text><text text-anchor="middle" transform="translate(102.73972602739725,15)" style="font-family: sans-serif; font-size: 10px; fill: #000; opacity: 1;">Feb 02</text><text text-anchor="middle" transform="translate(174.65753424657532,15)" style="font-family: sans-serif; font-size: 10px; fill: #000; opacity: 1;">Feb 09</text><text text-anchor="middle" transform="translate(246.5753424657534,15)" style="font-family: sans-serif; font-size: 10px; fill: #000; opacity: 1;">Feb 16</text><text text-anchor="middle" transform="translate(318.4931506849315,15)" style="font-family: sans-serif; font-size: 10px; fill: #000; opacity: 1;">Feb 23</text><text text-anchor="middle" transform="translate(390.4109589041096,15)" style="font-family: sans-serif; font-size: 10px; fill: #000; opacity: 1;">March</text><text text-anchor="middle" transform="translate(462.32876712328766,15)" style="font-family: sans-serif; font-size: 10px; fill: #000; opacity: 1;">Mar 08</text><text text-anchor="middle" transform="translate(534.2465753424657,15)" style="font-family: sans-serif; font-size: 10px; fill: #000; opacity: 1;">Mar 15</text><text text-anchor="middle" transform="translate(606.1643835616438,15)" style="font-family: sans-serif; font-size: 10px; fill: #000; opacity: 1;">Mar 22</text><text text-anchor="middle" transform="translate(678.0821917808219,15)" style="font-family: sans-serif; font-size: 10px; fill: #000; opacity: 1;">Mar 29</text><text text-anchor="end" transform="translate(749.5719178082192,15)" style="font-family: sans-serif; font-size: 10px; fill: #000; opacity: 1;">Apr 05</text></g><g class="mark-rule role-axis-domain" style="pointer-events: none;"><line transform="translate(0,0)" x2="750" y2="0" style="fill: none; stroke: #888; stroke-width: 1; opacity: 1;"></line></g><g class="mark-text role-axis-title" style="pointer-events: none;"><text text-anchor="middle" transform="translate(375,30)" style="font-family: sans-serif; font-size: 11px; font-weight: bold; fill: #000; opacity: 1;">Date</text></g></g><path class="foreground" d="" style="pointer-events: none; display: none; fill: none;"></path></g></g><g class="mark-group role-axis"><g transform="translate(0.5,0.5)"><path class="background" d="M0,0h0v0h0Z" style="pointer-events: none; fill: none;"></path><g><g class="mark-rule role-axis-tick" style="pointer-events: none;"><line transform="translate(0,375)" x2="-5" y2="0" style="fill: none; stroke: #888; stroke-width: 1; opacity: 1;"></line><line transform="translate(0,321)" x2="-5" y2="0" style="fill: none; stroke: #888; stroke-width: 1; opacity: 1;"></line><line transform="translate(0,268)" x2="-5" y2="0" style="fill: none; stroke: #888; stroke-width: 1; opacity: 1;"></line><line transform="translate(0,214)" x2="-5" y2="0" style="fill: none; stroke: #888; stroke-width: 1; opacity: 1;"></line><line transform="translate(0,161)" x2="-5" y2="0" style="fill: none; stroke: #888; stroke-width: 1; opacity: 1;"></line><line transform="translate(0,107)" x2="-5" y2="0" style="fill: none; stroke: #888; stroke-width: 1; opacity: 1;"></line><line transform="translate(0,54)" x2="-5" y2="0" style="fill: none; stroke: #888; stroke-width: 1; opacity: 1;"></line><line transform="translate(0,0)" x2="-5" y2="0" style="fill: none; stroke: #888; stroke-width: 1; opacity: 1;"></line></g><g class="mark-text role-axis-label" style="pointer-events: none;"><text text-anchor="end" transform="translate(-7,378)" style="font-family: sans-serif; font-size: 10px; fill: #000; opacity: 1;">0</text><text text-anchor="end" transform="translate(-7,324.42857142857144)" style="font-family: sans-serif; font-size: 10px; fill: #000; opacity: 1;">50,000</text><text text-anchor="end" transform="translate(-7,270.8571428571429)" style="font-family: sans-serif; font-size: 10px; fill: #000; opacity: 1;">100,000</text><text text-anchor="end" transform="translate(-7,217.28571428571428)" style="font-family: sans-serif; font-size: 10px; fill: #000; opacity: 1;">150,000</text><text text-anchor="end" transform="translate(-7,163.71428571428572)" style="font-family: sans-serif; font-size: 10px; fill: #000; opacity: 1;">200,000</text><text text-anchor="end" transform="translate(-7,110.14285714285714)" style="font-family: sans-serif; font-size: 10px; fill: #000; opacity: 1;">250,000</text><text text-anchor="end" transform="translate(-7,56.57142857142859)" style="font-family: sans-serif; font-size: 10px; fill: #000; opacity: 1;">300,000</text><text text-anchor="end" transform="translate(-7,3)" style="font-family: sans-serif; font-size: 10px; fill: #000; opacity: 1;">350,000</text></g><g class="mark-rule role-axis-domain" style="pointer-events: none;"><line transform="translate(0,375)" x2="0" y2="-375" style="fill: none; stroke: #888; stroke-width: 1; opacity: 1;"></line></g><g class="mark-text role-axis-title" style="pointer-events: none;"><text text-anchor="middle" transform="translate(-47.1474609375,187.5) rotate(-90) translate(0,-2)" style="font-family: sans-serif; font-size: 11px; font-weight: bold; fill: #000; opacity: 1;">Confirmed</text></g></g><path class="foreground" d="" style="pointer-events: none; display: none; fill: none;"></path></g></g><g class="mark-line role-mark marks"><path d="M0,374.99892857142856L10.273972602739725,374.99785714285713L20.54794520547945,374.99785714285713L30.821917808219176,374.9946428571428L41.0958904109589,374.9946428571428L51.36986301369863,374.9946428571428L61.64383561643835,374.9946428571428L71.91780821917808,374.9946428571428L82.1917808219178,374.9925L92.46575342465754,374.99142857142857L102.73972602739725,374.99142857142857L113.01369863013699,374.98821428571426L123.2876712328767,374.98821428571426L133.56164383561642,374.98821428571426L143.83561643835617,374.98821428571426L154.1095890410959,374.98821428571426L164.3835616438356,374.98821428571426L174.65753424657532,374.98821428571426L184.93150684931507,374.98821428571426L195.2054794520548,374.9871428571428L205.4794520547945,374.9871428571428L215.75342465753423,374.98607142857145L226.02739726027397,374.98607142857145L236.3013698630137,374.98607142857145L246.5753424657534,374.98607142857145L256.8493150684931,374.98607142857145L267.12328767123284,374.98607142857145L277.39726027397256,374.98607142857145L287.67123287671234,374.98607142857145L297.94520547945206,374.9839285714286L308.2191780821918,374.9839285714286L318.4931506849315,374.9839285714286L328.7671232876712,374.9839285714286L339.04109589041093,374.9839285714286L349.31506849315065,374.9839285714286L359.58904109589037,374.98285714285714L369.86301369863014,374.98285714285714L380.13698630136986,374.9742857142857L390.4109589041096,374.96785714285716L400.68493150684935,374.9432142857143L410.958904109589,374.9217857142857L421.2328767123288,374.8885714285714L431.50684931506845,374.8157142857143L441.7808219178082,374.76750000000004L452.05479452054794,374.64L462.32876712328766,374.5178571428571L472.6027397260274,374.44928571428574L482.87671232876716,374.24142857142857L493.1506849315068,373.81607142857143L503.4246575342466,373.3317857142857L513.6986301369863,372.69964285714286L523.9726027397261,371.93892857142856L534.2465753424657,371.87357142857144L544.5205479452055,370.3853571428572L554.7945205479451,368.4685714285714L565.068493150685,365.49321428571426L575.3424657534247,359.9742857142857L585.6164383561644,354.39642857142854L595.8904109589041,347.5425L606.1643835616438,338.97749999999996L616.4383561643835,328.2182142857143L626.7123287671233,317.4257142857143L636.986301369863,304.5235714285715L647.2602739726027,285.1757142857143L657.5342465753424,266.08178571428573L667.8082191780821,244.84499999999997L678.0821917808219,224.0507142857143L688.3561643835617,201.63535714285712L698.6301369863013,173.38714285714286L708.9041095890411,146.39785714285713L719.1780821917807,114.15750000000001L729.4520547945206,79.73357142857142L750,13.858928571428592" style="fill: none; stroke: orange; stroke-width: 2;"></path></g><g class="mark-group role-title"><g transform="translate(375,-22)"><path class="background" d="M0,0h0v0h0Z" style="pointer-events: none; fill: none;"></path><g><g class="mark-text role-title-text" style="pointer-events: none;"><text text-anchor="middle" transform="translate(0,10)" style="font-family: sans-serif; font-size: 13px; font-weight: bold; fill: #000; opacity: 1;">Covid-19 Confirmed in us</text></g></g><path class="foreground" d="" style="pointer-events: none; display: none; fill: none;"></path></g></g></g><path class="foreground" d="" style="display: none; fill: none;"></path></g></g></g></svg>