<svg class="marks" width="921" height="439" viewBox="0 0 921 439" version="1.1" xmlns="http://www.w3.org/2000/svg" xmlns:xlink="http://www.w3.org/1999/xlink"><rect width="921" height="439" style="fill: white;"></rect><g transform="translate(58,27)"><g class="mark-group role-frame root"><g transform="translate(0,0)"><path class="background" d="M0.5,0.5h750v375h-750Z" style="fill: none; stroke: #ddd;"></path><g><g class="mark-group role-axis"><g transform="translate(0.5,375.5)"><path class="background" d="M0,0h0v0h0Z" style="pointer-events: none; fill: none;"></path><g><g class="mark-rule role-axis-grid" style="pointer-events: none;"><line transform="translate(40,-375)" x2="0" y2="375" style="fill: none; stroke: #ddd; stroke-width: 1; opacity: 1;"></line><line transform="translate(110,-375)" x2="0" y2="375" style="fill: none; stroke: #ddd; stroke-width: 1; opacity: 1;"></line><line transform="translate(180,-375)" x2="0" y2="375" style="fill: none; stroke: #ddd; stroke-width: 1; opacity: 1;"></line><line transform="translate(250,-375)" x2="0" y2="375" style="fill: none; stroke: #ddd; stroke-width: 1; opacity: 1;"></line><line transform="translate(320,-375)" x2="0" y2="375" style="fill: none; stroke: #ddd; stroke-width: 1; opacity: 1;"></line><line transform="translate(390,-375)" x2="0" y2="375" style="fill: none; stroke: #ddd; stroke-width: 1; opacity: 1;"></line><line transform="translate(460,-375)" x2="0" y2="375" style="fill: none; stroke: #ddd; stroke-width: 1; opacity: 1;"></line><line transform="translate(530,-375)" x2="0" y2="375" style="fill: none; stroke: #ddd; stroke-width: 1; opacity: 1;"></line><line transform="translate(600,-375)" x2="0" y2="375" style="fill: none; stroke: #ddd; stroke-width: 1; opacity: 1;"></line><line transform="translate(670,-375)" x2="0" y2="375" style="fill: none; stroke: #ddd; stroke-width: 1; opacity: 1;"></line><line transform="translate(740,-375)" x2="0" y2="375" style="fill: none; stroke: #ddd; stroke-width: 1; opacity: 1;"></line></g></g><path class="foreground" d="" style="pointer-events: none; display: none; fill: none;"></path></g></g><g class="mark-group role-axis"><g transform="translate(0.5,0.5)"><path class="background" d="M0,0h0v0h0Z" style="pointer-events: none; fill: none;"></path><g><g class="mark-rule role-axis-grid" style="pointer-events: none;"><line transform="translate(0,375)" x2="750" y2="0" style="fill: none; stroke: #ddd; stroke-width: 1; opacity: 1;"></line><line transform="translate(0,333)" x2="750" y2="0" style="fill: none; stroke: #ddd; stroke-width: 1; opacity: 1;"></line><line transform="translate(0,292)" x2="750" y2="0" style="fill: none; stroke: #ddd; stroke-width: 1; opacity: 1;"></line><line transform="translate(0,250)" x2="750" y2="0" style="fill: none; stroke: #ddd; stroke-width: 1; opacity: 1;"></line><line transform="translate(0,208)" x2="750" y2="0" style="fill: none; stroke: #ddd; stroke-width: 1; opacity: 1;"></line><line transform="translate(0,167)" x2="750" y2="0" style="fill: none; stroke: #ddd; stroke-width: 1; opacity: 1;"></line><line transform="translate(0,125)" x2="750" y2="0" style="fill: none; stroke: #ddd; stroke-width: 1; opacity: 1;"></line><line transform="translate(0,83)" x2="750" y2="0" style="fill: none; stroke: #ddd; stroke-width: 1; opacity: 1;"></line><line transform="translate(0,42)" x2="750" y2="0" style="fill: none; stroke: #ddd; stroke-width: 1; opacity: 1;"></line><line transform="translate(0,0)" x2="750" y2="0" style="fill: none; stroke: #ddd; stroke-width: 1; opacity: 1;"></line></g></g><path class="foreground" d="" style="pointer-events: none; display: none; fill: none;"></path></g></g><g class="mark-group role-axis"><g transform="translate(0.5,375.5)"><path class="background" d="M0,0h0v0h0Z" style="pointer-events: none; fill: none;"></path><g><g class="mark-rule role-axis-tick" style="pointer-events: none;"><line transform="translate(40,0)" x2="0" y2="5" style="fill: none; stroke: #888; stroke-width: 1; opacity: 1;"></line><line transform="translate(110,0)" x2="0" y2="5" style="fill: none; stroke: #888; stroke-width: 1; opacity: 1;"></line><line transform="translate(180,0)" x2="0" y2="5" style="fill: none; stroke: #888; stroke-width: 1; opacity: 1;"></line><line transform="translate(250,0)" x2="0" y2="5" style="fill: none; stroke: #888; stroke-width: 1; opacity: 1;"></line><line transform="translate(320,0)" x2="0" y2="5" style="fill: none; stroke: #888; stroke-width: 1; opacity: 1;"></line><line transform="translate(390,0)" x2="0" y2="5" style="fill: none; stroke: #888; stroke-width: 1; opacity: 1;"></line><line transform="translate(460,0)" x2="0" y2="5" style="fill: none; stroke: #888; stroke-width: 1; opacity: 1;"></line><line transform="translate(530,0)" x2="0" y2="5" style="fill: none; stroke: #888; stroke-width: 1; opacity: 1;"></line><line transform="translate(600,0)" x2="0" y2="5" style="fill: none; stroke: #888; stroke-width: 1; opacity: 1;"></line><line transform="translate(670,0)" x2="0" y2="5" style="fill: none; stroke: #888; stroke-width: 1; opacity: 1;"></line><line transform="translate(740,0)" x2="0" y2="5" style="fill: none; stroke: #888; stroke-width: 1; opacity: 1;"></line></g><g class="mark-text role-axis-label" style="pointer-events: none;"><text text-anchor="middle" transform="translate(40.02223457476376,15)" style="font-family: sans-serif; font-size: 10px; fill: #000; opacity: 1;">Jan 26</text><text text-anchor="middle" transform="translate(110.06114508060034,15)" style="font-family: sans-serif; font-size: 10px; fill: #000; opacity: 1;">Feb 02</text><text text-anchor="middle" transform="translate(180.10005558643692,15)" style="font-family: sans-serif; font-size: 10px; fill: #000; opacity: 1;">Feb 09</text><text text-anchor="middle" transform="translate(250.13896609227348,15)" style="font-family: sans-serif; font-size: 10px; fill: #000; opacity: 1;">Feb 16</text><text text-anchor="middle" transform="translate(320.17787659811006,15)" style="font-family: sans-serif; font-size: 10px; fill: #000; opacity: 1;">Feb 23</text><text text-anchor="middle" transform="translate(390.2167871039467,15)" style="font-family: sans-serif; font-size: 10px; fill: #000; opacity: 1;">March</text><text text-anchor="middle" transform="translate(460.2556976097832,15)" style="font-family: sans-serif; font-size: 10px; fill: #000; opacity: 1;">Mar 08</text><text text-anchor="middle" transform="translate(530.2946081156198,15)" style="font-family: sans-serif; font-size: 10px; fill: #000; opacity: 1;">Mar 15</text><text text-anchor="middle" transform="translate(600.3335186214564,15)" style="font-family: sans-serif; font-size: 10px; fill: #000; opacity: 1;">Mar 22</text><text text-anchor="middle" transform="translate(670.372429127293,15)" style="font-family: sans-serif; font-size: 10px; fill: #000; opacity: 1;">Mar 29</text><text text-anchor="middle" transform="translate(739.9944413563092,15)" style="font-family: sans-serif; font-size: 10px; fill: #000; opacity: 1;">Apr 05</text></g><g class="mark-rule role-axis-domain" style="pointer-events: none;"><line transform="translate(0,0)" x2="750" y2="0" style="fill: none; stroke: #888; stroke-width: 1; opacity: 1;"></line></g><g class="mark-text role-axis-title" style="pointer-events: none;"><text text-anchor="middle" transform="translate(375,30)" style="font-family: sans-serif; font-size: 11px; font-weight: bold; fill: #000; opacity: 1;">day</text></g></g><path class="foreground" d="" style="pointer-events: none; display: none; fill: none;"></path></g></g><g class="mark-group role-axis"><g transform="translate(0.5,0.5)"><path class="background" d="M0,0h0v0h0Z" style="pointer-events: none; fill: none;"></path><g><g class="mark-rule role-axis-tick" style="pointer-events: none;"><line transform="translate(0,375)" x2="-5" y2="0" style="fill: none; stroke: #888; stroke-width: 1; opacity: 1;"></line><line transform="translate(0,333)" x2="-5" y2="0" style="fill: none; stroke: #888; stroke-width: 1; opacity: 1;"></line><line transform="translate(0,292)" x2="-5" y2="0" style="fill: none; stroke: #888; stroke-width: 1; opacity: 1;"></line><line transform="translate(0,250)" x2="-5" y2="0" style="fill: none; stroke: #888; stroke-width: 1; opacity: 1;"></line><line transform="translate(0,208)" x2="-5" y2="0" style="fill: none; stroke: #888; stroke-width: 1; opacity: 1;"></line><line transform="translate(0,167)" x2="-5" y2="0" style="fill: none; stroke: #888; stroke-width: 1; opacity: 1;"></line><line transform="translate(0,125)" x2="-5" y2="0" style="fill: none; stroke: #888; stroke-width: 1; opacity: 1;"></line><line transform="translate(0,83)" x2="-5" y2="0" style="fill: none; stroke: #888; stroke-width: 1; opacity: 1;"></line><line transform="translate(0,42)" x2="-5" y2="0" style="fill: none; stroke: #888; stroke-width: 1; opacity: 1;"></line><line transform="translate(0,0)" x2="-5" y2="0" style="fill: none; stroke: #888; stroke-width: 1; opacity: 1;"></line></g><g class="mark-text role-axis-label" style="pointer-events: none;"><text text-anchor="end" transform="translate(-7,378)" style="font-family: sans-serif; font-size: 10px; fill: #000; opacity: 1;">0</text><text text-anchor="end" transform="translate(-7,336.3333333333333)" style="font-family: sans-serif; font-size: 10px; fill: #000; opacity: 1;">2,000</text><text text-anchor="end" transform="translate(-7,294.6666666666667)" style="font-family: sans-serif; font-size: 10px; fill: #000; opacity: 1;">4,000</text><text text-anchor="end" transform="translate(-7,253.00000000000003)" style="font-family: sans-serif; font-size: 10px; fill: #000; opacity: 1;">6,000</text><text text-anchor="end" transform="translate(-7,211.33333333333334)" style="font-family: sans-serif; font-size: 10px; fill: #000; opacity: 1;">8,000</text><text text-anchor="end" transform="translate(-7,169.66666666666666)" style="font-family: sans-serif; font-size: 10px; fill: #000; opacity: 1;">10,000</text><text text-anchor="end" transform="translate(-7,128)" style="font-family: sans-serif; font-size: 10px; fill: #000; opacity: 1;">12,000</text><text text-anchor="end" transform="translate(-7,86.33333333333333)" style="font-family: sans-serif; font-size: 10px; fill: #000; opacity: 1;">14,000</text><text text-anchor="end" transform="translate(-7,44.666666666666686)" style="font-family: sans-serif; font-size: 10px; fill: #000; opacity: 1;">16,000</text><text text-anchor="end" transform="translate(-7,3)" style="font-family: sans-serif; font-size: 10px; fill: #000; opacity: 1;">18,000</text></g><g class="mark-rule role-axis-domain" style="pointer-events: none;"><line transform="translate(0,375)" x2="0" y2="-375" style="fill: none; stroke: #888; stroke-width: 1; opacity: 1;"></line></g><g class="mark-text role-axis-title" style="pointer-events: none;"><text text-anchor="middle" transform="translate(-41.5859375,187.5) rotate(-90) translate(0,-2)" style="font-family: sans-serif; font-size: 11px; font-weight: bold; fill: #000; opacity: 1;">Deaths</text></g></g><path class="foreground" d="" style="pointer-events: none; display: none; fill: none;"></path></g></g><g class="mark-group role-scope pathgroup"><g transform="translate(0,0)"><path class="background" d="M0,0h750v375h-750Z" style="fill: none;"></path><g><g class="mark-line role-mark marks"><path d="M0,374.64583333333337L10.00555864369094,374.625L20.01111728738188,374.4583333333333L30.016675931072815,374.125L40.02223457476376,373.83333333333337L50.0277932184547,373.2916666666667L60.03335186214563,372.2708333333333L70.03891050583658,372.2291666666667L80.04446914952752,371.4375L90.05002779321846,370.5625L100.0555864369094,369.6041666666667L110.06114508060034,367.47916666666663L120.06670372429126,366.1458333333333L130.0722623679822,364.77083333333337L140.07782101167317,363.27083333333337L150.0833796553641,361.8125L160.08893829905503,360.0416666666667L170.09449694274596,358.2291666666667L180.10005558643692,356.1458333333333L190.10561423012783,353.9166666666667L200.1111728738188,351.8333333333333L210.11673151750972,351.7291666666667L220.12229016120068,346.4791666666667L230.1278488048916,343.3125L240.13340744858252,340.3541666666667L250.13896609227348,338.2083333333333L260.1445247359644,336.1666666666667L270.15008337965537,333.2708333333333L280.15564202334633,330.9166666666667L290.16120066703724,328.375L300.1667593107282,328.375L310.1723179544191,324.1041666666667L320.17787659811006,324.0625L330.183435241801,320.9375L340.1889938854919,319.47916666666663L350.1945525291829,318.3958333333333L360.20011117287385,317.7916666666667L370.20566981656475,316.875L380.21122846025565,315.8958333333333L390.2167871039467,315.1666666666667L400.2223457476376,314.2916666666667L410.22790439132854,313.6041666666667L420.23346303501944,312.8541666666667L430.23902167871034,312.1875L440.24458032240136,311.5833333333333L450.25013896609227,311L460.2556976097832,310.41666666666663L470.26125625347413,309.9375L480.26681489716503,309.60416666666663L490.27237354085605,309.1458333333333L500.27793218454696,308.91666666666663L510.2834908282379,308.75L520.2890494719288,308.47916666666663L530.2946081156198,308.2708333333333L540.3001667593107,307.9791666666667L550.3057254030016,307.70833333333337L560.3112840466927,307.4791666666667L570.3168426903835,307.3125L580.3224013340745,307.2291666666667L590.3279599777654,307.1041666666667L600.3335186214564,306.7916666666667L610.3390772651474,306.7916666666667L620.3446359088382,306.6458333333333L630.3501945525292,306.5625L640.3557531962201,306.4375L650.3613118399111,306.3333333333333L660.366870483602,306.2708333333333L670.372429127293,306.16666666666663L679.9610894941634,306.0833333333333L689.9666481378543,306.0625L699.9722067815453,305.91666666666663L709.9777654252363,305.79166666666663L719.9833240689272,305.7083333333333L729.9888827126181,305.625L739.9944413563092,305.5625L750,305.5208333333333" style="fill: none; stroke: #4c78a8; stroke-width: 2;"></path></g></g><path class="foreground" d="" style="display: none; fill: none;"></path></g><g transform="translate(0,0)"><path class="background" d="M0,0h750v375h-750Z" style="fill: none;"></path><g><g class="mark-line role-mark marks"><path d="M0,375L10.00555864369094,375L20.01111728738188,375L30.016675931072815,375L40.02223457476376,375L50.0277932184547,375L60.03335186214563,375L70.03891050583658,375L80.04446914952752,375L90.05002779321846,375L100.0555864369094,375L110.06114508060034,375L120.06670372429126,375L130.0722623679822,375L140.07782101167317,375L150.0833796553641,375L160.08893829905503,375L170.09449694274596,375L180.10005558643692,375L190.10561423012783,375L200.1111728738188,375L210.11673151750972,375L220.12229016120068,375L230.1278488048916,375L240.13340744858252,375L250.13896609227348,375L260.1445247359644,375L270.15008337965537,375L280.15564202334633,375L290.16120066703724,375L300.1667593107282,374.97916666666663L310.1723179544191,374.95833333333337L320.17787659811006,374.9375L330.183435241801,374.8541666666667L340.1889938854919,374.7916666666667L350.1945525291829,374.75L360.20011117287385,374.64583333333337L370.20566981656475,374.5625L380.21122846025565,374.3958333333333L390.2167871039467,374.29166666666663L400.2223457476376,373.91666666666663L410.22790439132854,373.3541666666667L420.23346303501944,372.77083333333337L430.23902167871034,371.9166666666667L440.24458032240136,370.8958333333333L450.25013896609227,370.1458333333333L460.2556976097832,367.375L470.26125625347413,365.3541666666667L480.26681489716503,361.8541666666667L490.27237354085605,357.7708333333333L500.27793218454696,357.7708333333333L510.2834908282379,348.625L520.2890494719288,344.9791666666667L530.2946081156198,337.3125L540.3001667593107,330.04166666666663L550.3057254030016,322.8541666666667L560.3112840466927,312.9583333333333L570.3168426903835,304.0625L580.3224013340745,291L590.3279599777654,274.4791666666667L600.3335186214564,260.9166666666667L610.3390772651474,248.39583333333334L620.3446359088382,232.91666666666669L630.3501945525292,218.68749999999997L640.3557531962201,203.85416666666663L650.3613118399111,184.70833333333331L660.366870483602,166.18750000000003L670.372429127293,150.4375L679.9610894941634,133.52083333333334L689.9666481378543,116.08333333333334L699.9722067815453,100.9375L709.9777654252363,85.10416666666664L719.9833240689272,69.14583333333336L729.9888827126181,54.95833333333333L739.9944413563092,44.02083333333333L750,30.770833333333332" style="fill: none; stroke: #9ecae9; stroke-width: 2;"></path></g></g><path class="foreground" d="" style="display: none; fill: none;"></path></g><g transform="translate(0,0)"><path class="background" d="M0,0h750v375h-750Z" style="fill: none;"></path><g><g class="mark-line role-mark marks"><path d="M0,375L10.00555864369094,375L20.01111728738188,375L30.016675931072815,375L40.02223457476376,375L50.0277932184547,375L60.03335186214563,375L70.03891050583658,375L80.04446914952752,375L90.05002779321846,375L100.0555864369094,375L110.06114508060034,375L120.06670372429126,375L130.0722623679822,375L140.07782101167317,375L150.0833796553641,375L160.08893829905503,375L170.09449694274596,375L180.10005558643692,375L190.10561423012783,375L200.1111728738188,375L210.11673151750972,375L220.12229016120068,375L230.1278488048916,375L240.13340744858252,375L250.13896609227348,375L260.1445247359644,375L270.15008337965537,375L280.15564202334633,375L290.16120066703724,375L300.1667593107282,375L310.1723179544191,375L320.17787659811006,375L330.183435241801,375L340.1889938854919,375L350.1945525291829,375L360.20011117287385,375L370.20566981656475,375L380.21122846025565,375L390.2167871039467,375L400.2223457476376,375L410.22790439132854,374.97916666666663L420.23346303501944,374.95833333333337L430.23902167871034,374.9375L440.24458032240136,374.8958333333333L450.25013896609227,374.7916666666667L460.2556976097832,374.64583333333337L470.26125625347413,374.4166666666667L480.26681489716503,374.27083333333337L490.27237354085605,373.875L500.27793218454696,373.85416666666663L510.2834908282379,372.2291666666667L520.2890494719288,370.9375L530.2946081156198,368.97916666666663L540.3001667593107,367.875L550.3057254030016,363.8958333333333L560.3112840466927,362.0208333333333L570.3168426903835,357.7083333333333L580.3224013340745,353.2708333333333L590.3279599777654,346.3541666666667L600.3335186214564,338.0833333333333L610.3390772651474,326.8541666666667L620.3446359088382,316.5L630.3501945525292,299.02083333333337L640.3557531962201,284.0625L650.3613118399111,267.95833333333337L660.366870483602,250.375L670.372429127293,233.27083333333334L679.9610894941634,214.25L689.9666481378543,198.66666666666669L699.9722067815453,179.4375L709.9777654252363,159.41666666666666L719.9833240689272,141.70833333333334L729.9888827126181,126.10416666666667L739.9944413563092,111.64583333333333L750,97.06250000000001" style="fill: none; stroke: #f58518; stroke-width: 2;"></path></g></g><path class="foreground" d="" style="display: none; fill: none;"></path></g><g transform="translate(0,0)"><path class="background" d="M0,0h750v375h-750Z" style="fill: none;"></path><g><g class="mark-line role-mark marks"><path d="M0,375L10.00555864369094,375L20.01111728738188,375L30.016675931072815,375L40.02223457476376,375L50.0277932184547,375L60.03335186214563,375L70.03891050583658,375L80.04446914952752,375L90.05002779321846,375L100.0555864369094,375L110.06114508060034,375L120.06670372429126,375L130.0722623679822,375L140.07782101167317,375L150.0833796553641,375L160.08893829905503,375L170.09449694274596,375L180.10005558643692,375L190.10561423012783,375L200.1111728738188,375L210.11673151750972,375L220.12229016120068,375L230.1278488048916,375L240.13340744858252,375L250.13896609227348,375L260.1445247359644,375L270.15008337965537,375L280.15564202334633,375L290.16120066703724,375L300.1667593107282,375L310.1723179544191,375L320.17787659811006,375L330.183435241801,375L340.1889938854919,375L350.1945525291829,375L360.20011117287385,375L370.20566981656475,375L380.21122846025565,374.97916666666663L390.2167871039467,374.97916666666663L400.2223457476376,374.875L410.22790439132854,374.8541666666667L420.23346303501944,374.7708333333333L430.23902167871034,374.75L440.24458032240136,374.7083333333333L450.25013896609227,374.64583333333337L460.2556976097832,374.5625L470.26125625347413,374.5416666666667L480.26681489716503,374.4166666666667L490.27237354085605,374.25L500.27793218454696,374.1666666666667L510.2834908282379,374.0208333333333L520.2890494719288,373.875L530.2946081156198,373.6875L540.3001667593107,373.2291666666667L550.3057254030016,372.75L560.3112840466927,372.5416666666667L570.3168426903835,370.83333333333337L580.3224013340745,369.9166666666667L590.3279599777654,368.60416666666663L600.3335186214564,366.3125L610.3390772651474,363.3958333333333L620.3446359088382,360.29166666666663L630.3501945525292,355.375L640.3557531962201,349.8125L650.3613118399111,342.0625L660.366870483602,332.7916666666667L670.372429127293,323.60416666666663L679.9610894941634,312.9583333333333L689.9666481378543,294.3125L699.9722067815453,275.8958333333333L709.9777654252363,251.54166666666663L719.9833240689272,227.35416666666669L729.9888827126181,199.85416666666666L739.9944413563092,174.60416666666666L750,150.35416666666666" style="fill: none; stroke: #ffbf79; stroke-width: 2;"></path></g></g><path class="foreground" d="" style="display: none; fill: none;"></path></g><g transform="translate(0,0)"><path class="background" d="M0,0h750v375h-750Z" style="fill: none;"></path><g><g class="mark-line role-mark marks"><path d="M0,375L10.00555864369094,375L20.01111728738188,375L30.016675931072815,375L40.02223457476376,375L50.0277932184547,375L60.03335186214563,375L70.03891050583658,375L80.04446914952752,375L90.05002779321846,375L100.0555864369094,375L110.06114508060034,375L120.06670372429126,375L130.0722623679822,375L140.07782101167317,375L150.0833796553641,375L160.08893829905503,375L170.09449694274596,375L180.10005558643692,375L190.10561423012783,375L200.1111728738188,375L210.11673151750972,375L220.12229016120068,375L230.1278488048916,375L240.13340744858252,375L250.13896609227348,375L260.1445247359644,375L270.15008337965537,375L280.15564202334633,375L290.16120066703724,375L300.1667593107282,375L310.1723179544191,375L320.17787659811006,375L330.183435241801,375L340.1889938854919,375L350.1945525291829,375L360.20011117287385,375L370.20566981656475,375L380.21122846025565,375L390.2167871039467,375L400.2223457476376,375L410.22790439132854,375L420.23346303501944,375L430.23902167871034,374.97916666666663L440.24458032240136,374.95833333333337L450.25013896609227,374.95833333333337L460.2556976097832,374.9375L470.26125625347413,374.9166666666667L480.26681489716503,374.875L490.27237354085605,374.8333333333333L500.27793218454696,374.8333333333333L510.2834908282379,374.8333333333333L520.2890494719288,374.5625L530.2946081156198,374.5625L540.3001667593107,373.83333333333337L550.3057254030016,373.83333333333337L560.3112840466927,373.5L570.3168426903835,372.125L580.3224013340745,371.2916666666667L590.3279599777654,370.125L600.3335186214564,369.125L610.3390772651474,368L620.3446359088382,366.1875L630.3501945525292,365.2916666666667L640.3557531962201,362.91666666666663L650.3613118399111,359.14583333333337L660.366870483602,353.7291666666667L670.372429127293,349.3541666666667L679.9610894941634,345.6041666666667L689.9666481378543,337.6458333333333L699.9722067815453,325.89583333333337L709.9777654252363,314.0416666666667L719.9833240689272,299.77083333333337L729.9888827126181,285L739.9944413563092,272.0208333333333L750,262.8125" style="fill: none; stroke: #54a24b; stroke-width: 2;"></path></g></g><path class="foreground" d="" style="display: none; fill: none;"></path></g></g><g class="mark-group role-legend"><g transform="translate(770,0)"><path class="background" d="M0,0h88v79h-88Z" style="pointer-events: none; fill: none;"></path><g><g class="mark-group role-legend-entry"><g transform="translate(0,16)"><path class="background" d="M0,0h0v0h0Z" style="pointer-events: none; fill: none;"></path><g><g class="mark-group role-scope"><g transform="translate(0,0)"><path class="background" d="M0,0h87.15234375v11h-87.15234375Z" style="pointer-events: none; fill: none; opacity: 1;"></path><g><g class="mark-symbol role-legend-symbol" style="pointer-events: none;"><path transform="translate(6,6)" d="M-5,0L5,0" style="fill: none; stroke: #4c78a8; stroke-width: 1.5; opacity: 1;"></path></g><g class="mark-text role-legend-label" style="pointer-events: none;"><text text-anchor="start" transform="translate(16,9)" style="font-family: sans-serif; font-size: 10px; fill: #000; opacity: 1;">China</text></g></g><path class="foreground" d="" style="pointer-events: none; display: none; fill: none;"></path></g><g transform="translate(0,13)"><path class="background" d="M0,0h87.15234375v11h-87.15234375Z" style="pointer-events: none; fill: none; opacity: 1;"></path><g><g class="mark-symbol role-legend-symbol" style="pointer-events: none;"><path transform="translate(6,6)" d="M-5,0L5,0" style="fill: none; stroke: #9ecae9; stroke-width: 1.5; opacity: 1;"></path></g><g class="mark-text role-legend-label" style="pointer-events: none;"><text text-anchor="start" transform="translate(16,9)" style="font-family: sans-serif; font-size: 10px; fill: #000; opacity: 1;">Italy</text></g></g><path class="foreground" d="" style="pointer-events: none; display: none; fill: none;"></path></g><g transform="translate(0,26)"><path class="background" d="M0,0h87.15234375v11h-87.15234375Z" style="pointer-events: none; fill: none; opacity: 1;"></path><g><g class="mark-symbol role-legend-symbol" style="pointer-events: none;"><path transform="translate(6,6)" d="M-5,0L5,0" style="fill: none; stroke: #f58518; stroke-width: 1.5; opacity: 1;"></path></g><g class="mark-text role-legend-label" style="pointer-events: none;"><text text-anchor="start" transform="translate(16,9)" style="font-family: sans-serif; font-size: 10px; fill: #000; opacity: 1;">Spain</text></g></g><path class="foreground" d="" style="pointer-events: none; display: none; fill: none;"></path></g><g transform="translate(0,39)"><path class="background" d="M0,0h87.15234375v11h-87.15234375Z" style="pointer-events: none; fill: none; opacity: 1;"></path><g><g class="mark-symbol role-legend-symbol" style="pointer-events: none;"><path transform="translate(6,6)" d="M-5,0L5,0" style="fill: none; stroke: #ffbf79; stroke-width: 1.5; opacity: 1;"></path></g><g class="mark-text role-legend-label" style="pointer-events: none;"><text text-anchor="start" transform="translate(16,9)" style="font-family: sans-serif; font-size: 10px; fill: #000; opacity: 1;">US</text></g></g><path class="foreground" d="" style="pointer-events: none; display: none; fill: none;"></path></g><g transform="translate(0,52)"><path class="background" d="M0,0h87.15234375v11h-87.15234375Z" style="pointer-events: none; fill: none; opacity: 1;"></path><g><g class="mark-symbol role-legend-symbol" style="pointer-events: none;"><path transform="translate(6,6)" d="M-5,0L5,0" style="fill: none; stroke: #54a24b; stroke-width: 1.5; opacity: 1;"></path></g><g class="mark-text role-legend-label" style="pointer-events: none;"><text text-anchor="start" transform="translate(16,9)" style="font-family: sans-serif; font-size: 10px; fill: #000; opacity: 1;">United Kingdom</text></g></g><path class="foreground" d="" style="pointer-events: none; display: none; fill: none;"></path></g></g></g><path class="foreground" d="" style="pointer-events: none; display: none; fill: none;"></path></g></g><g class="mark-text role-legend-title" style="pointer-events: none;"><text text-anchor="start" transform="translate(0,9)" style="font-family: sans-serif; font-size: 11px; font-weight: bold; fill: #000; opacity: 1;">country</text></g></g><path class="foreground" d="" style="pointer-events: none; display: none; fill: none;"></path></g></g><g class="mark-group role-title"><g transform="translate(375,-22)"><path class="background" d="M0,0h0v0h0Z" style="pointer-events: none; fill: none;"></path><g><g class="mark-text role-title-text" style="pointer-events: none;"><text text-anchor="middle" transform="translate(0,10)" style="font-family: sans-serif; font-size: 13px; font-weight: bold; fill: #000; opacity: 1;">Deaths by day in ['China', 'Italy', 'Spain', 'US', 'United Kingdom'] as of 04-06-2020</text></g></g><path class="foreground" d="" style="pointer-events: none; display: none; fill: none;"></path></g></g></g><path class="foreground" d="" style="display: none; fill: none;"></path></g></g></g></svg>