<svg class="marks" width="927" height="439" viewBox="0 0 927 439" version="1.1" xmlns="http://www.w3.org/2000/svg" xmlns:xlink="http://www.w3.org/1999/xlink"><rect width="927" height="439" style="fill: white;"></rect><g transform="translate(64,27)"><g class="mark-group role-frame root"><g transform="translate(0,0)"><path class="background" d="M0.5,0.5h750v375h-750Z" style="fill: none; stroke: #ddd;"></path><g><g class="mark-group role-axis"><g transform="translate(0.5,375.5)"><path class="background" d="M0,0h0v0h0Z" style="pointer-events: none; fill: none;"></path><g><g class="mark-rule role-axis-grid" style="pointer-events: none;"><line transform="translate(40,-375)" x2="0" y2="375" style="fill: none; stroke: #ddd; stroke-width: 1; opacity: 1;"></line><line transform="translate(110,-375)" x2="0" y2="375" style="fill: none; stroke: #ddd; stroke-width: 1; opacity: 1;"></line><line transform="translate(180,-375)" x2="0" y2="375" style="fill: none; stroke: #ddd; stroke-width: 1; opacity: 1;"></line><line transform="translate(250,-375)" x2="0" y2="375" style="fill: none; stroke: #ddd; stroke-width: 1; opacity: 1;"></line><line transform="translate(320,-375)" x2="0" y2="375" style="fill: none; stroke: #ddd; stroke-width: 1; opacity: 1;"></line><line transform="translate(390,-375)" x2="0" y2="375" style="fill: none; stroke: #ddd; stroke-width: 1; opacity: 1;"></line><line transform="translate(460,-375)" x2="0" y2="375" style="fill: none; stroke: #ddd; stroke-width: 1; opacity: 1;"></line><line transform="translate(530,-375)" x2="0" y2="375" style="fill: none; stroke: #ddd; stroke-width: 1; opacity: 1;"></line><line transform="translate(600,-375)" x2="0" y2="375" style="fill: none; stroke: #ddd; stroke-width: 1; opacity: 1;"></line><line transform="translate(670,-375)" x2="0" y2="375" style="fill: none; stroke: #ddd; stroke-width: 1; opacity: 1;"></line><line transform="translate(740,-375)" x2="0" y2="375" style="fill: none; stroke: #ddd; stroke-width: 1; opacity: 1;"></line></g></g><path class="foreground" d="" style="pointer-events: none; display: none; fill: none;"></path></g></g><g class="mark-group role-axis"><g transform="translate(0.5,0.5)"><path class="background" d="M0,0h0v0h0Z" style="pointer-events: none; fill: none;"></path><g><g class="mark-rule role-axis-grid" style="pointer-events: none;"><line transform="translate(0,375)" x2="750" y2="0" style="fill: none; stroke: #ddd; stroke-width: 1; opacity: 1;"></line><line transform="translate(0,328)" x2="750" y2="0" style="fill: none; stroke: #ddd; stroke-width: 1; opacity: 1;"></line><line transform="translate(0,281)" x2="750" y2="0" style="fill: none; stroke: #ddd; stroke-width: 1; opacity: 1;"></line><line transform="translate(0,234)" x2="750" y2="0" style="fill: none; stroke: #ddd; stroke-width: 1; opacity: 1;"></line><line transform="translate(0,188)" x2="750" y2="0" style="fill: none; stroke: #ddd; stroke-width: 1; opacity: 1;"></line><line transform="translate(0,141)" x2="750" y2="0" style="fill: none; stroke: #ddd; stroke-width: 1; opacity: 1;"></line><line transform="translate(0,94)" x2="750" y2="0" style="fill: none; stroke: #ddd; stroke-width: 1; opacity: 1;"></line><line transform="translate(0,47)" x2="750" y2="0" style="fill: none; stroke: #ddd; stroke-width: 1; opacity: 1;"></line><line transform="translate(0,0)" x2="750" y2="0" style="fill: none; stroke: #ddd; stroke-width: 1; opacity: 1;"></line></g></g><path class="foreground" d="" style="pointer-events: none; display: none; fill: none;"></path></g></g><g class="mark-group role-axis"><g transform="translate(0.5,375.5)"><path class="background" d="M0,0h0v0h0Z" style="pointer-events: none; fill: none;"></path><g><g class="mark-rule role-axis-tick" style="pointer-events: none;"><line transform="translate(40,0)" x2="0" y2="5" style="fill: none; stroke: #888; stroke-width: 1; opacity: 1;"></line><line transform="translate(110,0)" x2="0" y2="5" style="fill: none; stroke: #888; stroke-width: 1; opacity: 1;"></line><line transform="translate(180,0)" x2="0" y2="5" style="fill: none; stroke: #888; stroke-width: 1; opacity: 1;"></line><line transform="translate(250,0)" x2="0" y2="5" style="fill: none; stroke: #888; stroke-width: 1; opacity: 1;"></line><line transform="translate(320,0)" x2="0" y2="5" style="fill: none; stroke: #888; stroke-width: 1; opacity: 1;"></line><line transform="translate(390,0)" x2="0" y2="5" style="fill: none; stroke: #888; stroke-width: 1; opacity: 1;"></line><line transform="translate(460,0)" x2="0" y2="5" style="fill: none; stroke: #888; stroke-width: 1; opacity: 1;"></line><line transform="translate(530,0)" x2="0" y2="5" style="fill: none; stroke: #888; stroke-width: 1; opacity: 1;"></line><line transform="translate(600,0)" x2="0" y2="5" style="fill: none; stroke: #888; stroke-width: 1; opacity: 1;"></line><line transform="translate(670,0)" x2="0" y2="5" style="fill: none; stroke: #888; stroke-width: 1; opacity: 1;"></line><line transform="translate(740,0)" x2="0" y2="5" style="fill: none; stroke: #888; stroke-width: 1; opacity: 1;"></line></g><g class="mark-text role-axis-label" style="pointer-events: none;"><text text-anchor="middle" transform="translate(40.02223457476376,15)" style="font-family: sans-serif; font-size: 10px; fill: #000; opacity: 1;">Jan 26</text><text text-anchor="middle" transform="translate(110.06114508060034,15)" style="font-family: sans-serif; font-size: 10px; fill: #000; opacity: 1;">Feb 02</text><text text-anchor="middle" transform="translate(180.10005558643692,15)" style="font-family: sans-serif; font-size: 10px; fill: #000; opacity: 1;">Feb 09</text><text text-anchor="middle" transform="translate(250.13896609227348,15)" style="font-family: sans-serif; font-size: 10px; fill: #000; opacity: 1;">Feb 16</text><text text-anchor="middle" transform="translate(320.17787659811006,15)" style="font-family: sans-serif; font-size: 10px; fill: #000; opacity: 1;">Feb 23</text><text text-anchor="middle" transform="translate(390.2167871039467,15)" style="font-family: sans-serif; font-size: 10px; fill: #000; opacity: 1;">March</text><text text-anchor="middle" transform="translate(460.2556976097832,15)" style="font-family: sans-serif; font-size: 10px; fill: #000; opacity: 1;">Mar 08</text><text text-anchor="middle" transform="translate(530.2946081156198,15)" style="font-family: sans-serif; font-size: 10px; fill: #000; opacity: 1;">Mar 15</text><text text-anchor="middle" transform="translate(600.3335186214564,15)" style="font-family: sans-serif; font-size: 10px; fill: #000; opacity: 1;">Mar 22</text><text text-anchor="middle" transform="translate(670.372429127293,15)" style="font-family: sans-serif; font-size: 10px; fill: #000; opacity: 1;">Mar 29</text><text text-anchor="middle" transform="translate(739.9944413563092,15)" style="font-family: sans-serif; font-size: 10px; fill: #000; opacity: 1;">Apr 05</text></g><g class="mark-rule role-axis-domain" style="pointer-events: none;"><line transform="translate(0,0)" x2="750" y2="0" style="fill: none; stroke: #888; stroke-width: 1; opacity: 1;"></line></g><g class="mark-text role-axis-title" style="pointer-events: none;"><text text-anchor="middle" transform="translate(375,30)" style="font-family: sans-serif; font-size: 11px; font-weight: bold; fill: #000; opacity: 1;">day</text></g></g><path class="foreground" d="" style="pointer-events: none; display: none; fill: none;"></path></g></g><g class="mark-group role-axis"><g transform="translate(0.5,0.5)"><path class="background" d="M0,0h0v0h0Z" style="pointer-events: none; fill: none;"></path><g><g class="mark-rule role-axis-tick" style="pointer-events: none;"><line transform="translate(0,375)" x2="-5" y2="0" style="fill: none; stroke: #888; stroke-width: 1; opacity: 1;"></line><line transform="translate(0,328)" x2="-5" y2="0" style="fill: none; stroke: #888; stroke-width: 1; opacity: 1;"></line><line transform="translate(0,281)" x2="-5" y2="0" style="fill: none; stroke: #888; stroke-width: 1; opacity: 1;"></line><line transform="translate(0,234)" x2="-5" y2="0" style="fill: none; stroke: #888; stroke-width: 1; opacity: 1;"></line><line transform="translate(0,188)" x2="-5" y2="0" style="fill: none; stroke: #888; stroke-width: 1; opacity: 1;"></line><line transform="translate(0,141)" x2="-5" y2="0" style="fill: none; stroke: #888; stroke-width: 1; opacity: 1;"></line><line transform="translate(0,94)" x2="-5" y2="0" style="fill: none; stroke: #888; stroke-width: 1; opacity: 1;"></line><line transform="translate(0,47)" x2="-5" y2="0" style="fill: none; stroke: #888; stroke-width: 1; opacity: 1;"></line><line transform="translate(0,0)" x2="-5" y2="0" style="fill: none; stroke: #888; stroke-width: 1; opacity: 1;"></line></g><g class="mark-text role-axis-label" style="pointer-events: none;"><text text-anchor="end" transform="translate(-7,378)" style="font-family: sans-serif; font-size: 10px; fill: #000; opacity: 1;">0</text><text text-anchor="end" transform="translate(-7,331.125)" style="font-family: sans-serif; font-size: 10px; fill: #000; opacity: 1;">50,000</text><text text-anchor="end" transform="translate(-7,284.25)" style="font-family: sans-serif; font-size: 10px; fill: #000; opacity: 1;">100,000</text><text text-anchor="end" transform="translate(-7,237.375)" style="font-family: sans-serif; font-size: 10px; fill: #000; opacity: 1;">150,000</text><text text-anchor="end" transform="translate(-7,190.5)" style="font-family: sans-serif; font-size: 10px; fill: #000; opacity: 1;">200,000</text><text text-anchor="end" transform="translate(-7,143.625)" style="font-family: sans-serif; font-size: 10px; fill: #000; opacity: 1;">250,000</text><text text-anchor="end" transform="translate(-7,96.75)" style="font-family: sans-serif; font-size: 10px; fill: #000; opacity: 1;">300,000</text><text text-anchor="end" transform="translate(-7,49.875)" style="font-family: sans-serif; font-size: 10px; fill: #000; opacity: 1;">350,000</text><text text-anchor="end" transform="translate(-7,3)" style="font-family: sans-serif; font-size: 10px; fill: #000; opacity: 1;">400,000</text></g><g class="mark-rule role-axis-domain" style="pointer-events: none;"><line transform="translate(0,375)" x2="0" y2="-375" style="fill: none; stroke: #888; stroke-width: 1; opacity: 1;"></line></g><g class="mark-text role-axis-title" style="pointer-events: none;"><text text-anchor="middle" transform="translate(-47.1474609375,187.5) rotate(-90) translate(0,-2)" style="font-family: sans-serif; font-size: 11px; font-weight: bold; fill: #000; opacity: 1;">Confirmed</text></g></g><path class="foreground" d="" style="pointer-events: none; display: none; fill: none;"></path></g></g><g class="mark-group role-scope pathgroup"><g transform="translate(0,0)"><path class="background" d="M0,0h750v375h-750Z" style="fill: none;"></path><g><g class="mark-line role-mark marks"><path d="M0,374.48625L10.00555864369094,374.39718750000003L20.01111728738188,374.1375L30.016675931072815,373.681875L40.02223457476376,373.0546875L50.0277932184547,372.30281249999996L60.03335186214563,369.8353125L70.03891050583658,369.2934375L80.04446914952752,367.3678125L90.05002779321846,365.810625L100.0555864369094,363.8521875L110.06114508060034,359.409375L120.06670372429126,356.51624999999996L130.0722623679822,352.77468749999997L140.07782101167317,349.275L150.0833796553641,346.3246875L160.08893829905503,343.021875L170.09449694274596,340.486875L180.10005558643692,337.66031250000003L190.10561423012783,335.293125L200.1111728738188,333.388125L210.11673151750972,333.0384375L220.12229016120068,318.8484375L230.1278488048916,312.789375L240.13340744858252,310.86281249999996L250.13896609227348,308.8940625L260.1445247359644,307.09312500000004L270.15008337965537,305.4271875L280.15564202334633,305.0446875L290.16120066703724,304.61531249999996L300.1667593107282,304.171875L310.1723179544191,302.8115625L320.17787659811006,302.791875L330.183435241801,302.5865625L340.1889938854919,302.105625L350.1945525291829,301.719375L360.20011117287385,301.3125L370.20566981656475,301.005L380.21122846025565,300.60375L390.2167871039467,300.06375L400.2223457476376,299.8725L410.22790439132854,299.7553125L420.23346303501944,299.638125L430.23902167871034,299.4965625L440.24458032240136,299.35312500000003L450.25013896609227,299.278125L460.2556976097832,299.2284375L470.26125625347413,299.19374999999997L480.26681489716503,299.16843750000004L490.27237354085605,299.13656249999997L500.27793218454696,299.12624999999997L510.2834908282379,299.1140625L520.2890494719288,299.0840625L530.2946081156198,299.0596875L540.3001667593107,299.0315625L550.3057254030016,299.008125L560.3112840466927,298.966875L570.3168426903835,298.91625L580.3224013340745,298.828125L590.3279599777654,298.7765625L600.3335186214564,298.65468749999997L610.3390772651474,298.595625L620.3446359088382,298.5084375L630.3501945525292,298.4428125L640.3557531962201,298.32937499999997L650.3613118399111,298.2215625L660.366870483602,298.1259375L670.372429127293,298.010625L679.9610894941634,297.939375L689.9666481378543,297.86343750000003L699.9722067815453,297.7865625L709.9777654252363,297.71999999999997L719.9833240689272,297.6459375L729.9888827126181,297.61593750000003L739.9944413563092,297.560625L750,297.50156250000003" style="fill: none; stroke: #4c78a8; stroke-width: 2;"></path></g></g><path class="foreground" d="" style="display: none; fill: none;"></path></g><g transform="translate(0,0)"><path class="background" d="M0,0h750v375h-750Z" style="fill: none;"></path><g><g class="mark-line role-mark marks"><path d="M0,375L10.00555864369094,375L20.01111728738188,375L30.016675931072815,375L40.02223457476376,375L50.0277932184547,375L60.03335186214563,375L70.03891050583658,375L80.04446914952752,375L90.05002779321846,374.998125L100.0555864369094,374.998125L110.06114508060034,374.998125L120.06670372429126,374.998125L130.0722623679822,374.998125L140.07782101167317,374.998125L150.0833796553641,374.998125L160.08893829905503,374.9971875L170.09449694274596,374.9971875L180.10005558643692,374.9971875L190.10561423012783,374.9971875L200.1111728738188,374.9971875L210.11673151750972,374.9971875L220.12229016120068,374.9971875L230.1278488048916,374.9971875L240.13340744858252,374.9971875L250.13896609227348,374.9971875L260.1445247359644,374.9971875L270.15008337965537,374.9971875L280.15564202334633,374.9971875L290.16120066703724,374.9971875L300.1667593107282,374.98125L310.1723179544191,374.941875L320.17787659811006,374.8546875L330.183435241801,374.78531250000003L340.1889938854919,374.698125L350.1945525291829,374.5753125L360.20011117287385,374.3859375L370.20566981656475,374.1675L380.21122846025565,373.9425L390.2167871039467,373.411875L400.2223457476376,373.09125L410.22790439132854,372.654375L420.23346303501944,372.1040625L430.23902167871034,371.383125L440.24458032240136,370.65375L450.25013896609227,369.4846875L460.2556976097832,368.0859375L470.26125625347413,366.40125L480.26681489716503,365.4853125L490.27237354085605,363.316875L500.27793218454696,363.316875L510.2834908282379,358.44374999999997L520.2890494719288,355.16531249999997L530.2946081156198,351.7996875L540.3001667593107,348.76875L550.3057254030016,345.463125L560.3112840466927,341.51906249999996L570.3168426903835,336.52968749999997L580.3224013340745,330.9178125L590.3279599777654,324.770625L600.3335186214564,319.558125L610.3390772651474,315.0684375L620.3446359088382,310.1475L630.3501945525292,305.263125L640.3557531962201,299.4478125L650.3613118399111,293.908125L660.366870483602,288.3075L670.372429127293,283.4165625L679.9610894941634,279.6196875L689.9666481378543,275.82L699.9722067815453,271.336875L709.9777654252363,266.960625L719.9833240689272,262.6621875L729.9888827126181,258.1575L739.9944413563092,254.11124999999998L750,250.73718749999998" style="fill: none; stroke: #9ecae9; stroke-width: 2;"></path></g></g><path class="foreground" d="" style="display: none; fill: none;"></path></g><g transform="translate(0,0)"><path class="background" d="M0,0h750v375h-750Z" style="fill: none;"></path><g><g class="mark-line role-mark marks"><path d="M0,375L10.00555864369094,375L20.01111728738188,375L30.016675931072815,375L40.02223457476376,375L50.0277932184547,375L60.03335186214563,375L70.03891050583658,375L80.04446914952752,375L90.05002779321846,375L100.0555864369094,374.9990625L110.06114508060034,374.9990625L120.06670372429126,374.9990625L130.0722623679822,374.9990625L140.07782101167317,374.9990625L150.0833796553641,374.9990625L160.08893829905503,374.9990625L170.09449694274596,374.9990625L180.10005558643692,374.998125L190.10561423012783,374.998125L200.1111728738188,374.998125L210.11673151750972,374.998125L220.12229016120068,374.998125L230.1278488048916,374.998125L240.13340744858252,374.998125L250.13896609227348,374.998125L260.1445247359644,374.998125L270.15008337965537,374.998125L280.15564202334633,374.998125L290.16120066703724,374.998125L300.1667593107282,374.998125L310.1723179544191,374.998125L320.17787659811006,374.998125L330.183435241801,374.998125L340.1889938854919,374.994375L350.1945525291829,374.9878125L360.20011117287385,374.9859375L370.20566981656475,374.97L380.21122846025565,374.9578125L390.2167871039467,374.92125L400.2223457476376,374.8875L410.22790439132854,374.8453125L420.23346303501944,374.791875L430.23902167871034,374.7571875L440.24458032240136,374.625L450.25013896609227,374.53125L460.2556976097832,374.3690625L470.26125625347413,373.9940625L480.26681489716503,373.4109375L490.27237354085605,372.8653125L500.27793218454696,372.8653125L510.2834908282379,370.095L520.2890494719288,369.0084375L530.2946081156198,367.689375L540.3001667593107,365.679375L550.3057254030016,363.98625L560.3112840466927,361.959375L570.3168426903835,358.1596875L580.3224013340745,355.865625L590.3279599777654,351.211875L600.3335186214564,348.03000000000003L610.3390772651474,342.06L620.3446359088382,337.6078125L630.3501945525292,328.57968750000003L640.3557531962201,320.825625L650.3613118399111,313.3884375L660.366870483602,306.3421875L670.372429127293,299.896875L679.9610894941634,292.54125L689.9666481378543,285.07218750000004L699.9722067815453,277.38937500000003L709.9777654252363,269.93906250000003L719.9833240689272,263.25093749999996L729.9888827126181,256.7175L739.9944413563092,251.581875L750,246.86718750000003" style="fill: none; stroke: #f58518; stroke-width: 2;"></path></g></g><path class="foreground" d="" style="display: none; fill: none;"></path></g><g transform="translate(0,0)"><path class="background" d="M0,0h750v375h-750Z" style="fill: none;"></path><g><g class="mark-line role-mark marks"><path d="M0,374.9990625L10.00555864369094,374.9990625L20.01111728738188,374.998125L30.016675931072815,374.998125L40.02223457476376,374.9953125L50.0277932184547,374.9953125L60.03335186214563,374.9953125L70.03891050583658,374.9953125L80.04446914952752,374.9953125L90.05002779321846,374.99343749999997L100.0555864369094,374.9925L110.06114508060034,374.9925L120.06670372429126,374.9896875L130.0722623679822,374.9896875L140.07782101167317,374.9896875L150.0833796553641,374.9896875L160.08893829905503,374.9896875L170.09449694274596,374.9896875L180.10005558643692,374.9896875L190.10561423012783,374.9896875L200.1111728738188,374.98875L210.11673151750972,374.98875L220.12229016120068,374.9878125L230.1278488048916,374.9878125L240.13340744858252,374.9878125L250.13896609227348,374.9878125L260.1445247359644,374.9878125L270.15008337965537,374.9878125L280.15564202334633,374.9878125L290.16120066703724,374.9878125L300.1667593107282,374.9859375L310.1723179544191,374.9859375L320.17787659811006,374.9859375L330.183435241801,374.95218750000004L340.1889938854919,374.95218750000004L350.1945525291829,374.94656249999997L360.20011117287385,374.945625L370.20566981656475,374.94375L380.21122846025565,374.93625L390.2167871039467,374.930625L400.2223457476376,374.908125L410.22790439132854,374.889375L420.23346303501944,374.8603125L430.23902167871034,374.7965625L440.24458032240136,374.75437500000004L450.25013896609227,374.62312499999996L460.2556976097832,374.514375L470.26125625347413,374.4534375L480.26681489716503,374.1009375L490.27237354085605,373.7990625L500.27793218454696,373.44093749999996L510.2834908282379,372.9571875L520.2890494719288,372.4434375L530.2946081156198,371.7196875L540.3001667593107,370.65749999999997L550.3057254030016,368.98031249999997L560.3112840466927,367.7034375L570.3168426903835,362.1778125L580.3224013340745,357.09375L590.3279599777654,351.1040625L600.3335186214564,343.80375L610.3390772651474,333.8934375L620.3446359088382,324.61875000000003L630.3501945525292,313.333125L640.3557531962201,296.40375L650.3613118399111,279.6965625L660.366870483602,261.114375L670.372429127293,242.91937500000003L679.9610894941634,223.3059375L689.9666481378543,198.58875L699.9722067815453,174.96375L709.9777654252363,146.7628125L719.9833240689272,116.63812499999999L729.9888827126181,85.45312500000001L739.9944413563092,58.995000000000005L750,31.299375000000005" style="fill: none; stroke: #ffbf79; stroke-width: 2;"></path></g></g><path class="foreground" d="" style="display: none; fill: none;"></path></g><g transform="translate(0,0)"><path class="background" d="M0,0h750v375h-750Z" style="fill: none;"></path><g><g class="mark-line role-mark marks"><path d="M0,375L10.00555864369094,375L20.01111728738188,375L30.016675931072815,375L40.02223457476376,375L50.0277932184547,375L60.03335186214563,375L70.03891050583658,375L80.04446914952752,375L90.05002779321846,374.998125L100.0555864369094,374.998125L110.06114508060034,374.998125L120.06670372429126,374.998125L130.0722623679822,374.998125L140.07782101167317,374.998125L150.0833796553641,374.998125L160.08893829905503,374.9971875L170.09449694274596,374.9971875L180.10005558643692,374.9971875L190.10561423012783,374.9925L200.1111728738188,374.9925L210.11673151750972,374.9915625L220.12229016120068,374.9915625L230.1278488048916,374.9915625L240.13340744858252,374.9915625L250.13896609227348,374.9915625L260.1445247359644,374.9915625L270.15008337965537,374.9915625L280.15564202334633,374.9915625L290.16120066703724,374.9915625L300.1667593107282,374.9915625L310.1723179544191,374.9915625L320.17787659811006,374.9915625L330.183435241801,374.9878125L340.1889938854919,374.9878125L350.1945525291829,374.9878125L360.20011117287385,374.9859375L370.20566981656475,374.98125L380.21122846025565,374.9784375L390.2167871039467,374.96625L400.2223457476376,374.9625L410.22790439132854,374.95218750000004L420.23346303501944,374.919375L430.23902167871034,374.89125L440.24458032240136,374.84625L450.25013896609227,374.8059375L460.2556976097832,374.74312499999996L470.26125625347413,374.698125L480.26681489716503,374.64L490.27237354085605,374.5696875L500.27793218454696,374.5696875L510.2834908282379,374.24812499999996L520.2890494719288,373.9275L530.2946081156198,373.9265625L540.3001667593107,373.54593750000004L550.3057254030016,373.16249999999997L560.3112840466927,372.523125L570.3168426903835,372.45375L580.3224013340745,371.236875L590.3279599777654,370.2496875L600.3335186214564,369.6140625L610.3390772651474,368.694375L620.3446359088382,367.34625L630.3501945525292,365.9625L640.3557531962201,363.92625L650.3613118399111,361.1765625L660.366870483602,358.77L670.372429127293,356.45625L679.9610894941634,353.9503125L689.9666481378543,351.1115625L699.9722067815453,347.00156250000003L709.9777654252363,342.9628125L719.9833240689272,338.7290625L729.9888827126181,335.1778125L739.9944413563092,329.59125L750,325.9884375" style="fill: none; stroke: #54a24b; stroke-width: 2;"></path></g></g><path class="foreground" d="" style="display: none; fill: none;"></path></g></g><g class="mark-group role-legend"><g transform="translate(770,0)"><path class="background" d="M0,0h88v79h-88Z" style="pointer-events: none; fill: none;"></path><g><g class="mark-group role-legend-entry"><g transform="translate(0,16)"><path class="background" d="M0,0h0v0h0Z" style="pointer-events: none; fill: none;"></path><g><g class="mark-group role-scope"><g transform="translate(0,0)"><path class="background" d="M0,0h87.15234375v11h-87.15234375Z" style="pointer-events: none; fill: none; opacity: 1;"></path><g><g class="mark-symbol role-legend-symbol" style="pointer-events: none;"><path transform="translate(6,6)" d="M-5,0L5,0" style="fill: none; stroke: #4c78a8; stroke-width: 1.5; opacity: 1;"></path></g><g class="mark-text role-legend-label" style="pointer-events: none;"><text text-anchor="start" transform="translate(16,9)" style="font-family: sans-serif; font-size: 10px; fill: #000; opacity: 1;">China</text></g></g><path class="foreground" d="" style="pointer-events: none; display: none; fill: none;"></path></g><g transform="translate(0,13)"><path class="background" d="M0,0h87.15234375v11h-87.15234375Z" style="pointer-events: none; fill: none; opacity: 1;"></path><g><g class="mark-symbol role-legend-symbol" style="pointer-events: none;"><path transform="translate(6,6)" d="M-5,0L5,0" style="fill: none; stroke: #9ecae9; stroke-width: 1.5; opacity: 1;"></path></g><g class="mark-text role-legend-label" style="pointer-events: none;"><text text-anchor="start" transform="translate(16,9)" style="font-family: sans-serif; font-size: 10px; fill: #000; opacity: 1;">Italy</text></g></g><path class="foreground" d="" style="pointer-events: none; display: none; fill: none;"></path></g><g transform="translate(0,26)"><path class="background" d="M0,0h87.15234375v11h-87.15234375Z" style="pointer-events: none; fill: none; opacity: 1;"></path><g><g class="mark-symbol role-legend-symbol" style="pointer-events: none;"><path transform="translate(6,6)" d="M-5,0L5,0" style="fill: none; stroke: #f58518; stroke-width: 1.5; opacity: 1;"></path></g><g class="mark-text role-legend-label" style="pointer-events: none;"><text text-anchor="start" transform="translate(16,9)" style="font-family: sans-serif; font-size: 10px; fill: #000; opacity: 1;">Spain</text></g></g><path class="foreground" d="" style="pointer-events: none; display: none; fill: none;"></path></g><g transform="translate(0,39)"><path class="background" d="M0,0h87.15234375v11h-87.15234375Z" style="pointer-events: none; fill: none; opacity: 1;"></path><g><g class="mark-symbol role-legend-symbol" style="pointer-events: none;"><path transform="translate(6,6)" d="M-5,0L5,0" style="fill: none; stroke: #ffbf79; stroke-width: 1.5; opacity: 1;"></path></g><g class="mark-text role-legend-label" style="pointer-events: none;"><text text-anchor="start" transform="translate(16,9)" style="font-family: sans-serif; font-size: 10px; fill: #000; opacity: 1;">US</text></g></g><path class="foreground" d="" style="pointer-events: none; display: none; fill: none;"></path></g><g transform="translate(0,52)"><path class="background" d="M0,0h87.15234375v11h-87.15234375Z" style="pointer-events: none; fill: none; opacity: 1;"></path><g><g class="mark-symbol role-legend-symbol" style="pointer-events: none;"><path transform="translate(6,6)" d="M-5,0L5,0" style="fill: none; stroke: #54a24b; stroke-width: 1.5; opacity: 1;"></path></g><g class="mark-text role-legend-label" style="pointer-events: none;"><text text-anchor="start" transform="translate(16,9)" style="font-family: sans-serif; font-size: 10px; fill: #000; opacity: 1;">United Kingdom</text></g></g><path class="foreground" d="" style="pointer-events: none; display: none; fill: none;"></path></g></g></g><path class="foreground" d="" style="pointer-events: none; display: none; fill: none;"></path></g></g><g class="mark-text role-legend-title" style="pointer-events: none;"><text text-anchor="start" transform="translate(0,9)" style="font-family: sans-serif; font-size: 11px; font-weight: bold; fill: #000; opacity: 1;">country</text></g></g><path class="foreground" d="" style="pointer-events: none; display: none; fill: none;"></path></g></g><g class="mark-group role-title"><g transform="translate(375,-22)"><path class="background" d="M0,0h0v0h0Z" style="pointer-events: none; fill: none;"></path><g><g class="mark-text role-title-text" style="pointer-events: none;"><text text-anchor="middle" transform="translate(0,10)" style="font-family: sans-serif; font-size: 13px; font-weight: bold; fill: #000; opacity: 1;">Confirmed by day in ['China', 'Italy', 'Spain', 'US', 'United Kingdom'] as of 04-06-2020</text></g></g><path class="foreground" d="" style="pointer-events: none; display: none; fill: none;"></path></g></g></g><path class="foreground" d="" style="display: none; fill: none;"></path></g></g></g></svg>