<svg class="marks" width="813" height="501" viewBox="0 0 813 501" version="1.1" xmlns="http://www.w3.org/2000/svg" xmlns:xlink="http://www.w3.org/1999/xlink"><rect width="813" height="501" style="fill: white;"></rect><g transform="translate(58,27)"><g class="mark-group role-frame root"><g transform="translate(0,0)"><path class="background" d="M0.5,0.5h750v375h-750Z" style="fill: none; stroke: #ddd;"></path><g><g class="mark-group role-axis"><g transform="translate(0.5,0.5)"><path class="background" d="M0,0h0v0h0Z" style="pointer-events: none; fill: none;"></path><g><g class="mark-rule role-axis-grid" style="pointer-events: none;"><line transform="translate(0,375)" x2="750" y2="0" style="fill: none; stroke: #ddd; stroke-width: 1; opacity: 1;"></line><line transform="translate(0,341)" x2="750" y2="0" style="fill: none; stroke: #ddd; stroke-width: 1; opacity: 1;"></line><line transform="translate(0,307)" x2="750" y2="0" style="fill: none; stroke: #ddd; stroke-width: 1; opacity: 1;"></line><line transform="translate(0,273)" x2="750" y2="0" style="fill: none; stroke: #ddd; stroke-width: 1; opacity: 1;"></line><line transform="translate(0,239)" x2="750" y2="0" style="fill: none; stroke: #ddd; stroke-width: 1; opacity: 1;"></line><line transform="translate(0,205)" x2="750" y2="0" style="fill: none; stroke: #ddd; stroke-width: 1; opacity: 1;"></line><line transform="translate(0,170)" x2="750" y2="0" style="fill: none; stroke: #ddd; stroke-width: 1; opacity: 1;"></line><line transform="translate(0,136)" x2="750" y2="0" style="fill: none; stroke: #ddd; stroke-width: 1; opacity: 1;"></line><line transform="translate(0,102)" x2="750" y2="0" style="fill: none; stroke: #ddd; stroke-width: 1; opacity: 1;"></line><line transform="translate(0,68)" x2="750" y2="0" style="fill: none; stroke: #ddd; stroke-width: 1; opacity: 1;"></line><line transform="translate(0,34)" x2="750" y2="0" style="fill: none; stroke: #ddd; stroke-width: 1; opacity: 1;"></line><line transform="translate(0,0)" x2="750" y2="0" style="fill: none; stroke: #ddd; stroke-width: 1; opacity: 1;"></line></g></g><path class="foreground" d="" style="pointer-events: none; display: none; fill: none;"></path></g></g><g class="mark-group role-axis"><g transform="translate(0.5,375.5)"><path class="background" d="M0,0h0v0h0Z" style="pointer-events: none; fill: none;"></path><g><g class="mark-rule role-axis-tick" style="pointer-events: none;"><line transform="translate(25,0)" x2="0" y2="5" style="fill: none; stroke: #888; stroke-width: 1; opacity: 1;"></line><line transform="translate(75,0)" x2="0" y2="5" style="fill: none; stroke: #888; stroke-width: 1; opacity: 1;"></line><line transform="translate(125,0)" x2="0" y2="5" style="fill: none; stroke: #888; stroke-width: 1; opacity: 1;"></line><line transform="translate(175,0)" x2="0" y2="5" style="fill: none; stroke: #888; stroke-width: 1; opacity: 1;"></line><line transform="translate(225,0)" x2="0" y2="5" style="fill: none; stroke: #888; stroke-width: 1; opacity: 1;"></line><line transform="translate(275,0)" x2="0" y2="5" style="fill: none; stroke: #888; stroke-width: 1; opacity: 1;"></line><line transform="translate(325,0)" x2="0" y2="5" style="fill: none; stroke: #888; stroke-width: 1; opacity: 1;"></line><line transform="translate(375,0)" x2="0" y2="5" style="fill: none; stroke: #888; stroke-width: 1; opacity: 1;"></line><line transform="translate(425,0)" x2="0" y2="5" style="fill: none; stroke: #888; stroke-width: 1; opacity: 1;"></line><line transform="translate(475,0)" x2="0" y2="5" style="fill: none; stroke: #888; stroke-width: 1; opacity: 1;"></line><line transform="translate(525,0)" x2="0" y2="5" style="fill: none; stroke: #888; stroke-width: 1; opacity: 1;"></line><line transform="translate(575,0)" x2="0" y2="5" style="fill: none; stroke: #888; stroke-width: 1; opacity: 1;"></line><line transform="translate(625,0)" x2="0" y2="5" style="fill: none; stroke: #888; stroke-width: 1; opacity: 1;"></line><line transform="translate(675,0)" x2="0" y2="5" style="fill: none; stroke: #888; stroke-width: 1; opacity: 1;"></line><line transform="translate(725,0)" x2="0" y2="5" style="fill: none; stroke: #888; stroke-width: 1; opacity: 1;"></line></g><g class="mark-text role-axis-label" style="pointer-events: none;"><text text-anchor="end" transform="translate(24.5,7) rotate(270) translate(0,3)" style="font-family: sans-serif; font-size: 10px; fill: #000; opacity: 1;">US</text><text text-anchor="end" transform="translate(74.5,7) rotate(270) translate(0,3)" style="font-family: sans-serif; font-size: 10px; fill: #000; opacity: 1;">Italy</text><text text-anchor="end" transform="translate(124.5,7) rotate(270) translate(0,3)" style="font-family: sans-serif; font-size: 10px; fill: #000; opacity: 1;">Spain</text><text text-anchor="end" transform="translate(174.5,7) rotate(270) translate(0,3)" style="font-family: sans-serif; font-size: 10px; fill: #000; opacity: 1;">France</text><text text-anchor="end" transform="translate(224.5,7) rotate(270) translate(0,3)" style="font-family: sans-serif; font-size: 10px; fill: #000; opacity: 1;">United Kingdom</text><text text-anchor="end" transform="translate(274.5,7) rotate(270) translate(0,3)" style="font-family: sans-serif; font-size: 10px; fill: #000; opacity: 1;">Iran</text><text text-anchor="end" transform="translate(324.5,7) rotate(270) translate(0,3)" style="font-family: sans-serif; font-size: 10px; fill: #000; opacity: 1;">Belgium</text><text text-anchor="end" transform="translate(374.5,7) rotate(270) translate(0,3)" style="font-family: sans-serif; font-size: 10px; fill: #000; opacity: 1;">China</text><text text-anchor="end" transform="translate(424.5,7) rotate(270) translate(0,3)" style="font-family: sans-serif; font-size: 10px; fill: #000; opacity: 1;">Germany</text><text text-anchor="end" transform="translate(474.5,7) rotate(270) translate(0,3)" style="font-family: sans-serif; font-size: 10px; fill: #000; opacity: 1;">Netherlands</text><text text-anchor="end" transform="translate(524.5,7) rotate(270) translate(0,3)" style="font-family: sans-serif; font-size: 10px; fill: #000; opacity: 1;">Brazil</text><text text-anchor="end" transform="translate(574.5,7) rotate(270) translate(0,3)" style="font-family: sans-serif; font-size: 10px; fill: #000; opacity: 1;">Turkey</text><text text-anchor="end" transform="translate(624.5,7) rotate(270) translate(0,3)" style="font-family: sans-serif; font-size: 10px; fill: #000; opacity: 1;">Switzerland</text><text text-anchor="end" transform="translate(674.5,7) rotate(270) translate(0,3)" style="font-family: sans-serif; font-size: 10px; fill: #000; opacity: 1;">Sweden</text><text text-anchor="end" transform="translate(724.5,7) rotate(270) translate(0,3)" style="font-family: sans-serif; font-size: 10px; fill: #000; opacity: 1;">Canada</text></g><g class="mark-rule role-axis-domain" style="pointer-events: none;"><line transform="translate(0,0)" x2="750" y2="0" style="fill: none; stroke: #888; stroke-width: 1; opacity: 1;"></line></g><g class="mark-text role-axis-title" style="pointer-events: none;"><text text-anchor="middle" transform="translate(375,91.15234375)" style="font-family: sans-serif; font-size: 11px; font-weight: bold; fill: #000; opacity: 1;">Country_Region</text></g></g><path class="foreground" d="" style="pointer-events: none; display: none; fill: none;"></path></g></g><g class="mark-group role-axis"><g transform="translate(0.5,0.5)"><path class="background" d="M0,0h0v0h0Z" style="pointer-events: none; fill: none;"></path><g><g class="mark-rule role-axis-tick" style="pointer-events: none;"><line transform="translate(0,375)" x2="-5" y2="0" style="fill: none; stroke: #888; stroke-width: 1; opacity: 1;"></line><line transform="translate(0,341)" x2="-5" y2="0" style="fill: none; stroke: #888; stroke-width: 1; opacity: 1;"></line><line transform="translate(0,307)" x2="-5" y2="0" style="fill: none; stroke: #888; stroke-width: 1; opacity: 1;"></line><line transform="translate(0,273)" x2="-5" y2="0" style="fill: none; stroke: #888; stroke-width: 1; opacity: 1;"></line><line transform="translate(0,239)" x2="-5" y2="0" style="fill: none; stroke: #888; stroke-width: 1; opacity: 1;"></line><line transform="translate(0,205)" x2="-5" y2="0" style="fill: none; stroke: #888; stroke-width: 1; opacity: 1;"></line><line transform="translate(0,170)" x2="-5" y2="0" style="fill: none; stroke: #888; stroke-width: 1; opacity: 1;"></line><line transform="translate(0,136)" x2="-5" y2="0" style="fill: none; stroke: #888; stroke-width: 1; opacity: 1;"></line><line transform="translate(0,102)" x2="-5" y2="0" style="fill: none; stroke: #888; stroke-width: 1; opacity: 1;"></line><line transform="translate(0,68)" x2="-5" y2="0" style="fill: none; stroke: #888; stroke-width: 1; opacity: 1;"></line><line transform="translate(0,34)" x2="-5" y2="0" style="fill: none; stroke: #888; stroke-width: 1; opacity: 1;"></line><line transform="translate(0,0)" x2="-5" y2="0" style="fill: none; stroke: #888; stroke-width: 1; opacity: 1;"></line></g><g class="mark-text role-axis-label" style="pointer-events: none;"><text text-anchor="end" transform="translate(-7,378)" style="font-family: sans-serif; font-size: 10px; fill: #000; opacity: 1;">0</text><text text-anchor="end" transform="translate(-7,343.9090909090909)" style="font-family: sans-serif; font-size: 10px; fill: #000; opacity: 1;">2,000</text><text text-anchor="end" transform="translate(-7,309.8181818181818)" style="font-family: sans-serif; font-size: 10px; fill: #000; opacity: 1;">4,000</text><text text-anchor="end" transform="translate(-7,275.72727272727275)" style="font-family: sans-serif; font-size: 10px; fill: #000; opacity: 1;">6,000</text><text text-anchor="end" transform="translate(-7,241.63636363636363)" style="font-family: sans-serif; font-size: 10px; fill: #000; opacity: 1;">8,000</text><text text-anchor="end" transform="translate(-7,207.54545454545453)" style="font-family: sans-serif; font-size: 10px; fill: #000; opacity: 1;">10,000</text><text text-anchor="end" transform="translate(-7,173.45454545454547)" style="font-family: sans-serif; font-size: 10px; fill: #000; opacity: 1;">12,000</text><text text-anchor="end" transform="translate(-7,139.36363636363637)" style="font-family: sans-serif; font-size: 10px; fill: #000; opacity: 1;">14,000</text><text text-anchor="end" transform="translate(-7,105.27272727272727)" style="font-family: sans-serif; font-size: 10px; fill: #000; opacity: 1;">16,000</text><text text-anchor="end" transform="translate(-7,71.18181818181816)" style="font-family: sans-serif; font-size: 10px; fill: #000; opacity: 1;">18,000</text><text text-anchor="end" transform="translate(-7,37.0909090909091)" style="font-family: sans-serif; font-size: 10px; fill: #000; opacity: 1;">20,000</text><text text-anchor="end" transform="translate(-7,3)" style="font-family: sans-serif; font-size: 10px; fill: #000; opacity: 1;">22,000</text></g><g class="mark-rule role-axis-domain" style="pointer-events: none;"><line transform="translate(0,375)" x2="0" y2="-375" style="fill: none; stroke: #888; stroke-width: 1; opacity: 1;"></line></g><g class="mark-text role-axis-title" style="pointer-events: none;"><text text-anchor="middle" transform="translate(-41.5859375,187.5) rotate(-90) translate(0,-2)" style="font-family: sans-serif; font-size: 11px; font-weight: bold; fill: #000; opacity: 1;">Sum of Deaths</text></g></g><path class="foreground" d="" style="pointer-events: none; display: none; fill: none;"></path></g></g><g class="mark-rect role-mark marks"><path d="M10,26.19886363636363h30v348.8011363636364h-30Z" style="fill: red; opacity: 0.9;"></path><path d="M710,363.85227272727275h30v11.147727272727252h-30Z" style="fill: red; opacity: 0.9;"></path><path d="M210,206.38636363636365h30v168.61363636363635h-30Z" style="fill: red; opacity: 0.9;"></path><path d="M360,318.01704545454544h30v56.98295454545456h-30Z" style="fill: red; opacity: 0.9;"></path><path d="M460,329.7784090909091h30v45.22159090909088h-30Z" style="fill: red; opacity: 0.9;"></path><path d="M160,138.9034090909091h30v236.0965909090909h-30Z" style="fill: red; opacity: 0.9;"></path><path d="M310,317.9659090909091h30v57.03409090909088h-30Z" style="fill: red; opacity: 0.9;"></path><path d="M510,355.8409090909091h30v19.159090909090878h-30Z" style="fill: red; opacity: 0.9;"></path><path d="M410,328.3636363636364h30v46.636363636363626h-30Z" style="fill: red; opacity: 0.9;"></path><path d="M260,300.73295454545456h30v74.26704545454544h-30Z" style="fill: red; opacity: 0.9;"></path><path d="M60,43.15909090909093h30v331.84090909090907h-30Z" style="fill: red; opacity: 0.9;"></path><path d="M110,91.94318181818181h30v283.0568181818182h-30Z" style="fill: red; opacity: 0.9;"></path><path d="M660,359.8806818181818h30v15.119318181818187h-30Z" style="fill: red; opacity: 0.9;"></path><path d="M610,357.3409090909091h30v17.659090909090878h-30Z" style="fill: red; opacity: 0.9;"></path><path d="M560,356.23295454545456h30v18.76704545454544h-30Z" style="fill: red; opacity: 0.9;"></path></g><g class="mark-group role-title"><g transform="translate(375,-22)"><path class="background" d="M0,0h0v0h0Z" style="pointer-events: none; fill: none;"></path><g><g class="mark-text role-title-text" style="pointer-events: none;"><text text-anchor="middle" transform="translate(0,10)" style="font-family: sans-serif; font-size: 13px; font-weight: bold; fill: #000; opacity: 1;">Total Deaths by top 15 countries as of 04-11-2020</text></g></g><path class="foreground" d="" style="pointer-events: none; display: none; fill: none;"></path></g></g></g><path class="foreground" d="" style="display: none; fill: none;"></path></g></g></g></svg>