<svg class="marks" width="927" height="439" viewBox="0 0 927 439" version="1.1" xmlns="http://www.w3.org/2000/svg" xmlns:xlink="http://www.w3.org/1999/xlink"><rect width="927" height="439" style="fill: white;"></rect><g transform="translate(64,27)"><g class="mark-group role-frame root"><g transform="translate(0,0)"><path class="background" d="M0.5,0.5h750v375h-750Z" style="fill: none; stroke: #ddd;"></path><g><g class="mark-group role-axis"><g transform="translate(0.5,375.5)"><path class="background" d="M0,0h0v0h0Z" style="pointer-events: none; fill: none;"></path><g><g class="mark-rule role-axis-grid" style="pointer-events: none;"><line transform="translate(38,-375)" x2="0" y2="375" style="fill: none; stroke: #ddd; stroke-width: 1; opacity: 1;"></line><line transform="translate(103,-375)" x2="0" y2="375" style="fill: none; stroke: #ddd; stroke-width: 1; opacity: 1;"></line><line transform="translate(169,-375)" x2="0" y2="375" style="fill: none; stroke: #ddd; stroke-width: 1; opacity: 1;"></line><line transform="translate(234,-375)" x2="0" y2="375" style="fill: none; stroke: #ddd; stroke-width: 1; opacity: 1;"></line><line transform="translate(300,-375)" x2="0" y2="375" style="fill: none; stroke: #ddd; stroke-width: 1; opacity: 1;"></line><line transform="translate(366,-375)" x2="0" y2="375" style="fill: none; stroke: #ddd; stroke-width: 1; opacity: 1;"></line><line transform="translate(431,-375)" x2="0" y2="375" style="fill: none; stroke: #ddd; stroke-width: 1; opacity: 1;"></line><line transform="translate(497,-375)" x2="0" y2="375" style="fill: none; stroke: #ddd; stroke-width: 1; opacity: 1;"></line><line transform="translate(563,-375)" x2="0" y2="375" style="fill: none; stroke: #ddd; stroke-width: 1; opacity: 1;"></line><line transform="translate(628,-375)" x2="0" y2="375" style="fill: none; stroke: #ddd; stroke-width: 1; opacity: 1;"></line><line transform="translate(694,-375)" x2="0" y2="375" style="fill: none; stroke: #ddd; stroke-width: 1; opacity: 1;"></line></g></g><path class="foreground" d="" style="pointer-events: none; display: none; fill: none;"></path></g></g><g class="mark-group role-axis"><g transform="translate(0.5,0.5)"><path class="background" d="M0,0h0v0h0Z" style="pointer-events: none; fill: none;"></path><g><g class="mark-rule role-axis-grid" style="pointer-events: none;"><line transform="translate(0,375)" x2="750" y2="0" style="fill: none; stroke: #ddd; stroke-width: 1; opacity: 1;"></line><line transform="translate(0,341)" x2="750" y2="0" style="fill: none; stroke: #ddd; stroke-width: 1; opacity: 1;"></line><line transform="translate(0,307)" x2="750" y2="0" style="fill: none; stroke: #ddd; stroke-width: 1; opacity: 1;"></line><line transform="translate(0,273)" x2="750" y2="0" style="fill: none; stroke: #ddd; stroke-width: 1; opacity: 1;"></line><line transform="translate(0,239)" x2="750" y2="0" style="fill: none; stroke: #ddd; stroke-width: 1; opacity: 1;"></line><line transform="translate(0,205)" x2="750" y2="0" style="fill: none; stroke: #ddd; stroke-width: 1; opacity: 1;"></line><line transform="translate(0,170)" x2="750" y2="0" style="fill: none; stroke: #ddd; stroke-width: 1; opacity: 1;"></line><line transform="translate(0,136)" x2="750" y2="0" style="fill: none; stroke: #ddd; stroke-width: 1; opacity: 1;"></line><line transform="translate(0,102)" x2="750" y2="0" style="fill: none; stroke: #ddd; stroke-width: 1; opacity: 1;"></line><line transform="translate(0,68)" x2="750" y2="0" style="fill: none; stroke: #ddd; stroke-width: 1; opacity: 1;"></line><line transform="translate(0,34)" x2="750" y2="0" style="fill: none; stroke: #ddd; stroke-width: 1; opacity: 1;"></line><line transform="translate(0,0)" x2="750" y2="0" style="fill: none; stroke: #ddd; stroke-width: 1; opacity: 1;"></line></g></g><path class="foreground" d="" style="pointer-events: none; display: none; fill: none;"></path></g></g><g class="mark-group role-axis"><g transform="translate(0.5,375.5)"><path class="background" d="M0,0h0v0h0Z" style="pointer-events: none; fill: none;"></path><g><g class="mark-rule role-axis-tick" style="pointer-events: none;"><line transform="translate(38,0)" x2="0" y2="5" style="fill: none; stroke: #888; stroke-width: 1; opacity: 1;"></line><line transform="translate(103,0)" x2="0" y2="5" style="fill: none; stroke: #888; stroke-width: 1; opacity: 1;"></line><line transform="translate(169,0)" x2="0" y2="5" style="fill: none; stroke: #888; stroke-width: 1; opacity: 1;"></line><line transform="translate(234,0)" x2="0" y2="5" style="fill: none; stroke: #888; stroke-width: 1; opacity: 1;"></line><line transform="translate(300,0)" x2="0" y2="5" style="fill: none; stroke: #888; stroke-width: 1; opacity: 1;"></line><line transform="translate(366,0)" x2="0" y2="5" style="fill: none; stroke: #888; stroke-width: 1; opacity: 1;"></line><line transform="translate(431,0)" x2="0" y2="5" style="fill: none; stroke: #888; stroke-width: 1; opacity: 1;"></line><line transform="translate(497,0)" x2="0" y2="5" style="fill: none; stroke: #888; stroke-width: 1; opacity: 1;"></line><line transform="translate(563,0)" x2="0" y2="5" style="fill: none; stroke: #888; stroke-width: 1; opacity: 1;"></line><line transform="translate(628,0)" x2="0" y2="5" style="fill: none; stroke: #888; stroke-width: 1; opacity: 1;"></line><line transform="translate(694,0)" x2="0" y2="5" style="fill: none; stroke: #888; stroke-width: 1; opacity: 1;"></line></g><g class="mark-text role-axis-label" style="pointer-events: none;"><text text-anchor="middle" transform="translate(37.519541427826994,15)" style="font-family: sans-serif; font-size: 10px; fill: #000; opacity: 1;">Jan 26</text><text text-anchor="middle" transform="translate(103.17873892652422,15)" style="font-family: sans-serif; font-size: 10px; fill: #000; opacity: 1;">Feb 02</text><text text-anchor="middle" transform="translate(168.83793642522147,15)" style="font-family: sans-serif; font-size: 10px; fill: #000; opacity: 1;">Feb 09</text><text text-anchor="middle" transform="translate(234.49713392391868,15)" style="font-family: sans-serif; font-size: 10px; fill: #000; opacity: 1;">Feb 16</text><text text-anchor="middle" transform="translate(300.15633142261595,15)" style="font-family: sans-serif; font-size: 10px; fill: #000; opacity: 1;">Feb 23</text><text text-anchor="middle" transform="translate(365.8155289213132,15)" style="font-family: sans-serif; font-size: 10px; fill: #000; opacity: 1;">March</text><text text-anchor="middle" transform="translate(431.4747264200104,15)" style="font-family: sans-serif; font-size: 10px; fill: #000; opacity: 1;">Mar 08</text><text text-anchor="middle" transform="translate(497.1339239187077,15)" style="font-family: sans-serif; font-size: 10px; fill: #000; opacity: 1;">Mar 15</text><text text-anchor="middle" transform="translate(562.7931214174049,15)" style="font-family: sans-serif; font-size: 10px; fill: #000; opacity: 1;">Mar 22</text><text text-anchor="middle" transform="translate(628.4523189161022,15)" style="font-family: sans-serif; font-size: 10px; fill: #000; opacity: 1;">Mar 29</text><text text-anchor="middle" transform="translate(693.7206878582596,15)" style="font-family: sans-serif; font-size: 10px; fill: #000; opacity: 1;">Apr 05</text></g><g class="mark-rule role-axis-domain" style="pointer-events: none;"><line transform="translate(0,0)" x2="750" y2="0" style="fill: none; stroke: #888; stroke-width: 1; opacity: 1;"></line></g><g class="mark-text role-axis-title" style="pointer-events: none;"><text text-anchor="middle" transform="translate(375,30)" style="font-family: sans-serif; font-size: 11px; font-weight: bold; fill: #000; opacity: 1;">day</text></g></g><path class="foreground" d="" style="pointer-events: none; display: none; fill: none;"></path></g></g><g class="mark-group role-axis"><g transform="translate(0.5,0.5)"><path class="background" d="M0,0h0v0h0Z" style="pointer-events: none; fill: none;"></path><g><g class="mark-rule role-axis-tick" style="pointer-events: none;"><line transform="translate(0,375)" x2="-5" y2="0" style="fill: none; stroke: #888; stroke-width: 1; opacity: 1;"></line><line transform="translate(0,341)" x2="-5" y2="0" style="fill: none; stroke: #888; stroke-width: 1; opacity: 1;"></line><line transform="translate(0,307)" x2="-5" y2="0" style="fill: none; stroke: #888; stroke-width: 1; opacity: 1;"></line><line transform="translate(0,273)" x2="-5" y2="0" style="fill: none; stroke: #888; stroke-width: 1; opacity: 1;"></line><line transform="translate(0,239)" x2="-5" y2="0" style="fill: none; stroke: #888; stroke-width: 1; opacity: 1;"></line><line transform="translate(0,205)" x2="-5" y2="0" style="fill: none; stroke: #888; stroke-width: 1; opacity: 1;"></line><line transform="translate(0,170)" x2="-5" y2="0" style="fill: none; stroke: #888; stroke-width: 1; opacity: 1;"></line><line transform="translate(0,136)" x2="-5" y2="0" style="fill: none; stroke: #888; stroke-width: 1; opacity: 1;"></line><line transform="translate(0,102)" x2="-5" y2="0" style="fill: none; stroke: #888; stroke-width: 1; opacity: 1;"></line><line transform="translate(0,68)" x2="-5" y2="0" style="fill: none; stroke: #888; stroke-width: 1; opacity: 1;"></line><line transform="translate(0,34)" x2="-5" y2="0" style="fill: none; stroke: #888; stroke-width: 1; opacity: 1;"></line><line transform="translate(0,0)" x2="-5" y2="0" style="fill: none; stroke: #888; stroke-width: 1; opacity: 1;"></line></g><g class="mark-text role-axis-label" style="pointer-events: none;"><text text-anchor="end" transform="translate(-7,378)" style="font-family: sans-serif; font-size: 10px; fill: #000; opacity: 1;">0</text><text text-anchor="end" transform="translate(-7,343.9090909090909)" style="font-family: sans-serif; font-size: 10px; fill: #000; opacity: 1;">50,000</text><text text-anchor="end" transform="translate(-7,309.8181818181818)" style="font-family: sans-serif; font-size: 10px; fill: #000; opacity: 1;">100,000</text><text text-anchor="end" transform="translate(-7,275.72727272727275)" style="font-family: sans-serif; font-size: 10px; fill: #000; opacity: 1;">150,000</text><text text-anchor="end" transform="translate(-7,241.63636363636363)" style="font-family: sans-serif; font-size: 10px; fill: #000; opacity: 1;">200,000</text><text text-anchor="end" transform="translate(-7,207.54545454545453)" style="font-family: sans-serif; font-size: 10px; fill: #000; opacity: 1;">250,000</text><text text-anchor="end" transform="translate(-7,173.45454545454547)" style="font-family: sans-serif; font-size: 10px; fill: #000; opacity: 1;">300,000</text><text text-anchor="end" transform="translate(-7,139.36363636363637)" style="font-family: sans-serif; font-size: 10px; fill: #000; opacity: 1;">350,000</text><text text-anchor="end" transform="translate(-7,105.27272727272727)" style="font-family: sans-serif; font-size: 10px; fill: #000; opacity: 1;">400,000</text><text text-anchor="end" transform="translate(-7,71.18181818181816)" style="font-family: sans-serif; font-size: 10px; fill: #000; opacity: 1;">450,000</text><text text-anchor="end" transform="translate(-7,37.0909090909091)" style="font-family: sans-serif; font-size: 10px; fill: #000; opacity: 1;">500,000</text><text text-anchor="end" transform="translate(-7,3)" style="font-family: sans-serif; font-size: 10px; fill: #000; opacity: 1;">550,000</text></g><g class="mark-rule role-axis-domain" style="pointer-events: none;"><line transform="translate(0,375)" x2="0" y2="-375" style="fill: none; stroke: #888; stroke-width: 1; opacity: 1;"></line></g><g class="mark-text role-axis-title" style="pointer-events: none;"><text text-anchor="middle" transform="translate(-47.1474609375,187.5) rotate(-90) translate(0,-2)" style="font-family: sans-serif; font-size: 11px; font-weight: bold; fill: #000; opacity: 1;">Confirmed</text></g></g><path class="foreground" d="" style="pointer-events: none; display: none; fill: none;"></path></g></g><g class="mark-group role-scope pathgroup"><g transform="translate(0,0)"><path class="background" d="M0,0h750v375h-750Z" style="fill: none;"></path><g><g class="mark-line role-mark marks"><path d="M0,374.62636363636364L9.379885356956748,374.5615909090909L18.759770713913497,374.3727272727273L28.139656070870245,374.0413636363636L37.519541427826994,373.58522727272725L46.89942678478375,373.0384090909091L56.27931214174049,371.24386363636364L65.65919749869724,370.84977272727275L75.03908285565399,369.44931818181817L84.41896821261074,368.3168181818182L93.7988535695675,366.8925L103.17873892652422,363.66136363636366L112.55862428348098,361.55727272727273L121.93850964043773,358.8361363636364L131.31839499739448,356.2909090909091L140.69828035435123,354.14522727272725L150.07816571130797,351.7431818181818L159.45805106826472,349.89954545454543L168.83793642522147,347.84386363636366L178.21782178217822,346.12227272727273L187.597707139135,344.7368181818182L196.97759249609172,344.4825L206.35747785304844,334.1625L215.7373632100052,329.7559090909091L225.11724856696196,328.35477272727275L234.49713392391868,326.92295454545456L243.87701928087546,325.61318181818183L253.2569046378322,324.40159090909094L262.63678999478896,324.1234090909091L272.0166753517457,323.81113636363636L281.39656070870245,323.4886363636364L290.77644606565923,322.4993181818182L300.15633142261595,322.485L309.5362167795727,322.33568181818185L318.91610213652945,321.9859090909091L328.29598749348617,321.705L337.67587285044294,321.40909090909093L347.05575820739966,321.18545454545455L356.43564356435644,320.89363636363635L365.8155289213132,320.5009090909091L375.19541427827,320.3618181818182L384.57529963522666,320.27659090909094L393.95518499218343,320.19136363636363L403.3350703491402,320.0884090909091L412.7149557060969,319.9840909090909L422.09484106305365,319.92954545454546L431.4747264200104,319.8934090909091L440.85461177696715,319.8681818181818L450.2344971339239,319.84977272727275L459.6143824908807,319.8265909090909L468.99426784783736,319.8190909090909L478.37415320479414,319.8102272727273L487.7540385617509,319.7884090909091L497.1339239187077,319.7706818181818L506.5138092756644,319.7502272727273L515.8936946326212,319.73318181818183L525.2735799895779,319.7031818181818L534.6534653465346,319.66636363636366L544.0333507034914,319.60227272727275L553.4132360604482,319.5647727272727L562.7931214174049,319.47613636363633L572.1730067743616,319.4331818181818L581.5528921313185,319.36977272727273L590.9327774882751,319.32204545454545L600.3126628452319,319.23954545454546L609.6925482021886,319.1611363636364L619.0724335591455,319.0915909090909L628.4523189161022,319.00772727272727L637.441375716519,318.9559090909091L646.8212610734757,318.9006818181818L656.2011464304325,318.84477272727275L665.5810317873893,318.79636363636365L674.960917144346,318.7425L684.3408025013027,318.72068181818184L693.7206878582596,318.68045454545455L703.1005732152163,318.6375L712.480458572173,318.6013636363636L721.8603439291297,318.53931818181815L731.2402292860866,318.48886363636365L740.6201146430433,318.44931818181817L750,318.3995454545455" style="fill: none; stroke: #4c78a8; stroke-width: 2;"></path></g></g><path class="foreground" d="" style="display: none; fill: none;"></path></g><g transform="translate(0,0)"><path class="background" d="M0,0h750v375h-750Z" style="fill: none;"></path><g><g class="mark-line role-mark marks"><path d="M0,375L9.379885356956748,375L18.759770713913497,375L28.139656070870245,375L37.519541427826994,375L46.89942678478375,375L56.27931214174049,375L65.65919749869724,375L75.03908285565399,375L84.41896821261074,374.99863636363636L93.7988535695675,374.99863636363636L103.17873892652422,374.99863636363636L112.55862428348098,374.99863636363636L121.93850964043773,374.99863636363636L131.31839499739448,374.99863636363636L140.69828035435123,374.99863636363636L150.07816571130797,374.99795454545455L159.45805106826472,374.99795454545455L168.83793642522147,374.99795454545455L178.21782178217822,374.99795454545455L187.597707139135,374.99795454545455L196.97759249609172,374.99795454545455L206.35747785304844,374.99795454545455L215.7373632100052,374.99795454545455L225.11724856696196,374.99795454545455L234.49713392391868,374.99795454545455L243.87701928087546,374.99795454545455L253.2569046378322,374.99795454545455L262.63678999478896,374.99795454545455L272.0166753517457,374.99795454545455L281.39656070870245,374.98636363636365L290.77644606565923,374.95772727272725L300.15633142261595,374.89431818181816L309.5362167795727,374.8438636363636L318.91610213652945,374.7804545454545L328.29598749348617,374.69113636363636L337.67587285044294,374.5534090909091L347.05575820739966,374.3945454545455L356.43564356435644,374.2309090909091L365.8155289213132,373.845L375.19541427827,373.6118181818182L384.57529963522666,373.29409090909087L393.95518499218343,372.8938636363636L403.3350703491402,372.36954545454546L412.7149557060969,371.8390909090909L422.09484106305365,370.98886363636365L431.4747264200104,369.9715909090909L440.85461177696715,368.74636363636364L450.2344971339239,368.08022727272726L459.6143824908807,366.5031818181818L468.99426784783736,366.5031818181818L478.37415320479414,362.95909090909095L487.7540385617509,360.5747727272727L497.1339239187077,358.12704545454545L506.5138092756644,355.9227272727273L515.8936946326212,353.5186363636364L525.2735799895779,350.6502272727273L534.6534653465346,347.02159090909095L544.0333507034914,342.94022727272727L553.4132360604482,338.4695454545455L562.7931214174049,334.6786363636364L572.1730067743616,331.4134090909091L581.5528921313185,327.83454545454543L590.9327774882751,324.28227272727275L600.3126628452319,320.05295454545455L609.6925482021886,316.0240909090909L619.0724335591455,311.9509090909091L628.4523189161022,308.3938636363636L637.441375716519,305.6325L646.8212610734757,302.8690909090909L656.2011464304325,299.6086363636364L665.5810317873893,296.4259090909091L674.960917144346,293.29977272727274L684.3408025013027,290.0236363636364L693.7206878582596,287.08090909090913L703.1005732152163,284.62704545454545L712.480458572173,282.555L721.8603439291297,279.93954545454545L731.2402292860866,277.0731818181818L740.6201146430433,274.37931818181823L750,271.17886363636364" style="fill: none; stroke: #9ecae9; stroke-width: 2;"></path></g></g><path class="foreground" d="" style="display: none; fill: none;"></path></g><g transform="translate(0,0)"><path class="background" d="M0,0h750v375h-750Z" style="fill: none;"></path><g><g class="mark-line role-mark marks"><path d="M0,375L9.379885356956748,375L18.759770713913497,375L28.139656070870245,375L37.519541427826994,375L46.89942678478375,375L56.27931214174049,375L65.65919749869724,375L75.03908285565399,375L84.41896821261074,375L93.7988535695675,374.9993181818182L103.17873892652422,374.9993181818182L112.55862428348098,374.9993181818182L121.93850964043773,374.9993181818182L131.31839499739448,374.9993181818182L140.69828035435123,374.9993181818182L150.07816571130797,374.9993181818182L159.45805106826472,374.9993181818182L168.83793642522147,374.99863636363636L178.21782178217822,374.99863636363636L187.597707139135,374.99863636363636L196.97759249609172,374.99863636363636L206.35747785304844,374.99863636363636L215.7373632100052,374.99863636363636L225.11724856696196,374.99863636363636L234.49713392391868,374.99863636363636L243.87701928087546,374.99863636363636L253.2569046378322,374.99863636363636L262.63678999478896,374.99863636363636L272.0166753517457,374.99863636363636L281.39656070870245,374.99863636363636L290.77644606565923,374.99863636363636L300.15633142261595,374.99863636363636L309.5362167795727,374.99863636363636L318.91610213652945,374.9959090909091L328.29598749348617,374.9911363636364L337.67587285044294,374.98977272727274L347.05575820739966,374.9781818181818L356.43564356435644,374.9693181818182L365.8155289213132,374.94272727272727L375.19541427827,374.91818181818184L384.57529963522666,374.8875L393.95518499218343,374.84863636363633L403.3350703491402,374.8234090909091L412.7149557060969,374.72727272727275L422.09484106305365,374.65909090909093L431.4747264200104,374.5411363636364L440.85461177696715,374.2684090909091L450.2344971339239,373.84431818181815L459.6143824908807,373.4475L468.99426784783736,373.4475L478.37415320479414,371.4327272727273L487.7540385617509,370.64250000000004L497.1339239187077,369.6831818181818L506.5138092756644,368.2213636363636L515.8936946326212,366.99L525.2735799895779,365.5159090909091L534.6534653465346,362.7525L544.0333507034914,361.08409090909095L553.4132360604482,357.69954545454544L562.7931214174049,355.38545454545454L572.1730067743616,351.0436363636364L581.5528921313185,347.8056818181818L590.9327774882751,341.23977272727274L600.3126628452319,335.6004545454545L609.6925482021886,330.1915909090909L619.0724335591455,325.06704545454545L628.4523189161022,320.37954545454545L637.441375716519,315.03L646.8212610734757,309.59795454545457L656.2011464304325,304.01045454545454L665.5810317873893,298.5920454545454L674.960917144346,293.72795454545457L684.3408025013027,288.97636363636366L693.7206878582596,285.24136363636364L703.1005732152163,281.8125L712.480458572173,278.2213636363636L721.8603439291297,273.9409090909091L731.2402292860866,270.5304545454546L740.6201146430433,267.08659090909094L750,263.8452272727273" style="fill: none; stroke: #f58518; stroke-width: 2;"></path></g></g><path class="foreground" d="" style="display: none; fill: none;"></path></g><g transform="translate(0,0)"><path class="background" d="M0,0h750v375h-750Z" style="fill: none;"></path><g><g class="mark-line role-mark marks"><path d="M0,374.9993181818182L9.379885356956748,374.9993181818182L18.759770713913497,374.99863636363636L28.139656070870245,374.99863636363636L37.519541427826994,374.9965909090909L46.89942678478375,374.9965909090909L56.27931214174049,374.9965909090909L65.65919749869724,374.9965909090909L75.03908285565399,374.9965909090909L84.41896821261074,374.9952272727273L93.7988535695675,374.99454545454546L103.17873892652422,374.99454545454546L112.55862428348098,374.9925L121.93850964043773,374.9925L131.31839499739448,374.9925L140.69828035435123,374.9925L150.07816571130797,374.9925L159.45805106826472,374.9925L168.83793642522147,374.9925L178.21782178217822,374.9925L187.597707139135,374.9918181818182L196.97759249609172,374.9918181818182L206.35747785304844,374.9911363636364L215.7373632100052,374.9911363636364L225.11724856696196,374.9911363636364L234.49713392391868,374.9911363636364L243.87701928087546,374.9911363636364L253.2569046378322,374.9911363636364L262.63678999478896,374.9911363636364L272.0166753517457,374.9911363636364L281.39656070870245,374.98977272727274L290.77644606565923,374.98977272727274L300.15633142261595,374.98977272727274L309.5362167795727,374.9652272727273L318.91610213652945,374.9652272727273L328.29598749348617,374.96113636363634L337.67587285044294,374.9604545454546L347.05575820739966,374.9590909090909L356.43564356435644,374.9536363636364L365.8155289213132,374.94954545454544L375.19541427827,374.9331818181818L384.57529963522666,374.91954545454547L393.95518499218343,374.89840909090907L403.3350703491402,374.8520454545455L412.7149557060969,374.8213636363636L422.09484106305365,374.72590909090906L431.4747264200104,374.6468181818182L440.85461177696715,374.6025L450.2344971339239,374.34613636363633L459.6143824908807,374.1265909090909L468.99426784783736,373.8661363636364L478.37415320479414,373.51431818181817L487.7540385617509,373.1406818181818L497.1339239187077,372.6143181818182L506.5138092756644,371.84181818181816L515.8936946326212,370.62204545454546L525.2735799895779,369.6934090909091L534.6534653465346,365.62704545454545L544.0333507034914,361.8593181818182L553.4132360604482,357.54545454545456L562.7931214174049,352.3118181818182L572.1730067743616,345.10431818181814L581.5528921313185,338.35909090909087L590.9327774882751,330.15136363636367L600.3126628452319,317.83909090909094L609.6925482021886,305.6884090909091L619.0724335591455,292.18295454545455L628.4523189161022,278.92568181818183L637.441375716519,264.6606818181818L646.8212610734757,246.7009090909091L656.2011464304325,229.51909090909092L665.5810317873893,208.79863636363638L674.960917144346,187.10045454545454L684.3408025013027,164.41840909090908L693.7206878582596,145.1781818181818L703.1005732152163,124.99977272727271L712.480458572173,104.84795454545454L721.8603439291297,82.46454545454544L731.2402292860866,60.383863636363635L740.6201146430433,36.45340909090909L750,16.093636363636364" style="fill: none; stroke: #ffbf79; stroke-width: 2;"></path></g></g><path class="foreground" d="" style="display: none; fill: none;"></path></g><g transform="translate(0,0)"><path class="background" d="M0,0h750v375h-750Z" style="fill: none;"></path><g><g class="mark-line role-mark marks"><path d="M0,375L9.379885356956748,375L18.759770713913497,375L28.139656070870245,375L37.519541427826994,375L46.89942678478375,375L56.27931214174049,375L65.65919749869724,375L75.03908285565399,375L84.41896821261074,374.99863636363636L93.7988535695675,374.99863636363636L103.17873892652422,374.99863636363636L112.55862428348098,374.99863636363636L121.93850964043773,374.99863636363636L131.31839499739448,374.99863636363636L140.69828035435123,374.99863636363636L150.07816571130797,374.99795454545455L159.45805106826472,374.99795454545455L168.83793642522147,374.99795454545455L178.21782178217822,374.99454545454546L187.597707139135,374.99454545454546L196.97759249609172,374.99386363636364L206.35747785304844,374.99386363636364L215.7373632100052,374.99386363636364L225.11724856696196,374.99386363636364L234.49713392391868,374.99386363636364L243.87701928087546,374.99386363636364L253.2569046378322,374.99386363636364L262.63678999478896,374.99386363636364L272.0166753517457,374.99386363636364L281.39656070870245,374.99386363636364L290.77644606565923,374.99386363636364L300.15633142261595,374.99386363636364L309.5362167795727,374.9911363636364L318.91610213652945,374.9911363636364L328.29598749348617,374.9911363636364L337.67587285044294,374.98977272727274L347.05575820739966,374.98636363636365L356.43564356435644,374.9843181818182L365.8155289213132,374.9754545454545L375.19541427827,374.9727272727273L384.57529963522666,374.9652272727273L393.95518499218343,374.94136363636363L403.3350703491402,374.9209090909091L412.7149557060969,374.8881818181818L422.09484106305365,374.85886363636365L431.4747264200104,374.8131818181818L440.85461177696715,374.7804545454545L450.2344971339239,374.73818181818183L459.6143824908807,374.68704545454545L468.99426784783736,374.68704545454545L478.37415320479414,374.4531818181818L487.7540385617509,374.22L497.1339239187077,374.21931818181815L506.5138092756644,373.9425L515.8936946326212,373.6636363636364L525.2735799895779,373.19863636363635L534.6534653465346,373.1481818181818L544.0333507034914,372.2631818181818L553.4132360604482,371.5452272727273L562.7931214174049,371.0829545454545L572.1730067743616,370.41409090909093L581.5528921313185,369.43363636363637L590.9327774882751,368.42727272727274L600.3126628452319,366.9463636363636L609.6925482021886,364.9465909090909L619.0724335591455,363.1963636363636L628.4523189161022,361.51363636363635L637.441375716519,359.69113636363636L646.8212610734757,357.6265909090909L656.2011464304325,354.6375L665.5810317873893,351.70022727272726L674.960917144346,348.62113636363637L684.3408025013027,346.03840909090906L693.7206878582596,341.97545454545457L703.1005732152163,339.3552272727273L712.480458572173,336.85295454545457L721.8603439291297,333.08590909090907L731.2402292860866,330.0872727272727L740.6201146430433,324.13295454545454L750,320.54045454545457" style="fill: none; stroke: #54a24b; stroke-width: 2;"></path></g></g><path class="foreground" d="" style="display: none; fill: none;"></path></g></g><g class="mark-group role-legend"><g transform="translate(770,0)"><path class="background" d="M0,0h88v79h-88Z" style="pointer-events: none; fill: none;"></path><g><g class="mark-group role-legend-entry"><g transform="translate(0,16)"><path class="background" d="M0,0h0v0h0Z" style="pointer-events: none; fill: none;"></path><g><g class="mark-group role-scope"><g transform="translate(0,0)"><path class="background" d="M0,0h87.15234375v11h-87.15234375Z" style="pointer-events: none; fill: none; opacity: 1;"></path><g><g class="mark-symbol role-legend-symbol" style="pointer-events: none;"><path transform="translate(6,6)" d="M-5,0L5,0" style="fill: none; stroke: #4c78a8; stroke-width: 1.5; opacity: 1;"></path></g><g class="mark-text role-legend-label" style="pointer-events: none;"><text text-anchor="start" transform="translate(16,9)" style="font-family: sans-serif; font-size: 10px; fill: #000; opacity: 1;">China</text></g></g><path class="foreground" d="" style="pointer-events: none; display: none; fill: none;"></path></g><g transform="translate(0,13)"><path class="background" d="M0,0h87.15234375v11h-87.15234375Z" style="pointer-events: none; fill: none; opacity: 1;"></path><g><g class="mark-symbol role-legend-symbol" style="pointer-events: none;"><path transform="translate(6,6)" d="M-5,0L5,0" style="fill: none; stroke: #9ecae9; stroke-width: 1.5; opacity: 1;"></path></g><g class="mark-text role-legend-label" style="pointer-events: none;"><text text-anchor="start" transform="translate(16,9)" style="font-family: sans-serif; font-size: 10px; fill: #000; opacity: 1;">Italy</text></g></g><path class="foreground" d="" style="pointer-events: none; display: none; fill: none;"></path></g><g transform="translate(0,26)"><path class="background" d="M0,0h87.15234375v11h-87.15234375Z" style="pointer-events: none; fill: none; opacity: 1;"></path><g><g class="mark-symbol role-legend-symbol" style="pointer-events: none;"><path transform="translate(6,6)" d="M-5,0L5,0" style="fill: none; stroke: #f58518; stroke-width: 1.5; opacity: 1;"></path></g><g class="mark-text role-legend-label" style="pointer-events: none;"><text text-anchor="start" transform="translate(16,9)" style="font-family: sans-serif; font-size: 10px; fill: #000; opacity: 1;">Spain</text></g></g><path class="foreground" d="" style="pointer-events: none; display: none; fill: none;"></path></g><g transform="translate(0,39)"><path class="background" d="M0,0h87.15234375v11h-87.15234375Z" style="pointer-events: none; fill: none; opacity: 1;"></path><g><g class="mark-symbol role-legend-symbol" style="pointer-events: none;"><path transform="translate(6,6)" d="M-5,0L5,0" style="fill: none; stroke: #ffbf79; stroke-width: 1.5; opacity: 1;"></path></g><g class="mark-text role-legend-label" style="pointer-events: none;"><text text-anchor="start" transform="translate(16,9)" style="font-family: sans-serif; font-size: 10px; fill: #000; opacity: 1;">US</text></g></g><path class="foreground" d="" style="pointer-events: none; display: none; fill: none;"></path></g><g transform="translate(0,52)"><path class="background" d="M0,0h87.15234375v11h-87.15234375Z" style="pointer-events: none; fill: none; opacity: 1;"></path><g><g class="mark-symbol role-legend-symbol" style="pointer-events: none;"><path transform="translate(6,6)" d="M-5,0L5,0" style="fill: none; stroke: #54a24b; stroke-width: 1.5; opacity: 1;"></path></g><g class="mark-text role-legend-label" style="pointer-events: none;"><text text-anchor="start" transform="translate(16,9)" style="font-family: sans-serif; font-size: 10px; fill: #000; opacity: 1;">United Kingdom</text></g></g><path class="foreground" d="" style="pointer-events: none; display: none; fill: none;"></path></g></g></g><path class="foreground" d="" style="pointer-events: none; display: none; fill: none;"></path></g></g><g class="mark-text role-legend-title" style="pointer-events: none;"><text text-anchor="start" transform="translate(0,9)" style="font-family: sans-serif; font-size: 11px; font-weight: bold; fill: #000; opacity: 1;">country</text></g></g><path class="foreground" d="" style="pointer-events: none; display: none; fill: none;"></path></g></g><g class="mark-group role-title"><g transform="translate(375,-22)"><path class="background" d="M0,0h0v0h0Z" style="pointer-events: none; fill: none;"></path><g><g class="mark-text role-title-text" style="pointer-events: none;"><text text-anchor="middle" transform="translate(0,10)" style="font-family: sans-serif; font-size: 13px; font-weight: bold; fill: #000; opacity: 1;">Confirmed by day in ['China', 'Italy', 'Spain', 'US', 'United Kingdom'] as of 04-11-2020</text></g></g><path class="foreground" d="" style="pointer-events: none; display: none; fill: none;"></path></g></g></g><path class="foreground" d="" style="display: none; fill: none;"></path></g></g></g></svg>