<svg class="marks" width="921" height="439" viewBox="0 0 921 439" version="1.1" xmlns="http://www.w3.org/2000/svg" xmlns:xlink="http://www.w3.org/1999/xlink"><rect width="921" height="439" style="fill: white;"></rect><g transform="translate(58,27)"><g class="mark-group role-frame root"><g transform="translate(0,0)"><path class="background" d="M0.5,0.5h750v375h-750Z" style="fill: none; stroke: #ddd;"></path><g><g class="mark-group role-axis"><g transform="translate(0.5,375.5)"><path class="background" d="M0,0h0v0h0Z" style="pointer-events: none; fill: none;"></path><g><g class="mark-rule role-axis-grid" style="pointer-events: none;"><line transform="translate(32,-375)" x2="0" y2="375" style="fill: none; stroke: #ddd; stroke-width: 1; opacity: 1;"></line><line transform="translate(88,-375)" x2="0" y2="375" style="fill: none; stroke: #ddd; stroke-width: 1; opacity: 1;"></line><line transform="translate(144,-375)" x2="0" y2="375" style="fill: none; stroke: #ddd; stroke-width: 1; opacity: 1;"></line><line transform="translate(200,-375)" x2="0" y2="375" style="fill: none; stroke: #ddd; stroke-width: 1; opacity: 1;"></line><line transform="translate(255,-375)" x2="0" y2="375" style="fill: none; stroke: #ddd; stroke-width: 1; opacity: 1;"></line><line transform="translate(311,-375)" x2="0" y2="375" style="fill: none; stroke: #ddd; stroke-width: 1; opacity: 1;"></line><line transform="translate(367,-375)" x2="0" y2="375" style="fill: none; stroke: #ddd; stroke-width: 1; opacity: 1;"></line><line transform="translate(423,-375)" x2="0" y2="375" style="fill: none; stroke: #ddd; stroke-width: 1; opacity: 1;"></line><line transform="translate(479,-375)" x2="0" y2="375" style="fill: none; stroke: #ddd; stroke-width: 1; opacity: 1;"></line><line transform="translate(535,-375)" x2="0" y2="375" style="fill: none; stroke: #ddd; stroke-width: 1; opacity: 1;"></line><line transform="translate(590,-375)" x2="0" y2="375" style="fill: none; stroke: #ddd; stroke-width: 1; opacity: 1;"></line><line transform="translate(646,-375)" x2="0" y2="375" style="fill: none; stroke: #ddd; stroke-width: 1; opacity: 1;"></line><line transform="translate(702,-375)" x2="0" y2="375" style="fill: none; stroke: #ddd; stroke-width: 1; opacity: 1;"></line></g></g><path class="foreground" d="" style="pointer-events: none; display: none; fill: none;"></path></g></g><g class="mark-group role-axis"><g transform="translate(0.5,0.5)"><path class="background" d="M0,0h0v0h0Z" style="pointer-events: none; fill: none;"></path><g><g class="mark-rule role-axis-grid" style="pointer-events: none;"><line transform="translate(0,375)" x2="750" y2="0" style="fill: none; stroke: #ddd; stroke-width: 1; opacity: 1;"></line><line transform="translate(0,341)" x2="750" y2="0" style="fill: none; stroke: #ddd; stroke-width: 1; opacity: 1;"></line><line transform="translate(0,307)" x2="750" y2="0" style="fill: none; stroke: #ddd; stroke-width: 1; opacity: 1;"></line><line transform="translate(0,273)" x2="750" y2="0" style="fill: none; stroke: #ddd; stroke-width: 1; opacity: 1;"></line><line transform="translate(0,239)" x2="750" y2="0" style="fill: none; stroke: #ddd; stroke-width: 1; opacity: 1;"></line><line transform="translate(0,205)" x2="750" y2="0" style="fill: none; stroke: #ddd; stroke-width: 1; opacity: 1;"></line><line transform="translate(0,170)" x2="750" y2="0" style="fill: none; stroke: #ddd; stroke-width: 1; opacity: 1;"></line><line transform="translate(0,136)" x2="750" y2="0" style="fill: none; stroke: #ddd; stroke-width: 1; opacity: 1;"></line><line transform="translate(0,102)" x2="750" y2="0" style="fill: none; stroke: #ddd; stroke-width: 1; opacity: 1;"></line><line transform="translate(0,68)" x2="750" y2="0" style="fill: none; stroke: #ddd; stroke-width: 1; opacity: 1;"></line><line transform="translate(0,34)" x2="750" y2="0" style="fill: none; stroke: #ddd; stroke-width: 1; opacity: 1;"></line><line transform="translate(0,0)" x2="750" y2="0" style="fill: none; stroke: #ddd; stroke-width: 1; opacity: 1;"></line></g></g><path class="foreground" d="" style="pointer-events: none; display: none; fill: none;"></path></g></g><g class="mark-group role-axis"><g transform="translate(0.5,375.5)"><path class="background" d="M0,0h0v0h0Z" style="pointer-events: none; fill: none;"></path><g><g class="mark-rule role-axis-tick" style="pointer-events: none;"><line transform="translate(32,0)" x2="0" y2="5" style="fill: none; stroke: #888; stroke-width: 1; opacity: 1;"></line><line transform="translate(88,0)" x2="0" y2="5" style="fill: none; stroke: #888; stroke-width: 1; opacity: 1;"></line><line transform="translate(144,0)" x2="0" y2="5" style="fill: none; stroke: #888; stroke-width: 1; opacity: 1;"></line><line transform="translate(200,0)" x2="0" y2="5" style="fill: none; stroke: #888; stroke-width: 1; opacity: 1;"></line><line transform="translate(255,0)" x2="0" y2="5" style="fill: none; stroke: #888; stroke-width: 1; opacity: 1;"></line><line transform="translate(311,0)" x2="0" y2="5" style="fill: none; stroke: #888; stroke-width: 1; opacity: 1;"></line><line transform="translate(367,0)" x2="0" y2="5" style="fill: none; stroke: #888; stroke-width: 1; opacity: 1;"></line><line transform="translate(423,0)" x2="0" y2="5" style="fill: none; stroke: #888; stroke-width: 1; opacity: 1;"></line><line transform="translate(479,0)" x2="0" y2="5" style="fill: none; stroke: #888; stroke-width: 1; opacity: 1;"></line><line transform="translate(535,0)" x2="0" y2="5" style="fill: none; stroke: #888; stroke-width: 1; opacity: 1;"></line><line transform="translate(590,0)" x2="0" y2="5" style="fill: none; stroke: #888; stroke-width: 1; opacity: 1;"></line><line transform="translate(646,0)" x2="0" y2="5" style="fill: none; stroke: #888; stroke-width: 1; opacity: 1;"></line><line transform="translate(702,0)" x2="0" y2="5" style="fill: none; stroke: #888; stroke-width: 1; opacity: 1;"></line></g><g class="mark-text role-axis-label" style="pointer-events: none;"><text text-anchor="middle" transform="translate(31.929046563192905,15)" style="font-family: sans-serif; font-size: 10px; fill: #000; opacity: 1;">Jan 26</text><text text-anchor="middle" transform="translate(87.8048780487805,15)" style="font-family: sans-serif; font-size: 10px; fill: #000; opacity: 1;">Feb 02</text><text text-anchor="middle" transform="translate(143.68070953436808,15)" style="font-family: sans-serif; font-size: 10px; fill: #000; opacity: 1;">Feb 09</text><text text-anchor="middle" transform="translate(199.55654101995563,15)" style="font-family: sans-serif; font-size: 10px; fill: #000; opacity: 1;">Feb 16</text><text text-anchor="middle" transform="translate(255.43237250554324,15)" style="font-family: sans-serif; font-size: 10px; fill: #000; opacity: 1;">Feb 23</text><text text-anchor="middle" transform="translate(311.3082039911308,15)" style="font-family: sans-serif; font-size: 10px; fill: #000; opacity: 1;">March</text><text text-anchor="middle" transform="translate(367.1840354767184,15)" style="font-family: sans-serif; font-size: 10px; fill: #000; opacity: 1;">Mar 08</text><text text-anchor="middle" transform="translate(423.059866962306,15)" style="font-family: sans-serif; font-size: 10px; fill: #000; opacity: 1;">Mar 15</text><text text-anchor="middle" transform="translate(478.93569844789357,15)" style="font-family: sans-serif; font-size: 10px; fill: #000; opacity: 1;">Mar 22</text><text text-anchor="middle" transform="translate(534.8115299334812,15)" style="font-family: sans-serif; font-size: 10px; fill: #000; opacity: 1;">Mar 29</text><text text-anchor="middle" transform="translate(590.3547671840355,15)" style="font-family: sans-serif; font-size: 10px; fill: #000; opacity: 1;">Apr 05</text><text text-anchor="middle" transform="translate(646.2305986696231,15)" style="font-family: sans-serif; font-size: 10px; fill: #000; opacity: 1;">Apr 12</text><text text-anchor="middle" transform="translate(702.1064301552107,15)" style="font-family: sans-serif; font-size: 10px; fill: #000; opacity: 1;">Apr 19</text></g><g class="mark-rule role-axis-domain" style="pointer-events: none;"><line transform="translate(0,0)" x2="750" y2="0" style="fill: none; stroke: #888; stroke-width: 1; opacity: 1;"></line></g><g class="mark-text role-axis-title" style="pointer-events: none;"><text text-anchor="middle" transform="translate(375,30)" style="font-family: sans-serif; font-size: 11px; font-weight: bold; fill: #000; opacity: 1;">day</text></g></g><path class="foreground" d="" style="pointer-events: none; display: none; fill: none;"></path></g></g><g class="mark-group role-axis"><g transform="translate(0.5,0.5)"><path class="background" d="M0,0h0v0h0Z" style="pointer-events: none; fill: none;"></path><g><g class="mark-rule role-axis-tick" style="pointer-events: none;"><line transform="translate(0,375)" x2="-5" y2="0" style="fill: none; stroke: #888; stroke-width: 1; opacity: 1;"></line><line transform="translate(0,341)" x2="-5" y2="0" style="fill: none; stroke: #888; stroke-width: 1; opacity: 1;"></line><line transform="translate(0,307)" x2="-5" y2="0" style="fill: none; stroke: #888; stroke-width: 1; opacity: 1;"></line><line transform="translate(0,273)" x2="-5" y2="0" style="fill: none; stroke: #888; stroke-width: 1; opacity: 1;"></line><line transform="translate(0,239)" x2="-5" y2="0" style="fill: none; stroke: #888; stroke-width: 1; opacity: 1;"></line><line transform="translate(0,205)" x2="-5" y2="0" style="fill: none; stroke: #888; stroke-width: 1; opacity: 1;"></line><line transform="translate(0,170)" x2="-5" y2="0" style="fill: none; stroke: #888; stroke-width: 1; opacity: 1;"></line><line transform="translate(0,136)" x2="-5" y2="0" style="fill: none; stroke: #888; stroke-width: 1; opacity: 1;"></line><line transform="translate(0,102)" x2="-5" y2="0" style="fill: none; stroke: #888; stroke-width: 1; opacity: 1;"></line><line transform="translate(0,68)" x2="-5" y2="0" style="fill: none; stroke: #888; stroke-width: 1; opacity: 1;"></line><line transform="translate(0,34)" x2="-5" y2="0" style="fill: none; stroke: #888; stroke-width: 1; opacity: 1;"></line><line transform="translate(0,0)" x2="-5" y2="0" style="fill: none; stroke: #888; stroke-width: 1; opacity: 1;"></line></g><g class="mark-text role-axis-label" style="pointer-events: none;"><text text-anchor="end" transform="translate(-7,378)" style="font-family: sans-serif; font-size: 10px; fill: #000; opacity: 1;">0</text><text text-anchor="end" transform="translate(-7,343.9090909090909)" style="font-family: sans-serif; font-size: 10px; fill: #000; opacity: 1;">5,000</text><text text-anchor="end" transform="translate(-7,309.8181818181818)" style="font-family: sans-serif; font-size: 10px; fill: #000; opacity: 1;">10,000</text><text text-anchor="end" transform="translate(-7,275.72727272727275)" style="font-family: sans-serif; font-size: 10px; fill: #000; opacity: 1;">15,000</text><text text-anchor="end" transform="translate(-7,241.63636363636363)" style="font-family: sans-serif; font-size: 10px; fill: #000; opacity: 1;">20,000</text><text text-anchor="end" transform="translate(-7,207.54545454545453)" style="font-family: sans-serif; font-size: 10px; fill: #000; opacity: 1;">25,000</text><text text-anchor="end" transform="translate(-7,173.45454545454547)" style="font-family: sans-serif; font-size: 10px; fill: #000; opacity: 1;">30,000</text><text text-anchor="end" transform="translate(-7,139.36363636363637)" style="font-family: sans-serif; font-size: 10px; fill: #000; opacity: 1;">35,000</text><text text-anchor="end" transform="translate(-7,105.27272727272727)" style="font-family: sans-serif; font-size: 10px; fill: #000; opacity: 1;">40,000</text><text text-anchor="end" transform="translate(-7,71.18181818181816)" style="font-family: sans-serif; font-size: 10px; fill: #000; opacity: 1;">45,000</text><text text-anchor="end" transform="translate(-7,37.0909090909091)" style="font-family: sans-serif; font-size: 10px; fill: #000; opacity: 1;">50,000</text><text text-anchor="end" transform="translate(-7,3)" style="font-family: sans-serif; font-size: 10px; fill: #000; opacity: 1;">55,000</text></g><g class="mark-rule role-axis-domain" style="pointer-events: none;"><line transform="translate(0,375)" x2="0" y2="-375" style="fill: none; stroke: #888; stroke-width: 1; opacity: 1;"></line></g><g class="mark-text role-axis-title" style="pointer-events: none;"><text text-anchor="middle" transform="translate(-41.5859375,187.5) rotate(-90) translate(0,-2)" style="font-family: sans-serif; font-size: 11px; font-weight: bold; fill: #000; opacity: 1;">Deaths</text></g></g><path class="foreground" d="" style="pointer-events: none; display: none; fill: none;"></path></g></g><g class="mark-group role-scope pathgroup"><g transform="translate(0,0)"><path class="background" d="M0,0h750v375h-750Z" style="fill: none;"></path><g><g class="mark-line role-mark marks"><path d="M0,374.8840909090909L7.982261640798226,374.8772727272727L15.964523281596453,374.82272727272726L23.946784922394677,374.71363636363634L31.929046563192905,374.6181818181818L39.91130820399113,374.4409090909091L47.893569844789354,374.1068181818182L55.87583148558759,374.09318181818185L63.85809312638581,373.8340909090909L71.84035476718404,373.5477272727273L79.82261640798227,373.2340909090909L87.8048780487805,372.5386363636364L95.78713968957871,372.10227272727275L103.76940133037695,371.65227272727276L111.75166297117518,371.16136363636366L119.73392461197339,370.6840909090909L127.71618625277162,370.1045454545455L135.69844789356986,369.5113636363636L143.68070953436808,368.82954545454544L151.6629711751663,368.1L159.64523281596453,367.41818181818184L167.62749445676275,367.3840909090909L175.609756097561,365.6659090909091L183.5920177383592,364.62954545454545L191.57427937915742,363.66136363636366L199.55654101995563,362.95909090909095L207.5388026607539,362.2909090909091L215.5210643015521,361.34318181818185L223.50332594235036,360.5727272727273L231.48558758314857,359.7409090909091L239.46784922394679,359.7409090909091L247.45011086474503,358.34318181818185L255.43237250554324,358.3295454545455L263.4146341463414,357.3068181818182L271.3968957871397,356.8295454545455L279.3791574279379,356.475L287.36141906873615,356.27727272727276L295.3436807095344,355.97727272727275L303.3259423503326,355.6568181818182L311.3082039911308,355.41818181818184L319.29046563192907,355.1318181818182L327.27272727272725,354.9068181818182L335.2549889135255,354.66136363636366L343.23725055432374,354.4431818181818L351.219512195122,354.24545454545455L359.20177383592016,354.05454545454546L367.1840354767184,353.8636363636364L375.16629711751665,353.70681818181816L383.14855875831483,353.5977272727273L391.1308203991131,353.44772727272726L399.11308203991126,353.3727272727273L407.09534368070956,353.3181818181818L415.0776053215078,353.2295454545455L423.059866962306,353.16136363636366L431.0421286031042,353.0659090909091L439.0243902439024,352.97727272727275L447.0066518847007,352.90227272727276L454.9889135254989,352.8477272727273L462.97117516629714,352.82045454545454L470.95343680709533,352.7795454545455L478.93569844789357,352.67727272727274L486.91796008869176,352.67727272727274L494.90022172949006,352.62954545454545L502.88248337028824,352.60227272727275L510.8647450110865,352.56136363636364L518.8470066518847,352.5272727272727L526.8292682926829,352.5068181818182L534.8115299334812,352.4727272727273L542.4611973392462,352.44545454545454L550.4434589800443,352.43863636363636L558.4257206208425,352.3909090909091L566.4079822616408,352.35L574.390243902439,352.32272727272726L582.3725055432373,352.29545454545456L590.3547671840355,352.275L598.3370288248336,352.2613636363636L606.319290465632,352.2613636363636L614.3015521064302,352.2477272727273L622.2838137472284,352.2340909090909L630.2660753880266,352.22727272727275L638.2483370288248,352.20681818181816L646.2305986696231,352.20681818181816L654.2128603104213,352.1931818181818L662.1951219512196,352.1931818181818L670.1773835920177,352.18636363636364L678.1596452328159,352.18636363636364L686.1419068736142,343.3909090909091L694.1241685144124,343.3909090909091L702.1064301552107,343.3909090909091L710.0886917960089,343.3909090909091L718.070953436807,343.3909090909091L726.0532150776053,343.3909090909091L734.0354767184036,343.3909090909091L742.0177383592018,343.3909090909091L750,343.3909090909091" style="fill: none; stroke: #4c78a8; stroke-width: 2;"></path></g></g><path class="foreground" d="" style="display: none; fill: none;"></path></g><g transform="translate(0,0)"><path class="background" d="M0,0h750v375h-750Z" style="fill: none;"></path><g><g class="mark-line role-mark marks"><path d="M0,375L7.982261640798226,375L15.964523281596453,375L23.946784922394677,375L31.929046563192905,375L39.91130820399113,375L47.893569844789354,375L55.87583148558759,375L63.85809312638581,375L71.84035476718404,375L79.82261640798227,375L87.8048780487805,375L95.78713968957871,375L103.76940133037695,375L111.75166297117518,375L119.73392461197339,375L127.71618625277162,375L135.69844789356986,375L143.68070953436808,375L151.6629711751663,375L159.64523281596453,375L167.62749445676275,375L175.609756097561,375L183.5920177383592,375L191.57427937915742,375L199.55654101995563,375L207.5388026607539,375L215.5210643015521,375L223.50332594235036,375L231.48558758314857,375L239.46784922394679,374.9931818181818L247.45011086474503,374.98636363636365L255.43237250554324,374.9795454545455L263.4146341463414,374.9522727272727L271.3968957871397,374.9318181818182L279.3791574279379,374.91818181818184L287.36141906873615,374.8840909090909L295.3436807095344,374.8568181818182L303.3259423503326,374.80227272727274L311.3082039911308,374.7681818181818L319.29046563192907,374.6454545454545L327.27272727272725,374.4613636363636L335.2549889135255,374.2704545454545L343.23725055432374,373.9909090909091L351.219512195122,373.6568181818182L359.20177383592016,373.41136363636366L367.1840354767184,372.50454545454545L375.16629711751665,371.84318181818185L383.14855875831483,370.69772727272726L391.1308203991131,369.36136363636365L399.11308203991126,369.36136363636365L407.09534368070956,366.3681818181818L415.0776053215078,365.175L423.059866962306,362.6659090909091L431.0421286031042,360.28636363636366L439.0243902439024,357.9340909090909L447.0066518847007,354.69545454545454L454.9889135254989,351.78409090909093L462.97117516629714,347.5090909090909L470.95343680709533,342.1022727272727L478.93569844789357,337.66363636363633L486.91796008869176,333.5659090909091L494.90022172949006,328.5L502.88248337028824,323.84318181818185L510.8647450110865,318.9886363636364L518.8470066518847,312.7227272727273L526.8292682926829,306.66136363636366L534.8115299334812,301.5068181818182L542.4611973392462,295.9704545454545L550.4434589800443,290.26363636363635L558.4257206208425,285.3068181818182L566.4079822616408,280.125L574.390243902439,274.90227272727276L582.3725055432373,270.2590909090909L590.3547671840355,266.67954545454546L598.3370288248336,262.34318181818185L606.319290465632,258.225L614.3015521064302,254.52954545454546L622.2838137472284,250.37045454545455L630.2660753880266,246.48409090909092L638.2483370288248,242.26363636363635L646.2305986696231,239.325L654.2128603104213,235.46590909090912L662.1951219512196,231.36136363636365L670.1773835920177,227.42045454545456L678.1596452328159,223.84090909090907L686.1419068736142,219.92045454545453L694.1241685144124,216.6340909090909L702.1064301552107,213.68181818181816L710.0886917960089,210.58636363636364L718.070953436807,206.9454545454545L726.0532150776053,203.9659090909091L734.0354767184036,200.80227272727274L742.0177383592018,197.93863636363636L750,195.10909090909092" style="fill: none; stroke: #9ecae9; stroke-width: 2;"></path></g></g><path class="foreground" d="" style="display: none; fill: none;"></path></g><g transform="translate(0,0)"><path class="background" d="M0,0h750v375h-750Z" style="fill: none;"></path><g><g class="mark-line role-mark marks"><path d="M0,375L7.982261640798226,375L15.964523281596453,375L23.946784922394677,375L31.929046563192905,375L39.91130820399113,375L47.893569844789354,375L55.87583148558759,375L63.85809312638581,375L71.84035476718404,375L79.82261640798227,375L87.8048780487805,375L95.78713968957871,375L103.76940133037695,375L111.75166297117518,375L119.73392461197339,375L127.71618625277162,375L135.69844789356986,375L143.68070953436808,375L151.6629711751663,375L159.64523281596453,375L167.62749445676275,375L175.609756097561,375L183.5920177383592,375L191.57427937915742,375L199.55654101995563,375L207.5388026607539,375L215.5210643015521,375L223.50332594235036,375L231.48558758314857,375L239.46784922394679,375L247.45011086474503,375L255.43237250554324,375L263.4146341463414,375L271.3968957871397,375L279.3791574279379,375L287.36141906873615,375L295.3436807095344,375L303.3259423503326,375L311.3082039911308,375L319.29046563192907,375L327.27272727272725,374.9931818181818L335.2549889135255,374.98636363636365L343.23725055432374,374.9795454545455L351.219512195122,374.96590909090907L359.20177383592016,374.9318181818182L367.1840354767184,374.8840909090909L375.16629711751665,374.8090909090909L383.14855875831483,374.7613636363636L391.1308203991131,374.6318181818182L399.11308203991126,374.625L407.09534368070956,374.09318181818185L415.0776053215078,373.67045454545456L423.059866962306,373.0295454545455L431.0421286031042,372.66818181818184L439.0243902439024,371.3659090909091L447.0066518847007,370.7522727272727L454.9889135254989,369.3409090909091L462.97117516629714,367.88863636363635L470.95343680709533,365.625L478.93569844789357,362.91818181818184L486.91796008869176,359.2431818181818L494.90022172949006,355.8545454545455L502.88248337028824,350.1340909090909L510.8647450110865,345.2386363636364L518.8470066518847,339.9681818181818L526.8292682926829,334.21363636363634L534.8115299334812,328.6159090909091L542.4611973392462,322.39090909090913L550.4434589800443,317.2909090909091L558.4257206208425,310.9977272727273L566.4079822616408,304.44545454545454L574.390243902439,298.65L582.3725055432373,293.54318181818184L590.3547671840355,288.81136363636364L598.3370288248336,284.0386363636364L606.319290465632,279.2386363636364L614.3015521064302,274.1454545454545L622.2838137472284,269.67954545454546L630.2660753880266,265.3568181818182L638.2483370288248,261.77727272727276L646.2305986696231,257.6659090909091L654.2128603104213,253.93636363636367L662.1951219512196,251.8909090909091L670.1773835920177,247.44545454545454L678.1596452328159,243.30681818181816L686.1419068736142,238.62272727272727L694.1241685144124,238.34318181818185L702.1064301552107,235.54772727272723L710.0886917960089,232.8272727272727L718.070953436807,229.89545454545458L726.0532150776053,226.92954545454546L734.0354767184036,223.92954545454546L742.0177383592018,221.42727272727274L750,218.85" style="fill: none; stroke: #f58518; stroke-width: 2;"></path></g></g><path class="foreground" d="" style="display: none; fill: none;"></path></g><g transform="translate(0,0)"><path class="background" d="M0,0h750v375h-750Z" style="fill: none;"></path><g><g class="mark-line role-mark marks"><path d="M0,375L7.982261640798226,375L15.964523281596453,375L23.946784922394677,375L31.929046563192905,375L39.91130820399113,375L47.893569844789354,375L55.87583148558759,375L63.85809312638581,375L71.84035476718404,375L79.82261640798227,375L87.8048780487805,375L95.78713968957871,375L103.76940133037695,375L111.75166297117518,375L119.73392461197339,375L127.71618625277162,375L135.69844789356986,375L143.68070953436808,375L151.6629711751663,375L159.64523281596453,375L167.62749445676275,375L175.609756097561,375L183.5920177383592,375L191.57427937915742,375L199.55654101995563,375L207.5388026607539,375L215.5210643015521,375L223.50332594235036,375L231.48558758314857,375L239.46784922394679,375L247.45011086474503,375L255.43237250554324,375L263.4146341463414,375L271.3968957871397,375L279.3791574279379,375L287.36141906873615,375L295.3436807095344,375L303.3259423503326,374.9931818181818L311.3082039911308,374.9931818181818L319.29046563192907,374.9590909090909L327.27272727272725,374.9522727272727L335.2549889135255,374.925L343.23725055432374,374.91818181818184L351.219512195122,374.9045454545454L359.20177383592016,374.8840909090909L367.1840354767184,374.8568181818182L375.16629711751665,374.85L383.14855875831483,374.8090909090909L391.1308203991131,374.75454545454545L399.11308203991126,374.72727272727275L407.09534368070956,374.67954545454546L415.0776053215078,374.6318181818182L423.059866962306,374.57045454545454L431.0421286031042,374.42045454545456L439.0243902439024,374.26363636363635L447.0066518847007,374.19545454545454L454.9889135254989,373.6363636363636L462.97117516629714,373.3363636363636L470.95343680709533,372.9068181818182L478.93569844789357,372.1568181818182L486.91796008869176,371.2022727272727L494.90022172949006,370.18636363636364L502.88248337028824,368.5772727272727L510.8647450110865,366.7568181818182L518.8470066518847,364.2204545454546L526.8292682926829,361.18636363636364L534.8115299334812,358.17954545454546L542.4611973392462,354.69545454545454L550.4434589800443,348.5863636363636L558.4257206208425,342.5454545454545L566.4079822616408,334.575L574.390243902439,326.65909090909093L582.3725055432373,317.6727272727273L590.3547671840355,309.4159090909091L598.3370288248336,301.4795454545454L606.319290465632,287.7681818181818L614.3015521064302,274.74545454545455L622.2838137472284,262.2L630.2660753880266,248.2159090909091L638.2483370288248,235.425L646.2305986696231,224.80227272727274L654.2128603104213,214.51363636363638L662.1951219512196,198.7977272727273L670.1773835920177,181.78636363636366L678.1596452328159,150.47727272727272L686.1419068736142,124.17954545454545L694.1241685144124,111.38181818181819L702.1064301552107,97.76590909090909L710.0886917960089,87.99545454545455L718.070953436807,71.97272727272727L726.0532150776053,57.12272727272728L734.0354767184036,34.40454545454546L742.0177383592018,20.80227272727271L750,8.48863636363638" style="fill: none; stroke: #ffbf79; stroke-width: 2;"></path></g></g><path class="foreground" d="" style="display: none; fill: none;"></path></g><g transform="translate(0,0)"><path class="background" d="M0,0h750v375h-750Z" style="fill: none;"></path><g><g class="mark-line role-mark marks"><path d="M0,375L7.982261640798226,375L15.964523281596453,375L23.946784922394677,375L31.929046563192905,375L39.91130820399113,375L47.893569844789354,375L55.87583148558759,375L63.85809312638581,375L71.84035476718404,375L79.82261640798227,375L87.8048780487805,375L95.78713968957871,375L103.76940133037695,375L111.75166297117518,375L119.73392461197339,375L127.71618625277162,375L135.69844789356986,375L143.68070953436808,375L151.6629711751663,375L159.64523281596453,375L167.62749445676275,375L175.609756097561,375L183.5920177383592,375L191.57427937915742,375L199.55654101995563,375L207.5388026607539,375L215.5210643015521,375L223.50332594235036,375L231.48558758314857,375L239.46784922394679,375L247.45011086474503,375L255.43237250554324,375L263.4146341463414,375L271.3968957871397,375L279.3791574279379,375L287.36141906873615,375L295.3436807095344,375L303.3259423503326,375L311.3082039911308,375L319.29046563192907,375L327.27272727272725,375L335.2549889135255,375L343.23725055432374,374.9931818181818L351.219512195122,374.98636363636365L359.20177383592016,374.98636363636365L367.1840354767184,374.9795454545455L375.16629711751665,374.9727272727273L383.14855875831483,374.9590909090909L391.1308203991131,374.94545454545454L399.11308203991126,374.94545454545454L407.09534368070956,374.94545454545454L415.0776053215078,374.8568181818182L423.059866962306,374.8568181818182L431.0421286031042,374.6181818181818L439.0243902439024,374.6181818181818L447.0066518847007,374.5090909090909L454.9889135254989,374.0590909090909L462.97117516629714,373.78636363636366L470.95343680709533,373.4045454545455L478.93569844789357,373.0772727272727L486.91796008869176,372.7090909090909L494.90022172949006,372.1159090909091L502.88248337028824,371.82272727272726L510.8647450110865,371.04545454545456L518.8470066518847,369.81136363636364L526.8292682926829,368.0386363636364L534.8115299334812,366.6068181818182L542.4611973392462,365.37954545454545L550.4434589800443,362.77500000000003L558.4257206208425,358.92954545454546L566.4079822616408,355.05L574.390243902439,350.37954545454545L582.3725055432373,345.5454545454545L590.3547671840355,341.29772727272723L598.3370288248336,338.2840909090909L606.319290465632,332.925L614.3015521064302,326.5159090909091L622.2838137472284,320.5022727272727L630.2660753880266,313.81363636363636L638.2483370288248,307.55454545454546L646.2305986696231,302.5295454545454L654.2128603104213,297.6340909090909L662.1951219512196,292.30227272727274L670.1773835920177,287.0863636363636L678.1596452328159,281.18863636363636L686.1419068736142,275.4068181818182L694.1241685144124,269.3318181818182L702.1064301552107,265.2613636363637L710.0886917960089,262.15909090909093L718.070953436807,256.51363636363635L726.0532150776053,251.24318181818182L734.0354767184036,246.87954545454545L742.0177383592018,241.5886363636364L750,236.03863636363633" style="fill: none; stroke: #54a24b; stroke-width: 2;"></path></g></g><path class="foreground" d="" style="display: none; fill: none;"></path></g></g><g class="mark-group role-legend"><g transform="translate(770,0)"><path class="background" d="M0,0h88v79h-88Z" style="pointer-events: none; fill: none;"></path><g><g class="mark-group role-legend-entry"><g transform="translate(0,16)"><path class="background" d="M0,0h0v0h0Z" style="pointer-events: none; fill: none;"></path><g><g class="mark-group role-scope"><g transform="translate(0,0)"><path class="background" d="M0,0h87.15234375v11h-87.15234375Z" style="pointer-events: none; fill: none; opacity: 1;"></path><g><g class="mark-symbol role-legend-symbol" style="pointer-events: none;"><path transform="translate(6,6)" d="M-5,0L5,0" style="fill: none; stroke: #4c78a8; stroke-width: 1.5; opacity: 1;"></path></g><g class="mark-text role-legend-label" style="pointer-events: none;"><text text-anchor="start" transform="translate(16,9)" style="font-family: sans-serif; font-size: 10px; fill: #000; opacity: 1;">China</text></g></g><path class="foreground" d="" style="pointer-events: none; display: none; fill: none;"></path></g><g transform="translate(0,13)"><path class="background" d="M0,0h87.15234375v11h-87.15234375Z" style="pointer-events: none; fill: none; opacity: 1;"></path><g><g class="mark-symbol role-legend-symbol" style="pointer-events: none;"><path transform="translate(6,6)" d="M-5,0L5,0" style="fill: none; stroke: #9ecae9; stroke-width: 1.5; opacity: 1;"></path></g><g class="mark-text role-legend-label" style="pointer-events: none;"><text text-anchor="start" transform="translate(16,9)" style="font-family: sans-serif; font-size: 10px; fill: #000; opacity: 1;">Italy</text></g></g><path class="foreground" d="" style="pointer-events: none; display: none; fill: none;"></path></g><g transform="translate(0,26)"><path class="background" d="M0,0h87.15234375v11h-87.15234375Z" style="pointer-events: none; fill: none; opacity: 1;"></path><g><g class="mark-symbol role-legend-symbol" style="pointer-events: none;"><path transform="translate(6,6)" d="M-5,0L5,0" style="fill: none; stroke: #f58518; stroke-width: 1.5; opacity: 1;"></path></g><g class="mark-text role-legend-label" style="pointer-events: none;"><text text-anchor="start" transform="translate(16,9)" style="font-family: sans-serif; font-size: 10px; fill: #000; opacity: 1;">Spain</text></g></g><path class="foreground" d="" style="pointer-events: none; display: none; fill: none;"></path></g><g transform="translate(0,39)"><path class="background" d="M0,0h87.15234375v11h-87.15234375Z" style="pointer-events: none; fill: none; opacity: 1;"></path><g><g class="mark-symbol role-legend-symbol" style="pointer-events: none;"><path transform="translate(6,6)" d="M-5,0L5,0" style="fill: none; stroke: #ffbf79; stroke-width: 1.5; opacity: 1;"></path></g><g class="mark-text role-legend-label" style="pointer-events: none;"><text text-anchor="start" transform="translate(16,9)" style="font-family: sans-serif; font-size: 10px; fill: #000; opacity: 1;">US</text></g></g><path class="foreground" d="" style="pointer-events: none; display: none; fill: none;"></path></g><g transform="translate(0,52)"><path class="background" d="M0,0h87.15234375v11h-87.15234375Z" style="pointer-events: none; fill: none; opacity: 1;"></path><g><g class="mark-symbol role-legend-symbol" style="pointer-events: none;"><path transform="translate(6,6)" d="M-5,0L5,0" style="fill: none; stroke: #54a24b; stroke-width: 1.5; opacity: 1;"></path></g><g class="mark-text role-legend-label" style="pointer-events: none;"><text text-anchor="start" transform="translate(16,9)" style="font-family: sans-serif; font-size: 10px; fill: #000; opacity: 1;">United Kingdom</text></g></g><path class="foreground" d="" style="pointer-events: none; display: none; fill: none;"></path></g></g></g><path class="foreground" d="" style="pointer-events: none; display: none; fill: none;"></path></g></g><g class="mark-text role-legend-title" style="pointer-events: none;"><text text-anchor="start" transform="translate(0,9)" style="font-family: sans-serif; font-size: 11px; font-weight: bold; fill: #000; opacity: 1;">country</text></g></g><path class="foreground" d="" style="pointer-events: none; display: none; fill: none;"></path></g></g><g class="mark-group role-title"><g transform="translate(375,-22)"><path class="background" d="M0,0h0v0h0Z" style="pointer-events: none; fill: none;"></path><g><g class="mark-text role-title-text" style="pointer-events: none;"><text text-anchor="middle" transform="translate(0,10)" style="font-family: sans-serif; font-size: 13px; font-weight: bold; fill: #000; opacity: 1;">Deaths by day in ['China', 'Italy', 'Spain', 'US', 'United Kingdom'] as of 04-25-2020</text></g></g><path class="foreground" d="" style="pointer-events: none; display: none; fill: none;"></path></g></g></g><path class="foreground" d="" style="display: none; fill: none;"></path></g></g></g></svg>