<svg class="marks" width="921" height="439" viewBox="0 0 921 439" version="1.1" xmlns="http://www.w3.org/2000/svg" xmlns:xlink="http://www.w3.org/1999/xlink"><rect width="921" height="439" style="fill: white;"></rect><g transform="translate(58,27)"><g class="mark-group role-frame root"><g transform="translate(0,0)"><path class="background" d="M0,0h750v375h-750Z" style="fill: none; stroke: #ddd; stroke-width: 0;"></path><g><g class="mark-group role-axis"><g transform="translate(0.5,375.5)"><path class="background" d="M0,0h0v0h0Z" style="pointer-events: none; fill: none;"></path><g><g class="mark-rule role-axis-tick" style="pointer-events: none;"><line transform="translate(41,0)" x2="0" y2="5" style="fill: none; stroke: #888; stroke-width: 1; opacity: 1;"></line><line transform="translate(113,0)" x2="0" y2="5" style="fill: none; stroke: #888; stroke-width: 1; opacity: 1;"></line><line transform="translate(185,0)" x2="0" y2="5" style="fill: none; stroke: #888; stroke-width: 1; opacity: 1;"></line><line transform="translate(257,0)" x2="0" y2="5" style="fill: none; stroke: #888; stroke-width: 1; opacity: 1;"></line><line transform="translate(329,0)" x2="0" y2="5" style="fill: none; stroke: #888; stroke-width: 1; opacity: 1;"></line><line transform="translate(401,0)" x2="0" y2="5" style="fill: none; stroke: #888; stroke-width: 1; opacity: 1;"></line><line transform="translate(473,0)" x2="0" y2="5" style="fill: none; stroke: #888; stroke-width: 1; opacity: 1;"></line><line transform="translate(545,0)" x2="0" y2="5" style="fill: none; stroke: #888; stroke-width: 1; opacity: 1;"></line><line transform="translate(617,0)" x2="0" y2="5" style="fill: none; stroke: #888; stroke-width: 1; opacity: 1;"></line><line transform="translate(689,0)" x2="0" y2="5" style="fill: none; stroke: #888; stroke-width: 1; opacity: 1;"></line></g><g class="mark-text role-axis-label" style="pointer-events: none;"><text text-anchor="middle" transform="translate(41.11936036550542,15)" style="font-family: sans-serif; font-size: 10px; fill: #000; opacity: 1;">Jan 26</text><text text-anchor="middle" transform="translate(113.07824100513993,15)" style="font-family: sans-serif; font-size: 10px; fill: #000; opacity: 1;">Feb 02</text><text text-anchor="middle" transform="translate(185.0371216447744,15)" style="font-family: sans-serif; font-size: 10px; fill: #000; opacity: 1;">Feb 09</text><text text-anchor="middle" transform="translate(256.9960022844089,15)" style="font-family: sans-serif; font-size: 10px; fill: #000; opacity: 1;">Feb 16</text><text text-anchor="middle" transform="translate(328.9548829240434,15)" style="font-family: sans-serif; font-size: 10px; fill: #000; opacity: 1;">Feb 23</text><text text-anchor="middle" transform="translate(400.9137635636779,15)" style="font-family: sans-serif; font-size: 10px; fill: #000; opacity: 1;">March</text><text text-anchor="middle" transform="translate(472.8726442033124,15)" style="font-family: sans-serif; font-size: 10px; fill: #000; opacity: 1;">Mar 08</text><text text-anchor="middle" transform="translate(544.8315248429469,15)" style="font-family: sans-serif; font-size: 10px; fill: #000; opacity: 1;">Mar 15</text><text text-anchor="middle" transform="translate(616.7904054825814,15)" style="font-family: sans-serif; font-size: 10px; fill: #000; opacity: 1;">Mar 22</text><text text-anchor="middle" transform="translate(688.7492861222158,15)" style="font-family: sans-serif; font-size: 10px; fill: #000; opacity: 1;">Mar 29</text></g><g class="mark-rule role-axis-domain" style="pointer-events: none;"><line transform="translate(0,0)" x2="750" y2="0" style="fill: none; stroke: #888; stroke-width: 1; opacity: 1;"></line></g><g class="mark-text role-axis-title" style="pointer-events: none;"><text text-anchor="middle" transform="translate(375,30)" style="font-family: sans-serif; font-size: 11px; font-weight: bold; fill: #000; opacity: 1;">day</text></g></g><path class="foreground" d="" style="pointer-events: none; display: none; fill: none;"></path></g></g><g class="mark-group role-axis"><g transform="translate(0.5,0.5)"><path class="background" d="M0,0h0v0h0Z" style="pointer-events: none; fill: none;"></path><g><g class="mark-rule role-axis-tick" style="pointer-events: none;"><line transform="translate(0,375)" x2="-5" y2="0" style="fill: none; stroke: #888; stroke-width: 1; opacity: 1;"></line><line transform="translate(0,328)" x2="-5" y2="0" style="fill: none; stroke: #888; stroke-width: 1; opacity: 1;"></line><line transform="translate(0,281)" x2="-5" y2="0" style="fill: none; stroke: #888; stroke-width: 1; opacity: 1;"></line><line transform="translate(0,234)" x2="-5" y2="0" style="fill: none; stroke: #888; stroke-width: 1; opacity: 1;"></line><line transform="translate(0,188)" x2="-5" y2="0" style="fill: none; stroke: #888; stroke-width: 1; opacity: 1;"></line><line transform="translate(0,141)" x2="-5" y2="0" style="fill: none; stroke: #888; stroke-width: 1; opacity: 1;"></line><line transform="translate(0,94)" x2="-5" y2="0" style="fill: none; stroke: #888; stroke-width: 1; opacity: 1;"></line><line transform="translate(0,47)" x2="-5" y2="0" style="fill: none; stroke: #888; stroke-width: 1; opacity: 1;"></line><line transform="translate(0,0)" x2="-5" y2="0" style="fill: none; stroke: #888; stroke-width: 1; opacity: 1;"></line></g><g class="mark-text role-axis-label" style="pointer-events: none;"><text text-anchor="end" transform="translate(-7,378)" style="font-family: sans-serif; font-size: 10px; fill: #000; opacity: 1;">0</text><text text-anchor="end" transform="translate(-7,331.125)" style="font-family: sans-serif; font-size: 10px; fill: #000; opacity: 1;">2,000</text><text text-anchor="end" transform="translate(-7,284.25)" style="font-family: sans-serif; font-size: 10px; fill: #000; opacity: 1;">4,000</text><text text-anchor="end" transform="translate(-7,237.375)" style="font-family: sans-serif; font-size: 10px; fill: #000; opacity: 1;">6,000</text><text text-anchor="end" transform="translate(-7,190.5)" style="font-family: sans-serif; font-size: 10px; fill: #000; opacity: 1;">8,000</text><text text-anchor="end" transform="translate(-7,143.625)" style="font-family: sans-serif; font-size: 10px; fill: #000; opacity: 1;">10,000</text><text text-anchor="end" transform="translate(-7,96.75)" style="font-family: sans-serif; font-size: 10px; fill: #000; opacity: 1;">12,000</text><text text-anchor="end" transform="translate(-7,49.875)" style="font-family: sans-serif; font-size: 10px; fill: #000; opacity: 1;">14,000</text><text text-anchor="end" transform="translate(-7,3)" style="font-family: sans-serif; font-size: 10px; fill: #000; opacity: 1;">16,000</text></g><g class="mark-rule role-axis-domain" style="pointer-events: none;"><line transform="translate(0,375)" x2="0" y2="-375" style="fill: none; stroke: #888; stroke-width: 1; opacity: 1;"></line></g><g class="mark-text role-axis-title" style="pointer-events: none;"><text text-anchor="middle" transform="translate(-41.5859375,187.5) rotate(-90) translate(0,-2)" style="font-family: sans-serif; font-size: 11px; font-weight: bold; fill: #000; opacity: 1;">Deaths</text></g></g><path class="foreground" d="" style="pointer-events: none; display: none; fill: none;"></path></g></g><g class="mark-group role-scope pathgroup"><g transform="translate(0,0)"><path class="background" d="M0,0h750v375h-750Z" style="fill: none;"></path><g><g class="mark-line role-mark marks"><path d="M0,374.6015625L10.279840091376355,374.578125L20.55968018275271,374.390625L30.839520274129068,374.015625L41.11936036550542,373.6875L51.39920045688178,373.078125L61.679040548258136,371.9296875L71.9588806396345,371.8828125L82.23872073101084,370.9921875L92.5185608223872,370.0078125L102.79840091376356,368.9296875L113.07824100513993,366.5390625L123.35808109651627,365.0390625L133.63792118789263,363.4921875L143.917761279269,361.8046875L154.19760137064534,360.1640625L164.4774414620217,358.171875L174.75728155339806,356.1328125L185.0371216447744,353.7890625L195.31696173615077,351.28125L205.59680182752712,348.9375L215.87664191890352,348.8203125L226.15648201027986,342.9140625L236.4363221016562,339.3515625L246.71616219303255,336.0234375L256.9960022844089,333.609375L267.27584237578526,331.3125L277.55568246716166,328.0546875L287.835522558538,325.40625L298.11536264991435,322.546875L308.3952027412907,322.546875L318.67504283266703,317.7421875L328.9548829240434,317.6953125L339.2347230154198,314.1796875L349.5145631067961,312.5390625L359.79440319817246,311.3203125L370.0742432895488,310.640625L380.3540833809252,309.609375L390.63392347230155,308.5078125L400.9137635636779,307.6875L411.19360365505423,306.703125L421.47344374643063,305.9296875L431.75328383780703,305.0859375L442.0331239291833,304.3359375L452.3129640205597,303.65625L462.592804111936,303L472.8726442033124,302.34375L483.1524842946887,301.8046875L493.4323243860651,301.4296875L503.7121644774415,300.9140625L513.9920045688178,300.65625L524.2718446601942,300.46875L534.5516847515705,300.1640625L544.8315248429469,299.9296875L555.1113649343233,299.6015625L565.3912050256996,299.296875L575.671045117076,299.0390625L585.9508852084523,298.8515625L596.2307252998287,298.7578125L606.510565391205,298.6171875L616.7904054825814,298.265625L627.0702455739578,298.265625L637.3500856653341,298.1015625L647.6299257567105,298.0078125L657.9097658480867,297.8671875L668.1896059394631,297.75L678.4694460308395,297.6796875L688.7492861222158,297.5625L698.6007995431182,297.46875L708.8806396344946,297.4453125L719.1604797258709,297.28125L729.4403198172473,297.140625L739.7201599086236,297.046875L750,296.953125" style="fill: none; stroke: #4c78a8; stroke-width: 2;"></path></g></g><path class="foreground" d="" style="display: none; fill: none;"></path></g><g transform="translate(0,0)"><path class="background" d="M0,0h750v375h-750Z" style="fill: none;"></path><g><g class="mark-line role-mark marks"><path d="M0,375L10.279840091376355,375L20.55968018275271,375L30.839520274129068,375L41.11936036550542,375L51.39920045688178,375L61.679040548258136,375L71.9588806396345,375L82.23872073101084,375L92.5185608223872,375L102.79840091376356,375L113.07824100513993,375L123.35808109651627,375L133.63792118789263,375L143.917761279269,375L154.19760137064534,375L164.4774414620217,375L174.75728155339806,375L185.0371216447744,375L195.31696173615077,375L205.59680182752712,375L215.87664191890352,375L226.15648201027986,375L236.4363221016562,375L246.71616219303255,375L256.9960022844089,375L267.27584237578526,375L277.55568246716166,375L287.835522558538,375L298.11536264991435,375L308.3952027412907,374.9765625L318.67504283266703,374.953125L328.9548829240434,374.9296875L339.2347230154198,374.8359375L349.5145631067961,374.765625L359.79440319817246,374.71875L370.0742432895488,374.6015625L380.3540833809252,374.5078125L390.63392347230155,374.3203125L400.9137635636779,374.203125L411.19360365505423,373.78125L421.47344374643063,373.1484375L431.75328383780703,372.4921875L442.0331239291833,371.53125L452.3129640205597,370.3828125L462.592804111936,369.5390625L472.8726442033124,366.421875L483.1524842946887,364.1484375L493.4323243860651,360.2109375L503.7121644774415,355.6171875L513.9920045688178,355.6171875L524.2718446601942,345.328125L534.5516847515705,341.2265625L544.8315248429469,332.6015625L555.1113649343233,324.421875L565.3912050256996,316.3359375L575.671045117076,305.203125L585.9508852084523,295.1953125L596.2307252998287,280.5L606.510565391205,261.9140625L616.7904054825814,246.65625000000003L627.0702455739578,232.5703125L637.3500856653341,215.15625L647.6299257567105,199.1484375L657.9097658480867,182.4609375L668.1896059394631,160.921875L678.4694460308395,140.0859375L688.7492861222158,122.3671875L698.6007995431182,103.33593750000001L708.8806396344946,83.71874999999999L719.1604797258709,66.67968750000001L729.4403198172473,48.86718750000002L739.7201599086236,30.91406250000002L750,14.953124999999998" style="fill: none; stroke: #f58518; stroke-width: 2;"></path></g></g><path class="foreground" d="" style="display: none; fill: none;"></path></g><g transform="translate(0,0)"><path class="background" d="M0,0h750v375h-750Z" style="fill: none;"></path><g><g class="mark-line role-mark marks"><path d="M0,375L10.279840091376355,375L20.55968018275271,375L30.839520274129068,375L41.11936036550542,375L51.39920045688178,375L61.679040548258136,375L71.9588806396345,375L82.23872073101084,375L92.5185608223872,375L102.79840091376356,375L113.07824100513993,375L123.35808109651627,375L133.63792118789263,375L143.917761279269,375L154.19760137064534,375L164.4774414620217,375L174.75728155339806,375L185.0371216447744,375L195.31696173615077,375L205.59680182752712,375L215.87664191890352,375L226.15648201027986,375L236.4363221016562,375L246.71616219303255,375L256.9960022844089,375L267.27584237578526,375L277.55568246716166,375L287.835522558538,375L298.11536264991435,375L308.3952027412907,375L318.67504283266703,375L328.9548829240434,375L339.2347230154198,375L349.5145631067961,375L359.79440319817246,375L370.0742432895488,375L380.3540833809252,375L390.63392347230155,375L400.9137635636779,375L411.19360365505423,375L421.47344374643063,374.9765625L431.75328383780703,374.953125L442.0331239291833,374.9296875L452.3129640205597,374.8828125L462.592804111936,374.765625L472.8726442033124,374.6015625L483.1524842946887,374.34375L493.4323243860651,374.1796875L503.7121644774415,373.734375L513.9920045688178,373.7109375L524.2718446601942,371.8828125L534.5516847515705,370.4296875L544.8315248429469,368.2265625L555.1113649343233,366.984375L565.3912050256996,362.5078125L575.671045117076,360.3984375L585.9508852084523,355.546875L596.2307252998287,350.5546875L606.510565391205,342.7734375L616.7904054825814,333.46875L627.0702455739578,320.8359375L637.3500856653341,309.1875L647.6299257567105,289.5234375L657.9097658480867,272.6953125L668.1896059394631,254.578125L678.4694460308395,234.79687500000003L688.7492861222158,215.55468749999997L698.6007995431182,194.15624999999997L708.8806396344946,176.625L719.1604797258709,154.9921875L729.4403198172473,132.46874999999997L739.7201599086236,112.54687499999999L750,94.99218750000001" style="fill: none; stroke: #e45756; stroke-width: 2;"></path></g></g><path class="foreground" d="" style="display: none; fill: none;"></path></g><g transform="translate(0,0)"><path class="background" d="M0,0h750v375h-750Z" style="fill: none;"></path><g><g class="mark-line role-mark marks"><path d="M0,375L10.279840091376355,375L20.55968018275271,375L30.839520274129068,375L41.11936036550542,375L51.39920045688178,375L61.679040548258136,375L71.9588806396345,375L82.23872073101084,375L92.5185608223872,375L102.79840091376356,375L113.07824100513993,375L123.35808109651627,375L133.63792118789263,375L143.917761279269,375L154.19760137064534,375L164.4774414620217,375L174.75728155339806,375L185.0371216447744,375L195.31696173615077,375L205.59680182752712,375L215.87664191890352,375L226.15648201027986,375L236.4363221016562,375L246.71616219303255,375L256.9960022844089,375L267.27584237578526,375L277.55568246716166,375L287.835522558538,375L298.11536264991435,375L308.3952027412907,375L318.67504283266703,375L328.9548829240434,375L339.2347230154198,375L349.5145631067961,375L359.79440319817246,375L370.0742432895488,375L380.3540833809252,375L390.63392347230155,374.9765625L400.9137635636779,374.9765625L411.19360365505423,374.859375L421.47344374643063,374.8359375L431.75328383780703,374.7421875L442.0331239291833,374.71875L452.3129640205597,374.671875L462.592804111936,374.6015625L472.8726442033124,374.5078125L483.1524842946887,374.484375L493.4323243860651,374.34375L503.7121644774415,374.15625L513.9920045688178,374.0625L524.2718446601942,373.8984375L534.5516847515705,373.734375L544.8315248429469,373.5234375L555.1113649343233,373.0078125L565.3912050256996,372.46875L575.671045117076,372.234375L585.9508852084523,370.3125L596.2307252998287,369.28125L606.510565391205,367.8046875L616.7904054825814,365.2265625L627.0702455739578,361.9453125L637.3500856653341,358.453125L647.6299257567105,352.921875L657.9097658480867,346.6640625L668.1896059394631,337.9453125L678.4694460308395,327.515625L688.7492861222158,317.1796875L698.6007995431182,305.203125L708.8806396344946,284.2265625L719.1604797258709,263.5078125L729.4403198172473,236.109375L739.7201599086236,208.8984375L750,177.9609375" style="fill: none; stroke: #72b7b2; stroke-width: 2;"></path></g></g><path class="foreground" d="" style="display: none; fill: none;"></path></g><g transform="translate(0,0)"><path class="background" d="M0,0h750v375h-750Z" style="fill: none;"></path><g><g class="mark-line role-mark marks"><path d="M0,375L10.279840091376355,375L20.55968018275271,375L30.839520274129068,375L41.11936036550542,375L51.39920045688178,375L61.679040548258136,375L71.9588806396345,375L82.23872073101084,375L92.5185608223872,375L102.79840091376356,375L113.07824100513993,375L123.35808109651627,375L133.63792118789263,375L143.917761279269,375L154.19760137064534,375L164.4774414620217,375L174.75728155339806,375L185.0371216447744,375L195.31696173615077,375L205.59680182752712,375L215.87664191890352,375L226.15648201027986,375L236.4363221016562,375L246.71616219303255,375L256.9960022844089,375L267.27584237578526,375L277.55568246716166,375L287.835522558538,375L298.11536264991435,375L308.3952027412907,375L318.67504283266703,375L328.9548829240434,375L339.2347230154198,375L349.5145631067961,375L359.79440319817246,375L370.0742432895488,375L380.3540833809252,375L390.63392347230155,375L400.9137635636779,375L411.19360365505423,375L421.47344374643063,375L431.75328383780703,375L442.0331239291833,374.9765625L452.3129640205597,374.953125L462.592804111936,374.953125L472.8726442033124,374.9296875L483.1524842946887,374.90625L493.4323243860651,374.859375L503.7121644774415,374.8125L513.9920045688178,374.8125L524.2718446601942,374.8125L534.5516847515705,374.5078125L544.8315248429469,374.5078125L555.1113649343233,373.6875L565.3912050256996,373.6875L575.671045117076,373.3125L585.9508852084523,371.765625L596.2307252998287,370.828125L606.510565391205,369.515625L616.7904054825814,368.390625L627.0702455739578,367.125L637.3500856653341,365.0859375L647.6299257567105,364.078125L657.9097658480867,361.40625L668.1896059394631,357.1640625L678.4694460308395,351.0703125L688.7492861222158,346.1484375L698.6007995431182,341.9296875L708.8806396344946,332.9765625L719.1604797258709,319.7578125L729.4403198172473,306.421875L739.7201599086236,290.3671875L750,273.75" style="fill: none; stroke: #54a24b; stroke-width: 2;"></path></g></g><path class="foreground" d="" style="display: none; fill: none;"></path></g></g><g class="mark-group role-legend"><g transform="translate(770,0)"><path class="background" d="M0,0h88v79h-88Z" style="pointer-events: none; fill: none;"></path><g><g class="mark-group role-legend-entry"><g transform="translate(0,16)"><path class="background" d="M0,0h0v0h0Z" style="pointer-events: none; fill: none;"></path><g><g class="mark-group role-scope"><g transform="translate(0,0)"><path class="background" d="M0,0h87.15234375v11h-87.15234375Z" style="pointer-events: none; fill: none; opacity: 1;"></path><g><g class="mark-symbol role-legend-symbol" style="pointer-events: none;"><path transform="translate(6,6)" d="M-5,0L5,0" style="fill: none; stroke: #4c78a8; stroke-width: 1.5; opacity: 1;"></path></g><g class="mark-text role-legend-label" style="pointer-events: none;"><text text-anchor="start" transform="translate(16,9)" style="font-family: sans-serif; font-size: 10px; fill: #000; opacity: 1;">China</text></g></g><path class="foreground" d="" style="pointer-events: none; display: none; fill: none;"></path></g><g transform="translate(0,13)"><path class="background" d="M0,0h87.15234375v11h-87.15234375Z" style="pointer-events: none; fill: none; opacity: 1;"></path><g><g class="mark-symbol role-legend-symbol" style="pointer-events: none;"><path transform="translate(6,6)" d="M-5,0L5,0" style="fill: none; stroke: #f58518; stroke-width: 1.5; opacity: 1;"></path></g><g class="mark-text role-legend-label" style="pointer-events: none;"><text text-anchor="start" transform="translate(16,9)" style="font-family: sans-serif; font-size: 10px; fill: #000; opacity: 1;">Italy</text></g></g><path class="foreground" d="" style="pointer-events: none; display: none; fill: none;"></path></g><g transform="translate(0,26)"><path class="background" d="M0,0h87.15234375v11h-87.15234375Z" style="pointer-events: none; fill: none; opacity: 1;"></path><g><g class="mark-symbol role-legend-symbol" style="pointer-events: none;"><path transform="translate(6,6)" d="M-5,0L5,0" style="fill: none; stroke: #e45756; stroke-width: 1.5; opacity: 1;"></path></g><g class="mark-text role-legend-label" style="pointer-events: none;"><text text-anchor="start" transform="translate(16,9)" style="font-family: sans-serif; font-size: 10px; fill: #000; opacity: 1;">Spain</text></g></g><path class="foreground" d="" style="pointer-events: none; display: none; fill: none;"></path></g><g transform="translate(0,39)"><path class="background" d="M0,0h87.15234375v11h-87.15234375Z" style="pointer-events: none; fill: none; opacity: 1;"></path><g><g class="mark-symbol role-legend-symbol" style="pointer-events: none;"><path transform="translate(6,6)" d="M-5,0L5,0" style="fill: none; stroke: #72b7b2; stroke-width: 1.5; opacity: 1;"></path></g><g class="mark-text role-legend-label" style="pointer-events: none;"><text text-anchor="start" transform="translate(16,9)" style="font-family: sans-serif; font-size: 10px; fill: #000; opacity: 1;">US</text></g></g><path class="foreground" d="" style="pointer-events: none; display: none; fill: none;"></path></g><g transform="translate(0,52)"><path class="background" d="M0,0h87.15234375v11h-87.15234375Z" style="pointer-events: none; fill: none; opacity: 1;"></path><g><g class="mark-symbol role-legend-symbol" style="pointer-events: none;"><path transform="translate(6,6)" d="M-5,0L5,0" style="fill: none; stroke: #54a24b; stroke-width: 1.5; opacity: 1;"></path></g><g class="mark-text role-legend-label" style="pointer-events: none;"><text text-anchor="start" transform="translate(16,9)" style="font-family: sans-serif; font-size: 10px; fill: #000; opacity: 1;">United Kingdom</text></g></g><path class="foreground" d="" style="pointer-events: none; display: none; fill: none;"></path></g></g></g><path class="foreground" d="" style="pointer-events: none; display: none; fill: none;"></path></g></g><g class="mark-text role-legend-title" style="pointer-events: none;"><text text-anchor="start" transform="translate(0,9)" style="font-family: sans-serif; font-size: 11px; font-weight: bold; fill: #000; opacity: 1;">country</text></g></g><path class="foreground" d="" style="pointer-events: none; display: none; fill: none;"></path></g></g><g class="mark-group role-title"><g transform="translate(375,-22)"><path class="background" d="M0,0h0v0h0Z" style="pointer-events: none; fill: none;"></path><g><g class="mark-text role-title-text" style="pointer-events: none;"><text text-anchor="middle" transform="translate(0,10)" style="font-family: sans-serif; font-size: 13px; font-weight: bold; fill: #000; opacity: 1;">Deaths by day in ['China', 'Italy', 'Spain', 'US', 'United Kingdom'] as of 04-04-2020</text></g></g><path class="foreground" d="" style="pointer-events: none; display: none; fill: none;"></path></g></g></g><path class="foreground" d="" style="display: none; fill: none;"></path></g></g></g></svg>