<svg class="marks" width="902" height="439" viewBox="0 0 902 439" version="1.1" xmlns="http://www.w3.org/2000/svg" xmlns:xlink="http://www.w3.org/1999/xlink"><rect width="902" height="439" style="fill: white;"></rect><g transform="translate(39,27)"><g class="mark-group role-frame root"><g transform="translate(0,0)"><path class="background" d="M0,0h750v375h-750Z" style="fill: none; stroke: #ddd; stroke-width: 0;"></path><g><g class="mark-group role-axis"><g transform="translate(0.5,375.5)"><path class="background" d="M0,0h0v0h0Z" style="pointer-events: none; fill: none;"></path><g><g class="mark-rule role-axis-tick" style="pointer-events: none;"><line transform="translate(41,0)" x2="0" y2="5" style="fill: none; stroke: #888; stroke-width: 1; opacity: 1;"></line><line transform="translate(113,0)" x2="0" y2="5" style="fill: none; stroke: #888; stroke-width: 1; opacity: 1;"></line><line transform="translate(185,0)" x2="0" y2="5" style="fill: none; stroke: #888; stroke-width: 1; opacity: 1;"></line><line transform="translate(257,0)" x2="0" y2="5" style="fill: none; stroke: #888; stroke-width: 1; opacity: 1;"></line><line transform="translate(329,0)" x2="0" y2="5" style="fill: none; stroke: #888; stroke-width: 1; opacity: 1;"></line><line transform="translate(401,0)" x2="0" y2="5" style="fill: none; stroke: #888; stroke-width: 1; opacity: 1;"></line><line transform="translate(473,0)" x2="0" y2="5" style="fill: none; stroke: #888; stroke-width: 1; opacity: 1;"></line><line transform="translate(545,0)" x2="0" y2="5" style="fill: none; stroke: #888; stroke-width: 1; opacity: 1;"></line><line transform="translate(617,0)" x2="0" y2="5" style="fill: none; stroke: #888; stroke-width: 1; opacity: 1;"></line><line transform="translate(689,0)" x2="0" y2="5" style="fill: none; stroke: #888; stroke-width: 1; opacity: 1;"></line></g><g class="mark-text role-axis-label" style="pointer-events: none;"><text text-anchor="middle" transform="translate(41.11936036550542,15)" style="font-family: sans-serif; font-size: 10px; fill: #000; opacity: 1;">Jan 26</text><text text-anchor="middle" transform="translate(113.07824100513993,15)" style="font-family: sans-serif; font-size: 10px; fill: #000; opacity: 1;">Feb 02</text><text text-anchor="middle" transform="translate(185.0371216447744,15)" style="font-family: sans-serif; font-size: 10px; fill: #000; opacity: 1;">Feb 09</text><text text-anchor="middle" transform="translate(256.9960022844089,15)" style="font-family: sans-serif; font-size: 10px; fill: #000; opacity: 1;">Feb 16</text><text text-anchor="middle" transform="translate(328.9548829240434,15)" style="font-family: sans-serif; font-size: 10px; fill: #000; opacity: 1;">Feb 23</text><text text-anchor="middle" transform="translate(400.9137635636779,15)" style="font-family: sans-serif; font-size: 10px; fill: #000; opacity: 1;">March</text><text text-anchor="middle" transform="translate(472.8726442033124,15)" style="font-family: sans-serif; font-size: 10px; fill: #000; opacity: 1;">Mar 08</text><text text-anchor="middle" transform="translate(544.8315248429469,15)" style="font-family: sans-serif; font-size: 10px; fill: #000; opacity: 1;">Mar 15</text><text text-anchor="middle" transform="translate(616.7904054825814,15)" style="font-family: sans-serif; font-size: 10px; fill: #000; opacity: 1;">Mar 22</text><text text-anchor="middle" transform="translate(688.7492861222158,15)" style="font-family: sans-serif; font-size: 10px; fill: #000; opacity: 1;">Mar 29</text></g><g class="mark-rule role-axis-domain" style="pointer-events: none;"><line transform="translate(0,0)" x2="750" y2="0" style="fill: none; stroke: #888; stroke-width: 1; opacity: 1;"></line></g><g class="mark-text role-axis-title" style="pointer-events: none;"><text text-anchor="middle" transform="translate(375,30)" style="font-family: sans-serif; font-size: 11px; font-weight: bold; fill: #000; opacity: 1;">day</text></g></g><path class="foreground" d="" style="pointer-events: none; display: none; fill: none;"></path></g></g><g class="mark-group role-axis"><g transform="translate(0.5,0.5)"><path class="background" d="M0,0h0v0h0Z" style="pointer-events: none; fill: none;"></path><g><g class="mark-rule role-axis-tick" style="pointer-events: none;"><line transform="translate(0,375)" x2="-5" y2="0" style="fill: none; stroke: #888; stroke-width: 1; opacity: 1;"></line><line transform="translate(0,338)" x2="-5" y2="0" style="fill: none; stroke: #888; stroke-width: 1; opacity: 1;"></line><line transform="translate(0,300)" x2="-5" y2="0" style="fill: none; stroke: #888; stroke-width: 1; opacity: 1;"></line><line transform="translate(0,263)" x2="-5" y2="0" style="fill: none; stroke: #888; stroke-width: 1; opacity: 1;"></line><line transform="translate(0,225)" x2="-5" y2="0" style="fill: none; stroke: #888; stroke-width: 1; opacity: 1;"></line><line transform="translate(0,188)" x2="-5" y2="0" style="fill: none; stroke: #888; stroke-width: 1; opacity: 1;"></line><line transform="translate(0,150)" x2="-5" y2="0" style="fill: none; stroke: #888; stroke-width: 1; opacity: 1;"></line><line transform="translate(0,113)" x2="-5" y2="0" style="fill: none; stroke: #888; stroke-width: 1; opacity: 1;"></line><line transform="translate(0,75)" x2="-5" y2="0" style="fill: none; stroke: #888; stroke-width: 1; opacity: 1;"></line><line transform="translate(0,37)" x2="-5" y2="0" style="fill: none; stroke: #888; stroke-width: 1; opacity: 1;"></line><line transform="translate(0,0)" x2="-5" y2="0" style="fill: none; stroke: #888; stroke-width: 1; opacity: 1;"></line></g><g class="mark-text role-axis-label" style="pointer-events: none;"><text text-anchor="end" transform="translate(-7,378)" style="font-family: sans-serif; font-size: 10px; fill: #000; opacity: 1;">0</text><text text-anchor="end" transform="translate(-7,340.5)" style="font-family: sans-serif; font-size: 10px; fill: #000; opacity: 1;">1</text><text text-anchor="end" transform="translate(-7,303)" style="font-family: sans-serif; font-size: 10px; fill: #000; opacity: 1;">2</text><text text-anchor="end" transform="translate(-7,265.5)" style="font-family: sans-serif; font-size: 10px; fill: #000; opacity: 1;">3</text><text text-anchor="end" transform="translate(-7,228)" style="font-family: sans-serif; font-size: 10px; fill: #000; opacity: 1;">4</text><text text-anchor="end" transform="translate(-7,190.5)" style="font-family: sans-serif; font-size: 10px; fill: #000; opacity: 1;">5</text><text text-anchor="end" transform="translate(-7,153)" style="font-family: sans-serif; font-size: 10px; fill: #000; opacity: 1;">6</text><text text-anchor="end" transform="translate(-7,115.50000000000001)" style="font-family: sans-serif; font-size: 10px; fill: #000; opacity: 1;">7</text><text text-anchor="end" transform="translate(-7,77.99999999999999)" style="font-family: sans-serif; font-size: 10px; fill: #000; opacity: 1;">8</text><text text-anchor="end" transform="translate(-7,40.49999999999999)" style="font-family: sans-serif; font-size: 10px; fill: #000; opacity: 1;">9</text><text text-anchor="end" transform="translate(-7,3)" style="font-family: sans-serif; font-size: 10px; fill: #000; opacity: 1;">10</text></g><g class="mark-rule role-axis-domain" style="pointer-events: none;"><line transform="translate(0,375)" x2="0" y2="-375" style="fill: none; stroke: #888; stroke-width: 1; opacity: 1;"></line></g><g class="mark-text role-axis-title" style="pointer-events: none;"><text text-anchor="middle" transform="translate(-22.123046875,187.5) rotate(-90) translate(0,-2)" style="font-family: sans-serif; font-size: 11px; font-weight: bold; fill: #000; opacity: 1;">LogDeaths</text></g></g><path class="foreground" d="" style="pointer-events: none; display: none; fill: none;"></path></g></g><g class="mark-group role-scope pathgroup"><g transform="translate(0,0)"><path class="background" d="M0,0h750v375h-750Z" style="fill: none;"></path><g><g class="mark-line role-mark marks"><path d="M0,268.75449959789194L10.279840091376355,266.61105907889385L20.55968018275271,252.82137982419442L30.839520274129068,234.8373893143737L41.11936036550542,224.0493115974319L51.39920045688178,209.74802822759048L61.679040548258136,192.18010037995683L71.9588806396345,191.61190769168422L82.23872073101084,182.18761663115023L92.5185608223872,173.95154378589652L102.79840091376356,166.61894768626738L113.07824100513993,154.16707656251697L123.35808109651627,148.04665616533435L133.63792118789263,142.63334520770547L143.917761279269,137.5020139447616L154.19760137064534,133.10735916959342L164.4774414620217,128.38239116069158L174.75728155339806,124.09341459680385L185.0371216447744,119.70243961125279L195.31696173615077,115.51185563072208L205.59680182752712,111.9781696946052L215.87664191890352,111.80993253490499L226.15648201027986,104.18115655168319L236.4363221016562,100.23287654027655L246.71616219303255,96.88580703026521L256.9960022844089,94.63228570635354L267.27584237578526,92.60700017829241L277.55568246716166,89.90994991253181L287.835522558538,87.85189526331786L298.11536264991435,85.74982916730485L308.3952027412907,85.74982916730485L318.67504283266703,82.46317232783473L328.9548829240434,82.43248492841353L339.2347230154198,80.19968266500042L349.5145631067961,79.20152487750208L359.79440319817246,78.47686464651196L370.0742432895488,78.07872801270314L380.3540833809252,77.48261719442209L390.63392347230155,76.85615869466807L400.9137635636779,76.39635261869567L411.19360365505423,75.85192549668186L421.47344374643063,75.42963814733648L431.75328383780703,74.97432058069695L442.0331239291833,74.57418340645175L452.3129640205597,74.21521053819089L462.592804111936,73.87184646496638L472.8726442033124,73.5315978572536L483.1524842946887,73.25439910188457L493.4323243860651,73.06276661842678L503.7121644774415,72.8008607919143L513.9920045688178,72.67059064669726L524.2718446601942,72.57613215846669L534.5516847515705,72.4231427731957L544.8315248429469,72.30588188965658L555.1113649343233,72.14233022853652L565.3912050256996,71.99109689187367L575.671045117076,71.86360488219198L585.9508852084523,71.77115491240872L596.2307252998287,71.72501525724931L606.510565391205,71.65591204359146L616.7904054825814,71.48370907758452L627.0702455739578,71.48370907758452L637.3500856653341,71.40361751395872L647.6299257567105,71.35792759054836L657.9097658480867,71.2894969146248L668.1896059394631,71.23256658639889L678.4694460308395,71.19844982892819L688.7492861222158,71.14165745096744L698.6007995431182,71.09628539461566L708.8806396344946,71.08495095293952L719.1604797258709,71.00570564043055L729.4403198172473,70.9379141185035L739.7201599086236,70.8927877592673L750,70.84771563845668" style="fill: none; stroke: #4c78a8; stroke-width: 2;"></path></g></g><path class="foreground" d="" style="display: none; fill: none;"></path></g><g transform="translate(0,0)"><path class="background" d="M0,0h750v375h-750Z" style="fill: none;"></path><g><g class="mark-line role-mark marks"><path d="M308.3952027412907,375L318.67504283266703,349.00698072900207L328.9548829240434,333.8020391749459L339.2347230154198,302.02836941042574L349.5145631067961,288.65305901272325L359.79440319817246,281.81600063295L370.0742432895488,268.75449959789194L380.3540833809252,260.83040858537163L390.63392347230155,248.72640637550722L400.9137635636779,242.76148032689395L411.19360365505423,226.82836055319646L421.47344374643063,211.14570553248672L431.75328383780703,199.76891870767852L442.0331239291833,187.6045397338457L452.3129640205597,176.87986017232544L462.592804111936,170.58605799128625L472.8726442033124,153.6512499974488L483.1524842946887,144.83523547176623L493.4323243860651,133.22603015470452L503.7121644774415,123.08232393661157L513.9920045688178,123.08232393661157L524.2718446601942,107.11433989859546L534.5516847515705,102.25902765001793L544.8315248429469,93.73014429767643L555.1113649343233,87.114857031822L565.3912050256996,81.55330157130844L575.671045117076,75.0372295033517L585.9508852084523,70.01249180311453L596.2307252998287,63.67433213432984L606.510565391205,56.94127448350926L616.7904054825814,52.195118009687235L627.0702455739578,48.29000879492419L637.3500856653341,43.96444684359345L647.6299257567105,40.38531676703518L657.9097658480867,36.98561135732367L668.1896059394631,33.00903773456455L678.4694460308395,29.526085086567512L688.7492861222158,26.799184658188896L698.6007995431182,24.07559197917207L708.8806396344946,21.46097735576481L719.1604797258709,19.32910524471029L729.4403198172473,17.22289972650036L739.7201599086236,15.213396759770264L750,13.513042254051463" style="fill: none; stroke: #f58518; stroke-width: 2;"></path></g></g><path class="foreground" d="" style="display: none; fill: none;"></path></g><g transform="translate(0,0)"><path class="background" d="M0,0h750v375h-750Z" style="fill: none;"></path><g><g class="mark-line role-mark marks"><path d="M421.47344374643063,375L431.75328383780703,349.00698072900207L442.0331239291833,333.8020391749459L452.3129640205597,314.64607828372124L462.592804111936,288.65305901272325L472.8726442033124,268.75449959789194L483.1524842946887,250.04233086842984L493.4323243860651,241.67444769414698L503.7121644774415,225.4130982538397L513.9920045688178,224.72500555378232L524.2718446601942,191.61190769168422L534.5516847515705,177.26251655385948L544.8315248429469,162.5089991957838L555.1113649343233,156.19459736015233L565.3912050256996,139.55544659378086L575.671045117076,133.7045055454705L585.9508852084523,122.94653622035088L596.2307252998287,114.38038293747104L606.510565391205,104.01716212122481L616.7904054825814,94.50509508131152L627.0702455739578,84.54616461471073L637.3500856653341,77.24145880703617L647.6299257567105,67.43774284467452L657.9097658480867,60.69849493973614L668.1896059394631,54.58428083738143L678.4694460308395,48.88086603037901L688.7492861222158,44.05803861206023L698.6007995431182,39.33557347403928L708.8806396344946,35.86585672132195L719.1604797258709,31.98446128736279L729.4403198172473,28.329429626028023L739.7201599086236,25.369107378418562L750,22.9411695068541" style="fill: none; stroke: #e45756; stroke-width: 2;"></path></g></g><path class="foreground" d="" style="display: none; fill: none;"></path></g><g transform="translate(0,0)"><path class="background" d="M0,0h750v375h-750Z" style="fill: none;"></path><g><g class="mark-line role-mark marks"><path d="M390.63392347230155,375L400.9137635636779,375L411.19360365505423,307.80901990394796L421.47344374643063,302.02836941042574L431.75328383780703,285.0789272700611L442.0331239291833,281.81600063295L452.3129640205597,276.0353501394278L462.592804111936,268.75449959789194L472.8726442033124,260.83040858537163L483.1524842946887,259.0859079990632L493.4323243860651,250.04233086842984L503.7121644774415,240.61803980789588L513.9920045688178,236.6670204707274L524.2718446601942,230.6194649358728L534.5516847515705,225.4130982538397L544.8315248429469,219.63244776031752L555.1113649343233,208.40057788161315L565.3912050256996,199.42007898284174L575.671045117076,196.09932658253754L585.9508852084523,176.31309875444862L596.2307252998287,168.85619155150493L606.510565391205,160.2432094654801L616.7904054825814,148.75926668254496L627.0702455739578,137.90380350272682L637.3500856653341,129.01442859400345L647.6299257567105,118.19980220338638L657.9097658480867,108.8419181019453L668.1896059394631,98.78201860464479L678.4694460308395,89.48179931967643L688.7492861222158,82.0965706301491L698.6007995431182,75.0372295033517L708.8806396344946,65.1830745181968L719.1604797258709,57.47353138378944L729.4403198172473,49.23357269499337L739.7201599086236,42.52434754461542L750,36.1192510824264" style="fill: none; stroke: #72b7b2; stroke-width: 2;"></path></g></g><path class="foreground" d="" style="display: none; fill: none;"></path></g><g transform="translate(0,0)"><path class="background" d="M0,0h750v375h-750Z" style="fill: none;"></path><g><g class="mark-line role-mark marks"><path d="M442.0331239291833,375L452.3129640205597,349.00698072900207L462.592804111936,349.00698072900207L472.8726442033124,333.8020391749459L483.1524842946887,323.0139614580041L493.4323243860651,307.80901990394796L503.7121644774415,297.02094218700614L513.9920045688178,297.02094218700614L524.2718446601942,297.02094218700614L534.5516847515705,260.83040858537163L544.8315248429469,260.83040858537163L555.1113649343233,224.0493115974319L565.3912050256996,224.0493115974319L575.671045117076,214.62502053689795L585.9508852084523,190.22798680660483L596.2307252998287,180.6831168640468L606.510565391205,170.42545817408617L616.7904054825814,163.42848483982073L627.0702455739578,156.85833150137984L637.3500856653341,148.2235432857646L647.6299257567105,144.59303872028832L657.9097658480867,136.38644611723257L668.1896059394631,126.20124908018678L678.4694460308395,115.17983181882506L688.7492861222158,108.16567026808296L698.6007995431182,103.04797680551944L708.8806396344946,94.06329473980752L719.1604797258709,83.80706613989506L729.4403198172473,75.69781569074739L739.7201599086236,67.80974920209536L750,61.08709945356916" style="fill: none; stroke: #54a24b; stroke-width: 2;"></path></g></g><path class="foreground" d="" style="display: none; fill: none;"></path></g></g><g class="mark-group role-legend"><g transform="translate(770,0)"><path class="background" d="M0,0h88v79h-88Z" style="pointer-events: none; fill: none;"></path><g><g class="mark-group role-legend-entry"><g transform="translate(0,16)"><path class="background" d="M0,0h0v0h0Z" style="pointer-events: none; fill: none;"></path><g><g class="mark-group role-scope"><g transform="translate(0,0)"><path class="background" d="M0,0h87.15234375v11h-87.15234375Z" style="pointer-events: none; fill: none; opacity: 1;"></path><g><g class="mark-symbol role-legend-symbol" style="pointer-events: none;"><path transform="translate(6,6)" d="M-5,0L5,0" style="fill: none; stroke: #4c78a8; stroke-width: 1.5; opacity: 1;"></path></g><g class="mark-text role-legend-label" style="pointer-events: none;"><text text-anchor="start" transform="translate(16,9)" style="font-family: sans-serif; font-size: 10px; fill: #000; opacity: 1;">China</text></g></g><path class="foreground" d="" style="pointer-events: none; display: none; fill: none;"></path></g><g transform="translate(0,13)"><path class="background" d="M0,0h87.15234375v11h-87.15234375Z" style="pointer-events: none; fill: none; opacity: 1;"></path><g><g class="mark-symbol role-legend-symbol" style="pointer-events: none;"><path transform="translate(6,6)" d="M-5,0L5,0" style="fill: none; stroke: #f58518; stroke-width: 1.5; opacity: 1;"></path></g><g class="mark-text role-legend-label" style="pointer-events: none;"><text text-anchor="start" transform="translate(16,9)" style="font-family: sans-serif; font-size: 10px; fill: #000; opacity: 1;">Italy</text></g></g><path class="foreground" d="" style="pointer-events: none; display: none; fill: none;"></path></g><g transform="translate(0,26)"><path class="background" d="M0,0h87.15234375v11h-87.15234375Z" style="pointer-events: none; fill: none; opacity: 1;"></path><g><g class="mark-symbol role-legend-symbol" style="pointer-events: none;"><path transform="translate(6,6)" d="M-5,0L5,0" style="fill: none; stroke: #e45756; stroke-width: 1.5; opacity: 1;"></path></g><g class="mark-text role-legend-label" style="pointer-events: none;"><text text-anchor="start" transform="translate(16,9)" style="font-family: sans-serif; font-size: 10px; fill: #000; opacity: 1;">Spain</text></g></g><path class="foreground" d="" style="pointer-events: none; display: none; fill: none;"></path></g><g transform="translate(0,39)"><path class="background" d="M0,0h87.15234375v11h-87.15234375Z" style="pointer-events: none; fill: none; opacity: 1;"></path><g><g class="mark-symbol role-legend-symbol" style="pointer-events: none;"><path transform="translate(6,6)" d="M-5,0L5,0" style="fill: none; stroke: #72b7b2; stroke-width: 1.5; opacity: 1;"></path></g><g class="mark-text role-legend-label" style="pointer-events: none;"><text text-anchor="start" transform="translate(16,9)" style="font-family: sans-serif; font-size: 10px; fill: #000; opacity: 1;">US</text></g></g><path class="foreground" d="" style="pointer-events: none; display: none; fill: none;"></path></g><g transform="translate(0,52)"><path class="background" d="M0,0h87.15234375v11h-87.15234375Z" style="pointer-events: none; fill: none; opacity: 1;"></path><g><g class="mark-symbol role-legend-symbol" style="pointer-events: none;"><path transform="translate(6,6)" d="M-5,0L5,0" style="fill: none; stroke: #54a24b; stroke-width: 1.5; opacity: 1;"></path></g><g class="mark-text role-legend-label" style="pointer-events: none;"><text text-anchor="start" transform="translate(16,9)" style="font-family: sans-serif; font-size: 10px; fill: #000; opacity: 1;">United Kingdom</text></g></g><path class="foreground" d="" style="pointer-events: none; display: none; fill: none;"></path></g></g></g><path class="foreground" d="" style="pointer-events: none; display: none; fill: none;"></path></g></g><g class="mark-text role-legend-title" style="pointer-events: none;"><text text-anchor="start" transform="translate(0,9)" style="font-family: sans-serif; font-size: 11px; font-weight: bold; fill: #000; opacity: 1;">country</text></g></g><path class="foreground" d="" style="pointer-events: none; display: none; fill: none;"></path></g></g><g class="mark-group role-title"><g transform="translate(375,-22)"><path class="background" d="M0,0h0v0h0Z" style="pointer-events: none; fill: none;"></path><g><g class="mark-text role-title-text" style="pointer-events: none;"><text text-anchor="middle" transform="translate(0,10)" style="font-family: sans-serif; font-size: 13px; font-weight: bold; fill: #000; opacity: 1;">LogDeaths by day in ['China', 'Italy', 'Spain', 'US', 'United Kingdom'] as of 04-04-2020</text></g></g><path class="foreground" d="" style="pointer-events: none; display: none; fill: none;"></path></g></g></g><path class="foreground" d="" style="display: none; fill: none;"></path></g></g></g></svg>