<svg class="marks" width="894" height="439" viewBox="0 0 894 439" version="1.1" xmlns="http://www.w3.org/2000/svg" xmlns:xlink="http://www.w3.org/1999/xlink"><rect width="894" height="439" style="fill: white;"></rect><g transform="translate(33,27)"><g class="mark-group role-frame root"><g transform="translate(0,0)"><path class="background" d="M0,0h750v375h-750Z" style="fill: none; stroke: #ddd; stroke-width: 0;"></path><g><g class="mark-group role-axis"><g transform="translate(0.5,375.5)"><path class="background" d="M0,0h0v0h0Z" style="pointer-events: none; fill: none;"></path><g><g class="mark-rule role-axis-tick" style="pointer-events: none;"><line transform="translate(0,0)" x2="0" y2="5" style="fill: none; stroke: #888; stroke-width: 1; opacity: 1;"></line><line transform="translate(38,0)" x2="0" y2="5" style="fill: none; stroke: #888; stroke-width: 1; opacity: 1;"></line><line transform="translate(75,0)" x2="0" y2="5" style="fill: none; stroke: #888; stroke-width: 1; opacity: 1;"></line><line transform="translate(113,0)" x2="0" y2="5" style="fill: none; stroke: #888; stroke-width: 1; opacity: 1;"></line><line transform="translate(150,0)" x2="0" y2="5" style="fill: none; stroke: #888; stroke-width: 1; opacity: 1;"></line><line transform="translate(188,0)" x2="0" y2="5" style="fill: none; stroke: #888; stroke-width: 1; opacity: 1;"></line><line transform="translate(225,0)" x2="0" y2="5" style="fill: none; stroke: #888; stroke-width: 1; opacity: 1;"></line><line transform="translate(263,0)" x2="0" y2="5" style="fill: none; stroke: #888; stroke-width: 1; opacity: 1;"></line><line transform="translate(300,0)" x2="0" y2="5" style="fill: none; stroke: #888; stroke-width: 1; opacity: 1;"></line><line transform="translate(338,0)" x2="0" y2="5" style="fill: none; stroke: #888; stroke-width: 1; opacity: 1;"></line><line transform="translate(375,0)" x2="0" y2="5" style="fill: none; stroke: #888; stroke-width: 1; opacity: 1;"></line><line transform="translate(413,0)" x2="0" y2="5" style="fill: none; stroke: #888; stroke-width: 1; opacity: 1;"></line><line transform="translate(450,0)" x2="0" y2="5" style="fill: none; stroke: #888; stroke-width: 1; opacity: 1;"></line><line transform="translate(488,0)" x2="0" y2="5" style="fill: none; stroke: #888; stroke-width: 1; opacity: 1;"></line><line transform="translate(525,0)" x2="0" y2="5" style="fill: none; stroke: #888; stroke-width: 1; opacity: 1;"></line><line transform="translate(563,0)" x2="0" y2="5" style="fill: none; stroke: #888; stroke-width: 1; opacity: 1;"></line><line transform="translate(600,0)" x2="0" y2="5" style="fill: none; stroke: #888; stroke-width: 1; opacity: 1;"></line><line transform="translate(638,0)" x2="0" y2="5" style="fill: none; stroke: #888; stroke-width: 1; opacity: 1;"></line><line transform="translate(675,0)" x2="0" y2="5" style="fill: none; stroke: #888; stroke-width: 1; opacity: 1;"></line><line transform="translate(713,0)" x2="0" y2="5" style="fill: none; stroke: #888; stroke-width: 1; opacity: 1;"></line><line transform="translate(750,0)" x2="0" y2="5" style="fill: none; stroke: #888; stroke-width: 1; opacity: 1;"></line></g><g class="mark-text role-axis-label" style="pointer-events: none;"><text text-anchor="start" transform="translate(0,15)" style="font-family: sans-serif; font-size: 10px; fill: #000; opacity: 1;">0.0</text><text text-anchor="middle" transform="translate(37.5,15)" style="font-family: sans-serif; font-size: 10px; fill: #000; opacity: 1;">0.5</text><text text-anchor="middle" transform="translate(75,15)" style="font-family: sans-serif; font-size: 10px; fill: #000; opacity: 1;">1.0</text><text text-anchor="middle" transform="translate(112.5,15)" style="font-family: sans-serif; font-size: 10px; fill: #000; opacity: 1;">1.5</text><text text-anchor="middle" transform="translate(150,15)" style="font-family: sans-serif; font-size: 10px; fill: #000; opacity: 1;">2.0</text><text text-anchor="middle" transform="translate(187.5,15)" style="font-family: sans-serif; font-size: 10px; fill: #000; opacity: 1;">2.5</text><text text-anchor="middle" transform="translate(225,15)" style="font-family: sans-serif; font-size: 10px; fill: #000; opacity: 1;">3.0</text><text text-anchor="middle" transform="translate(262.5,15)" style="font-family: sans-serif; font-size: 10px; fill: #000; opacity: 1;">3.5</text><text text-anchor="middle" transform="translate(300,15)" style="font-family: sans-serif; font-size: 10px; fill: #000; opacity: 1;">4.0</text><text text-anchor="middle" transform="translate(337.5,15)" style="font-family: sans-serif; font-size: 10px; fill: #000; opacity: 1;">4.5</text><text text-anchor="middle" transform="translate(375,15)" style="font-family: sans-serif; font-size: 10px; fill: #000; opacity: 1;">5.0</text><text text-anchor="middle" transform="translate(412.50000000000006,15)" style="font-family: sans-serif; font-size: 10px; fill: #000; opacity: 1;">5.5</text><text text-anchor="middle" transform="translate(450,15)" style="font-family: sans-serif; font-size: 10px; fill: #000; opacity: 1;">6.0</text><text text-anchor="middle" transform="translate(487.5,15)" style="font-family: sans-serif; font-size: 10px; fill: #000; opacity: 1;">6.5</text><text text-anchor="middle" transform="translate(525,15)" style="font-family: sans-serif; font-size: 10px; fill: #000; opacity: 1;">7.0</text><text text-anchor="middle" transform="translate(562.5,15)" style="font-family: sans-serif; font-size: 10px; fill: #000; opacity: 1;">7.5</text><text text-anchor="middle" transform="translate(600,15)" style="font-family: sans-serif; font-size: 10px; fill: #000; opacity: 1;">8.0</text><text text-anchor="middle" transform="translate(637.5,15)" style="font-family: sans-serif; font-size: 10px; fill: #000; opacity: 1;">8.5</text><text text-anchor="middle" transform="translate(675,15)" style="font-family: sans-serif; font-size: 10px; fill: #000; opacity: 1;">9.0</text><text text-anchor="middle" transform="translate(712.5,15)" style="font-family: sans-serif; font-size: 10px; fill: #000; opacity: 1;">9.5</text><text text-anchor="end" transform="translate(750,15)" style="font-family: sans-serif; font-size: 10px; fill: #000; opacity: 1;">10.0</text></g><g class="mark-rule role-axis-domain" style="pointer-events: none;"><line transform="translate(0,0)" x2="750" y2="0" style="fill: none; stroke: #888; stroke-width: 1; opacity: 1;"></line></g><g class="mark-text role-axis-title" style="pointer-events: none;"><text text-anchor="middle" transform="translate(375,30)" style="font-family: sans-serif; font-size: 11px; font-weight: bold; fill: #000; opacity: 1;">LogDeaths</text></g></g><path class="foreground" d="" style="pointer-events: none; display: none; fill: none;"></path></g></g><g class="mark-group role-axis"><g transform="translate(0.5,0.5)"><path class="background" d="M0,0h0v0h0Z" style="pointer-events: none; fill: none;"></path><g><g class="mark-rule role-axis-tick" style="pointer-events: none;"><line transform="translate(0,375)" x2="-5" y2="0" style="fill: none; stroke: #888; stroke-width: 1; opacity: 1;"></line><line transform="translate(0,328)" x2="-5" y2="0" style="fill: none; stroke: #888; stroke-width: 1; opacity: 1;"></line><line transform="translate(0,281)" x2="-5" y2="0" style="fill: none; stroke: #888; stroke-width: 1; opacity: 1;"></line><line transform="translate(0,234)" x2="-5" y2="0" style="fill: none; stroke: #888; stroke-width: 1; opacity: 1;"></line><line transform="translate(0,188)" x2="-5" y2="0" style="fill: none; stroke: #888; stroke-width: 1; opacity: 1;"></line><line transform="translate(0,141)" x2="-5" y2="0" style="fill: none; stroke: #888; stroke-width: 1; opacity: 1;"></line><line transform="translate(0,94)" x2="-5" y2="0" style="fill: none; stroke: #888; stroke-width: 1; opacity: 1;"></line><line transform="translate(0,47)" x2="-5" y2="0" style="fill: none; stroke: #888; stroke-width: 1; opacity: 1;"></line><line transform="translate(0,0)" x2="-5" y2="0" style="fill: none; stroke: #888; stroke-width: 1; opacity: 1;"></line></g><g class="mark-text role-axis-label" style="pointer-events: none;"><text text-anchor="end" transform="translate(-7,378)" style="font-family: sans-serif; font-size: 10px; fill: #000; opacity: 1;">0</text><text text-anchor="end" transform="translate(-7,331.125)" style="font-family: sans-serif; font-size: 10px; fill: #000; opacity: 1;">1</text><text text-anchor="end" transform="translate(-7,284.25)" style="font-family: sans-serif; font-size: 10px; fill: #000; opacity: 1;">2</text><text text-anchor="end" transform="translate(-7,237.375)" style="font-family: sans-serif; font-size: 10px; fill: #000; opacity: 1;">3</text><text text-anchor="end" transform="translate(-7,190.5)" style="font-family: sans-serif; font-size: 10px; fill: #000; opacity: 1;">4</text><text text-anchor="end" transform="translate(-7,143.625)" style="font-family: sans-serif; font-size: 10px; fill: #000; opacity: 1;">5</text><text text-anchor="end" transform="translate(-7,96.75)" style="font-family: sans-serif; font-size: 10px; fill: #000; opacity: 1;">6</text><text text-anchor="end" transform="translate(-7,49.875)" style="font-family: sans-serif; font-size: 10px; fill: #000; opacity: 1;">7</text><text text-anchor="end" transform="translate(-7,3)" style="font-family: sans-serif; font-size: 10px; fill: #000; opacity: 1;">8</text></g><g class="mark-rule role-axis-domain" style="pointer-events: none;"><line transform="translate(0,375)" x2="0" y2="-375" style="fill: none; stroke: #888; stroke-width: 1; opacity: 1;"></line></g><g class="mark-text role-axis-title" style="pointer-events: none;"><text text-anchor="middle" transform="translate(-16.5615234375,187.5) rotate(-90) translate(0,-2)" style="font-family: sans-serif; font-size: 11px; font-weight: bold; fill: #000; opacity: 1;">LogNew</text></g></g><path class="foreground" d="" style="pointer-events: none; display: none; fill: none;"></path></g></g><g class="mark-group role-scope pathgroup"><g transform="translate(0,0)"><path class="background" d="M0,0h750v375h-750Z" style="fill: none;"></path><g><g class="mark-line role-mark marks"><path d="M216.77788184221234,375L244.35724035161115,277.52617773375766L280.32522137125267,245.03490364501025L301.9013768051362,251.29418767428473L330.50394354481904,222.27672478024306L365.63979924008635,192.57092352606438L366.77618461663155,342.50872591125255L385.62476673769953,204.48814876282566L402.09691242820696,199.79673664296712L416.76210462746525,195.53243453957367L441.66584687496606,158.2043993772998L453.9066876693313,180.0523554675154L464.73330958458905,178.60993396751132L474.9959721104768,174.53127567112242L483.78528166081315,175.8517855289363L493.23521767861683,166.7507223520164L501.8131708063923,165.66055693806638L510.59512077749446,159.1326475318082L518.9762887385558,155.96114838459818L526.0436606107896,159.1326475318082L526.38013493019,299.55759785465153L541.6376868966337,115.80801152290204L549.5342469194469,139.5056005853308L556.2283859394696,142.6956066749409L560.735428587293,157.7470786767358L564.7859996434152,160.07964943731693L570.1801001749363,143.69653438449885L574.2962094733643,153.40369599785902L578.5003416653904,149.8115135281286M585.0736553443305,125.4839072278871L585.1350301431729,342.50872591125255L589.6006346699992,140.126470589238L591.5969502449958,175.8517855289363L593.0462707069761,189.7854506914956L593.8425439745937,217.15800796938402L595.0347656111558,197.6161109100815L596.2876826106639,194.52433116984102L597.2072947626086,208.34305961768376L598.2961490066363,199.79673664296712L599.1407237053271,211.10120805625877L600.0513588386061,207.02254975986986L600.8516331870965,212.5436295562628L601.5695789236182,217.15800796938402L602.2563070700672,218.8029135855373L602.9368042854928,218.8029135855373L603.4912017962308,228.02370862832112L603.8744667631464,245.03490364501025L604.3982784161714,230.10738499882893L604.6588187066055,262.5986590875764L604.8477356830666,277.52617773375766L605.1537144536086,254.76799886899047L605.3882362206868,267.0663237659041L605.7153395429269,251.29418767428473L606.0178062162527,254.76799886899047L606.2727902356161,262.5986590875764L606.4576901751825,277.52617773375766L606.5499694855014,310.0174518225051L606.6881759128171,291.01127487993494L607.0325818448309,248.0601468233339M607.1927649720825,283.7854617630322L607.2841448189033,310.0174518225051L607.4210061707504,291.01127487993494L607.5348668272022,299.55759785465153L607.6031003421436,323.50254896868233L607.7166850980651,299.55759785465153L607.8074292107686,310.0174518225051L607.8300980941209,375L607.9885887191389,283.7854617630322L608.124171762993,291.01127487993494L608.2144244814654,310.0174518225051L608.3045687230866,310.0174518225051L608.3721058730805,323.50254896868233" style="fill: none; stroke: #4c78a8; stroke-width: 2;"></path></g></g><path class="foreground" d="" style="display: none; fill: none;"></path></g><g transform="translate(0,0)"><path class="background" d="M0,0h750v375h-750Z" style="fill: none;"></path><g><g class="mark-line role-mark marks"><path d="M0,375L51.986038541995896,375L82.39592165010824,375L145.9432611791485,310.0174518225051L172.69388197455345,323.50254896868233L186.36799873410004,342.50872591125255L212.4910008042162,299.55759785465153L228.33918282925674,310.0174518225051L252.54718724898555,277.52617773375766L264.4770393462121,299.55759785465153L296.3432788936071,239.51382384861728L327.7085889350266,220.50764690604709L350.4621625846429,218.8029135855373L374.7909205323086,200.92630937323557L396.2402796553491,192.57092352606438L408.8278840174275,207.02254975986986L442.6975000051024,145.7648846146053L460.32952905646755,160.56042288265394L483.54793969059097,134.81418846547226L503.83535212677685,127.58837534856953M535.7713202028091,89.78909001210134L545.4819446999642,132.90065747233527L562.5397114046472,98.05861227333135L575.770285936356,100.54350364676124L586.8933968573831,101.083855451655L599.9255409932966,86.09461856087619L609.9750163937709,91.0882493799082L622.6513357313403,73.08063090783183L636.1174510329815,62.07078648586651L645.6097639806255,71.31986052147333L653.4199824101516,75.06586244366214L662.0711063128131,65.12362290385504L669.2293664659296,69.07055345761921L676.0287772853527,67.12134790256363L683.9819245308709,55.15846301457718L690.947829826865,56.71419208528572L696.4016306836222,64.31056049158437L701.8488160416558,60.96092155492135L707.0780452884703,59.53949669580584L711.3417895105794,66.14407136561628L715.5542005469993,64.06319843998233L719.5732064804595,63.69458579340979L722.9739154918971,69.20801689924163L725.4942332790017,81.40320644101764" style="fill: none; stroke: #9ecae9; stroke-width: 2;"></path></g></g><path class="foreground" d="" style="display: none; fill: none;"></path></g><g transform="translate(0,0)"><path class="background" d="M0,0h750v375h-750Z" style="fill: none;"></path><g><g class="mark-line role-mark marks"><path d="M0,375L51.986038541995896,375L82.39592165010824,375L120.70784343255751,342.50872591125255L172.69388197455345,299.55759785465153L212.4910008042162,283.7854617630322L249.9153382631403,262.5986590875764L266.651104611706,283.7854617630322L299.1738034923206,236.9794228515731L300.54998889243535,375L366.77618461663155,170.7792737489254L395.47496689228103,181.54057570101133L424.9820016084324,162.03305708109357L437.61080527969534,188.89256655224426L470.8891068124383,128.79968306031424L482.590988909059,164.07142170326884L504.10692755929824,125.02880656568584L521.2392341250579,123.68942973237068L541.9656757575503,102.88429833203962L560.9898098373769,94.50298684278793L580.9076707705785,80.16958261364074L595.5170823859277,83.97234252672052L615.124514310651,59.42762313434972L628.6030101205278,66.7279889508645L640.8314383252372,63.26816959746458L652.238267939242,59.1491018158145L661.8839227758796,60.44422924441745L671.3288530519214,55.46550559711087L678.2682865573561,64.80923540744637L686.0310774252744,54.954879632678825L693.341140747944,53.06369957951754L699.2617852431629,58.817046117920505L704.1176609862918,64.74661014763035L708.3525583871668,68.32162685124354" style="fill: none; stroke: #f58518; stroke-width: 2;"></path></g></g><path class="foreground" d="" style="display: none; fill: none;"></path></g><g transform="translate(0,0)"><path class="background" d="M0,0h750v375h-750Z" style="fill: none;"></path><g><g class="mark-line role-mark marks"><path d="M0,375ZM134.38196019210412,299.55759785465153L145.9432611791485,375L179.8421454598778,310.0174518225051L186.36799873410004,375L197.9292997211444,342.50872591125255L212.4910008042162,323.50254896868233L228.33918282925674,310.0174518225051L231.8281840018737,375L249.9153382631403,291.01127487993494L268.76392038420823,277.52617773375766L276.66595905854524,310.0174518225051L288.76107012825435,283.7854617630322L299.1738034923206,283.7854617630322L310.7351044793649,272.00509793736467L333.1988442367737,230.10738499882893L351.1598420343165,228.02370862832112L357.8013468349249,267.0663237659041L397.37380249110277,168.43503528448812L412.28761689699013,197.6161109100815L429.5135810690398,180.7905597003969L452.4814666349101,154.66498285348047L474.19239299454637,143.36051144018887L491.9711428119931,140.4400169088066L513.6003955932272,118.8828841394245L532.3161637961094,113.0977191374883L552.4359627907104,97.55185058094628L571.0364013606471,89.1527680234575L585.8068587397017,89.57602146342909L599.9255409932966,82.67017545920136L619.6338509636064,56.39888820586615L635.0529372324211,56.978575188860475L651.5328546100133,43.87950180599681L664.9513049107692,44.201391482911355L677.7614978351472,38.18498364466798L687.8621691114462,42.18622656425346" style="fill: none; stroke: #ffbf79; stroke-width: 2;"></path></g></g><path class="foreground" d="" style="display: none; fill: none;"></path></g><g transform="translate(0,0)"><path class="background" d="M0,0h750v375h-750Z" style="fill: none;"></path><g><g class="mark-line role-mark marks"><path d="M0,375L51.986038541995896,375M82.39592165010824,375L103.97207708399179,375L134.38196019210412,342.50872591125255L155.95811562598766,342.50872591125255M228.33918282925674,254.76799886899047ZM301.9013768051362,208.34305961768376ZM320.74995892620416,245.03490364501025L369.5440263867904,178.60993396751132L388.6337662719064,202.08377558840925L409.14908365182765,186.31163949678987L423.14303032035855,193.53745261369264L436.2833369972403,188.01637281729964L453.5529134284708,165.66055693806638L460.81392255942336,198.69374457686428L477.22710776553487,152.99069773150802L497.59750183962643,131.3204516594144L519.6403363623499,114.34304854614714L533.668659463834,124.35433449761867L543.9040463889611,131.5801476145214L561.8734105203849,96.30840897156678L582.38586772021,78.04433196102848L598.6043686185052,77.63060465032824L614.3805015958093,68.93349195645817L627.8258010928616,67.31927219380653L637.9295784980219,73.38063193183814" style="fill: none; stroke: #54a24b; stroke-width: 2;"></path></g></g><path class="foreground" d="" style="display: none; fill: none;"></path></g></g><g class="mark-group role-legend"><g transform="translate(768,0)"><path class="background" d="M0,0h88v79h-88Z" style="pointer-events: none; fill: none;"></path><g><g class="mark-group role-legend-entry"><g transform="translate(0,16)"><path class="background" d="M0,0h0v0h0Z" style="pointer-events: none; fill: none;"></path><g><g class="mark-group role-scope"><g transform="translate(0,0)"><path class="background" d="M0,0h87.15234375v11h-87.15234375Z" style="pointer-events: none; fill: none; opacity: 1;"></path><g><g class="mark-symbol role-legend-symbol" style="pointer-events: none;"><path transform="translate(6,6)" d="M-5,0L5,0" style="fill: none; stroke: #4c78a8; stroke-width: 1.5; opacity: 1;"></path></g><g class="mark-text role-legend-label" style="pointer-events: none;"><text text-anchor="start" transform="translate(16,9)" style="font-family: sans-serif; font-size: 10px; fill: #000; opacity: 1;">China</text></g></g><path class="foreground" d="" style="pointer-events: none; display: none; fill: none;"></path></g><g transform="translate(0,13)"><path class="background" d="M0,0h87.15234375v11h-87.15234375Z" style="pointer-events: none; fill: none; opacity: 1;"></path><g><g class="mark-symbol role-legend-symbol" style="pointer-events: none;"><path transform="translate(6,6)" d="M-5,0L5,0" style="fill: none; stroke: #9ecae9; stroke-width: 1.5; opacity: 1;"></path></g><g class="mark-text role-legend-label" style="pointer-events: none;"><text text-anchor="start" transform="translate(16,9)" style="font-family: sans-serif; font-size: 10px; fill: #000; opacity: 1;">Italy</text></g></g><path class="foreground" d="" style="pointer-events: none; display: none; fill: none;"></path></g><g transform="translate(0,26)"><path class="background" d="M0,0h87.15234375v11h-87.15234375Z" style="pointer-events: none; fill: none; opacity: 1;"></path><g><g class="mark-symbol role-legend-symbol" style="pointer-events: none;"><path transform="translate(6,6)" d="M-5,0L5,0" style="fill: none; stroke: #f58518; stroke-width: 1.5; opacity: 1;"></path></g><g class="mark-text role-legend-label" style="pointer-events: none;"><text text-anchor="start" transform="translate(16,9)" style="font-family: sans-serif; font-size: 10px; fill: #000; opacity: 1;">Spain</text></g></g><path class="foreground" d="" style="pointer-events: none; display: none; fill: none;"></path></g><g transform="translate(0,39)"><path class="background" d="M0,0h87.15234375v11h-87.15234375Z" style="pointer-events: none; fill: none; opacity: 1;"></path><g><g class="mark-symbol role-legend-symbol" style="pointer-events: none;"><path transform="translate(6,6)" d="M-5,0L5,0" style="fill: none; stroke: #ffbf79; stroke-width: 1.5; opacity: 1;"></path></g><g class="mark-text role-legend-label" style="pointer-events: none;"><text text-anchor="start" transform="translate(16,9)" style="font-family: sans-serif; font-size: 10px; fill: #000; opacity: 1;">US</text></g></g><path class="foreground" d="" style="pointer-events: none; display: none; fill: none;"></path></g><g transform="translate(0,52)"><path class="background" d="M0,0h87.15234375v11h-87.15234375Z" style="pointer-events: none; fill: none; opacity: 1;"></path><g><g class="mark-symbol role-legend-symbol" style="pointer-events: none;"><path transform="translate(6,6)" d="M-5,0L5,0" style="fill: none; stroke: #54a24b; stroke-width: 1.5; opacity: 1;"></path></g><g class="mark-text role-legend-label" style="pointer-events: none;"><text text-anchor="start" transform="translate(16,9)" style="font-family: sans-serif; font-size: 10px; fill: #000; opacity: 1;">United Kingdom</text></g></g><path class="foreground" d="" style="pointer-events: none; display: none; fill: none;"></path></g></g></g><path class="foreground" d="" style="pointer-events: none; display: none; fill: none;"></path></g></g><g class="mark-text role-legend-title" style="pointer-events: none;"><text text-anchor="start" transform="translate(0,9)" style="font-family: sans-serif; font-size: 11px; font-weight: bold; fill: #000; opacity: 1;">country</text></g></g><path class="foreground" d="" style="pointer-events: none; display: none; fill: none;"></path></g></g><g class="mark-group role-title"><g transform="translate(375,-22)"><path class="background" d="M0,0h0v0h0Z" style="pointer-events: none; fill: none;"></path><g><g class="mark-text role-title-text" style="pointer-events: none;"><text text-anchor="middle" transform="translate(0,10)" style="font-family: sans-serif; font-size: 13px; font-weight: bold; fill: #000; opacity: 1;">LogNew by LogDeaths in ['China', 'Italy', 'Spain', 'US', 'United Kingdom'] as of 04-04-2020</text></g></g><path class="foreground" d="" style="pointer-events: none; display: none; fill: none;"></path></g></g></g><path class="foreground" d="" style="display: none; fill: none;"></path></g></g></g></svg>