<svg class="marks" width="808" height="496" viewBox="0 0 808 496" version="1.1" xmlns="http://www.w3.org/2000/svg" xmlns:xlink="http://www.w3.org/1999/xlink"><rect width="808" height="496" style="fill: white;"></rect><g transform="translate(53,27)"><g class="mark-group role-frame root"><g transform="translate(0,0)"><path class="background" d="M0.5,0.5h750v375h-750Z" style="fill: none; stroke: #ddd;"></path><g><g class="mark-group role-axis"><g transform="translate(0.5,0.5)"><path class="background" d="M0,0h0v0h0Z" style="pointer-events: none; fill: none;"></path><g><g class="mark-rule role-axis-grid" style="pointer-events: none;"><line transform="translate(0,375)" x2="750" y2="0" style="fill: none; stroke: #ddd; stroke-width: 1; opacity: 1;"></line><line transform="translate(0,350)" x2="750" y2="0" style="fill: none; stroke: #ddd; stroke-width: 1; opacity: 1;"></line><line transform="translate(0,325)" x2="750" y2="0" style="fill: none; stroke: #ddd; stroke-width: 1; opacity: 1;"></line><line transform="translate(0,300)" x2="750" y2="0" style="fill: none; stroke: #ddd; stroke-width: 1; opacity: 1;"></line><line transform="translate(0,275)" x2="750" y2="0" style="fill: none; stroke: #ddd; stroke-width: 1; opacity: 1;"></line><line transform="translate(0,250)" x2="750" y2="0" style="fill: none; stroke: #ddd; stroke-width: 1; opacity: 1;"></line><line transform="translate(0,225)" x2="750" y2="0" style="fill: none; stroke: #ddd; stroke-width: 1; opacity: 1;"></line><line transform="translate(0,200)" x2="750" y2="0" style="fill: none; stroke: #ddd; stroke-width: 1; opacity: 1;"></line><line transform="translate(0,175)" x2="750" y2="0" style="fill: none; stroke: #ddd; stroke-width: 1; opacity: 1;"></line><line transform="translate(0,150)" x2="750" y2="0" style="fill: none; stroke: #ddd; stroke-width: 1; opacity: 1;"></line><line transform="translate(0,125)" x2="750" y2="0" style="fill: none; stroke: #ddd; stroke-width: 1; opacity: 1;"></line><line transform="translate(0,100)" x2="750" y2="0" style="fill: none; stroke: #ddd; stroke-width: 1; opacity: 1;"></line><line transform="translate(0,75)" x2="750" y2="0" style="fill: none; stroke: #ddd; stroke-width: 1; opacity: 1;"></line><line transform="translate(0,50)" x2="750" y2="0" style="fill: none; stroke: #ddd; stroke-width: 1; opacity: 1;"></line><line transform="translate(0,25)" x2="750" y2="0" style="fill: none; stroke: #ddd; stroke-width: 1; opacity: 1;"></line><line transform="translate(0,0)" x2="750" y2="0" style="fill: none; stroke: #ddd; stroke-width: 1; opacity: 1;"></line></g></g><path class="foreground" d="" style="pointer-events: none; display: none; fill: none;"></path></g></g><g class="mark-group role-axis"><g transform="translate(0.5,375.5)"><path class="background" d="M0,0h0v0h0Z" style="pointer-events: none; fill: none;"></path><g><g class="mark-rule role-axis-tick" style="pointer-events: none;"><line transform="translate(25,0)" x2="0" y2="5" style="fill: none; stroke: #888; stroke-width: 1; opacity: 1;"></line><line transform="translate(75,0)" x2="0" y2="5" style="fill: none; stroke: #888; stroke-width: 1; opacity: 1;"></line><line transform="translate(125,0)" x2="0" y2="5" style="fill: none; stroke: #888; stroke-width: 1; opacity: 1;"></line><line transform="translate(175,0)" x2="0" y2="5" style="fill: none; stroke: #888; stroke-width: 1; opacity: 1;"></line><line transform="translate(225,0)" x2="0" y2="5" style="fill: none; stroke: #888; stroke-width: 1; opacity: 1;"></line><line transform="translate(275,0)" x2="0" y2="5" style="fill: none; stroke: #888; stroke-width: 1; opacity: 1;"></line><line transform="translate(325,0)" x2="0" y2="5" style="fill: none; stroke: #888; stroke-width: 1; opacity: 1;"></line><line transform="translate(375,0)" x2="0" y2="5" style="fill: none; stroke: #888; stroke-width: 1; opacity: 1;"></line><line transform="translate(425,0)" x2="0" y2="5" style="fill: none; stroke: #888; stroke-width: 1; opacity: 1;"></line><line transform="translate(475,0)" x2="0" y2="5" style="fill: none; stroke: #888; stroke-width: 1; opacity: 1;"></line><line transform="translate(525,0)" x2="0" y2="5" style="fill: none; stroke: #888; stroke-width: 1; opacity: 1;"></line><line transform="translate(575,0)" x2="0" y2="5" style="fill: none; stroke: #888; stroke-width: 1; opacity: 1;"></line><line transform="translate(625,0)" x2="0" y2="5" style="fill: none; stroke: #888; stroke-width: 1; opacity: 1;"></line><line transform="translate(675,0)" x2="0" y2="5" style="fill: none; stroke: #888; stroke-width: 1; opacity: 1;"></line><line transform="translate(725,0)" x2="0" y2="5" style="fill: none; stroke: #888; stroke-width: 1; opacity: 1;"></line></g><g class="mark-text role-axis-label" style="pointer-events: none;"><text text-anchor="end" transform="translate(24.5,7) rotate(270) translate(0,3)" style="font-family: sans-serif; font-size: 10px; fill: #000; opacity: 1;">New York</text><text text-anchor="end" transform="translate(74.5,7) rotate(270) translate(0,3)" style="font-family: sans-serif; font-size: 10px; fill: #000; opacity: 1;">New Jersey</text><text text-anchor="end" transform="translate(124.5,7) rotate(270) translate(0,3)" style="font-family: sans-serif; font-size: 10px; fill: #000; opacity: 1;">Michigan</text><text text-anchor="end" transform="translate(174.5,7) rotate(270) translate(0,3)" style="font-family: sans-serif; font-size: 10px; fill: #000; opacity: 1;">Louisiana</text><text text-anchor="end" transform="translate(224.5,7) rotate(270) translate(0,3)" style="font-family: sans-serif; font-size: 10px; fill: #000; opacity: 1;">Washington</text><text text-anchor="end" transform="translate(274.5,7) rotate(270) translate(0,3)" style="font-family: sans-serif; font-size: 10px; fill: #000; opacity: 1;">California</text><text text-anchor="end" transform="translate(324.5,7) rotate(270) translate(0,3)" style="font-family: sans-serif; font-size: 10px; fill: #000; opacity: 1;">Illinois</text><text text-anchor="end" transform="translate(374.5,7) rotate(270) translate(0,3)" style="font-family: sans-serif; font-size: 10px; fill: #000; opacity: 1;">Massachusetts</text><text text-anchor="end" transform="translate(424.5,7) rotate(270) translate(0,3)" style="font-family: sans-serif; font-size: 10px; fill: #000; opacity: 1;">Georgia</text><text text-anchor="end" transform="translate(474.5,7) rotate(270) translate(0,3)" style="font-family: sans-serif; font-size: 10px; fill: #000; opacity: 1;">Florida</text><text text-anchor="end" transform="translate(524.5,7) rotate(270) translate(0,3)" style="font-family: sans-serif; font-size: 10px; fill: #000; opacity: 1;">Connecticut</text><text text-anchor="end" transform="translate(574.5,7) rotate(270) translate(0,3)" style="font-family: sans-serif; font-size: 10px; fill: #000; opacity: 1;">Pennsylvania</text><text text-anchor="end" transform="translate(624.5,7) rotate(270) translate(0,3)" style="font-family: sans-serif; font-size: 10px; fill: #000; opacity: 1;">Indiana</text><text text-anchor="end" transform="translate(674.5,7) rotate(270) translate(0,3)" style="font-family: sans-serif; font-size: 10px; fill: #000; opacity: 1;">Texas</text><text text-anchor="end" transform="translate(724.5,7) rotate(270) translate(0,3)" style="font-family: sans-serif; font-size: 10px; fill: #000; opacity: 1;">Colorado</text></g><g class="mark-rule role-axis-domain" style="pointer-events: none;"><line transform="translate(0,0)" x2="750" y2="0" style="fill: none; stroke: #888; stroke-width: 1; opacity: 1;"></line></g><g class="mark-text role-axis-title" style="pointer-events: none;"><text text-anchor="middle" transform="translate(375,86.6943359375)" style="font-family: sans-serif; font-size: 11px; font-weight: bold; fill: #000; opacity: 1;">Province_State</text></g></g><path class="foreground" d="" style="pointer-events: none; display: none; fill: none;"></path></g></g><g class="mark-group role-axis"><g transform="translate(0.5,0.5)"><path class="background" d="M0,0h0v0h0Z" style="pointer-events: none; fill: none;"></path><g><g class="mark-rule role-axis-tick" style="pointer-events: none;"><line transform="translate(0,375)" x2="-5" y2="0" style="fill: none; stroke: #888; stroke-width: 1; opacity: 1;"></line><line transform="translate(0,350)" x2="-5" y2="0" style="fill: none; stroke: #888; stroke-width: 1; opacity: 1;"></line><line transform="translate(0,325)" x2="-5" y2="0" style="fill: none; stroke: #888; stroke-width: 1; opacity: 1;"></line><line transform="translate(0,300)" x2="-5" y2="0" style="fill: none; stroke: #888; stroke-width: 1; opacity: 1;"></line><line transform="translate(0,275)" x2="-5" y2="0" style="fill: none; stroke: #888; stroke-width: 1; opacity: 1;"></line><line transform="translate(0,250)" x2="-5" y2="0" style="fill: none; stroke: #888; stroke-width: 1; opacity: 1;"></line><line transform="translate(0,225)" x2="-5" y2="0" style="fill: none; stroke: #888; stroke-width: 1; opacity: 1;"></line><line transform="translate(0,200)" x2="-5" y2="0" style="fill: none; stroke: #888; stroke-width: 1; opacity: 1;"></line><line transform="translate(0,175)" x2="-5" y2="0" style="fill: none; stroke: #888; stroke-width: 1; opacity: 1;"></line><line transform="translate(0,150)" x2="-5" y2="0" style="fill: none; stroke: #888; stroke-width: 1; opacity: 1;"></line><line transform="translate(0,125)" x2="-5" y2="0" style="fill: none; stroke: #888; stroke-width: 1; opacity: 1;"></line><line transform="translate(0,100)" x2="-5" y2="0" style="fill: none; stroke: #888; stroke-width: 1; opacity: 1;"></line><line transform="translate(0,75)" x2="-5" y2="0" style="fill: none; stroke: #888; stroke-width: 1; opacity: 1;"></line><line transform="translate(0,50)" x2="-5" y2="0" style="fill: none; stroke: #888; stroke-width: 1; opacity: 1;"></line><line transform="translate(0,25)" x2="-5" y2="0" style="fill: none; stroke: #888; stroke-width: 1; opacity: 1;"></line><line transform="translate(0,0)" x2="-5" y2="0" style="fill: none; stroke: #888; stroke-width: 1; opacity: 1;"></line></g><g class="mark-text role-axis-label" style="pointer-events: none;"><text text-anchor="end" transform="translate(-7,378)" style="font-family: sans-serif; font-size: 10px; fill: #000; opacity: 1;">0</text><text text-anchor="end" transform="translate(-7,353)" style="font-family: sans-serif; font-size: 10px; fill: #000; opacity: 1;">200</text><text text-anchor="end" transform="translate(-7,328)" style="font-family: sans-serif; font-size: 10px; fill: #000; opacity: 1;">400</text><text text-anchor="end" transform="translate(-7,303)" style="font-family: sans-serif; font-size: 10px; fill: #000; opacity: 1;">600</text><text text-anchor="end" transform="translate(-7,278)" style="font-family: sans-serif; font-size: 10px; fill: #000; opacity: 1;">800</text><text text-anchor="end" transform="translate(-7,253.00000000000003)" style="font-family: sans-serif; font-size: 10px; fill: #000; opacity: 1;">1,000</text><text text-anchor="end" transform="translate(-7,228)" style="font-family: sans-serif; font-size: 10px; fill: #000; opacity: 1;">1,200</text><text text-anchor="end" transform="translate(-7,203)" style="font-family: sans-serif; font-size: 10px; fill: #000; opacity: 1;">1,400</text><text text-anchor="end" transform="translate(-7,178)" style="font-family: sans-serif; font-size: 10px; fill: #000; opacity: 1;">1,600</text><text text-anchor="end" transform="translate(-7,153)" style="font-family: sans-serif; font-size: 10px; fill: #000; opacity: 1;">1,800</text><text text-anchor="end" transform="translate(-7,128)" style="font-family: sans-serif; font-size: 10px; fill: #000; opacity: 1;">2,000</text><text text-anchor="end" transform="translate(-7,103.00000000000001)" style="font-family: sans-serif; font-size: 10px; fill: #000; opacity: 1;">2,200</text><text text-anchor="end" transform="translate(-7,77.99999999999999)" style="font-family: sans-serif; font-size: 10px; fill: #000; opacity: 1;">2,400</text><text text-anchor="end" transform="translate(-7,52.999999999999986)" style="font-family: sans-serif; font-size: 10px; fill: #000; opacity: 1;">2,600</text><text text-anchor="end" transform="translate(-7,27.999999999999993)" style="font-family: sans-serif; font-size: 10px; fill: #000; opacity: 1;">2,800</text><text text-anchor="end" transform="translate(-7,3)" style="font-family: sans-serif; font-size: 10px; fill: #000; opacity: 1;">3,000</text></g><g class="mark-rule role-axis-domain" style="pointer-events: none;"><line transform="translate(0,375)" x2="0" y2="-375" style="fill: none; stroke: #888; stroke-width: 1; opacity: 1;"></line></g><g class="mark-text role-axis-title" style="pointer-events: none;"><text text-anchor="middle" transform="translate(-36.0244140625,187.5) rotate(-90) translate(0,-2)" style="font-family: sans-serif; font-size: 11px; font-weight: bold; fill: #000; opacity: 1;">Deaths</text></g></g><path class="foreground" d="" style="pointer-events: none; display: none; fill: none;"></path></g></g><g class="mark-rect role-mark marks"><path d="M10,8.124999999999979h30v366.875h-30Z" style="fill: red; opacity: 0.9;"></path><path d="M60,294.25h30v80.75h-30Z" style="fill: red; opacity: 0.9;"></path><path d="M110,315.125h30v59.875h-30Z" style="fill: red; opacity: 0.9;"></path><path d="M160,328.75h30v46.25h-30Z" style="fill: red; opacity: 0.9;"></path><path d="M210,338.625h30v36.375h-30Z" style="fill: red; opacity: 0.9;"></path><path d="M260,341.875h30v33.125h-30Z" style="fill: red; opacity: 0.9;"></path><path d="M310,348.75h30v26.25h-30Z" style="fill: red; opacity: 0.9;"></path><path d="M360,351h30v24h-30Z" style="fill: red; opacity: 0.9;"></path><path d="M410,352h30v23h-30Z" style="fill: red; opacity: 0.9;"></path><path d="M460,353.75h30v21.25h-30Z" style="fill: red; opacity: 0.9;"></path><path d="M510,358.625h30v16.375h-30Z" style="fill: red; opacity: 0.9;"></path><path d="M560,362.25h30v12.75h-30Z" style="fill: red; opacity: 0.9;"></path><path d="M610,362.25h30v12.75h-30Z" style="fill: red; opacity: 0.9;"></path><path d="M660,362.5h30v12.5h-30Z" style="fill: red; opacity: 0.9;"></path><path d="M710,362.875h30v12.125h-30Z" style="fill: red; opacity: 0.9;"></path></g><g class="mark-group role-title"><g transform="translate(375,-22)"><path class="background" d="M0,0h0v0h0Z" style="pointer-events: none; fill: none;"></path><g><g class="mark-text role-title-text" style="pointer-events: none;"><text text-anchor="middle" transform="translate(0,10)" style="font-family: sans-serif; font-size: 13px; font-weight: bold; fill: #000; opacity: 1;">Total Deaths for top 15 regions of US as of 04-03-2020</text></g></g><path class="foreground" d="" style="pointer-events: none; display: none; fill: none;"></path></g></g></g><path class="foreground" d="" style="display: none; fill: none;"></path></g></g></g></svg>