<svg class="marks" width="927" height="439" viewBox="0 0 927 439" version="1.1" xmlns="http://www.w3.org/2000/svg" xmlns:xlink="http://www.w3.org/1999/xlink"><rect width="927" height="439" style="fill: white;"></rect><g transform="translate(64,27)"><g class="mark-group role-frame root"><g transform="translate(0,0)"><path class="background" d="M0.5,0.5h750v375h-750Z" style="fill: none; stroke: #ddd;"></path><g><g class="mark-group role-axis"><g transform="translate(0.5,375.5)"><path class="background" d="M0,0h0v0h0Z" style="pointer-events: none; fill: none;"></path><g><g class="mark-rule role-axis-grid" style="pointer-events: none;"><line transform="translate(11,-375)" x2="0" y2="375" style="fill: none; stroke: #ddd; stroke-width: 1; opacity: 1;"></line><line transform="translate(32,-375)" x2="0" y2="375" style="fill: none; stroke: #ddd; stroke-width: 1; opacity: 1;"></line><line transform="translate(53,-375)" x2="0" y2="375" style="fill: none; stroke: #ddd; stroke-width: 1; opacity: 1;"></line><line transform="translate(74,-375)" x2="0" y2="375" style="fill: none; stroke: #ddd; stroke-width: 1; opacity: 1;"></line><line transform="translate(95,-375)" x2="0" y2="375" style="fill: none; stroke: #ddd; stroke-width: 1; opacity: 1;"></line><line transform="translate(106,-375)" x2="0" y2="375" style="fill: none; stroke: #ddd; stroke-width: 1; opacity: 1;"></line><line transform="translate(127,-375)" x2="0" y2="375" style="fill: none; stroke: #ddd; stroke-width: 1; opacity: 1;"></line><line transform="translate(148,-375)" x2="0" y2="375" style="fill: none; stroke: #ddd; stroke-width: 1; opacity: 1;"></line><line transform="translate(169,-375)" x2="0" y2="375" style="fill: none; stroke: #ddd; stroke-width: 1; opacity: 1;"></line><line transform="translate(190,-375)" x2="0" y2="375" style="fill: none; stroke: #ddd; stroke-width: 1; opacity: 1;"></line><line transform="translate(211,-375)" x2="0" y2="375" style="fill: none; stroke: #ddd; stroke-width: 1; opacity: 1;"></line><line transform="translate(233,-375)" x2="0" y2="375" style="fill: none; stroke: #ddd; stroke-width: 1; opacity: 1;"></line><line transform="translate(254,-375)" x2="0" y2="375" style="fill: none; stroke: #ddd; stroke-width: 1; opacity: 1;"></line><line transform="translate(275,-375)" x2="0" y2="375" style="fill: none; stroke: #ddd; stroke-width: 1; opacity: 1;"></line><line transform="translate(296,-375)" x2="0" y2="375" style="fill: none; stroke: #ddd; stroke-width: 1; opacity: 1;"></line><line transform="translate(317,-375)" x2="0" y2="375" style="fill: none; stroke: #ddd; stroke-width: 1; opacity: 1;"></line><line transform="translate(338,-375)" x2="0" y2="375" style="fill: none; stroke: #ddd; stroke-width: 1; opacity: 1;"></line><line transform="translate(359,-375)" x2="0" y2="375" style="fill: none; stroke: #ddd; stroke-width: 1; opacity: 1;"></line><line transform="translate(381,-375)" x2="0" y2="375" style="fill: none; stroke: #ddd; stroke-width: 1; opacity: 1;"></line><line transform="translate(402,-375)" x2="0" y2="375" style="fill: none; stroke: #ddd; stroke-width: 1; opacity: 1;"></line><line transform="translate(412,-375)" x2="0" y2="375" style="fill: none; stroke: #ddd; stroke-width: 1; opacity: 1;"></line><line transform="translate(433,-375)" x2="0" y2="375" style="fill: none; stroke: #ddd; stroke-width: 1; opacity: 1;"></line><line transform="translate(454,-375)" x2="0" y2="375" style="fill: none; stroke: #ddd; stroke-width: 1; opacity: 1;"></line><line transform="translate(476,-375)" x2="0" y2="375" style="fill: none; stroke: #ddd; stroke-width: 1; opacity: 1;"></line><line transform="translate(497,-375)" x2="0" y2="375" style="fill: none; stroke: #ddd; stroke-width: 1; opacity: 1;"></line><line transform="translate(518,-375)" x2="0" y2="375" style="fill: none; stroke: #ddd; stroke-width: 1; opacity: 1;"></line><line transform="translate(539,-375)" x2="0" y2="375" style="fill: none; stroke: #ddd; stroke-width: 1; opacity: 1;"></line><line transform="translate(560,-375)" x2="0" y2="375" style="fill: none; stroke: #ddd; stroke-width: 1; opacity: 1;"></line><line transform="translate(581,-375)" x2="0" y2="375" style="fill: none; stroke: #ddd; stroke-width: 1; opacity: 1;"></line><line transform="translate(602,-375)" x2="0" y2="375" style="fill: none; stroke: #ddd; stroke-width: 1; opacity: 1;"></line><line transform="translate(624,-375)" x2="0" y2="375" style="fill: none; stroke: #ddd; stroke-width: 1; opacity: 1;"></line><line transform="translate(645,-375)" x2="0" y2="375" style="fill: none; stroke: #ddd; stroke-width: 1; opacity: 1;"></line><line transform="translate(666,-375)" x2="0" y2="375" style="fill: none; stroke: #ddd; stroke-width: 1; opacity: 1;"></line><line transform="translate(687,-375)" x2="0" y2="375" style="fill: none; stroke: #ddd; stroke-width: 1; opacity: 1;"></line><line transform="translate(708,-375)" x2="0" y2="375" style="fill: none; stroke: #ddd; stroke-width: 1; opacity: 1;"></line><line transform="translate(729,-375)" x2="0" y2="375" style="fill: none; stroke: #ddd; stroke-width: 1; opacity: 1;"></line><line transform="translate(739,-375)" x2="0" y2="375" style="fill: none; stroke: #ddd; stroke-width: 1; opacity: 1;"></line></g></g><path class="foreground" d="" style="pointer-events: none; display: none; fill: none;"></path></g></g><g class="mark-group role-axis"><g transform="translate(0.5,0.5)"><path class="background" d="M0,0h0v0h0Z" style="pointer-events: none; fill: none;"></path><g><g class="mark-rule role-axis-grid" style="pointer-events: none;"><line transform="translate(0,375)" x2="750" y2="0" style="fill: none; stroke: #ddd; stroke-width: 1; opacity: 1;"></line><line transform="translate(0,346)" x2="750" y2="0" style="fill: none; stroke: #ddd; stroke-width: 1; opacity: 1;"></line><line transform="translate(0,317)" x2="750" y2="0" style="fill: none; stroke: #ddd; stroke-width: 1; opacity: 1;"></line><line transform="translate(0,288)" x2="750" y2="0" style="fill: none; stroke: #ddd; stroke-width: 1; opacity: 1;"></line><line transform="translate(0,260)" x2="750" y2="0" style="fill: none; stroke: #ddd; stroke-width: 1; opacity: 1;"></line><line transform="translate(0,231)" x2="750" y2="0" style="fill: none; stroke: #ddd; stroke-width: 1; opacity: 1;"></line><line transform="translate(0,202)" x2="750" y2="0" style="fill: none; stroke: #ddd; stroke-width: 1; opacity: 1;"></line><line transform="translate(0,173)" x2="750" y2="0" style="fill: none; stroke: #ddd; stroke-width: 1; opacity: 1;"></line><line transform="translate(0,144)" x2="750" y2="0" style="fill: none; stroke: #ddd; stroke-width: 1; opacity: 1;"></line><line transform="translate(0,115)" x2="750" y2="0" style="fill: none; stroke: #ddd; stroke-width: 1; opacity: 1;"></line><line transform="translate(0,87)" x2="750" y2="0" style="fill: none; stroke: #ddd; stroke-width: 1; opacity: 1;"></line><line transform="translate(0,58)" x2="750" y2="0" style="fill: none; stroke: #ddd; stroke-width: 1; opacity: 1;"></line><line transform="translate(0,29)" x2="750" y2="0" style="fill: none; stroke: #ddd; stroke-width: 1; opacity: 1;"></line><line transform="translate(0,0)" x2="750" y2="0" style="fill: none; stroke: #ddd; stroke-width: 1; opacity: 1;"></line></g></g><path class="foreground" d="" style="pointer-events: none; display: none; fill: none;"></path></g></g><g class="mark-group role-axis"><g transform="translate(0.5,375.5)"><path class="background" d="M0,0h0v0h0Z" style="pointer-events: none; fill: none;"></path><g><g class="mark-rule role-axis-tick" style="pointer-events: none;"><line transform="translate(11,0)" x2="0" y2="5" style="fill: none; stroke: #888; stroke-width: 1; opacity: 1;"></line><line transform="translate(32,0)" x2="0" y2="5" style="fill: none; stroke: #888; stroke-width: 1; opacity: 1;"></line><line transform="translate(53,0)" x2="0" y2="5" style="fill: none; stroke: #888; stroke-width: 1; opacity: 1;"></line><line transform="translate(74,0)" x2="0" y2="5" style="fill: none; stroke: #888; stroke-width: 1; opacity: 1;"></line><line transform="translate(95,0)" x2="0" y2="5" style="fill: none; stroke: #888; stroke-width: 1; opacity: 1;"></line><line transform="translate(106,0)" x2="0" y2="5" style="fill: none; stroke: #888; stroke-width: 1; opacity: 1;"></line><line transform="translate(127,0)" x2="0" y2="5" style="fill: none; stroke: #888; stroke-width: 1; opacity: 1;"></line><line transform="translate(148,0)" x2="0" y2="5" style="fill: none; stroke: #888; stroke-width: 1; opacity: 1;"></line><line transform="translate(169,0)" x2="0" y2="5" style="fill: none; stroke: #888; stroke-width: 1; opacity: 1;"></line><line transform="translate(190,0)" x2="0" y2="5" style="fill: none; stroke: #888; stroke-width: 1; opacity: 1;"></line><line transform="translate(211,0)" x2="0" y2="5" style="fill: none; stroke: #888; stroke-width: 1; opacity: 1;"></line><line transform="translate(233,0)" x2="0" y2="5" style="fill: none; stroke: #888; stroke-width: 1; opacity: 1;"></line><line transform="translate(254,0)" x2="0" y2="5" style="fill: none; stroke: #888; stroke-width: 1; opacity: 1;"></line><line transform="translate(275,0)" x2="0" y2="5" style="fill: none; stroke: #888; stroke-width: 1; opacity: 1;"></line><line transform="translate(296,0)" x2="0" y2="5" style="fill: none; stroke: #888; stroke-width: 1; opacity: 1;"></line><line transform="translate(317,0)" x2="0" y2="5" style="fill: none; stroke: #888; stroke-width: 1; opacity: 1;"></line><line transform="translate(338,0)" x2="0" y2="5" style="fill: none; stroke: #888; stroke-width: 1; opacity: 1;"></line><line transform="translate(359,0)" x2="0" y2="5" style="fill: none; stroke: #888; stroke-width: 1; opacity: 1;"></line><line transform="translate(381,0)" x2="0" y2="5" style="fill: none; stroke: #888; stroke-width: 1; opacity: 1;"></line><line transform="translate(402,0)" x2="0" y2="5" style="fill: none; stroke: #888; stroke-width: 1; opacity: 1;"></line><line transform="translate(412,0)" x2="0" y2="5" style="fill: none; stroke: #888; stroke-width: 1; opacity: 1;"></line><line transform="translate(433,0)" x2="0" y2="5" style="fill: none; stroke: #888; stroke-width: 1; opacity: 1;"></line><line transform="translate(454,0)" x2="0" y2="5" style="fill: none; stroke: #888; stroke-width: 1; opacity: 1;"></line><line transform="translate(476,0)" x2="0" y2="5" style="fill: none; stroke: #888; stroke-width: 1; opacity: 1;"></line><line transform="translate(497,0)" x2="0" y2="5" style="fill: none; stroke: #888; stroke-width: 1; opacity: 1;"></line><line transform="translate(518,0)" x2="0" y2="5" style="fill: none; stroke: #888; stroke-width: 1; opacity: 1;"></line><line transform="translate(539,0)" x2="0" y2="5" style="fill: none; stroke: #888; stroke-width: 1; opacity: 1;"></line><line transform="translate(560,0)" x2="0" y2="5" style="fill: none; stroke: #888; stroke-width: 1; opacity: 1;"></line><line transform="translate(581,0)" x2="0" y2="5" style="fill: none; stroke: #888; stroke-width: 1; opacity: 1;"></line><line transform="translate(602,0)" x2="0" y2="5" style="fill: none; stroke: #888; stroke-width: 1; opacity: 1;"></line><line transform="translate(624,0)" x2="0" y2="5" style="fill: none; stroke: #888; stroke-width: 1; opacity: 1;"></line><line transform="translate(645,0)" x2="0" y2="5" style="fill: none; stroke: #888; stroke-width: 1; opacity: 1;"></line><line transform="translate(666,0)" x2="0" y2="5" style="fill: none; stroke: #888; stroke-width: 1; opacity: 1;"></line><line transform="translate(687,0)" x2="0" y2="5" style="fill: none; stroke: #888; stroke-width: 1; opacity: 1;"></line><line transform="translate(708,0)" x2="0" y2="5" style="fill: none; stroke: #888; stroke-width: 1; opacity: 1;"></line><line transform="translate(729,0)" x2="0" y2="5" style="fill: none; stroke: #888; stroke-width: 1; opacity: 1;"></line><line transform="translate(739,0)" x2="0" y2="5" style="fill: none; stroke: #888; stroke-width: 1; opacity: 1;"></line></g><g class="mark-text role-axis-label" style="pointer-events: none;"><text text-anchor="middle" transform="translate(10.56958308866706,15)" style="font-family: sans-serif; font-size: 10px; fill: #000; opacity: 1;">Thu 23</text><text text-anchor="middle" transform="translate(31.708749266001174,15)" style="font-family: sans-serif; font-size: 10px; fill: #000; opacity: 0;">Sat 25</text><text text-anchor="middle" transform="translate(52.84791544333529,15)" style="font-family: sans-serif; font-size: 10px; fill: #000; opacity: 1;">Mon 27</text><text text-anchor="middle" transform="translate(73.9870816206694,15)" style="font-family: sans-serif; font-size: 10px; fill: #000; opacity: 0;">Wed 29</text><text text-anchor="middle" transform="translate(95.12624779800352,15)" style="font-family: sans-serif; font-size: 10px; fill: #000; opacity: 1;">Fri 31</text><text text-anchor="middle" transform="translate(105.69583088667058,15)" style="font-family: sans-serif; font-size: 10px; fill: #000; opacity: 0;">February</text><text text-anchor="middle" transform="translate(126.8349970640047,15)" style="font-family: sans-serif; font-size: 10px; fill: #000; opacity: 1;">Mon 03</text><text text-anchor="middle" transform="translate(147.9741632413388,15)" style="font-family: sans-serif; font-size: 10px; fill: #000; opacity: 0;">Wed 05</text><text text-anchor="middle" transform="translate(169.11332941867295,15)" style="font-family: sans-serif; font-size: 10px; fill: #000; opacity: 1;">Fri 07</text><text text-anchor="middle" transform="translate(190.25249559600704,15)" style="font-family: sans-serif; font-size: 10px; fill: #000; opacity: 0;">Feb 09</text><text text-anchor="middle" transform="translate(211.39166177334116,15)" style="font-family: sans-serif; font-size: 10px; fill: #000; opacity: 1;">Tue 11</text><text text-anchor="middle" transform="translate(232.5308279506753,15)" style="font-family: sans-serif; font-size: 10px; fill: #000; opacity: 0;">Thu 13</text><text text-anchor="middle" transform="translate(253.6699941280094,15)" style="font-family: sans-serif; font-size: 10px; fill: #000; opacity: 1;">Sat 15</text><text text-anchor="middle" transform="translate(274.80916030534354,15)" style="font-family: sans-serif; font-size: 10px; fill: #000; opacity: 0;">Mon 17</text><text text-anchor="middle" transform="translate(295.9483264826776,15)" style="font-family: sans-serif; font-size: 10px; fill: #000; opacity: 1;">Wed 19</text><text text-anchor="middle" transform="translate(317.0874926600117,15)" style="font-family: sans-serif; font-size: 10px; fill: #000; opacity: 0;">Fri 21</text><text text-anchor="middle" transform="translate(338.2266588373459,15)" style="font-family: sans-serif; font-size: 10px; fill: #000; opacity: 1;">Feb 23</text><text text-anchor="middle" transform="translate(359.36582501467996,15)" style="font-family: sans-serif; font-size: 10px; fill: #000; opacity: 0;">Tue 25</text><text text-anchor="middle" transform="translate(380.5049911920141,15)" style="font-family: sans-serif; font-size: 10px; fill: #000; opacity: 1;">Thu 27</text><text text-anchor="middle" transform="translate(401.6441573693482,15)" style="font-family: sans-serif; font-size: 10px; fill: #000; opacity: 0;">Sat 29</text><text text-anchor="middle" transform="translate(412.2137404580153,15)" style="font-family: sans-serif; font-size: 10px; fill: #000; opacity: 1;">March</text><text text-anchor="middle" transform="translate(433.35290663534937,15)" style="font-family: sans-serif; font-size: 10px; fill: #000; opacity: 0;">Tue 03</text><text text-anchor="middle" transform="translate(454.4920728126835,15)" style="font-family: sans-serif; font-size: 10px; fill: #000; opacity: 1;">Thu 05</text><text text-anchor="middle" transform="translate(475.6312389900176,15)" style="font-family: sans-serif; font-size: 10px; fill: #000; opacity: 0;">Sat 07</text><text text-anchor="middle" transform="translate(496.7704051673517,15)" style="font-family: sans-serif; font-size: 10px; fill: #000; opacity: 1;">Mon 09</text><text text-anchor="middle" transform="translate(517.9095713446858,15)" style="font-family: sans-serif; font-size: 10px; fill: #000; opacity: 0;">Wed 11</text><text text-anchor="middle" transform="translate(539.0487375220199,15)" style="font-family: sans-serif; font-size: 10px; fill: #000; opacity: 1;">Fri 13</text><text text-anchor="middle" transform="translate(560.1879036993541,15)" style="font-family: sans-serif; font-size: 10px; fill: #000; opacity: 0;">Mar 15</text><text text-anchor="middle" transform="translate(581.3270698766883,15)" style="font-family: sans-serif; font-size: 10px; fill: #000; opacity: 1;">Tue 17</text><text text-anchor="middle" transform="translate(602.4662360540224,15)" style="font-family: sans-serif; font-size: 10px; fill: #000; opacity: 0;">Thu 19</text><text text-anchor="middle" transform="translate(623.6054022313565,15)" style="font-family: sans-serif; font-size: 10px; fill: #000; opacity: 1;">Sat 21</text><text text-anchor="middle" transform="translate(644.7445684086905,15)" style="font-family: sans-serif; font-size: 10px; fill: #000; opacity: 0;">Mon 23</text><text text-anchor="middle" transform="translate(665.8837345860246,15)" style="font-family: sans-serif; font-size: 10px; fill: #000; opacity: 1;">Wed 25</text><text text-anchor="middle" transform="translate(687.0229007633587,15)" style="font-family: sans-serif; font-size: 10px; fill: #000; opacity: 0;">Fri 27</text><text text-anchor="middle" transform="translate(708.1620669406929,15)" style="font-family: sans-serif; font-size: 10px; fill: #000; opacity: 1;">Mar 29</text><text text-anchor="middle" transform="translate(728.8608338226659,15)" style="font-family: sans-serif; font-size: 10px; fill: #000; opacity: 0;">Tue 31</text><text text-anchor="middle" transform="translate(739.4304169113329,15)" style="font-family: sans-serif; font-size: 10px; fill: #000; opacity: 1;">April</text></g><g class="mark-rule role-axis-domain" style="pointer-events: none;"><line transform="translate(0,0)" x2="750" y2="0" style="fill: none; stroke: #888; stroke-width: 1; opacity: 1;"></line></g><g class="mark-text role-axis-title" style="pointer-events: none;"><text text-anchor="middle" transform="translate(375,30)" style="font-family: sans-serif; font-size: 11px; font-weight: bold; fill: #000; opacity: 1;">day</text></g></g><path class="foreground" d="" style="pointer-events: none; display: none; fill: none;"></path></g></g><g class="mark-group role-axis"><g transform="translate(0.5,0.5)"><path class="background" d="M0,0h0v0h0Z" style="pointer-events: none; fill: none;"></path><g><g class="mark-rule role-axis-tick" style="pointer-events: none;"><line transform="translate(0,375)" x2="-5" y2="0" style="fill: none; stroke: #888; stroke-width: 1; opacity: 1;"></line><line transform="translate(0,346)" x2="-5" y2="0" style="fill: none; stroke: #888; stroke-width: 1; opacity: 1;"></line><line transform="translate(0,317)" x2="-5" y2="0" style="fill: none; stroke: #888; stroke-width: 1; opacity: 1;"></line><line transform="translate(0,288)" x2="-5" y2="0" style="fill: none; stroke: #888; stroke-width: 1; opacity: 1;"></line><line transform="translate(0,260)" x2="-5" y2="0" style="fill: none; stroke: #888; stroke-width: 1; opacity: 1;"></line><line transform="translate(0,231)" x2="-5" y2="0" style="fill: none; stroke: #888; stroke-width: 1; opacity: 1;"></line><line transform="translate(0,202)" x2="-5" y2="0" style="fill: none; stroke: #888; stroke-width: 1; opacity: 1;"></line><line transform="translate(0,173)" x2="-5" y2="0" style="fill: none; stroke: #888; stroke-width: 1; opacity: 1;"></line><line transform="translate(0,144)" x2="-5" y2="0" style="fill: none; stroke: #888; stroke-width: 1; opacity: 1;"></line><line transform="translate(0,115)" x2="-5" y2="0" style="fill: none; stroke: #888; stroke-width: 1; opacity: 1;"></line><line transform="translate(0,87)" x2="-5" y2="0" style="fill: none; stroke: #888; stroke-width: 1; opacity: 1;"></line><line transform="translate(0,58)" x2="-5" y2="0" style="fill: none; stroke: #888; stroke-width: 1; opacity: 1;"></line><line transform="translate(0,29)" x2="-5" y2="0" style="fill: none; stroke: #888; stroke-width: 1; opacity: 1;"></line><line transform="translate(0,0)" x2="-5" y2="0" style="fill: none; stroke: #888; stroke-width: 1; opacity: 1;"></line></g><g class="mark-text role-axis-label" style="pointer-events: none;"><text text-anchor="end" transform="translate(-7,378)" style="font-family: sans-serif; font-size: 10px; fill: #000; opacity: 1;">0</text><text text-anchor="end" transform="translate(-7,349.1538461538462)" style="font-family: sans-serif; font-size: 10px; fill: #000; opacity: 1;">20,000</text><text text-anchor="end" transform="translate(-7,320.3076923076923)" style="font-family: sans-serif; font-size: 10px; fill: #000; opacity: 1;">40,000</text><text text-anchor="end" transform="translate(-7,291.46153846153845)" style="font-family: sans-serif; font-size: 10px; fill: #000; opacity: 1;">60,000</text><text text-anchor="end" transform="translate(-7,262.6153846153846)" style="font-family: sans-serif; font-size: 10px; fill: #000; opacity: 1;">80,000</text><text text-anchor="end" transform="translate(-7,233.76923076923077)" style="font-family: sans-serif; font-size: 10px; fill: #000; opacity: 1;">100,000</text><text text-anchor="end" transform="translate(-7,204.9230769230769)" style="font-family: sans-serif; font-size: 10px; fill: #000; opacity: 1;">120,000</text><text text-anchor="end" transform="translate(-7,176.0769230769231)" style="font-family: sans-serif; font-size: 10px; fill: #000; opacity: 1;">140,000</text><text text-anchor="end" transform="translate(-7,147.23076923076923)" style="font-family: sans-serif; font-size: 10px; fill: #000; opacity: 1;">160,000</text><text text-anchor="end" transform="translate(-7,118.38461538461539)" style="font-family: sans-serif; font-size: 10px; fill: #000; opacity: 1;">180,000</text><text text-anchor="end" transform="translate(-7,89.53846153846152)" style="font-family: sans-serif; font-size: 10px; fill: #000; opacity: 1;">200,000</text><text text-anchor="end" transform="translate(-7,60.69230769230769)" style="font-family: sans-serif; font-size: 10px; fill: #000; opacity: 1;">220,000</text><text text-anchor="end" transform="translate(-7,31.846153846153825)" style="font-family: sans-serif; font-size: 10px; fill: #000; opacity: 1;">240,000</text><text text-anchor="end" transform="translate(-7,3)" style="font-family: sans-serif; font-size: 10px; fill: #000; opacity: 1;">260,000</text></g><g class="mark-rule role-axis-domain" style="pointer-events: none;"><line transform="translate(0,375)" x2="0" y2="-375" style="fill: none; stroke: #888; stroke-width: 1; opacity: 1;"></line></g><g class="mark-text role-axis-title" style="pointer-events: none;"><text text-anchor="middle" transform="translate(-47.1474609375,187.5) rotate(-90) translate(0,-2)" style="font-family: sans-serif; font-size: 11px; font-weight: bold; fill: #000; opacity: 1;">Confirmed</text></g></g><path class="foreground" d="" style="pointer-events: none; display: none; fill: none;"></path></g></g><g class="mark-group role-scope pathgroup"><g transform="translate(0,0)"><path class="background" d="M0,0h750v375h-750Z" style="fill: none;"></path><g><g class="mark-line role-mark marks"><path d="M0,374.2096153846154L10.56958308866706,374.0725961538461L21.13916617733412,373.67307692307696L31.708749266001174,372.9721153846154L42.27833235466824,372.00721153846155L52.84791544333529,370.8504807692308L63.41749853200235,367.0543269230769L73.9870816206694,366.2206730769231L84.55666470933647,363.2581730769231L95.12624779800352,360.8625L105.69583088667058,357.8495192307692L116.26541397533765,351.0144230769231L126.8349970640047,346.5634615384615L137.40458015267177,340.80721153846156L147.9741632413388,335.4230769230769L158.54374633000586,330.88413461538465L169.11332941867295,325.8028846153846L179.68291250733998,321.9028846153846L190.25249559600704,317.5543269230769L200.8220786846741,313.91249999999997L211.39166177334116,310.98173076923075L221.96124486200821,310.44374999999997L232.5308279506753,288.6129807692308L243.10041103934236,279.2913461538461L253.6699941280094,276.32740384615386L264.2395772166765,273.29855769230767L274.80916030534354,270.5278846153846L285.37874339401054,267.96490384615385L295.9483264826776,267.3764423076923L306.51790957134466,266.71586538461537L317.0874926600117,266.03365384615387L327.65707574867884,263.9408653846154L338.2266588373459,263.9105769230769L348.79624192601295,263.5947115384615L359.36582501467996,262.8548076923077L369.935408103347,262.26057692307694L380.5049911920141,261.63461538461536L391.0745742806812,261.16153846153844L401.6441573693482,260.54423076923075L412.2137404580153,259.71346153846156L422.7833235466823,259.4192307692308L433.35290663534937,259.2389423076923L443.92248972401643,259.05865384615385L454.4920728126835,258.84086538461537L465.0616559013506,258.6201923076923L475.6312389900176,258.5048076923077L486.2008220786847,258.42836538461535L496.7704051673517,258.375L507.3399882560188,258.3360576923077L517.9095713446858,258.2870192307692L528.479154433353,258.2711538461539L539.0487375220199,258.2524038461538L549.6183206106871,258.20625L560.1879036993541,258.16875L570.7574867880211,258.12548076923076L581.3270698766883,258.0894230769231L591.8966529653552,258.02596153846156L602.4662360540224,257.94807692307694L613.0358191426893,257.8125L623.6054022313565,257.7331730769231L634.1749853200234,257.5456730769231L644.7445684086905,257.4548076923077L655.3141514973577,257.3206730769231L665.8837345860246,257.2197115384615L676.4533176746918,257.04519230769233L687.0229007633587,256.8793269230769L697.5924838520259,256.7322115384615L708.1620669406929,256.5548076923077L718.2912507339988,256.4451923076923L728.8608338226659,256.3283653846154L739.4304169113329,256.2100961538461L750,256.1076923076923" style="fill: none; stroke: #4c78a8; stroke-width: 2;"></path></g></g><path class="foreground" d="" style="display: none; fill: none;"></path></g><g transform="translate(0,0)"><path class="background" d="M0,0h750v375h-750Z" style="fill: none;"></path><g><g class="mark-line role-mark marks"><path d="M0,375L10.56958308866706,375L21.13916617733412,375L31.708749266001174,375L42.27833235466824,375L52.84791544333529,375L63.41749853200235,375L73.9870816206694,375L84.55666470933647,375L95.12624779800352,374.9971153846154L105.69583088667058,374.9971153846154L116.26541397533765,374.9971153846154L126.8349970640047,374.9971153846154L137.40458015267177,374.9971153846154L147.9741632413388,374.9971153846154L158.54374633000586,374.9971153846154L169.11332941867295,374.9956730769231L179.68291250733998,374.9956730769231L190.25249559600704,374.9956730769231L200.8220786846741,374.9956730769231L211.39166177334116,374.9956730769231L221.96124486200821,374.9956730769231L232.5308279506753,374.9956730769231L243.10041103934236,374.9956730769231L253.6699941280094,374.9956730769231L264.2395772166765,374.9956730769231L274.80916030534354,374.9956730769231L285.37874339401054,374.9956730769231L295.9483264826776,374.9956730769231L306.51790957134466,374.9956730769231L317.0874926600117,374.97115384615387L327.65707574867884,374.9105769230769L338.2266588373459,374.7764423076923L348.79624192601295,374.66971153846157L359.36582501467996,374.5355769230769L369.935408103347,374.34663461538463L380.5049911920141,374.05528846153845L391.0745742806812,373.71923076923076L401.6441573693482,373.37307692307695L412.2137404580153,372.5567307692308L422.7833235466823,372.0634615384615L433.35290663534937,371.39134615384614L443.92248972401643,370.54471153846157L454.4920728126835,369.4355769230769L465.0616559013506,368.3134615384615L475.6312389900176,366.51490384615386L486.2008220786847,364.3629807692308L496.7704051673517,361.7711538461538L507.3399882560188,360.36201923076925L517.9095713446858,357.02596153846156L528.479154433353,357.02596153846156L539.0487375220199,349.52884615384613L549.6183206106871,344.48509615384614L560.1879036993541,339.30721153846156L570.7574867880211,334.6442307692308L581.3270698766883,329.55865384615385L591.8966529653552,323.49086538461535L602.4662360540224,315.8149038461538L613.0358191426893,307.18125000000003L623.6054022313565,297.72403846153844L634.1749853200234,289.7048076923077L644.7445684086905,282.79759615384614L655.3141514973577,275.2269230769231L665.8837345860246,267.7125L676.4533176746918,258.7658653846154L687.0229007633587,250.2432692307692L697.5924838520259,241.62692307692308L708.1620669406929,234.10240384615383L718.2912507339988,228.26105769230767L728.8608338226659,222.41538461538462L739.4304169113329,215.51826923076925L750,208.78557692307695" style="fill: none; stroke: #f58518; stroke-width: 2;"></path></g></g><path class="foreground" d="" style="display: none; fill: none;"></path></g><g transform="translate(0,0)"><path class="background" d="M0,0h750v375h-750Z" style="fill: none;"></path><g><g class="mark-line role-mark marks"><path d="M0,375L10.56958308866706,375L21.13916617733412,375L31.708749266001174,375L42.27833235466824,375L52.84791544333529,375L63.41749853200235,375L73.9870816206694,375L84.55666470933647,375L95.12624779800352,375L105.69583088667058,374.99855769230766L116.26541397533765,374.99855769230766L126.8349970640047,374.99855769230766L137.40458015267177,374.99855769230766L147.9741632413388,374.99855769230766L158.54374633000586,374.99855769230766L169.11332941867295,374.99855769230766L179.68291250733998,374.99855769230766L190.25249559600704,374.9971153846154L200.8220786846741,374.9971153846154L211.39166177334116,374.9971153846154L221.96124486200821,374.9971153846154L232.5308279506753,374.9971153846154L243.10041103934236,374.9971153846154L253.6699941280094,374.9971153846154L264.2395772166765,374.9971153846154L274.80916030534354,374.9971153846154L285.37874339401054,374.9971153846154L295.9483264826776,374.9971153846154L306.51790957134466,374.9971153846154L317.0874926600117,374.9971153846154L327.65707574867884,374.9971153846154L338.2266588373459,374.9971153846154L348.79624192601295,374.9971153846154L359.36582501467996,374.99134615384617L369.935408103347,374.98125L380.5049911920141,374.9783653846154L391.0745742806812,374.95384615384614L401.6441573693482,374.9350961538462L412.2137404580153,374.87884615384615L422.7833235466823,374.82692307692304L433.35290663534937,374.7620192307692L443.92248972401643,374.6798076923077L454.4920728126835,374.62644230769234L465.0616559013506,374.42307692307696L475.6312389900176,374.27884615384613L486.2008220786847,374.02932692307695L496.7704051673517,373.45240384615386L507.3399882560188,372.55528846153845L517.9095713446858,371.71586538461537L528.479154433353,371.71586538461537L539.0487375220199,367.45384615384614L549.6183206106871,365.7822115384615L560.1879036993541,363.75288461538463L570.7574867880211,360.6605769230769L581.3270698766883,358.0557692307692L591.8966529653552,354.9375L602.4662360540224,349.09182692307695L613.0358191426893,345.5625L623.6054022313565,338.4028846153846L634.1749853200234,333.5076923076923L644.7445684086905,324.32307692307694L655.3141514973577,317.4735576923077L665.8837345860246,303.58413461538464L676.4533176746918,291.6548076923077L687.0229007633587,280.2129807692308L697.5924838520259,269.3725961538462L708.1620669406929,259.4567307692308L718.2912507339988,248.14038461538462L728.8608338226659,236.64951923076924L739.4304169113329,224.8298076923077L750,213.36778846153845" style="fill: none; stroke: #e45756; stroke-width: 2;"></path></g></g><path class="foreground" d="" style="display: none; fill: none;"></path></g><g transform="translate(0,0)"><path class="background" d="M0,0h750v375h-750Z" style="fill: none;"></path><g><g class="mark-line role-mark marks"><path d="M0,374.99855769230766L10.56958308866706,374.99855769230766L21.13916617733412,374.9971153846154L31.708749266001174,374.9971153846154L42.27833235466824,374.9927884615385L52.84791544333529,374.9927884615385L63.41749853200235,374.9927884615385L73.9870816206694,374.9927884615385L84.55666470933647,374.9927884615385L95.12624779800352,374.9899038461538L105.69583088667058,374.98846153846154L116.26541397533765,374.98846153846154L126.8349970640047,374.9841346153846L137.40458015267177,374.9841346153846L147.9741632413388,374.9841346153846L158.54374633000586,374.9841346153846L169.11332941867295,374.9841346153846L179.68291250733998,374.9841346153846L190.25249559600704,374.9841346153846L200.8220786846741,374.9841346153846L211.39166177334116,374.98269230769233L221.96124486200821,374.98269230769233L232.5308279506753,374.98125L243.10041103934236,374.98125L253.6699941280094,374.98125L264.2395772166765,374.98125L274.80916030534354,374.98125L285.37874339401054,374.98125L295.9483264826776,374.98125L306.51790957134466,374.98125L317.0874926600117,374.9783653846154L327.65707574867884,374.9783653846154L338.2266588373459,374.9783653846154L348.79624192601295,374.9264423076923L359.36582501467996,374.9264423076923L369.935408103347,374.91778846153846L380.5049911920141,374.9163461538462L391.0745742806812,374.91346153846155L401.6441573693482,374.9019230769231L412.2137404580153,374.8932692307692L422.7833235466823,374.85865384615386L433.35290663534937,374.8298076923077L443.92248972401643,374.78509615384615L454.4920728126835,374.68701923076924L465.0616559013506,374.6221153846154L475.6312389900176,374.4201923076923L486.2008220786847,374.2528846153846L496.7704051673517,374.15913461538463L507.3399882560188,373.6168269230769L517.9095713446858,373.15240384615385L528.479154433353,372.6014423076923L539.0487375220199,371.8572115384615L549.6183206106871,371.0668269230769L560.1879036993541,369.9533653846154L570.7574867880211,368.3192307692308L581.3270698766883,365.7389423076923L591.8966529653552,363.7745192307692L602.4662360540224,355.2735576923077L613.0358191426893,347.4519230769231L623.6054022313565,338.2370192307692L634.1749853200234,327.00576923076926L644.7445684086905,311.7591346153846L655.3141514973577,297.4903846153846L665.8837345860246,280.1278846153846L676.4533176746918,254.08269230769233L687.0229007633587,228.37932692307692L697.5924838520259,199.79134615384615L708.1620669406929,171.79903846153846L718.2912507339988,141.6245192307692L728.8608338226659,103.59807692307692L739.4304169113329,67.25192307692308L750,23.865865384615397" style="fill: none; stroke: #72b7b2; stroke-width: 2;"></path></g></g><path class="foreground" d="" style="display: none; fill: none;"></path></g><g transform="translate(0,0)"><path class="background" d="M0,0h750v375h-750Z" style="fill: none;"></path><g><g class="mark-line role-mark marks"><path d="M0,375L10.56958308866706,375L21.13916617733412,375L31.708749266001174,375L42.27833235466824,375L52.84791544333529,375L63.41749853200235,375L73.9870816206694,375L84.55666470933647,375L95.12624779800352,374.9971153846154L105.69583088667058,374.9971153846154L116.26541397533765,374.9971153846154L126.8349970640047,374.9971153846154L137.40458015267177,374.9971153846154L147.9741632413388,374.9971153846154L158.54374633000586,374.9971153846154L169.11332941867295,374.9956730769231L179.68291250733998,374.9956730769231L190.25249559600704,374.9956730769231L200.8220786846741,374.98846153846154L211.39166177334116,374.98846153846154L221.96124486200821,374.98701923076925L232.5308279506753,374.98701923076925L243.10041103934236,374.98701923076925L253.6699941280094,374.98701923076925L264.2395772166765,374.98701923076925L274.80916030534354,374.98701923076925L285.37874339401054,374.98701923076925L295.9483264826776,374.98701923076925L306.51790957134466,374.98701923076925L317.0874926600117,374.98701923076925L327.65707574867884,374.98701923076925L338.2266588373459,374.98701923076925L348.79624192601295,374.98125L359.36582501467996,374.98125L369.935408103347,374.98125L380.5049911920141,374.9783653846154L391.0745742806812,374.97115384615387L401.6441573693482,374.96682692307695L412.2137404580153,374.94807692307694L422.7833235466823,374.9423076923077L433.35290663534937,374.9264423076923L443.92248972401643,374.8759615384615L454.4920728126835,374.8326923076923L465.0616559013506,374.76346153846157L475.6312389900176,374.70144230769233L486.2008220786847,374.6048076923077L496.7704051673517,374.5355769230769L507.3399882560188,374.44615384615383L517.9095713446858,374.33798076923074L528.479154433353,374.33798076923074L539.0487375220199,373.84326923076924L549.6183206106871,373.35L560.1879036993541,373.3485576923077L570.7574867880211,372.76298076923075L581.3270698766883,372.17307692307696L591.8966529653552,371.1894230769231L602.4662360540224,371.0826923076923L613.0358191426893,369.2105769230769L623.6054022313565,367.6918269230769L634.1749853200234,366.7139423076923L644.7445684086905,365.2990384615385L655.3141514973577,363.225L665.8837345860246,361.0961538461538L676.4533176746918,357.9634615384615L687.0229007633587,353.7331730769231L697.5924838520259,350.03076923076924L708.1620669406929,346.47115384615387L718.2912507339988,342.6158653846154L728.8608338226659,338.2485576923077L739.4304169113329,331.9254807692308L750,325.7120192307693" style="fill: none; stroke: #54a24b; stroke-width: 2;"></path></g></g><path class="foreground" d="" style="display: none; fill: none;"></path></g></g><g class="mark-group role-legend"><g transform="translate(770,0)"><path class="background" d="M0,0h88v79h-88Z" style="pointer-events: none; fill: none;"></path><g><g class="mark-group role-legend-entry"><g transform="translate(0,16)"><path class="background" d="M0,0h0v0h0Z" style="pointer-events: none; fill: none;"></path><g><g class="mark-group role-scope"><g transform="translate(0,0)"><path class="background" d="M0,0h87.15234375v11h-87.15234375Z" style="pointer-events: none; fill: none; opacity: 1;"></path><g><g class="mark-symbol role-legend-symbol" style="pointer-events: none;"><path transform="translate(6,6)" d="M-5,0L5,0" style="fill: none; stroke: #4c78a8; stroke-width: 1.5; opacity: 1;"></path></g><g class="mark-text role-legend-label" style="pointer-events: none;"><text text-anchor="start" transform="translate(16,9)" style="font-family: sans-serif; font-size: 10px; fill: #000; opacity: 1;">China</text></g></g><path class="foreground" d="" style="pointer-events: none; display: none; fill: none;"></path></g><g transform="translate(0,13)"><path class="background" d="M0,0h87.15234375v11h-87.15234375Z" style="pointer-events: none; fill: none; opacity: 1;"></path><g><g class="mark-symbol role-legend-symbol" style="pointer-events: none;"><path transform="translate(6,6)" d="M-5,0L5,0" style="fill: none; stroke: #f58518; stroke-width: 1.5; opacity: 1;"></path></g><g class="mark-text role-legend-label" style="pointer-events: none;"><text text-anchor="start" transform="translate(16,9)" style="font-family: sans-serif; font-size: 10px; fill: #000; opacity: 1;">Italy</text></g></g><path class="foreground" d="" style="pointer-events: none; display: none; fill: none;"></path></g><g transform="translate(0,26)"><path class="background" d="M0,0h87.15234375v11h-87.15234375Z" style="pointer-events: none; fill: none; opacity: 1;"></path><g><g class="mark-symbol role-legend-symbol" style="pointer-events: none;"><path transform="translate(6,6)" d="M-5,0L5,0" style="fill: none; stroke: #e45756; stroke-width: 1.5; opacity: 1;"></path></g><g class="mark-text role-legend-label" style="pointer-events: none;"><text text-anchor="start" transform="translate(16,9)" style="font-family: sans-serif; font-size: 10px; fill: #000; opacity: 1;">Spain</text></g></g><path class="foreground" d="" style="pointer-events: none; display: none; fill: none;"></path></g><g transform="translate(0,39)"><path class="background" d="M0,0h87.15234375v11h-87.15234375Z" style="pointer-events: none; fill: none; opacity: 1;"></path><g><g class="mark-symbol role-legend-symbol" style="pointer-events: none;"><path transform="translate(6,6)" d="M-5,0L5,0" style="fill: none; stroke: #72b7b2; stroke-width: 1.5; opacity: 1;"></path></g><g class="mark-text role-legend-label" style="pointer-events: none;"><text text-anchor="start" transform="translate(16,9)" style="font-family: sans-serif; font-size: 10px; fill: #000; opacity: 1;">US</text></g></g><path class="foreground" d="" style="pointer-events: none; display: none; fill: none;"></path></g><g transform="translate(0,52)"><path class="background" d="M0,0h87.15234375v11h-87.15234375Z" style="pointer-events: none; fill: none; opacity: 1;"></path><g><g class="mark-symbol role-legend-symbol" style="pointer-events: none;"><path transform="translate(6,6)" d="M-5,0L5,0" style="fill: none; stroke: #54a24b; stroke-width: 1.5; opacity: 1;"></path></g><g class="mark-text role-legend-label" style="pointer-events: none;"><text text-anchor="start" transform="translate(16,9)" style="font-family: sans-serif; font-size: 10px; fill: #000; opacity: 1;">United Kingdom</text></g></g><path class="foreground" d="" style="pointer-events: none; display: none; fill: none;"></path></g></g></g><path class="foreground" d="" style="pointer-events: none; display: none; fill: none;"></path></g></g><g class="mark-text role-legend-title" style="pointer-events: none;"><text text-anchor="start" transform="translate(0,9)" style="font-family: sans-serif; font-size: 11px; font-weight: bold; fill: #000; opacity: 1;">country</text></g></g><path class="foreground" d="" style="pointer-events: none; display: none; fill: none;"></path></g></g><g class="mark-group role-title"><g transform="translate(375,-22)"><path class="background" d="M0,0h0v0h0Z" style="pointer-events: none; fill: none;"></path><g><g class="mark-text role-title-text" style="pointer-events: none;"><text text-anchor="middle" transform="translate(0,10)" style="font-family: sans-serif; font-size: 13px; font-weight: bold; fill: #000; opacity: 1;">Confirmed by day in ['China', 'Italy', 'Spain', 'US', 'United Kingdom'] as of 04-03-2020</text></g></g><path class="foreground" d="" style="pointer-events: none; display: none; fill: none;"></path></g></g></g><path class="foreground" d="" style="display: none; fill: none;"></path></g></g></g></svg>