<svg class="marks" width="902" height="439" viewBox="0 0 902 439" version="1.1" xmlns="http://www.w3.org/2000/svg" xmlns:xlink="http://www.w3.org/1999/xlink"><rect width="902" height="439" style="fill: white;"></rect><g transform="translate(39,27)"><g class="mark-group role-frame root"><g transform="translate(0,0)"><path class="background" d="M0.5,0.5h750v375h-750Z" style="fill: none; stroke: #ddd;"></path><g><g class="mark-group role-axis"><g transform="translate(0.5,375.5)"><path class="background" d="M0,0h0v0h0Z" style="pointer-events: none; fill: none;"></path><g><g class="mark-rule role-axis-grid" style="pointer-events: none;"><line transform="translate(35,-375)" x2="0" y2="375" style="fill: none; stroke: #ddd; stroke-width: 1; opacity: 1;"></line><line transform="translate(97,-375)" x2="0" y2="375" style="fill: none; stroke: #ddd; stroke-width: 1; opacity: 1;"></line><line transform="translate(159,-375)" x2="0" y2="375" style="fill: none; stroke: #ddd; stroke-width: 1; opacity: 1;"></line><line transform="translate(221,-375)" x2="0" y2="375" style="fill: none; stroke: #ddd; stroke-width: 1; opacity: 1;"></line><line transform="translate(282,-375)" x2="0" y2="375" style="fill: none; stroke: #ddd; stroke-width: 1; opacity: 1;"></line><line transform="translate(344,-375)" x2="0" y2="375" style="fill: none; stroke: #ddd; stroke-width: 1; opacity: 1;"></line><line transform="translate(406,-375)" x2="0" y2="375" style="fill: none; stroke: #ddd; stroke-width: 1; opacity: 1;"></line><line transform="translate(468,-375)" x2="0" y2="375" style="fill: none; stroke: #ddd; stroke-width: 1; opacity: 1;"></line><line transform="translate(530,-375)" x2="0" y2="375" style="fill: none; stroke: #ddd; stroke-width: 1; opacity: 1;"></line><line transform="translate(591,-375)" x2="0" y2="375" style="fill: none; stroke: #ddd; stroke-width: 1; opacity: 1;"></line><line transform="translate(653,-375)" x2="0" y2="375" style="fill: none; stroke: #ddd; stroke-width: 1; opacity: 1;"></line><line transform="translate(715,-375)" x2="0" y2="375" style="fill: none; stroke: #ddd; stroke-width: 1; opacity: 1;"></line></g></g><path class="foreground" d="" style="pointer-events: none; display: none; fill: none;"></path></g></g><g class="mark-group role-axis"><g transform="translate(0.5,0.5)"><path class="background" d="M0,0h0v0h0Z" style="pointer-events: none; fill: none;"></path><g><g class="mark-rule role-axis-grid" style="pointer-events: none;"><line transform="translate(0,375)" x2="750" y2="0" style="fill: none; stroke: #ddd; stroke-width: 1; opacity: 1;"></line><line transform="translate(0,341)" x2="750" y2="0" style="fill: none; stroke: #ddd; stroke-width: 1; opacity: 1;"></line><line transform="translate(0,307)" x2="750" y2="0" style="fill: none; stroke: #ddd; stroke-width: 1; opacity: 1;"></line><line transform="translate(0,273)" x2="750" y2="0" style="fill: none; stroke: #ddd; stroke-width: 1; opacity: 1;"></line><line transform="translate(0,239)" x2="750" y2="0" style="fill: none; stroke: #ddd; stroke-width: 1; opacity: 1;"></line><line transform="translate(0,205)" x2="750" y2="0" style="fill: none; stroke: #ddd; stroke-width: 1; opacity: 1;"></line><line transform="translate(0,170)" x2="750" y2="0" style="fill: none; stroke: #ddd; stroke-width: 1; opacity: 1;"></line><line transform="translate(0,136)" x2="750" y2="0" style="fill: none; stroke: #ddd; stroke-width: 1; opacity: 1;"></line><line transform="translate(0,102)" x2="750" y2="0" style="fill: none; stroke: #ddd; stroke-width: 1; opacity: 1;"></line><line transform="translate(0,68)" x2="750" y2="0" style="fill: none; stroke: #ddd; stroke-width: 1; opacity: 1;"></line><line transform="translate(0,34)" x2="750" y2="0" style="fill: none; stroke: #ddd; stroke-width: 1; opacity: 1;"></line><line transform="translate(0,0)" x2="750" y2="0" style="fill: none; stroke: #ddd; stroke-width: 1; opacity: 1;"></line></g></g><path class="foreground" d="" style="pointer-events: none; display: none; fill: none;"></path></g></g><g class="mark-group role-axis"><g transform="translate(0.5,375.5)"><path class="background" d="M0,0h0v0h0Z" style="pointer-events: none; fill: none;"></path><g><g class="mark-rule role-axis-tick" style="pointer-events: none;"><line transform="translate(35,0)" x2="0" y2="5" style="fill: none; stroke: #888; stroke-width: 1; opacity: 1;"></line><line transform="translate(97,0)" x2="0" y2="5" style="fill: none; stroke: #888; stroke-width: 1; opacity: 1;"></line><line transform="translate(159,0)" x2="0" y2="5" style="fill: none; stroke: #888; stroke-width: 1; opacity: 1;"></line><line transform="translate(221,0)" x2="0" y2="5" style="fill: none; stroke: #888; stroke-width: 1; opacity: 1;"></line><line transform="translate(282,0)" x2="0" y2="5" style="fill: none; stroke: #888; stroke-width: 1; opacity: 1;"></line><line transform="translate(344,0)" x2="0" y2="5" style="fill: none; stroke: #888; stroke-width: 1; opacity: 1;"></line><line transform="translate(406,0)" x2="0" y2="5" style="fill: none; stroke: #888; stroke-width: 1; opacity: 1;"></line><line transform="translate(468,0)" x2="0" y2="5" style="fill: none; stroke: #888; stroke-width: 1; opacity: 1;"></line><line transform="translate(530,0)" x2="0" y2="5" style="fill: none; stroke: #888; stroke-width: 1; opacity: 1;"></line><line transform="translate(591,0)" x2="0" y2="5" style="fill: none; stroke: #888; stroke-width: 1; opacity: 1;"></line><line transform="translate(653,0)" x2="0" y2="5" style="fill: none; stroke: #888; stroke-width: 1; opacity: 1;"></line><line transform="translate(715,0)" x2="0" y2="5" style="fill: none; stroke: #888; stroke-width: 1; opacity: 1;"></line></g><g class="mark-text role-axis-label" style="pointer-events: none;"><text text-anchor="middle" transform="translate(35.31142717018147,15)" style="font-family: sans-serif; font-size: 10px; fill: #000; opacity: 1;">Jan 26</text><text text-anchor="middle" transform="translate(97.106424717999,15)" style="font-family: sans-serif; font-size: 10px; fill: #000; opacity: 1;">Feb 02</text><text text-anchor="middle" transform="translate(158.9014222658166,15)" style="font-family: sans-serif; font-size: 10px; fill: #000; opacity: 1;">Feb 09</text><text text-anchor="middle" transform="translate(220.69641981363415,15)" style="font-family: sans-serif; font-size: 10px; fill: #000; opacity: 1;">Feb 16</text><text text-anchor="middle" transform="translate(282.49141736145174,15)" style="font-family: sans-serif; font-size: 10px; fill: #000; opacity: 1;">Feb 23</text><text text-anchor="middle" transform="translate(344.28641490926924,15)" style="font-family: sans-serif; font-size: 10px; fill: #000; opacity: 1;">March</text><text text-anchor="middle" transform="translate(406.0814124570868,15)" style="font-family: sans-serif; font-size: 10px; fill: #000; opacity: 1;">Mar 08</text><text text-anchor="middle" transform="translate(467.87641000490436,15)" style="font-family: sans-serif; font-size: 10px; fill: #000; opacity: 1;">Mar 15</text><text text-anchor="middle" transform="translate(529.6714075527219,15)" style="font-family: sans-serif; font-size: 10px; fill: #000; opacity: 1;">Mar 22</text><text text-anchor="middle" transform="translate(591.4664051005395,15)" style="font-family: sans-serif; font-size: 10px; fill: #000; opacity: 1;">Mar 29</text><text text-anchor="middle" transform="translate(652.893575282001,15)" style="font-family: sans-serif; font-size: 10px; fill: #000; opacity: 1;">Apr 05</text><text text-anchor="middle" transform="translate(714.6885728298186,15)" style="font-family: sans-serif; font-size: 10px; fill: #000; opacity: 1;">Apr 12</text></g><g class="mark-rule role-axis-domain" style="pointer-events: none;"><line transform="translate(0,0)" x2="750" y2="0" style="fill: none; stroke: #888; stroke-width: 1; opacity: 1;"></line></g><g class="mark-text role-axis-title" style="pointer-events: none;"><text text-anchor="middle" transform="translate(375,30)" style="font-family: sans-serif; font-size: 11px; font-weight: bold; fill: #000; opacity: 1;">day</text></g></g><path class="foreground" d="" style="pointer-events: none; display: none; fill: none;"></path></g></g><g class="mark-group role-axis"><g transform="translate(0.5,0.5)"><path class="background" d="M0,0h0v0h0Z" style="pointer-events: none; fill: none;"></path><g><g class="mark-rule role-axis-tick" style="pointer-events: none;"><line transform="translate(0,375)" x2="-5" y2="0" style="fill: none; stroke: #888; stroke-width: 1; opacity: 1;"></line><line transform="translate(0,341)" x2="-5" y2="0" style="fill: none; stroke: #888; stroke-width: 1; opacity: 1;"></line><line transform="translate(0,307)" x2="-5" y2="0" style="fill: none; stroke: #888; stroke-width: 1; opacity: 1;"></line><line transform="translate(0,273)" x2="-5" y2="0" style="fill: none; stroke: #888; stroke-width: 1; opacity: 1;"></line><line transform="translate(0,239)" x2="-5" y2="0" style="fill: none; stroke: #888; stroke-width: 1; opacity: 1;"></line><line transform="translate(0,205)" x2="-5" y2="0" style="fill: none; stroke: #888; stroke-width: 1; opacity: 1;"></line><line transform="translate(0,170)" x2="-5" y2="0" style="fill: none; stroke: #888; stroke-width: 1; opacity: 1;"></line><line transform="translate(0,136)" x2="-5" y2="0" style="fill: none; stroke: #888; stroke-width: 1; opacity: 1;"></line><line transform="translate(0,102)" x2="-5" y2="0" style="fill: none; stroke: #888; stroke-width: 1; opacity: 1;"></line><line transform="translate(0,68)" x2="-5" y2="0" style="fill: none; stroke: #888; stroke-width: 1; opacity: 1;"></line><line transform="translate(0,34)" x2="-5" y2="0" style="fill: none; stroke: #888; stroke-width: 1; opacity: 1;"></line><line transform="translate(0,0)" x2="-5" y2="0" style="fill: none; stroke: #888; stroke-width: 1; opacity: 1;"></line></g><g class="mark-text role-axis-label" style="pointer-events: none;"><text text-anchor="end" transform="translate(-7,378)" style="font-family: sans-serif; font-size: 10px; fill: #000; opacity: 1;">0</text><text text-anchor="end" transform="translate(-7,343.9090909090909)" style="font-family: sans-serif; font-size: 10px; fill: #000; opacity: 1;">1</text><text text-anchor="end" transform="translate(-7,309.8181818181818)" style="font-family: sans-serif; font-size: 10px; fill: #000; opacity: 1;">2</text><text text-anchor="end" transform="translate(-7,275.72727272727275)" style="font-family: sans-serif; font-size: 10px; fill: #000; opacity: 1;">3</text><text text-anchor="end" transform="translate(-7,241.63636363636363)" style="font-family: sans-serif; font-size: 10px; fill: #000; opacity: 1;">4</text><text text-anchor="end" transform="translate(-7,207.54545454545453)" style="font-family: sans-serif; font-size: 10px; fill: #000; opacity: 1;">5</text><text text-anchor="end" transform="translate(-7,173.45454545454547)" style="font-family: sans-serif; font-size: 10px; fill: #000; opacity: 1;">6</text><text text-anchor="end" transform="translate(-7,139.36363636363637)" style="font-family: sans-serif; font-size: 10px; fill: #000; opacity: 1;">7</text><text text-anchor="end" transform="translate(-7,105.27272727272727)" style="font-family: sans-serif; font-size: 10px; fill: #000; opacity: 1;">8</text><text text-anchor="end" transform="translate(-7,71.18181818181816)" style="font-family: sans-serif; font-size: 10px; fill: #000; opacity: 1;">9</text><text text-anchor="end" transform="translate(-7,37.0909090909091)" style="font-family: sans-serif; font-size: 10px; fill: #000; opacity: 1;">10</text><text text-anchor="end" transform="translate(-7,3)" style="font-family: sans-serif; font-size: 10px; fill: #000; opacity: 1;">11</text></g><g class="mark-rule role-axis-domain" style="pointer-events: none;"><line transform="translate(0,375)" x2="0" y2="-375" style="fill: none; stroke: #888; stroke-width: 1; opacity: 1;"></line></g><g class="mark-text role-axis-title" style="pointer-events: none;"><text text-anchor="middle" transform="translate(-22.123046875,187.5) rotate(-90) translate(0,-2)" style="font-family: sans-serif; font-size: 11px; font-weight: bold; fill: #000; opacity: 1;">LogDeaths</text></g></g><path class="foreground" d="" style="pointer-events: none; display: none; fill: none;"></path></g></g><g class="mark-group role-scope pathgroup"><g transform="translate(0,0)"><path class="background" d="M0,0h750v375h-750Z" style="fill: none;"></path><g><g class="mark-line role-mark marks"><path d="M0,278.413181452629L8.827856792545367,276.46459916263075L17.655713585090734,263.92852711290396L26.483570377636095,247.57944483124876L35.31142717018147,237.77210145221085L44.13928396272683,224.770934752355L52.96714075527219,208.80009125450619L61.79499754781755,208.28355244698565L70.62285434036293,199.7160151192275L79.4507111329083,192.22867616899686L88.27856792545366,185.56267971478852L97.106424717999,174.24279687501544L105.93428151054438,168.67877833212214L114.76213830308974,163.75758655245954L123.5899950956351,159.0927399497833L132.41785188818048,155.09759924508492L141.24570868072587,150.8021737824469L150.07356547327123,146.9031041789126L158.9014222658166,142.9113087375025L167.72927905836195,139.10168693702008L176.55713585090731,135.88924517691385L185.38499264345268,135.73630230445903L194.212849435998,128.80105141062108L203.0407062285434,125.21170594570593L211.86856302108876,122.16891548205926L220.69641981363415,120.12025973304867L229.52427660617948,118.27909107117492L238.35213339872487,115.82722719321076L247.1799901912702,113.95626842119805L256.00784698381557,112.04529924300441L264.83570377636096,112.04529924300441L273.66356056890635,109.05742938894066L282.49141736145174,109.02953175310321L291.31927415399707,106.99971151363674L300.14713094654246,106.09229534318372L308.9749877390878,105.43351331501087L317.8028445316332,105.0715709206392L326.6307013241785,104.52965199492917L335.4585581167239,103.96014426788008L344.28641490926924,103.54213874426884L353.11427170181463,103.04720499698352L361.94212849435996,102.6633074066695L370.76998528690535,102.24938234608813L379.59784207945074,101.88562127859254L388.425698871996,101.55928230744624L397.2535556645414,101.24713314996943L406.0814124570868,100.93781623386693L414.9092692496322,100.68581736534958L423.7371260421775,100.51160601675161L432.5649828347229,100.27350981083121L441.3928396272683,100.15508240608845L450.22069641981363,100.06921105315155L459.04855321235897,99.93012979381426L467.87641000490436,99.82352899059688L476.70426679744975,99.67484566230593L485.53212358999514,99.53736081079424L494.3599803825404,99.4214589838109L503.1878371750858,99.33741355673521L512.0156939676311,99.29546841568123L520.8435507601765,99.23264731235588L529.6714075527219,99.07609916144048L538.4992643452673,99.07609916144048L547.3271211378127,99.00328864905337L556.1549779303581,98.96175235504394L564.9828347229035,98.89954264965887L573.8106915154488,98.84778780581718L582.6385483079941,98.81677257175288L591.4664051005395,98.7651431372431L599.9264345267288,98.72389581328697L608.7542913192742,98.71359177539958L617.5821481118196,98.6415505822096L626.4100049043649,98.5799219259123L635.2378616969103,98.53889796297027L644.0657184894557,98.49792330768786L652.893575282001,98.46722460314524L661.7214320745463,98.4467741471685L670.5492888670917,98.4467741471685L679.3771456596371,98.4263359516577L688.2050024521825,98.40591000192087L697.0328592447278,98.39570161463364L705.8607160372732,98.36509478113304L714.6885728298186,98.36509478113304L723.516429622364,98.3447054808297L732.3442864149092,98.3447054808297L741.1721432074546,98.33451540181464L750,98.33451540181464" style="fill: none; stroke: #4c78a8; stroke-width: 2;"></path></g></g><path class="foreground" d="" style="display: none; fill: none;"></path></g><g transform="translate(0,0)"><path class="background" d="M0,0h750v375h-750Z" style="fill: none;"></path><g><g class="mark-line role-mark marks"><path d="M264.83570377636096,375L273.66356056890635,351.36998248091095L282.49141736145174,337.5473083408599L291.31927415399707,308.66215400947794L300.14713094654246,296.50278092065753L308.9749877390878,290.2872733026818L317.8028445316332,278.413181452629L326.6307013241785,271.2094623503379L335.4585581167239,260.2058239777338L344.28641490926924,254.78316393353995L353.11427170181463,240.29850959381497L361.94212849435996,226.0415504840788L370.76998528690535,215.69901700698048L379.59784207945074,204.64049066713247L388.425698871996,194.89078197484133L397.2535556645414,189.16914362844204L406.0814124570868,173.77386363404435L414.9092692496322,165.75930497433293L423.7371260421775,155.20548195882228L432.5649828347229,145.98393085146506L441.3928396272683,145.98393085146506L450.22069641981363,131.4675817259959L459.04855321235897,127.0536615000163L467.87641000490436,119.30013117970587L476.70426679744975,113.28623366529271L485.53212358999514,108.23027415573497L494.3599803825404,102.30657227577429L503.1878371750858,97.73862891192229L512.0156939676311,91.97666557666349L520.8435507601765,85.85570407591752L529.6714075527219,81.54101637244294L538.4992643452673,77.99091708629474L547.3271211378127,74.05858803963041L556.1549779303581,70.80483342457744L564.9828347229035,67.71419214302149L573.8106915154488,64.09912521324053L582.6385483079941,60.932804624152276L591.4664051005395,58.453804234717175L599.9264345267288,55.97781089015643L608.7542913192742,53.60088850524077L617.5821481118196,51.662822949736636L626.4100049043649,49.74809066045488L635.2378616969103,47.92126978160933L644.0657184894557,46.375492958228584L652.893575282001,45.229893964090124L661.7214320745463,43.891751295988946L670.5492888670917,42.66779166026015L679.3771456596371,41.60567145625059L688.2050024521825,40.44858617329762L697.0328592447278,39.40175655439576L705.8607160372732,38.30020326295412L714.6885728298186,37.5537014252159L723.516429622364,36.597566286596496L732.3442864149092,35.60921201841578L741.1721432074546,34.686485458769944L750,33.86947832010145" style="fill: none; stroke: #9ecae9; stroke-width: 2;"></path></g></g><path class="foreground" d="" style="display: none; fill: none;"></path></g><g transform="translate(0,0)"><path class="background" d="M0,0h750v375h-750Z" style="fill: none;"></path><g><g class="mark-line role-mark marks"><path d="M361.94212849435996,375L370.76998528690535,351.36998248091095L379.59784207945074,337.5473083408599L388.425698871996,320.1327984397466L397.2535556645414,296.50278092065753L406.0814124570868,278.413181452629L414.9092692496322,261.40211897129984L423.7371260421775,253.7949524492245L432.5649828347229,239.01190750349065L441.3928396272683,238.38636868525668L450.22069641981363,208.28355244698565L459.04855321235897,195.23865141259952L467.87641000490436,181.82636290525798L476.70426679744975,176.08599760013848L485.53212358999514,160.95949690343713L494.3599803825404,155.64045958679137L503.1878371750858,145.86048747304625L512.0156939676311,138.0730753977009L520.8435507601765,128.65196556474982L529.6714075527219,120.00463189210136L538.4992643452673,110.95105874064609L547.3271211378127,104.31041709730563L556.1549779303581,95.3979480406132L564.9828347229035,89.27135903612377L573.8106915154488,83.71298257943764L582.6385483079941,78.52806002761731L591.4664051005395,74.14367146550929L599.9264345267288,69.85052134003574L608.7542913192742,66.69623338301996L617.5821481118196,63.16769207942073L626.4100049043649,59.84493602366185L635.2378616969103,57.15373398038051L644.0657184894557,54.94651773350375L652.893575282001,53.02156436946963L661.7214320745463,51.18418366435888L670.5492888670917,49.431077061192816L679.3771456596371,47.6644850090809L688.2050024521825,46.1873833392869L697.0328592447278,44.81612284588556L705.8607160372732,43.72093108561447L714.6885728298186,42.50496198528714L723.516429622364,41.43822388793432L732.3442864149092,40.867045960316844L741.1721432074546,39.657732312075794L750,38.56918380339608" style="fill: none; stroke: #f58518; stroke-width: 2;"></path></g></g><path class="foreground" d="" style="display: none; fill: none;"></path></g><g transform="translate(0,0)"><path class="background" d="M0,0h750v375h-750Z" style="fill: none;"></path><g><g class="mark-line role-mark marks"><path d="M335.4585581167239,375L344.28641490926924,375L353.11427170181463,313.91729082177085L361.94212849435996,308.66215400947794L370.76998528690535,293.25357024551005L379.59784207945074,290.2872733026818L388.425698871996,285.03213649038895L397.2535556645414,278.413181452629L406.0814124570868,271.2094623503379L414.9092692496322,269.62355272642105L423.7371260421775,261.40211897129984L432.5649828347229,252.83458164354172L441.3928396272683,249.24274588247943L450.22069641981363,243.74496812352072L459.04855321235897,239.01190750349065L467.87641000490436,233.75677069119777L476.70426679744975,223.54597989237556L485.53212358999514,215.3818899844016L494.3599803825404,212.36302416594324L503.1878371750858,194.37554432222603L512.0156939676311,187.59653777409534L520.8435507601765,179.76655405952738L529.6714075527219,169.32660607504084L538.4992643452673,159.45800318429713L547.3271211378127,151.37675326727583L556.1549779303581,141.54527473035125L564.9828347229035,133.0381073654048L573.8106915154488,123.89274418604073L582.6385483079941,115.43799938152404L591.4664051005395,108.7241551183174L599.9264345267288,102.30657227577429L608.7542913192742,93.34824956199708L617.5821481118196,86.33957398526314L626.4100049043649,78.84870244999395L635.2378616969103,72.7494068587413L644.0657184894557,66.9265918931149L652.893575282001,62.33537767661539L661.7214320745463,58.441155719929334L670.5492888670917,52.80381623049717L679.3771456596371,47.888775720919874L688.2050024521825,43.98472374287945L697.0328592447278,39.88077654145619L705.8607160372732,36.60256409867439L714.6885728298186,34.10246604597325L723.516429622364,31.842733628392114L732.3442864149092,28.659184090453856L741.1721432074546,25.51704252626566L750,20.396108838899877" style="fill: none; stroke: #ffbf79; stroke-width: 2;"></path></g></g><path class="foreground" d="" style="display: none; fill: none;"></path></g><g transform="translate(0,0)"><path class="background" d="M0,0h750v375h-750Z" style="fill: none;"></path><g><g class="mark-line role-mark marks"><path d="M379.59784207945074,375L388.425698871996,351.36998248091095L397.2535556645414,351.36998248091095L406.0814124570868,337.5473083408599L414.9092692496322,327.7399649618219L423.7371260421775,313.91729082177085L432.5649828347229,304.1099474427329L441.3928396272683,304.1099474427329L450.22069641981363,304.1099474427329L459.04855321235897,271.2094623503379L467.87641000490436,271.2094623503379L476.70426679744975,237.77210145221085L485.53212358999514,237.77210145221085L494.3599803825404,229.20456412445265L503.1878371750858,207.02544255145892L512.0156939676311,198.34828805822437L520.8435507601765,189.0231437946238L529.6714075527219,182.6622589452916L538.4992643452673,176.68939227398167L547.3271211378127,168.83958480524055L556.1549779303581,165.53912610935302L564.9828347229035,158.07858737930232L573.8106915154488,148.81931734562434L582.6385483079941,138.7998471080228L591.4664051005395,132.42333660734815L599.9264345267288,127.7708880050177L608.7542913192742,119.60299521800681L617.5821481118196,110.27915103626823L626.4100049043649,102.9071051734067L635.2378616969103,95.73613563826848L644.0657184894557,89.62463586688105L652.893575282001,85.03200977362638L661.7214320745463,82.11229808214243L670.5492888670917,77.46763028450906L679.3771456596371,72.63415364033459L688.2050024521825,68.64813280820388L697.0328592447278,64.70158682263883L705.8607160372732,61.381308114500904L714.6885728298186,58.93154340226424L723.516429622364,56.70311349576175L732.3442864149092,54.43109460310636L741.1721432074546,52.34599889077621L750,50.132439735415325" style="fill: none; stroke: #54a24b; stroke-width: 2;"></path></g></g><path class="foreground" d="" style="display: none; fill: none;"></path></g></g><g class="mark-group role-legend"><g transform="translate(770,0)"><path class="background" d="M0,0h88v79h-88Z" style="pointer-events: none; fill: none;"></path><g><g class="mark-group role-legend-entry"><g transform="translate(0,16)"><path class="background" d="M0,0h0v0h0Z" style="pointer-events: none; fill: none;"></path><g><g class="mark-group role-scope"><g transform="translate(0,0)"><path class="background" d="M0,0h87.15234375v11h-87.15234375Z" style="pointer-events: none; fill: none; opacity: 1;"></path><g><g class="mark-symbol role-legend-symbol" style="pointer-events: none;"><path transform="translate(6,6)" d="M-5,0L5,0" style="fill: none; stroke: #4c78a8; stroke-width: 1.5; opacity: 1;"></path></g><g class="mark-text role-legend-label" style="pointer-events: none;"><text text-anchor="start" transform="translate(16,9)" style="font-family: sans-serif; font-size: 10px; fill: #000; opacity: 1;">China</text></g></g><path class="foreground" d="" style="pointer-events: none; display: none; fill: none;"></path></g><g transform="translate(0,13)"><path class="background" d="M0,0h87.15234375v11h-87.15234375Z" style="pointer-events: none; fill: none; opacity: 1;"></path><g><g class="mark-symbol role-legend-symbol" style="pointer-events: none;"><path transform="translate(6,6)" d="M-5,0L5,0" style="fill: none; stroke: #9ecae9; stroke-width: 1.5; opacity: 1;"></path></g><g class="mark-text role-legend-label" style="pointer-events: none;"><text text-anchor="start" transform="translate(16,9)" style="font-family: sans-serif; font-size: 10px; fill: #000; opacity: 1;">Italy</text></g></g><path class="foreground" d="" style="pointer-events: none; display: none; fill: none;"></path></g><g transform="translate(0,26)"><path class="background" d="M0,0h87.15234375v11h-87.15234375Z" style="pointer-events: none; fill: none; opacity: 1;"></path><g><g class="mark-symbol role-legend-symbol" style="pointer-events: none;"><path transform="translate(6,6)" d="M-5,0L5,0" style="fill: none; stroke: #f58518; stroke-width: 1.5; opacity: 1;"></path></g><g class="mark-text role-legend-label" style="pointer-events: none;"><text text-anchor="start" transform="translate(16,9)" style="font-family: sans-serif; font-size: 10px; fill: #000; opacity: 1;">Spain</text></g></g><path class="foreground" d="" style="pointer-events: none; display: none; fill: none;"></path></g><g transform="translate(0,39)"><path class="background" d="M0,0h87.15234375v11h-87.15234375Z" style="pointer-events: none; fill: none; opacity: 1;"></path><g><g class="mark-symbol role-legend-symbol" style="pointer-events: none;"><path transform="translate(6,6)" d="M-5,0L5,0" style="fill: none; stroke: #ffbf79; stroke-width: 1.5; opacity: 1;"></path></g><g class="mark-text role-legend-label" style="pointer-events: none;"><text text-anchor="start" transform="translate(16,9)" style="font-family: sans-serif; font-size: 10px; fill: #000; opacity: 1;">US</text></g></g><path class="foreground" d="" style="pointer-events: none; display: none; fill: none;"></path></g><g transform="translate(0,52)"><path class="background" d="M0,0h87.15234375v11h-87.15234375Z" style="pointer-events: none; fill: none; opacity: 1;"></path><g><g class="mark-symbol role-legend-symbol" style="pointer-events: none;"><path transform="translate(6,6)" d="M-5,0L5,0" style="fill: none; stroke: #54a24b; stroke-width: 1.5; opacity: 1;"></path></g><g class="mark-text role-legend-label" style="pointer-events: none;"><text text-anchor="start" transform="translate(16,9)" style="font-family: sans-serif; font-size: 10px; fill: #000; opacity: 1;">United Kingdom</text></g></g><path class="foreground" d="" style="pointer-events: none; display: none; fill: none;"></path></g></g></g><path class="foreground" d="" style="pointer-events: none; display: none; fill: none;"></path></g></g><g class="mark-text role-legend-title" style="pointer-events: none;"><text text-anchor="start" transform="translate(0,9)" style="font-family: sans-serif; font-size: 11px; font-weight: bold; fill: #000; opacity: 1;">country</text></g></g><path class="foreground" d="" style="pointer-events: none; display: none; fill: none;"></path></g></g><g class="mark-group role-title"><g transform="translate(375,-22)"><path class="background" d="M0,0h0v0h0Z" style="pointer-events: none; fill: none;"></path><g><g class="mark-text role-title-text" style="pointer-events: none;"><text text-anchor="middle" transform="translate(0,10)" style="font-family: sans-serif; font-size: 13px; font-weight: bold; fill: #000; opacity: 1;">LogDeaths by day in ['China', 'Italy', 'Spain', 'US', 'United Kingdom'] as of 04-16-2020</text></g></g><path class="foreground" d="" style="pointer-events: none; display: none; fill: none;"></path></g></g></g><path class="foreground" d="" style="display: none; fill: none;"></path></g></g></g></svg>