<svg class="marks" width="919" height="439" viewBox="0 0 919 439" version="1.1" xmlns="http://www.w3.org/2000/svg" xmlns:xlink="http://www.w3.org/1999/xlink"><rect width="919" height="439" style="fill: white;"></rect><g transform="translate(58,27)"><g class="mark-group role-frame root"><g transform="translate(0,0)"><path class="background" d="M0.5,0.5h750v375h-750Z" style="fill: none; stroke: #ddd;"></path><g><g class="mark-group role-axis"><g transform="translate(0.5,375.5)"><path class="background" d="M0,0h0v0h0Z" style="pointer-events: none; fill: none;"></path><g><g class="mark-rule role-axis-grid" style="pointer-events: none;"><line transform="translate(0,-375)" x2="0" y2="375" style="fill: none; stroke: #ddd; stroke-width: 1; opacity: 1;"></line><line transform="translate(75,-375)" x2="0" y2="375" style="fill: none; stroke: #ddd; stroke-width: 1; opacity: 1;"></line><line transform="translate(119,-375)" x2="0" y2="375" style="fill: none; stroke: #ddd; stroke-width: 1; opacity: 1;"></line><line transform="translate(151,-375)" x2="0" y2="375" style="fill: none; stroke: #ddd; stroke-width: 1; opacity: 1;"></line><line transform="translate(175,-375)" x2="0" y2="375" style="fill: none; stroke: #ddd; stroke-width: 1; opacity: 1;"></line><line transform="translate(195,-375)" x2="0" y2="375" style="fill: none; stroke: #ddd; stroke-width: 1; opacity: 1;"></line><line transform="translate(211,-375)" x2="0" y2="375" style="fill: none; stroke: #ddd; stroke-width: 1; opacity: 1;"></line><line transform="translate(226,-375)" x2="0" y2="375" style="fill: none; stroke: #ddd; stroke-width: 1; opacity: 1;"></line><line transform="translate(239,-375)" x2="0" y2="375" style="fill: none; stroke: #ddd; stroke-width: 1; opacity: 1;"></line><line transform="translate(250,-375)" x2="0" y2="375" style="fill: none; stroke: #ddd; stroke-width: 1; opacity: 1;"></line><line transform="translate(325,-375)" x2="0" y2="375" style="fill: none; stroke: #ddd; stroke-width: 1; opacity: 1;"></line><line transform="translate(369,-375)" x2="0" y2="375" style="fill: none; stroke: #ddd; stroke-width: 1; opacity: 1;"></line><line transform="translate(401,-375)" x2="0" y2="375" style="fill: none; stroke: #ddd; stroke-width: 1; opacity: 1;"></line><line transform="translate(425,-375)" x2="0" y2="375" style="fill: none; stroke: #ddd; stroke-width: 1; opacity: 1;"></line><line transform="translate(445,-375)" x2="0" y2="375" style="fill: none; stroke: #ddd; stroke-width: 1; opacity: 1;"></line><line transform="translate(461,-375)" x2="0" y2="375" style="fill: none; stroke: #ddd; stroke-width: 1; opacity: 1;"></line><line transform="translate(476,-375)" x2="0" y2="375" style="fill: none; stroke: #ddd; stroke-width: 1; opacity: 1;"></line><line transform="translate(489,-375)" x2="0" y2="375" style="fill: none; stroke: #ddd; stroke-width: 1; opacity: 1;"></line><line transform="translate(500,-375)" x2="0" y2="375" style="fill: none; stroke: #ddd; stroke-width: 1; opacity: 1;"></line><line transform="translate(575,-375)" x2="0" y2="375" style="fill: none; stroke: #ddd; stroke-width: 1; opacity: 1;"></line><line transform="translate(619,-375)" x2="0" y2="375" style="fill: none; stroke: #ddd; stroke-width: 1; opacity: 1;"></line><line transform="translate(651,-375)" x2="0" y2="375" style="fill: none; stroke: #ddd; stroke-width: 1; opacity: 1;"></line><line transform="translate(675,-375)" x2="0" y2="375" style="fill: none; stroke: #ddd; stroke-width: 1; opacity: 1;"></line><line transform="translate(695,-375)" x2="0" y2="375" style="fill: none; stroke: #ddd; stroke-width: 1; opacity: 1;"></line><line transform="translate(711,-375)" x2="0" y2="375" style="fill: none; stroke: #ddd; stroke-width: 1; opacity: 1;"></line><line transform="translate(726,-375)" x2="0" y2="375" style="fill: none; stroke: #ddd; stroke-width: 1; opacity: 1;"></line><line transform="translate(739,-375)" x2="0" y2="375" style="fill: none; stroke: #ddd; stroke-width: 1; opacity: 1;"></line><line transform="translate(750,-375)" x2="0" y2="375" style="fill: none; stroke: #ddd; stroke-width: 1; opacity: 1;"></line></g></g><path class="foreground" d="" style="pointer-events: none; display: none; fill: none;"></path></g></g><g class="mark-group role-axis"><g transform="translate(0.5,0.5)"><path class="background" d="M0,0h0v0h0Z" style="pointer-events: none; fill: none;"></path><g><g class="mark-rule role-axis-grid" style="pointer-events: none;"><line transform="translate(0,375)" x2="750" y2="0" style="fill: none; stroke: #ddd; stroke-width: 1; opacity: 1;"></line><line transform="translate(0,281)" x2="750" y2="0" style="fill: none; stroke: #ddd; stroke-width: 1; opacity: 1;"></line><line transform="translate(0,188)" x2="750" y2="0" style="fill: none; stroke: #ddd; stroke-width: 1; opacity: 1;"></line><line transform="translate(0,94)" x2="750" y2="0" style="fill: none; stroke: #ddd; stroke-width: 1; opacity: 1;"></line><line transform="translate(0,0)" x2="750" y2="0" style="fill: none; stroke: #ddd; stroke-width: 1; opacity: 1;"></line></g></g><path class="foreground" d="" style="pointer-events: none; display: none; fill: none;"></path></g></g><g class="mark-group role-axis"><g transform="translate(0.5,375.5)"><path class="background" d="M0,0h0v0h0Z" style="pointer-events: none; fill: none;"></path><g><g class="mark-rule role-axis-tick" style="pointer-events: none;"><line transform="translate(0,0)" x2="0" y2="5" style="fill: none; stroke: #888; stroke-width: 1; opacity: 1;"></line><line transform="translate(75,0)" x2="0" y2="5" style="fill: none; stroke: #888; stroke-width: 1; opacity: 1;"></line><line transform="translate(119,0)" x2="0" y2="5" style="fill: none; stroke: #888; stroke-width: 1; opacity: 1;"></line><line transform="translate(151,0)" x2="0" y2="5" style="fill: none; stroke: #888; stroke-width: 1; opacity: 1;"></line><line transform="translate(175,0)" x2="0" y2="5" style="fill: none; stroke: #888; stroke-width: 1; opacity: 1;"></line><line transform="translate(195,0)" x2="0" y2="5" style="fill: none; stroke: #888; stroke-width: 1; opacity: 1;"></line><line transform="translate(211,0)" x2="0" y2="5" style="fill: none; stroke: #888; stroke-width: 1; opacity: 1;"></line><line transform="translate(226,0)" x2="0" y2="5" style="fill: none; stroke: #888; stroke-width: 1; opacity: 1;"></line><line transform="translate(239,0)" x2="0" y2="5" style="fill: none; stroke: #888; stroke-width: 1; opacity: 1;"></line><line transform="translate(250,0)" x2="0" y2="5" style="fill: none; stroke: #888; stroke-width: 1; opacity: 1;"></line><line transform="translate(325,0)" x2="0" y2="5" style="fill: none; stroke: #888; stroke-width: 1; opacity: 1;"></line><line transform="translate(369,0)" x2="0" y2="5" style="fill: none; stroke: #888; stroke-width: 1; opacity: 1;"></line><line transform="translate(401,0)" x2="0" y2="5" style="fill: none; stroke: #888; stroke-width: 1; opacity: 1;"></line><line transform="translate(425,0)" x2="0" y2="5" style="fill: none; stroke: #888; stroke-width: 1; opacity: 1;"></line><line transform="translate(445,0)" x2="0" y2="5" style="fill: none; stroke: #888; stroke-width: 1; opacity: 1;"></line><line transform="translate(461,0)" x2="0" y2="5" style="fill: none; stroke: #888; stroke-width: 1; opacity: 1;"></line><line transform="translate(476,0)" x2="0" y2="5" style="fill: none; stroke: #888; stroke-width: 1; opacity: 1;"></line><line transform="translate(489,0)" x2="0" y2="5" style="fill: none; stroke: #888; stroke-width: 1; opacity: 1;"></line><line transform="translate(500,0)" x2="0" y2="5" style="fill: none; stroke: #888; stroke-width: 1; opacity: 1;"></line><line transform="translate(575,0)" x2="0" y2="5" style="fill: none; stroke: #888; stroke-width: 1; opacity: 1;"></line><line transform="translate(619,0)" x2="0" y2="5" style="fill: none; stroke: #888; stroke-width: 1; opacity: 1;"></line><line transform="translate(651,0)" x2="0" y2="5" style="fill: none; stroke: #888; stroke-width: 1; opacity: 1;"></line><line transform="translate(675,0)" x2="0" y2="5" style="fill: none; stroke: #888; stroke-width: 1; opacity: 1;"></line><line transform="translate(695,0)" x2="0" y2="5" style="fill: none; stroke: #888; stroke-width: 1; opacity: 1;"></line><line transform="translate(711,0)" x2="0" y2="5" style="fill: none; stroke: #888; stroke-width: 1; opacity: 1;"></line><line transform="translate(726,0)" x2="0" y2="5" style="fill: none; stroke: #888; stroke-width: 1; opacity: 1;"></line><line transform="translate(739,0)" x2="0" y2="5" style="fill: none; stroke: #888; stroke-width: 1; opacity: 1;"></line><line transform="translate(750,0)" x2="0" y2="5" style="fill: none; stroke: #888; stroke-width: 1; opacity: 1;"></line></g><g class="mark-text role-axis-label" style="pointer-events: none;"><text text-anchor="start" transform="translate(0,15)" style="font-family: sans-serif; font-size: 10px; fill: #000; opacity: 1;">100</text><text text-anchor="middle" transform="translate(75.25749891599521,15)" style="font-family: sans-serif; font-size: 10px; fill: #000; opacity: 1;">200</text><text text-anchor="middle" transform="translate(119.28031367991555,15)" style="font-family: sans-serif; font-size: 10px; fill: #000; opacity: 1;"></text><text text-anchor="middle" transform="translate(150.51499783199054,15)" style="font-family: sans-serif; font-size: 10px; fill: #000; opacity: 1;"></text><text text-anchor="middle" transform="translate(174.74250108400463,15)" style="font-family: sans-serif; font-size: 10px; fill: #000; opacity: 1;"></text><text text-anchor="middle" transform="translate(194.53781259591088,15)" style="font-family: sans-serif; font-size: 10px; fill: #000; opacity: 1;"></text><text text-anchor="middle" transform="translate(211.27451000356413,15)" style="font-family: sans-serif; font-size: 10px; fill: #000; opacity: 1;"></text><text text-anchor="middle" transform="translate(225.77249674798585,15)" style="font-family: sans-serif; font-size: 10px; fill: #000; opacity: 1;"></text><text text-anchor="middle" transform="translate(238.5606273598312,15)" style="font-family: sans-serif; font-size: 10px; fill: #000; opacity: 1;"></text><text text-anchor="middle" transform="translate(249.99999999999994,15)" style="font-family: sans-serif; font-size: 10px; fill: #000; opacity: 1;">1,000</text><text text-anchor="middle" transform="translate(325.25749891599526,15)" style="font-family: sans-serif; font-size: 10px; fill: #000; opacity: 1;">2,000</text><text text-anchor="middle" transform="translate(369.2803136799155,15)" style="font-family: sans-serif; font-size: 10px; fill: #000; opacity: 1;"></text><text text-anchor="middle" transform="translate(400.5149978319906,15)" style="font-family: sans-serif; font-size: 10px; fill: #000; opacity: 1;"></text><text text-anchor="middle" transform="translate(424.74250108400474,15)" style="font-family: sans-serif; font-size: 10px; fill: #000; opacity: 1;"></text><text text-anchor="middle" transform="translate(444.53781259591085,15)" style="font-family: sans-serif; font-size: 10px; fill: #000; opacity: 1;"></text><text text-anchor="middle" transform="translate(461.27451000356416,15)" style="font-family: sans-serif; font-size: 10px; fill: #000; opacity: 1;"></text><text text-anchor="middle" transform="translate(475.7724967479859,15)" style="font-family: sans-serif; font-size: 10px; fill: #000; opacity: 1;"></text><text text-anchor="middle" transform="translate(488.56062735983124,15)" style="font-family: sans-serif; font-size: 10px; fill: #000; opacity: 1;"></text><text text-anchor="middle" transform="translate(500.00000000000006,15)" style="font-family: sans-serif; font-size: 10px; fill: #000; opacity: 1;">10,000</text><text text-anchor="middle" transform="translate(575.2574989159951,15)" style="font-family: sans-serif; font-size: 10px; fill: #000; opacity: 1;">20,000</text><text text-anchor="middle" transform="translate(619.2803136799157,15)" style="font-family: sans-serif; font-size: 10px; fill: #000; opacity: 1;"></text><text text-anchor="middle" transform="translate(650.5149978319905,15)" style="font-family: sans-serif; font-size: 10px; fill: #000; opacity: 1;"></text><text text-anchor="middle" transform="translate(674.7425010840047,15)" style="font-family: sans-serif; font-size: 10px; fill: #000; opacity: 1;"></text><text text-anchor="middle" transform="translate(694.537812595911,15)" style="font-family: sans-serif; font-size: 10px; fill: #000; opacity: 1;"></text><text text-anchor="middle" transform="translate(711.274510003564,15)" style="font-family: sans-serif; font-size: 10px; fill: #000; opacity: 1;"></text><text text-anchor="middle" transform="translate(725.7724967479859,15)" style="font-family: sans-serif; font-size: 10px; fill: #000; opacity: 1;"></text><text text-anchor="middle" transform="translate(738.5606273598312,15)" style="font-family: sans-serif; font-size: 10px; fill: #000; opacity: 1;"></text><text text-anchor="end" transform="translate(750,15)" style="font-family: sans-serif; font-size: 10px; fill: #000; opacity: 1;">100,000</text></g><g class="mark-rule role-axis-domain" style="pointer-events: none;"><line transform="translate(0,0)" x2="750" y2="0" style="fill: none; stroke: #888; stroke-width: 1; opacity: 1;"></line></g><g class="mark-text role-axis-title" style="pointer-events: none;"><text text-anchor="middle" transform="translate(375,30)" style="font-family: sans-serif; font-size: 11px; font-weight: bold; fill: #000; opacity: 1;">Deaths</text></g></g><path class="foreground" d="" style="pointer-events: none; display: none; fill: none;"></path></g></g><g class="mark-group role-axis"><g transform="translate(0.5,0.5)"><path class="background" d="M0,0h0v0h0Z" style="pointer-events: none; fill: none;"></path><g><g class="mark-rule role-axis-tick" style="pointer-events: none;"><line transform="translate(0,375)" x2="-5" y2="0" style="fill: none; stroke: #888; stroke-width: 1; opacity: 1;"></line><line transform="translate(0,281)" x2="-5" y2="0" style="fill: none; stroke: #888; stroke-width: 1; opacity: 1;"></line><line transform="translate(0,188)" x2="-5" y2="0" style="fill: none; stroke: #888; stroke-width: 1; opacity: 1;"></line><line transform="translate(0,94)" x2="-5" y2="0" style="fill: none; stroke: #888; stroke-width: 1; opacity: 1;"></line><line transform="translate(0,0)" x2="-5" y2="0" style="fill: none; stroke: #888; stroke-width: 1; opacity: 1;"></line></g><g class="mark-text role-axis-label" style="pointer-events: none;"><text text-anchor="end" transform="translate(-7,378)" style="font-family: sans-serif; font-size: 10px; fill: #000; opacity: 1;">1</text><text text-anchor="end" transform="translate(-7,284.25)" style="font-family: sans-serif; font-size: 10px; fill: #000; opacity: 1;">10</text><text text-anchor="end" transform="translate(-7,190.5)" style="font-family: sans-serif; font-size: 10px; fill: #000; opacity: 1;">100</text><text text-anchor="end" transform="translate(-7,96.75000000000004)" style="font-family: sans-serif; font-size: 10px; fill: #000; opacity: 1;">1,000</text><text text-anchor="end" transform="translate(-7,3)" style="font-family: sans-serif; font-size: 10px; fill: #000; opacity: 1;">10,000</text></g><g class="mark-rule role-axis-domain" style="pointer-events: none;"><line transform="translate(0,375)" x2="0" y2="-375" style="fill: none; stroke: #888; stroke-width: 1; opacity: 1;"></line></g><g class="mark-text role-axis-title" style="pointer-events: none;"><text text-anchor="middle" transform="translate(-41.5859375,187.5) rotate(-90) translate(0,-2)" style="font-family: sans-serif; font-size: 11px; font-weight: bold; fill: #000; opacity: 1;">New</text></g></g><path class="foreground" d="" style="pointer-events: none; display: none; fill: none;"></path></g></g><g class="mark-group role-scope pathgroup"><g transform="translate(0,0)"><path class="background" d="M0,0h750v375h-750Z" style="fill: none;"></path><g><g class="mark-line role-mark marks"><path d="M29.31782391394098,225.68309827469955L58.24902759803846,222.72303332747586L82.09490085968442,219.83087957268074L103.32494102031288,216.88412026423677L139.3768004764144,211.02975261669084L157.09723251257788,207.7472242148845L172.77037303074206,204.6186713746012L187.62709871283656,201.45843740641837L200.3509275043387,198.60276336662426L214.03111106057503,195.3832073288425L226.4489700919671,192.35563895699482L239.16214480130074,189.27217456147582L251.29512812594507,186.32185663836665L261.52619681150964,183.94773153328433L284.10086203349744,180.44881110964636L295.53230351324953,180.44446706312144L305.2230623048798,179.589089299329L311.74767481038737,178.31776862278753L317.6114770044906,176.48746206305017L325.420237323394,176.77933247593683L331.37891584078704,179.2282958393591L337.46502054808275,183.27545821656258L346.9808667433592,192.41512085403966L353.53434054611915,201.9646016595612L356.4243033406477,211.18859656124798L358.52240960447267,214.22172996601205L359.675133225184,215.9059746301228L361.4010508183993,218.58987832065583L363.214833948963,221.6358942314275L364.54610889256566,223.99934889660685L366.1223868584928,226.86809398155347L367.34503396248124,229.14021681413263L368.6633133405156,231.90901686365643L369.82182911904255,234.60919634085423L370.8611620246338,237.6512370834061L371.8553028398686,241.2290093524069L372.84042345856807,245.9366841353217L373.64299605754957,250.4315070240488L374.1978289250105,254.02883603971324L374.95612395989497,260.04038260048657L375.3332946613916,263.6120909024259L375.60677999610806,266.0080635011487L376.0497296348611,270.24444660515564L376.38923466595537,272.49872575596913L376.86276522549247,275.845981543373L377.3006305827757,278.48988911528744L377.6697577580525,280.4454335928307L377.9374278362457,281.97294404060005L378.271090116286,284.0005072480343L378.7696687689805,287.3033808404532L379.0015575965118,288.953361406628L379.33197057359325,291.4538379523075L380.1536304695589,298.6068051197894L380.3499070288438,300.546998570103" style="fill: none; stroke: #4c78a8; stroke-width: 2;"></path></g></g><path class="foreground" d="" style="display: none; fill: none;"></path></g><g transform="translate(0,0)"><path class="background" d="M0,0h750v375h-750Z" style="fill: none;"></path><g><g class="mark-line role-mark marks"><path d="M7.34594442130232,224.9468841286549L42.56542884873926,217.540529999388L73.61655654039818,210.22275210422256L91.83898025650466,205.61792635836073L140.87027134860259,192.27866554106757L166.39524775448825,184.90419232852565L200.0073398110335,174.90594936426837L229.3763773881366,166.03584657912808L275.608426420334,151.6058993010632L289.66599520349723,147.96380454697248L314.3596417149534,142.25479967050632L333.5128600867229,137.1923950820433L349.6152124020558,132.77445017157444L368.48117335403936,126.81532674665465L383.02927906220094,122.78887500328103L401.3801308593671,119.40617700599637L420.87432941995286,115.91563611704632L434.61585986548795,113.30898880768066L445.922309086829,111.28741188917826L458.44609366411976,109.09426113027317L468.80873661254117,107.32006651429055L478.6518919427702,106.03543037358553L490.16525181774546,104.74970514711492L500.2494325894484,103.93338353681027L508.14461798107806,103.42551717624988L516.0302264574054,102.94750434999388L523.6003111457342,103.71682112802068L529.7727131054304,104.75336573423245L535.8708026675154,106.05328478969115L541.6889096663093,107.81994896038239L546.6119401937293,109.53124390284735L550.2604738856699,110.82470647920111L554.5222257152111,112.52952915916669L558.4203244315863,113.96017227641418L561.8029926855279,114.86321882059543L565.4881082110328,115.52819425344427L568.8220786089005,115.85070240927027L572.3303343928673,116.06900481935654L574.7078130045097,116.2872993399549L577.7529372453221,116.6211115185864L580.9006738141223,116.9830169378334L583.839397537294,117.3224282552962L586.441423278622,117.63571995069995" style="fill: none; stroke: #9ecae9; stroke-width: 2;"></path></g></g><path class="foreground" d="" style="display: none; fill: none;"></path></g><g transform="translate(0,0)"><path class="background" d="M0,0h750v375h-750Z" style="fill: none;"></path><g><g class="mark-line role-mark marks"><path d="M30.962910241771397,211.31001047205692L72.50865284062945,203.55270242671003L115.22446068913693,193.99336155518554L133.50652651403368,189.4297254519142L181.68180225664298,176.14212180004589L198.62201166479235,171.03625138691982L229.76952309401838,161.00516877663304L254.5710771066327,151.9703720707057L284.57567454157027,140.95072200355096L312.115929387758,131.7946734624063L340.9499863697773,123.96557799146088L362.09927586444184,118.96519140059365L390.4839408284452,112.74783696612576L409.99606201039705,108.74463473298027L427.69852498258183,105.10093571187645L444.2116021738247,102.60136321318365L458.1751177401418,101.33622797112805L471.8480547429616,100.03454074542238L481.89391367277767,99.51997508245073L493.1317044664639,99.73052977709361L503.7141050111264,100.46141344587745L512.2851157897412,101.68912902744582L519.314715923237,103.54126190048729L525.4453578319917,105.46817039795106L531.2970960421493,107.10600931418229L536.8804358843993,108.4202815384486L542.5067245377791,109.6509833867039L547.2110366367242,110.95187474869768L551.5782629839892,112.73195692665084L555.0662583968079,114.2489854665029L558.9389086466795,114.44271787463762L562.3362840883323,114.44397991830378L564.1553865174265,114.44409202164051L568.0068403091166,114.33412905013361L571.4736781202097,114.07344826422563" style="fill: none; stroke: #f58518; stroke-width: 2;"></path></g></g><path class="foreground" d="" style="display: none; fill: none;"></path></g><g transform="translate(0,0)"><path class="background" d="M0,0h750v375h-750Z" style="fill: none;"></path><g><g class="mark-line role-mark marks"><path d="M8.355938871737404,245.74384592989006L17.970501826531336,241.70890577401286L75.25749891599521,218.49912341139512L96.84745658468235,210.02765155127037L121.78459386929653,200.41818102742252L155.03401374343935,188.0103232346102L186.4637987934322,176.92297956535091L212.2011752629509,166.34510009218624L243.51272569821933,155.78700162651177L270.6065752151929,145.55444501981555L299.73296748305216,136.8445058612645L326.6598602560654,130.5024716118074L348.042287372434,124.05390693423287L368.48117335403936,115.55474436321315L397.01187424652073,105.56878145185311L419.33328785497537,98.45178941812924L443.19041178600804,91.60447879639979L462.615608190379,87.93880387614382L481.16026185429064,85.17079158178278L495.7824811836749,83.7825325741768L508.1849013023733,82.36111919441896L526.1388478101284,76.73880376190381L541.7923976021577,73.69487834178331L554.2261246304182,69.89203962596714L567.2964832034879,68.93654799517772L577.7370200824705,66.68683254646258L585.6993978648418,64.55357956265284L592.8962528747533,62.79402738681664L603.035304854163,59.7829338554245L613.0424796338588,56.58704299688516L629.3517634130386,51.22110817836564" style="fill: none; stroke: #ffbf79; stroke-width: 2;"></path></g></g><path class="foreground" d="" style="display: none; fill: none;"></path></g><g transform="translate(0,0)"><path class="background" d="M0,0h750v375h-750Z" style="fill: none;"></path><g><g class="mark-line role-mark marks"><path d="M34.96977160030912,214.1535225837734L62.605000577223436,213.41515885964768L92.3039643525357,212.21995557476708L112.56227707984026,211.12776917927644L131.58481934746098,209.78525986518227L156.5850918437605,202.0722103311218L167.09647917249998,197.55989631255068L190.85699839073428,181.6503361232236L220.3461641926432,164.63272796177475L252.2564355217275,159.3676065382079L272.5645132328291,153.23505737434863L287.3817534385868,146.91566403527733L313.3950723905457,133.49682917546775L343.08989563108094,123.57218584142554L366.568580447323,116.27757230512518L389.4068721067066,112.19409243235107L408.870936703728,110.0555324914764L423.4976526151941,107.83473357116227L432.79642690849994,106.1362458120359L447.5888866035967,103.38646191700121L462.9826696600669,100.04312125441896L475.67745324246926,98.11935132786627L488.2465162992637,98.48490144488635L498.82102692231484,100.1550180540119L506.62310176321,101.45955024808288L513.7202637156929,102.82493902427161L520.9562490133342,103.14147800405975L527.5969164687716,103.10271870952477L534.6467176633957,102.72987019899668" style="fill: none; stroke: #54a24b; stroke-width: 2;"></path></g></g><path class="foreground" d="" style="display: none; fill: none;"></path></g></g><g class="mark-group role-legend"><g transform="translate(768,0)"><path class="background" d="M0,0h88v79h-88Z" style="pointer-events: none; fill: none;"></path><g><g class="mark-group role-legend-entry"><g transform="translate(0,16)"><path class="background" d="M0,0h0v0h0Z" style="pointer-events: none; fill: none;"></path><g><g class="mark-group role-scope"><g transform="translate(0,0)"><path class="background" d="M0,0h87.15234375v11h-87.15234375Z" style="pointer-events: none; fill: none; opacity: 1;"></path><g><g class="mark-symbol role-legend-symbol" style="pointer-events: none;"><path transform="translate(6,6)" d="M-5,0L5,0" style="fill: none; stroke: #4c78a8; stroke-width: 1.5; opacity: 1;"></path></g><g class="mark-text role-legend-label" style="pointer-events: none;"><text text-anchor="start" transform="translate(16,9)" style="font-family: sans-serif; font-size: 10px; fill: #000; opacity: 1;">China</text></g></g><path class="foreground" d="" style="pointer-events: none; display: none; fill: none;"></path></g><g transform="translate(0,13)"><path class="background" d="M0,0h87.15234375v11h-87.15234375Z" style="pointer-events: none; fill: none; opacity: 1;"></path><g><g class="mark-symbol role-legend-symbol" style="pointer-events: none;"><path transform="translate(6,6)" d="M-5,0L5,0" style="fill: none; stroke: #9ecae9; stroke-width: 1.5; opacity: 1;"></path></g><g class="mark-text role-legend-label" style="pointer-events: none;"><text text-anchor="start" transform="translate(16,9)" style="font-family: sans-serif; font-size: 10px; fill: #000; opacity: 1;">Italy</text></g></g><path class="foreground" d="" style="pointer-events: none; display: none; fill: none;"></path></g><g transform="translate(0,26)"><path class="background" d="M0,0h87.15234375v11h-87.15234375Z" style="pointer-events: none; fill: none; opacity: 1;"></path><g><g class="mark-symbol role-legend-symbol" style="pointer-events: none;"><path transform="translate(6,6)" d="M-5,0L5,0" style="fill: none; stroke: #f58518; stroke-width: 1.5; opacity: 1;"></path></g><g class="mark-text role-legend-label" style="pointer-events: none;"><text text-anchor="start" transform="translate(16,9)" style="font-family: sans-serif; font-size: 10px; fill: #000; opacity: 1;">Spain</text></g></g><path class="foreground" d="" style="pointer-events: none; display: none; fill: none;"></path></g><g transform="translate(0,39)"><path class="background" d="M0,0h87.15234375v11h-87.15234375Z" style="pointer-events: none; fill: none; opacity: 1;"></path><g><g class="mark-symbol role-legend-symbol" style="pointer-events: none;"><path transform="translate(6,6)" d="M-5,0L5,0" style="fill: none; stroke: #ffbf79; stroke-width: 1.5; opacity: 1;"></path></g><g class="mark-text role-legend-label" style="pointer-events: none;"><text text-anchor="start" transform="translate(16,9)" style="font-family: sans-serif; font-size: 10px; fill: #000; opacity: 1;">US</text></g></g><path class="foreground" d="" style="pointer-events: none; display: none; fill: none;"></path></g><g transform="translate(0,52)"><path class="background" d="M0,0h87.15234375v11h-87.15234375Z" style="pointer-events: none; fill: none; opacity: 1;"></path><g><g class="mark-symbol role-legend-symbol" style="pointer-events: none;"><path transform="translate(6,6)" d="M-5,0L5,0" style="fill: none; stroke: #54a24b; stroke-width: 1.5; opacity: 1;"></path></g><g class="mark-text role-legend-label" style="pointer-events: none;"><text text-anchor="start" transform="translate(16,9)" style="font-family: sans-serif; font-size: 10px; fill: #000; opacity: 1;">United Kingdom</text></g></g><path class="foreground" d="" style="pointer-events: none; display: none; fill: none;"></path></g></g></g><path class="foreground" d="" style="pointer-events: none; display: none; fill: none;"></path></g></g><g class="mark-text role-legend-title" style="pointer-events: none;"><text text-anchor="start" transform="translate(0,9)" style="font-family: sans-serif; font-size: 11px; font-weight: bold; fill: #000; opacity: 1;">country</text></g></g><path class="foreground" d="" style="pointer-events: none; display: none; fill: none;"></path></g></g><g class="mark-group role-title"><g transform="translate(375,-22)"><path class="background" d="M0,0h0v0h0Z" style="pointer-events: none; fill: none;"></path><g><g class="mark-text role-title-text" style="pointer-events: none;"><text text-anchor="middle" transform="translate(0,10)" style="font-family: sans-serif; font-size: 13px; font-weight: bold; fill: #000; opacity: 1;">Log graph of New by Deaths in ['China', 'Italy', 'Spain', 'US', 'United Kingdom'] as of 04-16-2020</text></g></g><path class="foreground" d="" style="pointer-events: none; display: none; fill: none;"></path></g></g></g><path class="foreground" d="" style="display: none; fill: none;"></path></g></g></g></svg>