<svg class="marks" width="921" height="439" viewBox="0 0 921 439" version="1.1" xmlns="http://www.w3.org/2000/svg" xmlns:xlink="http://www.w3.org/1999/xlink"><rect width="921" height="439" style="fill: white;"></rect><g transform="translate(58,27)"><g class="mark-group role-frame root"><g transform="translate(0,0)"><path class="background" d="M0.5,0.5h750v375h-750Z" style="fill: none; stroke: #ddd;"></path><g><g class="mark-group role-axis"><g transform="translate(0.5,375.5)"><path class="background" d="M0,0h0v0h0Z" style="pointer-events: none; fill: none;"></path><g><g class="mark-rule role-axis-grid" style="pointer-events: none;"><line transform="translate(35,-375)" x2="0" y2="375" style="fill: none; stroke: #ddd; stroke-width: 1; opacity: 1;"></line><line transform="translate(97,-375)" x2="0" y2="375" style="fill: none; stroke: #ddd; stroke-width: 1; opacity: 1;"></line><line transform="translate(159,-375)" x2="0" y2="375" style="fill: none; stroke: #ddd; stroke-width: 1; opacity: 1;"></line><line transform="translate(221,-375)" x2="0" y2="375" style="fill: none; stroke: #ddd; stroke-width: 1; opacity: 1;"></line><line transform="translate(282,-375)" x2="0" y2="375" style="fill: none; stroke: #ddd; stroke-width: 1; opacity: 1;"></line><line transform="translate(344,-375)" x2="0" y2="375" style="fill: none; stroke: #ddd; stroke-width: 1; opacity: 1;"></line><line transform="translate(406,-375)" x2="0" y2="375" style="fill: none; stroke: #ddd; stroke-width: 1; opacity: 1;"></line><line transform="translate(468,-375)" x2="0" y2="375" style="fill: none; stroke: #ddd; stroke-width: 1; opacity: 1;"></line><line transform="translate(530,-375)" x2="0" y2="375" style="fill: none; stroke: #ddd; stroke-width: 1; opacity: 1;"></line><line transform="translate(591,-375)" x2="0" y2="375" style="fill: none; stroke: #ddd; stroke-width: 1; opacity: 1;"></line><line transform="translate(653,-375)" x2="0" y2="375" style="fill: none; stroke: #ddd; stroke-width: 1; opacity: 1;"></line><line transform="translate(715,-375)" x2="0" y2="375" style="fill: none; stroke: #ddd; stroke-width: 1; opacity: 1;"></line></g></g><path class="foreground" d="" style="pointer-events: none; display: none; fill: none;"></path></g></g><g class="mark-group role-axis"><g transform="translate(0.5,0.5)"><path class="background" d="M0,0h0v0h0Z" style="pointer-events: none; fill: none;"></path><g><g class="mark-rule role-axis-grid" style="pointer-events: none;"><line transform="translate(0,375)" x2="750" y2="0" style="fill: none; stroke: #ddd; stroke-width: 1; opacity: 1;"></line><line transform="translate(0,321)" x2="750" y2="0" style="fill: none; stroke: #ddd; stroke-width: 1; opacity: 1;"></line><line transform="translate(0,268)" x2="750" y2="0" style="fill: none; stroke: #ddd; stroke-width: 1; opacity: 1;"></line><line transform="translate(0,214)" x2="750" y2="0" style="fill: none; stroke: #ddd; stroke-width: 1; opacity: 1;"></line><line transform="translate(0,161)" x2="750" y2="0" style="fill: none; stroke: #ddd; stroke-width: 1; opacity: 1;"></line><line transform="translate(0,107)" x2="750" y2="0" style="fill: none; stroke: #ddd; stroke-width: 1; opacity: 1;"></line><line transform="translate(0,54)" x2="750" y2="0" style="fill: none; stroke: #ddd; stroke-width: 1; opacity: 1;"></line><line transform="translate(0,0)" x2="750" y2="0" style="fill: none; stroke: #ddd; stroke-width: 1; opacity: 1;"></line></g></g><path class="foreground" d="" style="pointer-events: none; display: none; fill: none;"></path></g></g><g class="mark-group role-axis"><g transform="translate(0.5,375.5)"><path class="background" d="M0,0h0v0h0Z" style="pointer-events: none; fill: none;"></path><g><g class="mark-rule role-axis-tick" style="pointer-events: none;"><line transform="translate(35,0)" x2="0" y2="5" style="fill: none; stroke: #888; stroke-width: 1; opacity: 1;"></line><line transform="translate(97,0)" x2="0" y2="5" style="fill: none; stroke: #888; stroke-width: 1; opacity: 1;"></line><line transform="translate(159,0)" x2="0" y2="5" style="fill: none; stroke: #888; stroke-width: 1; opacity: 1;"></line><line transform="translate(221,0)" x2="0" y2="5" style="fill: none; stroke: #888; stroke-width: 1; opacity: 1;"></line><line transform="translate(282,0)" x2="0" y2="5" style="fill: none; stroke: #888; stroke-width: 1; opacity: 1;"></line><line transform="translate(344,0)" x2="0" y2="5" style="fill: none; stroke: #888; stroke-width: 1; opacity: 1;"></line><line transform="translate(406,0)" x2="0" y2="5" style="fill: none; stroke: #888; stroke-width: 1; opacity: 1;"></line><line transform="translate(468,0)" x2="0" y2="5" style="fill: none; stroke: #888; stroke-width: 1; opacity: 1;"></line><line transform="translate(530,0)" x2="0" y2="5" style="fill: none; stroke: #888; stroke-width: 1; opacity: 1;"></line><line transform="translate(591,0)" x2="0" y2="5" style="fill: none; stroke: #888; stroke-width: 1; opacity: 1;"></line><line transform="translate(653,0)" x2="0" y2="5" style="fill: none; stroke: #888; stroke-width: 1; opacity: 1;"></line><line transform="translate(715,0)" x2="0" y2="5" style="fill: none; stroke: #888; stroke-width: 1; opacity: 1;"></line></g><g class="mark-text role-axis-label" style="pointer-events: none;"><text text-anchor="middle" transform="translate(35.31142717018147,15)" style="font-family: sans-serif; font-size: 10px; fill: #000; opacity: 1;">Jan 26</text><text text-anchor="middle" transform="translate(97.106424717999,15)" style="font-family: sans-serif; font-size: 10px; fill: #000; opacity: 1;">Feb 02</text><text text-anchor="middle" transform="translate(158.9014222658166,15)" style="font-family: sans-serif; font-size: 10px; fill: #000; opacity: 1;">Feb 09</text><text text-anchor="middle" transform="translate(220.69641981363415,15)" style="font-family: sans-serif; font-size: 10px; fill: #000; opacity: 1;">Feb 16</text><text text-anchor="middle" transform="translate(282.49141736145174,15)" style="font-family: sans-serif; font-size: 10px; fill: #000; opacity: 1;">Feb 23</text><text text-anchor="middle" transform="translate(344.28641490926924,15)" style="font-family: sans-serif; font-size: 10px; fill: #000; opacity: 1;">March</text><text text-anchor="middle" transform="translate(406.0814124570868,15)" style="font-family: sans-serif; font-size: 10px; fill: #000; opacity: 1;">Mar 08</text><text text-anchor="middle" transform="translate(467.87641000490436,15)" style="font-family: sans-serif; font-size: 10px; fill: #000; opacity: 1;">Mar 15</text><text text-anchor="middle" transform="translate(529.6714075527219,15)" style="font-family: sans-serif; font-size: 10px; fill: #000; opacity: 1;">Mar 22</text><text text-anchor="middle" transform="translate(591.4664051005395,15)" style="font-family: sans-serif; font-size: 10px; fill: #000; opacity: 1;">Mar 29</text><text text-anchor="middle" transform="translate(652.893575282001,15)" style="font-family: sans-serif; font-size: 10px; fill: #000; opacity: 1;">Apr 05</text><text text-anchor="middle" transform="translate(714.6885728298186,15)" style="font-family: sans-serif; font-size: 10px; fill: #000; opacity: 1;">Apr 12</text></g><g class="mark-rule role-axis-domain" style="pointer-events: none;"><line transform="translate(0,0)" x2="750" y2="0" style="fill: none; stroke: #888; stroke-width: 1; opacity: 1;"></line></g><g class="mark-text role-axis-title" style="pointer-events: none;"><text text-anchor="middle" transform="translate(375,30)" style="font-family: sans-serif; font-size: 11px; font-weight: bold; fill: #000; opacity: 1;">day</text></g></g><path class="foreground" d="" style="pointer-events: none; display: none; fill: none;"></path></g></g><g class="mark-group role-axis"><g transform="translate(0.5,0.5)"><path class="background" d="M0,0h0v0h0Z" style="pointer-events: none; fill: none;"></path><g><g class="mark-rule role-axis-tick" style="pointer-events: none;"><line transform="translate(0,375)" x2="-5" y2="0" style="fill: none; stroke: #888; stroke-width: 1; opacity: 1;"></line><line transform="translate(0,321)" x2="-5" y2="0" style="fill: none; stroke: #888; stroke-width: 1; opacity: 1;"></line><line transform="translate(0,268)" x2="-5" y2="0" style="fill: none; stroke: #888; stroke-width: 1; opacity: 1;"></line><line transform="translate(0,214)" x2="-5" y2="0" style="fill: none; stroke: #888; stroke-width: 1; opacity: 1;"></line><line transform="translate(0,161)" x2="-5" y2="0" style="fill: none; stroke: #888; stroke-width: 1; opacity: 1;"></line><line transform="translate(0,107)" x2="-5" y2="0" style="fill: none; stroke: #888; stroke-width: 1; opacity: 1;"></line><line transform="translate(0,54)" x2="-5" y2="0" style="fill: none; stroke: #888; stroke-width: 1; opacity: 1;"></line><line transform="translate(0,0)" x2="-5" y2="0" style="fill: none; stroke: #888; stroke-width: 1; opacity: 1;"></line></g><g class="mark-text role-axis-label" style="pointer-events: none;"><text text-anchor="end" transform="translate(-7,378)" style="font-family: sans-serif; font-size: 10px; fill: #000; opacity: 1;">0</text><text text-anchor="end" transform="translate(-7,324.42857142857144)" style="font-family: sans-serif; font-size: 10px; fill: #000; opacity: 1;">5,000</text><text text-anchor="end" transform="translate(-7,270.8571428571429)" style="font-family: sans-serif; font-size: 10px; fill: #000; opacity: 1;">10,000</text><text text-anchor="end" transform="translate(-7,217.28571428571428)" style="font-family: sans-serif; font-size: 10px; fill: #000; opacity: 1;">15,000</text><text text-anchor="end" transform="translate(-7,163.71428571428572)" style="font-family: sans-serif; font-size: 10px; fill: #000; opacity: 1;">20,000</text><text text-anchor="end" transform="translate(-7,110.14285714285714)" style="font-family: sans-serif; font-size: 10px; fill: #000; opacity: 1;">25,000</text><text text-anchor="end" transform="translate(-7,56.57142857142859)" style="font-family: sans-serif; font-size: 10px; fill: #000; opacity: 1;">30,000</text><text text-anchor="end" transform="translate(-7,3)" style="font-family: sans-serif; font-size: 10px; fill: #000; opacity: 1;">35,000</text></g><g class="mark-rule role-axis-domain" style="pointer-events: none;"><line transform="translate(0,375)" x2="0" y2="-375" style="fill: none; stroke: #888; stroke-width: 1; opacity: 1;"></line></g><g class="mark-text role-axis-title" style="pointer-events: none;"><text text-anchor="middle" transform="translate(-41.5859375,187.5) rotate(-90) translate(0,-2)" style="font-family: sans-serif; font-size: 11px; font-weight: bold; fill: #000; opacity: 1;">Deaths</text></g></g><path class="foreground" d="" style="pointer-events: none; display: none; fill: none;"></path></g></g><g class="mark-group role-scope pathgroup"><g transform="translate(0,0)"><path class="background" d="M0,0h750v375h-750Z" style="fill: none;"></path><g><g class="mark-line role-mark marks"><path d="M0,374.8178571428571L8.827856792545367,374.8071428571429L17.655713585090734,374.7214285714286L26.483570377636095,374.55L35.31142717018147,374.4L44.13928396272683,374.12142857142857L52.96714075527219,373.5964285714286L61.79499754781755,373.575L70.62285434036293,373.16785714285714L79.4507111329083,372.71785714285716L88.27856792545366,372.225L97.106424717999,371.13214285714287L105.93428151054438,370.44642857142856L114.76213830308974,369.73928571428576L123.5899950956351,368.96785714285716L132.41785188818048,368.21785714285716L141.24570868072587,367.3071428571429L150.07356547327123,366.375L158.9014222658166,365.30357142857144L167.72927905836195,364.1571428571429L176.55713585090731,363.0857142857143L185.38499264345268,363.0321428571429L194.212849435998,360.33214285714286L203.0407062285434,358.7035714285714L211.86856302108876,357.1821428571429L220.69641981363415,356.0785714285714L229.52427660617948,355.0285714285714L238.35213339872487,353.5392857142857L247.1799901912702,352.3285714285714L256.00784698381557,351.02142857142854L264.83570377636096,351.02142857142854L273.66356056890635,348.825L282.49141736145174,348.80357142857144L291.31927415399707,347.19642857142856L300.14713094654246,346.44642857142856L308.9749877390878,345.88928571428573L317.8028445316332,345.5785714285714L326.6307013241785,345.10714285714283L335.4585581167239,344.60357142857146L344.28641490926924,344.22857142857146L353.11427170181463,343.7785714285714L361.94212849435996,343.42499999999995L370.76998528690535,343.0392857142857L379.59784207945074,342.69642857142856L388.425698871996,342.3857142857143L397.2535556645414,342.0857142857143L406.0814124570868,341.7857142857143L414.9092692496322,341.5392857142857L423.7371260421775,341.36785714285713L432.5649828347229,341.13214285714287L441.3928396272683,341.01428571428573L450.22069641981363,340.92857142857144L459.04855321235897,340.7892857142857L467.87641000490436,340.6821428571429L476.70426679744975,340.53214285714284L485.53212358999514,340.3928571428571L494.3599803825404,340.275L503.1878371750858,340.1892857142857L512.0156939676311,340.1464285714286L520.8435507601765,340.08214285714286L529.6714075527219,339.9214285714286L538.4992643452673,339.9214285714286L547.3271211378127,339.8464285714286L556.1549779303581,339.80357142857144L564.9828347229035,339.7392857142857L573.8106915154488,339.6857142857143L582.6385483079941,339.65357142857147L591.4664051005395,339.59999999999997L599.9264345267288,339.5571428571428L608.7542913192742,339.5464285714286L617.5821481118196,339.4714285714286L626.4100049043649,339.40714285714284L635.2378616969103,339.3642857142857L644.0657184894557,339.32142857142856L652.893575282001,339.2892857142857L661.7214320745463,339.2678571428571L670.5492888670917,339.2678571428571L679.3771456596371,339.24642857142857L688.2050024521825,339.22499999999997L697.0328592447278,339.2142857142857L705.8607160372732,339.1821428571429L714.6885728298186,339.1821428571429L723.516429622364,339.1607142857143L732.3442864149092,339.1607142857143L741.1721432074546,339.15L750,339.15" style="fill: none; stroke: #4c78a8; stroke-width: 2;"></path></g></g><path class="foreground" d="" style="display: none; fill: none;"></path></g><g transform="translate(0,0)"><path class="background" d="M0,0h750v375h-750Z" style="fill: none;"></path><g><g class="mark-line role-mark marks"><path d="M0,375L8.827856792545367,375L17.655713585090734,375L26.483570377636095,375L35.31142717018147,375L44.13928396272683,375L52.96714075527219,375L61.79499754781755,375L70.62285434036293,375L79.4507111329083,375L88.27856792545366,375L97.106424717999,375L105.93428151054438,375L114.76213830308974,375L123.5899950956351,375L132.41785188818048,375L141.24570868072587,375L150.07356547327123,375L158.9014222658166,375L167.72927905836195,375L176.55713585090731,375L185.38499264345268,375L194.212849435998,375L203.0407062285434,375L211.86856302108876,375L220.69641981363415,375L229.52427660617948,375L238.35213339872487,375L247.1799901912702,375L256.00784698381557,375L264.83570377636096,374.98928571428576L273.66356056890635,374.9785714285714L282.49141736145174,374.96785714285716L291.31927415399707,374.925L300.14713094654246,374.8928571428571L308.9749877390878,374.87142857142857L317.8028445316332,374.8178571428571L326.6307013241785,374.775L335.4585581167239,374.68928571428575L344.28641490926924,374.63571428571424L353.11427170181463,374.4428571428571L361.94212849435996,374.1535714285714L370.76998528690535,373.8535714285714L379.59784207945074,373.4142857142857L388.425698871996,372.88928571428573L397.2535556645414,372.50357142857143L406.0814124570868,371.0785714285714L414.9092692496322,370.0392857142857L423.7371260421775,368.2392857142857L432.5649828347229,366.13928571428573L441.3928396272683,366.13928571428573L450.22069641981363,361.4357142857143L459.04855321235897,359.5607142857143L467.87641000490436,355.61785714285713L476.70426679744975,351.87857142857143L485.53212358999514,348.1821428571428L494.3599803825404,343.09285714285716L503.1878371750858,338.5178571428571L512.0156939676311,331.8L520.8435507601765,323.3035714285714L529.6714075527219,316.3285714285714L538.4992643452673,309.8892857142857L547.3271211378127,301.92857142857144L556.1549779303581,294.6107142857143L564.9828347229035,286.9821428571429L573.8106915154488,277.13571428571424L582.6385483079941,267.6107142857143L591.4664051005395,259.5107142857143L599.9264345267288,250.81071428571428L608.7542913192742,241.84285714285716L617.5821481118196,234.05357142857142L626.4100049043649,225.91071428571428L635.2378616969103,217.70357142857142L644.0657184894557,210.40714285714287L652.893575282001,204.78214285714284L661.7214320745463,197.96785714285716L670.5492888670917,191.4964285714286L679.3771456596371,185.68928571428572L688.2050024521825,179.15357142857144L697.0328592447278,173.04642857142858L705.8607160372732,166.4142857142857L714.6885728298186,161.79642857142858L723.516429622364,155.73214285714283L732.3442864149092,149.28214285714284L741.1721432074546,143.08928571428572L750,137.4642857142857" style="fill: none; stroke: #9ecae9; stroke-width: 2;"></path></g></g><path class="foreground" d="" style="display: none; fill: none;"></path></g><g transform="translate(0,0)"><path class="background" d="M0,0h750v375h-750Z" style="fill: none;"></path><g><g class="mark-line role-mark marks"><path d="M0,375L8.827856792545367,375L17.655713585090734,375L26.483570377636095,375L35.31142717018147,375L44.13928396272683,375L52.96714075527219,375L61.79499754781755,375L70.62285434036293,375L79.4507111329083,375L88.27856792545366,375L97.106424717999,375L105.93428151054438,375L114.76213830308974,375L123.5899950956351,375L132.41785188818048,375L141.24570868072587,375L150.07356547327123,375L158.9014222658166,375L167.72927905836195,375L176.55713585090731,375L185.38499264345268,375L194.212849435998,375L203.0407062285434,375L211.86856302108876,375L220.69641981363415,375L229.52427660617948,375L238.35213339872487,375L247.1799901912702,375L256.00784698381557,375L264.83570377636096,375L273.66356056890635,375L282.49141736145174,375L291.31927415399707,375L300.14713094654246,375L308.9749877390878,375L317.8028445316332,375L326.6307013241785,375L335.4585581167239,375L344.28641490926924,375L353.11427170181463,375L361.94212849435996,374.98928571428576L370.76998528690535,374.9785714285714L379.59784207945074,374.96785714285716L388.425698871996,374.94642857142856L397.2535556645414,374.8928571428571L406.0814124570868,374.8178571428571L414.9092692496322,374.7L423.7371260421775,374.625L432.5649828347229,374.4214285714286L441.3928396272683,374.4107142857143L450.22069641981363,373.575L459.04855321235897,372.9107142857143L467.87641000490436,371.9035714285714L476.70426679744975,371.3357142857143L485.53212358999514,369.2892857142857L494.3599803825404,368.325L503.1878371750858,366.1071428571429L512.0156939676311,363.825L520.8435507601765,360.26785714285717L529.6714075527219,356.0142857142857L538.4992643452673,350.2392857142857L547.3271211378127,344.9142857142857L556.1549779303581,335.925L564.9828347229035,328.2321428571429L573.8106915154488,319.95L582.6385483079941,310.90714285714284L591.4664051005395,302.11071428571427L599.9264345267288,292.3285714285714L608.7542913192742,284.31428571428575L617.5821481118196,274.425L626.4100049043649,264.12857142857143L635.2378616969103,255.0214285714286L644.0657184894557,246.99642857142857L652.893575282001,239.56071428571428L661.7214320745463,232.0607142857143L670.5492888670917,224.51785714285717L679.3771456596371,216.51428571428573L688.2050024521825,209.49642857142857L697.0328592447278,202.70357142857145L705.8607160372732,197.07857142857142L714.6885728298186,190.61785714285713L723.516429622364,184.75714285714287L732.3442864149092,181.54285714285714L741.1721432074546,174.55714285714285L750,168.05357142857144" style="fill: none; stroke: #f58518; stroke-width: 2;"></path></g></g><path class="foreground" d="" style="display: none; fill: none;"></path></g><g transform="translate(0,0)"><path class="background" d="M0,0h750v375h-750Z" style="fill: none;"></path><g><g class="mark-line role-mark marks"><path d="M0,375L8.827856792545367,375L17.655713585090734,375L26.483570377636095,375L35.31142717018147,375L44.13928396272683,375L52.96714075527219,375L61.79499754781755,375L70.62285434036293,375L79.4507111329083,375L88.27856792545366,375L97.106424717999,375L105.93428151054438,375L114.76213830308974,375L123.5899950956351,375L132.41785188818048,375L141.24570868072587,375L150.07356547327123,375L158.9014222658166,375L167.72927905836195,375L176.55713585090731,375L185.38499264345268,375L194.212849435998,375L203.0407062285434,375L211.86856302108876,375L220.69641981363415,375L229.52427660617948,375L238.35213339872487,375L247.1799901912702,375L256.00784698381557,375L264.83570377636096,375L273.66356056890635,375L282.49141736145174,375L291.31927415399707,375L300.14713094654246,375L308.9749877390878,375L317.8028445316332,375L326.6307013241785,375L335.4585581167239,374.98928571428576L344.28641490926924,374.98928571428576L353.11427170181463,374.93571428571425L361.94212849435996,374.925L370.76998528690535,374.88214285714287L379.59784207945074,374.87142857142857L388.425698871996,374.85L397.2535556645414,374.8178571428571L406.0814124570868,374.775L414.9092692496322,374.76428571428573L423.7371260421775,374.7L432.5649828347229,374.61428571428576L441.3928396272683,374.57142857142856L450.22069641981363,374.49642857142857L459.04855321235897,374.4214285714286L467.87641000490436,374.325L476.70426679744975,374.0892857142857L485.53212358999514,373.84285714285716L494.3599803825404,373.73571428571427L503.1878371750858,372.8571428571429L512.0156939676311,372.3857142857143L520.8435507601765,371.7107142857143L529.6714075527219,370.53214285714284L538.4992643452673,369.03214285714284L547.3271211378127,367.43571428571425L556.1549779303581,364.9071428571429L564.9828347229035,362.0464285714286L573.8106915154488,358.0607142857143L582.6385483079941,353.29285714285714L591.4664051005395,348.5678571428572L599.9264345267288,343.09285714285716L608.7542913192742,333.50357142857143L617.5821481118196,324.0321428571429L626.4100049043649,311.50714285714287L635.2378616969103,299.0678571428571L644.0657184894557,284.925L652.893575282001,271.9392857142857L661.7214320745463,259.46785714285716L670.5492888670917,238.69285714285715L679.3771456596371,217.5535714285714L688.2050024521825,198.45L697.0328592447278,175.86428571428573L705.8607160372732,155.76428571428573L714.6885728298186,139.08214285714286L723.516429622364,122.91428571428573L732.3442864149092,98.2392857142857L741.1721432074546,71.51785714285715L750,22.32857142857142" style="fill: none; stroke: #ffbf79; stroke-width: 2;"></path></g></g><path class="foreground" d="" style="display: none; fill: none;"></path></g><g transform="translate(0,0)"><path class="background" d="M0,0h750v375h-750Z" style="fill: none;"></path><g><g class="mark-line role-mark marks"><path d="M0,375L8.827856792545367,375L17.655713585090734,375L26.483570377636095,375L35.31142717018147,375L44.13928396272683,375L52.96714075527219,375L61.79499754781755,375L70.62285434036293,375L79.4507111329083,375L88.27856792545366,375L97.106424717999,375L105.93428151054438,375L114.76213830308974,375L123.5899950956351,375L132.41785188818048,375L141.24570868072587,375L150.07356547327123,375L158.9014222658166,375L167.72927905836195,375L176.55713585090731,375L185.38499264345268,375L194.212849435998,375L203.0407062285434,375L211.86856302108876,375L220.69641981363415,375L229.52427660617948,375L238.35213339872487,375L247.1799901912702,375L256.00784698381557,375L264.83570377636096,375L273.66356056890635,375L282.49141736145174,375L291.31927415399707,375L300.14713094654246,375L308.9749877390878,375L317.8028445316332,375L326.6307013241785,375L335.4585581167239,375L344.28641490926924,375L353.11427170181463,375L361.94212849435996,375L370.76998528690535,375L379.59784207945074,374.98928571428576L388.425698871996,374.9785714285714L397.2535556645414,374.9785714285714L406.0814124570868,374.96785714285716L414.9092692496322,374.95714285714286L423.7371260421775,374.93571428571425L432.5649828347229,374.9142857142857L441.3928396272683,374.9142857142857L450.22069641981363,374.9142857142857L459.04855321235897,374.775L467.87641000490436,374.775L476.70426679744975,374.4L485.53212358999514,374.4L494.3599803825404,374.2285714285714L503.1878371750858,373.5214285714286L512.0156939676311,373.09285714285716L520.8435507601765,372.49285714285713L529.6714075527219,371.9785714285714L538.4992643452673,371.4L547.3271211378127,370.46785714285716L556.1549779303581,370.00714285714287L564.9828347229035,368.7857142857143L573.8106915154488,366.84642857142853L582.6385483079941,364.06071428571425L591.4664051005395,361.8107142857143L599.9264345267288,359.88214285714287L608.7542913192742,355.7892857142857L617.5821481118196,349.74642857142857L626.4100049043649,343.65L635.2378616969103,336.31071428571425L644.0657184894557,328.7142857142857L652.893575282001,322.0392857142857L661.7214320745463,317.3035714285714L670.5492888670917,308.88214285714287L679.3771456596371,298.8107142857143L688.2050024521825,289.36071428571427L697.0328592447278,278.85L705.8607160372732,269.01428571428573L714.6885728298186,261.11785714285713L723.516429622364,253.42499999999998L732.3442864149092,245.04642857142858L741.1721432074546,236.84999999999997L750,227.58214285714286" style="fill: none; stroke: #54a24b; stroke-width: 2;"></path></g></g><path class="foreground" d="" style="display: none; fill: none;"></path></g></g><g class="mark-group role-legend"><g transform="translate(770,0)"><path class="background" d="M0,0h88v79h-88Z" style="pointer-events: none; fill: none;"></path><g><g class="mark-group role-legend-entry"><g transform="translate(0,16)"><path class="background" d="M0,0h0v0h0Z" style="pointer-events: none; fill: none;"></path><g><g class="mark-group role-scope"><g transform="translate(0,0)"><path class="background" d="M0,0h87.15234375v11h-87.15234375Z" style="pointer-events: none; fill: none; opacity: 1;"></path><g><g class="mark-symbol role-legend-symbol" style="pointer-events: none;"><path transform="translate(6,6)" d="M-5,0L5,0" style="fill: none; stroke: #4c78a8; stroke-width: 1.5; opacity: 1;"></path></g><g class="mark-text role-legend-label" style="pointer-events: none;"><text text-anchor="start" transform="translate(16,9)" style="font-family: sans-serif; font-size: 10px; fill: #000; opacity: 1;">China</text></g></g><path class="foreground" d="" style="pointer-events: none; display: none; fill: none;"></path></g><g transform="translate(0,13)"><path class="background" d="M0,0h87.15234375v11h-87.15234375Z" style="pointer-events: none; fill: none; opacity: 1;"></path><g><g class="mark-symbol role-legend-symbol" style="pointer-events: none;"><path transform="translate(6,6)" d="M-5,0L5,0" style="fill: none; stroke: #9ecae9; stroke-width: 1.5; opacity: 1;"></path></g><g class="mark-text role-legend-label" style="pointer-events: none;"><text text-anchor="start" transform="translate(16,9)" style="font-family: sans-serif; font-size: 10px; fill: #000; opacity: 1;">Italy</text></g></g><path class="foreground" d="" style="pointer-events: none; display: none; fill: none;"></path></g><g transform="translate(0,26)"><path class="background" d="M0,0h87.15234375v11h-87.15234375Z" style="pointer-events: none; fill: none; opacity: 1;"></path><g><g class="mark-symbol role-legend-symbol" style="pointer-events: none;"><path transform="translate(6,6)" d="M-5,0L5,0" style="fill: none; stroke: #f58518; stroke-width: 1.5; opacity: 1;"></path></g><g class="mark-text role-legend-label" style="pointer-events: none;"><text text-anchor="start" transform="translate(16,9)" style="font-family: sans-serif; font-size: 10px; fill: #000; opacity: 1;">Spain</text></g></g><path class="foreground" d="" style="pointer-events: none; display: none; fill: none;"></path></g><g transform="translate(0,39)"><path class="background" d="M0,0h87.15234375v11h-87.15234375Z" style="pointer-events: none; fill: none; opacity: 1;"></path><g><g class="mark-symbol role-legend-symbol" style="pointer-events: none;"><path transform="translate(6,6)" d="M-5,0L5,0" style="fill: none; stroke: #ffbf79; stroke-width: 1.5; opacity: 1;"></path></g><g class="mark-text role-legend-label" style="pointer-events: none;"><text text-anchor="start" transform="translate(16,9)" style="font-family: sans-serif; font-size: 10px; fill: #000; opacity: 1;">US</text></g></g><path class="foreground" d="" style="pointer-events: none; display: none; fill: none;"></path></g><g transform="translate(0,52)"><path class="background" d="M0,0h87.15234375v11h-87.15234375Z" style="pointer-events: none; fill: none; opacity: 1;"></path><g><g class="mark-symbol role-legend-symbol" style="pointer-events: none;"><path transform="translate(6,6)" d="M-5,0L5,0" style="fill: none; stroke: #54a24b; stroke-width: 1.5; opacity: 1;"></path></g><g class="mark-text role-legend-label" style="pointer-events: none;"><text text-anchor="start" transform="translate(16,9)" style="font-family: sans-serif; font-size: 10px; fill: #000; opacity: 1;">United Kingdom</text></g></g><path class="foreground" d="" style="pointer-events: none; display: none; fill: none;"></path></g></g></g><path class="foreground" d="" style="pointer-events: none; display: none; fill: none;"></path></g></g><g class="mark-text role-legend-title" style="pointer-events: none;"><text text-anchor="start" transform="translate(0,9)" style="font-family: sans-serif; font-size: 11px; font-weight: bold; fill: #000; opacity: 1;">country</text></g></g><path class="foreground" d="" style="pointer-events: none; display: none; fill: none;"></path></g></g><g class="mark-group role-title"><g transform="translate(375,-22)"><path class="background" d="M0,0h0v0h0Z" style="pointer-events: none; fill: none;"></path><g><g class="mark-text role-title-text" style="pointer-events: none;"><text text-anchor="middle" transform="translate(0,10)" style="font-family: sans-serif; font-size: 13px; font-weight: bold; fill: #000; opacity: 1;">Deaths by day in ['China', 'Italy', 'Spain', 'US', 'United Kingdom'] as of 04-16-2020</text></g></g><path class="foreground" d="" style="pointer-events: none; display: none; fill: none;"></path></g></g></g><path class="foreground" d="" style="display: none; fill: none;"></path></g></g></g></svg>