<svg class="marks" width="810" height="439" viewBox="0 0 810 439" version="1.1" xmlns="http://www.w3.org/2000/svg" xmlns:xlink="http://www.w3.org/1999/xlink"><rect width="810" height="439" style="fill: white;"></rect><g transform="translate(53,27)"><g class="mark-group role-frame root"><g transform="translate(0,0)"><path class="background" d="M0.5,0.5h750v375h-750Z" style="fill: none; stroke: #ddd;"></path><g><g class="mark-group role-axis"><g transform="translate(0.5,375.5)"><path class="background" d="M0,0h0v0h0Z" style="pointer-events: none; fill: none;"></path><g><g class="mark-rule role-axis-grid" style="pointer-events: none;"><line transform="translate(11,-375)" x2="0" y2="375" style="fill: none; stroke: #ddd; stroke-width: 1; opacity: 1;"></line><line transform="translate(32,-375)" x2="0" y2="375" style="fill: none; stroke: #ddd; stroke-width: 1; opacity: 1;"></line><line transform="translate(53,-375)" x2="0" y2="375" style="fill: none; stroke: #ddd; stroke-width: 1; opacity: 1;"></line><line transform="translate(74,-375)" x2="0" y2="375" style="fill: none; stroke: #ddd; stroke-width: 1; opacity: 1;"></line><line transform="translate(95,-375)" x2="0" y2="375" style="fill: none; stroke: #ddd; stroke-width: 1; opacity: 1;"></line><line transform="translate(106,-375)" x2="0" y2="375" style="fill: none; stroke: #ddd; stroke-width: 1; opacity: 1;"></line><line transform="translate(127,-375)" x2="0" y2="375" style="fill: none; stroke: #ddd; stroke-width: 1; opacity: 1;"></line><line transform="translate(148,-375)" x2="0" y2="375" style="fill: none; stroke: #ddd; stroke-width: 1; opacity: 1;"></line><line transform="translate(169,-375)" x2="0" y2="375" style="fill: none; stroke: #ddd; stroke-width: 1; opacity: 1;"></line><line transform="translate(190,-375)" x2="0" y2="375" style="fill: none; stroke: #ddd; stroke-width: 1; opacity: 1;"></line><line transform="translate(211,-375)" x2="0" y2="375" style="fill: none; stroke: #ddd; stroke-width: 1; opacity: 1;"></line><line transform="translate(232,-375)" x2="0" y2="375" style="fill: none; stroke: #ddd; stroke-width: 1; opacity: 1;"></line><line transform="translate(254,-375)" x2="0" y2="375" style="fill: none; stroke: #ddd; stroke-width: 1; opacity: 1;"></line><line transform="translate(275,-375)" x2="0" y2="375" style="fill: none; stroke: #ddd; stroke-width: 1; opacity: 1;"></line><line transform="translate(296,-375)" x2="0" y2="375" style="fill: none; stroke: #ddd; stroke-width: 1; opacity: 1;"></line><line transform="translate(317,-375)" x2="0" y2="375" style="fill: none; stroke: #ddd; stroke-width: 1; opacity: 1;"></line><line transform="translate(338,-375)" x2="0" y2="375" style="fill: none; stroke: #ddd; stroke-width: 1; opacity: 1;"></line><line transform="translate(359,-375)" x2="0" y2="375" style="fill: none; stroke: #ddd; stroke-width: 1; opacity: 1;"></line><line transform="translate(380,-375)" x2="0" y2="375" style="fill: none; stroke: #ddd; stroke-width: 1; opacity: 1;"></line><line transform="translate(401,-375)" x2="0" y2="375" style="fill: none; stroke: #ddd; stroke-width: 1; opacity: 1;"></line><line transform="translate(412,-375)" x2="0" y2="375" style="fill: none; stroke: #ddd; stroke-width: 1; opacity: 1;"></line><line transform="translate(433,-375)" x2="0" y2="375" style="fill: none; stroke: #ddd; stroke-width: 1; opacity: 1;"></line><line transform="translate(454,-375)" x2="0" y2="375" style="fill: none; stroke: #ddd; stroke-width: 1; opacity: 1;"></line><line transform="translate(475,-375)" x2="0" y2="375" style="fill: none; stroke: #ddd; stroke-width: 1; opacity: 1;"></line><line transform="translate(496,-375)" x2="0" y2="375" style="fill: none; stroke: #ddd; stroke-width: 1; opacity: 1;"></line><line transform="translate(518,-375)" x2="0" y2="375" style="fill: none; stroke: #ddd; stroke-width: 1; opacity: 1;"></line><line transform="translate(539,-375)" x2="0" y2="375" style="fill: none; stroke: #ddd; stroke-width: 1; opacity: 1;"></line><line transform="translate(560,-375)" x2="0" y2="375" style="fill: none; stroke: #ddd; stroke-width: 1; opacity: 1;"></line><line transform="translate(581,-375)" x2="0" y2="375" style="fill: none; stroke: #ddd; stroke-width: 1; opacity: 1;"></line><line transform="translate(602,-375)" x2="0" y2="375" style="fill: none; stroke: #ddd; stroke-width: 1; opacity: 1;"></line><line transform="translate(623,-375)" x2="0" y2="375" style="fill: none; stroke: #ddd; stroke-width: 1; opacity: 1;"></line><line transform="translate(644,-375)" x2="0" y2="375" style="fill: none; stroke: #ddd; stroke-width: 1; opacity: 1;"></line><line transform="translate(665,-375)" x2="0" y2="375" style="fill: none; stroke: #ddd; stroke-width: 1; opacity: 1;"></line><line transform="translate(687,-375)" x2="0" y2="375" style="fill: none; stroke: #ddd; stroke-width: 1; opacity: 1;"></line><line transform="translate(708,-375)" x2="0" y2="375" style="fill: none; stroke: #ddd; stroke-width: 1; opacity: 1;"></line><line transform="translate(728,-375)" x2="0" y2="375" style="fill: none; stroke: #ddd; stroke-width: 1; opacity: 1;"></line><line transform="translate(739,-375)" x2="0" y2="375" style="fill: none; stroke: #ddd; stroke-width: 1; opacity: 1;"></line></g></g><path class="foreground" d="" style="pointer-events: none; display: none; fill: none;"></path></g></g><g class="mark-group role-axis"><g transform="translate(0.5,0.5)"><path class="background" d="M0,0h0v0h0Z" style="pointer-events: none; fill: none;"></path><g><g class="mark-rule role-axis-grid" style="pointer-events: none;"><line transform="translate(0,375)" x2="750" y2="0" style="fill: none; stroke: #ddd; stroke-width: 1; opacity: 1;"></line><line transform="translate(0,344)" x2="750" y2="0" style="fill: none; stroke: #ddd; stroke-width: 1; opacity: 1;"></line><line transform="translate(0,313)" x2="750" y2="0" style="fill: none; stroke: #ddd; stroke-width: 1; opacity: 1;"></line><line transform="translate(0,281)" x2="750" y2="0" style="fill: none; stroke: #ddd; stroke-width: 1; opacity: 1;"></line><line transform="translate(0,250)" x2="750" y2="0" style="fill: none; stroke: #ddd; stroke-width: 1; opacity: 1;"></line><line transform="translate(0,219)" x2="750" y2="0" style="fill: none; stroke: #ddd; stroke-width: 1; opacity: 1;"></line><line transform="translate(0,188)" x2="750" y2="0" style="fill: none; stroke: #ddd; stroke-width: 1; opacity: 1;"></line><line transform="translate(0,156)" x2="750" y2="0" style="fill: none; stroke: #ddd; stroke-width: 1; opacity: 1;"></line><line transform="translate(0,125)" x2="750" y2="0" style="fill: none; stroke: #ddd; stroke-width: 1; opacity: 1;"></line><line transform="translate(0,94)" x2="750" y2="0" style="fill: none; stroke: #ddd; stroke-width: 1; opacity: 1;"></line><line transform="translate(0,62)" x2="750" y2="0" style="fill: none; stroke: #ddd; stroke-width: 1; opacity: 1;"></line><line transform="translate(0,31)" x2="750" y2="0" style="fill: none; stroke: #ddd; stroke-width: 1; opacity: 1;"></line><line transform="translate(0,0)" x2="750" y2="0" style="fill: none; stroke: #ddd; stroke-width: 1; opacity: 1;"></line></g></g><path class="foreground" d="" style="pointer-events: none; display: none; fill: none;"></path></g></g><g class="mark-group role-axis"><g transform="translate(0.5,375.5)"><path class="background" d="M0,0h0v0h0Z" style="pointer-events: none; fill: none;"></path><g><g class="mark-rule role-axis-tick" style="pointer-events: none;"><line transform="translate(11,0)" x2="0" y2="5" style="fill: none; stroke: #888; stroke-width: 1; opacity: 1;"></line><line transform="translate(32,0)" x2="0" y2="5" style="fill: none; stroke: #888; stroke-width: 1; opacity: 1;"></line><line transform="translate(53,0)" x2="0" y2="5" style="fill: none; stroke: #888; stroke-width: 1; opacity: 1;"></line><line transform="translate(74,0)" x2="0" y2="5" style="fill: none; stroke: #888; stroke-width: 1; opacity: 1;"></line><line transform="translate(95,0)" x2="0" y2="5" style="fill: none; stroke: #888; stroke-width: 1; opacity: 1;"></line><line transform="translate(106,0)" x2="0" y2="5" style="fill: none; stroke: #888; stroke-width: 1; opacity: 1;"></line><line transform="translate(127,0)" x2="0" y2="5" style="fill: none; stroke: #888; stroke-width: 1; opacity: 1;"></line><line transform="translate(148,0)" x2="0" y2="5" style="fill: none; stroke: #888; stroke-width: 1; opacity: 1;"></line><line transform="translate(169,0)" x2="0" y2="5" style="fill: none; stroke: #888; stroke-width: 1; opacity: 1;"></line><line transform="translate(190,0)" x2="0" y2="5" style="fill: none; stroke: #888; stroke-width: 1; opacity: 1;"></line><line transform="translate(211,0)" x2="0" y2="5" style="fill: none; stroke: #888; stroke-width: 1; opacity: 1;"></line><line transform="translate(232,0)" x2="0" y2="5" style="fill: none; stroke: #888; stroke-width: 1; opacity: 1;"></line><line transform="translate(254,0)" x2="0" y2="5" style="fill: none; stroke: #888; stroke-width: 1; opacity: 1;"></line><line transform="translate(275,0)" x2="0" y2="5" style="fill: none; stroke: #888; stroke-width: 1; opacity: 1;"></line><line transform="translate(296,0)" x2="0" y2="5" style="fill: none; stroke: #888; stroke-width: 1; opacity: 1;"></line><line transform="translate(317,0)" x2="0" y2="5" style="fill: none; stroke: #888; stroke-width: 1; opacity: 1;"></line><line transform="translate(338,0)" x2="0" y2="5" style="fill: none; stroke: #888; stroke-width: 1; opacity: 1;"></line><line transform="translate(359,0)" x2="0" y2="5" style="fill: none; stroke: #888; stroke-width: 1; opacity: 1;"></line><line transform="translate(380,0)" x2="0" y2="5" style="fill: none; stroke: #888; stroke-width: 1; opacity: 1;"></line><line transform="translate(401,0)" x2="0" y2="5" style="fill: none; stroke: #888; stroke-width: 1; opacity: 1;"></line><line transform="translate(412,0)" x2="0" y2="5" style="fill: none; stroke: #888; stroke-width: 1; opacity: 1;"></line><line transform="translate(433,0)" x2="0" y2="5" style="fill: none; stroke: #888; stroke-width: 1; opacity: 1;"></line><line transform="translate(454,0)" x2="0" y2="5" style="fill: none; stroke: #888; stroke-width: 1; opacity: 1;"></line><line transform="translate(475,0)" x2="0" y2="5" style="fill: none; stroke: #888; stroke-width: 1; opacity: 1;"></line><line transform="translate(496,0)" x2="0" y2="5" style="fill: none; stroke: #888; stroke-width: 1; opacity: 1;"></line><line transform="translate(518,0)" x2="0" y2="5" style="fill: none; stroke: #888; stroke-width: 1; opacity: 1;"></line><line transform="translate(539,0)" x2="0" y2="5" style="fill: none; stroke: #888; stroke-width: 1; opacity: 1;"></line><line transform="translate(560,0)" x2="0" y2="5" style="fill: none; stroke: #888; stroke-width: 1; opacity: 1;"></line><line transform="translate(581,0)" x2="0" y2="5" style="fill: none; stroke: #888; stroke-width: 1; opacity: 1;"></line><line transform="translate(602,0)" x2="0" y2="5" style="fill: none; stroke: #888; stroke-width: 1; opacity: 1;"></line><line transform="translate(623,0)" x2="0" y2="5" style="fill: none; stroke: #888; stroke-width: 1; opacity: 1;"></line><line transform="translate(644,0)" x2="0" y2="5" style="fill: none; stroke: #888; stroke-width: 1; opacity: 1;"></line><line transform="translate(665,0)" x2="0" y2="5" style="fill: none; stroke: #888; stroke-width: 1; opacity: 1;"></line><line transform="translate(687,0)" x2="0" y2="5" style="fill: none; stroke: #888; stroke-width: 1; opacity: 1;"></line><line transform="translate(708,0)" x2="0" y2="5" style="fill: none; stroke: #888; stroke-width: 1; opacity: 1;"></line><line transform="translate(728,0)" x2="0" y2="5" style="fill: none; stroke: #888; stroke-width: 1; opacity: 1;"></line><line transform="translate(739,0)" x2="0" y2="5" style="fill: none; stroke: #888; stroke-width: 1; opacity: 1;"></line></g><g class="mark-text role-axis-label" style="pointer-events: none;"><text text-anchor="middle" transform="translate(10.563380281690142,15)" style="font-family: sans-serif; font-size: 10px; fill: #000; opacity: 1;">Thu 23</text><text text-anchor="middle" transform="translate(31.69014084507042,15)" style="font-family: sans-serif; font-size: 10px; fill: #000; opacity: 0;">Sat 25</text><text text-anchor="middle" transform="translate(52.816901408450704,15)" style="font-family: sans-serif; font-size: 10px; fill: #000; opacity: 1;">Mon 27</text><text text-anchor="middle" transform="translate(73.94366197183098,15)" style="font-family: sans-serif; font-size: 10px; fill: #000; opacity: 0;">Wed 29</text><text text-anchor="middle" transform="translate(95.07042253521126,15)" style="font-family: sans-serif; font-size: 10px; fill: #000; opacity: 1;">Fri 31</text><text text-anchor="middle" transform="translate(105.63380281690141,15)" style="font-family: sans-serif; font-size: 10px; fill: #000; opacity: 0;">February</text><text text-anchor="middle" transform="translate(126.76056338028168,15)" style="font-family: sans-serif; font-size: 10px; fill: #000; opacity: 1;">Mon 03</text><text text-anchor="middle" transform="translate(147.88732394366195,15)" style="font-family: sans-serif; font-size: 10px; fill: #000; opacity: 0;">Wed 05</text><text text-anchor="middle" transform="translate(169.01408450704227,15)" style="font-family: sans-serif; font-size: 10px; fill: #000; opacity: 1;">Fri 07</text><text text-anchor="middle" transform="translate(190.14084507042253,15)" style="font-family: sans-serif; font-size: 10px; fill: #000; opacity: 0;">Feb 09</text><text text-anchor="middle" transform="translate(211.26760563380282,15)" style="font-family: sans-serif; font-size: 10px; fill: #000; opacity: 1;">Tue 11</text><text text-anchor="middle" transform="translate(232.39436619718307,15)" style="font-family: sans-serif; font-size: 10px; fill: #000; opacity: 0;">Thu 13</text><text text-anchor="middle" transform="translate(253.52112676056336,15)" style="font-family: sans-serif; font-size: 10px; fill: #000; opacity: 1;">Sat 15</text><text text-anchor="middle" transform="translate(274.6478873239437,15)" style="font-family: sans-serif; font-size: 10px; fill: #000; opacity: 0;">Mon 17</text><text text-anchor="middle" transform="translate(295.7746478873239,15)" style="font-family: sans-serif; font-size: 10px; fill: #000; opacity: 1;">Wed 19</text><text text-anchor="middle" transform="translate(316.9014084507042,15)" style="font-family: sans-serif; font-size: 10px; fill: #000; opacity: 0;">Fri 21</text><text text-anchor="middle" transform="translate(338.02816901408454,15)" style="font-family: sans-serif; font-size: 10px; fill: #000; opacity: 1;">Feb 23</text><text text-anchor="middle" transform="translate(359.15492957746477,15)" style="font-family: sans-serif; font-size: 10px; fill: #000; opacity: 0;">Tue 25</text><text text-anchor="middle" transform="translate(380.28169014084506,15)" style="font-family: sans-serif; font-size: 10px; fill: #000; opacity: 1;">Thu 27</text><text text-anchor="middle" transform="translate(401.40845070422534,15)" style="font-family: sans-serif; font-size: 10px; fill: #000; opacity: 0;">Sat 29</text><text text-anchor="middle" transform="translate(411.9718309859155,15)" style="font-family: sans-serif; font-size: 10px; fill: #000; opacity: 1;">March</text><text text-anchor="middle" transform="translate(433.0985915492958,15)" style="font-family: sans-serif; font-size: 10px; fill: #000; opacity: 0;">Tue 03</text><text text-anchor="middle" transform="translate(454.22535211267603,15)" style="font-family: sans-serif; font-size: 10px; fill: #000; opacity: 1;">Thu 05</text><text text-anchor="middle" transform="translate(475.3521126760564,15)" style="font-family: sans-serif; font-size: 10px; fill: #000; opacity: 0;">Sat 07</text><text text-anchor="middle" transform="translate(496.4788732394366,15)" style="font-family: sans-serif; font-size: 10px; fill: #000; opacity: 1;">Mon 09</text><text text-anchor="middle" transform="translate(517.6056338028169,15)" style="font-family: sans-serif; font-size: 10px; fill: #000; opacity: 0;">Wed 11</text><text text-anchor="middle" transform="translate(538.7323943661972,15)" style="font-family: sans-serif; font-size: 10px; fill: #000; opacity: 1;">Fri 13</text><text text-anchor="middle" transform="translate(559.8591549295775,15)" style="font-family: sans-serif; font-size: 10px; fill: #000; opacity: 0;">Mar 15</text><text text-anchor="middle" transform="translate(580.9859154929577,15)" style="font-family: sans-serif; font-size: 10px; fill: #000; opacity: 1;">Tue 17</text><text text-anchor="middle" transform="translate(602.112676056338,15)" style="font-family: sans-serif; font-size: 10px; fill: #000; opacity: 0;">Thu 19</text><text text-anchor="middle" transform="translate(623.2394366197183,15)" style="font-family: sans-serif; font-size: 10px; fill: #000; opacity: 1;">Sat 21</text><text text-anchor="middle" transform="translate(644.3661971830986,15)" style="font-family: sans-serif; font-size: 10px; fill: #000; opacity: 0;">Mon 23</text><text text-anchor="middle" transform="translate(665.4929577464789,15)" style="font-family: sans-serif; font-size: 10px; fill: #000; opacity: 1;">Wed 25</text><text text-anchor="middle" transform="translate(686.6197183098592,15)" style="font-family: sans-serif; font-size: 10px; fill: #000; opacity: 0;">Fri 27</text><text text-anchor="middle" transform="translate(707.7464788732394,15)" style="font-family: sans-serif; font-size: 10px; fill: #000; opacity: 1;">Mar 29</text><text text-anchor="middle" transform="translate(728.4330985915493,15)" style="font-family: sans-serif; font-size: 10px; fill: #000; opacity: 0;">Tue 31</text><text text-anchor="middle" transform="translate(738.9964788732394,15)" style="font-family: sans-serif; font-size: 10px; fill: #000; opacity: 1;">April</text></g><g class="mark-rule role-axis-domain" style="pointer-events: none;"><line transform="translate(0,0)" x2="750" y2="0" style="fill: none; stroke: #888; stroke-width: 1; opacity: 1;"></line></g><g class="mark-text role-axis-title" style="pointer-events: none;"><text text-anchor="middle" transform="translate(375,30)" style="font-family: sans-serif; font-size: 11px; font-weight: bold; fill: #000; opacity: 1;">Date</text></g></g><path class="foreground" d="" style="pointer-events: none; display: none; fill: none;"></path></g></g><g class="mark-group role-axis"><g transform="translate(0.5,0.5)"><path class="background" d="M0,0h0v0h0Z" style="pointer-events: none; fill: none;"></path><g><g class="mark-rule role-axis-tick" style="pointer-events: none;"><line transform="translate(0,375)" x2="-5" y2="0" style="fill: none; stroke: #888; stroke-width: 1; opacity: 1;"></line><line transform="translate(0,344)" x2="-5" y2="0" style="fill: none; stroke: #888; stroke-width: 1; opacity: 1;"></line><line transform="translate(0,313)" x2="-5" y2="0" style="fill: none; stroke: #888; stroke-width: 1; opacity: 1;"></line><line transform="translate(0,281)" x2="-5" y2="0" style="fill: none; stroke: #888; stroke-width: 1; opacity: 1;"></line><line transform="translate(0,250)" x2="-5" y2="0" style="fill: none; stroke: #888; stroke-width: 1; opacity: 1;"></line><line transform="translate(0,219)" x2="-5" y2="0" style="fill: none; stroke: #888; stroke-width: 1; opacity: 1;"></line><line transform="translate(0,188)" x2="-5" y2="0" style="fill: none; stroke: #888; stroke-width: 1; opacity: 1;"></line><line transform="translate(0,156)" x2="-5" y2="0" style="fill: none; stroke: #888; stroke-width: 1; opacity: 1;"></line><line transform="translate(0,125)" x2="-5" y2="0" style="fill: none; stroke: #888; stroke-width: 1; opacity: 1;"></line><line transform="translate(0,94)" x2="-5" y2="0" style="fill: none; stroke: #888; stroke-width: 1; opacity: 1;"></line><line transform="translate(0,62)" x2="-5" y2="0" style="fill: none; stroke: #888; stroke-width: 1; opacity: 1;"></line><line transform="translate(0,31)" x2="-5" y2="0" style="fill: none; stroke: #888; stroke-width: 1; opacity: 1;"></line><line transform="translate(0,0)" x2="-5" y2="0" style="fill: none; stroke: #888; stroke-width: 1; opacity: 1;"></line></g><g class="mark-text role-axis-label" style="pointer-events: none;"><text text-anchor="end" transform="translate(-7,378)" style="font-family: sans-serif; font-size: 10px; fill: #000; opacity: 1;">0</text><text text-anchor="end" transform="translate(-7,346.75)" style="font-family: sans-serif; font-size: 10px; fill: #000; opacity: 1;">500</text><text text-anchor="end" transform="translate(-7,315.5)" style="font-family: sans-serif; font-size: 10px; fill: #000; opacity: 1;">1,000</text><text text-anchor="end" transform="translate(-7,284.25)" style="font-family: sans-serif; font-size: 10px; fill: #000; opacity: 1;">1,500</text><text text-anchor="end" transform="translate(-7,253.00000000000003)" style="font-family: sans-serif; font-size: 10px; fill: #000; opacity: 1;">2,000</text><text text-anchor="end" transform="translate(-7,221.74999999999997)" style="font-family: sans-serif; font-size: 10px; fill: #000; opacity: 1;">2,500</text><text text-anchor="end" transform="translate(-7,190.5)" style="font-family: sans-serif; font-size: 10px; fill: #000; opacity: 1;">3,000</text><text text-anchor="end" transform="translate(-7,159.25)" style="font-family: sans-serif; font-size: 10px; fill: #000; opacity: 1;">3,500</text><text text-anchor="end" transform="translate(-7,128)" style="font-family: sans-serif; font-size: 10px; fill: #000; opacity: 1;">4,000</text><text text-anchor="end" transform="translate(-7,96.75)" style="font-family: sans-serif; font-size: 10px; fill: #000; opacity: 1;">4,500</text><text text-anchor="end" transform="translate(-7,65.49999999999999)" style="font-family: sans-serif; font-size: 10px; fill: #000; opacity: 1;">5,000</text><text text-anchor="end" transform="translate(-7,34.250000000000014)" style="font-family: sans-serif; font-size: 10px; fill: #000; opacity: 1;">5,500</text><text text-anchor="end" transform="translate(-7,3)" style="font-family: sans-serif; font-size: 10px; fill: #000; opacity: 1;">6,000</text></g><g class="mark-rule role-axis-domain" style="pointer-events: none;"><line transform="translate(0,375)" x2="0" y2="-375" style="fill: none; stroke: #888; stroke-width: 1; opacity: 1;"></line></g><g class="mark-text role-axis-title" style="pointer-events: none;"><text text-anchor="middle" transform="translate(-36.0244140625,187.5) rotate(-90) translate(0,-2)" style="font-family: sans-serif; font-size: 11px; font-weight: bold; fill: #000; opacity: 1;">Deaths</text></g></g><path class="foreground" d="" style="pointer-events: none; display: none; fill: none;"></path></g></g><g class="mark-line role-mark marks"><path d="M0,375L10.563380281690142,375L21.126760563380284,375L31.69014084507042,375L42.25352112676057,375L52.816901408450704,375L63.38028169014084,375L73.94366197183098,375L84.50704225352113,375L95.07042253521126,375L105.63380281690141,375L116.19718309859154,375L126.76056338028168,375L137.32394366197184,375L147.88732394366195,375L158.4507042253521,375L169.01408450704227,375L179.57746478873239,375L190.14084507042253,375L200.70422535211267,375L211.26760563380282,375L221.83098591549296,375L232.39436619718307,375L242.95774647887325,375L253.52112676056336,375L264.0845070422535,375L274.6478873239437,375L285.2112676056338,375L295.7746478873239,375L306.3380281690141,375L316.9014084507042,375L327.46478873239437,375L338.02816901408454,375L348.59154929577466,375L359.15492957746477,375L369.71830985915494,375L380.28169014084506,375L390.8450704225352,375L401.40845070422534,374.9375L411.9718309859155,374.9375L422.53521126760563,374.625L433.0985915492958,374.5625L443.6619718309859,374.3125L454.22535211267603,374.25L464.78873239436615,374.125L475.3521126760564,373.9375L485.9154929577465,373.6875L496.4788732394366,373.625L507.0422535211267,373.25L517.6056338028169,372.6875L528.169014084507,372.5L538.7323943661972,372.0625L549.2957746478874,371.625L559.8591549295775,371.0625L570.4225352112676,369.6875L580.9859154929577,368.25L591.5492957746478,367.625L602.112676056338,362.5L612.6760563380282,359.75L623.2394366197183,355.8125L633.8028169014084,348.9375L644.3661971830986,340.5L654.9295774647887,330.875L665.4929577464789,316.125L676.0563380281691,299.4375L686.6197183098592,276.1875L697.1830985915493,248.375L707.7464788732394,220.8125L718.3098591549295,188.87500000000003L728.8732394366198,132.9375L739.4366197183099,55.24999999999999L750,4.62499999999999" style="fill: none; stroke: red; stroke-width: 2;"></path></g><g class="mark-group role-title"><g transform="translate(375,-22)"><path class="background" d="M0,0h0v0h0Z" style="pointer-events: none; fill: none;"></path><g><g class="mark-text role-title-text" style="pointer-events: none;"><text text-anchor="middle" transform="translate(0,10)" style="font-family: sans-serif; font-size: 13px; font-weight: bold; fill: #000; opacity: 1;">Covid-19 Deaths in us</text></g></g><path class="foreground" d="" style="pointer-events: none; display: none; fill: none;"></path></g></g></g><path class="foreground" d="" style="display: none; fill: none;"></path></g></g></g></svg>