<svg class="marks" width="927" height="439" viewBox="0 0 927 439" version="1.1" xmlns="http://www.w3.org/2000/svg" xmlns:xlink="http://www.w3.org/1999/xlink"><rect width="927" height="439" style="fill: white;"></rect><g transform="translate(64,27)"><g class="mark-group role-frame root"><g transform="translate(0,0)"><path class="background" d="M0.5,0.5h750v375h-750Z" style="fill: none; stroke: #ddd;"></path><g><g class="mark-group role-axis"><g transform="translate(0.5,375.5)"><path class="background" d="M0,0h0v0h0Z" style="pointer-events: none; fill: none;"></path><g><g class="mark-rule role-axis-grid" style="pointer-events: none;"><line transform="translate(35,-375)" x2="0" y2="375" style="fill: none; stroke: #ddd; stroke-width: 1; opacity: 1;"></line><line transform="translate(97,-375)" x2="0" y2="375" style="fill: none; stroke: #ddd; stroke-width: 1; opacity: 1;"></line><line transform="translate(159,-375)" x2="0" y2="375" style="fill: none; stroke: #ddd; stroke-width: 1; opacity: 1;"></line><line transform="translate(221,-375)" x2="0" y2="375" style="fill: none; stroke: #ddd; stroke-width: 1; opacity: 1;"></line><line transform="translate(282,-375)" x2="0" y2="375" style="fill: none; stroke: #ddd; stroke-width: 1; opacity: 1;"></line><line transform="translate(344,-375)" x2="0" y2="375" style="fill: none; stroke: #ddd; stroke-width: 1; opacity: 1;"></line><line transform="translate(406,-375)" x2="0" y2="375" style="fill: none; stroke: #ddd; stroke-width: 1; opacity: 1;"></line><line transform="translate(468,-375)" x2="0" y2="375" style="fill: none; stroke: #ddd; stroke-width: 1; opacity: 1;"></line><line transform="translate(530,-375)" x2="0" y2="375" style="fill: none; stroke: #ddd; stroke-width: 1; opacity: 1;"></line><line transform="translate(591,-375)" x2="0" y2="375" style="fill: none; stroke: #ddd; stroke-width: 1; opacity: 1;"></line><line transform="translate(653,-375)" x2="0" y2="375" style="fill: none; stroke: #ddd; stroke-width: 1; opacity: 1;"></line><line transform="translate(715,-375)" x2="0" y2="375" style="fill: none; stroke: #ddd; stroke-width: 1; opacity: 1;"></line></g></g><path class="foreground" d="" style="pointer-events: none; display: none; fill: none;"></path></g></g><g class="mark-group role-axis"><g transform="translate(0.5,0.5)"><path class="background" d="M0,0h0v0h0Z" style="pointer-events: none; fill: none;"></path><g><g class="mark-rule role-axis-grid" style="pointer-events: none;"><line transform="translate(0,375)" x2="750" y2="0" style="fill: none; stroke: #ddd; stroke-width: 1; opacity: 1;"></line><line transform="translate(0,348)" x2="750" y2="0" style="fill: none; stroke: #ddd; stroke-width: 1; opacity: 1;"></line><line transform="translate(0,321)" x2="750" y2="0" style="fill: none; stroke: #ddd; stroke-width: 1; opacity: 1;"></line><line transform="translate(0,295)" x2="750" y2="0" style="fill: none; stroke: #ddd; stroke-width: 1; opacity: 1;"></line><line transform="translate(0,268)" x2="750" y2="0" style="fill: none; stroke: #ddd; stroke-width: 1; opacity: 1;"></line><line transform="translate(0,241)" x2="750" y2="0" style="fill: none; stroke: #ddd; stroke-width: 1; opacity: 1;"></line><line transform="translate(0,214)" x2="750" y2="0" style="fill: none; stroke: #ddd; stroke-width: 1; opacity: 1;"></line><line transform="translate(0,188)" x2="750" y2="0" style="fill: none; stroke: #ddd; stroke-width: 1; opacity: 1;"></line><line transform="translate(0,161)" x2="750" y2="0" style="fill: none; stroke: #ddd; stroke-width: 1; opacity: 1;"></line><line transform="translate(0,134)" x2="750" y2="0" style="fill: none; stroke: #ddd; stroke-width: 1; opacity: 1;"></line><line transform="translate(0,107)" x2="750" y2="0" style="fill: none; stroke: #ddd; stroke-width: 1; opacity: 1;"></line><line transform="translate(0,80)" x2="750" y2="0" style="fill: none; stroke: #ddd; stroke-width: 1; opacity: 1;"></line><line transform="translate(0,54)" x2="750" y2="0" style="fill: none; stroke: #ddd; stroke-width: 1; opacity: 1;"></line><line transform="translate(0,27)" x2="750" y2="0" style="fill: none; stroke: #ddd; stroke-width: 1; opacity: 1;"></line><line transform="translate(0,0)" x2="750" y2="0" style="fill: none; stroke: #ddd; stroke-width: 1; opacity: 1;"></line></g></g><path class="foreground" d="" style="pointer-events: none; display: none; fill: none;"></path></g></g><g class="mark-group role-axis"><g transform="translate(0.5,375.5)"><path class="background" d="M0,0h0v0h0Z" style="pointer-events: none; fill: none;"></path><g><g class="mark-rule role-axis-tick" style="pointer-events: none;"><line transform="translate(35,0)" x2="0" y2="5" style="fill: none; stroke: #888; stroke-width: 1; opacity: 1;"></line><line transform="translate(97,0)" x2="0" y2="5" style="fill: none; stroke: #888; stroke-width: 1; opacity: 1;"></line><line transform="translate(159,0)" x2="0" y2="5" style="fill: none; stroke: #888; stroke-width: 1; opacity: 1;"></line><line transform="translate(221,0)" x2="0" y2="5" style="fill: none; stroke: #888; stroke-width: 1; opacity: 1;"></line><line transform="translate(282,0)" x2="0" y2="5" style="fill: none; stroke: #888; stroke-width: 1; opacity: 1;"></line><line transform="translate(344,0)" x2="0" y2="5" style="fill: none; stroke: #888; stroke-width: 1; opacity: 1;"></line><line transform="translate(406,0)" x2="0" y2="5" style="fill: none; stroke: #888; stroke-width: 1; opacity: 1;"></line><line transform="translate(468,0)" x2="0" y2="5" style="fill: none; stroke: #888; stroke-width: 1; opacity: 1;"></line><line transform="translate(530,0)" x2="0" y2="5" style="fill: none; stroke: #888; stroke-width: 1; opacity: 1;"></line><line transform="translate(591,0)" x2="0" y2="5" style="fill: none; stroke: #888; stroke-width: 1; opacity: 1;"></line><line transform="translate(653,0)" x2="0" y2="5" style="fill: none; stroke: #888; stroke-width: 1; opacity: 1;"></line><line transform="translate(715,0)" x2="0" y2="5" style="fill: none; stroke: #888; stroke-width: 1; opacity: 1;"></line></g><g class="mark-text role-axis-label" style="pointer-events: none;"><text text-anchor="middle" transform="translate(35.31142717018147,15)" style="font-family: sans-serif; font-size: 10px; fill: #000; opacity: 1;">Jan 26</text><text text-anchor="middle" transform="translate(97.106424717999,15)" style="font-family: sans-serif; font-size: 10px; fill: #000; opacity: 1;">Feb 02</text><text text-anchor="middle" transform="translate(158.9014222658166,15)" style="font-family: sans-serif; font-size: 10px; fill: #000; opacity: 1;">Feb 09</text><text text-anchor="middle" transform="translate(220.69641981363415,15)" style="font-family: sans-serif; font-size: 10px; fill: #000; opacity: 1;">Feb 16</text><text text-anchor="middle" transform="translate(282.49141736145174,15)" style="font-family: sans-serif; font-size: 10px; fill: #000; opacity: 1;">Feb 23</text><text text-anchor="middle" transform="translate(344.28641490926924,15)" style="font-family: sans-serif; font-size: 10px; fill: #000; opacity: 1;">March</text><text text-anchor="middle" transform="translate(406.0814124570868,15)" style="font-family: sans-serif; font-size: 10px; fill: #000; opacity: 1;">Mar 08</text><text text-anchor="middle" transform="translate(467.87641000490436,15)" style="font-family: sans-serif; font-size: 10px; fill: #000; opacity: 1;">Mar 15</text><text text-anchor="middle" transform="translate(529.6714075527219,15)" style="font-family: sans-serif; font-size: 10px; fill: #000; opacity: 1;">Mar 22</text><text text-anchor="middle" transform="translate(591.4664051005395,15)" style="font-family: sans-serif; font-size: 10px; fill: #000; opacity: 1;">Mar 29</text><text text-anchor="middle" transform="translate(652.893575282001,15)" style="font-family: sans-serif; font-size: 10px; fill: #000; opacity: 1;">Apr 05</text><text text-anchor="middle" transform="translate(714.6885728298186,15)" style="font-family: sans-serif; font-size: 10px; fill: #000; opacity: 1;">Apr 12</text></g><g class="mark-rule role-axis-domain" style="pointer-events: none;"><line transform="translate(0,0)" x2="750" y2="0" style="fill: none; stroke: #888; stroke-width: 1; opacity: 1;"></line></g><g class="mark-text role-axis-title" style="pointer-events: none;"><text text-anchor="middle" transform="translate(375,30)" style="font-family: sans-serif; font-size: 11px; font-weight: bold; fill: #000; opacity: 1;">day</text></g></g><path class="foreground" d="" style="pointer-events: none; display: none; fill: none;"></path></g></g><g class="mark-group role-axis"><g transform="translate(0.5,0.5)"><path class="background" d="M0,0h0v0h0Z" style="pointer-events: none; fill: none;"></path><g><g class="mark-rule role-axis-tick" style="pointer-events: none;"><line transform="translate(0,375)" x2="-5" y2="0" style="fill: none; stroke: #888; stroke-width: 1; opacity: 1;"></line><line transform="translate(0,348)" x2="-5" y2="0" style="fill: none; stroke: #888; stroke-width: 1; opacity: 1;"></line><line transform="translate(0,321)" x2="-5" y2="0" style="fill: none; stroke: #888; stroke-width: 1; opacity: 1;"></line><line transform="translate(0,295)" x2="-5" y2="0" style="fill: none; stroke: #888; stroke-width: 1; opacity: 1;"></line><line transform="translate(0,268)" x2="-5" y2="0" style="fill: none; stroke: #888; stroke-width: 1; opacity: 1;"></line><line transform="translate(0,241)" x2="-5" y2="0" style="fill: none; stroke: #888; stroke-width: 1; opacity: 1;"></line><line transform="translate(0,214)" x2="-5" y2="0" style="fill: none; stroke: #888; stroke-width: 1; opacity: 1;"></line><line transform="translate(0,188)" x2="-5" y2="0" style="fill: none; stroke: #888; stroke-width: 1; opacity: 1;"></line><line transform="translate(0,161)" x2="-5" y2="0" style="fill: none; stroke: #888; stroke-width: 1; opacity: 1;"></line><line transform="translate(0,134)" x2="-5" y2="0" style="fill: none; stroke: #888; stroke-width: 1; opacity: 1;"></line><line transform="translate(0,107)" x2="-5" y2="0" style="fill: none; stroke: #888; stroke-width: 1; opacity: 1;"></line><line transform="translate(0,80)" x2="-5" y2="0" style="fill: none; stroke: #888; stroke-width: 1; opacity: 1;"></line><line transform="translate(0,54)" x2="-5" y2="0" style="fill: none; stroke: #888; stroke-width: 1; opacity: 1;"></line><line transform="translate(0,27)" x2="-5" y2="0" style="fill: none; stroke: #888; stroke-width: 1; opacity: 1;"></line><line transform="translate(0,0)" x2="-5" y2="0" style="fill: none; stroke: #888; stroke-width: 1; opacity: 1;"></line></g><g class="mark-text role-axis-label" style="pointer-events: none;"><text text-anchor="end" transform="translate(-7,378)" style="font-family: sans-serif; font-size: 10px; fill: #000; opacity: 1;">0</text><text text-anchor="end" transform="translate(-7,351.2142857142857)" style="font-family: sans-serif; font-size: 10px; fill: #000; opacity: 1;">50,000</text><text text-anchor="end" transform="translate(-7,324.42857142857144)" style="font-family: sans-serif; font-size: 10px; fill: #000; opacity: 1;">100,000</text><text text-anchor="end" transform="translate(-7,297.6428571428571)" style="font-family: sans-serif; font-size: 10px; fill: #000; opacity: 1;">150,000</text><text text-anchor="end" transform="translate(-7,270.8571428571429)" style="font-family: sans-serif; font-size: 10px; fill: #000; opacity: 1;">200,000</text><text text-anchor="end" transform="translate(-7,244.07142857142856)" style="font-family: sans-serif; font-size: 10px; fill: #000; opacity: 1;">250,000</text><text text-anchor="end" transform="translate(-7,217.28571428571428)" style="font-family: sans-serif; font-size: 10px; fill: #000; opacity: 1;">300,000</text><text text-anchor="end" transform="translate(-7,190.5)" style="font-family: sans-serif; font-size: 10px; fill: #000; opacity: 1;">350,000</text><text text-anchor="end" transform="translate(-7,163.71428571428572)" style="font-family: sans-serif; font-size: 10px; fill: #000; opacity: 1;">400,000</text><text text-anchor="end" transform="translate(-7,136.92857142857142)" style="font-family: sans-serif; font-size: 10px; fill: #000; opacity: 1;">450,000</text><text text-anchor="end" transform="translate(-7,110.14285714285714)" style="font-family: sans-serif; font-size: 10px; fill: #000; opacity: 1;">500,000</text><text text-anchor="end" transform="translate(-7,83.35714285714286)" style="font-family: sans-serif; font-size: 10px; fill: #000; opacity: 1;">550,000</text><text text-anchor="end" transform="translate(-7,56.57142857142859)" style="font-family: sans-serif; font-size: 10px; fill: #000; opacity: 1;">600,000</text><text text-anchor="end" transform="translate(-7,29.785714285714274)" style="font-family: sans-serif; font-size: 10px; fill: #000; opacity: 1;">650,000</text><text text-anchor="end" transform="translate(-7,3)" style="font-family: sans-serif; font-size: 10px; fill: #000; opacity: 1;">700,000</text></g><g class="mark-rule role-axis-domain" style="pointer-events: none;"><line transform="translate(0,375)" x2="0" y2="-375" style="fill: none; stroke: #888; stroke-width: 1; opacity: 1;"></line></g><g class="mark-text role-axis-title" style="pointer-events: none;"><text text-anchor="middle" transform="translate(-47.1474609375,187.5) rotate(-90) translate(0,-2)" style="font-family: sans-serif; font-size: 11px; font-weight: bold; fill: #000; opacity: 1;">Confirmed</text></g></g><path class="foreground" d="" style="pointer-events: none; display: none; fill: none;"></path></g></g><g class="mark-group role-scope pathgroup"><g transform="translate(0,0)"><path class="background" d="M0,0h750v375h-750Z" style="fill: none;"></path><g><g class="mark-line role-mark marks"><path d="M0,374.70642857142855L8.827856792545367,374.6555357142857L17.655713585090734,374.50714285714287L26.483570377636095,374.2467857142857L35.31142717018147,373.88839285714283L44.13928396272683,373.45875L52.96714075527219,372.04875L61.79499754781755,371.73910714285716L70.62285434036293,370.63875L79.4507111329083,369.74892857142856L88.27856792545366,368.6298214285714L97.106424717999,366.09107142857147L105.93428151054438,364.4378571428572L114.76213830308974,362.2998214285714L123.5899950956351,360.3L132.41785188818048,358.61410714285716L141.24570868072587,356.7267857142857L150.07356547327123,355.2782142857143L158.9014222658166,353.6630357142857L167.72927905836195,352.31035714285713L176.55713585090731,351.2217857142857L185.38499264345268,351.02196428571426L194.212849435998,342.91339285714287L203.0407062285434,339.4510714285714L211.86856302108876,338.35017857142856L220.69641981363415,337.22517857142856L229.52427660617948,336.19607142857143L238.35213339872487,335.2441071428571L247.1799901912702,335.0255357142857L256.00784698381557,334.78017857142856L264.83570377636096,334.5267857142857L273.66356056890635,333.7494642857143L282.49141736145174,333.73821428571426L291.31927415399707,333.62089285714285L300.14713094654246,333.3460714285714L308.9749877390878,333.1253571428571L317.8028445316332,332.8928571428571L326.6307013241785,332.71714285714285L335.4585581167239,332.48785714285714L344.28641490926924,332.1792857142857L353.11427170181463,332.07L361.94212849435996,332.0030357142857L370.76998528690535,331.93607142857144L379.59784207945074,331.85517857142855L388.425698871996,331.7732142857143L397.2535556645414,331.73035714285714L406.0814124570868,331.70196428571427L414.9092692496322,331.6821428571429L423.7371260421775,331.66767857142855L432.5649828347229,331.64946428571426L441.3928396272683,331.6435714285714L450.22069641981363,331.63660714285714L459.04855321235897,331.6194642857143L467.87641000490436,331.6055357142857L476.70426679744975,331.5894642857143L485.53212358999514,331.5760714285714L494.3599803825404,331.5525L503.1878371750858,331.5235714285714L512.0156939676311,331.4732142857143L520.8435507601765,331.44375L529.6714075527219,331.37410714285716L538.4992643452673,331.34035714285716L547.3271211378127,331.29053571428574L556.1549779303581,331.2530357142857L564.9828347229035,331.18821428571425L573.8106915154488,331.12660714285715L582.6385483079941,331.0719642857143L591.4664051005395,331.00607142857143L599.9264345267288,330.96535714285716L608.7542913192742,330.9219642857143L617.5821481118196,330.8780357142857L626.4100049043649,330.84000000000003L635.2378616969103,330.7976785714286L644.0657184894557,330.7805357142857L652.893575282001,330.74892857142856L661.7214320745463,330.71517857142857L670.5492888670917,330.68678571428575L679.3771456596371,330.6380357142857L688.2050024521825,330.59839285714287L697.0328592447278,330.5673214285714L705.8607160372732,330.5282142857143L714.6885728298186,330.46392857142854L723.516429622364,330.4216071428571L732.3442864149092,330.3717857142857L741.1721432074546,330.345L750,330.3198214285714" style="fill: none; stroke: #4c78a8; stroke-width: 2;"></path></g></g><path class="foreground" d="" style="display: none; fill: none;"></path></g><g transform="translate(0,0)"><path class="background" d="M0,0h750v375h-750Z" style="fill: none;"></path><g><g class="mark-line role-mark marks"><path d="M0,375L8.827856792545367,375L17.655713585090734,375L26.483570377636095,375L35.31142717018147,375L44.13928396272683,375L52.96714075527219,375L61.79499754781755,375L70.62285434036293,375L79.4507111329083,374.99892857142856L88.27856792545366,374.99892857142856L97.106424717999,374.99892857142856L105.93428151054438,374.99892857142856L114.76213830308974,374.99892857142856L123.5899950956351,374.99892857142856L132.41785188818048,374.99892857142856L141.24570868072587,374.99839285714285L150.07356547327123,374.99839285714285L158.9014222658166,374.99839285714285L167.72927905836195,374.99839285714285L176.55713585090731,374.99839285714285L185.38499264345268,374.99839285714285L194.212849435998,374.99839285714285L203.0407062285434,374.99839285714285L211.86856302108876,374.99839285714285L220.69641981363415,374.99839285714285L229.52427660617948,374.99839285714285L238.35213339872487,374.99839285714285L247.1799901912702,374.99839285714285L256.00784698381557,374.99839285714285L264.83570377636096,374.98928571428576L273.66356056890635,374.9667857142857L282.49141736145174,374.9169642857143L291.31927415399707,374.8773214285714L300.14713094654246,374.8275L308.9749877390878,374.75732142857146L317.8028445316332,374.64910714285713L326.6307013241785,374.5242857142857L335.4585581167239,374.3957142857143L344.28641490926924,374.09250000000003L353.11427170181463,373.9092857142857L361.94212849435996,373.65964285714284L370.76998528690535,373.34517857142856L379.59784207945074,372.93321428571426L388.425698871996,372.51642857142855L397.2535556645414,371.84839285714287L406.0814124570868,371.0491071428571L414.9092692496322,370.08642857142854L423.7371260421775,369.5630357142857L432.5649828347229,368.32392857142855L441.3928396272683,368.32392857142855L450.22069641981363,365.5392857142857L459.04855321235897,363.66589285714286L467.87641000490436,361.74267857142854L476.70426679744975,360.0107142857143L485.53212358999514,358.12178571428575L494.3599803825404,355.8680357142857L503.1878371750858,353.01696428571427L512.0156939676311,349.8101785714286L520.8435507601765,346.29749999999996L529.6714075527219,343.3189285714286L538.4992643452673,340.75339285714284L547.3271211378127,337.94142857142856L556.1549779303581,335.15035714285716L564.9828347229035,331.8273214285714L573.8106915154488,328.6617857142857L582.6385483079941,325.4614285714286L591.4664051005395,322.6666071428572L599.9264345267288,320.4969642857143L608.7542913192742,318.3257142857143L617.5821481118196,315.76392857142855L626.4100049043649,313.2632142857143L635.2378616969103,310.8069642857143L644.0657184894557,308.23285714285714L652.893575282001,305.92071428571427L661.7214320745463,303.9926785714286L670.5492888670917,302.3646428571429L679.3771456596371,300.3096428571428L688.2050024521825,298.0575L697.0328592447278,295.94089285714284L705.8607160372732,293.42625L714.6885728298186,291.23410714285717L723.516429622364,289.545L732.3442864149092,287.95285714285717L741.1721432074546,286.52410714285713L750,284.49589285714285" style="fill: none; stroke: #9ecae9; stroke-width: 2;"></path></g></g><path class="foreground" d="" style="display: none; fill: none;"></path></g><g transform="translate(0,0)"><path class="background" d="M0,0h750v375h-750Z" style="fill: none;"></path><g><g class="mark-line role-mark marks"><path d="M0,375L8.827856792545367,375L17.655713585090734,375L26.483570377636095,375L35.31142717018147,375L44.13928396272683,375L52.96714075527219,375L61.79499754781755,375L70.62285434036293,375L79.4507111329083,375L88.27856792545366,374.9994642857143L97.106424717999,374.9994642857143L105.93428151054438,374.9994642857143L114.76213830308974,374.9994642857143L123.5899950956351,374.9994642857143L132.41785188818048,374.9994642857143L141.24570868072587,374.9994642857143L150.07356547327123,374.9994642857143L158.9014222658166,374.99892857142856L167.72927905836195,374.99892857142856L176.55713585090731,374.99892857142856L185.38499264345268,374.99892857142856L194.212849435998,374.99892857142856L203.0407062285434,374.99892857142856L211.86856302108876,374.99892857142856L220.69641981363415,374.99892857142856L229.52427660617948,374.99892857142856L238.35213339872487,374.99892857142856L247.1799901912702,374.99892857142856L256.00784698381557,374.99892857142856L264.83570377636096,374.99892857142856L273.66356056890635,374.99892857142856L282.49141736145174,374.99892857142856L291.31927415399707,374.99892857142856L300.14713094654246,374.9967857142857L308.9749877390878,374.9930357142857L317.8028445316332,374.9919642857143L326.6307013241785,374.98285714285714L335.4585581167239,374.97589285714287L344.28641490926924,374.955L353.11427170181463,374.93571428571425L361.94212849435996,374.9116071428571L370.76998528690535,374.88107142857143L379.59784207945074,374.86125L388.425698871996,374.7857142857143L397.2535556645414,374.7321428571429L406.0814124570868,374.63946428571427L414.9092692496322,374.4251785714286L423.7371260421775,374.0919642857143L432.5649828347229,373.78017857142856L441.3928396272683,373.78017857142856L450.22069641981363,372.19714285714286L459.04855321235897,371.57625L467.87641000490436,370.8225L476.70426679744975,369.6739285714286L485.53212358999514,368.7064285714286L494.3599803825404,367.5482142857143L503.1878371750858,365.3769642857143L512.0156939676311,364.06607142857143L520.8435507601765,361.4067857142857L529.6714075527219,359.5885714285714L538.4992643452673,356.1771428571428L547.3271211378127,353.6330357142857L556.1549779303581,348.4741071428571L564.9828347229035,344.04321428571427L573.8106915154488,339.79339285714286L582.6385483079941,335.7669642857143L591.4664051005395,332.08392857142854L599.9264345267288,327.8807142857143L608.7542913192742,323.61267857142855L617.5821481118196,319.2225L626.4100049043649,314.96517857142857L635.2378616969103,311.1433928571429L644.0657184894557,307.41L652.893575282001,304.47535714285715L661.7214320745463,301.78125L670.5492888670917,298.95964285714285L679.3771456596371,295.5964285714286L688.2050024521825,292.9167857142857L697.0328592447278,290.2108928571429L705.8607160372732,287.6641071428571L714.6885728298186,285.62625L723.516429622364,283.8755357142857L732.3442864149092,282.5673214285714L741.1721432074546,279.8335714285714L750,275.9207142857143" style="fill: none; stroke: #f58518; stroke-width: 2;"></path></g></g><path class="foreground" d="" style="display: none; fill: none;"></path></g><g transform="translate(0,0)"><path class="background" d="M0,0h750v375h-750Z" style="fill: none;"></path><g><g class="mark-line role-mark marks"><path d="M0,374.9994642857143L8.827856792545367,374.9994642857143L17.655713585090734,374.99892857142856L26.483570377636095,374.99892857142856L35.31142717018147,374.9973214285714L44.13928396272683,374.9973214285714L52.96714075527219,374.9973214285714L61.79499754781755,374.9973214285714L70.62285434036293,374.9973214285714L79.4507111329083,374.99625000000003L88.27856792545366,374.9957142857143L97.106424717999,374.9957142857143L105.93428151054438,374.9941071428571L114.76213830308974,374.9941071428571L123.5899950956351,374.9941071428571L132.41785188818048,374.9941071428571L141.24570868072587,374.9941071428571L150.07356547327123,374.9941071428571L158.9014222658166,374.9941071428571L167.72927905836195,374.9941071428571L176.55713585090731,374.99357142857144L185.38499264345268,374.99357142857144L194.212849435998,374.9930357142857L203.0407062285434,374.9930357142857L211.86856302108876,374.9930357142857L220.69641981363415,374.9930357142857L229.52427660617948,374.9930357142857L238.35213339872487,374.9930357142857L247.1799901912702,374.9930357142857L256.00784698381557,374.9930357142857L264.83570377636096,374.9919642857143L273.66356056890635,374.9919642857143L282.49141736145174,374.9919642857143L291.31927415399707,374.9726785714286L300.14713094654246,374.9726785714286L308.9749877390878,374.9694642857143L317.8028445316332,374.9689285714286L326.6307013241785,374.96785714285716L335.4585581167239,374.9635714285714L344.28641490926924,374.96035714285716L353.11427170181463,374.9475L361.94212849435996,374.93678571428575L370.76998528690535,374.92017857142855L379.59784207945074,374.88374999999996L388.425698871996,374.8596428571429L397.2535556645414,374.78464285714284L406.0814124570868,374.7225L414.9092692496322,374.68767857142853L423.7371260421775,374.48625L432.5649828347229,374.31375L441.3928396272683,374.10910714285717L450.22069641981363,373.8326785714286L459.04855321235897,373.5391071428571L467.87641000490436,373.1255357142857L476.70426679744975,372.5185714285714L485.53212358999514,371.5601785714286L494.3599803825404,370.8305357142857L503.1878371750858,367.6355357142857L512.0156939676311,364.67517857142855L520.8435507601765,361.2857142857143L529.6714075527219,357.17357142857145L538.4992643452673,351.5126785714286L547.3271211378127,346.2128571428571L556.1549779303581,339.76178571428574L564.9828347229035,330.08785714285716L573.8106915154488,320.54089285714286L582.6385483079941,309.9294642857143L591.4664051005395,299.5130357142857L599.9264345267288,288.3048214285715L608.7542913192742,274.19357142857143L617.5821481118196,260.69357142857143L626.4100049043649,244.4132142857143L635.2378616969103,227.36464285714283L644.0657184894557,209.5430357142857L652.893575282001,194.42571428571432L661.7214320745463,178.57125L670.5492888670917,162.73767857142857L679.3771456596371,145.1507142857143L688.2050024521825,127.80160714285712L697.0328592447278,108.99910714285714L705.8607160372732,93.00214285714286L714.6885728298186,77.51089285714286L723.516429622364,63.95410714285714L732.3442864149092,49.462500000000006L741.1721432074546,34.0982142857143L750,17.249464285714293" style="fill: none; stroke: #ffbf79; stroke-width: 2;"></path></g></g><path class="foreground" d="" style="display: none; fill: none;"></path></g><g transform="translate(0,0)"><path class="background" d="M0,0h750v375h-750Z" style="fill: none;"></path><g><g class="mark-line role-mark marks"><path d="M0,375L8.827856792545367,375L17.655713585090734,375L26.483570377636095,375L35.31142717018147,375L44.13928396272683,375L52.96714075527219,375L61.79499754781755,375L70.62285434036293,375L79.4507111329083,374.99892857142856L88.27856792545366,374.99892857142856L97.106424717999,374.99892857142856L105.93428151054438,374.99892857142856L114.76213830308974,374.99892857142856L123.5899950956351,374.99892857142856L132.41785188818048,374.99892857142856L141.24570868072587,374.99839285714285L150.07356547327123,374.99839285714285L158.9014222658166,374.99839285714285L167.72927905836195,374.9957142857143L176.55713585090731,374.9957142857143L185.38499264345268,374.9951785714286L194.212849435998,374.9951785714286L203.0407062285434,374.9951785714286L211.86856302108876,374.9951785714286L220.69641981363415,374.9951785714286L229.52427660617948,374.9951785714286L238.35213339872487,374.9951785714286L247.1799901912702,374.9951785714286L256.00784698381557,374.9951785714286L264.83570377636096,374.9951785714286L273.66356056890635,374.9951785714286L282.49141736145174,374.9951785714286L291.31927415399707,374.9930357142857L300.14713094654246,374.9930357142857L308.9749877390878,374.9930357142857L317.8028445316332,374.9919642857143L326.6307013241785,374.98928571428576L335.4585581167239,374.98767857142855L344.28641490926924,374.98071428571427L353.11427170181463,374.9785714285714L361.94212849435996,374.9726785714286L370.76998528690535,374.9539285714286L379.59784207945074,374.9378571428571L388.425698871996,374.91214285714284L397.2535556645414,374.88910714285714L406.0814124570868,374.8532142857143L414.9092692496322,374.8275L423.7371260421775,374.7942857142857L432.5649828347229,374.75410714285715L441.3928396272683,374.75410714285715L450.22069641981363,374.5703571428571L459.04855321235897,374.38714285714286L467.87641000490436,374.38660714285714L476.70426679744975,374.1691071428571L485.53212358999514,373.95L494.3599803825404,373.58464285714285L503.1878371750858,373.545L512.0156939676311,372.84964285714284L520.8435507601765,372.28553571428574L529.6714075527219,371.9223214285714L538.4992643452673,371.3967857142857L547.3271211378127,370.62642857142856L556.1549779303581,369.8357142857143L564.9828347229035,368.67214285714283L573.8106915154488,367.10089285714287L582.6385483079941,365.7257142857143L591.4664051005395,364.4035714285714L599.9264345267288,362.9716071428571L608.7542913192742,361.3494642857143L617.5821481118196,359.00089285714284L626.4100049043649,356.6930357142857L635.2378616969103,354.27375L644.0657184894557,352.2444642857143L652.893575282001,349.0521428571428L661.7214320745463,346.99339285714285L670.5492888670917,345.02732142857144L679.3771456596371,342.0675L688.2050024521825,339.71142857142854L697.0328592447278,335.03303571428575L705.8607160372732,332.21035714285716L714.6885728298186,329.3539285714286L723.516429622364,327.0160714285714L732.3442864149092,324.1901785714286L741.1721432074546,321.7055357142857L750,319.2080357142857" style="fill: none; stroke: #54a24b; stroke-width: 2;"></path></g></g><path class="foreground" d="" style="display: none; fill: none;"></path></g></g><g class="mark-group role-legend"><g transform="translate(770,0)"><path class="background" d="M0,0h88v79h-88Z" style="pointer-events: none; fill: none;"></path><g><g class="mark-group role-legend-entry"><g transform="translate(0,16)"><path class="background" d="M0,0h0v0h0Z" style="pointer-events: none; fill: none;"></path><g><g class="mark-group role-scope"><g transform="translate(0,0)"><path class="background" d="M0,0h87.15234375v11h-87.15234375Z" style="pointer-events: none; fill: none; opacity: 1;"></path><g><g class="mark-symbol role-legend-symbol" style="pointer-events: none;"><path transform="translate(6,6)" d="M-5,0L5,0" style="fill: none; stroke: #4c78a8; stroke-width: 1.5; opacity: 1;"></path></g><g class="mark-text role-legend-label" style="pointer-events: none;"><text text-anchor="start" transform="translate(16,9)" style="font-family: sans-serif; font-size: 10px; fill: #000; opacity: 1;">China</text></g></g><path class="foreground" d="" style="pointer-events: none; display: none; fill: none;"></path></g><g transform="translate(0,13)"><path class="background" d="M0,0h87.15234375v11h-87.15234375Z" style="pointer-events: none; fill: none; opacity: 1;"></path><g><g class="mark-symbol role-legend-symbol" style="pointer-events: none;"><path transform="translate(6,6)" d="M-5,0L5,0" style="fill: none; stroke: #9ecae9; stroke-width: 1.5; opacity: 1;"></path></g><g class="mark-text role-legend-label" style="pointer-events: none;"><text text-anchor="start" transform="translate(16,9)" style="font-family: sans-serif; font-size: 10px; fill: #000; opacity: 1;">Italy</text></g></g><path class="foreground" d="" style="pointer-events: none; display: none; fill: none;"></path></g><g transform="translate(0,26)"><path class="background" d="M0,0h87.15234375v11h-87.15234375Z" style="pointer-events: none; fill: none; opacity: 1;"></path><g><g class="mark-symbol role-legend-symbol" style="pointer-events: none;"><path transform="translate(6,6)" d="M-5,0L5,0" style="fill: none; stroke: #f58518; stroke-width: 1.5; opacity: 1;"></path></g><g class="mark-text role-legend-label" style="pointer-events: none;"><text text-anchor="start" transform="translate(16,9)" style="font-family: sans-serif; font-size: 10px; fill: #000; opacity: 1;">Spain</text></g></g><path class="foreground" d="" style="pointer-events: none; display: none; fill: none;"></path></g><g transform="translate(0,39)"><path class="background" d="M0,0h87.15234375v11h-87.15234375Z" style="pointer-events: none; fill: none; opacity: 1;"></path><g><g class="mark-symbol role-legend-symbol" style="pointer-events: none;"><path transform="translate(6,6)" d="M-5,0L5,0" style="fill: none; stroke: #ffbf79; stroke-width: 1.5; opacity: 1;"></path></g><g class="mark-text role-legend-label" style="pointer-events: none;"><text text-anchor="start" transform="translate(16,9)" style="font-family: sans-serif; font-size: 10px; fill: #000; opacity: 1;">US</text></g></g><path class="foreground" d="" style="pointer-events: none; display: none; fill: none;"></path></g><g transform="translate(0,52)"><path class="background" d="M0,0h87.15234375v11h-87.15234375Z" style="pointer-events: none; fill: none; opacity: 1;"></path><g><g class="mark-symbol role-legend-symbol" style="pointer-events: none;"><path transform="translate(6,6)" d="M-5,0L5,0" style="fill: none; stroke: #54a24b; stroke-width: 1.5; opacity: 1;"></path></g><g class="mark-text role-legend-label" style="pointer-events: none;"><text text-anchor="start" transform="translate(16,9)" style="font-family: sans-serif; font-size: 10px; fill: #000; opacity: 1;">United Kingdom</text></g></g><path class="foreground" d="" style="pointer-events: none; display: none; fill: none;"></path></g></g></g><path class="foreground" d="" style="pointer-events: none; display: none; fill: none;"></path></g></g><g class="mark-text role-legend-title" style="pointer-events: none;"><text text-anchor="start" transform="translate(0,9)" style="font-family: sans-serif; font-size: 11px; font-weight: bold; fill: #000; opacity: 1;">country</text></g></g><path class="foreground" d="" style="pointer-events: none; display: none; fill: none;"></path></g></g><g class="mark-group role-title"><g transform="translate(375,-22)"><path class="background" d="M0,0h0v0h0Z" style="pointer-events: none; fill: none;"></path><g><g class="mark-text role-title-text" style="pointer-events: none;"><text text-anchor="middle" transform="translate(0,10)" style="font-family: sans-serif; font-size: 13px; font-weight: bold; fill: #000; opacity: 1;">Confirmed by day in ['China', 'Italy', 'Spain', 'US', 'United Kingdom'] as of 04-16-2020</text></g></g><path class="foreground" d="" style="pointer-events: none; display: none; fill: none;"></path></g></g></g><path class="foreground" d="" style="display: none; fill: none;"></path></g></g></g></svg>