<svg class="marks" width="935" height="439" viewBox="0 0 935 439" version="1.1" xmlns="http://www.w3.org/2000/svg" xmlns:xlink="http://www.w3.org/1999/xlink"><rect width="935" height="439" style="fill: white;"></rect><g transform="translate(72,27)"><g class="mark-group role-frame root"><g transform="translate(0,0)"><path class="background" d="M0.5,0.5h750v375h-750Z" style="fill: none; stroke: #ddd;"></path><g><g class="mark-group role-axis"><g transform="translate(0.5,375.5)"><path class="background" d="M0,0h0v0h0Z" style="pointer-events: none; fill: none;"></path><g><g class="mark-rule role-axis-grid" style="pointer-events: none;"><line transform="translate(32,-375)" x2="0" y2="375" style="fill: none; stroke: #ddd; stroke-width: 1; opacity: 1;"></line><line transform="translate(88,-375)" x2="0" y2="375" style="fill: none; stroke: #ddd; stroke-width: 1; opacity: 1;"></line><line transform="translate(144,-375)" x2="0" y2="375" style="fill: none; stroke: #ddd; stroke-width: 1; opacity: 1;"></line><line transform="translate(200,-375)" x2="0" y2="375" style="fill: none; stroke: #ddd; stroke-width: 1; opacity: 1;"></line><line transform="translate(255,-375)" x2="0" y2="375" style="fill: none; stroke: #ddd; stroke-width: 1; opacity: 1;"></line><line transform="translate(311,-375)" x2="0" y2="375" style="fill: none; stroke: #ddd; stroke-width: 1; opacity: 1;"></line><line transform="translate(367,-375)" x2="0" y2="375" style="fill: none; stroke: #ddd; stroke-width: 1; opacity: 1;"></line><line transform="translate(423,-375)" x2="0" y2="375" style="fill: none; stroke: #ddd; stroke-width: 1; opacity: 1;"></line><line transform="translate(479,-375)" x2="0" y2="375" style="fill: none; stroke: #ddd; stroke-width: 1; opacity: 1;"></line><line transform="translate(535,-375)" x2="0" y2="375" style="fill: none; stroke: #ddd; stroke-width: 1; opacity: 1;"></line><line transform="translate(590,-375)" x2="0" y2="375" style="fill: none; stroke: #ddd; stroke-width: 1; opacity: 1;"></line><line transform="translate(646,-375)" x2="0" y2="375" style="fill: none; stroke: #ddd; stroke-width: 1; opacity: 1;"></line><line transform="translate(702,-375)" x2="0" y2="375" style="fill: none; stroke: #ddd; stroke-width: 1; opacity: 1;"></line></g></g><path class="foreground" d="" style="pointer-events: none; display: none; fill: none;"></path></g></g><g class="mark-group role-axis"><g transform="translate(0.5,0.5)"><path class="background" d="M0,0h0v0h0Z" style="pointer-events: none; fill: none;"></path><g><g class="mark-rule role-axis-grid" style="pointer-events: none;"><line transform="translate(0,375)" x2="750" y2="0" style="fill: none; stroke: #ddd; stroke-width: 1; opacity: 1;"></line><line transform="translate(0,338)" x2="750" y2="0" style="fill: none; stroke: #ddd; stroke-width: 1; opacity: 1;"></line><line transform="translate(0,300)" x2="750" y2="0" style="fill: none; stroke: #ddd; stroke-width: 1; opacity: 1;"></line><line transform="translate(0,263)" x2="750" y2="0" style="fill: none; stroke: #ddd; stroke-width: 1; opacity: 1;"></line><line transform="translate(0,225)" x2="750" y2="0" style="fill: none; stroke: #ddd; stroke-width: 1; opacity: 1;"></line><line transform="translate(0,188)" x2="750" y2="0" style="fill: none; stroke: #ddd; stroke-width: 1; opacity: 1;"></line><line transform="translate(0,150)" x2="750" y2="0" style="fill: none; stroke: #ddd; stroke-width: 1; opacity: 1;"></line><line transform="translate(0,113)" x2="750" y2="0" style="fill: none; stroke: #ddd; stroke-width: 1; opacity: 1;"></line><line transform="translate(0,75)" x2="750" y2="0" style="fill: none; stroke: #ddd; stroke-width: 1; opacity: 1;"></line><line transform="translate(0,37)" x2="750" y2="0" style="fill: none; stroke: #ddd; stroke-width: 1; opacity: 1;"></line><line transform="translate(0,0)" x2="750" y2="0" style="fill: none; stroke: #ddd; stroke-width: 1; opacity: 1;"></line></g></g><path class="foreground" d="" style="pointer-events: none; display: none; fill: none;"></path></g></g><g class="mark-group role-axis"><g transform="translate(0.5,375.5)"><path class="background" d="M0,0h0v0h0Z" style="pointer-events: none; fill: none;"></path><g><g class="mark-rule role-axis-tick" style="pointer-events: none;"><line transform="translate(32,0)" x2="0" y2="5" style="fill: none; stroke: #888; stroke-width: 1; opacity: 1;"></line><line transform="translate(88,0)" x2="0" y2="5" style="fill: none; stroke: #888; stroke-width: 1; opacity: 1;"></line><line transform="translate(144,0)" x2="0" y2="5" style="fill: none; stroke: #888; stroke-width: 1; opacity: 1;"></line><line transform="translate(200,0)" x2="0" y2="5" style="fill: none; stroke: #888; stroke-width: 1; opacity: 1;"></line><line transform="translate(255,0)" x2="0" y2="5" style="fill: none; stroke: #888; stroke-width: 1; opacity: 1;"></line><line transform="translate(311,0)" x2="0" y2="5" style="fill: none; stroke: #888; stroke-width: 1; opacity: 1;"></line><line transform="translate(367,0)" x2="0" y2="5" style="fill: none; stroke: #888; stroke-width: 1; opacity: 1;"></line><line transform="translate(423,0)" x2="0" y2="5" style="fill: none; stroke: #888; stroke-width: 1; opacity: 1;"></line><line transform="translate(479,0)" x2="0" y2="5" style="fill: none; stroke: #888; stroke-width: 1; opacity: 1;"></line><line transform="translate(535,0)" x2="0" y2="5" style="fill: none; stroke: #888; stroke-width: 1; opacity: 1;"></line><line transform="translate(590,0)" x2="0" y2="5" style="fill: none; stroke: #888; stroke-width: 1; opacity: 1;"></line><line transform="translate(646,0)" x2="0" y2="5" style="fill: none; stroke: #888; stroke-width: 1; opacity: 1;"></line><line transform="translate(702,0)" x2="0" y2="5" style="fill: none; stroke: #888; stroke-width: 1; opacity: 1;"></line></g><g class="mark-text role-axis-label" style="pointer-events: none;"><text text-anchor="middle" transform="translate(31.929046563192905,15)" style="font-family: sans-serif; font-size: 10px; fill: #000; opacity: 1;">Jan 26</text><text text-anchor="middle" transform="translate(87.8048780487805,15)" style="font-family: sans-serif; font-size: 10px; fill: #000; opacity: 1;">Feb 02</text><text text-anchor="middle" transform="translate(143.68070953436808,15)" style="font-family: sans-serif; font-size: 10px; fill: #000; opacity: 1;">Feb 09</text><text text-anchor="middle" transform="translate(199.55654101995563,15)" style="font-family: sans-serif; font-size: 10px; fill: #000; opacity: 1;">Feb 16</text><text text-anchor="middle" transform="translate(255.43237250554324,15)" style="font-family: sans-serif; font-size: 10px; fill: #000; opacity: 1;">Feb 23</text><text text-anchor="middle" transform="translate(311.3082039911308,15)" style="font-family: sans-serif; font-size: 10px; fill: #000; opacity: 1;">March</text><text text-anchor="middle" transform="translate(367.1840354767184,15)" style="font-family: sans-serif; font-size: 10px; fill: #000; opacity: 1;">Mar 08</text><text text-anchor="middle" transform="translate(423.059866962306,15)" style="font-family: sans-serif; font-size: 10px; fill: #000; opacity: 1;">Mar 15</text><text text-anchor="middle" transform="translate(478.93569844789357,15)" style="font-family: sans-serif; font-size: 10px; fill: #000; opacity: 1;">Mar 22</text><text text-anchor="middle" transform="translate(534.8115299334812,15)" style="font-family: sans-serif; font-size: 10px; fill: #000; opacity: 1;">Mar 29</text><text text-anchor="middle" transform="translate(590.3547671840355,15)" style="font-family: sans-serif; font-size: 10px; fill: #000; opacity: 1;">Apr 05</text><text text-anchor="middle" transform="translate(646.2305986696231,15)" style="font-family: sans-serif; font-size: 10px; fill: #000; opacity: 1;">Apr 12</text><text text-anchor="middle" transform="translate(702.1064301552107,15)" style="font-family: sans-serif; font-size: 10px; fill: #000; opacity: 1;">Apr 19</text></g><g class="mark-rule role-axis-domain" style="pointer-events: none;"><line transform="translate(0,0)" x2="750" y2="0" style="fill: none; stroke: #888; stroke-width: 1; opacity: 1;"></line></g><g class="mark-text role-axis-title" style="pointer-events: none;"><text text-anchor="middle" transform="translate(375,30)" style="font-family: sans-serif; font-size: 11px; font-weight: bold; fill: #000; opacity: 1;">day</text></g></g><path class="foreground" d="" style="pointer-events: none; display: none; fill: none;"></path></g></g><g class="mark-group role-axis"><g transform="translate(0.5,0.5)"><path class="background" d="M0,0h0v0h0Z" style="pointer-events: none; fill: none;"></path><g><g class="mark-rule role-axis-tick" style="pointer-events: none;"><line transform="translate(0,375)" x2="-5" y2="0" style="fill: none; stroke: #888; stroke-width: 1; opacity: 1;"></line><line transform="translate(0,338)" x2="-5" y2="0" style="fill: none; stroke: #888; stroke-width: 1; opacity: 1;"></line><line transform="translate(0,300)" x2="-5" y2="0" style="fill: none; stroke: #888; stroke-width: 1; opacity: 1;"></line><line transform="translate(0,263)" x2="-5" y2="0" style="fill: none; stroke: #888; stroke-width: 1; opacity: 1;"></line><line transform="translate(0,225)" x2="-5" y2="0" style="fill: none; stroke: #888; stroke-width: 1; opacity: 1;"></line><line transform="translate(0,188)" x2="-5" y2="0" style="fill: none; stroke: #888; stroke-width: 1; opacity: 1;"></line><line transform="translate(0,150)" x2="-5" y2="0" style="fill: none; stroke: #888; stroke-width: 1; opacity: 1;"></line><line transform="translate(0,113)" x2="-5" y2="0" style="fill: none; stroke: #888; stroke-width: 1; opacity: 1;"></line><line transform="translate(0,75)" x2="-5" y2="0" style="fill: none; stroke: #888; stroke-width: 1; opacity: 1;"></line><line transform="translate(0,37)" x2="-5" y2="0" style="fill: none; stroke: #888; stroke-width: 1; opacity: 1;"></line><line transform="translate(0,0)" x2="-5" y2="0" style="fill: none; stroke: #888; stroke-width: 1; opacity: 1;"></line></g><g class="mark-text role-axis-label" style="pointer-events: none;"><text text-anchor="end" transform="translate(-7,378)" style="font-family: sans-serif; font-size: 10px; fill: #000; opacity: 1;">0</text><text text-anchor="end" transform="translate(-7,340.5)" style="font-family: sans-serif; font-size: 10px; fill: #000; opacity: 1;">100,000</text><text text-anchor="end" transform="translate(-7,303)" style="font-family: sans-serif; font-size: 10px; fill: #000; opacity: 1;">200,000</text><text text-anchor="end" transform="translate(-7,265.5)" style="font-family: sans-serif; font-size: 10px; fill: #000; opacity: 1;">300,000</text><text text-anchor="end" transform="translate(-7,228)" style="font-family: sans-serif; font-size: 10px; fill: #000; opacity: 1;">400,000</text><text text-anchor="end" transform="translate(-7,190.5)" style="font-family: sans-serif; font-size: 10px; fill: #000; opacity: 1;">500,000</text><text text-anchor="end" transform="translate(-7,153)" style="font-family: sans-serif; font-size: 10px; fill: #000; opacity: 1;">600,000</text><text text-anchor="end" transform="translate(-7,115.50000000000001)" style="font-family: sans-serif; font-size: 10px; fill: #000; opacity: 1;">700,000</text><text text-anchor="end" transform="translate(-7,77.99999999999999)" style="font-family: sans-serif; font-size: 10px; fill: #000; opacity: 1;">800,000</text><text text-anchor="end" transform="translate(-7,40.49999999999999)" style="font-family: sans-serif; font-size: 10px; fill: #000; opacity: 1;">900,000</text><text text-anchor="end" transform="translate(-7,3)" style="font-family: sans-serif; font-size: 10px; fill: #000; opacity: 1;">1,000,000</text></g><g class="mark-rule role-axis-domain" style="pointer-events: none;"><line transform="translate(0,375)" x2="0" y2="-375" style="fill: none; stroke: #888; stroke-width: 1; opacity: 1;"></line></g><g class="mark-text role-axis-title" style="pointer-events: none;"><text text-anchor="middle" transform="translate(-55.4873046875,187.5) rotate(-90) translate(0,-2)" style="font-family: sans-serif; font-size: 11px; font-weight: bold; fill: #000; opacity: 1;">Confirmed</text></g></g><path class="foreground" d="" style="pointer-events: none; display: none; fill: none;"></path></g></g><g class="mark-group role-scope pathgroup"><g transform="translate(0,0)"><path class="background" d="M0,0h750v375h-750Z" style="fill: none;"></path><g><g class="mark-line role-mark marks"><path d="M0,374.7945L7.982261640798226,374.75887500000005L15.964523281596453,374.655L23.946784922394677,374.47275L31.929046563192905,374.22187499999995L39.91130820399113,373.921125L47.893569844789354,372.934125L55.87583148558759,372.717375L63.85809312638581,371.947125L71.84035476718404,371.32425L79.82261640798227,370.540875L87.8048780487805,368.76374999999996L95.78713968957871,367.60650000000004L103.76940133037695,366.109875L111.75166297117518,364.71L119.73392461197339,363.529875L127.71618625277162,362.20875L135.69844789356986,361.19475L143.68070953436808,360.064125L151.6629711751663,359.11725L159.64523281596453,358.35525L167.62749445676275,358.215375L175.609756097561,352.539375L183.5920177383592,350.11575L191.57427937915742,349.345125L199.55654101995563,348.557625L207.5388026607539,347.83725L215.5210643015521,347.17087499999997L223.50332594235036,347.017875L231.48558758314857,346.846125L239.46784922394679,346.66875L247.45011086474503,346.124625L255.43237250554324,346.11674999999997L263.4146341463414,346.034625L271.3968957871397,345.84225L279.3791574279379,345.68775L287.36141906873615,345.525L295.3436807095344,345.402L303.3259423503326,345.24150000000003L311.3082039911308,345.0255L319.29046563192907,344.949L327.27272727272725,344.902125L335.2549889135255,344.85525L343.23725055432374,344.798625L351.219512195122,344.74125L359.20177383592016,344.71125L367.1840354767184,344.691375L375.16629711751665,344.6775L383.14855875831483,344.667375L391.1308203991131,344.654625L399.11308203991126,344.6505L407.09534368070956,344.645625L415.0776053215078,344.633625L423.059866962306,344.623875L431.0421286031042,344.612625L439.0243902439024,344.60325L447.0066518847007,344.58675L454.9889135254989,344.5665L462.97117516629714,344.53125L470.95343680709533,344.510625L478.93569844789357,344.46187499999996L486.91796008869176,344.43825000000004L494.90022172949006,344.40337500000004L502.88248337028824,344.377125L510.8647450110865,344.33175L518.8470066518847,344.288625L526.8292682926829,344.25037499999996L534.8115299334812,344.20425L542.4611973392462,344.17575L550.4434589800443,344.145375L558.4257206208425,344.114625L566.4079822616408,344.08799999999997L574.390243902439,344.058375L582.3725055432373,344.046375L590.3547671840355,344.02425L598.3370288248336,344.000625L606.319290465632,343.98075L614.3015521064302,343.946625L622.2838137472284,343.91887499999996L630.2660753880266,343.89712499999996L638.2483370288248,343.86975L646.2305986696231,343.82475L654.2128603104213,343.795125L662.1951219512196,343.76025L670.1773835920177,343.74150000000003L678.1596452328159,343.723875L686.1419068736142,343.59L694.1241685144124,343.57987499999996L702.1064301552107,343.573125L710.0886917960089,343.568625L718.070953436807,343.55512500000003L726.0532150776053,343.54949999999997L734.0354767184036,343.5435L742.0177383592018,343.53787500000004L750,343.534125" style="fill: none; stroke: #4c78a8; stroke-width: 2;"></path></g></g><path class="foreground" d="" style="display: none; fill: none;"></path></g><g transform="translate(0,0)"><path class="background" d="M0,0h750v375h-750Z" style="fill: none;"></path><g><g class="mark-line role-mark marks"><path d="M0,375L7.982261640798226,375L15.964523281596453,375L23.946784922394677,375L31.929046563192905,375L39.91130820399113,375L47.893569844789354,375L55.87583148558759,375L63.85809312638581,375L71.84035476718404,374.99925L79.82261640798227,374.99925L87.8048780487805,374.99925L95.78713968957871,374.99925L103.76940133037695,374.99925L111.75166297117518,374.99925L119.73392461197339,374.99925L127.71618625277162,374.998875L135.69844789356986,374.998875L143.68070953436808,374.998875L151.6629711751663,374.998875L159.64523281596453,374.998875L167.62749445676275,374.998875L175.609756097561,374.998875L183.5920177383592,374.998875L191.57427937915742,374.998875L199.55654101995563,374.998875L207.5388026607539,374.998875L215.5210643015521,374.998875L223.50332594235036,374.998875L231.48558758314857,374.998875L239.46784922394679,374.9925L247.45011086474503,374.97675L255.43237250554324,374.941875L263.4146341463414,374.914125L271.3968957871397,374.87924999999996L279.3791574279379,374.830125L287.36141906873615,374.75437500000004L295.3436807095344,374.667L303.3259423503326,374.577L311.3082039911308,374.36475L319.29046563192907,374.2365L327.27272727272725,374.06175L335.2549889135255,373.841625L343.23725055432374,373.55325L351.219512195122,373.2615L359.20177383592016,372.793875L367.1840354767184,372.234375L375.16629711751665,371.5605L383.14855875831483,371.194125L391.1308203991131,370.32675L399.11308203991126,370.32675L407.09534368070956,368.3775L415.0776053215078,367.066125L423.059866962306,365.719875L431.0421286031042,364.5075L439.0243902439024,363.18525L447.0066518847007,361.607625L454.9889135254989,359.611875L462.97117516629714,357.367125L470.95343680709533,354.90825L478.93569844789357,352.82325L486.91796008869176,351.027375L494.90022172949006,349.05899999999997L502.88248337028824,347.10525L510.8647450110865,344.77912499999996L518.8470066518847,342.56325000000004L526.8292682926829,340.323L534.8115299334812,338.366625L542.4611973392462,336.847875L550.4434589800443,335.328L558.4257206208425,333.53475000000003L566.4079822616408,331.78425000000004L574.390243902439,330.064875L582.3725055432373,328.26300000000003L590.3547671840355,326.6445L598.3370288248336,325.294875L606.319290465632,324.15525L614.3015521064302,322.71675000000005L622.2838137472284,321.14025L630.2660753880266,319.658625L638.2483370288248,317.898375L646.2305986696231,316.363875L654.2128603104213,315.1815L662.1951219512196,314.067L670.1773835920177,313.06687500000004L678.1596452328159,311.647125L686.1419068736142,310.33725L694.1241685144124,309.028125L702.1064301552107,307.8855L710.0886917960089,307.03950000000003L718.070953436807,306.016125L726.0532150776053,304.752375L734.0354767184036,303.760125L742.0177383592018,302.62725L750,301.74337499999996" style="fill: none; stroke: #9ecae9; stroke-width: 2;"></path></g></g><path class="foreground" d="" style="display: none; fill: none;"></path></g><g transform="translate(0,0)"><path class="background" d="M0,0h750v375h-750Z" style="fill: none;"></path><g><g class="mark-line role-mark marks"><path d="M0,375L7.982261640798226,375L15.964523281596453,375L23.946784922394677,375L31.929046563192905,375L39.91130820399113,375L47.893569844789354,375L55.87583148558759,375L63.85809312638581,375L71.84035476718404,375L79.82261640798227,374.999625L87.8048780487805,374.999625L95.78713968957871,374.999625L103.76940133037695,374.999625L111.75166297117518,374.999625L119.73392461197339,374.999625L127.71618625277162,374.999625L135.69844789356986,374.999625L143.68070953436808,374.99925L151.6629711751663,374.99925L159.64523281596453,374.99925L167.62749445676275,374.99925L175.609756097561,374.99925L183.5920177383592,374.99925L191.57427937915742,374.99925L199.55654101995563,374.99925L207.5388026607539,374.99925L215.5210643015521,374.99925L223.50332594235036,374.99925L231.48558758314857,374.99925L239.46784922394679,374.99925L247.45011086474503,374.99925L255.43237250554324,374.99925L263.4146341463414,374.99925L271.3968957871397,374.99775L279.3791574279379,374.995125L287.36141906873615,374.994375L295.3436807095344,374.988L303.3259423503326,374.98312500000003L311.3082039911308,374.9685L319.29046563192907,374.955L327.27272727272725,374.938125L335.2549889135255,374.91675L343.23725055432374,374.902875L351.219512195122,374.85L359.20177383592016,374.8125L367.1840354767184,374.74762499999997L375.16629711751665,374.597625L383.14855875831483,374.364375L391.1308203991131,374.146125L399.11308203991126,374.146125L407.09534368070956,373.038L415.0776053215078,372.60337499999997L423.059866962306,372.07575L431.0421286031042,371.27175L439.0243902439024,370.5945L447.0066518847007,369.78375L454.9889135254989,368.26387500000004L462.97117516629714,367.34625L470.95343680709533,365.48475L478.93569844789357,364.212L486.91796008869176,361.82399999999996L494.90022172949006,360.04312500000003L502.88248337028824,356.431875L510.8647450110865,353.33025L518.8470066518847,350.35537500000004L526.8292682926829,347.536875L534.8115299334812,344.95875L542.4611973392462,342.0165L550.4434589800443,339.028875L558.4257206208425,335.95574999999997L566.4079822616408,332.97562500000004L574.390243902439,330.300375L582.3725055432373,327.68699999999995L590.3547671840355,325.63275L598.3370288248336,323.746875L606.319290465632,321.77175L614.3015521064302,319.4175L622.2838137472284,317.54175000000004L630.2660753880266,315.647625L638.2483370288248,313.864875L646.2305986696231,312.438375L654.2128603104213,311.212875L662.1951219512196,310.297125L670.1773835920177,308.38349999999997L678.1596452328159,305.6445L686.1419068736142,303.435375L694.1241685144124,303.10274999999996L702.1064301552107,300.49725L710.0886917960089,299.92125L718.070953436807,298.43325L726.0532150776053,296.854125L734.0354767184036,295.116L742.0177383592018,292.5885L750,291.090375" style="fill: none; stroke: #f58518; stroke-width: 2;"></path></g></g><path class="foreground" d="" style="display: none; fill: none;"></path></g><g transform="translate(0,0)"><path class="background" d="M0,0h750v375h-750Z" style="fill: none;"></path><g><g class="mark-line role-mark marks"><path d="M0,374.999625L7.982261640798226,374.999625L15.964523281596453,374.99925L23.946784922394677,374.99925L31.929046563192905,374.998125L39.91130820399113,374.998125L47.893569844789354,374.998125L55.87583148558759,374.998125L63.85809312638581,374.998125L71.84035476718404,374.99737500000003L79.82261640798227,374.997L87.8048780487805,374.997L95.78713968957871,374.995875L103.76940133037695,374.995875L111.75166297117518,374.995875L119.73392461197339,374.995875L127.71618625277162,374.995875L135.69844789356986,374.995875L143.68070953436808,374.995875L151.6629711751663,374.995875L159.64523281596453,374.9955L167.62749445676275,374.9955L175.609756097561,374.995125L183.5920177383592,374.995125L191.57427937915742,374.995125L199.55654101995563,374.995125L207.5388026607539,374.995125L215.5210643015521,374.995125L223.50332594235036,374.995125L231.48558758314857,374.995125L239.46784922394679,374.994375L247.45011086474503,374.994375L255.43237250554324,374.994375L263.4146341463414,374.98087499999997L271.3968957871397,374.98087499999997L279.3791574279379,374.978625L287.36141906873615,374.97825L295.3436807095344,374.9775L303.3259423503326,374.97450000000003L311.3082039911308,374.97225L319.29046563192907,374.96324999999996L327.27272727272725,374.95575L335.2549889135255,374.94412500000004L343.23725055432374,374.91862499999996L351.219512195122,374.90175L359.20177383592016,374.84925L367.1840354767184,374.80575L375.16629711751665,374.781375L383.14855875831483,374.640375L391.1308203991131,374.519625L399.11308203991126,374.376375L407.09534368070956,374.18287499999997L415.0776053215078,373.977375L423.059866962306,373.68787499999996L431.0421286031042,373.26300000000003L439.0243902439024,372.592125L447.0066518847007,372.081375L454.9889135254989,369.844875L462.97117516629714,367.772625L470.95343680709533,365.40000000000003L478.93569844789357,362.5215L486.91796008869176,358.558875L494.90022172949006,354.849L502.88248337028824,350.33325L510.8647450110865,343.56149999999997L518.8470066518847,336.878625L526.8292682926829,329.450625L534.8115299334812,322.159125L542.4611973392462,314.31337499999995L550.4434589800443,304.4355L558.4257206208425,295.03425000000004L566.4079822616408,283.64175L574.390243902439,271.73737500000004L582.3725055432373,259.25625L590.3547671840355,248.69924999999998L598.3370288248336,237.631125L606.319290465632,226.07962499999996L614.3015521064302,214.25475L622.2838137472284,201.4575L630.2660753880266,188.79937500000003L638.2483370288248,177.60150000000002L646.2305986696231,166.75762500000002L654.2128603104213,157.267875L662.1951219512196,147.12374999999997L670.1773835920177,136.36875L678.1596452328159,124.65300000000002L686.1419068736142,112.61024999999998L694.1241685144124,100.426125L702.1064301552107,90.44662500000001L710.0886917960089,80.87775L718.070953436807,70.55062500000003L726.0532150776053,59.868375000000015L734.0354767184036,49.06125L742.0177383592018,35.49075L750,23.192249999999984" style="fill: none; stroke: #ffbf79; stroke-width: 2;"></path></g></g><path class="foreground" d="" style="display: none; fill: none;"></path></g><g transform="translate(0,0)"><path class="background" d="M0,0h750v375h-750Z" style="fill: none;"></path><g><g class="mark-line role-mark marks"><path d="M0,375L7.982261640798226,375L15.964523281596453,375L23.946784922394677,375L31.929046563192905,375L39.91130820399113,375L47.893569844789354,375L55.87583148558759,375L63.85809312638581,375L71.84035476718404,374.99925L79.82261640798227,374.99925L87.8048780487805,374.99925L95.78713968957871,374.99925L103.76940133037695,374.99925L111.75166297117518,374.99925L119.73392461197339,374.99925L127.71618625277162,374.998875L135.69844789356986,374.998875L143.68070953436808,374.998875L151.6629711751663,374.997L159.64523281596453,374.997L167.62749445676275,374.996625L175.609756097561,374.996625L183.5920177383592,374.996625L191.57427937915742,374.996625L199.55654101995563,374.996625L207.5388026607539,374.996625L215.5210643015521,374.996625L223.50332594235036,374.996625L231.48558758314857,374.996625L239.46784922394679,374.996625L247.45011086474503,374.996625L255.43237250554324,374.996625L263.4146341463414,374.995125L271.3968957871397,374.995125L279.3791574279379,374.995125L287.36141906873615,374.994375L295.3436807095344,374.9925L303.3259423503326,374.991375L311.3082039911308,374.9865L319.29046563192907,374.98499999999996L327.27272727272725,374.98087499999997L335.2549889135255,374.96774999999997L343.23725055432374,374.9565L351.219512195122,374.9385L359.20177383592016,374.922375L367.1840354767184,374.89725L375.16629711751665,374.87924999999996L383.14855875831483,374.856L391.1308203991131,374.827875L399.11308203991126,374.827875L407.09534368070956,374.69925L415.0776053215078,374.57099999999997L423.059866962306,374.570625L431.0421286031042,374.418375L439.0243902439024,374.265L447.0066518847007,374.00925L454.9889135254989,373.9815L462.97117516629714,373.49475L470.95343680709533,373.099875L478.93569844789357,372.845625L486.91796008869176,372.47775L494.90022172949006,371.93850000000003L502.88248337028824,371.385L510.8647450110865,370.5705L518.8470066518847,369.470625L526.8292682926829,368.508L534.8115299334812,367.5825L542.4611973392462,366.58012499999995L550.4434589800443,365.44462500000003L558.4257206208425,363.80062499999997L566.4079822616408,362.18512499999997L574.390243902439,360.491625L582.3725055432373,359.071125L590.3547671840355,356.8365L598.3370288248336,355.395375L606.319290465632,354.019125L614.3015521064302,351.94725L622.2838137472284,350.298L630.2660753880266,347.023125L638.2483370288248,345.04725L646.2305986696231,343.04775L654.2128603104213,341.41125L662.1951219512196,339.433125L670.1773835920177,337.693875L678.1596452328159,335.945625L686.1419068736142,333.836625L694.1241685144124,331.75725L702.1064301552107,329.5605L710.0886917960089,327.80400000000003L718.070953436807,326.1855L726.0532150776053,324.51075L734.0354767184036,322.78275L742.0177383592018,320.76L750,318.91162499999996" style="fill: none; stroke: #54a24b; stroke-width: 2;"></path></g></g><path class="foreground" d="" style="display: none; fill: none;"></path></g></g><g class="mark-group role-legend"><g transform="translate(770,0)"><path class="background" d="M0,0h88v79h-88Z" style="pointer-events: none; fill: none;"></path><g><g class="mark-group role-legend-entry"><g transform="translate(0,16)"><path class="background" d="M0,0h0v0h0Z" style="pointer-events: none; fill: none;"></path><g><g class="mark-group role-scope"><g transform="translate(0,0)"><path class="background" d="M0,0h87.15234375v11h-87.15234375Z" style="pointer-events: none; fill: none; opacity: 1;"></path><g><g class="mark-symbol role-legend-symbol" style="pointer-events: none;"><path transform="translate(6,6)" d="M-5,0L5,0" style="fill: none; stroke: #4c78a8; stroke-width: 1.5; opacity: 1;"></path></g><g class="mark-text role-legend-label" style="pointer-events: none;"><text text-anchor="start" transform="translate(16,9)" style="font-family: sans-serif; font-size: 10px; fill: #000; opacity: 1;">China</text></g></g><path class="foreground" d="" style="pointer-events: none; display: none; fill: none;"></path></g><g transform="translate(0,13)"><path class="background" d="M0,0h87.15234375v11h-87.15234375Z" style="pointer-events: none; fill: none; opacity: 1;"></path><g><g class="mark-symbol role-legend-symbol" style="pointer-events: none;"><path transform="translate(6,6)" d="M-5,0L5,0" style="fill: none; stroke: #9ecae9; stroke-width: 1.5; opacity: 1;"></path></g><g class="mark-text role-legend-label" style="pointer-events: none;"><text text-anchor="start" transform="translate(16,9)" style="font-family: sans-serif; font-size: 10px; fill: #000; opacity: 1;">Italy</text></g></g><path class="foreground" d="" style="pointer-events: none; display: none; fill: none;"></path></g><g transform="translate(0,26)"><path class="background" d="M0,0h87.15234375v11h-87.15234375Z" style="pointer-events: none; fill: none; opacity: 1;"></path><g><g class="mark-symbol role-legend-symbol" style="pointer-events: none;"><path transform="translate(6,6)" d="M-5,0L5,0" style="fill: none; stroke: #f58518; stroke-width: 1.5; opacity: 1;"></path></g><g class="mark-text role-legend-label" style="pointer-events: none;"><text text-anchor="start" transform="translate(16,9)" style="font-family: sans-serif; font-size: 10px; fill: #000; opacity: 1;">Spain</text></g></g><path class="foreground" d="" style="pointer-events: none; display: none; fill: none;"></path></g><g transform="translate(0,39)"><path class="background" d="M0,0h87.15234375v11h-87.15234375Z" style="pointer-events: none; fill: none; opacity: 1;"></path><g><g class="mark-symbol role-legend-symbol" style="pointer-events: none;"><path transform="translate(6,6)" d="M-5,0L5,0" style="fill: none; stroke: #ffbf79; stroke-width: 1.5; opacity: 1;"></path></g><g class="mark-text role-legend-label" style="pointer-events: none;"><text text-anchor="start" transform="translate(16,9)" style="font-family: sans-serif; font-size: 10px; fill: #000; opacity: 1;">US</text></g></g><path class="foreground" d="" style="pointer-events: none; display: none; fill: none;"></path></g><g transform="translate(0,52)"><path class="background" d="M0,0h87.15234375v11h-87.15234375Z" style="pointer-events: none; fill: none; opacity: 1;"></path><g><g class="mark-symbol role-legend-symbol" style="pointer-events: none;"><path transform="translate(6,6)" d="M-5,0L5,0" style="fill: none; stroke: #54a24b; stroke-width: 1.5; opacity: 1;"></path></g><g class="mark-text role-legend-label" style="pointer-events: none;"><text text-anchor="start" transform="translate(16,9)" style="font-family: sans-serif; font-size: 10px; fill: #000; opacity: 1;">United Kingdom</text></g></g><path class="foreground" d="" style="pointer-events: none; display: none; fill: none;"></path></g></g></g><path class="foreground" d="" style="pointer-events: none; display: none; fill: none;"></path></g></g><g class="mark-text role-legend-title" style="pointer-events: none;"><text text-anchor="start" transform="translate(0,9)" style="font-family: sans-serif; font-size: 11px; font-weight: bold; fill: #000; opacity: 1;">country</text></g></g><path class="foreground" d="" style="pointer-events: none; display: none; fill: none;"></path></g></g><g class="mark-group role-title"><g transform="translate(375,-22)"><path class="background" d="M0,0h0v0h0Z" style="pointer-events: none; fill: none;"></path><g><g class="mark-text role-title-text" style="pointer-events: none;"><text text-anchor="middle" transform="translate(0,10)" style="font-family: sans-serif; font-size: 13px; font-weight: bold; fill: #000; opacity: 1;">Confirmed by day in ['China', 'Italy', 'Spain', 'US', 'United Kingdom'] as of 04-25-2020</text></g></g><path class="foreground" d="" style="pointer-events: none; display: none; fill: none;"></path></g></g></g><path class="foreground" d="" style="display: none; fill: none;"></path></g></g></g></svg>