<svg class="marks" width="921" height="439" viewBox="0 0 921 439" version="1.1" xmlns="http://www.w3.org/2000/svg" xmlns:xlink="http://www.w3.org/1999/xlink"><rect width="921" height="439" style="fill: white;"></rect><g transform="translate(58,27)"><g class="mark-group role-frame root"><g transform="translate(0,0)"><path class="background" d="M0.5,0.5h750v375h-750Z" style="fill: none; stroke: #ddd;"></path><g><g class="mark-group role-axis"><g transform="translate(0.5,375.5)"><path class="background" d="M0,0h0v0h0Z" style="pointer-events: none; fill: none;"></path><g><g class="mark-rule role-axis-grid" style="pointer-events: none;"><line transform="translate(38,-375)" x2="0" y2="375" style="fill: none; stroke: #ddd; stroke-width: 1; opacity: 1;"></line><line transform="translate(103,-375)" x2="0" y2="375" style="fill: none; stroke: #ddd; stroke-width: 1; opacity: 1;"></line><line transform="translate(169,-375)" x2="0" y2="375" style="fill: none; stroke: #ddd; stroke-width: 1; opacity: 1;"></line><line transform="translate(234,-375)" x2="0" y2="375" style="fill: none; stroke: #ddd; stroke-width: 1; opacity: 1;"></line><line transform="translate(300,-375)" x2="0" y2="375" style="fill: none; stroke: #ddd; stroke-width: 1; opacity: 1;"></line><line transform="translate(366,-375)" x2="0" y2="375" style="fill: none; stroke: #ddd; stroke-width: 1; opacity: 1;"></line><line transform="translate(431,-375)" x2="0" y2="375" style="fill: none; stroke: #ddd; stroke-width: 1; opacity: 1;"></line><line transform="translate(497,-375)" x2="0" y2="375" style="fill: none; stroke: #ddd; stroke-width: 1; opacity: 1;"></line><line transform="translate(563,-375)" x2="0" y2="375" style="fill: none; stroke: #ddd; stroke-width: 1; opacity: 1;"></line><line transform="translate(628,-375)" x2="0" y2="375" style="fill: none; stroke: #ddd; stroke-width: 1; opacity: 1;"></line><line transform="translate(694,-375)" x2="0" y2="375" style="fill: none; stroke: #ddd; stroke-width: 1; opacity: 1;"></line></g></g><path class="foreground" d="" style="pointer-events: none; display: none; fill: none;"></path></g></g><g class="mark-group role-axis"><g transform="translate(0.5,0.5)"><path class="background" d="M0,0h0v0h0Z" style="pointer-events: none; fill: none;"></path><g><g class="mark-rule role-axis-grid" style="pointer-events: none;"><line transform="translate(0,375)" x2="750" y2="0" style="fill: none; stroke: #ddd; stroke-width: 1; opacity: 1;"></line><line transform="translate(0,341)" x2="750" y2="0" style="fill: none; stroke: #ddd; stroke-width: 1; opacity: 1;"></line><line transform="translate(0,307)" x2="750" y2="0" style="fill: none; stroke: #ddd; stroke-width: 1; opacity: 1;"></line><line transform="translate(0,273)" x2="750" y2="0" style="fill: none; stroke: #ddd; stroke-width: 1; opacity: 1;"></line><line transform="translate(0,239)" x2="750" y2="0" style="fill: none; stroke: #ddd; stroke-width: 1; opacity: 1;"></line><line transform="translate(0,205)" x2="750" y2="0" style="fill: none; stroke: #ddd; stroke-width: 1; opacity: 1;"></line><line transform="translate(0,170)" x2="750" y2="0" style="fill: none; stroke: #ddd; stroke-width: 1; opacity: 1;"></line><line transform="translate(0,136)" x2="750" y2="0" style="fill: none; stroke: #ddd; stroke-width: 1; opacity: 1;"></line><line transform="translate(0,102)" x2="750" y2="0" style="fill: none; stroke: #ddd; stroke-width: 1; opacity: 1;"></line><line transform="translate(0,68)" x2="750" y2="0" style="fill: none; stroke: #ddd; stroke-width: 1; opacity: 1;"></line><line transform="translate(0,34)" x2="750" y2="0" style="fill: none; stroke: #ddd; stroke-width: 1; opacity: 1;"></line><line transform="translate(0,0)" x2="750" y2="0" style="fill: none; stroke: #ddd; stroke-width: 1; opacity: 1;"></line></g></g><path class="foreground" d="" style="pointer-events: none; display: none; fill: none;"></path></g></g><g class="mark-group role-axis"><g transform="translate(0.5,375.5)"><path class="background" d="M0,0h0v0h0Z" style="pointer-events: none; fill: none;"></path><g><g class="mark-rule role-axis-tick" style="pointer-events: none;"><line transform="translate(38,0)" x2="0" y2="5" style="fill: none; stroke: #888; stroke-width: 1; opacity: 1;"></line><line transform="translate(103,0)" x2="0" y2="5" style="fill: none; stroke: #888; stroke-width: 1; opacity: 1;"></line><line transform="translate(169,0)" x2="0" y2="5" style="fill: none; stroke: #888; stroke-width: 1; opacity: 1;"></line><line transform="translate(234,0)" x2="0" y2="5" style="fill: none; stroke: #888; stroke-width: 1; opacity: 1;"></line><line transform="translate(300,0)" x2="0" y2="5" style="fill: none; stroke: #888; stroke-width: 1; opacity: 1;"></line><line transform="translate(366,0)" x2="0" y2="5" style="fill: none; stroke: #888; stroke-width: 1; opacity: 1;"></line><line transform="translate(431,0)" x2="0" y2="5" style="fill: none; stroke: #888; stroke-width: 1; opacity: 1;"></line><line transform="translate(497,0)" x2="0" y2="5" style="fill: none; stroke: #888; stroke-width: 1; opacity: 1;"></line><line transform="translate(563,0)" x2="0" y2="5" style="fill: none; stroke: #888; stroke-width: 1; opacity: 1;"></line><line transform="translate(628,0)" x2="0" y2="5" style="fill: none; stroke: #888; stroke-width: 1; opacity: 1;"></line><line transform="translate(694,0)" x2="0" y2="5" style="fill: none; stroke: #888; stroke-width: 1; opacity: 1;"></line></g><g class="mark-text role-axis-label" style="pointer-events: none;"><text text-anchor="middle" transform="translate(37.519541427826994,15)" style="font-family: sans-serif; font-size: 10px; fill: #000; opacity: 1;">Jan 26</text><text text-anchor="middle" transform="translate(103.17873892652422,15)" style="font-family: sans-serif; font-size: 10px; fill: #000; opacity: 1;">Feb 02</text><text text-anchor="middle" transform="translate(168.83793642522147,15)" style="font-family: sans-serif; font-size: 10px; fill: #000; opacity: 1;">Feb 09</text><text text-anchor="middle" transform="translate(234.49713392391868,15)" style="font-family: sans-serif; font-size: 10px; fill: #000; opacity: 1;">Feb 16</text><text text-anchor="middle" transform="translate(300.15633142261595,15)" style="font-family: sans-serif; font-size: 10px; fill: #000; opacity: 1;">Feb 23</text><text text-anchor="middle" transform="translate(365.8155289213132,15)" style="font-family: sans-serif; font-size: 10px; fill: #000; opacity: 1;">March</text><text text-anchor="middle" transform="translate(431.4747264200104,15)" style="font-family: sans-serif; font-size: 10px; fill: #000; opacity: 1;">Mar 08</text><text text-anchor="middle" transform="translate(497.1339239187077,15)" style="font-family: sans-serif; font-size: 10px; fill: #000; opacity: 1;">Mar 15</text><text text-anchor="middle" transform="translate(562.7931214174049,15)" style="font-family: sans-serif; font-size: 10px; fill: #000; opacity: 1;">Mar 22</text><text text-anchor="middle" transform="translate(628.4523189161022,15)" style="font-family: sans-serif; font-size: 10px; fill: #000; opacity: 1;">Mar 29</text><text text-anchor="middle" transform="translate(693.7206878582596,15)" style="font-family: sans-serif; font-size: 10px; fill: #000; opacity: 1;">Apr 05</text></g><g class="mark-rule role-axis-domain" style="pointer-events: none;"><line transform="translate(0,0)" x2="750" y2="0" style="fill: none; stroke: #888; stroke-width: 1; opacity: 1;"></line></g><g class="mark-text role-axis-title" style="pointer-events: none;"><text text-anchor="middle" transform="translate(375,30)" style="font-family: sans-serif; font-size: 11px; font-weight: bold; fill: #000; opacity: 1;">day</text></g></g><path class="foreground" d="" style="pointer-events: none; display: none; fill: none;"></path></g></g><g class="mark-group role-axis"><g transform="translate(0.5,0.5)"><path class="background" d="M0,0h0v0h0Z" style="pointer-events: none; fill: none;"></path><g><g class="mark-rule role-axis-tick" style="pointer-events: none;"><line transform="translate(0,375)" x2="-5" y2="0" style="fill: none; stroke: #888; stroke-width: 1; opacity: 1;"></line><line transform="translate(0,341)" x2="-5" y2="0" style="fill: none; stroke: #888; stroke-width: 1; opacity: 1;"></line><line transform="translate(0,307)" x2="-5" y2="0" style="fill: none; stroke: #888; stroke-width: 1; opacity: 1;"></line><line transform="translate(0,273)" x2="-5" y2="0" style="fill: none; stroke: #888; stroke-width: 1; opacity: 1;"></line><line transform="translate(0,239)" x2="-5" y2="0" style="fill: none; stroke: #888; stroke-width: 1; opacity: 1;"></line><line transform="translate(0,205)" x2="-5" y2="0" style="fill: none; stroke: #888; stroke-width: 1; opacity: 1;"></line><line transform="translate(0,170)" x2="-5" y2="0" style="fill: none; stroke: #888; stroke-width: 1; opacity: 1;"></line><line transform="translate(0,136)" x2="-5" y2="0" style="fill: none; stroke: #888; stroke-width: 1; opacity: 1;"></line><line transform="translate(0,102)" x2="-5" y2="0" style="fill: none; stroke: #888; stroke-width: 1; opacity: 1;"></line><line transform="translate(0,68)" x2="-5" y2="0" style="fill: none; stroke: #888; stroke-width: 1; opacity: 1;"></line><line transform="translate(0,34)" x2="-5" y2="0" style="fill: none; stroke: #888; stroke-width: 1; opacity: 1;"></line><line transform="translate(0,0)" x2="-5" y2="0" style="fill: none; stroke: #888; stroke-width: 1; opacity: 1;"></line></g><g class="mark-text role-axis-label" style="pointer-events: none;"><text text-anchor="end" transform="translate(-7,378)" style="font-family: sans-serif; font-size: 10px; fill: #000; opacity: 1;">0</text><text text-anchor="end" transform="translate(-7,343.9090909090909)" style="font-family: sans-serif; font-size: 10px; fill: #000; opacity: 1;">2,000</text><text text-anchor="end" transform="translate(-7,309.8181818181818)" style="font-family: sans-serif; font-size: 10px; fill: #000; opacity: 1;">4,000</text><text text-anchor="end" transform="translate(-7,275.72727272727275)" style="font-family: sans-serif; font-size: 10px; fill: #000; opacity: 1;">6,000</text><text text-anchor="end" transform="translate(-7,241.63636363636363)" style="font-family: sans-serif; font-size: 10px; fill: #000; opacity: 1;">8,000</text><text text-anchor="end" transform="translate(-7,207.54545454545453)" style="font-family: sans-serif; font-size: 10px; fill: #000; opacity: 1;">10,000</text><text text-anchor="end" transform="translate(-7,173.45454545454547)" style="font-family: sans-serif; font-size: 10px; fill: #000; opacity: 1;">12,000</text><text text-anchor="end" transform="translate(-7,139.36363636363637)" style="font-family: sans-serif; font-size: 10px; fill: #000; opacity: 1;">14,000</text><text text-anchor="end" transform="translate(-7,105.27272727272727)" style="font-family: sans-serif; font-size: 10px; fill: #000; opacity: 1;">16,000</text><text text-anchor="end" transform="translate(-7,71.18181818181816)" style="font-family: sans-serif; font-size: 10px; fill: #000; opacity: 1;">18,000</text><text text-anchor="end" transform="translate(-7,37.0909090909091)" style="font-family: sans-serif; font-size: 10px; fill: #000; opacity: 1;">20,000</text><text text-anchor="end" transform="translate(-7,3)" style="font-family: sans-serif; font-size: 10px; fill: #000; opacity: 1;">22,000</text></g><g class="mark-rule role-axis-domain" style="pointer-events: none;"><line transform="translate(0,375)" x2="0" y2="-375" style="fill: none; stroke: #888; stroke-width: 1; opacity: 1;"></line></g><g class="mark-text role-axis-title" style="pointer-events: none;"><text text-anchor="middle" transform="translate(-41.5859375,187.5) rotate(-90) translate(0,-2)" style="font-family: sans-serif; font-size: 11px; font-weight: bold; fill: #000; opacity: 1;">Deaths</text></g></g><path class="foreground" d="" style="pointer-events: none; display: none; fill: none;"></path></g></g><g class="mark-group role-scope pathgroup"><g transform="translate(0,0)"><path class="background" d="M0,0h750v375h-750Z" style="fill: none;"></path><g><g class="mark-line role-mark marks"><path d="M0,374.71022727272725L9.379885356956748,374.6931818181818L18.759770713913497,374.5568181818182L28.139656070870245,374.28409090909093L37.519541427826994,374.04545454545456L46.89942678478375,373.60227272727275L56.27931214174049,372.76704545454544L65.65919749869724,372.73295454545456L75.03908285565399,372.08522727272725L84.41896821261074,371.3693181818182L93.7988535695675,370.58522727272725L103.17873892652422,368.8465909090909L112.55862428348098,367.7556818181818L121.93850964043773,366.6306818181818L131.31839499739448,365.40340909090907L140.69828035435123,364.21022727272725L150.07816571130797,362.7613636363636L159.45805106826472,361.27840909090907L168.83793642522147,359.5738636363636L178.21782178217822,357.75L187.597707139135,356.04545454545456L196.97759249609172,355.96022727272725L206.35747785304844,351.66477272727275L215.7373632100052,349.0738636363636L225.11724856696196,346.6534090909091L234.49713392391868,344.89772727272725L243.87701928087546,343.2272727272727L253.2569046378322,340.85795454545456L262.63678999478896,338.9318181818182L272.0166753517457,336.85227272727275L281.39656070870245,336.85227272727275L290.77644606565923,333.35795454545456L300.15633142261595,333.3238636363636L309.5362167795727,330.76704545454544L318.91610213652945,329.5738636363636L328.29598749348617,328.6875L337.67587285044294,328.1931818181818L347.05575820739966,327.4431818181818L356.43564356435644,326.64204545454544L365.8155289213132,326.04545454545456L375.19541427827,325.32954545454544L384.57529963522666,324.76704545454544L393.95518499218343,324.15340909090907L403.3350703491402,323.6079545454545L412.7149557060969,323.1136363636364L422.09484106305365,322.6363636363636L431.4747264200104,322.15909090909093L440.85461177696715,321.76704545454544L450.2344971339239,321.4943181818182L459.6143824908807,321.11931818181813L468.99426784783736,320.9318181818182L478.37415320479414,320.79545454545456L487.7540385617509,320.5738636363636L497.1339239187077,320.40340909090907L506.5138092756644,320.1647727272727L515.8936946326212,319.9431818181818L525.2735799895779,319.7556818181818L534.6534653465346,319.61931818181813L544.0333507034914,319.5511363636364L553.4132360604482,319.4488636363636L562.7931214174049,319.1931818181818L572.1730067743616,319.1931818181818L581.5528921313185,319.0738636363636L590.9327774882751,319.0056818181818L600.3126628452319,318.90340909090907L609.6925482021886,318.8181818181818L619.0724335591455,318.76704545454544L628.4523189161022,318.6818181818182L637.441375716519,318.6136363636364L646.8212610734757,318.5965909090909L656.2011464304325,318.47727272727275L665.5810317873893,318.375L674.960917144346,318.3068181818182L684.3408025013027,318.2386363636364L693.7206878582596,318.1875L703.1005732152163,318.15340909090907L712.480458572173,318.15340909090907L721.8603439291297,318.11931818181813L731.2402292860866,318.08522727272725L740.6201146430433,318.0681818181818L750,318.01704545454544" style="fill: none; stroke: #4c78a8; stroke-width: 2;"></path></g></g><path class="foreground" d="" style="display: none; fill: none;"></path></g><g transform="translate(0,0)"><path class="background" d="M0,0h750v375h-750Z" style="fill: none;"></path><g><g class="mark-line role-mark marks"><path d="M0,375L9.379885356956748,375L18.759770713913497,375L28.139656070870245,375L37.519541427826994,375L46.89942678478375,375L56.27931214174049,375L65.65919749869724,375L75.03908285565399,375L84.41896821261074,375L93.7988535695675,375L103.17873892652422,375L112.55862428348098,375L121.93850964043773,375L131.31839499739448,375L140.69828035435123,375L150.07816571130797,375L159.45805106826472,375L168.83793642522147,375L178.21782178217822,375L187.597707139135,375L196.97759249609172,375L206.35747785304844,375L215.7373632100052,375L225.11724856696196,375L234.49713392391868,375L243.87701928087546,375L253.2569046378322,375L262.63678999478896,375L272.0166753517457,375L281.39656070870245,374.98295454545456L290.77644606565923,374.96590909090907L300.15633142261595,374.9488636363636L309.5362167795727,374.8806818181818L318.91610213652945,374.82954545454544L328.29598749348617,374.79545454545456L337.67587285044294,374.71022727272725L347.05575820739966,374.64204545454544L356.43564356435644,374.5056818181818L365.8155289213132,374.42045454545456L375.19541427827,374.1136363636364L384.57529963522666,373.65340909090907L393.95518499218343,373.1761363636364L403.3350703491402,372.47727272727275L412.7149557060969,371.64204545454544L422.09484106305365,371.02840909090907L431.4747264200104,368.7613636363636L440.85461177696715,367.1079545454545L450.2344971339239,364.2443181818182L459.6143824908807,360.90340909090907L468.99426784783736,360.90340909090907L478.37415320479414,353.42045454545456L487.7540385617509,350.4375L497.1339239187077,344.16477272727275L506.5138092756644,338.21590909090907L515.8936946326212,332.3352272727273L525.2735799895779,324.2386363636364L534.6534653465346,316.96022727272725L544.0333507034914,306.27272727272725L553.4132360604482,292.7556818181818L562.7931214174049,281.6590909090909L572.1730067743616,271.4147727272727L581.5528921313185,258.75L590.9327774882751,247.10795454545456L600.3126628452319,234.9715909090909L609.6925482021886,219.30681818181816L619.0724335591455,204.15340909090907L628.4523189161022,191.26704545454544L637.441375716519,177.42613636363637L646.8212610734757,163.1590909090909L656.2011464304325,150.76704545454547L665.5810317873893,137.81250000000003L674.960917144346,124.75568181818183L684.3408025013027,113.14772727272728L693.7206878582596,104.19886363636361L703.1005732152163,93.35795454545453L712.480458572173,83.06250000000001L721.8603439291297,73.82386363636363L731.2402292860866,63.42613636363637L740.6201146430433,53.71022727272729L750,43.15909090909093" style="fill: none; stroke: #9ecae9; stroke-width: 2;"></path></g></g><path class="foreground" d="" style="display: none; fill: none;"></path></g><g transform="translate(0,0)"><path class="background" d="M0,0h750v375h-750Z" style="fill: none;"></path><g><g class="mark-line role-mark marks"><path d="M0,375L9.379885356956748,375L18.759770713913497,375L28.139656070870245,375L37.519541427826994,375L46.89942678478375,375L56.27931214174049,375L65.65919749869724,375L75.03908285565399,375L84.41896821261074,375L93.7988535695675,375L103.17873892652422,375L112.55862428348098,375L121.93850964043773,375L131.31839499739448,375L140.69828035435123,375L150.07816571130797,375L159.45805106826472,375L168.83793642522147,375L178.21782178217822,375L187.597707139135,375L196.97759249609172,375L206.35747785304844,375L215.7373632100052,375L225.11724856696196,375L234.49713392391868,375L243.87701928087546,375L253.2569046378322,375L262.63678999478896,375L272.0166753517457,375L281.39656070870245,375L290.77644606565923,375L300.15633142261595,375L309.5362167795727,375L318.91610213652945,375L328.29598749348617,375L337.67587285044294,375L347.05575820739966,375L356.43564356435644,375L365.8155289213132,375L375.19541427827,375L384.57529963522666,374.98295454545456L393.95518499218343,374.96590909090907L403.3350703491402,374.9488636363636L412.7149557060969,374.91477272727275L422.09484106305365,374.82954545454544L431.4747264200104,374.71022727272725L440.85461177696715,374.52272727272725L450.2344971339239,374.40340909090907L459.6143824908807,374.07954545454544L468.99426784783736,374.0625L478.37415320479414,372.73295454545456L487.7540385617509,371.6761363636364L497.1339239187077,370.0738636363636L506.5138092756644,369.17045454545456L515.8936946326212,365.9147727272727L525.2735799895779,364.3806818181818L534.6534653465346,360.85227272727275L544.0333507034914,357.2215909090909L553.4132360604482,351.5625L562.7931214174049,344.7954545454545L572.1730067743616,335.60795454545456L581.5528921313185,327.1363636363636L590.9327774882751,312.83522727272725L600.3126628452319,300.59659090909093L609.6925482021886,287.42045454545456L619.0724335591455,273.03409090909093L628.4523189161022,259.03977272727275L637.441375716519,243.47727272727272L646.8212610734757,230.7272727272727L656.2011464304325,214.9943181818182L665.5810317873893,198.61363636363637L674.960917144346,184.125L684.3408025013027,171.35795454545456L693.7206878582596,159.52840909090912L703.1005732152163,147.5965909090909L712.480458572173,135.5965909090909L721.8603439291297,122.86363636363636L731.2402292860866,111.69886363636363L740.6201146430433,100.89204545454547L750,91.94318181818181" style="fill: none; stroke: #f58518; stroke-width: 2;"></path></g></g><path class="foreground" d="" style="display: none; fill: none;"></path></g><g transform="translate(0,0)"><path class="background" d="M0,0h750v375h-750Z" style="fill: none;"></path><g><g class="mark-line role-mark marks"><path d="M0,375L9.379885356956748,375L18.759770713913497,375L28.139656070870245,375L37.519541427826994,375L46.89942678478375,375L56.27931214174049,375L65.65919749869724,375L75.03908285565399,375L84.41896821261074,375L93.7988535695675,375L103.17873892652422,375L112.55862428348098,375L121.93850964043773,375L131.31839499739448,375L140.69828035435123,375L150.07816571130797,375L159.45805106826472,375L168.83793642522147,375L178.21782178217822,375L187.597707139135,375L196.97759249609172,375L206.35747785304844,375L215.7373632100052,375L225.11724856696196,375L234.49713392391868,375L243.87701928087546,375L253.2569046378322,375L262.63678999478896,375L272.0166753517457,375L281.39656070870245,375L290.77644606565923,375L300.15633142261595,375L309.5362167795727,375L318.91610213652945,375L328.29598749348617,375L337.67587285044294,375L347.05575820739966,375L356.43564356435644,374.98295454545456L365.8155289213132,374.98295454545456L375.19541427827,374.89772727272725L384.57529963522666,374.8806818181818L393.95518499218343,374.8125L403.3350703491402,374.79545454545456L412.7149557060969,374.7613636363636L422.09484106305365,374.71022727272725L431.4747264200104,374.64204545454544L440.85461177696715,374.625L450.2344971339239,374.52272727272725L459.6143824908807,374.3863636363636L468.99426784783736,374.3181818181818L478.37415320479414,374.1988636363636L487.7540385617509,374.07954545454544L497.1339239187077,373.9261363636364L506.5138092756644,373.5511363636364L515.8936946326212,373.15909090909093L525.2735799895779,372.9886363636364L534.6534653465346,371.5909090909091L544.0333507034914,370.8409090909091L553.4132360604482,369.76704545454544L562.7931214174049,367.89204545454544L572.1730067743616,365.5056818181818L581.5528921313185,362.9659090909091L590.9327774882751,358.9431818181818L600.3126628452319,354.39204545454544L609.6925482021886,348.0511363636364L619.0724335591455,340.46590909090907L628.4523189161022,332.9488636363636L637.441375716519,324.2386363636364L646.8212610734757,308.98295454545456L656.2011464304325,293.91477272727275L665.5810317873893,273.9886363636364L674.960917144346,254.19886363636363L684.3408025013027,231.6988636363636L693.7206878582596,211.0397727272727L703.1005732152163,191.19886363636365L712.480458572173,158.14772727272728L721.8603439291297,124.51704545454545L731.2402292860866,94.125L740.6201146430433,58.19318181818183L750,26.19886363636363" style="fill: none; stroke: #ffbf79; stroke-width: 2;"></path></g></g><path class="foreground" d="" style="display: none; fill: none;"></path></g><g transform="translate(0,0)"><path class="background" d="M0,0h750v375h-750Z" style="fill: none;"></path><g><g class="mark-line role-mark marks"><path d="M0,375L9.379885356956748,375L18.759770713913497,375L28.139656070870245,375L37.519541427826994,375L46.89942678478375,375L56.27931214174049,375L65.65919749869724,375L75.03908285565399,375L84.41896821261074,375L93.7988535695675,375L103.17873892652422,375L112.55862428348098,375L121.93850964043773,375L131.31839499739448,375L140.69828035435123,375L150.07816571130797,375L159.45805106826472,375L168.83793642522147,375L178.21782178217822,375L187.597707139135,375L196.97759249609172,375L206.35747785304844,375L215.7373632100052,375L225.11724856696196,375L234.49713392391868,375L243.87701928087546,375L253.2569046378322,375L262.63678999478896,375L272.0166753517457,375L281.39656070870245,375L290.77644606565923,375L300.15633142261595,375L309.5362167795727,375L318.91610213652945,375L328.29598749348617,375L337.67587285044294,375L347.05575820739966,375L356.43564356435644,375L365.8155289213132,375L375.19541427827,375L384.57529963522666,375L393.95518499218343,375L403.3350703491402,374.98295454545456L412.7149557060969,374.96590909090907L422.09484106305365,374.96590909090907L431.4747264200104,374.9488636363636L440.85461177696715,374.9318181818182L450.2344971339239,374.89772727272725L459.6143824908807,374.8636363636364L468.99426784783736,374.8636363636364L478.37415320479414,374.8636363636364L487.7540385617509,374.64204545454544L497.1339239187077,374.64204545454544L506.5138092756644,374.04545454545456L515.8936946326212,374.04545454545456L525.2735799895779,373.77272727272725L534.6534653465346,372.64772727272725L544.0333507034914,371.9659090909091L553.4132360604482,371.0113636363636L562.7931214174049,370.1931818181818L572.1730067743616,369.27272727272725L581.5528921313185,367.7897727272727L590.9327774882751,367.0568181818182L600.3126628452319,365.1136363636364L609.6925482021886,362.02840909090907L619.0724335591455,357.5965909090909L628.4523189161022,354.01704545454544L637.441375716519,350.9488636363636L646.8212610734757,344.4375L656.2011464304325,334.8238636363637L665.5810317873893,325.125L674.960917144346,313.4488636363636L684.3408025013027,301.3636363636364L693.7206878582596,290.7443181818182L703.1005732152163,283.21022727272725L712.480458572173,269.8125L721.8603439291297,253.78977272727275L731.2402292860866,238.75568181818178L740.6201146430433,222.0340909090909L750,206.38636363636365" style="fill: none; stroke: #54a24b; stroke-width: 2;"></path></g></g><path class="foreground" d="" style="display: none; fill: none;"></path></g></g><g class="mark-group role-legend"><g transform="translate(770,0)"><path class="background" d="M0,0h88v79h-88Z" style="pointer-events: none; fill: none;"></path><g><g class="mark-group role-legend-entry"><g transform="translate(0,16)"><path class="background" d="M0,0h0v0h0Z" style="pointer-events: none; fill: none;"></path><g><g class="mark-group role-scope"><g transform="translate(0,0)"><path class="background" d="M0,0h87.15234375v11h-87.15234375Z" style="pointer-events: none; fill: none; opacity: 1;"></path><g><g class="mark-symbol role-legend-symbol" style="pointer-events: none;"><path transform="translate(6,6)" d="M-5,0L5,0" style="fill: none; stroke: #4c78a8; stroke-width: 1.5; opacity: 1;"></path></g><g class="mark-text role-legend-label" style="pointer-events: none;"><text text-anchor="start" transform="translate(16,9)" style="font-family: sans-serif; font-size: 10px; fill: #000; opacity: 1;">China</text></g></g><path class="foreground" d="" style="pointer-events: none; display: none; fill: none;"></path></g><g transform="translate(0,13)"><path class="background" d="M0,0h87.15234375v11h-87.15234375Z" style="pointer-events: none; fill: none; opacity: 1;"></path><g><g class="mark-symbol role-legend-symbol" style="pointer-events: none;"><path transform="translate(6,6)" d="M-5,0L5,0" style="fill: none; stroke: #9ecae9; stroke-width: 1.5; opacity: 1;"></path></g><g class="mark-text role-legend-label" style="pointer-events: none;"><text text-anchor="start" transform="translate(16,9)" style="font-family: sans-serif; font-size: 10px; fill: #000; opacity: 1;">Italy</text></g></g><path class="foreground" d="" style="pointer-events: none; display: none; fill: none;"></path></g><g transform="translate(0,26)"><path class="background" d="M0,0h87.15234375v11h-87.15234375Z" style="pointer-events: none; fill: none; opacity: 1;"></path><g><g class="mark-symbol role-legend-symbol" style="pointer-events: none;"><path transform="translate(6,6)" d="M-5,0L5,0" style="fill: none; stroke: #f58518; stroke-width: 1.5; opacity: 1;"></path></g><g class="mark-text role-legend-label" style="pointer-events: none;"><text text-anchor="start" transform="translate(16,9)" style="font-family: sans-serif; font-size: 10px; fill: #000; opacity: 1;">Spain</text></g></g><path class="foreground" d="" style="pointer-events: none; display: none; fill: none;"></path></g><g transform="translate(0,39)"><path class="background" d="M0,0h87.15234375v11h-87.15234375Z" style="pointer-events: none; fill: none; opacity: 1;"></path><g><g class="mark-symbol role-legend-symbol" style="pointer-events: none;"><path transform="translate(6,6)" d="M-5,0L5,0" style="fill: none; stroke: #ffbf79; stroke-width: 1.5; opacity: 1;"></path></g><g class="mark-text role-legend-label" style="pointer-events: none;"><text text-anchor="start" transform="translate(16,9)" style="font-family: sans-serif; font-size: 10px; fill: #000; opacity: 1;">US</text></g></g><path class="foreground" d="" style="pointer-events: none; display: none; fill: none;"></path></g><g transform="translate(0,52)"><path class="background" d="M0,0h87.15234375v11h-87.15234375Z" style="pointer-events: none; fill: none; opacity: 1;"></path><g><g class="mark-symbol role-legend-symbol" style="pointer-events: none;"><path transform="translate(6,6)" d="M-5,0L5,0" style="fill: none; stroke: #54a24b; stroke-width: 1.5; opacity: 1;"></path></g><g class="mark-text role-legend-label" style="pointer-events: none;"><text text-anchor="start" transform="translate(16,9)" style="font-family: sans-serif; font-size: 10px; fill: #000; opacity: 1;">United Kingdom</text></g></g><path class="foreground" d="" style="pointer-events: none; display: none; fill: none;"></path></g></g></g><path class="foreground" d="" style="pointer-events: none; display: none; fill: none;"></path></g></g><g class="mark-text role-legend-title" style="pointer-events: none;"><text text-anchor="start" transform="translate(0,9)" style="font-family: sans-serif; font-size: 11px; font-weight: bold; fill: #000; opacity: 1;">country</text></g></g><path class="foreground" d="" style="pointer-events: none; display: none; fill: none;"></path></g></g><g class="mark-group role-title"><g transform="translate(375,-22)"><path class="background" d="M0,0h0v0h0Z" style="pointer-events: none; fill: none;"></path><g><g class="mark-text role-title-text" style="pointer-events: none;"><text text-anchor="middle" transform="translate(0,10)" style="font-family: sans-serif; font-size: 13px; font-weight: bold; fill: #000; opacity: 1;">Deaths by day in ['China', 'Italy', 'Spain', 'US', 'United Kingdom'] as of 04-11-2020</text></g></g><path class="foreground" d="" style="pointer-events: none; display: none; fill: none;"></path></g></g></g><path class="foreground" d="" style="display: none; fill: none;"></path></g></g></g></svg>