<svg class="marks" width="958" height="464" viewBox="0 0 958 464" version="1.1" xmlns="http://www.w3.org/2000/svg" xmlns:xlink="http://www.w3.org/1999/xlink"><rect width="958" height="464" style="fill: white;"></rect><g transform="translate(72,27)"><g class="mark-group role-frame root"><g transform="translate(0,0)"><path class="background" d="M0.5,0.5h800v400h-800Z" style="fill: none; stroke: #ddd;"></path><g><g class="mark-group role-axis"><g transform="translate(0.5,400.5)"><path class="background" d="M0,0h0v0h0Z" style="pointer-events: none; fill: none;"></path><g><g class="mark-rule role-axis-grid" style="pointer-events: none;"><line transform="translate(64,-400)" x2="0" y2="400" style="fill: none; stroke: #ddd; stroke-width: 1; opacity: 1;"></line><line transform="translate(139,-400)" x2="0" y2="400" style="fill: none; stroke: #ddd; stroke-width: 1; opacity: 1;"></line><line transform="translate(213,-400)" x2="0" y2="400" style="fill: none; stroke: #ddd; stroke-width: 1; opacity: 1;"></line><line transform="translate(288,-400)" x2="0" y2="400" style="fill: none; stroke: #ddd; stroke-width: 1; opacity: 1;"></line><line transform="translate(363,-400)" x2="0" y2="400" style="fill: none; stroke: #ddd; stroke-width: 1; opacity: 1;"></line><line transform="translate(438,-400)" x2="0" y2="400" style="fill: none; stroke: #ddd; stroke-width: 1; opacity: 1;"></line><line transform="translate(512,-400)" x2="0" y2="400" style="fill: none; stroke: #ddd; stroke-width: 1; opacity: 1;"></line><line transform="translate(587,-400)" x2="0" y2="400" style="fill: none; stroke: #ddd; stroke-width: 1; opacity: 1;"></line><line transform="translate(661,-400)" x2="0" y2="400" style="fill: none; stroke: #ddd; stroke-width: 1; opacity: 1;"></line><line transform="translate(736,-400)" x2="0" y2="400" style="fill: none; stroke: #ddd; stroke-width: 1; opacity: 1;"></line></g></g><path class="foreground" d="" style="pointer-events: none; display: none; fill: none;"></path></g></g><g class="mark-group role-axis"><g transform="translate(0.5,0.5)"><path class="background" d="M0,0h0v0h0Z" style="pointer-events: none; fill: none;"></path><g><g class="mark-rule role-axis-grid" style="pointer-events: none;"><line transform="translate(0,400)" x2="800" y2="0" style="fill: none; stroke: #ddd; stroke-width: 1; opacity: 1;"></line><line transform="translate(0,380)" x2="800" y2="0" style="fill: none; stroke: #ddd; stroke-width: 1; opacity: 1;"></line><line transform="translate(0,368)" x2="800" y2="0" style="fill: none; stroke: #ddd; stroke-width: 1; opacity: 1;"></line><line transform="translate(0,360)" x2="800" y2="0" style="fill: none; stroke: #ddd; stroke-width: 1; opacity: 1;"></line><line transform="translate(0,353)" x2="800" y2="0" style="fill: none; stroke: #ddd; stroke-width: 1; opacity: 1;"></line><line transform="translate(0,348)" x2="800" y2="0" style="fill: none; stroke: #ddd; stroke-width: 1; opacity: 1;"></line><line transform="translate(0,344)" x2="800" y2="0" style="fill: none; stroke: #ddd; stroke-width: 1; opacity: 1;"></line><line transform="translate(0,340)" x2="800" y2="0" style="fill: none; stroke: #ddd; stroke-width: 1; opacity: 1;"></line><line transform="translate(0,336)" x2="800" y2="0" style="fill: none; stroke: #ddd; stroke-width: 1; opacity: 1;"></line><line transform="translate(0,333)" x2="800" y2="0" style="fill: none; stroke: #ddd; stroke-width: 1; opacity: 1;"></line><line transform="translate(0,313)" x2="800" y2="0" style="fill: none; stroke: #ddd; stroke-width: 1; opacity: 1;"></line><line transform="translate(0,302)" x2="800" y2="0" style="fill: none; stroke: #ddd; stroke-width: 1; opacity: 1;"></line><line transform="translate(0,293)" x2="800" y2="0" style="fill: none; stroke: #ddd; stroke-width: 1; opacity: 1;"></line><line transform="translate(0,287)" x2="800" y2="0" style="fill: none; stroke: #ddd; stroke-width: 1; opacity: 1;"></line><line transform="translate(0,281)" x2="800" y2="0" style="fill: none; stroke: #ddd; stroke-width: 1; opacity: 1;"></line><line transform="translate(0,277)" x2="800" y2="0" style="fill: none; stroke: #ddd; stroke-width: 1; opacity: 1;"></line><line transform="translate(0,273)" x2="800" y2="0" style="fill: none; stroke: #ddd; stroke-width: 1; opacity: 1;"></line><line transform="translate(0,270)" x2="800" y2="0" style="fill: none; stroke: #ddd; stroke-width: 1; opacity: 1;"></line><line transform="translate(0,267)" x2="800" y2="0" style="fill: none; stroke: #ddd; stroke-width: 1; opacity: 1;"></line><line transform="translate(0,247)" x2="800" y2="0" style="fill: none; stroke: #ddd; stroke-width: 1; opacity: 1;"></line><line transform="translate(0,235)" x2="800" y2="0" style="fill: none; stroke: #ddd; stroke-width: 1; opacity: 1;"></line><line transform="translate(0,227)" x2="800" y2="0" style="fill: none; stroke: #ddd; stroke-width: 1; opacity: 1;"></line><line transform="translate(0,220)" x2="800" y2="0" style="fill: none; stroke: #ddd; stroke-width: 1; opacity: 1;"></line><line transform="translate(0,215)" x2="800" y2="0" style="fill: none; stroke: #ddd; stroke-width: 1; opacity: 1;"></line><line transform="translate(0,210)" x2="800" y2="0" style="fill: none; stroke: #ddd; stroke-width: 1; opacity: 1;"></line><line transform="translate(0,206)" x2="800" y2="0" style="fill: none; stroke: #ddd; stroke-width: 1; opacity: 1;"></line><line transform="translate(0,203)" x2="800" y2="0" style="fill: none; stroke: #ddd; stroke-width: 1; opacity: 1;"></line><line transform="translate(0,200)" x2="800" y2="0" style="fill: none; stroke: #ddd; stroke-width: 1; opacity: 1;"></line><line transform="translate(0,180)" x2="800" y2="0" style="fill: none; stroke: #ddd; stroke-width: 1; opacity: 1;"></line><line transform="translate(0,168)" x2="800" y2="0" style="fill: none; stroke: #ddd; stroke-width: 1; opacity: 1;"></line><line transform="translate(0,160)" x2="800" y2="0" style="fill: none; stroke: #ddd; stroke-width: 1; opacity: 1;"></line><line transform="translate(0,153)" x2="800" y2="0" style="fill: none; stroke: #ddd; stroke-width: 1; opacity: 1;"></line><line transform="translate(0,148)" x2="800" y2="0" style="fill: none; stroke: #ddd; stroke-width: 1; opacity: 1;"></line><line transform="translate(0,144)" x2="800" y2="0" style="fill: none; stroke: #ddd; stroke-width: 1; opacity: 1;"></line><line transform="translate(0,140)" x2="800" y2="0" style="fill: none; stroke: #ddd; stroke-width: 1; opacity: 1;"></line><line transform="translate(0,136)" x2="800" y2="0" style="fill: none; stroke: #ddd; stroke-width: 1; opacity: 1;"></line><line transform="translate(0,133)" x2="800" y2="0" style="fill: none; stroke: #ddd; stroke-width: 1; opacity: 1;"></line><line transform="translate(0,113)" x2="800" y2="0" style="fill: none; stroke: #ddd; stroke-width: 1; opacity: 1;"></line><line transform="translate(0,102)" x2="800" y2="0" style="fill: none; stroke: #ddd; stroke-width: 1; opacity: 1;"></line><line transform="translate(0,93)" x2="800" y2="0" style="fill: none; stroke: #ddd; stroke-width: 1; opacity: 1;"></line><line transform="translate(0,87)" x2="800" y2="0" style="fill: none; stroke: #ddd; stroke-width: 1; opacity: 1;"></line><line transform="translate(0,81)" x2="800" y2="0" style="fill: none; stroke: #ddd; stroke-width: 1; opacity: 1;"></line><line transform="translate(0,77)" x2="800" y2="0" style="fill: none; stroke: #ddd; stroke-width: 1; opacity: 1;"></line><line transform="translate(0,73)" x2="800" y2="0" style="fill: none; stroke: #ddd; stroke-width: 1; opacity: 1;"></line><line transform="translate(0,70)" x2="800" y2="0" style="fill: none; stroke: #ddd; stroke-width: 1; opacity: 1;"></line><line transform="translate(0,67)" x2="800" y2="0" style="fill: none; stroke: #ddd; stroke-width: 1; opacity: 1;"></line><line transform="translate(0,47)" x2="800" y2="0" style="fill: none; stroke: #ddd; stroke-width: 1; opacity: 1;"></line><line transform="translate(0,35)" x2="800" y2="0" style="fill: none; stroke: #ddd; stroke-width: 1; opacity: 1;"></line><line transform="translate(0,27)" x2="800" y2="0" style="fill: none; stroke: #ddd; stroke-width: 1; opacity: 1;"></line><line transform="translate(0,20)" x2="800" y2="0" style="fill: none; stroke: #ddd; stroke-width: 1; opacity: 1;"></line><line transform="translate(0,15)" x2="800" y2="0" style="fill: none; stroke: #ddd; stroke-width: 1; opacity: 1;"></line><line transform="translate(0,10)" x2="800" y2="0" style="fill: none; stroke: #ddd; stroke-width: 1; opacity: 1;"></line><line transform="translate(0,6)" x2="800" y2="0" style="fill: none; stroke: #ddd; stroke-width: 1; opacity: 1;"></line><line transform="translate(0,3)" x2="800" y2="0" style="fill: none; stroke: #ddd; stroke-width: 1; opacity: 1;"></line><line transform="translate(0,0)" x2="800" y2="0" style="fill: none; stroke: #ddd; stroke-width: 1; opacity: 1;"></line></g></g><path class="foreground" d="" style="pointer-events: none; display: none; fill: none;"></path></g></g><g class="mark-group role-axis"><g transform="translate(0.5,400.5)"><path class="background" d="M0,0h0v0h0Z" style="pointer-events: none; fill: none;"></path><g><g class="mark-rule role-axis-tick" style="pointer-events: none;"><line transform="translate(64,0)" x2="0" y2="5" style="fill: none; stroke: #888; stroke-width: 1; opacity: 1;"></line><line transform="translate(139,0)" x2="0" y2="5" style="fill: none; stroke: #888; stroke-width: 1; opacity: 1;"></line><line transform="translate(213,0)" x2="0" y2="5" style="fill: none; stroke: #888; stroke-width: 1; opacity: 1;"></line><line transform="translate(288,0)" x2="0" y2="5" style="fill: none; stroke: #888; stroke-width: 1; opacity: 1;"></line><line transform="translate(363,0)" x2="0" y2="5" style="fill: none; stroke: #888; stroke-width: 1; opacity: 1;"></line><line transform="translate(438,0)" x2="0" y2="5" style="fill: none; stroke: #888; stroke-width: 1; opacity: 1;"></line><line transform="translate(512,0)" x2="0" y2="5" style="fill: none; stroke: #888; stroke-width: 1; opacity: 1;"></line><line transform="translate(587,0)" x2="0" y2="5" style="fill: none; stroke: #888; stroke-width: 1; opacity: 1;"></line><line transform="translate(661,0)" x2="0" y2="5" style="fill: none; stroke: #888; stroke-width: 1; opacity: 1;"></line><line transform="translate(736,0)" x2="0" y2="5" style="fill: none; stroke: #888; stroke-width: 1; opacity: 1;"></line></g><g class="mark-text role-axis-label" style="pointer-events: none;"><text text-anchor="middle" transform="translate(64.03557531962201,15)" style="font-family: sans-serif; font-size: 10px; fill: #000; opacity: 1;">Feb 16</text><text text-anchor="middle" transform="translate(138.74374652584768,15)" style="font-family: sans-serif; font-size: 10px; fill: #000; opacity: 1;">Feb 23</text><text text-anchor="middle" transform="translate(213.45191773207338,15)" style="font-family: sans-serif; font-size: 10px; fill: #000; opacity: 1;">March</text><text text-anchor="middle" transform="translate(288.16008893829905,15)" style="font-family: sans-serif; font-size: 10px; fill: #000; opacity: 1;">Mar 08</text><text text-anchor="middle" transform="translate(362.86826014452475,15)" style="font-family: sans-serif; font-size: 10px; fill: #000; opacity: 1;">Mar 15</text><text text-anchor="middle" transform="translate(437.57643135075045,15)" style="font-family: sans-serif; font-size: 10px; fill: #000; opacity: 1;">Mar 22</text><text text-anchor="middle" transform="translate(512.2846025569761,15)" style="font-family: sans-serif; font-size: 10px; fill: #000; opacity: 1;">Mar 29</text><text text-anchor="middle" transform="translate(586.5480822679266,15)" style="font-family: sans-serif; font-size: 10px; fill: #000; opacity: 1;">Apr 05</text><text text-anchor="middle" transform="translate(661.2562534741522,15)" style="font-family: sans-serif; font-size: 10px; fill: #000; opacity: 1;">Apr 12</text><text text-anchor="middle" transform="translate(735.964424680378,15)" style="font-family: sans-serif; font-size: 10px; fill: #000; opacity: 1;">Apr 19</text></g><g class="mark-rule role-axis-domain" style="pointer-events: none;"><line transform="translate(0,0)" x2="800" y2="0" style="fill: none; stroke: #888; stroke-width: 1; opacity: 1;"></line></g><g class="mark-text role-axis-title" style="pointer-events: none;"><text text-anchor="middle" transform="translate(400,30)" style="font-family: sans-serif; font-size: 11px; font-weight: bold; fill: #000; opacity: 1;">Date</text></g></g><path class="foreground" d="" style="pointer-events: none; display: none; fill: none;"></path></g></g><g class="mark-group role-axis"><g transform="translate(0.5,0.5)"><path class="background" d="M0,0h0v0h0Z" style="pointer-events: none; fill: none;"></path><g><g class="mark-rule role-axis-tick" style="pointer-events: none;"><line transform="translate(0,400)" x2="-5" y2="0" style="fill: none; stroke: #888; stroke-width: 1; opacity: 1;"></line><line transform="translate(0,380)" x2="-5" y2="0" style="fill: none; stroke: #888; stroke-width: 1; opacity: 1;"></line><line transform="translate(0,368)" x2="-5" y2="0" style="fill: none; stroke: #888; stroke-width: 1; opacity: 1;"></line><line transform="translate(0,360)" x2="-5" y2="0" style="fill: none; stroke: #888; stroke-width: 1; opacity: 1;"></line><line transform="translate(0,353)" x2="-5" y2="0" style="fill: none; stroke: #888; stroke-width: 1; opacity: 1;"></line><line transform="translate(0,348)" x2="-5" y2="0" style="fill: none; stroke: #888; stroke-width: 1; opacity: 1;"></line><line transform="translate(0,344)" x2="-5" y2="0" style="fill: none; stroke: #888; stroke-width: 1; opacity: 1;"></line><line transform="translate(0,340)" x2="-5" y2="0" style="fill: none; stroke: #888; stroke-width: 1; opacity: 1;"></line><line transform="translate(0,336)" x2="-5" y2="0" style="fill: none; stroke: #888; stroke-width: 1; opacity: 1;"></line><line transform="translate(0,333)" x2="-5" y2="0" style="fill: none; stroke: #888; stroke-width: 1; opacity: 1;"></line><line transform="translate(0,313)" x2="-5" y2="0" style="fill: none; stroke: #888; stroke-width: 1; opacity: 1;"></line><line transform="translate(0,302)" x2="-5" y2="0" style="fill: none; stroke: #888; stroke-width: 1; opacity: 1;"></line><line transform="translate(0,293)" x2="-5" y2="0" style="fill: none; stroke: #888; stroke-width: 1; opacity: 1;"></line><line transform="translate(0,287)" x2="-5" y2="0" style="fill: none; stroke: #888; stroke-width: 1; opacity: 1;"></line><line transform="translate(0,281)" x2="-5" y2="0" style="fill: none; stroke: #888; stroke-width: 1; opacity: 1;"></line><line transform="translate(0,277)" x2="-5" y2="0" style="fill: none; stroke: #888; stroke-width: 1; opacity: 1;"></line><line transform="translate(0,273)" x2="-5" y2="0" style="fill: none; stroke: #888; stroke-width: 1; opacity: 1;"></line><line transform="translate(0,270)" x2="-5" y2="0" style="fill: none; stroke: #888; stroke-width: 1; opacity: 1;"></line><line transform="translate(0,267)" x2="-5" y2="0" style="fill: none; stroke: #888; stroke-width: 1; opacity: 1;"></line><line transform="translate(0,247)" x2="-5" y2="0" style="fill: none; stroke: #888; stroke-width: 1; opacity: 1;"></line><line transform="translate(0,235)" x2="-5" y2="0" style="fill: none; stroke: #888; stroke-width: 1; opacity: 1;"></line><line transform="translate(0,227)" x2="-5" y2="0" style="fill: none; stroke: #888; stroke-width: 1; opacity: 1;"></line><line transform="translate(0,220)" x2="-5" y2="0" style="fill: none; stroke: #888; stroke-width: 1; opacity: 1;"></line><line transform="translate(0,215)" x2="-5" y2="0" style="fill: none; stroke: #888; stroke-width: 1; opacity: 1;"></line><line transform="translate(0,210)" x2="-5" y2="0" style="fill: none; stroke: #888; stroke-width: 1; opacity: 1;"></line><line transform="translate(0,206)" x2="-5" y2="0" style="fill: none; stroke: #888; stroke-width: 1; opacity: 1;"></line><line transform="translate(0,203)" x2="-5" y2="0" style="fill: none; stroke: #888; stroke-width: 1; opacity: 1;"></line><line transform="translate(0,200)" x2="-5" y2="0" style="fill: none; stroke: #888; stroke-width: 1; opacity: 1;"></line><line transform="translate(0,180)" x2="-5" y2="0" style="fill: none; stroke: #888; stroke-width: 1; opacity: 1;"></line><line transform="translate(0,168)" x2="-5" y2="0" style="fill: none; stroke: #888; stroke-width: 1; opacity: 1;"></line><line transform="translate(0,160)" x2="-5" y2="0" style="fill: none; stroke: #888; stroke-width: 1; opacity: 1;"></line><line transform="translate(0,153)" x2="-5" y2="0" style="fill: none; stroke: #888; stroke-width: 1; opacity: 1;"></line><line transform="translate(0,148)" x2="-5" y2="0" style="fill: none; stroke: #888; stroke-width: 1; opacity: 1;"></line><line transform="translate(0,144)" x2="-5" y2="0" style="fill: none; stroke: #888; stroke-width: 1; opacity: 1;"></line><line transform="translate(0,140)" x2="-5" y2="0" style="fill: none; stroke: #888; stroke-width: 1; opacity: 1;"></line><line transform="translate(0,136)" x2="-5" y2="0" style="fill: none; stroke: #888; stroke-width: 1; opacity: 1;"></line><line transform="translate(0,133)" x2="-5" y2="0" style="fill: none; stroke: #888; stroke-width: 1; opacity: 1;"></line><line transform="translate(0,113)" x2="-5" y2="0" style="fill: none; stroke: #888; stroke-width: 1; opacity: 1;"></line><line transform="translate(0,102)" x2="-5" y2="0" style="fill: none; stroke: #888; stroke-width: 1; opacity: 1;"></line><line transform="translate(0,93)" x2="-5" y2="0" style="fill: none; stroke: #888; stroke-width: 1; opacity: 1;"></line><line transform="translate(0,87)" x2="-5" y2="0" style="fill: none; stroke: #888; stroke-width: 1; opacity: 1;"></line><line transform="translate(0,81)" x2="-5" y2="0" style="fill: none; stroke: #888; stroke-width: 1; opacity: 1;"></line><line transform="translate(0,77)" x2="-5" y2="0" style="fill: none; stroke: #888; stroke-width: 1; opacity: 1;"></line><line transform="translate(0,73)" x2="-5" y2="0" style="fill: none; stroke: #888; stroke-width: 1; opacity: 1;"></line><line transform="translate(0,70)" x2="-5" y2="0" style="fill: none; stroke: #888; stroke-width: 1; opacity: 1;"></line><line transform="translate(0,67)" x2="-5" y2="0" style="fill: none; stroke: #888; stroke-width: 1; opacity: 1;"></line><line transform="translate(0,47)" x2="-5" y2="0" style="fill: none; stroke: #888; stroke-width: 1; opacity: 1;"></line><line transform="translate(0,35)" x2="-5" y2="0" style="fill: none; stroke: #888; stroke-width: 1; opacity: 1;"></line><line transform="translate(0,27)" x2="-5" y2="0" style="fill: none; stroke: #888; stroke-width: 1; opacity: 1;"></line><line transform="translate(0,20)" x2="-5" y2="0" style="fill: none; stroke: #888; stroke-width: 1; opacity: 1;"></line><line transform="translate(0,15)" x2="-5" y2="0" style="fill: none; stroke: #888; stroke-width: 1; opacity: 1;"></line><line transform="translate(0,10)" x2="-5" y2="0" style="fill: none; stroke: #888; stroke-width: 1; opacity: 1;"></line><line transform="translate(0,6)" x2="-5" y2="0" style="fill: none; stroke: #888; stroke-width: 1; opacity: 1;"></line><line transform="translate(0,3)" x2="-5" y2="0" style="fill: none; stroke: #888; stroke-width: 1; opacity: 1;"></line><line transform="translate(0,0)" x2="-5" y2="0" style="fill: none; stroke: #888; stroke-width: 1; opacity: 1;"></line></g><g class="mark-text role-axis-label" style="pointer-events: none;"><text text-anchor="end" transform="translate(-7,403)" style="font-family: sans-serif; font-size: 10px; fill: #000; opacity: 1;">1</text><text text-anchor="end" transform="translate(-7,382.9313336224012)" style="font-family: sans-serif; font-size: 10px; fill: #000; opacity: 1;"></text><text text-anchor="end" transform="translate(-7,371.19191635202253)" style="font-family: sans-serif; font-size: 10px; fill: #000; opacity: 1;"></text><text text-anchor="end" transform="translate(-7,362.86266724480254)" style="font-family: sans-serif; font-size: 10px; fill: #000; opacity: 1;"></text><text text-anchor="end" transform="translate(-7,356.40199971093205)" style="font-family: sans-serif; font-size: 10px; fill: #000; opacity: 1;"></text><text text-anchor="end" transform="translate(-7,351.12324997442374)" style="font-family: sans-serif; font-size: 10px; fill: #000; opacity: 1;"></text><text text-anchor="end" transform="translate(-7,346.6601306657162)" style="font-family: sans-serif; font-size: 10px; fill: #000; opacity: 1;"></text><text text-anchor="end" transform="translate(-7,342.79400086720375)" style="font-family: sans-serif; font-size: 10px; fill: #000; opacity: 1;"></text><text text-anchor="end" transform="translate(-7,339.383832704045)" style="font-family: sans-serif; font-size: 10px; fill: #000; opacity: 1;"></text><text text-anchor="end" transform="translate(-7,336.3333333333333)" style="font-family: sans-serif; font-size: 10px; fill: #000; opacity: 1;">10</text><text text-anchor="end" transform="translate(-7,316.2646669557346)" style="font-family: sans-serif; font-size: 10px; fill: #000; opacity: 1;"></text><text text-anchor="end" transform="translate(-7,304.52524968535585)" style="font-family: sans-serif; font-size: 10px; fill: #000; opacity: 1;"></text><text text-anchor="end" transform="translate(-7,296.19600057813585)" style="font-family: sans-serif; font-size: 10px; fill: #000; opacity: 1;"></text><text text-anchor="end" transform="translate(-7,289.7353330442654)" style="font-family: sans-serif; font-size: 10px; fill: #000; opacity: 1;"></text><text text-anchor="end" transform="translate(-7,284.4565833077571)" style="font-family: sans-serif; font-size: 10px; fill: #000; opacity: 1;"></text><text text-anchor="end" transform="translate(-7,279.99346399904954)" style="font-family: sans-serif; font-size: 10px; fill: #000; opacity: 1;"></text><text text-anchor="end" transform="translate(-7,276.1273342005371)" style="font-family: sans-serif; font-size: 10px; fill: #000; opacity: 1;"></text><text text-anchor="end" transform="translate(-7,272.7171660373783)" style="font-family: sans-serif; font-size: 10px; fill: #000; opacity: 1;"></text><text text-anchor="end" transform="translate(-7,269.66666666666663)" style="font-family: sans-serif; font-size: 10px; fill: #000; opacity: 1;">100</text><text text-anchor="end" transform="translate(-7,249.59800028906793)" style="font-family: sans-serif; font-size: 10px; fill: #000; opacity: 1;"></text><text text-anchor="end" transform="translate(-7,237.85858301868916)" style="font-family: sans-serif; font-size: 10px; fill: #000; opacity: 1;"></text><text text-anchor="end" transform="translate(-7,229.52933391146917)" style="font-family: sans-serif; font-size: 10px; fill: #000; opacity: 1;"></text><text text-anchor="end" transform="translate(-7,223.06866637759873)" style="font-family: sans-serif; font-size: 10px; fill: #000; opacity: 1;"></text><text text-anchor="end" transform="translate(-7,217.78991664109043)" style="font-family: sans-serif; font-size: 10px; fill: #000; opacity: 1;"></text><text text-anchor="end" transform="translate(-7,213.32679733238288)" style="font-family: sans-serif; font-size: 10px; fill: #000; opacity: 1;"></text><text text-anchor="end" transform="translate(-7,209.46066753387043)" style="font-family: sans-serif; font-size: 10px; fill: #000; opacity: 1;"></text><text text-anchor="end" transform="translate(-7,206.05049937071166)" style="font-family: sans-serif; font-size: 10px; fill: #000; opacity: 1;"></text><text text-anchor="end" transform="translate(-7,203)" style="font-family: sans-serif; font-size: 10px; fill: #000; opacity: 1;">1,000</text><text text-anchor="end" transform="translate(-7,182.93133362240124)" style="font-family: sans-serif; font-size: 10px; fill: #000; opacity: 1;"></text><text text-anchor="end" transform="translate(-7,171.1919163520225)" style="font-family: sans-serif; font-size: 10px; fill: #000; opacity: 1;"></text><text text-anchor="end" transform="translate(-7,162.8626672448025)" style="font-family: sans-serif; font-size: 10px; fill: #000; opacity: 1;"></text><text text-anchor="end" transform="translate(-7,156.40199971093207)" style="font-family: sans-serif; font-size: 10px; fill: #000; opacity: 1;"></text><text text-anchor="end" transform="translate(-7,151.1232499744238)" style="font-family: sans-serif; font-size: 10px; fill: #000; opacity: 1;"></text><text text-anchor="end" transform="translate(-7,146.6601306657162)" style="font-family: sans-serif; font-size: 10px; fill: #000; opacity: 1;"></text><text text-anchor="end" transform="translate(-7,142.79400086720375)" style="font-family: sans-serif; font-size: 10px; fill: #000; opacity: 1;"></text><text text-anchor="end" transform="translate(-7,139.38383270404498)" style="font-family: sans-serif; font-size: 10px; fill: #000; opacity: 1;"></text><text text-anchor="end" transform="translate(-7,136.33333333333331)" style="font-family: sans-serif; font-size: 10px; fill: #000; opacity: 1;">10,000</text><text text-anchor="end" transform="translate(-7,116.26466695573458)" style="font-family: sans-serif; font-size: 10px; fill: #000; opacity: 1;"></text><text text-anchor="end" transform="translate(-7,104.52524968535582)" style="font-family: sans-serif; font-size: 10px; fill: #000; opacity: 1;"></text><text text-anchor="end" transform="translate(-7,96.19600057813587)" style="font-family: sans-serif; font-size: 10px; fill: #000; opacity: 1;"></text><text text-anchor="end" transform="translate(-7,89.73533304426542)" style="font-family: sans-serif; font-size: 10px; fill: #000; opacity: 1;"></text><text text-anchor="end" transform="translate(-7,84.45658330775709)" style="font-family: sans-serif; font-size: 10px; fill: #000; opacity: 1;"></text><text text-anchor="end" transform="translate(-7,79.99346399904954)" style="font-family: sans-serif; font-size: 10px; fill: #000; opacity: 1;"></text><text text-anchor="end" transform="translate(-7,76.12733420053709)" style="font-family: sans-serif; font-size: 10px; fill: #000; opacity: 1;"></text><text text-anchor="end" transform="translate(-7,72.71716603737832)" style="font-family: sans-serif; font-size: 10px; fill: #000; opacity: 1;"></text><text text-anchor="end" transform="translate(-7,69.66666666666666)" style="font-family: sans-serif; font-size: 10px; fill: #000; opacity: 1;">100,000</text><text text-anchor="end" transform="translate(-7,49.59800028906788)" style="font-family: sans-serif; font-size: 10px; fill: #000; opacity: 1;"></text><text text-anchor="end" transform="translate(-7,37.85858301868916)" style="font-family: sans-serif; font-size: 10px; fill: #000; opacity: 1;"></text><text text-anchor="end" transform="translate(-7,29.529333911469166)" style="font-family: sans-serif; font-size: 10px; fill: #000; opacity: 1;"></text><text text-anchor="end" transform="translate(-7,23.068666377598767)" style="font-family: sans-serif; font-size: 10px; fill: #000; opacity: 1;"></text><text text-anchor="end" transform="translate(-7,17.78991664109044)" style="font-family: sans-serif; font-size: 10px; fill: #000; opacity: 1;"></text><text text-anchor="end" transform="translate(-7,13.326797332382842)" style="font-family: sans-serif; font-size: 10px; fill: #000; opacity: 1;"></text><text text-anchor="end" transform="translate(-7,9.460667533870401)" style="font-family: sans-serif; font-size: 10px; fill: #000; opacity: 1;"></text><text text-anchor="end" transform="translate(-7,6.0504993707116235)" style="font-family: sans-serif; font-size: 10px; fill: #000; opacity: 1;"></text><text text-anchor="end" transform="translate(-7,3)" style="font-family: sans-serif; font-size: 10px; fill: #000; opacity: 1;">1,000,000</text></g><g class="mark-rule role-axis-domain" style="pointer-events: none;"><line transform="translate(0,400)" x2="0" y2="-400" style="fill: none; stroke: #888; stroke-width: 1; opacity: 1;"></line></g><g class="mark-text role-axis-title" style="pointer-events: none;"><text text-anchor="middle" transform="translate(-55.4873046875,200) rotate(-90) translate(0,-2)" style="font-family: sans-serif; font-size: 11px; font-weight: bold; fill: #000; opacity: 1;">Count</text></g></g><path class="foreground" d="" style="pointer-events: none; display: none; fill: none;"></path></g></g><g class="mark-group role-scope pathgroup"><g transform="translate(0,0)"><path class="background" d="M0,0h800v400h-800Z" style="fill: none;"></path><g><g class="mark-line role-mark marks"><path d="M0,339.79400086720375L10.672595886603668,339.79400086720375L21.345191773207336,336.383832704045L32.017787659811006,336.383832704045L42.69038354641467,336.383832704045L53.362979433018346,336.383832704045L64.03557531962201,336.383832704045L74.70817120622569,336.383832704045L85.38076709282934,336.383832704045L96.05336297943302,336.383832704045L106.72595886603669,336.383832704045L117.39855475264036,336.383832704045L128.07115063924402,336.383832704045L138.74374652584768,336.383832704045L149.41634241245137,325.73710984621084L160.08893829905503,325.73710984621084L170.7615341856587,325.73710984621084L181.43413007226238,321.5939160629546L192.10672595886604,313.2646669557346L202.7793218454697,309.21814426549383L213.45191773207338,296.2464999488475L224.12451361867704,293.19600057813585L234.79710950528073,286.16198826013755L245.4697053918844,271.0334365837622L256.14230127848805,262.3694673848721L266.8148971650917,252.34374346348682L277.48749305169537,245.60197696953884L288.16008893829905,237.48329581197413L298.83268482490274,232.80960855361127L309.50528071150643,227.71125170883124L320.17787659811006,222.54582096418258L330.8504724847137,222.54582096418258L341.5230683713174,206.38837544772244L352.19566425792107,196.10493170286628L362.86826014452475,196.0796342216062L373.5408560311284,187.29254681242634L384.2134519177321,180.51626190956824L394.88604780433576,171.87114578143277L405.5586436909394,171.0713489594357L416.23123957754314,159.7615087899022L426.90383546414677,153.01660638062188L437.57643135075045,149.38066446504644L448.2490272373541,144.81620913475885L458.9216231239577,139.2064669303978L469.59421901056146,134.39486440647795L480.2668148971651,128.5117707804639L490.9394107837688,122.09034820747884L501.6120066703724,117.44351710490166L512.2846025569761,113.58491418258927L522.5125069483046,109.91504157603758L533.1851028349082,106.25223547644929L543.857698721512,101.65583206112726L554.5302946081156,97.75445956139185L565.2028904947193,94.16083302693119L575.875486381323,91.45641090159305L586.5480822679266,87.65544863182018L597.2206781545303,85.44484855049576L607.893274041134,83.48051142627537L618.5658699277377,80.7539018144916L629.2384658143413,78.75327668977259L639.911061700945,75.1488043529014L650.5836575875486,73.17297106961274L661.2562534741522,71.30198814611406L671.928849360756,69.85582838570248L682.6014452473596,68.19903727540665L693.2740411339634,66.81674177740274L703.946637020567,65.49077171251767L714.6192329071707,63.9680194810591L725.2918287937744,62.54119752256497L735.964424680378,61.106514921303656L746.6370205669816,60.00840501802314L757.3096164535852,59.032161498312874L767.982212340189,58.05548988504397L778.6548082267926,57.08115143859032L789.3274041133964,55.98077245791413L800,55.010560664967215" style="fill: none; stroke: orange; stroke-width: 2; opacity: 0.9;"></path></g></g><path class="foreground" d="" style="display: none; fill: none;"></path></g><g transform="translate(0,0)"><path class="background" d="M0,0h800v400h-800Z" style="fill: none;"></path><g><g class="mark-line role-mark marks"><path d="M64.03557531962201,339.79400086720375L74.70817120622569,339.79400086720375L85.38076709282934,339.79400086720375L96.05336297943302,339.79400086720375L106.72595886603669,339.79400086720375L117.39855475264036,339.79400086720375L128.07115063924402,339.79400086720375L138.74374652584768,339.79400086720375L149.41634241245137,339.79400086720375L160.08893829905503,339.79400086720375L170.7615341856587,339.79400086720375L181.43413007226238,339.79400086720375L192.10672595886604,339.79400086720375L202.7793218454697,339.79400086720375L213.45191773207338,339.79400086720375L224.12451361867704,339.79400086720375L234.79710950528073,339.79400086720375L245.4697053918844,339.79400086720375L256.14230127848805,339.79400086720375L266.8148971650917,339.79400086720375L277.48749305169537,316.3151663264463L288.16008893829905,316.3151663264463L298.83268482490274,316.3151663264463L309.50528071150643,314.74975993647803L320.17787659811006,314.74975993647803L330.8504724847137,314.74975993647803L341.5230683713174,314.74975993647803L352.19566425792107,314.74975993647803L362.86826014452475,314.74975993647803L373.5408560311284,311.8520470177387L384.2134519177321,285.0482753599474L394.88604780433576,278.2616798199449L405.5586436909394,278.2616798199449L416.23123957754314,278.2616798199449L426.90383546414677,278.2616798199449L437.57643135075045,278.2616798199449L448.2490272373541,278.2616798199449L458.9216231239577,256.9247976214508L469.59421901056146,256.9247976214508L480.2668148971651,254.92724939628792L490.9394107837688,254.73487018045535L501.6120066703724,254.73487018045535L512.2846025569761,254.73487018045535L522.5125069483046,251.13359264052306L533.1851028349082,249.80979793467378L543.857698721512,249.80979793467378L554.5302946081156,247.77991808643006L565.2028904947193,245.4624443358159L575.875486381323,244.504102672293L586.5480822679266,242.67763451067412L597.2206781545303,236.14120688440048L607.893274041134,232.54110926807502L618.5658699277377,230.81206032844835L629.2384658143413,229.6603700947787L639.911061700945,215.3748449282574L650.5836575875486,213.74730768727872L661.2562534741522,213.56171111930468L671.928849360756,234.47509442608307L682.6014452473596,232.7198318445931L693.2740411339634,228.9434787550988L703.946637020567,228.39791548481872L714.6192329071707,226.9669185449617L725.2918287937744,225.53331059194005L735.964424680378,224.03423404876094L746.6370205669816,223.3776760858572L757.3096164535852,213.01195475192253L767.982212340189,211.03861975456448L778.6548082267926,209.83466709087625L789.3274041133964,209.35076225352356L800,207.41726928780713" style="fill: none; stroke: green; stroke-width: 2; opacity: 0.9;"></path></g></g><path class="foreground" d="" style="display: none; fill: none;"></path></g><g transform="translate(0,0)"><path class="background" d="M0,0h800v400h-800Z" style="fill: none;"></path><g><g class="mark-line role-mark marks"><path d="M309.50528071150643,348.12324997442374L320.17787659811006,339.79400086720375L330.8504724847137,339.79400086720375L341.5230683713174,339.79400086720375L352.19566425792107,311.8520470177387L362.86826014452475,311.8520470177387L373.5408560311284,283.45413153292L384.2134519177321,283.45413153292L394.88604780433576,276.17783357124875L405.5586436909394,257.3413942399176L416.23123957754314,249.9719998460737L426.90383546414677,242.05227617265712L437.57643135075045,236.65005944537594L448.2490272373541,231.57738150734372L458.9216231239577,224.9106421749972L469.59421901056146,222.10760555400003L480.2668148971651,215.77146709580416L490.9394107837688,207.90768954862847L501.6120066703724,199.39828386087265L512.2846025569761,193.98279647124554L522.5125069483046,190.03153241637682L533.1851028349082,183.09464736252116L543.857698721512,175.17602783171174L554.5302946081156,168.91504521404718L565.2028904947193,162.82483410487822L575.875486381323,157.63441687900587L586.5480822679266,153.7339593026149L597.2206781545303,151.25428615773333L607.893274041134,147.30963023904087L618.5658699277377,143.20462142398216L629.2384658143413,139.8193458020082L639.911061700945,136.46759565352963L650.5836575875486,133.64772615404937L661.2562534741522,131.567172863144L671.928849360756,129.67459634248192L682.6014452473596,127.74500026311091L693.2740411339634,125.97415560832755L703.946637020567,124.09420862309446L714.6192329071707,122.36259804896288L725.2918287937744,120.64828956286928L735.964424680378,119.55393459855782L746.6370205669816,118.74680012588415L757.3096164535852,117.3333471408752L767.982212340189,116.07329621442611L778.6548082267926,115.07000716333278L789.3274041133964,113.89838366612892L800,112.71830073434663" style="fill: none; stroke: red; stroke-width: 2; opacity: 0.9;"></path></g></g><path class="foreground" d="" style="display: none; fill: none;"></path></g></g><g class="mark-group role-legend"><g transform="translate(820,0)"><path class="background" d="M0,0h61v53h-61Z" style="pointer-events: none; fill: none;"></path><g><g class="mark-group role-legend-entry"><g transform="translate(0,16)"><path class="background" d="M0,0h0v0h0Z" style="pointer-events: none; fill: none;"></path><g><g class="mark-group role-scope"><g transform="translate(0,0)"><path class="background" d="M0,0h60.4677734375v11h-60.4677734375Z" style="pointer-events: none; fill: none; opacity: 1;"></path><g><g class="mark-symbol role-legend-symbol" style="pointer-events: none;"><path transform="translate(6,6)" d="M-5,0L5,0" style="fill: none; stroke: orange; stroke-width: 1.5; opacity: 0.9;"></path></g><g class="mark-text role-legend-label" style="pointer-events: none;"><text text-anchor="start" transform="translate(16,9)" style="font-family: sans-serif; font-size: 10px; fill: #000; opacity: 1;">confirmed</text></g></g><path class="foreground" d="" style="pointer-events: none; display: none; fill: none;"></path></g><g transform="translate(0,13)"><path class="background" d="M0,0h60.4677734375v11h-60.4677734375Z" style="pointer-events: none; fill: none; opacity: 1;"></path><g><g class="mark-symbol role-legend-symbol" style="pointer-events: none;"><path transform="translate(6,6)" d="M-5,0L5,0" style="fill: none; stroke: red; stroke-width: 1.5; opacity: 0.9;"></path></g><g class="mark-text role-legend-label" style="pointer-events: none;"><text text-anchor="start" transform="translate(16,9)" style="font-family: sans-serif; font-size: 10px; fill: #000; opacity: 1;">deaths</text></g></g><path class="foreground" d="" style="pointer-events: none; display: none; fill: none;"></path></g><g transform="translate(0,26)"><path class="background" d="M0,0h60.4677734375v11h-60.4677734375Z" style="pointer-events: none; fill: none; opacity: 1;"></path><g><g class="mark-symbol role-legend-symbol" style="pointer-events: none;"><path transform="translate(6,6)" d="M-5,0L5,0" style="fill: none; stroke: green; stroke-width: 1.5; opacity: 0.9;"></path></g><g class="mark-text role-legend-label" style="pointer-events: none;"><text text-anchor="start" transform="translate(16,9)" style="font-family: sans-serif; font-size: 10px; fill: #000; opacity: 1;">recovered</text></g></g><path class="foreground" d="" style="pointer-events: none; display: none; fill: none;"></path></g></g></g><path class="foreground" d="" style="pointer-events: none; display: none; fill: none;"></path></g></g><g class="mark-text role-legend-title" style="pointer-events: none;"><text text-anchor="start" transform="translate(0,9)" style="font-family: sans-serif; font-size: 11px; font-weight: bold; fill: #000; opacity: 1;">Category</text></g></g><path class="foreground" d="" style="pointer-events: none; display: none; fill: none;"></path></g></g><g class="mark-group role-title"><g transform="translate(400,-22)"><path class="background" d="M0,0h0v0h0Z" style="pointer-events: none; fill: none;"></path><g><g class="mark-text role-title-text" style="pointer-events: none;"><text text-anchor="middle" transform="translate(0,10)" style="font-family: sans-serif; font-size: 13px; font-weight: bold; fill: #000; opacity: 1;">Covid-19 time series of ['confirmed', 'deaths', 'recovered'] in united-kingdom as of 04-25-2020 from CovidAPI</text></g></g><path class="foreground" d="" style="pointer-events: none; display: none; fill: none;"></path></g></g></g><path class="foreground" d="" style="display: none; fill: none;"></path></g></g></g></svg>